%TF.GenerationSoftware,KiCad,Pcbnew,7.0.8*%
%TF.CreationDate,2024-09-15T13:04:07-06:00*%
%TF.ProjectId,CANBOARD_REV1,43414e42-4f41-4524-945f-524556312e6b,rev?*%
%TF.SameCoordinates,Original*%
%TF.FileFunction,Legend,Bot*%
%TF.FilePolarity,Positive*%
%FSLAX46Y46*%
G04 Gerber Fmt 4.6, Leading zero omitted, Abs format (unit mm)*
G04 Created by KiCad (PCBNEW 7.0.8) date 2024-09-15 13:04:07*
%MOMM*%
%LPD*%
G01*
G04 APERTURE LIST*
%ADD10C,0.150000*%
%ADD11C,1.600000*%
%ADD12O,1.600000X1.600000*%
%ADD13R,2.600000X2.600000*%
%ADD14C,2.600000*%
%ADD15C,1.800000*%
%ADD16C,1.727200*%
%ADD17R,1.727200X1.727200*%
%ADD18R,1.700000X1.700000*%
%ADD19O,1.700000X1.700000*%
%ADD20C,2.400000*%
%ADD21R,1.800000X1.800000*%
%ADD22C,2.340000*%
G04 APERTURE END LIST*
D10*
X225419639Y-90948057D02*
X225372020Y-90900438D01*
X225372020Y-90900438D02*
X225276782Y-90852819D01*
X225276782Y-90852819D02*
X225038687Y-90852819D01*
X225038687Y-90852819D02*
X224943449Y-90900438D01*
X224943449Y-90900438D02*
X224895830Y-90948057D01*
X224895830Y-90948057D02*
X224848211Y-91043295D01*
X224848211Y-91043295D02*
X224848211Y-91138533D01*
X224848211Y-91138533D02*
X224895830Y-91281390D01*
X224895830Y-91281390D02*
X225467258Y-91852819D01*
X225467258Y-91852819D02*
X224848211Y-91852819D01*
X223991068Y-91186152D02*
X223991068Y-91852819D01*
X224229163Y-90805200D02*
X224467258Y-91519485D01*
X224467258Y-91519485D02*
X223848211Y-91519485D01*
X222752973Y-90805200D02*
X223610115Y-92090914D01*
X222467258Y-90948057D02*
X222419639Y-90900438D01*
X222419639Y-90900438D02*
X222324401Y-90852819D01*
X222324401Y-90852819D02*
X222086306Y-90852819D01*
X222086306Y-90852819D02*
X221991068Y-90900438D01*
X221991068Y-90900438D02*
X221943449Y-90948057D01*
X221943449Y-90948057D02*
X221895830Y-91043295D01*
X221895830Y-91043295D02*
X221895830Y-91138533D01*
X221895830Y-91138533D02*
X221943449Y-91281390D01*
X221943449Y-91281390D02*
X222514877Y-91852819D01*
X222514877Y-91852819D02*
X221895830Y-91852819D01*
X220991068Y-90852819D02*
X221467258Y-90852819D01*
X221467258Y-90852819D02*
X221514877Y-91329009D01*
X221514877Y-91329009D02*
X221467258Y-91281390D01*
X221467258Y-91281390D02*
X221372020Y-91233771D01*
X221372020Y-91233771D02*
X221133925Y-91233771D01*
X221133925Y-91233771D02*
X221038687Y-91281390D01*
X221038687Y-91281390D02*
X220991068Y-91329009D01*
X220991068Y-91329009D02*
X220943449Y-91424247D01*
X220943449Y-91424247D02*
X220943449Y-91662342D01*
X220943449Y-91662342D02*
X220991068Y-91757580D01*
X220991068Y-91757580D02*
X221038687Y-91805200D01*
X221038687Y-91805200D02*
X221133925Y-91852819D01*
X221133925Y-91852819D02*
X221372020Y-91852819D01*
X221372020Y-91852819D02*
X221467258Y-91805200D01*
X221467258Y-91805200D02*
X221514877Y-91757580D01*
X219181544Y-91852819D02*
X219514877Y-91376628D01*
X219752972Y-91852819D02*
X219752972Y-90852819D01*
X219752972Y-90852819D02*
X219372020Y-90852819D01*
X219372020Y-90852819D02*
X219276782Y-90900438D01*
X219276782Y-90900438D02*
X219229163Y-90948057D01*
X219229163Y-90948057D02*
X219181544Y-91043295D01*
X219181544Y-91043295D02*
X219181544Y-91186152D01*
X219181544Y-91186152D02*
X219229163Y-91281390D01*
X219229163Y-91281390D02*
X219276782Y-91329009D01*
X219276782Y-91329009D02*
X219372020Y-91376628D01*
X219372020Y-91376628D02*
X219752972Y-91376628D01*
X218372020Y-91805200D02*
X218467258Y-91852819D01*
X218467258Y-91852819D02*
X218657734Y-91852819D01*
X218657734Y-91852819D02*
X218752972Y-91805200D01*
X218752972Y-91805200D02*
X218800591Y-91709961D01*
X218800591Y-91709961D02*
X218800591Y-91329009D01*
X218800591Y-91329009D02*
X218752972Y-91233771D01*
X218752972Y-91233771D02*
X218657734Y-91186152D01*
X218657734Y-91186152D02*
X218467258Y-91186152D01*
X218467258Y-91186152D02*
X218372020Y-91233771D01*
X218372020Y-91233771D02*
X218324401Y-91329009D01*
X218324401Y-91329009D02*
X218324401Y-91424247D01*
X218324401Y-91424247D02*
X218800591Y-91519485D01*
X217991067Y-91186152D02*
X217752972Y-91852819D01*
X217752972Y-91852819D02*
X217514877Y-91186152D01*
X215848210Y-91852819D02*
X216419638Y-91852819D01*
X216133924Y-91852819D02*
X216133924Y-90852819D01*
X216133924Y-90852819D02*
X216229162Y-90995676D01*
X216229162Y-90995676D02*
X216324400Y-91090914D01*
X216324400Y-91090914D02*
X216419638Y-91138533D01*
X214086305Y-91757580D02*
X214133924Y-91805200D01*
X214133924Y-91805200D02*
X214276781Y-91852819D01*
X214276781Y-91852819D02*
X214372019Y-91852819D01*
X214372019Y-91852819D02*
X214514876Y-91805200D01*
X214514876Y-91805200D02*
X214610114Y-91709961D01*
X214610114Y-91709961D02*
X214657733Y-91614723D01*
X214657733Y-91614723D02*
X214705352Y-91424247D01*
X214705352Y-91424247D02*
X214705352Y-91281390D01*
X214705352Y-91281390D02*
X214657733Y-91090914D01*
X214657733Y-91090914D02*
X214610114Y-90995676D01*
X214610114Y-90995676D02*
X214514876Y-90900438D01*
X214514876Y-90900438D02*
X214372019Y-90852819D01*
X214372019Y-90852819D02*
X214276781Y-90852819D01*
X214276781Y-90852819D02*
X214133924Y-90900438D01*
X214133924Y-90900438D02*
X214086305Y-90948057D01*
X213705352Y-91567104D02*
X213229162Y-91567104D01*
X213800590Y-91852819D02*
X213467257Y-90852819D01*
X213467257Y-90852819D02*
X213133924Y-91852819D01*
X212800590Y-91852819D02*
X212800590Y-90852819D01*
X212800590Y-90852819D02*
X212229162Y-91852819D01*
X212229162Y-91852819D02*
X212229162Y-90852819D01*
X211752971Y-91471866D02*
X210991067Y-91471866D01*
X210181543Y-91329009D02*
X210038686Y-91376628D01*
X210038686Y-91376628D02*
X209991067Y-91424247D01*
X209991067Y-91424247D02*
X209943448Y-91519485D01*
X209943448Y-91519485D02*
X209943448Y-91662342D01*
X209943448Y-91662342D02*
X209991067Y-91757580D01*
X209991067Y-91757580D02*
X210038686Y-91805200D01*
X210038686Y-91805200D02*
X210133924Y-91852819D01*
X210133924Y-91852819D02*
X210514876Y-91852819D01*
X210514876Y-91852819D02*
X210514876Y-90852819D01*
X210514876Y-90852819D02*
X210181543Y-90852819D01*
X210181543Y-90852819D02*
X210086305Y-90900438D01*
X210086305Y-90900438D02*
X210038686Y-90948057D01*
X210038686Y-90948057D02*
X209991067Y-91043295D01*
X209991067Y-91043295D02*
X209991067Y-91138533D01*
X209991067Y-91138533D02*
X210038686Y-91233771D01*
X210038686Y-91233771D02*
X210086305Y-91281390D01*
X210086305Y-91281390D02*
X210181543Y-91329009D01*
X210181543Y-91329009D02*
X210514876Y-91329009D01*
X209086305Y-91186152D02*
X209086305Y-91852819D01*
X209514876Y-91186152D02*
X209514876Y-91709961D01*
X209514876Y-91709961D02*
X209467257Y-91805200D01*
X209467257Y-91805200D02*
X209372019Y-91852819D01*
X209372019Y-91852819D02*
X209229162Y-91852819D01*
X209229162Y-91852819D02*
X209133924Y-91805200D01*
X209133924Y-91805200D02*
X209086305Y-91757580D01*
X208657733Y-91805200D02*
X208562495Y-91852819D01*
X208562495Y-91852819D02*
X208372019Y-91852819D01*
X208372019Y-91852819D02*
X208276781Y-91805200D01*
X208276781Y-91805200D02*
X208229162Y-91709961D01*
X208229162Y-91709961D02*
X208229162Y-91662342D01*
X208229162Y-91662342D02*
X208276781Y-91567104D01*
X208276781Y-91567104D02*
X208372019Y-91519485D01*
X208372019Y-91519485D02*
X208514876Y-91519485D01*
X208514876Y-91519485D02*
X208610114Y-91471866D01*
X208610114Y-91471866D02*
X208657733Y-91376628D01*
X208657733Y-91376628D02*
X208657733Y-91329009D01*
X208657733Y-91329009D02*
X208610114Y-91233771D01*
X208610114Y-91233771D02*
X208514876Y-91186152D01*
X208514876Y-91186152D02*
X208372019Y-91186152D01*
X208372019Y-91186152D02*
X208276781Y-91233771D01*
X207038685Y-91852819D02*
X207038685Y-90852819D01*
X207038685Y-90852819D02*
X206705352Y-91567104D01*
X206705352Y-91567104D02*
X206372019Y-90852819D01*
X206372019Y-90852819D02*
X206372019Y-91852819D01*
X205752971Y-91852819D02*
X205848209Y-91805200D01*
X205848209Y-91805200D02*
X205895828Y-91757580D01*
X205895828Y-91757580D02*
X205943447Y-91662342D01*
X205943447Y-91662342D02*
X205943447Y-91376628D01*
X205943447Y-91376628D02*
X205895828Y-91281390D01*
X205895828Y-91281390D02*
X205848209Y-91233771D01*
X205848209Y-91233771D02*
X205752971Y-91186152D01*
X205752971Y-91186152D02*
X205610114Y-91186152D01*
X205610114Y-91186152D02*
X205514876Y-91233771D01*
X205514876Y-91233771D02*
X205467257Y-91281390D01*
X205467257Y-91281390D02*
X205419638Y-91376628D01*
X205419638Y-91376628D02*
X205419638Y-91662342D01*
X205419638Y-91662342D02*
X205467257Y-91757580D01*
X205467257Y-91757580D02*
X205514876Y-91805200D01*
X205514876Y-91805200D02*
X205610114Y-91852819D01*
X205610114Y-91852819D02*
X205752971Y-91852819D01*
X205133923Y-91186152D02*
X204752971Y-91186152D01*
X204991066Y-90852819D02*
X204991066Y-91709961D01*
X204991066Y-91709961D02*
X204943447Y-91805200D01*
X204943447Y-91805200D02*
X204848209Y-91852819D01*
X204848209Y-91852819D02*
X204752971Y-91852819D01*
X204419637Y-91852819D02*
X204419637Y-90852819D01*
X203991066Y-91852819D02*
X203991066Y-91329009D01*
X203991066Y-91329009D02*
X204038685Y-91233771D01*
X204038685Y-91233771D02*
X204133923Y-91186152D01*
X204133923Y-91186152D02*
X204276780Y-91186152D01*
X204276780Y-91186152D02*
X204372018Y-91233771D01*
X204372018Y-91233771D02*
X204419637Y-91281390D01*
X203133923Y-91805200D02*
X203229161Y-91852819D01*
X203229161Y-91852819D02*
X203419637Y-91852819D01*
X203419637Y-91852819D02*
X203514875Y-91805200D01*
X203514875Y-91805200D02*
X203562494Y-91709961D01*
X203562494Y-91709961D02*
X203562494Y-91329009D01*
X203562494Y-91329009D02*
X203514875Y-91233771D01*
X203514875Y-91233771D02*
X203419637Y-91186152D01*
X203419637Y-91186152D02*
X203229161Y-91186152D01*
X203229161Y-91186152D02*
X203133923Y-91233771D01*
X203133923Y-91233771D02*
X203086304Y-91329009D01*
X203086304Y-91329009D02*
X203086304Y-91424247D01*
X203086304Y-91424247D02*
X203562494Y-91519485D01*
X202657732Y-91852819D02*
X202657732Y-91186152D01*
X202657732Y-91376628D02*
X202610113Y-91281390D01*
X202610113Y-91281390D02*
X202562494Y-91233771D01*
X202562494Y-91233771D02*
X202467256Y-91186152D01*
X202467256Y-91186152D02*
X202372018Y-91186152D01*
X202038684Y-91852819D02*
X202038684Y-90852819D01*
X202038684Y-91233771D02*
X201943446Y-91186152D01*
X201943446Y-91186152D02*
X201752970Y-91186152D01*
X201752970Y-91186152D02*
X201657732Y-91233771D01*
X201657732Y-91233771D02*
X201610113Y-91281390D01*
X201610113Y-91281390D02*
X201562494Y-91376628D01*
X201562494Y-91376628D02*
X201562494Y-91662342D01*
X201562494Y-91662342D02*
X201610113Y-91757580D01*
X201610113Y-91757580D02*
X201657732Y-91805200D01*
X201657732Y-91805200D02*
X201752970Y-91852819D01*
X201752970Y-91852819D02*
X201943446Y-91852819D01*
X201943446Y-91852819D02*
X202038684Y-91805200D01*
X200991065Y-91852819D02*
X201086303Y-91805200D01*
X201086303Y-91805200D02*
X201133922Y-91757580D01*
X201133922Y-91757580D02*
X201181541Y-91662342D01*
X201181541Y-91662342D02*
X201181541Y-91376628D01*
X201181541Y-91376628D02*
X201133922Y-91281390D01*
X201133922Y-91281390D02*
X201086303Y-91233771D01*
X201086303Y-91233771D02*
X200991065Y-91186152D01*
X200991065Y-91186152D02*
X200848208Y-91186152D01*
X200848208Y-91186152D02*
X200752970Y-91233771D01*
X200752970Y-91233771D02*
X200705351Y-91281390D01*
X200705351Y-91281390D02*
X200657732Y-91376628D01*
X200657732Y-91376628D02*
X200657732Y-91662342D01*
X200657732Y-91662342D02*
X200705351Y-91757580D01*
X200705351Y-91757580D02*
X200752970Y-91805200D01*
X200752970Y-91805200D02*
X200848208Y-91852819D01*
X200848208Y-91852819D02*
X200991065Y-91852819D01*
X199800589Y-91852819D02*
X199800589Y-91329009D01*
X199800589Y-91329009D02*
X199848208Y-91233771D01*
X199848208Y-91233771D02*
X199943446Y-91186152D01*
X199943446Y-91186152D02*
X200133922Y-91186152D01*
X200133922Y-91186152D02*
X200229160Y-91233771D01*
X199800589Y-91805200D02*
X199895827Y-91852819D01*
X199895827Y-91852819D02*
X200133922Y-91852819D01*
X200133922Y-91852819D02*
X200229160Y-91805200D01*
X200229160Y-91805200D02*
X200276779Y-91709961D01*
X200276779Y-91709961D02*
X200276779Y-91614723D01*
X200276779Y-91614723D02*
X200229160Y-91519485D01*
X200229160Y-91519485D02*
X200133922Y-91471866D01*
X200133922Y-91471866D02*
X199895827Y-91471866D01*
X199895827Y-91471866D02*
X199800589Y-91424247D01*
X199324398Y-91852819D02*
X199324398Y-91186152D01*
X199324398Y-91376628D02*
X199276779Y-91281390D01*
X199276779Y-91281390D02*
X199229160Y-91233771D01*
X199229160Y-91233771D02*
X199133922Y-91186152D01*
X199133922Y-91186152D02*
X199038684Y-91186152D01*
X198276779Y-91852819D02*
X198276779Y-90852819D01*
X198276779Y-91805200D02*
X198372017Y-91852819D01*
X198372017Y-91852819D02*
X198562493Y-91852819D01*
X198562493Y-91852819D02*
X198657731Y-91805200D01*
X198657731Y-91805200D02*
X198705350Y-91757580D01*
X198705350Y-91757580D02*
X198752969Y-91662342D01*
X198752969Y-91662342D02*
X198752969Y-91376628D01*
X198752969Y-91376628D02*
X198705350Y-91281390D01*
X198705350Y-91281390D02*
X198657731Y-91233771D01*
X198657731Y-91233771D02*
X198562493Y-91186152D01*
X198562493Y-91186152D02*
X198372017Y-91186152D01*
X198372017Y-91186152D02*
X198276779Y-91233771D01*
X209752971Y-92939009D02*
X209610114Y-92986628D01*
X209610114Y-92986628D02*
X209562495Y-93034247D01*
X209562495Y-93034247D02*
X209514876Y-93129485D01*
X209514876Y-93129485D02*
X209514876Y-93272342D01*
X209514876Y-93272342D02*
X209562495Y-93367580D01*
X209562495Y-93367580D02*
X209610114Y-93415200D01*
X209610114Y-93415200D02*
X209705352Y-93462819D01*
X209705352Y-93462819D02*
X210086304Y-93462819D01*
X210086304Y-93462819D02*
X210086304Y-92462819D01*
X210086304Y-92462819D02*
X209752971Y-92462819D01*
X209752971Y-92462819D02*
X209657733Y-92510438D01*
X209657733Y-92510438D02*
X209610114Y-92558057D01*
X209610114Y-92558057D02*
X209562495Y-92653295D01*
X209562495Y-92653295D02*
X209562495Y-92748533D01*
X209562495Y-92748533D02*
X209610114Y-92843771D01*
X209610114Y-92843771D02*
X209657733Y-92891390D01*
X209657733Y-92891390D02*
X209752971Y-92939009D01*
X209752971Y-92939009D02*
X210086304Y-92939009D01*
X209181542Y-92796152D02*
X208943447Y-93462819D01*
X208705352Y-92796152D02*
X208943447Y-93462819D01*
X208943447Y-93462819D02*
X209038685Y-93700914D01*
X209038685Y-93700914D02*
X209086304Y-93748533D01*
X209086304Y-93748533D02*
X209181542Y-93796152D01*
X208324399Y-93367580D02*
X208276780Y-93415200D01*
X208276780Y-93415200D02*
X208324399Y-93462819D01*
X208324399Y-93462819D02*
X208372018Y-93415200D01*
X208372018Y-93415200D02*
X208324399Y-93367580D01*
X208324399Y-93367580D02*
X208324399Y-93462819D01*
X208324399Y-92843771D02*
X208276780Y-92891390D01*
X208276780Y-92891390D02*
X208324399Y-92939009D01*
X208324399Y-92939009D02*
X208372018Y-92891390D01*
X208372018Y-92891390D02*
X208324399Y-92843771D01*
X208324399Y-92843771D02*
X208324399Y-92939009D01*
X207086304Y-93462819D02*
X207086304Y-92462819D01*
X207086304Y-92462819D02*
X206848209Y-92462819D01*
X206848209Y-92462819D02*
X206705352Y-92510438D01*
X206705352Y-92510438D02*
X206610114Y-92605676D01*
X206610114Y-92605676D02*
X206562495Y-92700914D01*
X206562495Y-92700914D02*
X206514876Y-92891390D01*
X206514876Y-92891390D02*
X206514876Y-93034247D01*
X206514876Y-93034247D02*
X206562495Y-93224723D01*
X206562495Y-93224723D02*
X206610114Y-93319961D01*
X206610114Y-93319961D02*
X206705352Y-93415200D01*
X206705352Y-93415200D02*
X206848209Y-93462819D01*
X206848209Y-93462819D02*
X207086304Y-93462819D01*
X205657733Y-93462819D02*
X205657733Y-92939009D01*
X205657733Y-92939009D02*
X205705352Y-92843771D01*
X205705352Y-92843771D02*
X205800590Y-92796152D01*
X205800590Y-92796152D02*
X205991066Y-92796152D01*
X205991066Y-92796152D02*
X206086304Y-92843771D01*
X205657733Y-93415200D02*
X205752971Y-93462819D01*
X205752971Y-93462819D02*
X205991066Y-93462819D01*
X205991066Y-93462819D02*
X206086304Y-93415200D01*
X206086304Y-93415200D02*
X206133923Y-93319961D01*
X206133923Y-93319961D02*
X206133923Y-93224723D01*
X206133923Y-93224723D02*
X206086304Y-93129485D01*
X206086304Y-93129485D02*
X205991066Y-93081866D01*
X205991066Y-93081866D02*
X205752971Y-93081866D01*
X205752971Y-93081866D02*
X205657733Y-93034247D01*
X205276780Y-92796152D02*
X205038685Y-93462819D01*
X204800590Y-92796152D02*
X205038685Y-93462819D01*
X205038685Y-93462819D02*
X205133923Y-93700914D01*
X205133923Y-93700914D02*
X205181542Y-93748533D01*
X205181542Y-93748533D02*
X205276780Y-93796152D01*
X204276780Y-93462819D02*
X204372018Y-93415200D01*
X204372018Y-93415200D02*
X204419637Y-93319961D01*
X204419637Y-93319961D02*
X204419637Y-92462819D01*
X203514875Y-93415200D02*
X203610113Y-93462819D01*
X203610113Y-93462819D02*
X203800589Y-93462819D01*
X203800589Y-93462819D02*
X203895827Y-93415200D01*
X203895827Y-93415200D02*
X203943446Y-93319961D01*
X203943446Y-93319961D02*
X203943446Y-92939009D01*
X203943446Y-92939009D02*
X203895827Y-92843771D01*
X203895827Y-92843771D02*
X203800589Y-92796152D01*
X203800589Y-92796152D02*
X203610113Y-92796152D01*
X203610113Y-92796152D02*
X203514875Y-92843771D01*
X203514875Y-92843771D02*
X203467256Y-92939009D01*
X203467256Y-92939009D02*
X203467256Y-93034247D01*
X203467256Y-93034247D02*
X203943446Y-93129485D01*
X203038684Y-92796152D02*
X203038684Y-93462819D01*
X203038684Y-92891390D02*
X202991065Y-92843771D01*
X202991065Y-92843771D02*
X202895827Y-92796152D01*
X202895827Y-92796152D02*
X202752970Y-92796152D01*
X202752970Y-92796152D02*
X202657732Y-92843771D01*
X202657732Y-92843771D02*
X202610113Y-92939009D01*
X202610113Y-92939009D02*
X202610113Y-93462819D01*
X201038684Y-92939009D02*
X201372017Y-92939009D01*
X201372017Y-93462819D02*
X201372017Y-92462819D01*
X201372017Y-92462819D02*
X200895827Y-92462819D01*
X200133922Y-93415200D02*
X200229160Y-93462819D01*
X200229160Y-93462819D02*
X200419636Y-93462819D01*
X200419636Y-93462819D02*
X200514874Y-93415200D01*
X200514874Y-93415200D02*
X200562493Y-93319961D01*
X200562493Y-93319961D02*
X200562493Y-92939009D01*
X200562493Y-92939009D02*
X200514874Y-92843771D01*
X200514874Y-92843771D02*
X200419636Y-92796152D01*
X200419636Y-92796152D02*
X200229160Y-92796152D01*
X200229160Y-92796152D02*
X200133922Y-92843771D01*
X200133922Y-92843771D02*
X200086303Y-92939009D01*
X200086303Y-92939009D02*
X200086303Y-93034247D01*
X200086303Y-93034247D02*
X200562493Y-93129485D01*
X199657731Y-93462819D02*
X199657731Y-92796152D01*
X199657731Y-92462819D02*
X199705350Y-92510438D01*
X199705350Y-92510438D02*
X199657731Y-92558057D01*
X199657731Y-92558057D02*
X199610112Y-92510438D01*
X199610112Y-92510438D02*
X199657731Y-92462819D01*
X199657731Y-92462819D02*
X199657731Y-92558057D01*
X199229160Y-93415200D02*
X199133922Y-93462819D01*
X199133922Y-93462819D02*
X198943446Y-93462819D01*
X198943446Y-93462819D02*
X198848208Y-93415200D01*
X198848208Y-93415200D02*
X198800589Y-93319961D01*
X198800589Y-93319961D02*
X198800589Y-93272342D01*
X198800589Y-93272342D02*
X198848208Y-93177104D01*
X198848208Y-93177104D02*
X198943446Y-93129485D01*
X198943446Y-93129485D02*
X199086303Y-93129485D01*
X199086303Y-93129485D02*
X199181541Y-93081866D01*
X199181541Y-93081866D02*
X199229160Y-92986628D01*
X199229160Y-92986628D02*
X199229160Y-92939009D01*
X199229160Y-92939009D02*
X199181541Y-92843771D01*
X199181541Y-92843771D02*
X199086303Y-92796152D01*
X199086303Y-92796152D02*
X198943446Y-92796152D01*
X198943446Y-92796152D02*
X198848208Y-92843771D01*
X198514874Y-92796152D02*
X198133922Y-92796152D01*
X198372017Y-92462819D02*
X198372017Y-93319961D01*
X198372017Y-93319961D02*
X198324398Y-93415200D01*
X198324398Y-93415200D02*
X198229160Y-93462819D01*
X198229160Y-93462819D02*
X198133922Y-93462819D01*
X207943445Y-94168057D02*
X207895826Y-94120438D01*
X207895826Y-94120438D02*
X207800588Y-94072819D01*
X207800588Y-94072819D02*
X207562493Y-94072819D01*
X207562493Y-94072819D02*
X207467255Y-94120438D01*
X207467255Y-94120438D02*
X207419636Y-94168057D01*
X207419636Y-94168057D02*
X207372017Y-94263295D01*
X207372017Y-94263295D02*
X207372017Y-94358533D01*
X207372017Y-94358533D02*
X207419636Y-94501390D01*
X207419636Y-94501390D02*
X207991064Y-95072819D01*
X207991064Y-95072819D02*
X207372017Y-95072819D01*
X206752969Y-94072819D02*
X206657731Y-94072819D01*
X206657731Y-94072819D02*
X206562493Y-94120438D01*
X206562493Y-94120438D02*
X206514874Y-94168057D01*
X206514874Y-94168057D02*
X206467255Y-94263295D01*
X206467255Y-94263295D02*
X206419636Y-94453771D01*
X206419636Y-94453771D02*
X206419636Y-94691866D01*
X206419636Y-94691866D02*
X206467255Y-94882342D01*
X206467255Y-94882342D02*
X206514874Y-94977580D01*
X206514874Y-94977580D02*
X206562493Y-95025200D01*
X206562493Y-95025200D02*
X206657731Y-95072819D01*
X206657731Y-95072819D02*
X206752969Y-95072819D01*
X206752969Y-95072819D02*
X206848207Y-95025200D01*
X206848207Y-95025200D02*
X206895826Y-94977580D01*
X206895826Y-94977580D02*
X206943445Y-94882342D01*
X206943445Y-94882342D02*
X206991064Y-94691866D01*
X206991064Y-94691866D02*
X206991064Y-94453771D01*
X206991064Y-94453771D02*
X206943445Y-94263295D01*
X206943445Y-94263295D02*
X206895826Y-94168057D01*
X206895826Y-94168057D02*
X206848207Y-94120438D01*
X206848207Y-94120438D02*
X206752969Y-94072819D01*
X206038683Y-94168057D02*
X205991064Y-94120438D01*
X205991064Y-94120438D02*
X205895826Y-94072819D01*
X205895826Y-94072819D02*
X205657731Y-94072819D01*
X205657731Y-94072819D02*
X205562493Y-94120438D01*
X205562493Y-94120438D02*
X205514874Y-94168057D01*
X205514874Y-94168057D02*
X205467255Y-94263295D01*
X205467255Y-94263295D02*
X205467255Y-94358533D01*
X205467255Y-94358533D02*
X205514874Y-94501390D01*
X205514874Y-94501390D02*
X206086302Y-95072819D01*
X206086302Y-95072819D02*
X205467255Y-95072819D01*
X204610112Y-94406152D02*
X204610112Y-95072819D01*
X204848207Y-94025200D02*
X205086302Y-94739485D01*
X205086302Y-94739485D02*
X204467255Y-94739485D01*
X204086302Y-94691866D02*
X203324398Y-94691866D01*
X202657731Y-94072819D02*
X202562493Y-94072819D01*
X202562493Y-94072819D02*
X202467255Y-94120438D01*
X202467255Y-94120438D02*
X202419636Y-94168057D01*
X202419636Y-94168057D02*
X202372017Y-94263295D01*
X202372017Y-94263295D02*
X202324398Y-94453771D01*
X202324398Y-94453771D02*
X202324398Y-94691866D01*
X202324398Y-94691866D02*
X202372017Y-94882342D01*
X202372017Y-94882342D02*
X202419636Y-94977580D01*
X202419636Y-94977580D02*
X202467255Y-95025200D01*
X202467255Y-95025200D02*
X202562493Y-95072819D01*
X202562493Y-95072819D02*
X202657731Y-95072819D01*
X202657731Y-95072819D02*
X202752969Y-95025200D01*
X202752969Y-95025200D02*
X202800588Y-94977580D01*
X202800588Y-94977580D02*
X202848207Y-94882342D01*
X202848207Y-94882342D02*
X202895826Y-94691866D01*
X202895826Y-94691866D02*
X202895826Y-94453771D01*
X202895826Y-94453771D02*
X202848207Y-94263295D01*
X202848207Y-94263295D02*
X202800588Y-94168057D01*
X202800588Y-94168057D02*
X202752969Y-94120438D01*
X202752969Y-94120438D02*
X202657731Y-94072819D01*
X201848207Y-95072819D02*
X201657731Y-95072819D01*
X201657731Y-95072819D02*
X201562493Y-95025200D01*
X201562493Y-95025200D02*
X201514874Y-94977580D01*
X201514874Y-94977580D02*
X201419636Y-94834723D01*
X201419636Y-94834723D02*
X201372017Y-94644247D01*
X201372017Y-94644247D02*
X201372017Y-94263295D01*
X201372017Y-94263295D02*
X201419636Y-94168057D01*
X201419636Y-94168057D02*
X201467255Y-94120438D01*
X201467255Y-94120438D02*
X201562493Y-94072819D01*
X201562493Y-94072819D02*
X201752969Y-94072819D01*
X201752969Y-94072819D02*
X201848207Y-94120438D01*
X201848207Y-94120438D02*
X201895826Y-94168057D01*
X201895826Y-94168057D02*
X201943445Y-94263295D01*
X201943445Y-94263295D02*
X201943445Y-94501390D01*
X201943445Y-94501390D02*
X201895826Y-94596628D01*
X201895826Y-94596628D02*
X201848207Y-94644247D01*
X201848207Y-94644247D02*
X201752969Y-94691866D01*
X201752969Y-94691866D02*
X201562493Y-94691866D01*
X201562493Y-94691866D02*
X201467255Y-94644247D01*
X201467255Y-94644247D02*
X201419636Y-94596628D01*
X201419636Y-94596628D02*
X201372017Y-94501390D01*
X200943445Y-94691866D02*
X200181541Y-94691866D01*
X199181541Y-95072819D02*
X199752969Y-95072819D01*
X199467255Y-95072819D02*
X199467255Y-94072819D01*
X199467255Y-94072819D02*
X199562493Y-94215676D01*
X199562493Y-94215676D02*
X199657731Y-94310914D01*
X199657731Y-94310914D02*
X199752969Y-94358533D01*
X198276779Y-94072819D02*
X198752969Y-94072819D01*
X198752969Y-94072819D02*
X198800588Y-94549009D01*
X198800588Y-94549009D02*
X198752969Y-94501390D01*
X198752969Y-94501390D02*
X198657731Y-94453771D01*
X198657731Y-94453771D02*
X198419636Y-94453771D01*
X198419636Y-94453771D02*
X198324398Y-94501390D01*
X198324398Y-94501390D02*
X198276779Y-94549009D01*
X198276779Y-94549009D02*
X198229160Y-94644247D01*
X198229160Y-94644247D02*
X198229160Y-94882342D01*
X198229160Y-94882342D02*
X198276779Y-94977580D01*
X198276779Y-94977580D02*
X198324398Y-95025200D01*
X198324398Y-95025200D02*
X198419636Y-95072819D01*
X198419636Y-95072819D02*
X198657731Y-95072819D01*
X198657731Y-95072819D02*
X198752969Y-95025200D01*
X198752969Y-95025200D02*
X198800588Y-94977580D01*
X79030180Y-56278094D02*
X80030180Y-56278094D01*
X80030180Y-56278094D02*
X80030180Y-56039999D01*
X80030180Y-56039999D02*
X79982561Y-55897142D01*
X79982561Y-55897142D02*
X79887323Y-55801904D01*
X79887323Y-55801904D02*
X79792085Y-55754285D01*
X79792085Y-55754285D02*
X79601609Y-55706666D01*
X79601609Y-55706666D02*
X79458752Y-55706666D01*
X79458752Y-55706666D02*
X79268276Y-55754285D01*
X79268276Y-55754285D02*
X79173038Y-55801904D01*
X79173038Y-55801904D02*
X79077800Y-55897142D01*
X79077800Y-55897142D02*
X79030180Y-56039999D01*
X79030180Y-56039999D02*
X79030180Y-56278094D01*
X80030180Y-55087618D02*
X80030180Y-54992380D01*
X80030180Y-54992380D02*
X79982561Y-54897142D01*
X79982561Y-54897142D02*
X79934942Y-54849523D01*
X79934942Y-54849523D02*
X79839704Y-54801904D01*
X79839704Y-54801904D02*
X79649228Y-54754285D01*
X79649228Y-54754285D02*
X79411133Y-54754285D01*
X79411133Y-54754285D02*
X79220657Y-54801904D01*
X79220657Y-54801904D02*
X79125419Y-54849523D01*
X79125419Y-54849523D02*
X79077800Y-54897142D01*
X79077800Y-54897142D02*
X79030180Y-54992380D01*
X79030180Y-54992380D02*
X79030180Y-55087618D01*
X79030180Y-55087618D02*
X79077800Y-55182856D01*
X79077800Y-55182856D02*
X79125419Y-55230475D01*
X79125419Y-55230475D02*
X79220657Y-55278094D01*
X79220657Y-55278094D02*
X79411133Y-55325713D01*
X79411133Y-55325713D02*
X79649228Y-55325713D01*
X79649228Y-55325713D02*
X79839704Y-55278094D01*
X79839704Y-55278094D02*
X79934942Y-55230475D01*
X79934942Y-55230475D02*
X79982561Y-55182856D01*
X79982561Y-55182856D02*
X80030180Y-55087618D01*
%LPC*%
D11*
%TO.C,R4*%
X135181000Y-78002500D03*
D12*
X135181000Y-67842500D03*
%TD*%
D13*
%TO.C,J3*%
X26915000Y-27100000D03*
D14*
X31995000Y-27100000D03*
X37075000Y-27100000D03*
%TD*%
D13*
%TO.C,J1*%
X88920000Y-26600000D03*
D14*
X94000000Y-26600000D03*
X99080000Y-26600000D03*
X104160000Y-26600000D03*
X109240000Y-26600000D03*
X114320000Y-26600000D03*
X119400000Y-26600000D03*
X124480000Y-26600000D03*
%TD*%
D15*
%TO.C,A1*%
X77580000Y-50460000D03*
X77580000Y-91100000D03*
X92820000Y-50460000D03*
X92820000Y-91100000D03*
D16*
X92820000Y-86020000D03*
X92820000Y-60620000D03*
X92820000Y-80940000D03*
X92820000Y-78400000D03*
X92820000Y-75860000D03*
X92820000Y-73320000D03*
X92820000Y-70780000D03*
X92820000Y-68240000D03*
X92820000Y-65700000D03*
X92820000Y-63160000D03*
X92820000Y-83480000D03*
X92820000Y-58080000D03*
X77580000Y-55540000D03*
X77580000Y-53000000D03*
X77580000Y-63160000D03*
X77580000Y-65700000D03*
X77580000Y-68240000D03*
X77580000Y-70780000D03*
X77580000Y-73320000D03*
X77580000Y-75860000D03*
X77580000Y-78400000D03*
X77580000Y-80940000D03*
X77580000Y-83480000D03*
X77580000Y-86020000D03*
X77580000Y-88560000D03*
X92820000Y-88560000D03*
D17*
X77580000Y-60620000D03*
X92820000Y-55540000D03*
D16*
X77580000Y-58080000D03*
X92820000Y-53000000D03*
%TD*%
D18*
%TO.C,J5*%
X134200000Y-22520000D03*
D19*
X134200000Y-25060000D03*
X134200000Y-27600000D03*
X134200000Y-30140000D03*
X134200000Y-32680000D03*
X134200000Y-35220000D03*
X134200000Y-37760000D03*
X134200000Y-40300000D03*
%TD*%
D20*
%TO.C,F1*%
X124196000Y-73480000D03*
X124196000Y-63560000D03*
X127596000Y-73480000D03*
X127596000Y-63560000D03*
%TD*%
D21*
%TO.C,D2*%
X189375000Y-62700000D03*
D15*
X186835000Y-62700000D03*
%TD*%
D21*
%TO.C,D3*%
X189275000Y-73300000D03*
D15*
X186735000Y-73300000D03*
%TD*%
D13*
%TO.C,J8*%
X217805000Y-78520000D03*
D14*
X217805000Y-73440000D03*
X217805000Y-68360000D03*
X217805000Y-63280000D03*
%TD*%
D13*
%TO.C,J6*%
X128690000Y-88637000D03*
D14*
X133770000Y-88637000D03*
%TD*%
D11*
%TO.C,R8*%
X206180000Y-78400000D03*
D12*
X196020000Y-78400000D03*
%TD*%
D11*
%TO.C,R5*%
X193180000Y-67700000D03*
D12*
X183020000Y-67700000D03*
%TD*%
D22*
%TO.C,RV1*%
X193315000Y-50503000D03*
X190815000Y-40503000D03*
X188315000Y-50503000D03*
%TD*%
D18*
%TO.C,J4*%
X105840000Y-91183000D03*
D19*
X108380000Y-91183000D03*
X110920000Y-91183000D03*
X113460000Y-91183000D03*
%TD*%
D18*
%TO.C,J9*%
X120440000Y-62028000D03*
D19*
X120440000Y-64568000D03*
%TD*%
D11*
%TO.C,R1*%
X28000000Y-73720000D03*
D12*
X28000000Y-83880000D03*
%TD*%
D13*
%TO.C,J7*%
X185515000Y-26600000D03*
D14*
X190595000Y-26600000D03*
X195675000Y-26600000D03*
%TD*%
D11*
%TO.C,R6*%
X193100000Y-78400000D03*
D12*
X182940000Y-78400000D03*
%TD*%
D13*
%TO.C,J2*%
X44640000Y-26600000D03*
D14*
X49720000Y-26600000D03*
X54800000Y-26600000D03*
X59880000Y-26600000D03*
X64960000Y-26600000D03*
X70040000Y-26600000D03*
X75120000Y-26600000D03*
X80200000Y-26600000D03*
%TD*%
D11*
%TO.C,R7*%
X206100000Y-67700000D03*
D12*
X195940000Y-67700000D03*
%TD*%
D21*
%TO.C,D1*%
X135381000Y-62047500D03*
D15*
X135381000Y-64587500D03*
%TD*%
D18*
%TO.C,Q1*%
X27000000Y-59320000D03*
D19*
X27000000Y-61860000D03*
X27000000Y-64400000D03*
%TD*%
D11*
%TO.C,R2*%
X32400000Y-73720000D03*
D12*
X32400000Y-83880000D03*
%TD*%
D18*
%TO.C,Q2*%
X32200000Y-49860000D03*
D19*
X32200000Y-52400000D03*
X32200000Y-54940000D03*
%TD*%
D18*
%TO.C,Q3*%
X37800000Y-59200000D03*
D19*
X37800000Y-61740000D03*
X37800000Y-64280000D03*
%TD*%
D11*
%TO.C,R3*%
X37200000Y-73720000D03*
D12*
X37200000Y-83880000D03*
%TD*%
%LPD*%
M02*
