%TF.GenerationSoftware,KiCad,Pcbnew,7.0.8*%
%TF.CreationDate,2024-09-15T13:04:07-06:00*%
%TF.ProjectId,CANBOARD_REV1,43414e42-4f41-4524-945f-524556312e6b,rev?*%
%TF.SameCoordinates,Original*%
%TF.FileFunction,Copper,L1,Top*%
%TF.FilePolarity,Positive*%
%FSLAX46Y46*%
G04 Gerber Fmt 4.6, Leading zero omitted, Abs format (unit mm)*
G04 Created by KiCad (PCBNEW 7.0.8) date 2024-09-15 13:04:07*
%MOMM*%
%LPD*%
G01*
G04 APERTURE LIST*
%TA.AperFunction,ComponentPad*%
%ADD10C,1.600000*%
%TD*%
%TA.AperFunction,ComponentPad*%
%ADD11O,1.600000X1.600000*%
%TD*%
%TA.AperFunction,ComponentPad*%
%ADD12R,2.600000X2.600000*%
%TD*%
%TA.AperFunction,ComponentPad*%
%ADD13C,2.600000*%
%TD*%
%TA.AperFunction,ComponentPad*%
%ADD14C,1.727200*%
%TD*%
%TA.AperFunction,ComponentPad*%
%ADD15R,1.727200X1.727200*%
%TD*%
%TA.AperFunction,ComponentPad*%
%ADD16R,1.700000X1.700000*%
%TD*%
%TA.AperFunction,ComponentPad*%
%ADD17O,1.700000X1.700000*%
%TD*%
%TA.AperFunction,ComponentPad*%
%ADD18C,2.400000*%
%TD*%
%TA.AperFunction,ComponentPad*%
%ADD19R,1.800000X1.800000*%
%TD*%
%TA.AperFunction,ComponentPad*%
%ADD20C,1.800000*%
%TD*%
%TA.AperFunction,ComponentPad*%
%ADD21C,2.340000*%
%TD*%
%TA.AperFunction,ViaPad*%
%ADD22C,0.800000*%
%TD*%
%TA.AperFunction,Conductor*%
%ADD23C,0.250000*%
%TD*%
%TA.AperFunction,Conductor*%
%ADD24C,0.500000*%
%TD*%
%TA.AperFunction,Conductor*%
%ADD25C,1.000000*%
%TD*%
G04 APERTURE END LIST*
D10*
%TO.P,R4,1*%
%TO.N,/V_in_unreg*%
X135181000Y-78002500D03*
D11*
%TO.P,R4,2*%
%TO.N,Net-(D1-A)*%
X135181000Y-67842500D03*
%TD*%
D12*
%TO.P,J3,1,Pin_1*%
%TO.N,/Seat*%
X26915000Y-27100000D03*
D13*
%TO.P,J3,2,Pin_2*%
%TO.N,/Brake*%
X31995000Y-27100000D03*
%TO.P,J3,3,Pin_3*%
%TO.N,/Neutral*%
X37075000Y-27100000D03*
%TD*%
D12*
%TO.P,J1,1,Pin_1*%
%TO.N,/A7*%
X88920000Y-26600000D03*
D13*
%TO.P,J1,2,Pin_2*%
%TO.N,/A6*%
X94000000Y-26600000D03*
%TO.P,J1,3,Pin_3*%
%TO.N,/A5{slash}SCL*%
X99080000Y-26600000D03*
%TO.P,J1,4,Pin_4*%
%TO.N,/A4{slash}SDA*%
X104160000Y-26600000D03*
%TO.P,J1,5,Pin_5*%
%TO.N,/A3*%
X109240000Y-26600000D03*
%TO.P,J1,6,Pin_6*%
%TO.N,/A2*%
X114320000Y-26600000D03*
%TO.P,J1,7,Pin_7*%
%TO.N,/A1*%
X119400000Y-26600000D03*
%TO.P,J1,8,Pin_8*%
%TO.N,/A0*%
X124480000Y-26600000D03*
%TD*%
D14*
%TO.P,A1,3V3,3.3V*%
%TO.N,+3V3*%
X92820000Y-86020000D03*
%TO.P,A1,5V,5V*%
%TO.N,+5V*%
X92820000Y-60620000D03*
%TO.P,A1,A0,A0*%
%TO.N,/A0*%
X92820000Y-80940000D03*
%TO.P,A1,A1,A1*%
%TO.N,/A1*%
X92820000Y-78400000D03*
%TO.P,A1,A2,A2*%
%TO.N,/A2*%
X92820000Y-75860000D03*
%TO.P,A1,A3,A3*%
%TO.N,/A3*%
X92820000Y-73320000D03*
%TO.P,A1,A4,A4/SDA*%
%TO.N,/A4{slash}SDA*%
X92820000Y-70780000D03*
%TO.P,A1,A5,A5/SCL*%
%TO.N,/A5{slash}SCL*%
X92820000Y-68240000D03*
%TO.P,A1,A6,A6*%
%TO.N,/A6*%
X92820000Y-65700000D03*
%TO.P,A1,A7,A7*%
%TO.N,/A7*%
X92820000Y-63160000D03*
%TO.P,A1,B0,B0*%
%TO.N,unconnected-(A1-PadB0)*%
X92820000Y-83480000D03*
%TO.P,A1,B1,B1*%
%TO.N,unconnected-(A1-PadB1)*%
X92820000Y-58080000D03*
%TO.P,A1,D0,D0/RX*%
%TO.N,unconnected-(A1-D0{slash}RX-PadD0)*%
X77580000Y-55540000D03*
%TO.P,A1,D1,D1/TX*%
%TO.N,unconnected-(A1-D1{slash}TX-PadD1)*%
X77580000Y-53000000D03*
%TO.P,A1,D2,D2*%
%TO.N,/D2*%
X77580000Y-63160000D03*
%TO.P,A1,D3,D3*%
%TO.N,/D3*%
X77580000Y-65700000D03*
%TO.P,A1,D4,D4*%
%TO.N,/D4*%
X77580000Y-68240000D03*
%TO.P,A1,D5,D5*%
%TO.N,/D5*%
X77580000Y-70780000D03*
%TO.P,A1,D6,D6*%
%TO.N,/D6*%
X77580000Y-73320000D03*
%TO.P,A1,D7,D7*%
%TO.N,/D7*%
X77580000Y-75860000D03*
%TO.P,A1,D8,D8*%
%TO.N,/D8*%
X77580000Y-78400000D03*
%TO.P,A1,D9,D9*%
%TO.N,/D9*%
X77580000Y-80940000D03*
%TO.P,A1,D10,D10*%
%TO.N,/CAN_RX*%
X77580000Y-83480000D03*
%TO.P,A1,D11,D11_MOSI*%
%TO.N,/CAN_TX*%
X77580000Y-86020000D03*
%TO.P,A1,D12,D12_MISO*%
%TO.N,unconnected-(A1-D12_MISO-PadD12)*%
X77580000Y-88560000D03*
%TO.P,A1,D13,D13_SCK*%
%TO.N,unconnected-(A1-D13_SCK-PadD13)*%
X92820000Y-88560000D03*
D15*
%TO.P,A1,GND1,GND*%
%TO.N,GND*%
X77580000Y-60620000D03*
%TO.P,A1,GND2,GND*%
X92820000Y-55540000D03*
D14*
%TO.P,A1,RST,~{RESET}*%
%TO.N,unconnected-(A1-~{RESET}-PadRST)*%
X77580000Y-58080000D03*
%TO.P,A1,VIN,VIN*%
%TO.N,/V_in*%
X92820000Y-53000000D03*
%TD*%
D16*
%TO.P,J5,1,Pin_1*%
%TO.N,+5V*%
X134200000Y-22520000D03*
D17*
%TO.P,J5,2,Pin_2*%
X134200000Y-25060000D03*
%TO.P,J5,3,Pin_3*%
%TO.N,+3V3*%
X134200000Y-27600000D03*
%TO.P,J5,4,Pin_4*%
X134200000Y-30140000D03*
%TO.P,J5,5,Pin_5*%
%TO.N,GND*%
X134200000Y-32680000D03*
%TO.P,J5,6,Pin_6*%
X134200000Y-35220000D03*
%TO.P,J5,7,Pin_7*%
X134200000Y-37760000D03*
%TO.P,J5,8,Pin_8*%
X134200000Y-40300000D03*
%TD*%
D18*
%TO.P,F1,1*%
%TO.N,/V_in_unreg*%
X124196000Y-73480000D03*
%TO.P,F1,2*%
%TO.N,/V_in*%
X124196000Y-63560000D03*
%TO.P,F1,3*%
%TO.N,/V_in_unreg*%
X127596000Y-73480000D03*
%TO.P,F1,4*%
%TO.N,/V_in*%
X127596000Y-63560000D03*
%TD*%
D19*
%TO.P,D2,1,K*%
%TO.N,Net-(D2-K)*%
X189375000Y-62700000D03*
D20*
%TO.P,D2,2,A*%
%TO.N,+12V*%
X186835000Y-62700000D03*
%TD*%
D19*
%TO.P,D3,1,K*%
%TO.N,Net-(D3-K)*%
X189275000Y-73300000D03*
D20*
%TO.P,D3,2,A*%
%TO.N,+12V*%
X186735000Y-73300000D03*
%TD*%
D12*
%TO.P,J8,1,Pin_1*%
%TO.N,+12V*%
X217805000Y-78520000D03*
D13*
%TO.P,J8,2,Pin_2*%
%TO.N,GND*%
X217805000Y-73440000D03*
%TO.P,J8,3,Pin_3*%
%TO.N,/PIN_M_MIL*%
X217805000Y-68360000D03*
%TO.P,J8,4,Pin_4*%
%TO.N,/PIN_N_Oil*%
X217805000Y-63280000D03*
%TD*%
D12*
%TO.P,J6,1,Pin_1*%
%TO.N,GND*%
X128690000Y-88637000D03*
D13*
%TO.P,J6,2,Pin_2*%
%TO.N,/V_in_unreg*%
X133770000Y-88637000D03*
%TD*%
D10*
%TO.P,R8,1*%
%TO.N,/PIN_M_MIL*%
X206180000Y-78400000D03*
D11*
%TO.P,R8,2*%
%TO.N,Net-(D3-K)*%
X196020000Y-78400000D03*
%TD*%
D10*
%TO.P,R5,1*%
%TO.N,Net-(D2-K)*%
X193180000Y-67700000D03*
D11*
%TO.P,R5,2*%
%TO.N,+12V*%
X183020000Y-67700000D03*
%TD*%
D21*
%TO.P,RV1,1,1*%
%TO.N,+5V*%
X193315000Y-50503000D03*
%TO.P,RV1,2,2*%
%TO.N,/Accel_sig*%
X190815000Y-40503000D03*
%TO.P,RV1,3,3*%
%TO.N,GND*%
X188315000Y-50503000D03*
%TD*%
D16*
%TO.P,J4,1,Pin_1*%
%TO.N,+3V3*%
X105840000Y-91183000D03*
D17*
%TO.P,J4,2,Pin_2*%
%TO.N,GND*%
X108380000Y-91183000D03*
%TO.P,J4,3,Pin_3*%
%TO.N,/CAN_RX*%
X110920000Y-91183000D03*
%TO.P,J4,4,Pin_4*%
%TO.N,/CAN_TX*%
X113460000Y-91183000D03*
%TD*%
D16*
%TO.P,J9,1,Pin_1*%
%TO.N,/V_in*%
X120440000Y-62028000D03*
D17*
%TO.P,J9,2,Pin_2*%
%TO.N,+5V*%
X120440000Y-64568000D03*
%TD*%
D10*
%TO.P,R1,1*%
%TO.N,/D2*%
X28000000Y-73720000D03*
D11*
%TO.P,R1,2*%
%TO.N,GND*%
X28000000Y-83880000D03*
%TD*%
D12*
%TO.P,J7,1,Pin_1*%
%TO.N,GND*%
X185515000Y-26600000D03*
D13*
%TO.P,J7,2,Pin_2*%
%TO.N,/Accel_sig*%
X190595000Y-26600000D03*
%TO.P,J7,3,Pin_3*%
%TO.N,+5V*%
X195675000Y-26600000D03*
%TD*%
D10*
%TO.P,R6,1*%
%TO.N,Net-(D3-K)*%
X193100000Y-78400000D03*
D11*
%TO.P,R6,2*%
%TO.N,+12V*%
X182940000Y-78400000D03*
%TD*%
D12*
%TO.P,J2,1,Pin_1*%
%TO.N,/D9*%
X44640000Y-26600000D03*
D13*
%TO.P,J2,2,Pin_2*%
%TO.N,/D8*%
X49720000Y-26600000D03*
%TO.P,J2,3,Pin_3*%
%TO.N,/D7*%
X54800000Y-26600000D03*
%TO.P,J2,4,Pin_4*%
%TO.N,/D6*%
X59880000Y-26600000D03*
%TO.P,J2,5,Pin_5*%
%TO.N,/D5*%
X64960000Y-26600000D03*
%TO.P,J2,6,Pin_6*%
%TO.N,/D4*%
X70040000Y-26600000D03*
%TO.P,J2,7,Pin_7*%
%TO.N,/D3*%
X75120000Y-26600000D03*
%TO.P,J2,8,Pin_8*%
%TO.N,/D2*%
X80200000Y-26600000D03*
%TD*%
D10*
%TO.P,R7,1*%
%TO.N,/PIN_N_Oil*%
X206100000Y-67700000D03*
D11*
%TO.P,R7,2*%
%TO.N,Net-(D2-K)*%
X195940000Y-67700000D03*
%TD*%
D19*
%TO.P,D1,1,K*%
%TO.N,/V_in*%
X135381000Y-62047500D03*
D20*
%TO.P,D1,2,A*%
%TO.N,Net-(D1-A)*%
X135381000Y-64587500D03*
%TD*%
D16*
%TO.P,Q1,1,D*%
%TO.N,+3V3*%
X27000000Y-59320000D03*
D17*
%TO.P,Q1,2,G*%
%TO.N,/Seat*%
X27000000Y-61860000D03*
%TO.P,Q1,3,S*%
%TO.N,/D2*%
X27000000Y-64400000D03*
%TD*%
D10*
%TO.P,R2,1*%
%TO.N,/D3*%
X32400000Y-73720000D03*
D11*
%TO.P,R2,2*%
%TO.N,GND*%
X32400000Y-83880000D03*
%TD*%
D16*
%TO.P,Q2,1,D*%
%TO.N,+3V3*%
X32200000Y-49860000D03*
D17*
%TO.P,Q2,2,G*%
%TO.N,/Brake*%
X32200000Y-52400000D03*
%TO.P,Q2,3,S*%
%TO.N,/D3*%
X32200000Y-54940000D03*
%TD*%
D16*
%TO.P,Q3,1,D*%
%TO.N,+3V3*%
X37800000Y-59200000D03*
D17*
%TO.P,Q3,2,G*%
%TO.N,/Neutral*%
X37800000Y-61740000D03*
%TO.P,Q3,3,S*%
%TO.N,/D4*%
X37800000Y-64280000D03*
%TD*%
D10*
%TO.P,R3,1*%
%TO.N,/D4*%
X37200000Y-73720000D03*
D11*
%TO.P,R3,2*%
%TO.N,GND*%
X37200000Y-83880000D03*
%TD*%
D22*
%TO.N,/D2*%
X34940000Y-68303000D03*
X44940000Y-65803000D03*
%TO.N,/D3*%
X50440000Y-70403000D03*
%TO.N,+3V3*%
X84640000Y-59903000D03*
%TD*%
D23*
%TO.N,/A0*%
X124480000Y-26600000D02*
X124480000Y-49280000D01*
X124480000Y-49280000D02*
X92820000Y-80940000D01*
%TO.N,/A1*%
X119400000Y-26600000D02*
X119400000Y-51820000D01*
X119400000Y-51820000D02*
X92820000Y-78400000D01*
%TO.N,/A2*%
X114320000Y-26600000D02*
X114320000Y-54360000D01*
X114320000Y-54360000D02*
X92820000Y-75860000D01*
%TO.N,/A3*%
X109240000Y-56900000D02*
X92820000Y-73320000D01*
X109240000Y-26600000D02*
X109240000Y-56900000D01*
%TO.N,/A6*%
X94000000Y-26600000D02*
X94915741Y-27515741D01*
X94915741Y-63604259D02*
X92820000Y-65700000D01*
X94915741Y-27515741D02*
X94915741Y-63604259D01*
%TO.N,/A7*%
X88920000Y-26600000D02*
X88920000Y-59260000D01*
X88920000Y-59260000D02*
X92820000Y-63160000D01*
%TO.N,/A4{slash}SDA*%
X104160000Y-26600000D02*
X104160000Y-59440000D01*
X104160000Y-59440000D02*
X92820000Y-70780000D01*
%TO.N,/A5{slash}SCL*%
X99080000Y-26600000D02*
X99080000Y-61980000D01*
X99080000Y-61980000D02*
X92820000Y-68240000D01*
%TO.N,/D6*%
X59880000Y-26600000D02*
X59880000Y-55620000D01*
X59880000Y-55620000D02*
X77580000Y-73320000D01*
%TO.N,/D7*%
X54800000Y-26600000D02*
X54800000Y-53080000D01*
X54800000Y-53080000D02*
X77580000Y-75860000D01*
%TO.N,/D8*%
X49720000Y-26600000D02*
X49720000Y-50540000D01*
X49720000Y-50540000D02*
X77580000Y-78400000D01*
%TO.N,/D9*%
X44640000Y-26600000D02*
X44640000Y-48503000D01*
X77077000Y-80940000D02*
X77580000Y-80940000D01*
X44640000Y-48503000D02*
X77077000Y-80940000D01*
D24*
%TO.N,/Neutral*%
X36159259Y-28015741D02*
X36159259Y-60099259D01*
X36159259Y-60099259D02*
X37800000Y-61740000D01*
X37075000Y-27100000D02*
X36159259Y-28015741D01*
%TO.N,/Brake*%
X30900000Y-51100000D02*
X32200000Y-52400000D01*
X31995000Y-27100000D02*
X30900000Y-28195000D01*
X30900000Y-28195000D02*
X30900000Y-51100000D01*
%TO.N,/Seat*%
X25240000Y-60100000D02*
X27000000Y-61860000D01*
X26915000Y-27100000D02*
X25240000Y-28775000D01*
X25240000Y-28775000D02*
X25240000Y-60100000D01*
D25*
%TO.N,+5V*%
X195675000Y-48143000D02*
X195675000Y-26600000D01*
X193315000Y-50503000D02*
X195675000Y-48143000D01*
X189578000Y-20503000D02*
X195675000Y-26600000D01*
X134200000Y-22520000D02*
X136217000Y-20503000D01*
X136217000Y-20503000D02*
X189578000Y-20503000D01*
%TO.N,/V_in*%
X133868500Y-63560000D02*
X135381000Y-62047500D01*
X124196000Y-63560000D02*
X127596000Y-63560000D01*
X127596000Y-63560000D02*
X133868500Y-63560000D01*
D23*
%TO.N,/D2*%
X42440000Y-68303000D02*
X44940000Y-65803000D01*
X79740000Y-27060000D02*
X79740000Y-61000000D01*
X80200000Y-26600000D02*
X79740000Y-27060000D01*
X79740000Y-61000000D02*
X77580000Y-63160000D01*
X34940000Y-68303000D02*
X42440000Y-68303000D01*
%TO.N,/D3*%
X75120000Y-26600000D02*
X75120000Y-63240000D01*
X50440000Y-70403000D02*
X34040000Y-70403000D01*
X32200000Y-72243000D02*
X32200000Y-72703000D01*
X32200000Y-72703000D02*
X32200000Y-73520000D01*
X75120000Y-63240000D02*
X77580000Y-65700000D01*
X32200000Y-54940000D02*
X32200000Y-72703000D01*
X32200000Y-73520000D02*
X32400000Y-73720000D01*
X34040000Y-70403000D02*
X32200000Y-72243000D01*
%TO.N,/D4*%
X70040000Y-60700000D02*
X77580000Y-68240000D01*
X70040000Y-26600000D02*
X70040000Y-60700000D01*
%TO.N,/D5*%
X64960000Y-26600000D02*
X64960000Y-58160000D01*
X64960000Y-58160000D02*
X77580000Y-70780000D01*
D24*
%TO.N,/CAN_TX*%
X84760000Y-93200000D02*
X77580000Y-86020000D01*
X111443000Y-93200000D02*
X84760000Y-93200000D01*
X113460000Y-91183000D02*
X111443000Y-93200000D01*
%TO.N,/CAN_RX*%
X86600000Y-92500000D02*
X77580000Y-83480000D01*
X109603000Y-92500000D02*
X86600000Y-92500000D01*
X110920000Y-91183000D02*
X109603000Y-92500000D01*
D25*
%TO.N,+3V3*%
X134200000Y-30140000D02*
X134200000Y-27600000D01*
X92820000Y-86020000D02*
X84640000Y-77840000D01*
X84640000Y-77840000D02*
X84640000Y-59903000D01*
X100677000Y-86020000D02*
X105840000Y-91183000D01*
X92820000Y-86020000D02*
X100677000Y-86020000D01*
%TO.N,Net-(D1-A)*%
X135181000Y-64787500D02*
X135381000Y-64587500D01*
X135181000Y-67842500D02*
X135181000Y-64787500D01*
%TO.N,/V_in_unreg*%
X127596000Y-73480000D02*
X124196000Y-73480000D01*
X133770000Y-88637000D02*
X133770000Y-79413500D01*
X135181000Y-78002500D02*
X132118500Y-78002500D01*
X132118500Y-78002500D02*
X127596000Y-73480000D01*
X133770000Y-79413500D02*
X135181000Y-78002500D01*
%TO.N,Net-(D2-K)*%
X193180000Y-67700000D02*
X193180000Y-66505000D01*
X193180000Y-66505000D02*
X189375000Y-62700000D01*
X193180000Y-67700000D02*
X195940000Y-67700000D01*
%TO.N,+12V*%
X182940000Y-77020000D02*
X182940000Y-67780000D01*
X182940000Y-78400000D02*
X182940000Y-77020000D01*
X182940000Y-67780000D02*
X183020000Y-67700000D01*
X183020000Y-66515000D02*
X186835000Y-62700000D01*
X213805000Y-82520000D02*
X217805000Y-78520000D01*
X182940000Y-78400000D02*
X188285000Y-78400000D01*
X183015000Y-77020000D02*
X186735000Y-73300000D01*
X188285000Y-78400000D02*
X192405000Y-82520000D01*
X192405000Y-82520000D02*
X213805000Y-82520000D01*
X182940000Y-77020000D02*
X183015000Y-77020000D01*
X183020000Y-67700000D02*
X183020000Y-66515000D01*
D23*
X217805000Y-78520000D02*
X217480000Y-78520000D01*
D25*
%TO.N,Net-(D3-K)*%
X193100000Y-77125000D02*
X189275000Y-73300000D01*
X193100000Y-78400000D02*
X196020000Y-78400000D01*
X193100000Y-78400000D02*
X193100000Y-77125000D01*
%TO.N,/Accel_sig*%
X190750000Y-35400000D02*
X190750000Y-26755000D01*
X190815000Y-35465000D02*
X190815000Y-40503000D01*
X190750000Y-35400000D02*
X190815000Y-35465000D01*
X190750000Y-26755000D02*
X190595000Y-26600000D01*
%TO.N,/PIN_M_MIL*%
X207765000Y-78400000D02*
X217805000Y-68360000D01*
X206180000Y-78400000D02*
X207765000Y-78400000D01*
%TO.N,/PIN_N_Oil*%
X213385000Y-67700000D02*
X217805000Y-63280000D01*
X206100000Y-67700000D02*
X213385000Y-67700000D01*
%TD*%
M02*
