M48
; DRILL file {KiCad 7.0.8} date Sun Sep 15 13:04:40 2024
; FORMAT={-:-/ absolute / metric / decimal}
; #@! TF.CreationDate,2024-09-15T13:04:40-06:00
; #@! TF.GenerationSoftware,Kicad,Pcbnew,7.0.8
; #@! TF.FileFunction,Plated,1,2,PTH
FMAT,2
METRIC
; #@! TA.AperFunction,Plated,PTH,ViaDrill
T1C0.400
; #@! TA.AperFunction,Plated,PTH,ComponentDrill
T2C0.800
; #@! TA.AperFunction,Plated,PTH,ComponentDrill
T3C0.900
; #@! TA.AperFunction,Plated,PTH,ComponentDrill
T4C1.000
; #@! TA.AperFunction,Plated,PTH,ComponentDrill
T5C1.016
; #@! TA.AperFunction,Plated,PTH,ComponentDrill
T6C1.300
; #@! TA.AperFunction,Plated,PTH,ComponentDrill
T7C1.600
%
G90
G05
T1
X34.94Y-68.303
X44.94Y-65.803
X50.44Y-70.403
X84.64Y-59.903
T2
X28.0Y-73.72
X28.0Y-83.88
X32.4Y-73.72
X32.4Y-83.88
X37.2Y-73.72
X37.2Y-83.88
X135.181Y-67.843
X135.181Y-78.002
X182.94Y-78.4
X183.02Y-67.7
X193.1Y-78.4
X193.18Y-67.7
X195.94Y-67.7
X196.02Y-78.4
X206.1Y-67.7
X206.18Y-78.4
T3
X135.381Y-62.047
X135.381Y-64.587
X186.735Y-73.3
X186.835Y-62.7
X189.275Y-73.3
X189.375Y-62.7
T4
X27.0Y-59.32
X27.0Y-61.86
X27.0Y-64.4
X32.2Y-49.86
X32.2Y-52.4
X32.2Y-54.94
X37.8Y-59.2
X37.8Y-61.74
X37.8Y-64.28
X105.84Y-91.183
X108.38Y-91.183
X110.92Y-91.183
X113.46Y-91.183
X120.44Y-62.028
X120.44Y-64.568
X134.2Y-22.52
X134.2Y-25.06
X134.2Y-27.6
X134.2Y-30.14
X134.2Y-32.68
X134.2Y-35.22
X134.2Y-37.76
X134.2Y-40.3
T5
X77.58Y-53.0
X77.58Y-55.54
X77.58Y-58.08
X77.58Y-60.62
X77.58Y-63.16
X77.58Y-65.7
X77.58Y-68.24
X77.58Y-70.78
X77.58Y-73.32
X77.58Y-75.86
X77.58Y-78.4
X77.58Y-80.94
X77.58Y-83.48
X77.58Y-86.02
X77.58Y-88.56
X92.82Y-53.0
X92.82Y-55.54
X92.82Y-58.08
X92.82Y-60.62
X92.82Y-63.16
X92.82Y-65.7
X92.82Y-68.24
X92.82Y-70.78
X92.82Y-73.32
X92.82Y-75.86
X92.82Y-78.4
X92.82Y-80.94
X92.82Y-83.48
X92.82Y-86.02
X92.82Y-88.56
T6
X26.915Y-27.1
X31.995Y-27.1
X37.075Y-27.1
X44.64Y-26.6
X49.72Y-26.6
X54.8Y-26.6
X59.88Y-26.6
X64.96Y-26.6
X70.04Y-26.6
X75.12Y-26.6
X80.2Y-26.6
X88.92Y-26.6
X94.0Y-26.6
X99.08Y-26.6
X104.16Y-26.6
X109.24Y-26.6
X114.32Y-26.6
X119.4Y-26.6
X124.48Y-26.6
X128.69Y-88.637
X133.77Y-88.637
X185.515Y-26.6
X188.315Y-50.503
X190.595Y-26.6
X190.815Y-40.503
X193.315Y-50.503
X195.675Y-26.6
X217.805Y-63.28
X217.805Y-68.36
X217.805Y-73.44
X217.805Y-78.52
T7
X124.196Y-63.56
X124.196Y-73.48
X127.596Y-63.56
X127.596Y-73.48
T0
M30
