%TF.GenerationSoftware,KiCad,Pcbnew,(5.1.9)-1*%
%TF.CreationDate,2023-01-30T16:09:17-06:00*%
%TF.ProjectId,Motherboard_2023,4d6f7468-6572-4626-9f61-72645f323032,rev?*%
%TF.SameCoordinates,Original*%
%TF.FileFunction,Paste,Bot*%
%TF.FilePolarity,Positive*%
%FSLAX46Y46*%
G04 Gerber Fmt 4.6, Leading zero omitted, Abs format (unit mm)*
G04 Created by KiCad (PCBNEW (5.1.9)-1) date 2023-01-30 16:09:17*
%MOMM*%
%LPD*%
G01*
G04 APERTURE LIST*
%ADD10C,0.187500*%
G04 APERTURE END LIST*
D10*
X267953571Y-80065000D02*
X267989285Y-79957857D01*
X267989285Y-79779285D01*
X267953571Y-79707857D01*
X267917857Y-79672142D01*
X267846428Y-79636428D01*
X267775000Y-79636428D01*
X267703571Y-79672142D01*
X267667857Y-79707857D01*
X267632142Y-79779285D01*
X267596428Y-79922142D01*
X267560714Y-79993571D01*
X267525000Y-80029285D01*
X267453571Y-80065000D01*
X267382142Y-80065000D01*
X267310714Y-80029285D01*
X267275000Y-79993571D01*
X267239285Y-79922142D01*
X267239285Y-79743571D01*
X267275000Y-79636428D01*
X267953571Y-79350714D02*
X267989285Y-79243571D01*
X267989285Y-79065000D01*
X267953571Y-78993571D01*
X267917857Y-78957857D01*
X267846428Y-78922142D01*
X267775000Y-78922142D01*
X267703571Y-78957857D01*
X267667857Y-78993571D01*
X267632142Y-79065000D01*
X267596428Y-79207857D01*
X267560714Y-79279285D01*
X267525000Y-79315000D01*
X267453571Y-79350714D01*
X267382142Y-79350714D01*
X267310714Y-79315000D01*
X267275000Y-79279285D01*
X267239285Y-79207857D01*
X267239285Y-79029285D01*
X267275000Y-78922142D01*
X267953571Y-78065000D02*
X267989285Y-77957857D01*
X267989285Y-77779285D01*
X267953571Y-77707857D01*
X267917857Y-77672142D01*
X267846428Y-77636428D01*
X267775000Y-77636428D01*
X267703571Y-77672142D01*
X267667857Y-77707857D01*
X267632142Y-77779285D01*
X267596428Y-77922142D01*
X267560714Y-77993571D01*
X267525000Y-78029285D01*
X267453571Y-78065000D01*
X267382142Y-78065000D01*
X267310714Y-78029285D01*
X267275000Y-77993571D01*
X267239285Y-77922142D01*
X267239285Y-77743571D01*
X267275000Y-77636428D01*
X267989285Y-77315000D02*
X267489285Y-77315000D01*
X267239285Y-77315000D02*
X267275000Y-77350714D01*
X267310714Y-77315000D01*
X267275000Y-77279285D01*
X267239285Y-77315000D01*
X267310714Y-77315000D01*
X267489285Y-76636428D02*
X268096428Y-76636428D01*
X268167857Y-76672142D01*
X268203571Y-76707857D01*
X268239285Y-76779285D01*
X268239285Y-76886428D01*
X268203571Y-76957857D01*
X267953571Y-76636428D02*
X267989285Y-76707857D01*
X267989285Y-76850714D01*
X267953571Y-76922142D01*
X267917857Y-76957857D01*
X267846428Y-76993571D01*
X267632142Y-76993571D01*
X267560714Y-76957857D01*
X267525000Y-76922142D01*
X267489285Y-76850714D01*
X267489285Y-76707857D01*
X267525000Y-76636428D01*
X267310714Y-75743571D02*
X267275000Y-75707857D01*
X267239285Y-75636428D01*
X267239285Y-75457857D01*
X267275000Y-75386428D01*
X267310714Y-75350714D01*
X267382142Y-75315000D01*
X267453571Y-75315000D01*
X267560714Y-75350714D01*
X267989285Y-75779285D01*
X267989285Y-75315000D01*
X268043571Y-85555000D02*
X268079285Y-85447857D01*
X268079285Y-85269285D01*
X268043571Y-85197857D01*
X268007857Y-85162142D01*
X267936428Y-85126428D01*
X267865000Y-85126428D01*
X267793571Y-85162142D01*
X267757857Y-85197857D01*
X267722142Y-85269285D01*
X267686428Y-85412142D01*
X267650714Y-85483571D01*
X267615000Y-85519285D01*
X267543571Y-85555000D01*
X267472142Y-85555000D01*
X267400714Y-85519285D01*
X267365000Y-85483571D01*
X267329285Y-85412142D01*
X267329285Y-85233571D01*
X267365000Y-85126428D01*
X268043571Y-84840714D02*
X268079285Y-84733571D01*
X268079285Y-84555000D01*
X268043571Y-84483571D01*
X268007857Y-84447857D01*
X267936428Y-84412142D01*
X267865000Y-84412142D01*
X267793571Y-84447857D01*
X267757857Y-84483571D01*
X267722142Y-84555000D01*
X267686428Y-84697857D01*
X267650714Y-84769285D01*
X267615000Y-84805000D01*
X267543571Y-84840714D01*
X267472142Y-84840714D01*
X267400714Y-84805000D01*
X267365000Y-84769285D01*
X267329285Y-84697857D01*
X267329285Y-84519285D01*
X267365000Y-84412142D01*
X268043571Y-83555000D02*
X268079285Y-83447857D01*
X268079285Y-83269285D01*
X268043571Y-83197857D01*
X268007857Y-83162142D01*
X267936428Y-83126428D01*
X267865000Y-83126428D01*
X267793571Y-83162142D01*
X267757857Y-83197857D01*
X267722142Y-83269285D01*
X267686428Y-83412142D01*
X267650714Y-83483571D01*
X267615000Y-83519285D01*
X267543571Y-83555000D01*
X267472142Y-83555000D01*
X267400714Y-83519285D01*
X267365000Y-83483571D01*
X267329285Y-83412142D01*
X267329285Y-83233571D01*
X267365000Y-83126428D01*
X268079285Y-82805000D02*
X267579285Y-82805000D01*
X267329285Y-82805000D02*
X267365000Y-82840714D01*
X267400714Y-82805000D01*
X267365000Y-82769285D01*
X267329285Y-82805000D01*
X267400714Y-82805000D01*
X267579285Y-82126428D02*
X268186428Y-82126428D01*
X268257857Y-82162142D01*
X268293571Y-82197857D01*
X268329285Y-82269285D01*
X268329285Y-82376428D01*
X268293571Y-82447857D01*
X268043571Y-82126428D02*
X268079285Y-82197857D01*
X268079285Y-82340714D01*
X268043571Y-82412142D01*
X268007857Y-82447857D01*
X267936428Y-82483571D01*
X267722142Y-82483571D01*
X267650714Y-82447857D01*
X267615000Y-82412142D01*
X267579285Y-82340714D01*
X267579285Y-82197857D01*
X267615000Y-82126428D01*
X268079285Y-80805000D02*
X268079285Y-81233571D01*
X268079285Y-81019285D02*
X267329285Y-81019285D01*
X267436428Y-81090714D01*
X267507857Y-81162142D01*
X267543571Y-81233571D01*
X267649285Y-88152857D02*
X267649285Y-88510000D01*
X268006428Y-88545714D01*
X267970714Y-88510000D01*
X267935000Y-88438571D01*
X267935000Y-88260000D01*
X267970714Y-88188571D01*
X268006428Y-88152857D01*
X268077857Y-88117142D01*
X268256428Y-88117142D01*
X268327857Y-88152857D01*
X268363571Y-88188571D01*
X268399285Y-88260000D01*
X268399285Y-88438571D01*
X268363571Y-88510000D01*
X268327857Y-88545714D01*
X267649285Y-87902857D02*
X268399285Y-87652857D01*
X267649285Y-87402857D01*
M02*
