%FSLAX45Y45*%
G04 Gerber Fmt 4.5, Leading zero omitted, Abs format (unit mm)*
G04 Created by KiCad (PCBNEW (5.1.9)-1) date 2023-01-30 16:09:12*
%MOMM*%
%LPD*%
G01*
G04 APERTURE LIST*
%TA.AperFunction,Profile*%
%ADD10C,0.050000*%
%TD*%
%ADD11C,0.200000*%
%ADD12C,0.300000*%
G04 APERTURE END LIST*
D10*
X3950000Y-4019000D02*
X3952000Y-11369000D01*
X4002000Y-11419000D02*
G75*
G02*
X3952000Y-11369000I0J50000D01*
G01*
X28052000Y-11428000D02*
X4002000Y-11419000D01*
X28102000Y-11378000D02*
G75*
G02*
X28052000Y-11428000I-50000J0D01*
G01*
X3950000Y-4019000D02*
G75*
G02*
X4000000Y-3969000I50000J0D01*
G01*
X28050000Y-3978000D02*
X4000000Y-3969000D01*
X28100000Y-4028000D02*
X28102000Y-11378000D01*
X28050000Y-3978000D02*
G75*
G02*
X28100000Y-4028000I0J-50000D01*
G01*
D11*
X10380000Y-5907000D02*
X10590000Y-6117000D01*
X10590000Y-5907000D02*
X10380000Y-6117000D01*
X10380000Y-8491000D02*
X10590000Y-8701000D01*
X10590000Y-8491000D02*
X10380000Y-8701000D01*
X11780000Y-7207000D02*
X11990000Y-7417000D01*
X11990000Y-7207000D02*
X11780000Y-7417000D01*
X11780000Y-9791000D02*
X11990000Y-10001000D01*
X11990000Y-9791000D02*
X11780000Y-10001000D01*
X13219000Y-5906000D02*
X13429000Y-6116000D01*
X13429000Y-5906000D02*
X13219000Y-6116000D01*
X13224000Y-8493000D02*
X13434000Y-8703000D01*
X13434000Y-8493000D02*
X13224000Y-8703000D01*
X14619000Y-7206000D02*
X14829000Y-7416000D01*
X14829000Y-7206000D02*
X14619000Y-7416000D01*
X14624000Y-9793000D02*
X14834000Y-10003000D01*
X14834000Y-9793000D02*
X14624000Y-10003000D01*
X4375000Y-4268000D02*
G75*
G03*
X4375000Y-4268000I-125000J0D01*
G01*
X4376000Y-11120000D02*
G75*
G03*
X4376000Y-11120000I-125000J0D01*
G01*
X27926000Y-4277000D02*
G75*
G03*
X27926000Y-4277000I-125000J0D01*
G01*
X27928000Y-11129000D02*
G75*
G03*
X27928000Y-11129000I-125000J0D01*
G01*
X23726000Y-9349000D02*
X23726000Y-9779000D01*
X23511000Y-9564000D02*
X23941000Y-9564000D01*
X25066000Y-9368000D02*
X25066000Y-9798000D01*
X24851000Y-9583000D02*
X25281000Y-9583000D01*
D12*
X4233928Y-11896214D02*
X4233928Y-11596214D01*
X4305357Y-11596214D01*
X4348214Y-11610500D01*
X4376786Y-11639071D01*
X4391071Y-11667643D01*
X4405357Y-11724786D01*
X4405357Y-11767643D01*
X4391071Y-11824786D01*
X4376786Y-11853357D01*
X4348214Y-11881929D01*
X4305357Y-11896214D01*
X4233928Y-11896214D01*
X4533928Y-11896214D02*
X4533928Y-11696214D01*
X4533928Y-11753357D02*
X4548214Y-11724786D01*
X4562500Y-11710500D01*
X4591071Y-11696214D01*
X4619643Y-11696214D01*
X4719643Y-11896214D02*
X4719643Y-11696214D01*
X4719643Y-11596214D02*
X4705357Y-11610500D01*
X4719643Y-11624786D01*
X4733928Y-11610500D01*
X4719643Y-11596214D01*
X4719643Y-11624786D01*
X4905357Y-11896214D02*
X4876786Y-11881929D01*
X4862500Y-11853357D01*
X4862500Y-11596214D01*
X5062500Y-11896214D02*
X5033928Y-11881929D01*
X5019643Y-11853357D01*
X5019643Y-11596214D01*
X5405357Y-11896214D02*
X5405357Y-11596214D01*
X5505357Y-11810500D01*
X5605357Y-11596214D01*
X5605357Y-11896214D01*
X5876786Y-11896214D02*
X5876786Y-11739071D01*
X5862500Y-11710500D01*
X5833928Y-11696214D01*
X5776786Y-11696214D01*
X5748214Y-11710500D01*
X5876786Y-11881929D02*
X5848214Y-11896214D01*
X5776786Y-11896214D01*
X5748214Y-11881929D01*
X5733928Y-11853357D01*
X5733928Y-11824786D01*
X5748214Y-11796214D01*
X5776786Y-11781929D01*
X5848214Y-11781929D01*
X5876786Y-11767643D01*
X6019643Y-11696214D02*
X6019643Y-11996214D01*
X6019643Y-11710500D02*
X6048214Y-11696214D01*
X6105357Y-11696214D01*
X6133928Y-11710500D01*
X6148214Y-11724786D01*
X6162500Y-11753357D01*
X6162500Y-11839071D01*
X6148214Y-11867643D01*
X6133928Y-11881929D01*
X6105357Y-11896214D01*
X6048214Y-11896214D01*
X6019643Y-11881929D01*
X6291071Y-11867643D02*
X6305357Y-11881929D01*
X6291071Y-11896214D01*
X6276786Y-11881929D01*
X6291071Y-11867643D01*
X6291071Y-11896214D01*
X6291071Y-11710500D02*
X6305357Y-11724786D01*
X6291071Y-11739071D01*
X6276786Y-11724786D01*
X6291071Y-11710500D01*
X6291071Y-11739071D01*
X3737500Y-12285500D02*
X3947500Y-12495500D01*
X3947500Y-12285500D02*
X3737500Y-12495500D01*
X4219643Y-12254786D02*
X4233928Y-12240500D01*
X4262500Y-12226214D01*
X4333928Y-12226214D01*
X4362500Y-12240500D01*
X4376786Y-12254786D01*
X4391071Y-12283357D01*
X4391071Y-12311929D01*
X4376786Y-12354786D01*
X4205357Y-12526214D01*
X4391071Y-12526214D01*
X4519643Y-12497643D02*
X4533928Y-12511929D01*
X4519643Y-12526214D01*
X4505357Y-12511929D01*
X4519643Y-12497643D01*
X4519643Y-12526214D01*
X4819643Y-12526214D02*
X4648214Y-12526214D01*
X4733928Y-12526214D02*
X4733928Y-12226214D01*
X4705357Y-12269071D01*
X4676786Y-12297643D01*
X4648214Y-12311929D01*
X5005357Y-12226214D02*
X5033928Y-12226214D01*
X5062500Y-12240500D01*
X5076786Y-12254786D01*
X5091071Y-12283357D01*
X5105357Y-12340500D01*
X5105357Y-12411929D01*
X5091071Y-12469071D01*
X5076786Y-12497643D01*
X5062500Y-12511929D01*
X5033928Y-12526214D01*
X5005357Y-12526214D01*
X4976786Y-12511929D01*
X4962500Y-12497643D01*
X4948214Y-12469071D01*
X4933928Y-12411929D01*
X4933928Y-12340500D01*
X4948214Y-12283357D01*
X4962500Y-12254786D01*
X4976786Y-12240500D01*
X5005357Y-12226214D01*
X5233928Y-12526214D02*
X5233928Y-12326214D01*
X5233928Y-12354786D02*
X5248214Y-12340500D01*
X5276786Y-12326214D01*
X5319643Y-12326214D01*
X5348214Y-12340500D01*
X5362500Y-12369071D01*
X5362500Y-12526214D01*
X5362500Y-12369071D02*
X5376786Y-12340500D01*
X5405357Y-12326214D01*
X5448214Y-12326214D01*
X5476786Y-12340500D01*
X5491071Y-12369071D01*
X5491071Y-12526214D01*
X5633928Y-12526214D02*
X5633928Y-12326214D01*
X5633928Y-12354786D02*
X5648214Y-12340500D01*
X5676786Y-12326214D01*
X5719643Y-12326214D01*
X5748214Y-12340500D01*
X5762500Y-12369071D01*
X5762500Y-12526214D01*
X5762500Y-12369071D02*
X5776786Y-12340500D01*
X5805357Y-12326214D01*
X5848214Y-12326214D01*
X5876786Y-12340500D01*
X5891071Y-12369071D01*
X5891071Y-12526214D01*
X6476786Y-12211929D02*
X6219643Y-12597643D01*
X6862500Y-12226214D02*
X6891071Y-12226214D01*
X6919643Y-12240500D01*
X6933928Y-12254786D01*
X6948214Y-12283357D01*
X6962500Y-12340500D01*
X6962500Y-12411929D01*
X6948214Y-12469071D01*
X6933928Y-12497643D01*
X6919643Y-12511929D01*
X6891071Y-12526214D01*
X6862500Y-12526214D01*
X6833928Y-12511929D01*
X6819643Y-12497643D01*
X6805357Y-12469071D01*
X6791071Y-12411929D01*
X6791071Y-12340500D01*
X6805357Y-12283357D01*
X6819643Y-12254786D01*
X6833928Y-12240500D01*
X6862500Y-12226214D01*
X7091071Y-12497643D02*
X7105357Y-12511929D01*
X7091071Y-12526214D01*
X7076786Y-12511929D01*
X7091071Y-12497643D01*
X7091071Y-12526214D01*
X7291071Y-12226214D02*
X7319643Y-12226214D01*
X7348214Y-12240500D01*
X7362500Y-12254786D01*
X7376786Y-12283357D01*
X7391071Y-12340500D01*
X7391071Y-12411929D01*
X7376786Y-12469071D01*
X7362500Y-12497643D01*
X7348214Y-12511929D01*
X7319643Y-12526214D01*
X7291071Y-12526214D01*
X7262500Y-12511929D01*
X7248214Y-12497643D01*
X7233928Y-12469071D01*
X7219643Y-12411929D01*
X7219643Y-12340500D01*
X7233928Y-12283357D01*
X7248214Y-12254786D01*
X7262500Y-12240500D01*
X7291071Y-12226214D01*
X7562500Y-12354786D02*
X7533928Y-12340500D01*
X7519643Y-12326214D01*
X7505357Y-12297643D01*
X7505357Y-12283357D01*
X7519643Y-12254786D01*
X7533928Y-12240500D01*
X7562500Y-12226214D01*
X7619643Y-12226214D01*
X7648214Y-12240500D01*
X7662500Y-12254786D01*
X7676786Y-12283357D01*
X7676786Y-12297643D01*
X7662500Y-12326214D01*
X7648214Y-12340500D01*
X7619643Y-12354786D01*
X7562500Y-12354786D01*
X7533928Y-12369071D01*
X7519643Y-12383357D01*
X7505357Y-12411929D01*
X7505357Y-12469071D01*
X7519643Y-12497643D01*
X7533928Y-12511929D01*
X7562500Y-12526214D01*
X7619643Y-12526214D01*
X7648214Y-12511929D01*
X7662500Y-12497643D01*
X7676786Y-12469071D01*
X7676786Y-12411929D01*
X7662500Y-12383357D01*
X7648214Y-12369071D01*
X7619643Y-12354786D01*
X7776786Y-12226214D02*
X7962500Y-12226214D01*
X7862500Y-12340500D01*
X7905357Y-12340500D01*
X7933928Y-12354786D01*
X7948214Y-12369071D01*
X7962500Y-12397643D01*
X7962500Y-12469071D01*
X7948214Y-12497643D01*
X7933928Y-12511929D01*
X7905357Y-12526214D01*
X7819643Y-12526214D01*
X7791071Y-12511929D01*
X7776786Y-12497643D01*
X8076786Y-12226214D02*
X8076786Y-12283357D01*
X8191071Y-12226214D02*
X8191071Y-12283357D01*
X8633928Y-12640500D02*
X8619643Y-12626214D01*
X8591071Y-12583357D01*
X8576786Y-12554786D01*
X8562500Y-12511929D01*
X8548214Y-12440500D01*
X8548214Y-12383357D01*
X8562500Y-12311929D01*
X8576786Y-12269071D01*
X8591071Y-12240500D01*
X8619643Y-12197643D01*
X8633928Y-12183357D01*
X8791071Y-12354786D02*
X8762500Y-12340500D01*
X8748214Y-12326214D01*
X8733928Y-12297643D01*
X8733928Y-12283357D01*
X8748214Y-12254786D01*
X8762500Y-12240500D01*
X8791071Y-12226214D01*
X8848214Y-12226214D01*
X8876786Y-12240500D01*
X8891071Y-12254786D01*
X8905357Y-12283357D01*
X8905357Y-12297643D01*
X8891071Y-12326214D01*
X8876786Y-12340500D01*
X8848214Y-12354786D01*
X8791071Y-12354786D01*
X8762500Y-12369071D01*
X8748214Y-12383357D01*
X8733928Y-12411929D01*
X8733928Y-12469071D01*
X8748214Y-12497643D01*
X8762500Y-12511929D01*
X8791071Y-12526214D01*
X8848214Y-12526214D01*
X8876786Y-12511929D01*
X8891071Y-12497643D01*
X8905357Y-12469071D01*
X8905357Y-12411929D01*
X8891071Y-12383357D01*
X8876786Y-12369071D01*
X8848214Y-12354786D01*
X9262500Y-12526214D02*
X9262500Y-12226214D01*
X9391071Y-12526214D02*
X9391071Y-12369071D01*
X9376786Y-12340500D01*
X9348214Y-12326214D01*
X9305357Y-12326214D01*
X9276786Y-12340500D01*
X9262500Y-12354786D01*
X9576786Y-12526214D02*
X9548214Y-12511929D01*
X9533928Y-12497643D01*
X9519643Y-12469071D01*
X9519643Y-12383357D01*
X9533928Y-12354786D01*
X9548214Y-12340500D01*
X9576786Y-12326214D01*
X9619643Y-12326214D01*
X9648214Y-12340500D01*
X9662500Y-12354786D01*
X9676786Y-12383357D01*
X9676786Y-12469071D01*
X9662500Y-12497643D01*
X9648214Y-12511929D01*
X9619643Y-12526214D01*
X9576786Y-12526214D01*
X9848214Y-12526214D02*
X9819643Y-12511929D01*
X9805357Y-12483357D01*
X9805357Y-12226214D01*
X10076786Y-12511929D02*
X10048214Y-12526214D01*
X9991071Y-12526214D01*
X9962500Y-12511929D01*
X9948214Y-12483357D01*
X9948214Y-12369071D01*
X9962500Y-12340500D01*
X9991071Y-12326214D01*
X10048214Y-12326214D01*
X10076786Y-12340500D01*
X10091071Y-12369071D01*
X10091071Y-12397643D01*
X9948214Y-12426214D01*
X10205357Y-12511929D02*
X10233928Y-12526214D01*
X10291071Y-12526214D01*
X10319643Y-12511929D01*
X10333928Y-12483357D01*
X10333928Y-12469071D01*
X10319643Y-12440500D01*
X10291071Y-12426214D01*
X10248214Y-12426214D01*
X10219643Y-12411929D01*
X10205357Y-12383357D01*
X10205357Y-12369071D01*
X10219643Y-12340500D01*
X10248214Y-12326214D01*
X10291071Y-12326214D01*
X10319643Y-12340500D01*
X10433928Y-12640500D02*
X10448214Y-12626214D01*
X10476786Y-12583357D01*
X10491071Y-12554786D01*
X10505357Y-12511929D01*
X10519643Y-12440500D01*
X10519643Y-12383357D01*
X10505357Y-12311929D01*
X10491071Y-12269071D01*
X10476786Y-12240500D01*
X10448214Y-12197643D01*
X10433928Y-12183357D01*
X10976786Y-12640500D02*
X10962500Y-12626214D01*
X10933928Y-12583357D01*
X10919643Y-12554786D01*
X10905357Y-12511929D01*
X10891071Y-12440500D01*
X10891071Y-12383357D01*
X10905357Y-12311929D01*
X10919643Y-12269071D01*
X10933928Y-12240500D01*
X10962500Y-12197643D01*
X10976786Y-12183357D01*
X11091071Y-12326214D02*
X11091071Y-12526214D01*
X11091071Y-12354786D02*
X11105357Y-12340500D01*
X11133928Y-12326214D01*
X11176786Y-12326214D01*
X11205357Y-12340500D01*
X11219643Y-12369071D01*
X11219643Y-12526214D01*
X11405357Y-12526214D02*
X11376786Y-12511929D01*
X11362500Y-12497643D01*
X11348214Y-12469071D01*
X11348214Y-12383357D01*
X11362500Y-12354786D01*
X11376786Y-12340500D01*
X11405357Y-12326214D01*
X11448214Y-12326214D01*
X11476786Y-12340500D01*
X11491071Y-12354786D01*
X11505357Y-12383357D01*
X11505357Y-12469071D01*
X11491071Y-12497643D01*
X11476786Y-12511929D01*
X11448214Y-12526214D01*
X11405357Y-12526214D01*
X11591071Y-12326214D02*
X11705357Y-12326214D01*
X11633928Y-12226214D02*
X11633928Y-12483357D01*
X11648214Y-12511929D01*
X11676786Y-12526214D01*
X11705357Y-12526214D01*
X12033928Y-12326214D02*
X12033928Y-12626214D01*
X12033928Y-12340500D02*
X12062500Y-12326214D01*
X12119643Y-12326214D01*
X12148214Y-12340500D01*
X12162500Y-12354786D01*
X12176786Y-12383357D01*
X12176786Y-12469071D01*
X12162500Y-12497643D01*
X12148214Y-12511929D01*
X12119643Y-12526214D01*
X12062500Y-12526214D01*
X12033928Y-12511929D01*
X12348214Y-12526214D02*
X12319643Y-12511929D01*
X12305357Y-12483357D01*
X12305357Y-12226214D01*
X12591071Y-12526214D02*
X12591071Y-12369071D01*
X12576786Y-12340500D01*
X12548214Y-12326214D01*
X12491071Y-12326214D01*
X12462500Y-12340500D01*
X12591071Y-12511929D02*
X12562500Y-12526214D01*
X12491071Y-12526214D01*
X12462500Y-12511929D01*
X12448214Y-12483357D01*
X12448214Y-12454786D01*
X12462500Y-12426214D01*
X12491071Y-12411929D01*
X12562500Y-12411929D01*
X12591071Y-12397643D01*
X12691071Y-12326214D02*
X12805357Y-12326214D01*
X12733928Y-12226214D02*
X12733928Y-12483357D01*
X12748214Y-12511929D01*
X12776786Y-12526214D01*
X12805357Y-12526214D01*
X13019643Y-12511929D02*
X12991071Y-12526214D01*
X12933928Y-12526214D01*
X12905357Y-12511929D01*
X12891071Y-12483357D01*
X12891071Y-12369071D01*
X12905357Y-12340500D01*
X12933928Y-12326214D01*
X12991071Y-12326214D01*
X13019643Y-12340500D01*
X13033928Y-12369071D01*
X13033928Y-12397643D01*
X12891071Y-12426214D01*
X13291071Y-12526214D02*
X13291071Y-12226214D01*
X13291071Y-12511929D02*
X13262500Y-12526214D01*
X13205357Y-12526214D01*
X13176786Y-12511929D01*
X13162500Y-12497643D01*
X13148214Y-12469071D01*
X13148214Y-12383357D01*
X13162500Y-12354786D01*
X13176786Y-12340500D01*
X13205357Y-12326214D01*
X13262500Y-12326214D01*
X13291071Y-12340500D01*
X13405357Y-12640500D02*
X13419643Y-12626214D01*
X13448214Y-12583357D01*
X13462500Y-12554786D01*
X13476786Y-12511929D01*
X13491071Y-12440500D01*
X13491071Y-12383357D01*
X13476786Y-12311929D01*
X13462500Y-12269071D01*
X13448214Y-12240500D01*
X13419643Y-12197643D01*
X13405357Y-12183357D01*
X3947500Y-12786500D02*
G75*
G03*
X3947500Y-12786500I-125000J0D01*
G01*
X4219643Y-12650786D02*
X4233928Y-12636500D01*
X4262500Y-12622214D01*
X4333928Y-12622214D01*
X4362500Y-12636500D01*
X4376786Y-12650786D01*
X4391071Y-12679357D01*
X4391071Y-12707929D01*
X4376786Y-12750786D01*
X4205357Y-12922214D01*
X4391071Y-12922214D01*
X4519643Y-12893643D02*
X4533928Y-12907929D01*
X4519643Y-12922214D01*
X4505357Y-12907929D01*
X4519643Y-12893643D01*
X4519643Y-12922214D01*
X4805357Y-12622214D02*
X4662500Y-12622214D01*
X4648214Y-12765071D01*
X4662500Y-12750786D01*
X4691071Y-12736500D01*
X4762500Y-12736500D01*
X4791071Y-12750786D01*
X4805357Y-12765071D01*
X4819643Y-12793643D01*
X4819643Y-12865071D01*
X4805357Y-12893643D01*
X4791071Y-12907929D01*
X4762500Y-12922214D01*
X4691071Y-12922214D01*
X4662500Y-12907929D01*
X4648214Y-12893643D01*
X5005357Y-12622214D02*
X5033928Y-12622214D01*
X5062500Y-12636500D01*
X5076786Y-12650786D01*
X5091071Y-12679357D01*
X5105357Y-12736500D01*
X5105357Y-12807929D01*
X5091071Y-12865071D01*
X5076786Y-12893643D01*
X5062500Y-12907929D01*
X5033928Y-12922214D01*
X5005357Y-12922214D01*
X4976786Y-12907929D01*
X4962500Y-12893643D01*
X4948214Y-12865071D01*
X4933928Y-12807929D01*
X4933928Y-12736500D01*
X4948214Y-12679357D01*
X4962500Y-12650786D01*
X4976786Y-12636500D01*
X5005357Y-12622214D01*
X5233928Y-12922214D02*
X5233928Y-12722214D01*
X5233928Y-12750786D02*
X5248214Y-12736500D01*
X5276786Y-12722214D01*
X5319643Y-12722214D01*
X5348214Y-12736500D01*
X5362500Y-12765071D01*
X5362500Y-12922214D01*
X5362500Y-12765071D02*
X5376786Y-12736500D01*
X5405357Y-12722214D01*
X5448214Y-12722214D01*
X5476786Y-12736500D01*
X5491071Y-12765071D01*
X5491071Y-12922214D01*
X5633928Y-12922214D02*
X5633928Y-12722214D01*
X5633928Y-12750786D02*
X5648214Y-12736500D01*
X5676786Y-12722214D01*
X5719643Y-12722214D01*
X5748214Y-12736500D01*
X5762500Y-12765071D01*
X5762500Y-12922214D01*
X5762500Y-12765071D02*
X5776786Y-12736500D01*
X5805357Y-12722214D01*
X5848214Y-12722214D01*
X5876786Y-12736500D01*
X5891071Y-12765071D01*
X5891071Y-12922214D01*
X6476786Y-12607929D02*
X6219643Y-12993643D01*
X6862500Y-12622214D02*
X6891071Y-12622214D01*
X6919643Y-12636500D01*
X6933928Y-12650786D01*
X6948214Y-12679357D01*
X6962500Y-12736500D01*
X6962500Y-12807929D01*
X6948214Y-12865071D01*
X6933928Y-12893643D01*
X6919643Y-12907929D01*
X6891071Y-12922214D01*
X6862500Y-12922214D01*
X6833928Y-12907929D01*
X6819643Y-12893643D01*
X6805357Y-12865071D01*
X6791071Y-12807929D01*
X6791071Y-12736500D01*
X6805357Y-12679357D01*
X6819643Y-12650786D01*
X6833928Y-12636500D01*
X6862500Y-12622214D01*
X7091071Y-12893643D02*
X7105357Y-12907929D01*
X7091071Y-12922214D01*
X7076786Y-12907929D01*
X7091071Y-12893643D01*
X7091071Y-12922214D01*
X7291071Y-12622214D02*
X7319643Y-12622214D01*
X7348214Y-12636500D01*
X7362500Y-12650786D01*
X7376786Y-12679357D01*
X7391071Y-12736500D01*
X7391071Y-12807929D01*
X7376786Y-12865071D01*
X7362500Y-12893643D01*
X7348214Y-12907929D01*
X7319643Y-12922214D01*
X7291071Y-12922214D01*
X7262500Y-12907929D01*
X7248214Y-12893643D01*
X7233928Y-12865071D01*
X7219643Y-12807929D01*
X7219643Y-12736500D01*
X7233928Y-12679357D01*
X7248214Y-12650786D01*
X7262500Y-12636500D01*
X7291071Y-12622214D01*
X7533928Y-12922214D02*
X7591071Y-12922214D01*
X7619643Y-12907929D01*
X7633928Y-12893643D01*
X7662500Y-12850786D01*
X7676786Y-12793643D01*
X7676786Y-12679357D01*
X7662500Y-12650786D01*
X7648214Y-12636500D01*
X7619643Y-12622214D01*
X7562500Y-12622214D01*
X7533928Y-12636500D01*
X7519643Y-12650786D01*
X7505357Y-12679357D01*
X7505357Y-12750786D01*
X7519643Y-12779357D01*
X7533928Y-12793643D01*
X7562500Y-12807929D01*
X7619643Y-12807929D01*
X7648214Y-12793643D01*
X7662500Y-12779357D01*
X7676786Y-12750786D01*
X7848214Y-12750786D02*
X7819643Y-12736500D01*
X7805357Y-12722214D01*
X7791071Y-12693643D01*
X7791071Y-12679357D01*
X7805357Y-12650786D01*
X7819643Y-12636500D01*
X7848214Y-12622214D01*
X7905357Y-12622214D01*
X7933928Y-12636500D01*
X7948214Y-12650786D01*
X7962500Y-12679357D01*
X7962500Y-12693643D01*
X7948214Y-12722214D01*
X7933928Y-12736500D01*
X7905357Y-12750786D01*
X7848214Y-12750786D01*
X7819643Y-12765071D01*
X7805357Y-12779357D01*
X7791071Y-12807929D01*
X7791071Y-12865071D01*
X7805357Y-12893643D01*
X7819643Y-12907929D01*
X7848214Y-12922214D01*
X7905357Y-12922214D01*
X7933928Y-12907929D01*
X7948214Y-12893643D01*
X7962500Y-12865071D01*
X7962500Y-12807929D01*
X7948214Y-12779357D01*
X7933928Y-12765071D01*
X7905357Y-12750786D01*
X8076786Y-12622214D02*
X8076786Y-12679357D01*
X8191071Y-12622214D02*
X8191071Y-12679357D01*
X8633928Y-13036500D02*
X8619643Y-13022214D01*
X8591071Y-12979357D01*
X8576786Y-12950786D01*
X8562500Y-12907929D01*
X8548214Y-12836500D01*
X8548214Y-12779357D01*
X8562500Y-12707929D01*
X8576786Y-12665071D01*
X8591071Y-12636500D01*
X8619643Y-12593643D01*
X8633928Y-12579357D01*
X8876786Y-12722214D02*
X8876786Y-12922214D01*
X8805357Y-12607929D02*
X8733928Y-12822214D01*
X8919643Y-12822214D01*
X9262500Y-12922214D02*
X9262500Y-12622214D01*
X9391071Y-12922214D02*
X9391071Y-12765071D01*
X9376786Y-12736500D01*
X9348214Y-12722214D01*
X9305357Y-12722214D01*
X9276786Y-12736500D01*
X9262500Y-12750786D01*
X9576786Y-12922214D02*
X9548214Y-12907929D01*
X9533928Y-12893643D01*
X9519643Y-12865071D01*
X9519643Y-12779357D01*
X9533928Y-12750786D01*
X9548214Y-12736500D01*
X9576786Y-12722214D01*
X9619643Y-12722214D01*
X9648214Y-12736500D01*
X9662500Y-12750786D01*
X9676786Y-12779357D01*
X9676786Y-12865071D01*
X9662500Y-12893643D01*
X9648214Y-12907929D01*
X9619643Y-12922214D01*
X9576786Y-12922214D01*
X9848214Y-12922214D02*
X9819643Y-12907929D01*
X9805357Y-12879357D01*
X9805357Y-12622214D01*
X10076786Y-12907929D02*
X10048214Y-12922214D01*
X9991071Y-12922214D01*
X9962500Y-12907929D01*
X9948214Y-12879357D01*
X9948214Y-12765071D01*
X9962500Y-12736500D01*
X9991071Y-12722214D01*
X10048214Y-12722214D01*
X10076786Y-12736500D01*
X10091071Y-12765071D01*
X10091071Y-12793643D01*
X9948214Y-12822214D01*
X10205357Y-12907929D02*
X10233928Y-12922214D01*
X10291071Y-12922214D01*
X10319643Y-12907929D01*
X10333928Y-12879357D01*
X10333928Y-12865071D01*
X10319643Y-12836500D01*
X10291071Y-12822214D01*
X10248214Y-12822214D01*
X10219643Y-12807929D01*
X10205357Y-12779357D01*
X10205357Y-12765071D01*
X10219643Y-12736500D01*
X10248214Y-12722214D01*
X10291071Y-12722214D01*
X10319643Y-12736500D01*
X10433928Y-13036500D02*
X10448214Y-13022214D01*
X10476786Y-12979357D01*
X10491071Y-12950786D01*
X10505357Y-12907929D01*
X10519643Y-12836500D01*
X10519643Y-12779357D01*
X10505357Y-12707929D01*
X10491071Y-12665071D01*
X10476786Y-12636500D01*
X10448214Y-12593643D01*
X10433928Y-12579357D01*
X10976786Y-13036500D02*
X10962500Y-13022214D01*
X10933928Y-12979357D01*
X10919643Y-12950786D01*
X10905357Y-12907929D01*
X10891071Y-12836500D01*
X10891071Y-12779357D01*
X10905357Y-12707929D01*
X10919643Y-12665071D01*
X10933928Y-12636500D01*
X10962500Y-12593643D01*
X10976786Y-12579357D01*
X11091071Y-12722214D02*
X11091071Y-12922214D01*
X11091071Y-12750786D02*
X11105357Y-12736500D01*
X11133928Y-12722214D01*
X11176786Y-12722214D01*
X11205357Y-12736500D01*
X11219643Y-12765071D01*
X11219643Y-12922214D01*
X11405357Y-12922214D02*
X11376786Y-12907929D01*
X11362500Y-12893643D01*
X11348214Y-12865071D01*
X11348214Y-12779357D01*
X11362500Y-12750786D01*
X11376786Y-12736500D01*
X11405357Y-12722214D01*
X11448214Y-12722214D01*
X11476786Y-12736500D01*
X11491071Y-12750786D01*
X11505357Y-12779357D01*
X11505357Y-12865071D01*
X11491071Y-12893643D01*
X11476786Y-12907929D01*
X11448214Y-12922214D01*
X11405357Y-12922214D01*
X11591071Y-12722214D02*
X11705357Y-12722214D01*
X11633928Y-12622214D02*
X11633928Y-12879357D01*
X11648214Y-12907929D01*
X11676786Y-12922214D01*
X11705357Y-12922214D01*
X12033928Y-12722214D02*
X12033928Y-13022214D01*
X12033928Y-12736500D02*
X12062500Y-12722214D01*
X12119643Y-12722214D01*
X12148214Y-12736500D01*
X12162500Y-12750786D01*
X12176786Y-12779357D01*
X12176786Y-12865071D01*
X12162500Y-12893643D01*
X12148214Y-12907929D01*
X12119643Y-12922214D01*
X12062500Y-12922214D01*
X12033928Y-12907929D01*
X12348214Y-12922214D02*
X12319643Y-12907929D01*
X12305357Y-12879357D01*
X12305357Y-12622214D01*
X12591071Y-12922214D02*
X12591071Y-12765071D01*
X12576786Y-12736500D01*
X12548214Y-12722214D01*
X12491071Y-12722214D01*
X12462500Y-12736500D01*
X12591071Y-12907929D02*
X12562500Y-12922214D01*
X12491071Y-12922214D01*
X12462500Y-12907929D01*
X12448214Y-12879357D01*
X12448214Y-12850786D01*
X12462500Y-12822214D01*
X12491071Y-12807929D01*
X12562500Y-12807929D01*
X12591071Y-12793643D01*
X12691071Y-12722214D02*
X12805357Y-12722214D01*
X12733928Y-12622214D02*
X12733928Y-12879357D01*
X12748214Y-12907929D01*
X12776786Y-12922214D01*
X12805357Y-12922214D01*
X13019643Y-12907929D02*
X12991071Y-12922214D01*
X12933928Y-12922214D01*
X12905357Y-12907929D01*
X12891071Y-12879357D01*
X12891071Y-12765071D01*
X12905357Y-12736500D01*
X12933928Y-12722214D01*
X12991071Y-12722214D01*
X13019643Y-12736500D01*
X13033928Y-12765071D01*
X13033928Y-12793643D01*
X12891071Y-12822214D01*
X13291071Y-12922214D02*
X13291071Y-12622214D01*
X13291071Y-12907929D02*
X13262500Y-12922214D01*
X13205357Y-12922214D01*
X13176786Y-12907929D01*
X13162500Y-12893643D01*
X13148214Y-12865071D01*
X13148214Y-12779357D01*
X13162500Y-12750786D01*
X13176786Y-12736500D01*
X13205357Y-12722214D01*
X13262500Y-12722214D01*
X13291071Y-12736500D01*
X13405357Y-13036500D02*
X13419643Y-13022214D01*
X13448214Y-12979357D01*
X13462500Y-12950786D01*
X13476786Y-12907929D01*
X13491071Y-12836500D01*
X13491071Y-12779357D01*
X13476786Y-12707929D01*
X13462500Y-12665071D01*
X13448214Y-12636500D01*
X13419643Y-12593643D01*
X13405357Y-12579357D01*
X3732500Y-12967500D02*
X3732500Y-13397500D01*
X3517500Y-13182500D02*
X3947500Y-13182500D01*
X4362500Y-13118214D02*
X4362500Y-13318214D01*
X4291071Y-13003929D02*
X4219643Y-13218214D01*
X4405357Y-13218214D01*
X4519643Y-13289643D02*
X4533928Y-13303929D01*
X4519643Y-13318214D01*
X4505357Y-13303929D01*
X4519643Y-13289643D01*
X4519643Y-13318214D01*
X4633928Y-13018214D02*
X4819643Y-13018214D01*
X4719643Y-13132500D01*
X4762500Y-13132500D01*
X4791071Y-13146786D01*
X4805357Y-13161071D01*
X4819643Y-13189643D01*
X4819643Y-13261071D01*
X4805357Y-13289643D01*
X4791071Y-13303929D01*
X4762500Y-13318214D01*
X4676786Y-13318214D01*
X4648214Y-13303929D01*
X4633928Y-13289643D01*
X5005357Y-13018214D02*
X5033928Y-13018214D01*
X5062500Y-13032500D01*
X5076786Y-13046786D01*
X5091071Y-13075357D01*
X5105357Y-13132500D01*
X5105357Y-13203929D01*
X5091071Y-13261071D01*
X5076786Y-13289643D01*
X5062500Y-13303929D01*
X5033928Y-13318214D01*
X5005357Y-13318214D01*
X4976786Y-13303929D01*
X4962500Y-13289643D01*
X4948214Y-13261071D01*
X4933928Y-13203929D01*
X4933928Y-13132500D01*
X4948214Y-13075357D01*
X4962500Y-13046786D01*
X4976786Y-13032500D01*
X5005357Y-13018214D01*
X5233928Y-13318214D02*
X5233928Y-13118214D01*
X5233928Y-13146786D02*
X5248214Y-13132500D01*
X5276786Y-13118214D01*
X5319643Y-13118214D01*
X5348214Y-13132500D01*
X5362500Y-13161071D01*
X5362500Y-13318214D01*
X5362500Y-13161071D02*
X5376786Y-13132500D01*
X5405357Y-13118214D01*
X5448214Y-13118214D01*
X5476786Y-13132500D01*
X5491071Y-13161071D01*
X5491071Y-13318214D01*
X5633928Y-13318214D02*
X5633928Y-13118214D01*
X5633928Y-13146786D02*
X5648214Y-13132500D01*
X5676786Y-13118214D01*
X5719643Y-13118214D01*
X5748214Y-13132500D01*
X5762500Y-13161071D01*
X5762500Y-13318214D01*
X5762500Y-13161071D02*
X5776786Y-13132500D01*
X5805357Y-13118214D01*
X5848214Y-13118214D01*
X5876786Y-13132500D01*
X5891071Y-13161071D01*
X5891071Y-13318214D01*
X6476786Y-13003929D02*
X6219643Y-13389643D01*
X6862500Y-13018214D02*
X6891071Y-13018214D01*
X6919643Y-13032500D01*
X6933928Y-13046786D01*
X6948214Y-13075357D01*
X6962500Y-13132500D01*
X6962500Y-13203929D01*
X6948214Y-13261071D01*
X6933928Y-13289643D01*
X6919643Y-13303929D01*
X6891071Y-13318214D01*
X6862500Y-13318214D01*
X6833928Y-13303929D01*
X6819643Y-13289643D01*
X6805357Y-13261071D01*
X6791071Y-13203929D01*
X6791071Y-13132500D01*
X6805357Y-13075357D01*
X6819643Y-13046786D01*
X6833928Y-13032500D01*
X6862500Y-13018214D01*
X7091071Y-13289643D02*
X7105357Y-13303929D01*
X7091071Y-13318214D01*
X7076786Y-13303929D01*
X7091071Y-13289643D01*
X7091071Y-13318214D01*
X7391071Y-13318214D02*
X7219643Y-13318214D01*
X7305357Y-13318214D02*
X7305357Y-13018214D01*
X7276786Y-13061071D01*
X7248214Y-13089643D01*
X7219643Y-13103929D01*
X7648214Y-13018214D02*
X7591071Y-13018214D01*
X7562500Y-13032500D01*
X7548214Y-13046786D01*
X7519643Y-13089643D01*
X7505357Y-13146786D01*
X7505357Y-13261071D01*
X7519643Y-13289643D01*
X7533928Y-13303929D01*
X7562500Y-13318214D01*
X7619643Y-13318214D01*
X7648214Y-13303929D01*
X7662500Y-13289643D01*
X7676786Y-13261071D01*
X7676786Y-13189643D01*
X7662500Y-13161071D01*
X7648214Y-13146786D01*
X7619643Y-13132500D01*
X7562500Y-13132500D01*
X7533928Y-13146786D01*
X7519643Y-13161071D01*
X7505357Y-13189643D01*
X7819643Y-13318214D02*
X7876786Y-13318214D01*
X7905357Y-13303929D01*
X7919643Y-13289643D01*
X7948214Y-13246786D01*
X7962500Y-13189643D01*
X7962500Y-13075357D01*
X7948214Y-13046786D01*
X7933928Y-13032500D01*
X7905357Y-13018214D01*
X7848214Y-13018214D01*
X7819643Y-13032500D01*
X7805357Y-13046786D01*
X7791071Y-13075357D01*
X7791071Y-13146786D01*
X7805357Y-13175357D01*
X7819643Y-13189643D01*
X7848214Y-13203929D01*
X7905357Y-13203929D01*
X7933928Y-13189643D01*
X7948214Y-13175357D01*
X7962500Y-13146786D01*
X8076786Y-13018214D02*
X8076786Y-13075357D01*
X8191071Y-13018214D02*
X8191071Y-13075357D01*
X8633928Y-13432500D02*
X8619643Y-13418214D01*
X8591071Y-13375357D01*
X8576786Y-13346786D01*
X8562500Y-13303929D01*
X8548214Y-13232500D01*
X8548214Y-13175357D01*
X8562500Y-13103929D01*
X8576786Y-13061071D01*
X8591071Y-13032500D01*
X8619643Y-12989643D01*
X8633928Y-12975357D01*
X8733928Y-13046786D02*
X8748214Y-13032500D01*
X8776786Y-13018214D01*
X8848214Y-13018214D01*
X8876786Y-13032500D01*
X8891071Y-13046786D01*
X8905357Y-13075357D01*
X8905357Y-13103929D01*
X8891071Y-13146786D01*
X8719643Y-13318214D01*
X8905357Y-13318214D01*
X9262500Y-13318214D02*
X9262500Y-13018214D01*
X9391071Y-13318214D02*
X9391071Y-13161071D01*
X9376786Y-13132500D01*
X9348214Y-13118214D01*
X9305357Y-13118214D01*
X9276786Y-13132500D01*
X9262500Y-13146786D01*
X9576786Y-13318214D02*
X9548214Y-13303929D01*
X9533928Y-13289643D01*
X9519643Y-13261071D01*
X9519643Y-13175357D01*
X9533928Y-13146786D01*
X9548214Y-13132500D01*
X9576786Y-13118214D01*
X9619643Y-13118214D01*
X9648214Y-13132500D01*
X9662500Y-13146786D01*
X9676786Y-13175357D01*
X9676786Y-13261071D01*
X9662500Y-13289643D01*
X9648214Y-13303929D01*
X9619643Y-13318214D01*
X9576786Y-13318214D01*
X9848214Y-13318214D02*
X9819643Y-13303929D01*
X9805357Y-13275357D01*
X9805357Y-13018214D01*
X10076786Y-13303929D02*
X10048214Y-13318214D01*
X9991071Y-13318214D01*
X9962500Y-13303929D01*
X9948214Y-13275357D01*
X9948214Y-13161071D01*
X9962500Y-13132500D01*
X9991071Y-13118214D01*
X10048214Y-13118214D01*
X10076786Y-13132500D01*
X10091071Y-13161071D01*
X10091071Y-13189643D01*
X9948214Y-13218214D01*
X10205357Y-13303929D02*
X10233928Y-13318214D01*
X10291071Y-13318214D01*
X10319643Y-13303929D01*
X10333928Y-13275357D01*
X10333928Y-13261071D01*
X10319643Y-13232500D01*
X10291071Y-13218214D01*
X10248214Y-13218214D01*
X10219643Y-13203929D01*
X10205357Y-13175357D01*
X10205357Y-13161071D01*
X10219643Y-13132500D01*
X10248214Y-13118214D01*
X10291071Y-13118214D01*
X10319643Y-13132500D01*
X10433928Y-13432500D02*
X10448214Y-13418214D01*
X10476786Y-13375357D01*
X10491071Y-13346786D01*
X10505357Y-13303929D01*
X10519643Y-13232500D01*
X10519643Y-13175357D01*
X10505357Y-13103929D01*
X10491071Y-13061071D01*
X10476786Y-13032500D01*
X10448214Y-12989643D01*
X10433928Y-12975357D01*
X10976786Y-13432500D02*
X10962500Y-13418214D01*
X10933928Y-13375357D01*
X10919643Y-13346786D01*
X10905357Y-13303929D01*
X10891071Y-13232500D01*
X10891071Y-13175357D01*
X10905357Y-13103929D01*
X10919643Y-13061071D01*
X10933928Y-13032500D01*
X10962500Y-12989643D01*
X10976786Y-12975357D01*
X11091071Y-13118214D02*
X11091071Y-13318214D01*
X11091071Y-13146786D02*
X11105357Y-13132500D01*
X11133928Y-13118214D01*
X11176786Y-13118214D01*
X11205357Y-13132500D01*
X11219643Y-13161071D01*
X11219643Y-13318214D01*
X11405357Y-13318214D02*
X11376786Y-13303929D01*
X11362500Y-13289643D01*
X11348214Y-13261071D01*
X11348214Y-13175357D01*
X11362500Y-13146786D01*
X11376786Y-13132500D01*
X11405357Y-13118214D01*
X11448214Y-13118214D01*
X11476786Y-13132500D01*
X11491071Y-13146786D01*
X11505357Y-13175357D01*
X11505357Y-13261071D01*
X11491071Y-13289643D01*
X11476786Y-13303929D01*
X11448214Y-13318214D01*
X11405357Y-13318214D01*
X11591071Y-13118214D02*
X11705357Y-13118214D01*
X11633928Y-13018214D02*
X11633928Y-13275357D01*
X11648214Y-13303929D01*
X11676786Y-13318214D01*
X11705357Y-13318214D01*
X12033928Y-13118214D02*
X12033928Y-13418214D01*
X12033928Y-13132500D02*
X12062500Y-13118214D01*
X12119643Y-13118214D01*
X12148214Y-13132500D01*
X12162500Y-13146786D01*
X12176786Y-13175357D01*
X12176786Y-13261071D01*
X12162500Y-13289643D01*
X12148214Y-13303929D01*
X12119643Y-13318214D01*
X12062500Y-13318214D01*
X12033928Y-13303929D01*
X12348214Y-13318214D02*
X12319643Y-13303929D01*
X12305357Y-13275357D01*
X12305357Y-13018214D01*
X12591071Y-13318214D02*
X12591071Y-13161071D01*
X12576786Y-13132500D01*
X12548214Y-13118214D01*
X12491071Y-13118214D01*
X12462500Y-13132500D01*
X12591071Y-13303929D02*
X12562500Y-13318214D01*
X12491071Y-13318214D01*
X12462500Y-13303929D01*
X12448214Y-13275357D01*
X12448214Y-13246786D01*
X12462500Y-13218214D01*
X12491071Y-13203929D01*
X12562500Y-13203929D01*
X12591071Y-13189643D01*
X12691071Y-13118214D02*
X12805357Y-13118214D01*
X12733928Y-13018214D02*
X12733928Y-13275357D01*
X12748214Y-13303929D01*
X12776786Y-13318214D01*
X12805357Y-13318214D01*
X13019643Y-13303929D02*
X12991071Y-13318214D01*
X12933928Y-13318214D01*
X12905357Y-13303929D01*
X12891071Y-13275357D01*
X12891071Y-13161071D01*
X12905357Y-13132500D01*
X12933928Y-13118214D01*
X12991071Y-13118214D01*
X13019643Y-13132500D01*
X13033928Y-13161071D01*
X13033928Y-13189643D01*
X12891071Y-13218214D01*
X13291071Y-13318214D02*
X13291071Y-13018214D01*
X13291071Y-13303929D02*
X13262500Y-13318214D01*
X13205357Y-13318214D01*
X13176786Y-13303929D01*
X13162500Y-13289643D01*
X13148214Y-13261071D01*
X13148214Y-13175357D01*
X13162500Y-13146786D01*
X13176786Y-13132500D01*
X13205357Y-13118214D01*
X13262500Y-13118214D01*
X13291071Y-13132500D01*
X13405357Y-13432500D02*
X13419643Y-13418214D01*
X13448214Y-13375357D01*
X13462500Y-13346786D01*
X13476786Y-13303929D01*
X13491071Y-13232500D01*
X13491071Y-13175357D01*
X13476786Y-13103929D01*
X13462500Y-13061071D01*
X13448214Y-13032500D01*
X13419643Y-12989643D01*
X13405357Y-12975357D01*
M02*
