%TF.GenerationSoftware,KiCad,Pcbnew,7.0.8*%
%TF.CreationDate,2024-04-24T16:06:29-06:00*%
%TF.ProjectId,Motherboard23-24,4d6f7468-6572-4626-9f61-726432332d32,rev?*%
%TF.SameCoordinates,Original*%
%TF.FileFunction,Drillmap*%
%TF.FilePolarity,Positive*%
%FSLAX45Y45*%
G04 Gerber Fmt 4.5, Leading zero omitted, Abs format (unit mm)*
G04 Created by KiCad (PCBNEW 7.0.8) date 2024-04-24 16:06:29*
%MOMM*%
%LPD*%
G01*
G04 APERTURE LIST*
%ADD10C,0.100000*%
%ADD11C,0.200000*%
%ADD12C,0.210000*%
%ADD13C,0.250000*%
G04 APERTURE END LIST*
D10*
X2250000Y-13750000D02*
X2250000Y-2250000D01*
X25250000Y-2250000D02*
G75*
G03*
X24750000Y-1750000I-500000J0D01*
G01*
X24750000Y-14250000D02*
G75*
G03*
X25250000Y-13750000I0J500000D01*
G01*
X25250000Y-2250000D02*
X25250000Y-13750000D01*
X2750000Y-1750000D02*
X24750000Y-1750000D01*
X2250000Y-13750000D02*
G75*
G03*
X2750000Y-14250000I500000J0D01*
G01*
X24750000Y-14250000D02*
X2750000Y-14250000D01*
X2750000Y-1750000D02*
G75*
G03*
X2250000Y-2250000I0J-500000D01*
G01*
D11*
D12*
X3820000Y-8925000D02*
X4030000Y-9135000D01*
X4030000Y-8925000D02*
X3820000Y-9135000D01*
X3820000Y-11495000D02*
X4030000Y-11705000D01*
X4030000Y-11495000D02*
X3820000Y-11705000D01*
X5220000Y-10225000D02*
X5430000Y-10435000D01*
X5430000Y-10225000D02*
X5220000Y-10435000D01*
X5220000Y-12795000D02*
X5430000Y-13005000D01*
X5430000Y-12795000D02*
X5220000Y-13005000D01*
X6645000Y-8920000D02*
X6855000Y-9130000D01*
X6855000Y-8920000D02*
X6645000Y-9130000D01*
X6645000Y-11495000D02*
X6855000Y-11705000D01*
X6855000Y-11495000D02*
X6645000Y-11705000D01*
X8045000Y-10220000D02*
X8255000Y-10430000D01*
X8255000Y-10220000D02*
X8045000Y-10430000D01*
X8045000Y-12795000D02*
X8255000Y-13005000D01*
X8255000Y-12795000D02*
X8045000Y-13005000D01*
D13*
X2875000Y-2250000D02*
G75*
G03*
X2875000Y-2250000I-125000J0D01*
G01*
X2875000Y-13750000D02*
G75*
G03*
X2875000Y-13750000I-125000J0D01*
G01*
X24875000Y-2250000D02*
G75*
G03*
X24875000Y-2250000I-125000J0D01*
G01*
X24875000Y-13750000D02*
G75*
G03*
X24875000Y-13750000I-125000J0D01*
G01*
D11*
X2505777Y-14566484D02*
X2505777Y-14366484D01*
X2505777Y-14366484D02*
X2553396Y-14366484D01*
X2553396Y-14366484D02*
X2581967Y-14376008D01*
X2581967Y-14376008D02*
X2601015Y-14395055D01*
X2601015Y-14395055D02*
X2610539Y-14414103D01*
X2610539Y-14414103D02*
X2620063Y-14452198D01*
X2620063Y-14452198D02*
X2620063Y-14480769D01*
X2620063Y-14480769D02*
X2610539Y-14518865D01*
X2610539Y-14518865D02*
X2601015Y-14537912D01*
X2601015Y-14537912D02*
X2581967Y-14556960D01*
X2581967Y-14556960D02*
X2553396Y-14566484D01*
X2553396Y-14566484D02*
X2505777Y-14566484D01*
X2705777Y-14566484D02*
X2705777Y-14433150D01*
X2705777Y-14471246D02*
X2715301Y-14452198D01*
X2715301Y-14452198D02*
X2724824Y-14442674D01*
X2724824Y-14442674D02*
X2743872Y-14433150D01*
X2743872Y-14433150D02*
X2762920Y-14433150D01*
X2829586Y-14566484D02*
X2829586Y-14433150D01*
X2829586Y-14366484D02*
X2820062Y-14376008D01*
X2820062Y-14376008D02*
X2829586Y-14385531D01*
X2829586Y-14385531D02*
X2839110Y-14376008D01*
X2839110Y-14376008D02*
X2829586Y-14366484D01*
X2829586Y-14366484D02*
X2829586Y-14385531D01*
X2953396Y-14566484D02*
X2934348Y-14556960D01*
X2934348Y-14556960D02*
X2924824Y-14537912D01*
X2924824Y-14537912D02*
X2924824Y-14366484D01*
X3058158Y-14566484D02*
X3039110Y-14556960D01*
X3039110Y-14556960D02*
X3029586Y-14537912D01*
X3029586Y-14537912D02*
X3029586Y-14366484D01*
X3286729Y-14566484D02*
X3286729Y-14366484D01*
X3286729Y-14366484D02*
X3353396Y-14509341D01*
X3353396Y-14509341D02*
X3420062Y-14366484D01*
X3420062Y-14366484D02*
X3420062Y-14566484D01*
X3601015Y-14566484D02*
X3601015Y-14461722D01*
X3601015Y-14461722D02*
X3591491Y-14442674D01*
X3591491Y-14442674D02*
X3572443Y-14433150D01*
X3572443Y-14433150D02*
X3534348Y-14433150D01*
X3534348Y-14433150D02*
X3515301Y-14442674D01*
X3601015Y-14556960D02*
X3581967Y-14566484D01*
X3581967Y-14566484D02*
X3534348Y-14566484D01*
X3534348Y-14566484D02*
X3515301Y-14556960D01*
X3515301Y-14556960D02*
X3505777Y-14537912D01*
X3505777Y-14537912D02*
X3505777Y-14518865D01*
X3505777Y-14518865D02*
X3515301Y-14499817D01*
X3515301Y-14499817D02*
X3534348Y-14490293D01*
X3534348Y-14490293D02*
X3581967Y-14490293D01*
X3581967Y-14490293D02*
X3601015Y-14480769D01*
X3696253Y-14433150D02*
X3696253Y-14633150D01*
X3696253Y-14442674D02*
X3715301Y-14433150D01*
X3715301Y-14433150D02*
X3753396Y-14433150D01*
X3753396Y-14433150D02*
X3772443Y-14442674D01*
X3772443Y-14442674D02*
X3781967Y-14452198D01*
X3781967Y-14452198D02*
X3791491Y-14471246D01*
X3791491Y-14471246D02*
X3791491Y-14528388D01*
X3791491Y-14528388D02*
X3781967Y-14547436D01*
X3781967Y-14547436D02*
X3772443Y-14556960D01*
X3772443Y-14556960D02*
X3753396Y-14566484D01*
X3753396Y-14566484D02*
X3715301Y-14566484D01*
X3715301Y-14566484D02*
X3696253Y-14556960D01*
X3877205Y-14547436D02*
X3886729Y-14556960D01*
X3886729Y-14556960D02*
X3877205Y-14566484D01*
X3877205Y-14566484D02*
X3867682Y-14556960D01*
X3867682Y-14556960D02*
X3877205Y-14547436D01*
X3877205Y-14547436D02*
X3877205Y-14566484D01*
X3877205Y-14442674D02*
X3886729Y-14452198D01*
X3886729Y-14452198D02*
X3877205Y-14461722D01*
X3877205Y-14461722D02*
X3867682Y-14452198D01*
X3867682Y-14452198D02*
X3877205Y-14442674D01*
X3877205Y-14442674D02*
X3877205Y-14461722D01*
X2045000Y-14795000D02*
X2245000Y-14995000D01*
X2245000Y-14795000D02*
X2045000Y-14995000D01*
X2496253Y-14805531D02*
X2505777Y-14796008D01*
X2505777Y-14796008D02*
X2524824Y-14786484D01*
X2524824Y-14786484D02*
X2572444Y-14786484D01*
X2572444Y-14786484D02*
X2591491Y-14796008D01*
X2591491Y-14796008D02*
X2601015Y-14805531D01*
X2601015Y-14805531D02*
X2610539Y-14824579D01*
X2610539Y-14824579D02*
X2610539Y-14843627D01*
X2610539Y-14843627D02*
X2601015Y-14872198D01*
X2601015Y-14872198D02*
X2486729Y-14986484D01*
X2486729Y-14986484D02*
X2610539Y-14986484D01*
X2696253Y-14967436D02*
X2705777Y-14976960D01*
X2705777Y-14976960D02*
X2696253Y-14986484D01*
X2696253Y-14986484D02*
X2686729Y-14976960D01*
X2686729Y-14976960D02*
X2696253Y-14967436D01*
X2696253Y-14967436D02*
X2696253Y-14986484D01*
X2896253Y-14986484D02*
X2781967Y-14986484D01*
X2839110Y-14986484D02*
X2839110Y-14786484D01*
X2839110Y-14786484D02*
X2820062Y-14815055D01*
X2820062Y-14815055D02*
X2801015Y-14834103D01*
X2801015Y-14834103D02*
X2781967Y-14843627D01*
X3020062Y-14786484D02*
X3039110Y-14786484D01*
X3039110Y-14786484D02*
X3058158Y-14796008D01*
X3058158Y-14796008D02*
X3067682Y-14805531D01*
X3067682Y-14805531D02*
X3077205Y-14824579D01*
X3077205Y-14824579D02*
X3086729Y-14862674D01*
X3086729Y-14862674D02*
X3086729Y-14910293D01*
X3086729Y-14910293D02*
X3077205Y-14948388D01*
X3077205Y-14948388D02*
X3067682Y-14967436D01*
X3067682Y-14967436D02*
X3058158Y-14976960D01*
X3058158Y-14976960D02*
X3039110Y-14986484D01*
X3039110Y-14986484D02*
X3020062Y-14986484D01*
X3020062Y-14986484D02*
X3001015Y-14976960D01*
X3001015Y-14976960D02*
X2991491Y-14967436D01*
X2991491Y-14967436D02*
X2981967Y-14948388D01*
X2981967Y-14948388D02*
X2972443Y-14910293D01*
X2972443Y-14910293D02*
X2972443Y-14862674D01*
X2972443Y-14862674D02*
X2981967Y-14824579D01*
X2981967Y-14824579D02*
X2991491Y-14805531D01*
X2991491Y-14805531D02*
X3001015Y-14796008D01*
X3001015Y-14796008D02*
X3020062Y-14786484D01*
X3210539Y-14786484D02*
X3229586Y-14786484D01*
X3229586Y-14786484D02*
X3248634Y-14796008D01*
X3248634Y-14796008D02*
X3258158Y-14805531D01*
X3258158Y-14805531D02*
X3267682Y-14824579D01*
X3267682Y-14824579D02*
X3277205Y-14862674D01*
X3277205Y-14862674D02*
X3277205Y-14910293D01*
X3277205Y-14910293D02*
X3267682Y-14948388D01*
X3267682Y-14948388D02*
X3258158Y-14967436D01*
X3258158Y-14967436D02*
X3248634Y-14976960D01*
X3248634Y-14976960D02*
X3229586Y-14986484D01*
X3229586Y-14986484D02*
X3210539Y-14986484D01*
X3210539Y-14986484D02*
X3191491Y-14976960D01*
X3191491Y-14976960D02*
X3181967Y-14967436D01*
X3181967Y-14967436D02*
X3172443Y-14948388D01*
X3172443Y-14948388D02*
X3162920Y-14910293D01*
X3162920Y-14910293D02*
X3162920Y-14862674D01*
X3162920Y-14862674D02*
X3172443Y-14824579D01*
X3172443Y-14824579D02*
X3181967Y-14805531D01*
X3181967Y-14805531D02*
X3191491Y-14796008D01*
X3191491Y-14796008D02*
X3210539Y-14786484D01*
X3362920Y-14986484D02*
X3362920Y-14853150D01*
X3362920Y-14872198D02*
X3372443Y-14862674D01*
X3372443Y-14862674D02*
X3391491Y-14853150D01*
X3391491Y-14853150D02*
X3420063Y-14853150D01*
X3420063Y-14853150D02*
X3439110Y-14862674D01*
X3439110Y-14862674D02*
X3448634Y-14881722D01*
X3448634Y-14881722D02*
X3448634Y-14986484D01*
X3448634Y-14881722D02*
X3458158Y-14862674D01*
X3458158Y-14862674D02*
X3477205Y-14853150D01*
X3477205Y-14853150D02*
X3505777Y-14853150D01*
X3505777Y-14853150D02*
X3524824Y-14862674D01*
X3524824Y-14862674D02*
X3534348Y-14881722D01*
X3534348Y-14881722D02*
X3534348Y-14986484D01*
X3629586Y-14986484D02*
X3629586Y-14853150D01*
X3629586Y-14872198D02*
X3639110Y-14862674D01*
X3639110Y-14862674D02*
X3658158Y-14853150D01*
X3658158Y-14853150D02*
X3686729Y-14853150D01*
X3686729Y-14853150D02*
X3705777Y-14862674D01*
X3705777Y-14862674D02*
X3715301Y-14881722D01*
X3715301Y-14881722D02*
X3715301Y-14986484D01*
X3715301Y-14881722D02*
X3724824Y-14862674D01*
X3724824Y-14862674D02*
X3743872Y-14853150D01*
X3743872Y-14853150D02*
X3772443Y-14853150D01*
X3772443Y-14853150D02*
X3791491Y-14862674D01*
X3791491Y-14862674D02*
X3801015Y-14881722D01*
X3801015Y-14881722D02*
X3801015Y-14986484D01*
X4191491Y-14776960D02*
X4020063Y-15034103D01*
X4448634Y-14786484D02*
X4467682Y-14786484D01*
X4467682Y-14786484D02*
X4486729Y-14796008D01*
X4486729Y-14796008D02*
X4496253Y-14805531D01*
X4496253Y-14805531D02*
X4505777Y-14824579D01*
X4505777Y-14824579D02*
X4515301Y-14862674D01*
X4515301Y-14862674D02*
X4515301Y-14910293D01*
X4515301Y-14910293D02*
X4505777Y-14948388D01*
X4505777Y-14948388D02*
X4496253Y-14967436D01*
X4496253Y-14967436D02*
X4486729Y-14976960D01*
X4486729Y-14976960D02*
X4467682Y-14986484D01*
X4467682Y-14986484D02*
X4448634Y-14986484D01*
X4448634Y-14986484D02*
X4429587Y-14976960D01*
X4429587Y-14976960D02*
X4420063Y-14967436D01*
X4420063Y-14967436D02*
X4410539Y-14948388D01*
X4410539Y-14948388D02*
X4401015Y-14910293D01*
X4401015Y-14910293D02*
X4401015Y-14862674D01*
X4401015Y-14862674D02*
X4410539Y-14824579D01*
X4410539Y-14824579D02*
X4420063Y-14805531D01*
X4420063Y-14805531D02*
X4429587Y-14796008D01*
X4429587Y-14796008D02*
X4448634Y-14786484D01*
X4601015Y-14967436D02*
X4610539Y-14976960D01*
X4610539Y-14976960D02*
X4601015Y-14986484D01*
X4601015Y-14986484D02*
X4591491Y-14976960D01*
X4591491Y-14976960D02*
X4601015Y-14967436D01*
X4601015Y-14967436D02*
X4601015Y-14986484D01*
X4734348Y-14786484D02*
X4753396Y-14786484D01*
X4753396Y-14786484D02*
X4772444Y-14796008D01*
X4772444Y-14796008D02*
X4781968Y-14805531D01*
X4781968Y-14805531D02*
X4791491Y-14824579D01*
X4791491Y-14824579D02*
X4801015Y-14862674D01*
X4801015Y-14862674D02*
X4801015Y-14910293D01*
X4801015Y-14910293D02*
X4791491Y-14948388D01*
X4791491Y-14948388D02*
X4781968Y-14967436D01*
X4781968Y-14967436D02*
X4772444Y-14976960D01*
X4772444Y-14976960D02*
X4753396Y-14986484D01*
X4753396Y-14986484D02*
X4734348Y-14986484D01*
X4734348Y-14986484D02*
X4715301Y-14976960D01*
X4715301Y-14976960D02*
X4705777Y-14967436D01*
X4705777Y-14967436D02*
X4696253Y-14948388D01*
X4696253Y-14948388D02*
X4686729Y-14910293D01*
X4686729Y-14910293D02*
X4686729Y-14862674D01*
X4686729Y-14862674D02*
X4696253Y-14824579D01*
X4696253Y-14824579D02*
X4705777Y-14805531D01*
X4705777Y-14805531D02*
X4715301Y-14796008D01*
X4715301Y-14796008D02*
X4734348Y-14786484D01*
X4915301Y-14872198D02*
X4896253Y-14862674D01*
X4896253Y-14862674D02*
X4886729Y-14853150D01*
X4886729Y-14853150D02*
X4877206Y-14834103D01*
X4877206Y-14834103D02*
X4877206Y-14824579D01*
X4877206Y-14824579D02*
X4886729Y-14805531D01*
X4886729Y-14805531D02*
X4896253Y-14796008D01*
X4896253Y-14796008D02*
X4915301Y-14786484D01*
X4915301Y-14786484D02*
X4953396Y-14786484D01*
X4953396Y-14786484D02*
X4972444Y-14796008D01*
X4972444Y-14796008D02*
X4981968Y-14805531D01*
X4981968Y-14805531D02*
X4991491Y-14824579D01*
X4991491Y-14824579D02*
X4991491Y-14834103D01*
X4991491Y-14834103D02*
X4981968Y-14853150D01*
X4981968Y-14853150D02*
X4972444Y-14862674D01*
X4972444Y-14862674D02*
X4953396Y-14872198D01*
X4953396Y-14872198D02*
X4915301Y-14872198D01*
X4915301Y-14872198D02*
X4896253Y-14881722D01*
X4896253Y-14881722D02*
X4886729Y-14891246D01*
X4886729Y-14891246D02*
X4877206Y-14910293D01*
X4877206Y-14910293D02*
X4877206Y-14948388D01*
X4877206Y-14948388D02*
X4886729Y-14967436D01*
X4886729Y-14967436D02*
X4896253Y-14976960D01*
X4896253Y-14976960D02*
X4915301Y-14986484D01*
X4915301Y-14986484D02*
X4953396Y-14986484D01*
X4953396Y-14986484D02*
X4972444Y-14976960D01*
X4972444Y-14976960D02*
X4981968Y-14967436D01*
X4981968Y-14967436D02*
X4991491Y-14948388D01*
X4991491Y-14948388D02*
X4991491Y-14910293D01*
X4991491Y-14910293D02*
X4981968Y-14891246D01*
X4981968Y-14891246D02*
X4972444Y-14881722D01*
X4972444Y-14881722D02*
X4953396Y-14872198D01*
X5067682Y-14805531D02*
X5077206Y-14796008D01*
X5077206Y-14796008D02*
X5096253Y-14786484D01*
X5096253Y-14786484D02*
X5143872Y-14786484D01*
X5143872Y-14786484D02*
X5162920Y-14796008D01*
X5162920Y-14796008D02*
X5172444Y-14805531D01*
X5172444Y-14805531D02*
X5181968Y-14824579D01*
X5181968Y-14824579D02*
X5181968Y-14843627D01*
X5181968Y-14843627D02*
X5172444Y-14872198D01*
X5172444Y-14872198D02*
X5058158Y-14986484D01*
X5058158Y-14986484D02*
X5181968Y-14986484D01*
X5248634Y-14786484D02*
X5381968Y-14786484D01*
X5381968Y-14786484D02*
X5296253Y-14986484D01*
X5448634Y-14786484D02*
X5448634Y-14824579D01*
X5524825Y-14786484D02*
X5524825Y-14824579D01*
X5820063Y-15062674D02*
X5810539Y-15053150D01*
X5810539Y-15053150D02*
X5791491Y-15024579D01*
X5791491Y-15024579D02*
X5781968Y-15005531D01*
X5781968Y-15005531D02*
X5772444Y-14976960D01*
X5772444Y-14976960D02*
X5762920Y-14929341D01*
X5762920Y-14929341D02*
X5762920Y-14891246D01*
X5762920Y-14891246D02*
X5772444Y-14843627D01*
X5772444Y-14843627D02*
X5781968Y-14815055D01*
X5781968Y-14815055D02*
X5791491Y-14796008D01*
X5791491Y-14796008D02*
X5810539Y-14767436D01*
X5810539Y-14767436D02*
X5820063Y-14757912D01*
X5924825Y-14872198D02*
X5905777Y-14862674D01*
X5905777Y-14862674D02*
X5896253Y-14853150D01*
X5896253Y-14853150D02*
X5886729Y-14834103D01*
X5886729Y-14834103D02*
X5886729Y-14824579D01*
X5886729Y-14824579D02*
X5896253Y-14805531D01*
X5896253Y-14805531D02*
X5905777Y-14796008D01*
X5905777Y-14796008D02*
X5924825Y-14786484D01*
X5924825Y-14786484D02*
X5962920Y-14786484D01*
X5962920Y-14786484D02*
X5981968Y-14796008D01*
X5981968Y-14796008D02*
X5991491Y-14805531D01*
X5991491Y-14805531D02*
X6001015Y-14824579D01*
X6001015Y-14824579D02*
X6001015Y-14834103D01*
X6001015Y-14834103D02*
X5991491Y-14853150D01*
X5991491Y-14853150D02*
X5981968Y-14862674D01*
X5981968Y-14862674D02*
X5962920Y-14872198D01*
X5962920Y-14872198D02*
X5924825Y-14872198D01*
X5924825Y-14872198D02*
X5905777Y-14881722D01*
X5905777Y-14881722D02*
X5896253Y-14891246D01*
X5896253Y-14891246D02*
X5886729Y-14910293D01*
X5886729Y-14910293D02*
X5886729Y-14948388D01*
X5886729Y-14948388D02*
X5896253Y-14967436D01*
X5896253Y-14967436D02*
X5905777Y-14976960D01*
X5905777Y-14976960D02*
X5924825Y-14986484D01*
X5924825Y-14986484D02*
X5962920Y-14986484D01*
X5962920Y-14986484D02*
X5981968Y-14976960D01*
X5981968Y-14976960D02*
X5991491Y-14967436D01*
X5991491Y-14967436D02*
X6001015Y-14948388D01*
X6001015Y-14948388D02*
X6001015Y-14910293D01*
X6001015Y-14910293D02*
X5991491Y-14891246D01*
X5991491Y-14891246D02*
X5981968Y-14881722D01*
X5981968Y-14881722D02*
X5962920Y-14872198D01*
X6239110Y-14986484D02*
X6239110Y-14786484D01*
X6324825Y-14986484D02*
X6324825Y-14881722D01*
X6324825Y-14881722D02*
X6315301Y-14862674D01*
X6315301Y-14862674D02*
X6296253Y-14853150D01*
X6296253Y-14853150D02*
X6267682Y-14853150D01*
X6267682Y-14853150D02*
X6248634Y-14862674D01*
X6248634Y-14862674D02*
X6239110Y-14872198D01*
X6448634Y-14986484D02*
X6429587Y-14976960D01*
X6429587Y-14976960D02*
X6420063Y-14967436D01*
X6420063Y-14967436D02*
X6410539Y-14948388D01*
X6410539Y-14948388D02*
X6410539Y-14891246D01*
X6410539Y-14891246D02*
X6420063Y-14872198D01*
X6420063Y-14872198D02*
X6429587Y-14862674D01*
X6429587Y-14862674D02*
X6448634Y-14853150D01*
X6448634Y-14853150D02*
X6477206Y-14853150D01*
X6477206Y-14853150D02*
X6496253Y-14862674D01*
X6496253Y-14862674D02*
X6505777Y-14872198D01*
X6505777Y-14872198D02*
X6515301Y-14891246D01*
X6515301Y-14891246D02*
X6515301Y-14948388D01*
X6515301Y-14948388D02*
X6505777Y-14967436D01*
X6505777Y-14967436D02*
X6496253Y-14976960D01*
X6496253Y-14976960D02*
X6477206Y-14986484D01*
X6477206Y-14986484D02*
X6448634Y-14986484D01*
X6629587Y-14986484D02*
X6610539Y-14976960D01*
X6610539Y-14976960D02*
X6601015Y-14957912D01*
X6601015Y-14957912D02*
X6601015Y-14786484D01*
X6781968Y-14976960D02*
X6762920Y-14986484D01*
X6762920Y-14986484D02*
X6724825Y-14986484D01*
X6724825Y-14986484D02*
X6705777Y-14976960D01*
X6705777Y-14976960D02*
X6696253Y-14957912D01*
X6696253Y-14957912D02*
X6696253Y-14881722D01*
X6696253Y-14881722D02*
X6705777Y-14862674D01*
X6705777Y-14862674D02*
X6724825Y-14853150D01*
X6724825Y-14853150D02*
X6762920Y-14853150D01*
X6762920Y-14853150D02*
X6781968Y-14862674D01*
X6781968Y-14862674D02*
X6791491Y-14881722D01*
X6791491Y-14881722D02*
X6791491Y-14900769D01*
X6791491Y-14900769D02*
X6696253Y-14919817D01*
X6867682Y-14976960D02*
X6886730Y-14986484D01*
X6886730Y-14986484D02*
X6924825Y-14986484D01*
X6924825Y-14986484D02*
X6943872Y-14976960D01*
X6943872Y-14976960D02*
X6953396Y-14957912D01*
X6953396Y-14957912D02*
X6953396Y-14948388D01*
X6953396Y-14948388D02*
X6943872Y-14929341D01*
X6943872Y-14929341D02*
X6924825Y-14919817D01*
X6924825Y-14919817D02*
X6896253Y-14919817D01*
X6896253Y-14919817D02*
X6877206Y-14910293D01*
X6877206Y-14910293D02*
X6867682Y-14891246D01*
X6867682Y-14891246D02*
X6867682Y-14881722D01*
X6867682Y-14881722D02*
X6877206Y-14862674D01*
X6877206Y-14862674D02*
X6896253Y-14853150D01*
X6896253Y-14853150D02*
X6924825Y-14853150D01*
X6924825Y-14853150D02*
X6943872Y-14862674D01*
X7020063Y-15062674D02*
X7029587Y-15053150D01*
X7029587Y-15053150D02*
X7048634Y-15024579D01*
X7048634Y-15024579D02*
X7058158Y-15005531D01*
X7058158Y-15005531D02*
X7067682Y-14976960D01*
X7067682Y-14976960D02*
X7077206Y-14929341D01*
X7077206Y-14929341D02*
X7077206Y-14891246D01*
X7077206Y-14891246D02*
X7067682Y-14843627D01*
X7067682Y-14843627D02*
X7058158Y-14815055D01*
X7058158Y-14815055D02*
X7048634Y-14796008D01*
X7048634Y-14796008D02*
X7029587Y-14767436D01*
X7029587Y-14767436D02*
X7020063Y-14757912D01*
X7381968Y-15062674D02*
X7372444Y-15053150D01*
X7372444Y-15053150D02*
X7353396Y-15024579D01*
X7353396Y-15024579D02*
X7343872Y-15005531D01*
X7343872Y-15005531D02*
X7334349Y-14976960D01*
X7334349Y-14976960D02*
X7324825Y-14929341D01*
X7324825Y-14929341D02*
X7324825Y-14891246D01*
X7324825Y-14891246D02*
X7334349Y-14843627D01*
X7334349Y-14843627D02*
X7343872Y-14815055D01*
X7343872Y-14815055D02*
X7353396Y-14796008D01*
X7353396Y-14796008D02*
X7372444Y-14767436D01*
X7372444Y-14767436D02*
X7381968Y-14757912D01*
X7458158Y-14853150D02*
X7458158Y-14986484D01*
X7458158Y-14872198D02*
X7467682Y-14862674D01*
X7467682Y-14862674D02*
X7486730Y-14853150D01*
X7486730Y-14853150D02*
X7515301Y-14853150D01*
X7515301Y-14853150D02*
X7534349Y-14862674D01*
X7534349Y-14862674D02*
X7543872Y-14881722D01*
X7543872Y-14881722D02*
X7543872Y-14986484D01*
X7667682Y-14986484D02*
X7648634Y-14976960D01*
X7648634Y-14976960D02*
X7639111Y-14967436D01*
X7639111Y-14967436D02*
X7629587Y-14948388D01*
X7629587Y-14948388D02*
X7629587Y-14891246D01*
X7629587Y-14891246D02*
X7639111Y-14872198D01*
X7639111Y-14872198D02*
X7648634Y-14862674D01*
X7648634Y-14862674D02*
X7667682Y-14853150D01*
X7667682Y-14853150D02*
X7696253Y-14853150D01*
X7696253Y-14853150D02*
X7715301Y-14862674D01*
X7715301Y-14862674D02*
X7724825Y-14872198D01*
X7724825Y-14872198D02*
X7734349Y-14891246D01*
X7734349Y-14891246D02*
X7734349Y-14948388D01*
X7734349Y-14948388D02*
X7724825Y-14967436D01*
X7724825Y-14967436D02*
X7715301Y-14976960D01*
X7715301Y-14976960D02*
X7696253Y-14986484D01*
X7696253Y-14986484D02*
X7667682Y-14986484D01*
X7791492Y-14853150D02*
X7867682Y-14853150D01*
X7820063Y-14786484D02*
X7820063Y-14957912D01*
X7820063Y-14957912D02*
X7829587Y-14976960D01*
X7829587Y-14976960D02*
X7848634Y-14986484D01*
X7848634Y-14986484D02*
X7867682Y-14986484D01*
X8086730Y-14853150D02*
X8086730Y-15053150D01*
X8086730Y-14862674D02*
X8105777Y-14853150D01*
X8105777Y-14853150D02*
X8143873Y-14853150D01*
X8143873Y-14853150D02*
X8162920Y-14862674D01*
X8162920Y-14862674D02*
X8172444Y-14872198D01*
X8172444Y-14872198D02*
X8181968Y-14891246D01*
X8181968Y-14891246D02*
X8181968Y-14948388D01*
X8181968Y-14948388D02*
X8172444Y-14967436D01*
X8172444Y-14967436D02*
X8162920Y-14976960D01*
X8162920Y-14976960D02*
X8143873Y-14986484D01*
X8143873Y-14986484D02*
X8105777Y-14986484D01*
X8105777Y-14986484D02*
X8086730Y-14976960D01*
X8296253Y-14986484D02*
X8277206Y-14976960D01*
X8277206Y-14976960D02*
X8267682Y-14957912D01*
X8267682Y-14957912D02*
X8267682Y-14786484D01*
X8458158Y-14986484D02*
X8458158Y-14881722D01*
X8458158Y-14881722D02*
X8448635Y-14862674D01*
X8448635Y-14862674D02*
X8429587Y-14853150D01*
X8429587Y-14853150D02*
X8391492Y-14853150D01*
X8391492Y-14853150D02*
X8372444Y-14862674D01*
X8458158Y-14976960D02*
X8439111Y-14986484D01*
X8439111Y-14986484D02*
X8391492Y-14986484D01*
X8391492Y-14986484D02*
X8372444Y-14976960D01*
X8372444Y-14976960D02*
X8362920Y-14957912D01*
X8362920Y-14957912D02*
X8362920Y-14938865D01*
X8362920Y-14938865D02*
X8372444Y-14919817D01*
X8372444Y-14919817D02*
X8391492Y-14910293D01*
X8391492Y-14910293D02*
X8439111Y-14910293D01*
X8439111Y-14910293D02*
X8458158Y-14900769D01*
X8524825Y-14853150D02*
X8601015Y-14853150D01*
X8553396Y-14786484D02*
X8553396Y-14957912D01*
X8553396Y-14957912D02*
X8562920Y-14976960D01*
X8562920Y-14976960D02*
X8581968Y-14986484D01*
X8581968Y-14986484D02*
X8601015Y-14986484D01*
X8743873Y-14976960D02*
X8724825Y-14986484D01*
X8724825Y-14986484D02*
X8686730Y-14986484D01*
X8686730Y-14986484D02*
X8667682Y-14976960D01*
X8667682Y-14976960D02*
X8658158Y-14957912D01*
X8658158Y-14957912D02*
X8658158Y-14881722D01*
X8658158Y-14881722D02*
X8667682Y-14862674D01*
X8667682Y-14862674D02*
X8686730Y-14853150D01*
X8686730Y-14853150D02*
X8724825Y-14853150D01*
X8724825Y-14853150D02*
X8743873Y-14862674D01*
X8743873Y-14862674D02*
X8753396Y-14881722D01*
X8753396Y-14881722D02*
X8753396Y-14900769D01*
X8753396Y-14900769D02*
X8658158Y-14919817D01*
X8924825Y-14986484D02*
X8924825Y-14786484D01*
X8924825Y-14976960D02*
X8905777Y-14986484D01*
X8905777Y-14986484D02*
X8867682Y-14986484D01*
X8867682Y-14986484D02*
X8848635Y-14976960D01*
X8848635Y-14976960D02*
X8839111Y-14967436D01*
X8839111Y-14967436D02*
X8829587Y-14948388D01*
X8829587Y-14948388D02*
X8829587Y-14891246D01*
X8829587Y-14891246D02*
X8839111Y-14872198D01*
X8839111Y-14872198D02*
X8848635Y-14862674D01*
X8848635Y-14862674D02*
X8867682Y-14853150D01*
X8867682Y-14853150D02*
X8905777Y-14853150D01*
X8905777Y-14853150D02*
X8924825Y-14862674D01*
X9001016Y-15062674D02*
X9010539Y-15053150D01*
X9010539Y-15053150D02*
X9029587Y-15024579D01*
X9029587Y-15024579D02*
X9039111Y-15005531D01*
X9039111Y-15005531D02*
X9048635Y-14976960D01*
X9048635Y-14976960D02*
X9058158Y-14929341D01*
X9058158Y-14929341D02*
X9058158Y-14891246D01*
X9058158Y-14891246D02*
X9048635Y-14843627D01*
X9048635Y-14843627D02*
X9039111Y-14815055D01*
X9039111Y-14815055D02*
X9029587Y-14796008D01*
X9029587Y-14796008D02*
X9010539Y-14767436D01*
X9010539Y-14767436D02*
X9001016Y-14757912D01*
X2245000Y-15215000D02*
G75*
G03*
X2245000Y-15215000I-100000J0D01*
G01*
X2496253Y-15125531D02*
X2505777Y-15116008D01*
X2505777Y-15116008D02*
X2524824Y-15106484D01*
X2524824Y-15106484D02*
X2572444Y-15106484D01*
X2572444Y-15106484D02*
X2591491Y-15116008D01*
X2591491Y-15116008D02*
X2601015Y-15125531D01*
X2601015Y-15125531D02*
X2610539Y-15144579D01*
X2610539Y-15144579D02*
X2610539Y-15163627D01*
X2610539Y-15163627D02*
X2601015Y-15192198D01*
X2601015Y-15192198D02*
X2486729Y-15306484D01*
X2486729Y-15306484D02*
X2610539Y-15306484D01*
X2696253Y-15287436D02*
X2705777Y-15296960D01*
X2705777Y-15296960D02*
X2696253Y-15306484D01*
X2696253Y-15306484D02*
X2686729Y-15296960D01*
X2686729Y-15296960D02*
X2696253Y-15287436D01*
X2696253Y-15287436D02*
X2696253Y-15306484D01*
X2886729Y-15106484D02*
X2791491Y-15106484D01*
X2791491Y-15106484D02*
X2781967Y-15201722D01*
X2781967Y-15201722D02*
X2791491Y-15192198D01*
X2791491Y-15192198D02*
X2810539Y-15182674D01*
X2810539Y-15182674D02*
X2858158Y-15182674D01*
X2858158Y-15182674D02*
X2877205Y-15192198D01*
X2877205Y-15192198D02*
X2886729Y-15201722D01*
X2886729Y-15201722D02*
X2896253Y-15220769D01*
X2896253Y-15220769D02*
X2896253Y-15268388D01*
X2896253Y-15268388D02*
X2886729Y-15287436D01*
X2886729Y-15287436D02*
X2877205Y-15296960D01*
X2877205Y-15296960D02*
X2858158Y-15306484D01*
X2858158Y-15306484D02*
X2810539Y-15306484D01*
X2810539Y-15306484D02*
X2791491Y-15296960D01*
X2791491Y-15296960D02*
X2781967Y-15287436D01*
X3020062Y-15106484D02*
X3039110Y-15106484D01*
X3039110Y-15106484D02*
X3058158Y-15116008D01*
X3058158Y-15116008D02*
X3067682Y-15125531D01*
X3067682Y-15125531D02*
X3077205Y-15144579D01*
X3077205Y-15144579D02*
X3086729Y-15182674D01*
X3086729Y-15182674D02*
X3086729Y-15230293D01*
X3086729Y-15230293D02*
X3077205Y-15268388D01*
X3077205Y-15268388D02*
X3067682Y-15287436D01*
X3067682Y-15287436D02*
X3058158Y-15296960D01*
X3058158Y-15296960D02*
X3039110Y-15306484D01*
X3039110Y-15306484D02*
X3020062Y-15306484D01*
X3020062Y-15306484D02*
X3001015Y-15296960D01*
X3001015Y-15296960D02*
X2991491Y-15287436D01*
X2991491Y-15287436D02*
X2981967Y-15268388D01*
X2981967Y-15268388D02*
X2972443Y-15230293D01*
X2972443Y-15230293D02*
X2972443Y-15182674D01*
X2972443Y-15182674D02*
X2981967Y-15144579D01*
X2981967Y-15144579D02*
X2991491Y-15125531D01*
X2991491Y-15125531D02*
X3001015Y-15116008D01*
X3001015Y-15116008D02*
X3020062Y-15106484D01*
X3210539Y-15106484D02*
X3229586Y-15106484D01*
X3229586Y-15106484D02*
X3248634Y-15116008D01*
X3248634Y-15116008D02*
X3258158Y-15125531D01*
X3258158Y-15125531D02*
X3267682Y-15144579D01*
X3267682Y-15144579D02*
X3277205Y-15182674D01*
X3277205Y-15182674D02*
X3277205Y-15230293D01*
X3277205Y-15230293D02*
X3267682Y-15268388D01*
X3267682Y-15268388D02*
X3258158Y-15287436D01*
X3258158Y-15287436D02*
X3248634Y-15296960D01*
X3248634Y-15296960D02*
X3229586Y-15306484D01*
X3229586Y-15306484D02*
X3210539Y-15306484D01*
X3210539Y-15306484D02*
X3191491Y-15296960D01*
X3191491Y-15296960D02*
X3181967Y-15287436D01*
X3181967Y-15287436D02*
X3172443Y-15268388D01*
X3172443Y-15268388D02*
X3162920Y-15230293D01*
X3162920Y-15230293D02*
X3162920Y-15182674D01*
X3162920Y-15182674D02*
X3172443Y-15144579D01*
X3172443Y-15144579D02*
X3181967Y-15125531D01*
X3181967Y-15125531D02*
X3191491Y-15116008D01*
X3191491Y-15116008D02*
X3210539Y-15106484D01*
X3362920Y-15306484D02*
X3362920Y-15173150D01*
X3362920Y-15192198D02*
X3372443Y-15182674D01*
X3372443Y-15182674D02*
X3391491Y-15173150D01*
X3391491Y-15173150D02*
X3420063Y-15173150D01*
X3420063Y-15173150D02*
X3439110Y-15182674D01*
X3439110Y-15182674D02*
X3448634Y-15201722D01*
X3448634Y-15201722D02*
X3448634Y-15306484D01*
X3448634Y-15201722D02*
X3458158Y-15182674D01*
X3458158Y-15182674D02*
X3477205Y-15173150D01*
X3477205Y-15173150D02*
X3505777Y-15173150D01*
X3505777Y-15173150D02*
X3524824Y-15182674D01*
X3524824Y-15182674D02*
X3534348Y-15201722D01*
X3534348Y-15201722D02*
X3534348Y-15306484D01*
X3629586Y-15306484D02*
X3629586Y-15173150D01*
X3629586Y-15192198D02*
X3639110Y-15182674D01*
X3639110Y-15182674D02*
X3658158Y-15173150D01*
X3658158Y-15173150D02*
X3686729Y-15173150D01*
X3686729Y-15173150D02*
X3705777Y-15182674D01*
X3705777Y-15182674D02*
X3715301Y-15201722D01*
X3715301Y-15201722D02*
X3715301Y-15306484D01*
X3715301Y-15201722D02*
X3724824Y-15182674D01*
X3724824Y-15182674D02*
X3743872Y-15173150D01*
X3743872Y-15173150D02*
X3772443Y-15173150D01*
X3772443Y-15173150D02*
X3791491Y-15182674D01*
X3791491Y-15182674D02*
X3801015Y-15201722D01*
X3801015Y-15201722D02*
X3801015Y-15306484D01*
X4191491Y-15096960D02*
X4020063Y-15354103D01*
X4448634Y-15106484D02*
X4467682Y-15106484D01*
X4467682Y-15106484D02*
X4486729Y-15116008D01*
X4486729Y-15116008D02*
X4496253Y-15125531D01*
X4496253Y-15125531D02*
X4505777Y-15144579D01*
X4505777Y-15144579D02*
X4515301Y-15182674D01*
X4515301Y-15182674D02*
X4515301Y-15230293D01*
X4515301Y-15230293D02*
X4505777Y-15268388D01*
X4505777Y-15268388D02*
X4496253Y-15287436D01*
X4496253Y-15287436D02*
X4486729Y-15296960D01*
X4486729Y-15296960D02*
X4467682Y-15306484D01*
X4467682Y-15306484D02*
X4448634Y-15306484D01*
X4448634Y-15306484D02*
X4429587Y-15296960D01*
X4429587Y-15296960D02*
X4420063Y-15287436D01*
X4420063Y-15287436D02*
X4410539Y-15268388D01*
X4410539Y-15268388D02*
X4401015Y-15230293D01*
X4401015Y-15230293D02*
X4401015Y-15182674D01*
X4401015Y-15182674D02*
X4410539Y-15144579D01*
X4410539Y-15144579D02*
X4420063Y-15125531D01*
X4420063Y-15125531D02*
X4429587Y-15116008D01*
X4429587Y-15116008D02*
X4448634Y-15106484D01*
X4601015Y-15287436D02*
X4610539Y-15296960D01*
X4610539Y-15296960D02*
X4601015Y-15306484D01*
X4601015Y-15306484D02*
X4591491Y-15296960D01*
X4591491Y-15296960D02*
X4601015Y-15287436D01*
X4601015Y-15287436D02*
X4601015Y-15306484D01*
X4734348Y-15106484D02*
X4753396Y-15106484D01*
X4753396Y-15106484D02*
X4772444Y-15116008D01*
X4772444Y-15116008D02*
X4781968Y-15125531D01*
X4781968Y-15125531D02*
X4791491Y-15144579D01*
X4791491Y-15144579D02*
X4801015Y-15182674D01*
X4801015Y-15182674D02*
X4801015Y-15230293D01*
X4801015Y-15230293D02*
X4791491Y-15268388D01*
X4791491Y-15268388D02*
X4781968Y-15287436D01*
X4781968Y-15287436D02*
X4772444Y-15296960D01*
X4772444Y-15296960D02*
X4753396Y-15306484D01*
X4753396Y-15306484D02*
X4734348Y-15306484D01*
X4734348Y-15306484D02*
X4715301Y-15296960D01*
X4715301Y-15296960D02*
X4705777Y-15287436D01*
X4705777Y-15287436D02*
X4696253Y-15268388D01*
X4696253Y-15268388D02*
X4686729Y-15230293D01*
X4686729Y-15230293D02*
X4686729Y-15182674D01*
X4686729Y-15182674D02*
X4696253Y-15144579D01*
X4696253Y-15144579D02*
X4705777Y-15125531D01*
X4705777Y-15125531D02*
X4715301Y-15116008D01*
X4715301Y-15116008D02*
X4734348Y-15106484D01*
X4896253Y-15306484D02*
X4934348Y-15306484D01*
X4934348Y-15306484D02*
X4953396Y-15296960D01*
X4953396Y-15296960D02*
X4962920Y-15287436D01*
X4962920Y-15287436D02*
X4981968Y-15258865D01*
X4981968Y-15258865D02*
X4991491Y-15220769D01*
X4991491Y-15220769D02*
X4991491Y-15144579D01*
X4991491Y-15144579D02*
X4981968Y-15125531D01*
X4981968Y-15125531D02*
X4972444Y-15116008D01*
X4972444Y-15116008D02*
X4953396Y-15106484D01*
X4953396Y-15106484D02*
X4915301Y-15106484D01*
X4915301Y-15106484D02*
X4896253Y-15116008D01*
X4896253Y-15116008D02*
X4886729Y-15125531D01*
X4886729Y-15125531D02*
X4877206Y-15144579D01*
X4877206Y-15144579D02*
X4877206Y-15192198D01*
X4877206Y-15192198D02*
X4886729Y-15211246D01*
X4886729Y-15211246D02*
X4896253Y-15220769D01*
X4896253Y-15220769D02*
X4915301Y-15230293D01*
X4915301Y-15230293D02*
X4953396Y-15230293D01*
X4953396Y-15230293D02*
X4972444Y-15220769D01*
X4972444Y-15220769D02*
X4981968Y-15211246D01*
X4981968Y-15211246D02*
X4991491Y-15192198D01*
X5105777Y-15192198D02*
X5086729Y-15182674D01*
X5086729Y-15182674D02*
X5077206Y-15173150D01*
X5077206Y-15173150D02*
X5067682Y-15154103D01*
X5067682Y-15154103D02*
X5067682Y-15144579D01*
X5067682Y-15144579D02*
X5077206Y-15125531D01*
X5077206Y-15125531D02*
X5086729Y-15116008D01*
X5086729Y-15116008D02*
X5105777Y-15106484D01*
X5105777Y-15106484D02*
X5143872Y-15106484D01*
X5143872Y-15106484D02*
X5162920Y-15116008D01*
X5162920Y-15116008D02*
X5172444Y-15125531D01*
X5172444Y-15125531D02*
X5181968Y-15144579D01*
X5181968Y-15144579D02*
X5181968Y-15154103D01*
X5181968Y-15154103D02*
X5172444Y-15173150D01*
X5172444Y-15173150D02*
X5162920Y-15182674D01*
X5162920Y-15182674D02*
X5143872Y-15192198D01*
X5143872Y-15192198D02*
X5105777Y-15192198D01*
X5105777Y-15192198D02*
X5086729Y-15201722D01*
X5086729Y-15201722D02*
X5077206Y-15211246D01*
X5077206Y-15211246D02*
X5067682Y-15230293D01*
X5067682Y-15230293D02*
X5067682Y-15268388D01*
X5067682Y-15268388D02*
X5077206Y-15287436D01*
X5077206Y-15287436D02*
X5086729Y-15296960D01*
X5086729Y-15296960D02*
X5105777Y-15306484D01*
X5105777Y-15306484D02*
X5143872Y-15306484D01*
X5143872Y-15306484D02*
X5162920Y-15296960D01*
X5162920Y-15296960D02*
X5172444Y-15287436D01*
X5172444Y-15287436D02*
X5181968Y-15268388D01*
X5181968Y-15268388D02*
X5181968Y-15230293D01*
X5181968Y-15230293D02*
X5172444Y-15211246D01*
X5172444Y-15211246D02*
X5162920Y-15201722D01*
X5162920Y-15201722D02*
X5143872Y-15192198D01*
X5353396Y-15173150D02*
X5353396Y-15306484D01*
X5305777Y-15096960D02*
X5258158Y-15239817D01*
X5258158Y-15239817D02*
X5381968Y-15239817D01*
X5448634Y-15106484D02*
X5448634Y-15144579D01*
X5524825Y-15106484D02*
X5524825Y-15144579D01*
X5820063Y-15382674D02*
X5810539Y-15373150D01*
X5810539Y-15373150D02*
X5791491Y-15344579D01*
X5791491Y-15344579D02*
X5781968Y-15325531D01*
X5781968Y-15325531D02*
X5772444Y-15296960D01*
X5772444Y-15296960D02*
X5762920Y-15249341D01*
X5762920Y-15249341D02*
X5762920Y-15211246D01*
X5762920Y-15211246D02*
X5772444Y-15163627D01*
X5772444Y-15163627D02*
X5781968Y-15135055D01*
X5781968Y-15135055D02*
X5791491Y-15116008D01*
X5791491Y-15116008D02*
X5810539Y-15087436D01*
X5810539Y-15087436D02*
X5820063Y-15077912D01*
X5981968Y-15173150D02*
X5981968Y-15306484D01*
X5934348Y-15096960D02*
X5886729Y-15239817D01*
X5886729Y-15239817D02*
X6010539Y-15239817D01*
X6239110Y-15306484D02*
X6239110Y-15106484D01*
X6324825Y-15306484D02*
X6324825Y-15201722D01*
X6324825Y-15201722D02*
X6315301Y-15182674D01*
X6315301Y-15182674D02*
X6296253Y-15173150D01*
X6296253Y-15173150D02*
X6267682Y-15173150D01*
X6267682Y-15173150D02*
X6248634Y-15182674D01*
X6248634Y-15182674D02*
X6239110Y-15192198D01*
X6448634Y-15306484D02*
X6429587Y-15296960D01*
X6429587Y-15296960D02*
X6420063Y-15287436D01*
X6420063Y-15287436D02*
X6410539Y-15268388D01*
X6410539Y-15268388D02*
X6410539Y-15211246D01*
X6410539Y-15211246D02*
X6420063Y-15192198D01*
X6420063Y-15192198D02*
X6429587Y-15182674D01*
X6429587Y-15182674D02*
X6448634Y-15173150D01*
X6448634Y-15173150D02*
X6477206Y-15173150D01*
X6477206Y-15173150D02*
X6496253Y-15182674D01*
X6496253Y-15182674D02*
X6505777Y-15192198D01*
X6505777Y-15192198D02*
X6515301Y-15211246D01*
X6515301Y-15211246D02*
X6515301Y-15268388D01*
X6515301Y-15268388D02*
X6505777Y-15287436D01*
X6505777Y-15287436D02*
X6496253Y-15296960D01*
X6496253Y-15296960D02*
X6477206Y-15306484D01*
X6477206Y-15306484D02*
X6448634Y-15306484D01*
X6629587Y-15306484D02*
X6610539Y-15296960D01*
X6610539Y-15296960D02*
X6601015Y-15277912D01*
X6601015Y-15277912D02*
X6601015Y-15106484D01*
X6781968Y-15296960D02*
X6762920Y-15306484D01*
X6762920Y-15306484D02*
X6724825Y-15306484D01*
X6724825Y-15306484D02*
X6705777Y-15296960D01*
X6705777Y-15296960D02*
X6696253Y-15277912D01*
X6696253Y-15277912D02*
X6696253Y-15201722D01*
X6696253Y-15201722D02*
X6705777Y-15182674D01*
X6705777Y-15182674D02*
X6724825Y-15173150D01*
X6724825Y-15173150D02*
X6762920Y-15173150D01*
X6762920Y-15173150D02*
X6781968Y-15182674D01*
X6781968Y-15182674D02*
X6791491Y-15201722D01*
X6791491Y-15201722D02*
X6791491Y-15220769D01*
X6791491Y-15220769D02*
X6696253Y-15239817D01*
X6867682Y-15296960D02*
X6886730Y-15306484D01*
X6886730Y-15306484D02*
X6924825Y-15306484D01*
X6924825Y-15306484D02*
X6943872Y-15296960D01*
X6943872Y-15296960D02*
X6953396Y-15277912D01*
X6953396Y-15277912D02*
X6953396Y-15268388D01*
X6953396Y-15268388D02*
X6943872Y-15249341D01*
X6943872Y-15249341D02*
X6924825Y-15239817D01*
X6924825Y-15239817D02*
X6896253Y-15239817D01*
X6896253Y-15239817D02*
X6877206Y-15230293D01*
X6877206Y-15230293D02*
X6867682Y-15211246D01*
X6867682Y-15211246D02*
X6867682Y-15201722D01*
X6867682Y-15201722D02*
X6877206Y-15182674D01*
X6877206Y-15182674D02*
X6896253Y-15173150D01*
X6896253Y-15173150D02*
X6924825Y-15173150D01*
X6924825Y-15173150D02*
X6943872Y-15182674D01*
X7020063Y-15382674D02*
X7029587Y-15373150D01*
X7029587Y-15373150D02*
X7048634Y-15344579D01*
X7048634Y-15344579D02*
X7058158Y-15325531D01*
X7058158Y-15325531D02*
X7067682Y-15296960D01*
X7067682Y-15296960D02*
X7077206Y-15249341D01*
X7077206Y-15249341D02*
X7077206Y-15211246D01*
X7077206Y-15211246D02*
X7067682Y-15163627D01*
X7067682Y-15163627D02*
X7058158Y-15135055D01*
X7058158Y-15135055D02*
X7048634Y-15116008D01*
X7048634Y-15116008D02*
X7029587Y-15087436D01*
X7029587Y-15087436D02*
X7020063Y-15077912D01*
X7381968Y-15382674D02*
X7372444Y-15373150D01*
X7372444Y-15373150D02*
X7353396Y-15344579D01*
X7353396Y-15344579D02*
X7343872Y-15325531D01*
X7343872Y-15325531D02*
X7334349Y-15296960D01*
X7334349Y-15296960D02*
X7324825Y-15249341D01*
X7324825Y-15249341D02*
X7324825Y-15211246D01*
X7324825Y-15211246D02*
X7334349Y-15163627D01*
X7334349Y-15163627D02*
X7343872Y-15135055D01*
X7343872Y-15135055D02*
X7353396Y-15116008D01*
X7353396Y-15116008D02*
X7372444Y-15087436D01*
X7372444Y-15087436D02*
X7381968Y-15077912D01*
X7458158Y-15173150D02*
X7458158Y-15306484D01*
X7458158Y-15192198D02*
X7467682Y-15182674D01*
X7467682Y-15182674D02*
X7486730Y-15173150D01*
X7486730Y-15173150D02*
X7515301Y-15173150D01*
X7515301Y-15173150D02*
X7534349Y-15182674D01*
X7534349Y-15182674D02*
X7543872Y-15201722D01*
X7543872Y-15201722D02*
X7543872Y-15306484D01*
X7667682Y-15306484D02*
X7648634Y-15296960D01*
X7648634Y-15296960D02*
X7639111Y-15287436D01*
X7639111Y-15287436D02*
X7629587Y-15268388D01*
X7629587Y-15268388D02*
X7629587Y-15211246D01*
X7629587Y-15211246D02*
X7639111Y-15192198D01*
X7639111Y-15192198D02*
X7648634Y-15182674D01*
X7648634Y-15182674D02*
X7667682Y-15173150D01*
X7667682Y-15173150D02*
X7696253Y-15173150D01*
X7696253Y-15173150D02*
X7715301Y-15182674D01*
X7715301Y-15182674D02*
X7724825Y-15192198D01*
X7724825Y-15192198D02*
X7734349Y-15211246D01*
X7734349Y-15211246D02*
X7734349Y-15268388D01*
X7734349Y-15268388D02*
X7724825Y-15287436D01*
X7724825Y-15287436D02*
X7715301Y-15296960D01*
X7715301Y-15296960D02*
X7696253Y-15306484D01*
X7696253Y-15306484D02*
X7667682Y-15306484D01*
X7791492Y-15173150D02*
X7867682Y-15173150D01*
X7820063Y-15106484D02*
X7820063Y-15277912D01*
X7820063Y-15277912D02*
X7829587Y-15296960D01*
X7829587Y-15296960D02*
X7848634Y-15306484D01*
X7848634Y-15306484D02*
X7867682Y-15306484D01*
X8086730Y-15173150D02*
X8086730Y-15373150D01*
X8086730Y-15182674D02*
X8105777Y-15173150D01*
X8105777Y-15173150D02*
X8143873Y-15173150D01*
X8143873Y-15173150D02*
X8162920Y-15182674D01*
X8162920Y-15182674D02*
X8172444Y-15192198D01*
X8172444Y-15192198D02*
X8181968Y-15211246D01*
X8181968Y-15211246D02*
X8181968Y-15268388D01*
X8181968Y-15268388D02*
X8172444Y-15287436D01*
X8172444Y-15287436D02*
X8162920Y-15296960D01*
X8162920Y-15296960D02*
X8143873Y-15306484D01*
X8143873Y-15306484D02*
X8105777Y-15306484D01*
X8105777Y-15306484D02*
X8086730Y-15296960D01*
X8296253Y-15306484D02*
X8277206Y-15296960D01*
X8277206Y-15296960D02*
X8267682Y-15277912D01*
X8267682Y-15277912D02*
X8267682Y-15106484D01*
X8458158Y-15306484D02*
X8458158Y-15201722D01*
X8458158Y-15201722D02*
X8448635Y-15182674D01*
X8448635Y-15182674D02*
X8429587Y-15173150D01*
X8429587Y-15173150D02*
X8391492Y-15173150D01*
X8391492Y-15173150D02*
X8372444Y-15182674D01*
X8458158Y-15296960D02*
X8439111Y-15306484D01*
X8439111Y-15306484D02*
X8391492Y-15306484D01*
X8391492Y-15306484D02*
X8372444Y-15296960D01*
X8372444Y-15296960D02*
X8362920Y-15277912D01*
X8362920Y-15277912D02*
X8362920Y-15258865D01*
X8362920Y-15258865D02*
X8372444Y-15239817D01*
X8372444Y-15239817D02*
X8391492Y-15230293D01*
X8391492Y-15230293D02*
X8439111Y-15230293D01*
X8439111Y-15230293D02*
X8458158Y-15220769D01*
X8524825Y-15173150D02*
X8601015Y-15173150D01*
X8553396Y-15106484D02*
X8553396Y-15277912D01*
X8553396Y-15277912D02*
X8562920Y-15296960D01*
X8562920Y-15296960D02*
X8581968Y-15306484D01*
X8581968Y-15306484D02*
X8601015Y-15306484D01*
X8743873Y-15296960D02*
X8724825Y-15306484D01*
X8724825Y-15306484D02*
X8686730Y-15306484D01*
X8686730Y-15306484D02*
X8667682Y-15296960D01*
X8667682Y-15296960D02*
X8658158Y-15277912D01*
X8658158Y-15277912D02*
X8658158Y-15201722D01*
X8658158Y-15201722D02*
X8667682Y-15182674D01*
X8667682Y-15182674D02*
X8686730Y-15173150D01*
X8686730Y-15173150D02*
X8724825Y-15173150D01*
X8724825Y-15173150D02*
X8743873Y-15182674D01*
X8743873Y-15182674D02*
X8753396Y-15201722D01*
X8753396Y-15201722D02*
X8753396Y-15220769D01*
X8753396Y-15220769D02*
X8658158Y-15239817D01*
X8924825Y-15306484D02*
X8924825Y-15106484D01*
X8924825Y-15296960D02*
X8905777Y-15306484D01*
X8905777Y-15306484D02*
X8867682Y-15306484D01*
X8867682Y-15306484D02*
X8848635Y-15296960D01*
X8848635Y-15296960D02*
X8839111Y-15287436D01*
X8839111Y-15287436D02*
X8829587Y-15268388D01*
X8829587Y-15268388D02*
X8829587Y-15211246D01*
X8829587Y-15211246D02*
X8839111Y-15192198D01*
X8839111Y-15192198D02*
X8848635Y-15182674D01*
X8848635Y-15182674D02*
X8867682Y-15173150D01*
X8867682Y-15173150D02*
X8905777Y-15173150D01*
X8905777Y-15173150D02*
X8924825Y-15182674D01*
X9001016Y-15382674D02*
X9010539Y-15373150D01*
X9010539Y-15373150D02*
X9029587Y-15344579D01*
X9029587Y-15344579D02*
X9039111Y-15325531D01*
X9039111Y-15325531D02*
X9048635Y-15296960D01*
X9048635Y-15296960D02*
X9058158Y-15249341D01*
X9058158Y-15249341D02*
X9058158Y-15211246D01*
X9058158Y-15211246D02*
X9048635Y-15163627D01*
X9048635Y-15163627D02*
X9039111Y-15135055D01*
X9039111Y-15135055D02*
X9029587Y-15116008D01*
X9029587Y-15116008D02*
X9010539Y-15087436D01*
X9010539Y-15087436D02*
X9001016Y-15077912D01*
M02*
