%TF.GenerationSoftware,KiCad,Pcbnew,7.0.8*%
%TF.CreationDate,2024-04-24T16:06:29-06:00*%
%TF.ProjectId,Motherboard23-24,4d6f7468-6572-4626-9f61-726432332d32,rev?*%
%TF.SameCoordinates,Original*%
%TF.FileFunction,Drillmap*%
%TF.FilePolarity,Positive*%
%FSLAX45Y45*%
G04 Gerber Fmt 4.5, Leading zero omitted, Abs format (unit mm)*
G04 Created by KiCad (PCBNEW 7.0.8) date 2024-04-24 16:06:29*
%MOMM*%
%LPD*%
G01*
G04 APERTURE LIST*
%ADD10C,0.100000*%
%ADD11C,0.200000*%
%ADD12C,0.077000*%
%ADD13C,0.080000*%
%ADD14C,0.090000*%
%ADD15C,0.101600*%
%ADD16C,0.120000*%
%ADD17C,0.130000*%
%ADD18C,0.160000*%
%ADD19C,0.230000*%
G04 APERTURE END LIST*
D10*
X2250000Y-13750000D02*
X2250000Y-2250000D01*
X25250000Y-2250000D02*
G75*
G03*
X24750000Y-1750000I-500000J0D01*
G01*
X24750000Y-14250000D02*
G75*
G03*
X25250000Y-13750000I0J500000D01*
G01*
X25250000Y-2250000D02*
X25250000Y-13750000D01*
X2750000Y-1750000D02*
X24750000Y-1750000D01*
X2250000Y-13750000D02*
G75*
G03*
X2750000Y-14250000I500000J0D01*
G01*
X24750000Y-14250000D02*
X2750000Y-14250000D01*
X2750000Y-1750000D02*
G75*
G03*
X2250000Y-2250000I0J-500000D01*
G01*
D11*
D12*
X4325500Y-5491500D02*
X4402500Y-5568500D01*
X4402500Y-5491500D02*
X4325500Y-5568500D01*
X4325500Y-5745500D02*
X4402500Y-5822500D01*
X4402500Y-5745500D02*
X4325500Y-5822500D01*
X4325500Y-5999500D02*
X4402500Y-6076500D01*
X4402500Y-5999500D02*
X4325500Y-6076500D01*
X4325500Y-6253500D02*
X4402500Y-6330500D01*
X4402500Y-6253500D02*
X4325500Y-6330500D01*
X4325500Y-6507500D02*
X4402500Y-6584500D01*
X4402500Y-6507500D02*
X4325500Y-6584500D01*
X4325500Y-6761500D02*
X4402500Y-6838500D01*
X4402500Y-6761500D02*
X4325500Y-6838500D01*
X4325500Y-7015500D02*
X4402500Y-7092500D01*
X4402500Y-7015500D02*
X4325500Y-7092500D01*
X5119500Y-5491500D02*
X5196500Y-5568500D01*
X5196500Y-5491500D02*
X5119500Y-5568500D01*
X5119500Y-5745500D02*
X5196500Y-5822500D01*
X5196500Y-5745500D02*
X5119500Y-5822500D01*
X5119500Y-5999500D02*
X5196500Y-6076500D01*
X5196500Y-5999500D02*
X5119500Y-6076500D01*
X5119500Y-6253500D02*
X5196500Y-6330500D01*
X5196500Y-6253500D02*
X5119500Y-6330500D01*
X5119500Y-6507500D02*
X5196500Y-6584500D01*
X5196500Y-6507500D02*
X5119500Y-6584500D01*
X5119500Y-6761500D02*
X5196500Y-6838500D01*
X5196500Y-6761500D02*
X5119500Y-6838500D01*
X5119500Y-7015500D02*
X5196500Y-7092500D01*
X5196500Y-7015500D02*
X5119500Y-7092500D01*
X6622500Y-5499500D02*
X6699500Y-5576500D01*
X6699500Y-5499500D02*
X6622500Y-5576500D01*
X6622500Y-5753500D02*
X6699500Y-5830500D01*
X6699500Y-5753500D02*
X6622500Y-5830500D01*
X6622500Y-6007500D02*
X6699500Y-6084500D01*
X6699500Y-6007500D02*
X6622500Y-6084500D01*
X6622500Y-6261500D02*
X6699500Y-6338500D01*
X6699500Y-6261500D02*
X6622500Y-6338500D01*
X6622500Y-6515500D02*
X6699500Y-6592500D01*
X6699500Y-6515500D02*
X6622500Y-6592500D01*
X6622500Y-6769500D02*
X6699500Y-6846500D01*
X6699500Y-6769500D02*
X6622500Y-6846500D01*
X6622500Y-7023500D02*
X6699500Y-7100500D01*
X6699500Y-7023500D02*
X6622500Y-7100500D01*
X7416500Y-5499500D02*
X7493500Y-5576500D01*
X7493500Y-5499500D02*
X7416500Y-5576500D01*
X7416500Y-5753500D02*
X7493500Y-5830500D01*
X7493500Y-5753500D02*
X7416500Y-5830500D01*
X7416500Y-6007500D02*
X7493500Y-6084500D01*
X7493500Y-6007500D02*
X7416500Y-6084500D01*
X7416500Y-6261500D02*
X7493500Y-6338500D01*
X7493500Y-6261500D02*
X7416500Y-6338500D01*
X7416500Y-6515500D02*
X7493500Y-6592500D01*
X7493500Y-6515500D02*
X7416500Y-6592500D01*
X7416500Y-6769500D02*
X7493500Y-6846500D01*
X7493500Y-6769500D02*
X7416500Y-6846500D01*
X7416500Y-7023500D02*
X7493500Y-7100500D01*
X7493500Y-7023500D02*
X7416500Y-7100500D01*
D13*
X3168000Y-5717000D02*
G75*
G03*
X3168000Y-5717000I-40000J0D01*
G01*
X3168000Y-6342000D02*
G75*
G03*
X3168000Y-6342000I-40000J0D01*
G01*
X3170000Y-6942000D02*
G75*
G03*
X3170000Y-6942000I-40000J0D01*
G01*
X3173000Y-6030000D02*
G75*
G03*
X3173000Y-6030000I-40000J0D01*
G01*
X3173000Y-6642000D02*
G75*
G03*
X3173000Y-6642000I-40000J0D01*
G01*
X3276000Y-4013489D02*
G75*
G03*
X3276000Y-4013489I-40000J0D01*
G01*
X3276000Y-5029489D02*
G75*
G03*
X3276000Y-5029489I-40000J0D01*
G01*
X3726000Y-4017000D02*
G75*
G03*
X3726000Y-4017000I-40000J0D01*
G01*
X3726000Y-4267000D02*
G75*
G03*
X3726000Y-4267000I-40000J0D01*
G01*
X4184000Y-5717000D02*
G75*
G03*
X4184000Y-5717000I-40000J0D01*
G01*
X4184000Y-6342000D02*
G75*
G03*
X4184000Y-6342000I-40000J0D01*
G01*
X4186000Y-6942000D02*
G75*
G03*
X4186000Y-6942000I-40000J0D01*
G01*
X4189000Y-6030000D02*
G75*
G03*
X4189000Y-6030000I-40000J0D01*
G01*
X4189000Y-6642000D02*
G75*
G03*
X4189000Y-6642000I-40000J0D01*
G01*
X4226000Y-4013489D02*
G75*
G03*
X4226000Y-4013489I-40000J0D01*
G01*
X4226000Y-5029489D02*
G75*
G03*
X4226000Y-5029489I-40000J0D01*
G01*
X4526000Y-4016000D02*
G75*
G03*
X4526000Y-4016000I-40000J0D01*
G01*
X4526000Y-5032000D02*
G75*
G03*
X4526000Y-5032000I-40000J0D01*
G01*
X4826000Y-4009000D02*
G75*
G03*
X4826000Y-4009000I-40000J0D01*
G01*
X4826000Y-5025000D02*
G75*
G03*
X4826000Y-5025000I-40000J0D01*
G01*
X5351000Y-4021489D02*
G75*
G03*
X5351000Y-4021489I-40000J0D01*
G01*
X5351000Y-4271489D02*
G75*
G03*
X5351000Y-4271489I-40000J0D01*
G01*
X5476000Y-6417000D02*
G75*
G03*
X5476000Y-6417000I-40000J0D01*
G01*
X5482000Y-5800000D02*
G75*
G03*
X5482000Y-5800000I-40000J0D01*
G01*
X5482000Y-6100000D02*
G75*
G03*
X5482000Y-6100000I-40000J0D01*
G01*
X5490000Y-5500000D02*
G75*
G03*
X5490000Y-5500000I-40000J0D01*
G01*
X5876000Y-4017000D02*
G75*
G03*
X5876000Y-4017000I-40000J0D01*
G01*
X5876000Y-5033000D02*
G75*
G03*
X5876000Y-5033000I-40000J0D01*
G01*
X6176000Y-4016000D02*
G75*
G03*
X6176000Y-4016000I-40000J0D01*
G01*
X6176000Y-5032000D02*
G75*
G03*
X6176000Y-5032000I-40000J0D01*
G01*
X6476000Y-4017000D02*
G75*
G03*
X6476000Y-4017000I-40000J0D01*
G01*
X6476000Y-5033000D02*
G75*
G03*
X6476000Y-5033000I-40000J0D01*
G01*
X6492000Y-6417000D02*
G75*
G03*
X6492000Y-6417000I-40000J0D01*
G01*
X6498000Y-5800000D02*
G75*
G03*
X6498000Y-5800000I-40000J0D01*
G01*
X6498000Y-6100000D02*
G75*
G03*
X6498000Y-6100000I-40000J0D01*
G01*
X6506000Y-5500000D02*
G75*
G03*
X6506000Y-5500000I-40000J0D01*
G01*
X6951000Y-4021489D02*
G75*
G03*
X6951000Y-4021489I-40000J0D01*
G01*
X6951000Y-4271489D02*
G75*
G03*
X6951000Y-4271489I-40000J0D01*
G01*
X7426000Y-4009000D02*
G75*
G03*
X7426000Y-4009000I-40000J0D01*
G01*
X7426000Y-5025000D02*
G75*
G03*
X7426000Y-5025000I-40000J0D01*
G01*
X7715000Y-5625000D02*
G75*
G03*
X7715000Y-5625000I-40000J0D01*
G01*
X7715000Y-5925000D02*
G75*
G03*
X7715000Y-5925000I-40000J0D01*
G01*
X7723000Y-6225000D02*
G75*
G03*
X7723000Y-6225000I-40000J0D01*
G01*
X7723000Y-6525000D02*
G75*
G03*
X7723000Y-6525000I-40000J0D01*
G01*
X7723000Y-6825000D02*
G75*
G03*
X7723000Y-6825000I-40000J0D01*
G01*
X7723000Y-7125000D02*
G75*
G03*
X7723000Y-7125000I-40000J0D01*
G01*
X7726000Y-4008000D02*
G75*
G03*
X7726000Y-4008000I-40000J0D01*
G01*
X7726000Y-5024000D02*
G75*
G03*
X7726000Y-5024000I-40000J0D01*
G01*
X8731000Y-5625000D02*
G75*
G03*
X8731000Y-5625000I-40000J0D01*
G01*
X8731000Y-5925000D02*
G75*
G03*
X8731000Y-5925000I-40000J0D01*
G01*
X8739000Y-6225000D02*
G75*
G03*
X8739000Y-6225000I-40000J0D01*
G01*
X8739000Y-6525000D02*
G75*
G03*
X8739000Y-6525000I-40000J0D01*
G01*
X8739000Y-6825000D02*
G75*
G03*
X8739000Y-6825000I-40000J0D01*
G01*
X8739000Y-7125000D02*
G75*
G03*
X8739000Y-7125000I-40000J0D01*
G01*
X9090000Y-3892000D02*
G75*
G03*
X9090000Y-3892000I-40000J0D01*
G01*
X9090000Y-4908000D02*
G75*
G03*
X9090000Y-4908000I-40000J0D01*
G01*
X15765000Y-12492000D02*
G75*
G03*
X15765000Y-12492000I-40000J0D01*
G01*
X15765000Y-13508000D02*
G75*
G03*
X15765000Y-13508000I-40000J0D01*
G01*
X17540000Y-12567000D02*
G75*
G03*
X17540000Y-12567000I-40000J0D01*
G01*
X17540000Y-13583000D02*
G75*
G03*
X17540000Y-13583000I-40000J0D01*
G01*
X19265000Y-12459000D02*
G75*
G03*
X19265000Y-12459000I-40000J0D01*
G01*
X19265000Y-13475000D02*
G75*
G03*
X19265000Y-13475000I-40000J0D01*
G01*
X20632000Y-3950000D02*
G75*
G03*
X20632000Y-3950000I-40000J0D01*
G01*
X20632000Y-4250000D02*
G75*
G03*
X20632000Y-4250000I-40000J0D01*
G01*
X20632000Y-4525000D02*
G75*
G03*
X20632000Y-4525000I-40000J0D01*
G01*
X21115000Y-12417000D02*
G75*
G03*
X21115000Y-12417000I-40000J0D01*
G01*
X21115000Y-13433000D02*
G75*
G03*
X21115000Y-13433000I-40000J0D01*
G01*
X21648000Y-3950000D02*
G75*
G03*
X21648000Y-3950000I-40000J0D01*
G01*
X21648000Y-4250000D02*
G75*
G03*
X21648000Y-4250000I-40000J0D01*
G01*
X21648000Y-4525000D02*
G75*
G03*
X21648000Y-4525000I-40000J0D01*
G01*
X24315000Y-11313250D02*
G75*
G03*
X24315000Y-11313250I-40000J0D01*
G01*
X24315000Y-12329250D02*
G75*
G03*
X24315000Y-12329250I-40000J0D01*
G01*
D14*
X15900000Y-11880000D02*
X15900000Y-11970000D01*
X15855000Y-11925000D02*
X15945000Y-11925000D01*
X15900000Y-12134000D02*
X15900000Y-12224000D01*
X15855000Y-12179000D02*
X15945000Y-12179000D01*
X17675000Y-11876000D02*
X17675000Y-11966000D01*
X17630000Y-11921000D02*
X17720000Y-11921000D01*
X17675000Y-12130000D02*
X17675000Y-12220000D01*
X17630000Y-12175000D02*
X17720000Y-12175000D01*
X19375000Y-11852500D02*
X19375000Y-11942500D01*
X19330000Y-11897500D02*
X19420000Y-11897500D01*
X19375000Y-12106500D02*
X19375000Y-12196500D01*
X19330000Y-12151500D02*
X19420000Y-12151500D01*
X21250000Y-11802500D02*
X21250000Y-11892500D01*
X21205000Y-11847500D02*
X21295000Y-11847500D01*
X21250000Y-12056500D02*
X21250000Y-12146500D01*
X21205000Y-12101500D02*
X21295000Y-12101500D01*
X24425000Y-10701250D02*
X24425000Y-10791250D01*
X24380000Y-10746250D02*
X24470000Y-10746250D01*
X24425000Y-10955250D02*
X24425000Y-11045250D01*
X24380000Y-11000250D02*
X24470000Y-11000250D01*
D10*
X5671356Y-6877356D02*
X5671356Y-6806644D01*
X5600644Y-6806644D01*
X5600644Y-6877356D01*
X5671356Y-6877356D01*
X5925356Y-6877356D02*
X5925356Y-6806644D01*
X5854644Y-6806644D01*
X5854644Y-6877356D01*
X5925356Y-6877356D01*
X6179356Y-6877356D02*
X6179356Y-6806644D01*
X6108644Y-6806644D01*
X6108644Y-6877356D01*
X6179356Y-6877356D01*
X9960356Y-3610356D02*
X9960356Y-3539644D01*
X9889644Y-3539644D01*
X9889644Y-3610356D01*
X9960356Y-3610356D01*
X9960356Y-3864356D02*
X9960356Y-3793644D01*
X9889644Y-3793644D01*
X9889644Y-3864356D01*
X9960356Y-3864356D01*
X9960356Y-4118356D02*
X9960356Y-4047644D01*
X9889644Y-4047644D01*
X9889644Y-4118356D01*
X9960356Y-4118356D01*
D15*
X13869000Y-4304800D02*
X13919800Y-4254000D01*
X13869000Y-4203200D01*
X13818200Y-4254000D01*
X13869000Y-4304800D01*
X13869000Y-4558800D02*
X13919800Y-4508000D01*
X13869000Y-4457200D01*
X13818200Y-4508000D01*
X13869000Y-4558800D01*
X13869000Y-4812800D02*
X13919800Y-4762000D01*
X13869000Y-4711200D01*
X13818200Y-4762000D01*
X13869000Y-4812800D01*
X13869000Y-5066800D02*
X13919800Y-5016000D01*
X13869000Y-4965200D01*
X13818200Y-5016000D01*
X13869000Y-5066800D01*
X13869000Y-5320800D02*
X13919800Y-5270000D01*
X13869000Y-5219200D01*
X13818200Y-5270000D01*
X13869000Y-5320800D01*
X13869000Y-5574800D02*
X13919800Y-5524000D01*
X13869000Y-5473200D01*
X13818200Y-5524000D01*
X13869000Y-5574800D01*
X13869000Y-5828800D02*
X13919800Y-5778000D01*
X13869000Y-5727200D01*
X13818200Y-5778000D01*
X13869000Y-5828800D01*
X13869000Y-6082800D02*
X13919800Y-6032000D01*
X13869000Y-5981200D01*
X13818200Y-6032000D01*
X13869000Y-6082800D01*
X13869000Y-6336800D02*
X13919800Y-6286000D01*
X13869000Y-6235200D01*
X13818200Y-6286000D01*
X13869000Y-6336800D01*
X13869000Y-6590800D02*
X13919800Y-6540000D01*
X13869000Y-6489200D01*
X13818200Y-6540000D01*
X13869000Y-6590800D01*
X13869000Y-6844800D02*
X13919800Y-6794000D01*
X13869000Y-6743200D01*
X13818200Y-6794000D01*
X13869000Y-6844800D01*
X13869000Y-7098800D02*
X13919800Y-7048000D01*
X13869000Y-6997200D01*
X13818200Y-7048000D01*
X13869000Y-7098800D01*
X13996000Y-4050800D02*
X14046800Y-4000000D01*
X13996000Y-3949200D01*
X13945200Y-4000000D01*
X13996000Y-4050800D01*
X14250000Y-4050800D02*
X14300800Y-4000000D01*
X14250000Y-3949200D01*
X14199200Y-4000000D01*
X14250000Y-4050800D01*
X14504000Y-4050800D02*
X14554800Y-4000000D01*
X14504000Y-3949200D01*
X14453200Y-4000000D01*
X14504000Y-4050800D01*
X14758000Y-4050800D02*
X14808800Y-4000000D01*
X14758000Y-3949200D01*
X14707200Y-4000000D01*
X14758000Y-4050800D01*
X15012000Y-4050800D02*
X15062800Y-4000000D01*
X15012000Y-3949200D01*
X14961200Y-4000000D01*
X15012000Y-4050800D01*
X15100900Y-5181100D02*
X15151700Y-5130300D01*
X15100900Y-5079500D01*
X15050100Y-5130300D01*
X15100900Y-5181100D01*
X15100900Y-5435100D02*
X15151700Y-5384300D01*
X15100900Y-5333500D01*
X15050100Y-5384300D01*
X15100900Y-5435100D01*
X15100900Y-6222500D02*
X15151700Y-6171700D01*
X15100900Y-6120900D01*
X15050100Y-6171700D01*
X15100900Y-6222500D01*
X15100900Y-6476500D02*
X15151700Y-6425700D01*
X15100900Y-6374900D01*
X15050100Y-6425700D01*
X15100900Y-6476500D01*
X15266000Y-4050800D02*
X15316800Y-4000000D01*
X15266000Y-3949200D01*
X15215200Y-4000000D01*
X15266000Y-4050800D01*
X15393000Y-4304800D02*
X15443800Y-4254000D01*
X15393000Y-4203200D01*
X15342200Y-4254000D01*
X15393000Y-4304800D01*
X15393000Y-4558800D02*
X15443800Y-4508000D01*
X15393000Y-4457200D01*
X15342200Y-4508000D01*
X15393000Y-4558800D01*
X15393000Y-4812800D02*
X15443800Y-4762000D01*
X15393000Y-4711200D01*
X15342200Y-4762000D01*
X15393000Y-4812800D01*
X15393000Y-5066800D02*
X15443800Y-5016000D01*
X15393000Y-4965200D01*
X15342200Y-5016000D01*
X15393000Y-5066800D01*
X15393000Y-5320800D02*
X15443800Y-5270000D01*
X15393000Y-5219200D01*
X15342200Y-5270000D01*
X15393000Y-5320800D01*
X15393000Y-5574800D02*
X15443800Y-5524000D01*
X15393000Y-5473200D01*
X15342200Y-5524000D01*
X15393000Y-5574800D01*
X15393000Y-5828800D02*
X15443800Y-5778000D01*
X15393000Y-5727200D01*
X15342200Y-5778000D01*
X15393000Y-5828800D01*
X15393000Y-6082800D02*
X15443800Y-6032000D01*
X15393000Y-5981200D01*
X15342200Y-6032000D01*
X15393000Y-6082800D01*
X15393000Y-6336800D02*
X15443800Y-6286000D01*
X15393000Y-6235200D01*
X15342200Y-6286000D01*
X15393000Y-6336800D01*
X15393000Y-6590800D02*
X15443800Y-6540000D01*
X15393000Y-6489200D01*
X15342200Y-6540000D01*
X15393000Y-6590800D01*
X15393000Y-6844800D02*
X15443800Y-6794000D01*
X15393000Y-6743200D01*
X15342200Y-6794000D01*
X15393000Y-6844800D01*
X15393000Y-7098800D02*
X15443800Y-7048000D01*
X15393000Y-6997200D01*
X15342200Y-7048000D01*
X15393000Y-7098800D01*
X18448000Y-4313800D02*
X18498800Y-4263000D01*
X18448000Y-4212200D01*
X18397200Y-4263000D01*
X18448000Y-4313800D01*
X18448000Y-4567800D02*
X18498800Y-4517000D01*
X18448000Y-4466200D01*
X18397200Y-4517000D01*
X18448000Y-4567800D01*
X18448000Y-4821800D02*
X18498800Y-4771000D01*
X18448000Y-4720200D01*
X18397200Y-4771000D01*
X18448000Y-4821800D01*
X18448000Y-5075800D02*
X18498800Y-5025000D01*
X18448000Y-4974200D01*
X18397200Y-5025000D01*
X18448000Y-5075800D01*
X18448000Y-5329800D02*
X18498800Y-5279000D01*
X18448000Y-5228200D01*
X18397200Y-5279000D01*
X18448000Y-5329800D01*
X18448000Y-5583800D02*
X18498800Y-5533000D01*
X18448000Y-5482200D01*
X18397200Y-5533000D01*
X18448000Y-5583800D01*
X18448000Y-5837800D02*
X18498800Y-5787000D01*
X18448000Y-5736200D01*
X18397200Y-5787000D01*
X18448000Y-5837800D01*
X18448000Y-6091800D02*
X18498800Y-6041000D01*
X18448000Y-5990200D01*
X18397200Y-6041000D01*
X18448000Y-6091800D01*
X18448000Y-6345800D02*
X18498800Y-6295000D01*
X18448000Y-6244200D01*
X18397200Y-6295000D01*
X18448000Y-6345800D01*
X18448000Y-6599800D02*
X18498800Y-6549000D01*
X18448000Y-6498200D01*
X18397200Y-6549000D01*
X18448000Y-6599800D01*
X18448000Y-6853800D02*
X18498800Y-6803000D01*
X18448000Y-6752200D01*
X18397200Y-6803000D01*
X18448000Y-6853800D01*
X18448000Y-7107800D02*
X18498800Y-7057000D01*
X18448000Y-7006200D01*
X18397200Y-7057000D01*
X18448000Y-7107800D01*
X18575000Y-4059800D02*
X18625800Y-4009000D01*
X18575000Y-3958200D01*
X18524200Y-4009000D01*
X18575000Y-4059800D01*
X18829000Y-4059800D02*
X18879800Y-4009000D01*
X18829000Y-3958200D01*
X18778200Y-4009000D01*
X18829000Y-4059800D01*
X19083000Y-4059800D02*
X19133800Y-4009000D01*
X19083000Y-3958200D01*
X19032200Y-4009000D01*
X19083000Y-4059800D01*
X19337000Y-4059800D02*
X19387800Y-4009000D01*
X19337000Y-3958200D01*
X19286200Y-4009000D01*
X19337000Y-4059800D01*
X19591000Y-4059800D02*
X19641800Y-4009000D01*
X19591000Y-3958200D01*
X19540200Y-4009000D01*
X19591000Y-4059800D01*
X19679900Y-5190100D02*
X19730700Y-5139300D01*
X19679900Y-5088500D01*
X19629100Y-5139300D01*
X19679900Y-5190100D01*
X19679900Y-5444100D02*
X19730700Y-5393300D01*
X19679900Y-5342500D01*
X19629100Y-5393300D01*
X19679900Y-5444100D01*
X19679900Y-6231500D02*
X19730700Y-6180700D01*
X19679900Y-6129900D01*
X19629100Y-6180700D01*
X19679900Y-6231500D01*
X19679900Y-6485500D02*
X19730700Y-6434700D01*
X19679900Y-6383900D01*
X19629100Y-6434700D01*
X19679900Y-6485500D01*
X19845000Y-4059800D02*
X19895800Y-4009000D01*
X19845000Y-3958200D01*
X19794200Y-4009000D01*
X19845000Y-4059800D01*
X19972000Y-4313800D02*
X20022800Y-4263000D01*
X19972000Y-4212200D01*
X19921200Y-4263000D01*
X19972000Y-4313800D01*
X19972000Y-4567800D02*
X20022800Y-4517000D01*
X19972000Y-4466200D01*
X19921200Y-4517000D01*
X19972000Y-4567800D01*
X19972000Y-4821800D02*
X20022800Y-4771000D01*
X19972000Y-4720200D01*
X19921200Y-4771000D01*
X19972000Y-4821800D01*
X19972000Y-5075800D02*
X20022800Y-5025000D01*
X19972000Y-4974200D01*
X19921200Y-5025000D01*
X19972000Y-5075800D01*
X19972000Y-5329800D02*
X20022800Y-5279000D01*
X19972000Y-5228200D01*
X19921200Y-5279000D01*
X19972000Y-5329800D01*
X19972000Y-5583800D02*
X20022800Y-5533000D01*
X19972000Y-5482200D01*
X19921200Y-5533000D01*
X19972000Y-5583800D01*
X19972000Y-5837800D02*
X20022800Y-5787000D01*
X19972000Y-5736200D01*
X19921200Y-5787000D01*
X19972000Y-5837800D01*
X19972000Y-6091800D02*
X20022800Y-6041000D01*
X19972000Y-5990200D01*
X19921200Y-6041000D01*
X19972000Y-6091800D01*
X19972000Y-6345800D02*
X20022800Y-6295000D01*
X19972000Y-6244200D01*
X19921200Y-6295000D01*
X19972000Y-6345800D01*
X19972000Y-6599800D02*
X20022800Y-6549000D01*
X19972000Y-6498200D01*
X19921200Y-6549000D01*
X19972000Y-6599800D01*
X19972000Y-6853800D02*
X20022800Y-6803000D01*
X19972000Y-6752200D01*
X19921200Y-6803000D01*
X19972000Y-6853800D01*
X19972000Y-7107800D02*
X20022800Y-7057000D01*
X19972000Y-7006200D01*
X19921200Y-7057000D01*
X19972000Y-7107800D01*
X22275000Y-4242800D02*
X22325800Y-4192000D01*
X22275000Y-4141200D01*
X22224200Y-4192000D01*
X22275000Y-4242800D01*
X22275000Y-4496800D02*
X22325800Y-4446000D01*
X22275000Y-4395200D01*
X22224200Y-4446000D01*
X22275000Y-4496800D01*
X22275000Y-4750800D02*
X22325800Y-4700000D01*
X22275000Y-4649200D01*
X22224200Y-4700000D01*
X22275000Y-4750800D01*
X22275000Y-5004800D02*
X22325800Y-4954000D01*
X22275000Y-4903200D01*
X22224200Y-4954000D01*
X22275000Y-5004800D01*
X22275000Y-5258800D02*
X22325800Y-5208000D01*
X22275000Y-5157200D01*
X22224200Y-5208000D01*
X22275000Y-5258800D01*
X22275000Y-5512800D02*
X22325800Y-5462000D01*
X22275000Y-5411200D01*
X22224200Y-5462000D01*
X22275000Y-5512800D01*
X22275000Y-5766800D02*
X22325800Y-5716000D01*
X22275000Y-5665200D01*
X22224200Y-5716000D01*
X22275000Y-5766800D01*
X22275000Y-6020800D02*
X22325800Y-5970000D01*
X22275000Y-5919200D01*
X22224200Y-5970000D01*
X22275000Y-6020800D01*
X22275000Y-6274800D02*
X22325800Y-6224000D01*
X22275000Y-6173200D01*
X22224200Y-6224000D01*
X22275000Y-6274800D01*
X22275000Y-6528800D02*
X22325800Y-6478000D01*
X22275000Y-6427200D01*
X22224200Y-6478000D01*
X22275000Y-6528800D01*
X22275000Y-6782800D02*
X22325800Y-6732000D01*
X22275000Y-6681200D01*
X22224200Y-6732000D01*
X22275000Y-6782800D01*
X22275000Y-7036800D02*
X22325800Y-6986000D01*
X22275000Y-6935200D01*
X22224200Y-6986000D01*
X22275000Y-7036800D01*
X22402000Y-3988800D02*
X22452800Y-3938000D01*
X22402000Y-3887200D01*
X22351200Y-3938000D01*
X22402000Y-3988800D01*
X22656000Y-3988800D02*
X22706800Y-3938000D01*
X22656000Y-3887200D01*
X22605200Y-3938000D01*
X22656000Y-3988800D01*
X22910000Y-3988800D02*
X22960800Y-3938000D01*
X22910000Y-3887200D01*
X22859200Y-3938000D01*
X22910000Y-3988800D01*
X23164000Y-3988800D02*
X23214800Y-3938000D01*
X23164000Y-3887200D01*
X23113200Y-3938000D01*
X23164000Y-3988800D01*
X23418000Y-3988800D02*
X23468800Y-3938000D01*
X23418000Y-3887200D01*
X23367200Y-3938000D01*
X23418000Y-3988800D01*
X23506900Y-5119100D02*
X23557700Y-5068300D01*
X23506900Y-5017500D01*
X23456100Y-5068300D01*
X23506900Y-5119100D01*
X23506900Y-5373100D02*
X23557700Y-5322300D01*
X23506900Y-5271500D01*
X23456100Y-5322300D01*
X23506900Y-5373100D01*
X23506900Y-6160500D02*
X23557700Y-6109700D01*
X23506900Y-6058900D01*
X23456100Y-6109700D01*
X23506900Y-6160500D01*
X23506900Y-6414500D02*
X23557700Y-6363700D01*
X23506900Y-6312900D01*
X23456100Y-6363700D01*
X23506900Y-6414500D01*
X23672000Y-3988800D02*
X23722800Y-3938000D01*
X23672000Y-3887200D01*
X23621200Y-3938000D01*
X23672000Y-3988800D01*
X23799000Y-4242800D02*
X23849800Y-4192000D01*
X23799000Y-4141200D01*
X23748200Y-4192000D01*
X23799000Y-4242800D01*
X23799000Y-4496800D02*
X23849800Y-4446000D01*
X23799000Y-4395200D01*
X23748200Y-4446000D01*
X23799000Y-4496800D01*
X23799000Y-4750800D02*
X23849800Y-4700000D01*
X23799000Y-4649200D01*
X23748200Y-4700000D01*
X23799000Y-4750800D01*
X23799000Y-5004800D02*
X23849800Y-4954000D01*
X23799000Y-4903200D01*
X23748200Y-4954000D01*
X23799000Y-5004800D01*
X23799000Y-5258800D02*
X23849800Y-5208000D01*
X23799000Y-5157200D01*
X23748200Y-5208000D01*
X23799000Y-5258800D01*
X23799000Y-5512800D02*
X23849800Y-5462000D01*
X23799000Y-5411200D01*
X23748200Y-5462000D01*
X23799000Y-5512800D01*
X23799000Y-5766800D02*
X23849800Y-5716000D01*
X23799000Y-5665200D01*
X23748200Y-5716000D01*
X23799000Y-5766800D01*
X23799000Y-6020800D02*
X23849800Y-5970000D01*
X23799000Y-5919200D01*
X23748200Y-5970000D01*
X23799000Y-6020800D01*
X23799000Y-6274800D02*
X23849800Y-6224000D01*
X23799000Y-6173200D01*
X23748200Y-6224000D01*
X23799000Y-6274800D01*
X23799000Y-6528800D02*
X23849800Y-6478000D01*
X23799000Y-6427200D01*
X23748200Y-6478000D01*
X23799000Y-6528800D01*
X23799000Y-6782800D02*
X23849800Y-6732000D01*
X23799000Y-6681200D01*
X23748200Y-6732000D01*
X23799000Y-6782800D01*
X23799000Y-7036800D02*
X23849800Y-6986000D01*
X23799000Y-6935200D01*
X23748200Y-6986000D01*
X23799000Y-7036800D01*
D16*
X22306000Y-11815000D02*
X22426000Y-11935000D01*
X22426000Y-11815000D02*
X22306000Y-11935000D01*
X22426000Y-11875000D02*
G75*
G03*
X22426000Y-11875000I-60000J0D01*
G01*
X22306000Y-12915000D02*
X22426000Y-13035000D01*
X22426000Y-12915000D02*
X22306000Y-13035000D01*
X22426000Y-12975000D02*
G75*
G03*
X22426000Y-12975000I-60000J0D01*
G01*
X22363500Y-12340000D02*
X22483500Y-12460000D01*
X22483500Y-12340000D02*
X22363500Y-12460000D01*
X22483500Y-12400000D02*
G75*
G03*
X22483500Y-12400000I-60000J0D01*
G01*
X22814000Y-11815000D02*
X22934000Y-11935000D01*
X22934000Y-11815000D02*
X22814000Y-11935000D01*
X22934000Y-11875000D02*
G75*
G03*
X22934000Y-11875000I-60000J0D01*
G01*
X22814000Y-12915000D02*
X22934000Y-13035000D01*
X22934000Y-12915000D02*
X22814000Y-13035000D01*
X22934000Y-12975000D02*
G75*
G03*
X22934000Y-12975000I-60000J0D01*
G01*
X22871500Y-12340000D02*
X22991500Y-12460000D01*
X22991500Y-12340000D02*
X22871500Y-12460000D01*
X22991500Y-12400000D02*
G75*
G03*
X22991500Y-12400000I-60000J0D01*
G01*
D17*
X3535000Y-2835000D02*
X3665000Y-2965000D01*
X3665000Y-2835000D02*
X3535000Y-2965000D01*
X3600000Y-2835000D02*
X3600000Y-2965000D01*
X3535000Y-2900000D02*
X3665000Y-2900000D01*
X4043000Y-2835000D02*
X4173000Y-2965000D01*
X4173000Y-2835000D02*
X4043000Y-2965000D01*
X4108000Y-2835000D02*
X4108000Y-2965000D01*
X4043000Y-2900000D02*
X4173000Y-2900000D01*
X4551000Y-2835000D02*
X4681000Y-2965000D01*
X4681000Y-2835000D02*
X4551000Y-2965000D01*
X4616000Y-2835000D02*
X4616000Y-2965000D01*
X4551000Y-2900000D02*
X4681000Y-2900000D01*
X5160000Y-2835000D02*
X5290000Y-2965000D01*
X5290000Y-2835000D02*
X5160000Y-2965000D01*
X5225000Y-2835000D02*
X5225000Y-2965000D01*
X5160000Y-2900000D02*
X5290000Y-2900000D01*
X5668000Y-2835000D02*
X5798000Y-2965000D01*
X5798000Y-2835000D02*
X5668000Y-2965000D01*
X5733000Y-2835000D02*
X5733000Y-2965000D01*
X5668000Y-2900000D02*
X5798000Y-2900000D01*
X6176000Y-2835000D02*
X6306000Y-2965000D01*
X6306000Y-2835000D02*
X6176000Y-2965000D01*
X6241000Y-2835000D02*
X6241000Y-2965000D01*
X6176000Y-2900000D02*
X6306000Y-2900000D01*
X6684000Y-2835000D02*
X6814000Y-2965000D01*
X6814000Y-2835000D02*
X6684000Y-2965000D01*
X6749000Y-2835000D02*
X6749000Y-2965000D01*
X6684000Y-2900000D02*
X6814000Y-2900000D01*
X7302000Y-2760000D02*
X7432000Y-2890000D01*
X7432000Y-2760000D02*
X7302000Y-2890000D01*
X7367000Y-2760000D02*
X7367000Y-2890000D01*
X7302000Y-2825000D02*
X7432000Y-2825000D01*
X7810000Y-2760000D02*
X7940000Y-2890000D01*
X7940000Y-2760000D02*
X7810000Y-2890000D01*
X7875000Y-2760000D02*
X7875000Y-2890000D01*
X7810000Y-2825000D02*
X7940000Y-2825000D01*
X8318000Y-2760000D02*
X8448000Y-2890000D01*
X8448000Y-2760000D02*
X8318000Y-2890000D01*
X8383000Y-2760000D02*
X8383000Y-2890000D01*
X8318000Y-2825000D02*
X8448000Y-2825000D01*
X8826000Y-2760000D02*
X8956000Y-2890000D01*
X8956000Y-2760000D02*
X8826000Y-2890000D01*
X8891000Y-2760000D02*
X8891000Y-2890000D01*
X8826000Y-2825000D02*
X8956000Y-2825000D01*
X9334000Y-2760000D02*
X9464000Y-2890000D01*
X9464000Y-2760000D02*
X9334000Y-2890000D01*
X9399000Y-2760000D02*
X9399000Y-2890000D01*
X9334000Y-2825000D02*
X9464000Y-2825000D01*
X9842000Y-2760000D02*
X9972000Y-2890000D01*
X9972000Y-2760000D02*
X9842000Y-2890000D01*
X9907000Y-2760000D02*
X9907000Y-2890000D01*
X9842000Y-2825000D02*
X9972000Y-2825000D01*
X10510000Y-2760000D02*
X10640000Y-2890000D01*
X10640000Y-2760000D02*
X10510000Y-2890000D01*
X10575000Y-2760000D02*
X10575000Y-2890000D01*
X10510000Y-2825000D02*
X10640000Y-2825000D01*
X11018000Y-2760000D02*
X11148000Y-2890000D01*
X11148000Y-2760000D02*
X11018000Y-2890000D01*
X11083000Y-2760000D02*
X11083000Y-2890000D01*
X11018000Y-2825000D02*
X11148000Y-2825000D01*
X11526000Y-2760000D02*
X11656000Y-2890000D01*
X11656000Y-2760000D02*
X11526000Y-2890000D01*
X11591000Y-2760000D02*
X11591000Y-2890000D01*
X11526000Y-2825000D02*
X11656000Y-2825000D01*
X12160000Y-4169000D02*
X12290000Y-4299000D01*
X12290000Y-4169000D02*
X12160000Y-4299000D01*
X12225000Y-4169000D02*
X12225000Y-4299000D01*
X12160000Y-4234000D02*
X12290000Y-4234000D01*
X12160000Y-4677000D02*
X12290000Y-4807000D01*
X12290000Y-4677000D02*
X12160000Y-4807000D01*
X12225000Y-4677000D02*
X12225000Y-4807000D01*
X12160000Y-4742000D02*
X12290000Y-4742000D01*
X12160000Y-5185000D02*
X12290000Y-5315000D01*
X12290000Y-5185000D02*
X12160000Y-5315000D01*
X12225000Y-5185000D02*
X12225000Y-5315000D01*
X12160000Y-5250000D02*
X12290000Y-5250000D01*
X12160000Y-5693000D02*
X12290000Y-5823000D01*
X12290000Y-5693000D02*
X12160000Y-5823000D01*
X12225000Y-5693000D02*
X12225000Y-5823000D01*
X12160000Y-5758000D02*
X12290000Y-5758000D01*
X12160000Y-6201000D02*
X12290000Y-6331000D01*
X12290000Y-6201000D02*
X12160000Y-6331000D01*
X12225000Y-6201000D02*
X12225000Y-6331000D01*
X12160000Y-6266000D02*
X12290000Y-6266000D01*
X12160000Y-6709000D02*
X12290000Y-6839000D01*
X12290000Y-6709000D02*
X12160000Y-6839000D01*
X12225000Y-6709000D02*
X12225000Y-6839000D01*
X12160000Y-6774000D02*
X12290000Y-6774000D01*
X12185000Y-2735000D02*
X12315000Y-2865000D01*
X12315000Y-2735000D02*
X12185000Y-2865000D01*
X12250000Y-2735000D02*
X12250000Y-2865000D01*
X12185000Y-2800000D02*
X12315000Y-2800000D01*
X12693000Y-2735000D02*
X12823000Y-2865000D01*
X12823000Y-2735000D02*
X12693000Y-2865000D01*
X12758000Y-2735000D02*
X12758000Y-2865000D01*
X12693000Y-2800000D02*
X12823000Y-2800000D01*
X13460000Y-2710000D02*
X13590000Y-2840000D01*
X13590000Y-2710000D02*
X13460000Y-2840000D01*
X13525000Y-2710000D02*
X13525000Y-2840000D01*
X13460000Y-2775000D02*
X13590000Y-2775000D01*
X13968000Y-2710000D02*
X14098000Y-2840000D01*
X14098000Y-2710000D02*
X13968000Y-2840000D01*
X14033000Y-2710000D02*
X14033000Y-2840000D01*
X13968000Y-2775000D02*
X14098000Y-2775000D01*
X14476000Y-2710000D02*
X14606000Y-2840000D01*
X14606000Y-2710000D02*
X14476000Y-2840000D01*
X14541000Y-2710000D02*
X14541000Y-2840000D01*
X14476000Y-2775000D02*
X14606000Y-2775000D01*
X15081500Y-11104500D02*
X15211500Y-11234500D01*
X15211500Y-11104500D02*
X15081500Y-11234500D01*
X15146500Y-11104500D02*
X15146500Y-11234500D01*
X15081500Y-11169500D02*
X15211500Y-11169500D01*
X15168500Y-2630000D02*
X15298500Y-2760000D01*
X15298500Y-2630000D02*
X15168500Y-2760000D01*
X15233500Y-2630000D02*
X15233500Y-2760000D01*
X15168500Y-2695000D02*
X15298500Y-2695000D01*
X15589500Y-11104500D02*
X15719500Y-11234500D01*
X15719500Y-11104500D02*
X15589500Y-11234500D01*
X15654500Y-11104500D02*
X15654500Y-11234500D01*
X15589500Y-11169500D02*
X15719500Y-11169500D01*
X15676500Y-2630000D02*
X15806500Y-2760000D01*
X15806500Y-2630000D02*
X15676500Y-2760000D01*
X15741500Y-2630000D02*
X15741500Y-2760000D01*
X15676500Y-2695000D02*
X15806500Y-2695000D01*
X16360000Y-2685000D02*
X16490000Y-2815000D01*
X16490000Y-2685000D02*
X16360000Y-2815000D01*
X16425000Y-2685000D02*
X16425000Y-2815000D01*
X16360000Y-2750000D02*
X16490000Y-2750000D01*
X16815500Y-4365000D02*
X16945500Y-4495000D01*
X16945500Y-4365000D02*
X16815500Y-4495000D01*
X16880500Y-4365000D02*
X16880500Y-4495000D01*
X16815500Y-4430000D02*
X16945500Y-4430000D01*
X16815500Y-4873000D02*
X16945500Y-5003000D01*
X16945500Y-4873000D02*
X16815500Y-5003000D01*
X16880500Y-4873000D02*
X16880500Y-5003000D01*
X16815500Y-4938000D02*
X16945500Y-4938000D01*
X16815500Y-5381000D02*
X16945500Y-5511000D01*
X16945500Y-5381000D02*
X16815500Y-5511000D01*
X16880500Y-5381000D02*
X16880500Y-5511000D01*
X16815500Y-5446000D02*
X16945500Y-5446000D01*
X16815500Y-5889000D02*
X16945500Y-6019000D01*
X16945500Y-5889000D02*
X16815500Y-6019000D01*
X16880500Y-5889000D02*
X16880500Y-6019000D01*
X16815500Y-5954000D02*
X16945500Y-5954000D01*
X16815500Y-6397000D02*
X16945500Y-6527000D01*
X16945500Y-6397000D02*
X16815500Y-6527000D01*
X16880500Y-6397000D02*
X16880500Y-6527000D01*
X16815500Y-6462000D02*
X16945500Y-6462000D01*
X16815500Y-6905000D02*
X16945500Y-7035000D01*
X16945500Y-6905000D02*
X16815500Y-7035000D01*
X16880500Y-6905000D02*
X16880500Y-7035000D01*
X16815500Y-6970000D02*
X16945500Y-6970000D01*
X16856500Y-11054500D02*
X16986500Y-11184500D01*
X16986500Y-11054500D02*
X16856500Y-11184500D01*
X16921500Y-11054500D02*
X16921500Y-11184500D01*
X16856500Y-11119500D02*
X16986500Y-11119500D01*
X16868000Y-2685000D02*
X16998000Y-2815000D01*
X16998000Y-2685000D02*
X16868000Y-2815000D01*
X16933000Y-2685000D02*
X16933000Y-2815000D01*
X16868000Y-2750000D02*
X16998000Y-2750000D01*
X17364500Y-11054500D02*
X17494500Y-11184500D01*
X17494500Y-11054500D02*
X17364500Y-11184500D01*
X17429500Y-11054500D02*
X17429500Y-11184500D01*
X17364500Y-11119500D02*
X17494500Y-11119500D01*
X17376000Y-2685000D02*
X17506000Y-2815000D01*
X17506000Y-2685000D02*
X17376000Y-2815000D01*
X17441000Y-2685000D02*
X17441000Y-2815000D01*
X17376000Y-2750000D02*
X17506000Y-2750000D01*
X18068500Y-2630000D02*
X18198500Y-2760000D01*
X18198500Y-2630000D02*
X18068500Y-2760000D01*
X18133500Y-2630000D02*
X18133500Y-2760000D01*
X18068500Y-2695000D02*
X18198500Y-2695000D01*
X18556500Y-11054500D02*
X18686500Y-11184500D01*
X18686500Y-11054500D02*
X18556500Y-11184500D01*
X18621500Y-11054500D02*
X18621500Y-11184500D01*
X18556500Y-11119500D02*
X18686500Y-11119500D01*
X18576500Y-2630000D02*
X18706500Y-2760000D01*
X18706500Y-2630000D02*
X18576500Y-2760000D01*
X18641500Y-2630000D02*
X18641500Y-2760000D01*
X18576500Y-2695000D02*
X18706500Y-2695000D01*
X19064500Y-11054500D02*
X19194500Y-11184500D01*
X19194500Y-11054500D02*
X19064500Y-11184500D01*
X19129500Y-11054500D02*
X19129500Y-11184500D01*
X19064500Y-11119500D02*
X19194500Y-11119500D01*
X19302000Y-2635000D02*
X19432000Y-2765000D01*
X19432000Y-2635000D02*
X19302000Y-2765000D01*
X19367000Y-2635000D02*
X19367000Y-2765000D01*
X19302000Y-2700000D02*
X19432000Y-2700000D01*
X19810000Y-2635000D02*
X19940000Y-2765000D01*
X19940000Y-2635000D02*
X19810000Y-2765000D01*
X19875000Y-2635000D02*
X19875000Y-2765000D01*
X19810000Y-2700000D02*
X19940000Y-2700000D01*
X20318000Y-2635000D02*
X20448000Y-2765000D01*
X20448000Y-2635000D02*
X20318000Y-2765000D01*
X20383000Y-2635000D02*
X20383000Y-2765000D01*
X20318000Y-2700000D02*
X20448000Y-2700000D01*
X20431500Y-11004500D02*
X20561500Y-11134500D01*
X20561500Y-11004500D02*
X20431500Y-11134500D01*
X20496500Y-11004500D02*
X20496500Y-11134500D01*
X20431500Y-11069500D02*
X20561500Y-11069500D01*
X20826000Y-2635000D02*
X20956000Y-2765000D01*
X20956000Y-2635000D02*
X20826000Y-2765000D01*
X20891000Y-2635000D02*
X20891000Y-2765000D01*
X20826000Y-2700000D02*
X20956000Y-2700000D01*
X20939500Y-11004500D02*
X21069500Y-11134500D01*
X21069500Y-11004500D02*
X20939500Y-11134500D01*
X21004500Y-11004500D02*
X21004500Y-11134500D01*
X20939500Y-11069500D02*
X21069500Y-11069500D01*
X21334000Y-2635000D02*
X21464000Y-2765000D01*
X21464000Y-2635000D02*
X21334000Y-2765000D01*
X21399000Y-2635000D02*
X21399000Y-2765000D01*
X21334000Y-2700000D02*
X21464000Y-2700000D01*
X21842000Y-2635000D02*
X21972000Y-2765000D01*
X21972000Y-2635000D02*
X21842000Y-2765000D01*
X21907000Y-2635000D02*
X21907000Y-2765000D01*
X21842000Y-2700000D02*
X21972000Y-2700000D01*
X22330500Y-11065500D02*
X22460500Y-11195500D01*
X22460500Y-11065500D02*
X22330500Y-11195500D01*
X22395500Y-11065500D02*
X22395500Y-11195500D01*
X22330500Y-11130500D02*
X22460500Y-11130500D01*
X22350000Y-2635000D02*
X22480000Y-2765000D01*
X22480000Y-2635000D02*
X22350000Y-2765000D01*
X22415000Y-2635000D02*
X22415000Y-2765000D01*
X22350000Y-2700000D02*
X22480000Y-2700000D01*
X22838500Y-11065500D02*
X22968500Y-11195500D01*
X22968500Y-11065500D02*
X22838500Y-11195500D01*
X22903500Y-11065500D02*
X22903500Y-11195500D01*
X22838500Y-11130500D02*
X22968500Y-11130500D01*
X22858000Y-2635000D02*
X22988000Y-2765000D01*
X22988000Y-2635000D02*
X22858000Y-2765000D01*
X22923000Y-2635000D02*
X22923000Y-2765000D01*
X22858000Y-2700000D02*
X22988000Y-2700000D01*
X23485000Y-2635000D02*
X23615000Y-2765000D01*
X23615000Y-2635000D02*
X23485000Y-2765000D01*
X23550000Y-2635000D02*
X23550000Y-2765000D01*
X23485000Y-2700000D02*
X23615000Y-2700000D01*
X23993000Y-2635000D02*
X24123000Y-2765000D01*
X24123000Y-2635000D02*
X23993000Y-2765000D01*
X24058000Y-2635000D02*
X24058000Y-2765000D01*
X23993000Y-2700000D02*
X24123000Y-2700000D01*
D18*
X14950000Y-11999000D02*
X15110000Y-12159000D01*
X15110000Y-11999000D02*
X14950000Y-12159000D01*
X15086569Y-12135569D02*
X15086569Y-12022431D01*
X14973431Y-12022431D01*
X14973431Y-12135569D01*
X15086569Y-12135569D01*
X14950000Y-12991000D02*
X15110000Y-13151000D01*
X15110000Y-12991000D02*
X14950000Y-13151000D01*
X15086569Y-13127569D02*
X15086569Y-13014431D01*
X14973431Y-13014431D01*
X14973431Y-13127569D01*
X15086569Y-13127569D01*
X15290000Y-11999000D02*
X15450000Y-12159000D01*
X15450000Y-11999000D02*
X15290000Y-12159000D01*
X15426569Y-12135569D02*
X15426569Y-12022431D01*
X15313431Y-12022431D01*
X15313431Y-12135569D01*
X15426569Y-12135569D01*
X15290000Y-12991000D02*
X15450000Y-13151000D01*
X15450000Y-12991000D02*
X15290000Y-13151000D01*
X15426569Y-13127569D02*
X15426569Y-13014431D01*
X15313431Y-13014431D01*
X15313431Y-13127569D01*
X15426569Y-13127569D01*
X16725000Y-11970250D02*
X16885000Y-12130250D01*
X16885000Y-11970250D02*
X16725000Y-12130250D01*
X16861569Y-12106819D02*
X16861569Y-11993681D01*
X16748431Y-11993681D01*
X16748431Y-12106819D01*
X16861569Y-12106819D01*
X16725000Y-12962250D02*
X16885000Y-13122250D01*
X16885000Y-12962250D02*
X16725000Y-13122250D01*
X16861569Y-13098819D02*
X16861569Y-12985681D01*
X16748431Y-12985681D01*
X16748431Y-13098819D01*
X16861569Y-13098819D01*
X17065000Y-11970250D02*
X17225000Y-12130250D01*
X17225000Y-11970250D02*
X17065000Y-12130250D01*
X17201569Y-12106819D02*
X17201569Y-11993681D01*
X17088431Y-11993681D01*
X17088431Y-12106819D01*
X17201569Y-12106819D01*
X17065000Y-12962250D02*
X17225000Y-13122250D01*
X17225000Y-12962250D02*
X17065000Y-13122250D01*
X17201569Y-13098819D02*
X17201569Y-12985681D01*
X17088431Y-12985681D01*
X17088431Y-13098819D01*
X17201569Y-13098819D01*
X18425000Y-11949000D02*
X18585000Y-12109000D01*
X18585000Y-11949000D02*
X18425000Y-12109000D01*
X18561569Y-12085569D02*
X18561569Y-11972431D01*
X18448431Y-11972431D01*
X18448431Y-12085569D01*
X18561569Y-12085569D01*
X18425000Y-12941000D02*
X18585000Y-13101000D01*
X18585000Y-12941000D02*
X18425000Y-13101000D01*
X18561569Y-13077569D02*
X18561569Y-12964431D01*
X18448431Y-12964431D01*
X18448431Y-13077569D01*
X18561569Y-13077569D01*
X18765000Y-11949000D02*
X18925000Y-12109000D01*
X18925000Y-11949000D02*
X18765000Y-12109000D01*
X18901569Y-12085569D02*
X18901569Y-11972431D01*
X18788431Y-11972431D01*
X18788431Y-12085569D01*
X18901569Y-12085569D01*
X18765000Y-12941000D02*
X18925000Y-13101000D01*
X18925000Y-12941000D02*
X18765000Y-13101000D01*
X18901569Y-13077569D02*
X18901569Y-12964431D01*
X18788431Y-12964431D01*
X18788431Y-13077569D01*
X18901569Y-13077569D01*
X20300000Y-11902750D02*
X20460000Y-12062750D01*
X20460000Y-11902750D02*
X20300000Y-12062750D01*
X20436569Y-12039319D02*
X20436569Y-11926181D01*
X20323431Y-11926181D01*
X20323431Y-12039319D01*
X20436569Y-12039319D01*
X20300000Y-12894750D02*
X20460000Y-13054750D01*
X20460000Y-12894750D02*
X20300000Y-13054750D01*
X20436569Y-13031319D02*
X20436569Y-12918181D01*
X20323431Y-12918181D01*
X20323431Y-13031319D01*
X20436569Y-13031319D01*
X20640000Y-11902750D02*
X20800000Y-12062750D01*
X20800000Y-11902750D02*
X20640000Y-12062750D01*
X20776569Y-12039319D02*
X20776569Y-11926181D01*
X20663431Y-11926181D01*
X20663431Y-12039319D01*
X20776569Y-12039319D01*
X20640000Y-12894750D02*
X20800000Y-13054750D01*
X20800000Y-12894750D02*
X20640000Y-13054750D01*
X20776569Y-13031319D02*
X20776569Y-12918181D01*
X20663431Y-12918181D01*
X20663431Y-13031319D01*
X20776569Y-13031319D01*
X23475000Y-10795250D02*
X23635000Y-10955250D01*
X23635000Y-10795250D02*
X23475000Y-10955250D01*
X23611569Y-10931819D02*
X23611569Y-10818681D01*
X23498431Y-10818681D01*
X23498431Y-10931819D01*
X23611569Y-10931819D01*
X23475000Y-11787250D02*
X23635000Y-11947250D01*
X23635000Y-11787250D02*
X23475000Y-11947250D01*
X23611569Y-11923819D02*
X23611569Y-11810681D01*
X23498431Y-11810681D01*
X23498431Y-11923819D01*
X23611569Y-11923819D01*
X23815000Y-10795250D02*
X23975000Y-10955250D01*
X23975000Y-10795250D02*
X23815000Y-10955250D01*
X23951569Y-10931819D02*
X23951569Y-10818681D01*
X23838431Y-10818681D01*
X23838431Y-10931819D01*
X23951569Y-10931819D01*
X23815000Y-11787250D02*
X23975000Y-11947250D01*
X23975000Y-11787250D02*
X23815000Y-11947250D01*
X23951569Y-11923819D02*
X23951569Y-11810681D01*
X23838431Y-11810681D01*
X23838431Y-11923819D01*
X23951569Y-11923819D01*
D19*
X3620000Y-9565000D02*
X3850000Y-9795000D01*
X3850000Y-9565000D02*
X3620000Y-9795000D01*
X3735000Y-9795000D02*
X3850000Y-9680000D01*
X3735000Y-9565000D01*
X3620000Y-9680000D01*
X3735000Y-9795000D01*
X3620000Y-12135000D02*
X3850000Y-12365000D01*
X3850000Y-12135000D02*
X3620000Y-12365000D01*
X3735000Y-12365000D02*
X3850000Y-12250000D01*
X3735000Y-12135000D01*
X3620000Y-12250000D01*
X3735000Y-12365000D01*
X4420000Y-9565000D02*
X4650000Y-9795000D01*
X4650000Y-9565000D02*
X4420000Y-9795000D01*
X4535000Y-9795000D02*
X4650000Y-9680000D01*
X4535000Y-9565000D01*
X4420000Y-9680000D01*
X4535000Y-9795000D01*
X4420000Y-12135000D02*
X4650000Y-12365000D01*
X4650000Y-12135000D02*
X4420000Y-12365000D01*
X4535000Y-12365000D02*
X4650000Y-12250000D01*
X4535000Y-12135000D01*
X4420000Y-12250000D01*
X4535000Y-12365000D01*
X4460000Y-8720000D02*
X4690000Y-8950000D01*
X4690000Y-8720000D02*
X4460000Y-8950000D01*
X4575000Y-8950000D02*
X4690000Y-8835000D01*
X4575000Y-8720000D01*
X4460000Y-8835000D01*
X4575000Y-8950000D01*
X4460000Y-10410000D02*
X4690000Y-10640000D01*
X4690000Y-10410000D02*
X4460000Y-10640000D01*
X4575000Y-10640000D02*
X4690000Y-10525000D01*
X4575000Y-10410000D01*
X4460000Y-10525000D01*
X4575000Y-10640000D01*
X4460000Y-11290000D02*
X4690000Y-11520000D01*
X4690000Y-11290000D02*
X4460000Y-11520000D01*
X4575000Y-11520000D02*
X4690000Y-11405000D01*
X4575000Y-11290000D01*
X4460000Y-11405000D01*
X4575000Y-11520000D01*
X4460000Y-12980000D02*
X4690000Y-13210000D01*
X4690000Y-12980000D02*
X4460000Y-13210000D01*
X4575000Y-13210000D02*
X4690000Y-13095000D01*
X4575000Y-12980000D01*
X4460000Y-13095000D01*
X4575000Y-13210000D01*
X5410000Y-9565000D02*
X5640000Y-9795000D01*
X5640000Y-9565000D02*
X5410000Y-9795000D01*
X5525000Y-9795000D02*
X5640000Y-9680000D01*
X5525000Y-9565000D01*
X5410000Y-9680000D01*
X5525000Y-9795000D01*
X5410000Y-12135000D02*
X5640000Y-12365000D01*
X5640000Y-12135000D02*
X5410000Y-12365000D01*
X5525000Y-12365000D02*
X5640000Y-12250000D01*
X5525000Y-12135000D01*
X5410000Y-12250000D01*
X5525000Y-12365000D01*
X6445000Y-9560000D02*
X6675000Y-9790000D01*
X6675000Y-9560000D02*
X6445000Y-9790000D01*
X6560000Y-9790000D02*
X6675000Y-9675000D01*
X6560000Y-9560000D01*
X6445000Y-9675000D01*
X6560000Y-9790000D01*
X6445000Y-12135000D02*
X6675000Y-12365000D01*
X6675000Y-12135000D02*
X6445000Y-12365000D01*
X6560000Y-12365000D02*
X6675000Y-12250000D01*
X6560000Y-12135000D01*
X6445000Y-12250000D01*
X6560000Y-12365000D01*
X7245000Y-9560000D02*
X7475000Y-9790000D01*
X7475000Y-9560000D02*
X7245000Y-9790000D01*
X7360000Y-9790000D02*
X7475000Y-9675000D01*
X7360000Y-9560000D01*
X7245000Y-9675000D01*
X7360000Y-9790000D01*
X7245000Y-12135000D02*
X7475000Y-12365000D01*
X7475000Y-12135000D02*
X7245000Y-12365000D01*
X7360000Y-12365000D02*
X7475000Y-12250000D01*
X7360000Y-12135000D01*
X7245000Y-12250000D01*
X7360000Y-12365000D01*
X7285000Y-8715000D02*
X7515000Y-8945000D01*
X7515000Y-8715000D02*
X7285000Y-8945000D01*
X7400000Y-8945000D02*
X7515000Y-8830000D01*
X7400000Y-8715000D01*
X7285000Y-8830000D01*
X7400000Y-8945000D01*
X7285000Y-10405000D02*
X7515000Y-10635000D01*
X7515000Y-10405000D02*
X7285000Y-10635000D01*
X7400000Y-10635000D02*
X7515000Y-10520000D01*
X7400000Y-10405000D01*
X7285000Y-10520000D01*
X7400000Y-10635000D01*
X7285000Y-11290000D02*
X7515000Y-11520000D01*
X7515000Y-11290000D02*
X7285000Y-11520000D01*
X7400000Y-11520000D02*
X7515000Y-11405000D01*
X7400000Y-11290000D01*
X7285000Y-11405000D01*
X7400000Y-11520000D01*
X7285000Y-12980000D02*
X7515000Y-13210000D01*
X7515000Y-12980000D02*
X7285000Y-13210000D01*
X7400000Y-13210000D02*
X7515000Y-13095000D01*
X7400000Y-12980000D01*
X7285000Y-13095000D01*
X7400000Y-13210000D01*
X8235000Y-9560000D02*
X8465000Y-9790000D01*
X8465000Y-9560000D02*
X8235000Y-9790000D01*
X8350000Y-9790000D02*
X8465000Y-9675000D01*
X8350000Y-9560000D01*
X8235000Y-9675000D01*
X8350000Y-9790000D01*
X8235000Y-12135000D02*
X8465000Y-12365000D01*
X8465000Y-12135000D02*
X8235000Y-12365000D01*
X8350000Y-12365000D02*
X8465000Y-12250000D01*
X8350000Y-12135000D01*
X8235000Y-12250000D01*
X8350000Y-12365000D01*
D11*
X2505777Y-14566484D02*
X2505777Y-14366484D01*
X2505777Y-14366484D02*
X2553396Y-14366484D01*
X2553396Y-14366484D02*
X2581967Y-14376008D01*
X2581967Y-14376008D02*
X2601015Y-14395055D01*
X2601015Y-14395055D02*
X2610539Y-14414103D01*
X2610539Y-14414103D02*
X2620063Y-14452198D01*
X2620063Y-14452198D02*
X2620063Y-14480769D01*
X2620063Y-14480769D02*
X2610539Y-14518865D01*
X2610539Y-14518865D02*
X2601015Y-14537912D01*
X2601015Y-14537912D02*
X2581967Y-14556960D01*
X2581967Y-14556960D02*
X2553396Y-14566484D01*
X2553396Y-14566484D02*
X2505777Y-14566484D01*
X2705777Y-14566484D02*
X2705777Y-14433150D01*
X2705777Y-14471246D02*
X2715301Y-14452198D01*
X2715301Y-14452198D02*
X2724824Y-14442674D01*
X2724824Y-14442674D02*
X2743872Y-14433150D01*
X2743872Y-14433150D02*
X2762920Y-14433150D01*
X2829586Y-14566484D02*
X2829586Y-14433150D01*
X2829586Y-14366484D02*
X2820062Y-14376008D01*
X2820062Y-14376008D02*
X2829586Y-14385531D01*
X2829586Y-14385531D02*
X2839110Y-14376008D01*
X2839110Y-14376008D02*
X2829586Y-14366484D01*
X2829586Y-14366484D02*
X2829586Y-14385531D01*
X2953396Y-14566484D02*
X2934348Y-14556960D01*
X2934348Y-14556960D02*
X2924824Y-14537912D01*
X2924824Y-14537912D02*
X2924824Y-14366484D01*
X3058158Y-14566484D02*
X3039110Y-14556960D01*
X3039110Y-14556960D02*
X3029586Y-14537912D01*
X3029586Y-14537912D02*
X3029586Y-14366484D01*
X3286729Y-14566484D02*
X3286729Y-14366484D01*
X3286729Y-14366484D02*
X3353396Y-14509341D01*
X3353396Y-14509341D02*
X3420062Y-14366484D01*
X3420062Y-14366484D02*
X3420062Y-14566484D01*
X3601015Y-14566484D02*
X3601015Y-14461722D01*
X3601015Y-14461722D02*
X3591491Y-14442674D01*
X3591491Y-14442674D02*
X3572443Y-14433150D01*
X3572443Y-14433150D02*
X3534348Y-14433150D01*
X3534348Y-14433150D02*
X3515301Y-14442674D01*
X3601015Y-14556960D02*
X3581967Y-14566484D01*
X3581967Y-14566484D02*
X3534348Y-14566484D01*
X3534348Y-14566484D02*
X3515301Y-14556960D01*
X3515301Y-14556960D02*
X3505777Y-14537912D01*
X3505777Y-14537912D02*
X3505777Y-14518865D01*
X3505777Y-14518865D02*
X3515301Y-14499817D01*
X3515301Y-14499817D02*
X3534348Y-14490293D01*
X3534348Y-14490293D02*
X3581967Y-14490293D01*
X3581967Y-14490293D02*
X3601015Y-14480769D01*
X3696253Y-14433150D02*
X3696253Y-14633150D01*
X3696253Y-14442674D02*
X3715301Y-14433150D01*
X3715301Y-14433150D02*
X3753396Y-14433150D01*
X3753396Y-14433150D02*
X3772443Y-14442674D01*
X3772443Y-14442674D02*
X3781967Y-14452198D01*
X3781967Y-14452198D02*
X3791491Y-14471246D01*
X3791491Y-14471246D02*
X3791491Y-14528388D01*
X3791491Y-14528388D02*
X3781967Y-14547436D01*
X3781967Y-14547436D02*
X3772443Y-14556960D01*
X3772443Y-14556960D02*
X3753396Y-14566484D01*
X3753396Y-14566484D02*
X3715301Y-14566484D01*
X3715301Y-14566484D02*
X3696253Y-14556960D01*
X3877205Y-14547436D02*
X3886729Y-14556960D01*
X3886729Y-14556960D02*
X3877205Y-14566484D01*
X3877205Y-14566484D02*
X3867682Y-14556960D01*
X3867682Y-14556960D02*
X3877205Y-14547436D01*
X3877205Y-14547436D02*
X3877205Y-14566484D01*
X3877205Y-14442674D02*
X3886729Y-14452198D01*
X3886729Y-14452198D02*
X3877205Y-14461722D01*
X3877205Y-14461722D02*
X3867682Y-14452198D01*
X3867682Y-14452198D02*
X3877205Y-14442674D01*
X3877205Y-14442674D02*
X3877205Y-14461722D01*
D12*
X2168000Y-14856500D02*
X2245000Y-14933500D01*
X2245000Y-14856500D02*
X2168000Y-14933500D01*
D11*
X2543872Y-14786484D02*
X2562920Y-14786484D01*
X2562920Y-14786484D02*
X2581967Y-14796008D01*
X2581967Y-14796008D02*
X2591491Y-14805531D01*
X2591491Y-14805531D02*
X2601015Y-14824579D01*
X2601015Y-14824579D02*
X2610539Y-14862674D01*
X2610539Y-14862674D02*
X2610539Y-14910293D01*
X2610539Y-14910293D02*
X2601015Y-14948388D01*
X2601015Y-14948388D02*
X2591491Y-14967436D01*
X2591491Y-14967436D02*
X2581967Y-14976960D01*
X2581967Y-14976960D02*
X2562920Y-14986484D01*
X2562920Y-14986484D02*
X2543872Y-14986484D01*
X2543872Y-14986484D02*
X2524824Y-14976960D01*
X2524824Y-14976960D02*
X2515301Y-14967436D01*
X2515301Y-14967436D02*
X2505777Y-14948388D01*
X2505777Y-14948388D02*
X2496253Y-14910293D01*
X2496253Y-14910293D02*
X2496253Y-14862674D01*
X2496253Y-14862674D02*
X2505777Y-14824579D01*
X2505777Y-14824579D02*
X2515301Y-14805531D01*
X2515301Y-14805531D02*
X2524824Y-14796008D01*
X2524824Y-14796008D02*
X2543872Y-14786484D01*
X2696253Y-14967436D02*
X2705777Y-14976960D01*
X2705777Y-14976960D02*
X2696253Y-14986484D01*
X2696253Y-14986484D02*
X2686729Y-14976960D01*
X2686729Y-14976960D02*
X2696253Y-14967436D01*
X2696253Y-14967436D02*
X2696253Y-14986484D01*
X2772444Y-14786484D02*
X2905777Y-14786484D01*
X2905777Y-14786484D02*
X2820062Y-14986484D01*
X2962920Y-14786484D02*
X3096253Y-14786484D01*
X3096253Y-14786484D02*
X3010539Y-14986484D01*
X3210539Y-14786484D02*
X3229586Y-14786484D01*
X3229586Y-14786484D02*
X3248634Y-14796008D01*
X3248634Y-14796008D02*
X3258158Y-14805531D01*
X3258158Y-14805531D02*
X3267682Y-14824579D01*
X3267682Y-14824579D02*
X3277205Y-14862674D01*
X3277205Y-14862674D02*
X3277205Y-14910293D01*
X3277205Y-14910293D02*
X3267682Y-14948388D01*
X3267682Y-14948388D02*
X3258158Y-14967436D01*
X3258158Y-14967436D02*
X3248634Y-14976960D01*
X3248634Y-14976960D02*
X3229586Y-14986484D01*
X3229586Y-14986484D02*
X3210539Y-14986484D01*
X3210539Y-14986484D02*
X3191491Y-14976960D01*
X3191491Y-14976960D02*
X3181967Y-14967436D01*
X3181967Y-14967436D02*
X3172443Y-14948388D01*
X3172443Y-14948388D02*
X3162920Y-14910293D01*
X3162920Y-14910293D02*
X3162920Y-14862674D01*
X3162920Y-14862674D02*
X3172443Y-14824579D01*
X3172443Y-14824579D02*
X3181967Y-14805531D01*
X3181967Y-14805531D02*
X3191491Y-14796008D01*
X3191491Y-14796008D02*
X3210539Y-14786484D01*
X3362920Y-14986484D02*
X3362920Y-14853150D01*
X3362920Y-14872198D02*
X3372443Y-14862674D01*
X3372443Y-14862674D02*
X3391491Y-14853150D01*
X3391491Y-14853150D02*
X3420063Y-14853150D01*
X3420063Y-14853150D02*
X3439110Y-14862674D01*
X3439110Y-14862674D02*
X3448634Y-14881722D01*
X3448634Y-14881722D02*
X3448634Y-14986484D01*
X3448634Y-14881722D02*
X3458158Y-14862674D01*
X3458158Y-14862674D02*
X3477205Y-14853150D01*
X3477205Y-14853150D02*
X3505777Y-14853150D01*
X3505777Y-14853150D02*
X3524824Y-14862674D01*
X3524824Y-14862674D02*
X3534348Y-14881722D01*
X3534348Y-14881722D02*
X3534348Y-14986484D01*
X3629586Y-14986484D02*
X3629586Y-14853150D01*
X3629586Y-14872198D02*
X3639110Y-14862674D01*
X3639110Y-14862674D02*
X3658158Y-14853150D01*
X3658158Y-14853150D02*
X3686729Y-14853150D01*
X3686729Y-14853150D02*
X3705777Y-14862674D01*
X3705777Y-14862674D02*
X3715301Y-14881722D01*
X3715301Y-14881722D02*
X3715301Y-14986484D01*
X3715301Y-14881722D02*
X3724824Y-14862674D01*
X3724824Y-14862674D02*
X3743872Y-14853150D01*
X3743872Y-14853150D02*
X3772443Y-14853150D01*
X3772443Y-14853150D02*
X3791491Y-14862674D01*
X3791491Y-14862674D02*
X3801015Y-14881722D01*
X3801015Y-14881722D02*
X3801015Y-14986484D01*
X4191491Y-14776960D02*
X4020063Y-15034103D01*
X4448634Y-14786484D02*
X4467682Y-14786484D01*
X4467682Y-14786484D02*
X4486729Y-14796008D01*
X4486729Y-14796008D02*
X4496253Y-14805531D01*
X4496253Y-14805531D02*
X4505777Y-14824579D01*
X4505777Y-14824579D02*
X4515301Y-14862674D01*
X4515301Y-14862674D02*
X4515301Y-14910293D01*
X4515301Y-14910293D02*
X4505777Y-14948388D01*
X4505777Y-14948388D02*
X4496253Y-14967436D01*
X4496253Y-14967436D02*
X4486729Y-14976960D01*
X4486729Y-14976960D02*
X4467682Y-14986484D01*
X4467682Y-14986484D02*
X4448634Y-14986484D01*
X4448634Y-14986484D02*
X4429587Y-14976960D01*
X4429587Y-14976960D02*
X4420063Y-14967436D01*
X4420063Y-14967436D02*
X4410539Y-14948388D01*
X4410539Y-14948388D02*
X4401015Y-14910293D01*
X4401015Y-14910293D02*
X4401015Y-14862674D01*
X4401015Y-14862674D02*
X4410539Y-14824579D01*
X4410539Y-14824579D02*
X4420063Y-14805531D01*
X4420063Y-14805531D02*
X4429587Y-14796008D01*
X4429587Y-14796008D02*
X4448634Y-14786484D01*
X4601015Y-14967436D02*
X4610539Y-14976960D01*
X4610539Y-14976960D02*
X4601015Y-14986484D01*
X4601015Y-14986484D02*
X4591491Y-14976960D01*
X4591491Y-14976960D02*
X4601015Y-14967436D01*
X4601015Y-14967436D02*
X4601015Y-14986484D01*
X4734348Y-14786484D02*
X4753396Y-14786484D01*
X4753396Y-14786484D02*
X4772444Y-14796008D01*
X4772444Y-14796008D02*
X4781968Y-14805531D01*
X4781968Y-14805531D02*
X4791491Y-14824579D01*
X4791491Y-14824579D02*
X4801015Y-14862674D01*
X4801015Y-14862674D02*
X4801015Y-14910293D01*
X4801015Y-14910293D02*
X4791491Y-14948388D01*
X4791491Y-14948388D02*
X4781968Y-14967436D01*
X4781968Y-14967436D02*
X4772444Y-14976960D01*
X4772444Y-14976960D02*
X4753396Y-14986484D01*
X4753396Y-14986484D02*
X4734348Y-14986484D01*
X4734348Y-14986484D02*
X4715301Y-14976960D01*
X4715301Y-14976960D02*
X4705777Y-14967436D01*
X4705777Y-14967436D02*
X4696253Y-14948388D01*
X4696253Y-14948388D02*
X4686729Y-14910293D01*
X4686729Y-14910293D02*
X4686729Y-14862674D01*
X4686729Y-14862674D02*
X4696253Y-14824579D01*
X4696253Y-14824579D02*
X4705777Y-14805531D01*
X4705777Y-14805531D02*
X4715301Y-14796008D01*
X4715301Y-14796008D02*
X4734348Y-14786484D01*
X4867682Y-14786484D02*
X4991491Y-14786484D01*
X4991491Y-14786484D02*
X4924825Y-14862674D01*
X4924825Y-14862674D02*
X4953396Y-14862674D01*
X4953396Y-14862674D02*
X4972444Y-14872198D01*
X4972444Y-14872198D02*
X4981968Y-14881722D01*
X4981968Y-14881722D02*
X4991491Y-14900769D01*
X4991491Y-14900769D02*
X4991491Y-14948388D01*
X4991491Y-14948388D02*
X4981968Y-14967436D01*
X4981968Y-14967436D02*
X4972444Y-14976960D01*
X4972444Y-14976960D02*
X4953396Y-14986484D01*
X4953396Y-14986484D02*
X4896253Y-14986484D01*
X4896253Y-14986484D02*
X4877206Y-14976960D01*
X4877206Y-14976960D02*
X4867682Y-14967436D01*
X5115301Y-14786484D02*
X5134349Y-14786484D01*
X5134349Y-14786484D02*
X5153396Y-14796008D01*
X5153396Y-14796008D02*
X5162920Y-14805531D01*
X5162920Y-14805531D02*
X5172444Y-14824579D01*
X5172444Y-14824579D02*
X5181968Y-14862674D01*
X5181968Y-14862674D02*
X5181968Y-14910293D01*
X5181968Y-14910293D02*
X5172444Y-14948388D01*
X5172444Y-14948388D02*
X5162920Y-14967436D01*
X5162920Y-14967436D02*
X5153396Y-14976960D01*
X5153396Y-14976960D02*
X5134349Y-14986484D01*
X5134349Y-14986484D02*
X5115301Y-14986484D01*
X5115301Y-14986484D02*
X5096253Y-14976960D01*
X5096253Y-14976960D02*
X5086729Y-14967436D01*
X5086729Y-14967436D02*
X5077206Y-14948388D01*
X5077206Y-14948388D02*
X5067682Y-14910293D01*
X5067682Y-14910293D02*
X5067682Y-14862674D01*
X5067682Y-14862674D02*
X5077206Y-14824579D01*
X5077206Y-14824579D02*
X5086729Y-14805531D01*
X5086729Y-14805531D02*
X5096253Y-14796008D01*
X5096253Y-14796008D02*
X5115301Y-14786484D01*
X5248634Y-14786484D02*
X5372444Y-14786484D01*
X5372444Y-14786484D02*
X5305777Y-14862674D01*
X5305777Y-14862674D02*
X5334349Y-14862674D01*
X5334349Y-14862674D02*
X5353396Y-14872198D01*
X5353396Y-14872198D02*
X5362920Y-14881722D01*
X5362920Y-14881722D02*
X5372444Y-14900769D01*
X5372444Y-14900769D02*
X5372444Y-14948388D01*
X5372444Y-14948388D02*
X5362920Y-14967436D01*
X5362920Y-14967436D02*
X5353396Y-14976960D01*
X5353396Y-14976960D02*
X5334349Y-14986484D01*
X5334349Y-14986484D02*
X5277206Y-14986484D01*
X5277206Y-14986484D02*
X5258158Y-14976960D01*
X5258158Y-14976960D02*
X5248634Y-14967436D01*
X5448634Y-14786484D02*
X5448634Y-14824579D01*
X5524825Y-14786484D02*
X5524825Y-14824579D01*
X5820063Y-15062674D02*
X5810539Y-15053150D01*
X5810539Y-15053150D02*
X5791491Y-15024579D01*
X5791491Y-15024579D02*
X5781968Y-15005531D01*
X5781968Y-15005531D02*
X5772444Y-14976960D01*
X5772444Y-14976960D02*
X5762920Y-14929341D01*
X5762920Y-14929341D02*
X5762920Y-14891246D01*
X5762920Y-14891246D02*
X5772444Y-14843627D01*
X5772444Y-14843627D02*
X5781968Y-14815055D01*
X5781968Y-14815055D02*
X5791491Y-14796008D01*
X5791491Y-14796008D02*
X5810539Y-14767436D01*
X5810539Y-14767436D02*
X5820063Y-14757912D01*
X5886729Y-14805531D02*
X5896253Y-14796008D01*
X5896253Y-14796008D02*
X5915301Y-14786484D01*
X5915301Y-14786484D02*
X5962920Y-14786484D01*
X5962920Y-14786484D02*
X5981968Y-14796008D01*
X5981968Y-14796008D02*
X5991491Y-14805531D01*
X5991491Y-14805531D02*
X6001015Y-14824579D01*
X6001015Y-14824579D02*
X6001015Y-14843627D01*
X6001015Y-14843627D02*
X5991491Y-14872198D01*
X5991491Y-14872198D02*
X5877206Y-14986484D01*
X5877206Y-14986484D02*
X6001015Y-14986484D01*
X6115301Y-14872198D02*
X6096253Y-14862674D01*
X6096253Y-14862674D02*
X6086729Y-14853150D01*
X6086729Y-14853150D02*
X6077206Y-14834103D01*
X6077206Y-14834103D02*
X6077206Y-14824579D01*
X6077206Y-14824579D02*
X6086729Y-14805531D01*
X6086729Y-14805531D02*
X6096253Y-14796008D01*
X6096253Y-14796008D02*
X6115301Y-14786484D01*
X6115301Y-14786484D02*
X6153396Y-14786484D01*
X6153396Y-14786484D02*
X6172444Y-14796008D01*
X6172444Y-14796008D02*
X6181968Y-14805531D01*
X6181968Y-14805531D02*
X6191491Y-14824579D01*
X6191491Y-14824579D02*
X6191491Y-14834103D01*
X6191491Y-14834103D02*
X6181968Y-14853150D01*
X6181968Y-14853150D02*
X6172444Y-14862674D01*
X6172444Y-14862674D02*
X6153396Y-14872198D01*
X6153396Y-14872198D02*
X6115301Y-14872198D01*
X6115301Y-14872198D02*
X6096253Y-14881722D01*
X6096253Y-14881722D02*
X6086729Y-14891246D01*
X6086729Y-14891246D02*
X6077206Y-14910293D01*
X6077206Y-14910293D02*
X6077206Y-14948388D01*
X6077206Y-14948388D02*
X6086729Y-14967436D01*
X6086729Y-14967436D02*
X6096253Y-14976960D01*
X6096253Y-14976960D02*
X6115301Y-14986484D01*
X6115301Y-14986484D02*
X6153396Y-14986484D01*
X6153396Y-14986484D02*
X6172444Y-14976960D01*
X6172444Y-14976960D02*
X6181968Y-14967436D01*
X6181968Y-14967436D02*
X6191491Y-14948388D01*
X6191491Y-14948388D02*
X6191491Y-14910293D01*
X6191491Y-14910293D02*
X6181968Y-14891246D01*
X6181968Y-14891246D02*
X6172444Y-14881722D01*
X6172444Y-14881722D02*
X6153396Y-14872198D01*
X6429587Y-14986484D02*
X6429587Y-14786484D01*
X6515301Y-14986484D02*
X6515301Y-14881722D01*
X6515301Y-14881722D02*
X6505777Y-14862674D01*
X6505777Y-14862674D02*
X6486730Y-14853150D01*
X6486730Y-14853150D02*
X6458158Y-14853150D01*
X6458158Y-14853150D02*
X6439110Y-14862674D01*
X6439110Y-14862674D02*
X6429587Y-14872198D01*
X6639110Y-14986484D02*
X6620063Y-14976960D01*
X6620063Y-14976960D02*
X6610539Y-14967436D01*
X6610539Y-14967436D02*
X6601015Y-14948388D01*
X6601015Y-14948388D02*
X6601015Y-14891246D01*
X6601015Y-14891246D02*
X6610539Y-14872198D01*
X6610539Y-14872198D02*
X6620063Y-14862674D01*
X6620063Y-14862674D02*
X6639110Y-14853150D01*
X6639110Y-14853150D02*
X6667682Y-14853150D01*
X6667682Y-14853150D02*
X6686730Y-14862674D01*
X6686730Y-14862674D02*
X6696253Y-14872198D01*
X6696253Y-14872198D02*
X6705777Y-14891246D01*
X6705777Y-14891246D02*
X6705777Y-14948388D01*
X6705777Y-14948388D02*
X6696253Y-14967436D01*
X6696253Y-14967436D02*
X6686730Y-14976960D01*
X6686730Y-14976960D02*
X6667682Y-14986484D01*
X6667682Y-14986484D02*
X6639110Y-14986484D01*
X6820063Y-14986484D02*
X6801015Y-14976960D01*
X6801015Y-14976960D02*
X6791491Y-14957912D01*
X6791491Y-14957912D02*
X6791491Y-14786484D01*
X6972444Y-14976960D02*
X6953396Y-14986484D01*
X6953396Y-14986484D02*
X6915301Y-14986484D01*
X6915301Y-14986484D02*
X6896253Y-14976960D01*
X6896253Y-14976960D02*
X6886730Y-14957912D01*
X6886730Y-14957912D02*
X6886730Y-14881722D01*
X6886730Y-14881722D02*
X6896253Y-14862674D01*
X6896253Y-14862674D02*
X6915301Y-14853150D01*
X6915301Y-14853150D02*
X6953396Y-14853150D01*
X6953396Y-14853150D02*
X6972444Y-14862674D01*
X6972444Y-14862674D02*
X6981968Y-14881722D01*
X6981968Y-14881722D02*
X6981968Y-14900769D01*
X6981968Y-14900769D02*
X6886730Y-14919817D01*
X7058158Y-14976960D02*
X7077206Y-14986484D01*
X7077206Y-14986484D02*
X7115301Y-14986484D01*
X7115301Y-14986484D02*
X7134349Y-14976960D01*
X7134349Y-14976960D02*
X7143872Y-14957912D01*
X7143872Y-14957912D02*
X7143872Y-14948388D01*
X7143872Y-14948388D02*
X7134349Y-14929341D01*
X7134349Y-14929341D02*
X7115301Y-14919817D01*
X7115301Y-14919817D02*
X7086730Y-14919817D01*
X7086730Y-14919817D02*
X7067682Y-14910293D01*
X7067682Y-14910293D02*
X7058158Y-14891246D01*
X7058158Y-14891246D02*
X7058158Y-14881722D01*
X7058158Y-14881722D02*
X7067682Y-14862674D01*
X7067682Y-14862674D02*
X7086730Y-14853150D01*
X7086730Y-14853150D02*
X7115301Y-14853150D01*
X7115301Y-14853150D02*
X7134349Y-14862674D01*
X7210539Y-15062674D02*
X7220063Y-15053150D01*
X7220063Y-15053150D02*
X7239111Y-15024579D01*
X7239111Y-15024579D02*
X7248634Y-15005531D01*
X7248634Y-15005531D02*
X7258158Y-14976960D01*
X7258158Y-14976960D02*
X7267682Y-14929341D01*
X7267682Y-14929341D02*
X7267682Y-14891246D01*
X7267682Y-14891246D02*
X7258158Y-14843627D01*
X7258158Y-14843627D02*
X7248634Y-14815055D01*
X7248634Y-14815055D02*
X7239111Y-14796008D01*
X7239111Y-14796008D02*
X7220063Y-14767436D01*
X7220063Y-14767436D02*
X7210539Y-14757912D01*
D13*
X2245000Y-15159000D02*
G75*
G03*
X2245000Y-15159000I-40000J0D01*
G01*
D11*
X2543872Y-15050484D02*
X2562920Y-15050484D01*
X2562920Y-15050484D02*
X2581967Y-15060008D01*
X2581967Y-15060008D02*
X2591491Y-15069531D01*
X2591491Y-15069531D02*
X2601015Y-15088579D01*
X2601015Y-15088579D02*
X2610539Y-15126674D01*
X2610539Y-15126674D02*
X2610539Y-15174293D01*
X2610539Y-15174293D02*
X2601015Y-15212388D01*
X2601015Y-15212388D02*
X2591491Y-15231436D01*
X2591491Y-15231436D02*
X2581967Y-15240960D01*
X2581967Y-15240960D02*
X2562920Y-15250484D01*
X2562920Y-15250484D02*
X2543872Y-15250484D01*
X2543872Y-15250484D02*
X2524824Y-15240960D01*
X2524824Y-15240960D02*
X2515301Y-15231436D01*
X2515301Y-15231436D02*
X2505777Y-15212388D01*
X2505777Y-15212388D02*
X2496253Y-15174293D01*
X2496253Y-15174293D02*
X2496253Y-15126674D01*
X2496253Y-15126674D02*
X2505777Y-15088579D01*
X2505777Y-15088579D02*
X2515301Y-15069531D01*
X2515301Y-15069531D02*
X2524824Y-15060008D01*
X2524824Y-15060008D02*
X2543872Y-15050484D01*
X2696253Y-15231436D02*
X2705777Y-15240960D01*
X2705777Y-15240960D02*
X2696253Y-15250484D01*
X2696253Y-15250484D02*
X2686729Y-15240960D01*
X2686729Y-15240960D02*
X2696253Y-15231436D01*
X2696253Y-15231436D02*
X2696253Y-15250484D01*
X2820062Y-15136198D02*
X2801015Y-15126674D01*
X2801015Y-15126674D02*
X2791491Y-15117150D01*
X2791491Y-15117150D02*
X2781967Y-15098103D01*
X2781967Y-15098103D02*
X2781967Y-15088579D01*
X2781967Y-15088579D02*
X2791491Y-15069531D01*
X2791491Y-15069531D02*
X2801015Y-15060008D01*
X2801015Y-15060008D02*
X2820062Y-15050484D01*
X2820062Y-15050484D02*
X2858158Y-15050484D01*
X2858158Y-15050484D02*
X2877205Y-15060008D01*
X2877205Y-15060008D02*
X2886729Y-15069531D01*
X2886729Y-15069531D02*
X2896253Y-15088579D01*
X2896253Y-15088579D02*
X2896253Y-15098103D01*
X2896253Y-15098103D02*
X2886729Y-15117150D01*
X2886729Y-15117150D02*
X2877205Y-15126674D01*
X2877205Y-15126674D02*
X2858158Y-15136198D01*
X2858158Y-15136198D02*
X2820062Y-15136198D01*
X2820062Y-15136198D02*
X2801015Y-15145722D01*
X2801015Y-15145722D02*
X2791491Y-15155246D01*
X2791491Y-15155246D02*
X2781967Y-15174293D01*
X2781967Y-15174293D02*
X2781967Y-15212388D01*
X2781967Y-15212388D02*
X2791491Y-15231436D01*
X2791491Y-15231436D02*
X2801015Y-15240960D01*
X2801015Y-15240960D02*
X2820062Y-15250484D01*
X2820062Y-15250484D02*
X2858158Y-15250484D01*
X2858158Y-15250484D02*
X2877205Y-15240960D01*
X2877205Y-15240960D02*
X2886729Y-15231436D01*
X2886729Y-15231436D02*
X2896253Y-15212388D01*
X2896253Y-15212388D02*
X2896253Y-15174293D01*
X2896253Y-15174293D02*
X2886729Y-15155246D01*
X2886729Y-15155246D02*
X2877205Y-15145722D01*
X2877205Y-15145722D02*
X2858158Y-15136198D01*
X3020062Y-15050484D02*
X3039110Y-15050484D01*
X3039110Y-15050484D02*
X3058158Y-15060008D01*
X3058158Y-15060008D02*
X3067682Y-15069531D01*
X3067682Y-15069531D02*
X3077205Y-15088579D01*
X3077205Y-15088579D02*
X3086729Y-15126674D01*
X3086729Y-15126674D02*
X3086729Y-15174293D01*
X3086729Y-15174293D02*
X3077205Y-15212388D01*
X3077205Y-15212388D02*
X3067682Y-15231436D01*
X3067682Y-15231436D02*
X3058158Y-15240960D01*
X3058158Y-15240960D02*
X3039110Y-15250484D01*
X3039110Y-15250484D02*
X3020062Y-15250484D01*
X3020062Y-15250484D02*
X3001015Y-15240960D01*
X3001015Y-15240960D02*
X2991491Y-15231436D01*
X2991491Y-15231436D02*
X2981967Y-15212388D01*
X2981967Y-15212388D02*
X2972443Y-15174293D01*
X2972443Y-15174293D02*
X2972443Y-15126674D01*
X2972443Y-15126674D02*
X2981967Y-15088579D01*
X2981967Y-15088579D02*
X2991491Y-15069531D01*
X2991491Y-15069531D02*
X3001015Y-15060008D01*
X3001015Y-15060008D02*
X3020062Y-15050484D01*
X3210539Y-15050484D02*
X3229586Y-15050484D01*
X3229586Y-15050484D02*
X3248634Y-15060008D01*
X3248634Y-15060008D02*
X3258158Y-15069531D01*
X3258158Y-15069531D02*
X3267682Y-15088579D01*
X3267682Y-15088579D02*
X3277205Y-15126674D01*
X3277205Y-15126674D02*
X3277205Y-15174293D01*
X3277205Y-15174293D02*
X3267682Y-15212388D01*
X3267682Y-15212388D02*
X3258158Y-15231436D01*
X3258158Y-15231436D02*
X3248634Y-15240960D01*
X3248634Y-15240960D02*
X3229586Y-15250484D01*
X3229586Y-15250484D02*
X3210539Y-15250484D01*
X3210539Y-15250484D02*
X3191491Y-15240960D01*
X3191491Y-15240960D02*
X3181967Y-15231436D01*
X3181967Y-15231436D02*
X3172443Y-15212388D01*
X3172443Y-15212388D02*
X3162920Y-15174293D01*
X3162920Y-15174293D02*
X3162920Y-15126674D01*
X3162920Y-15126674D02*
X3172443Y-15088579D01*
X3172443Y-15088579D02*
X3181967Y-15069531D01*
X3181967Y-15069531D02*
X3191491Y-15060008D01*
X3191491Y-15060008D02*
X3210539Y-15050484D01*
X3362920Y-15250484D02*
X3362920Y-15117150D01*
X3362920Y-15136198D02*
X3372443Y-15126674D01*
X3372443Y-15126674D02*
X3391491Y-15117150D01*
X3391491Y-15117150D02*
X3420063Y-15117150D01*
X3420063Y-15117150D02*
X3439110Y-15126674D01*
X3439110Y-15126674D02*
X3448634Y-15145722D01*
X3448634Y-15145722D02*
X3448634Y-15250484D01*
X3448634Y-15145722D02*
X3458158Y-15126674D01*
X3458158Y-15126674D02*
X3477205Y-15117150D01*
X3477205Y-15117150D02*
X3505777Y-15117150D01*
X3505777Y-15117150D02*
X3524824Y-15126674D01*
X3524824Y-15126674D02*
X3534348Y-15145722D01*
X3534348Y-15145722D02*
X3534348Y-15250484D01*
X3629586Y-15250484D02*
X3629586Y-15117150D01*
X3629586Y-15136198D02*
X3639110Y-15126674D01*
X3639110Y-15126674D02*
X3658158Y-15117150D01*
X3658158Y-15117150D02*
X3686729Y-15117150D01*
X3686729Y-15117150D02*
X3705777Y-15126674D01*
X3705777Y-15126674D02*
X3715301Y-15145722D01*
X3715301Y-15145722D02*
X3715301Y-15250484D01*
X3715301Y-15145722D02*
X3724824Y-15126674D01*
X3724824Y-15126674D02*
X3743872Y-15117150D01*
X3743872Y-15117150D02*
X3772443Y-15117150D01*
X3772443Y-15117150D02*
X3791491Y-15126674D01*
X3791491Y-15126674D02*
X3801015Y-15145722D01*
X3801015Y-15145722D02*
X3801015Y-15250484D01*
X4191491Y-15040960D02*
X4020063Y-15298103D01*
X4448634Y-15050484D02*
X4467682Y-15050484D01*
X4467682Y-15050484D02*
X4486729Y-15060008D01*
X4486729Y-15060008D02*
X4496253Y-15069531D01*
X4496253Y-15069531D02*
X4505777Y-15088579D01*
X4505777Y-15088579D02*
X4515301Y-15126674D01*
X4515301Y-15126674D02*
X4515301Y-15174293D01*
X4515301Y-15174293D02*
X4505777Y-15212388D01*
X4505777Y-15212388D02*
X4496253Y-15231436D01*
X4496253Y-15231436D02*
X4486729Y-15240960D01*
X4486729Y-15240960D02*
X4467682Y-15250484D01*
X4467682Y-15250484D02*
X4448634Y-15250484D01*
X4448634Y-15250484D02*
X4429587Y-15240960D01*
X4429587Y-15240960D02*
X4420063Y-15231436D01*
X4420063Y-15231436D02*
X4410539Y-15212388D01*
X4410539Y-15212388D02*
X4401015Y-15174293D01*
X4401015Y-15174293D02*
X4401015Y-15126674D01*
X4401015Y-15126674D02*
X4410539Y-15088579D01*
X4410539Y-15088579D02*
X4420063Y-15069531D01*
X4420063Y-15069531D02*
X4429587Y-15060008D01*
X4429587Y-15060008D02*
X4448634Y-15050484D01*
X4601015Y-15231436D02*
X4610539Y-15240960D01*
X4610539Y-15240960D02*
X4601015Y-15250484D01*
X4601015Y-15250484D02*
X4591491Y-15240960D01*
X4591491Y-15240960D02*
X4601015Y-15231436D01*
X4601015Y-15231436D02*
X4601015Y-15250484D01*
X4734348Y-15050484D02*
X4753396Y-15050484D01*
X4753396Y-15050484D02*
X4772444Y-15060008D01*
X4772444Y-15060008D02*
X4781968Y-15069531D01*
X4781968Y-15069531D02*
X4791491Y-15088579D01*
X4791491Y-15088579D02*
X4801015Y-15126674D01*
X4801015Y-15126674D02*
X4801015Y-15174293D01*
X4801015Y-15174293D02*
X4791491Y-15212388D01*
X4791491Y-15212388D02*
X4781968Y-15231436D01*
X4781968Y-15231436D02*
X4772444Y-15240960D01*
X4772444Y-15240960D02*
X4753396Y-15250484D01*
X4753396Y-15250484D02*
X4734348Y-15250484D01*
X4734348Y-15250484D02*
X4715301Y-15240960D01*
X4715301Y-15240960D02*
X4705777Y-15231436D01*
X4705777Y-15231436D02*
X4696253Y-15212388D01*
X4696253Y-15212388D02*
X4686729Y-15174293D01*
X4686729Y-15174293D02*
X4686729Y-15126674D01*
X4686729Y-15126674D02*
X4696253Y-15088579D01*
X4696253Y-15088579D02*
X4705777Y-15069531D01*
X4705777Y-15069531D02*
X4715301Y-15060008D01*
X4715301Y-15060008D02*
X4734348Y-15050484D01*
X4867682Y-15050484D02*
X4991491Y-15050484D01*
X4991491Y-15050484D02*
X4924825Y-15126674D01*
X4924825Y-15126674D02*
X4953396Y-15126674D01*
X4953396Y-15126674D02*
X4972444Y-15136198D01*
X4972444Y-15136198D02*
X4981968Y-15145722D01*
X4981968Y-15145722D02*
X4991491Y-15164769D01*
X4991491Y-15164769D02*
X4991491Y-15212388D01*
X4991491Y-15212388D02*
X4981968Y-15231436D01*
X4981968Y-15231436D02*
X4972444Y-15240960D01*
X4972444Y-15240960D02*
X4953396Y-15250484D01*
X4953396Y-15250484D02*
X4896253Y-15250484D01*
X4896253Y-15250484D02*
X4877206Y-15240960D01*
X4877206Y-15240960D02*
X4867682Y-15231436D01*
X5181968Y-15250484D02*
X5067682Y-15250484D01*
X5124825Y-15250484D02*
X5124825Y-15050484D01*
X5124825Y-15050484D02*
X5105777Y-15079055D01*
X5105777Y-15079055D02*
X5086729Y-15098103D01*
X5086729Y-15098103D02*
X5067682Y-15107627D01*
X5362920Y-15050484D02*
X5267682Y-15050484D01*
X5267682Y-15050484D02*
X5258158Y-15145722D01*
X5258158Y-15145722D02*
X5267682Y-15136198D01*
X5267682Y-15136198D02*
X5286729Y-15126674D01*
X5286729Y-15126674D02*
X5334349Y-15126674D01*
X5334349Y-15126674D02*
X5353396Y-15136198D01*
X5353396Y-15136198D02*
X5362920Y-15145722D01*
X5362920Y-15145722D02*
X5372444Y-15164769D01*
X5372444Y-15164769D02*
X5372444Y-15212388D01*
X5372444Y-15212388D02*
X5362920Y-15231436D01*
X5362920Y-15231436D02*
X5353396Y-15240960D01*
X5353396Y-15240960D02*
X5334349Y-15250484D01*
X5334349Y-15250484D02*
X5286729Y-15250484D01*
X5286729Y-15250484D02*
X5267682Y-15240960D01*
X5267682Y-15240960D02*
X5258158Y-15231436D01*
X5448634Y-15050484D02*
X5448634Y-15088579D01*
X5524825Y-15050484D02*
X5524825Y-15088579D01*
X5820063Y-15326674D02*
X5810539Y-15317150D01*
X5810539Y-15317150D02*
X5791491Y-15288579D01*
X5791491Y-15288579D02*
X5781968Y-15269531D01*
X5781968Y-15269531D02*
X5772444Y-15240960D01*
X5772444Y-15240960D02*
X5762920Y-15193341D01*
X5762920Y-15193341D02*
X5762920Y-15155246D01*
X5762920Y-15155246D02*
X5772444Y-15107627D01*
X5772444Y-15107627D02*
X5781968Y-15079055D01*
X5781968Y-15079055D02*
X5791491Y-15060008D01*
X5791491Y-15060008D02*
X5810539Y-15031436D01*
X5810539Y-15031436D02*
X5820063Y-15021912D01*
X5877206Y-15050484D02*
X6010539Y-15050484D01*
X6010539Y-15050484D02*
X5924825Y-15250484D01*
X6077206Y-15069531D02*
X6086729Y-15060008D01*
X6086729Y-15060008D02*
X6105777Y-15050484D01*
X6105777Y-15050484D02*
X6153396Y-15050484D01*
X6153396Y-15050484D02*
X6172444Y-15060008D01*
X6172444Y-15060008D02*
X6181968Y-15069531D01*
X6181968Y-15069531D02*
X6191491Y-15088579D01*
X6191491Y-15088579D02*
X6191491Y-15107627D01*
X6191491Y-15107627D02*
X6181968Y-15136198D01*
X6181968Y-15136198D02*
X6067682Y-15250484D01*
X6067682Y-15250484D02*
X6191491Y-15250484D01*
X6429587Y-15250484D02*
X6429587Y-15050484D01*
X6515301Y-15250484D02*
X6515301Y-15145722D01*
X6515301Y-15145722D02*
X6505777Y-15126674D01*
X6505777Y-15126674D02*
X6486730Y-15117150D01*
X6486730Y-15117150D02*
X6458158Y-15117150D01*
X6458158Y-15117150D02*
X6439110Y-15126674D01*
X6439110Y-15126674D02*
X6429587Y-15136198D01*
X6639110Y-15250484D02*
X6620063Y-15240960D01*
X6620063Y-15240960D02*
X6610539Y-15231436D01*
X6610539Y-15231436D02*
X6601015Y-15212388D01*
X6601015Y-15212388D02*
X6601015Y-15155246D01*
X6601015Y-15155246D02*
X6610539Y-15136198D01*
X6610539Y-15136198D02*
X6620063Y-15126674D01*
X6620063Y-15126674D02*
X6639110Y-15117150D01*
X6639110Y-15117150D02*
X6667682Y-15117150D01*
X6667682Y-15117150D02*
X6686730Y-15126674D01*
X6686730Y-15126674D02*
X6696253Y-15136198D01*
X6696253Y-15136198D02*
X6705777Y-15155246D01*
X6705777Y-15155246D02*
X6705777Y-15212388D01*
X6705777Y-15212388D02*
X6696253Y-15231436D01*
X6696253Y-15231436D02*
X6686730Y-15240960D01*
X6686730Y-15240960D02*
X6667682Y-15250484D01*
X6667682Y-15250484D02*
X6639110Y-15250484D01*
X6820063Y-15250484D02*
X6801015Y-15240960D01*
X6801015Y-15240960D02*
X6791491Y-15221912D01*
X6791491Y-15221912D02*
X6791491Y-15050484D01*
X6972444Y-15240960D02*
X6953396Y-15250484D01*
X6953396Y-15250484D02*
X6915301Y-15250484D01*
X6915301Y-15250484D02*
X6896253Y-15240960D01*
X6896253Y-15240960D02*
X6886730Y-15221912D01*
X6886730Y-15221912D02*
X6886730Y-15145722D01*
X6886730Y-15145722D02*
X6896253Y-15126674D01*
X6896253Y-15126674D02*
X6915301Y-15117150D01*
X6915301Y-15117150D02*
X6953396Y-15117150D01*
X6953396Y-15117150D02*
X6972444Y-15126674D01*
X6972444Y-15126674D02*
X6981968Y-15145722D01*
X6981968Y-15145722D02*
X6981968Y-15164769D01*
X6981968Y-15164769D02*
X6886730Y-15183817D01*
X7058158Y-15240960D02*
X7077206Y-15250484D01*
X7077206Y-15250484D02*
X7115301Y-15250484D01*
X7115301Y-15250484D02*
X7134349Y-15240960D01*
X7134349Y-15240960D02*
X7143872Y-15221912D01*
X7143872Y-15221912D02*
X7143872Y-15212388D01*
X7143872Y-15212388D02*
X7134349Y-15193341D01*
X7134349Y-15193341D02*
X7115301Y-15183817D01*
X7115301Y-15183817D02*
X7086730Y-15183817D01*
X7086730Y-15183817D02*
X7067682Y-15174293D01*
X7067682Y-15174293D02*
X7058158Y-15155246D01*
X7058158Y-15155246D02*
X7058158Y-15145722D01*
X7058158Y-15145722D02*
X7067682Y-15126674D01*
X7067682Y-15126674D02*
X7086730Y-15117150D01*
X7086730Y-15117150D02*
X7115301Y-15117150D01*
X7115301Y-15117150D02*
X7134349Y-15126674D01*
X7210539Y-15326674D02*
X7220063Y-15317150D01*
X7220063Y-15317150D02*
X7239111Y-15288579D01*
X7239111Y-15288579D02*
X7248634Y-15269531D01*
X7248634Y-15269531D02*
X7258158Y-15240960D01*
X7258158Y-15240960D02*
X7267682Y-15193341D01*
X7267682Y-15193341D02*
X7267682Y-15155246D01*
X7267682Y-15155246D02*
X7258158Y-15107627D01*
X7258158Y-15107627D02*
X7248634Y-15079055D01*
X7248634Y-15079055D02*
X7239111Y-15060008D01*
X7239111Y-15060008D02*
X7220063Y-15031436D01*
X7220063Y-15031436D02*
X7210539Y-15021912D01*
D14*
X2200000Y-15378000D02*
X2200000Y-15468000D01*
X2155000Y-15423000D02*
X2245000Y-15423000D01*
D11*
X2543872Y-15314484D02*
X2562920Y-15314484D01*
X2562920Y-15314484D02*
X2581967Y-15324008D01*
X2581967Y-15324008D02*
X2591491Y-15333531D01*
X2591491Y-15333531D02*
X2601015Y-15352579D01*
X2601015Y-15352579D02*
X2610539Y-15390674D01*
X2610539Y-15390674D02*
X2610539Y-15438293D01*
X2610539Y-15438293D02*
X2601015Y-15476388D01*
X2601015Y-15476388D02*
X2591491Y-15495436D01*
X2591491Y-15495436D02*
X2581967Y-15504960D01*
X2581967Y-15504960D02*
X2562920Y-15514484D01*
X2562920Y-15514484D02*
X2543872Y-15514484D01*
X2543872Y-15514484D02*
X2524824Y-15504960D01*
X2524824Y-15504960D02*
X2515301Y-15495436D01*
X2515301Y-15495436D02*
X2505777Y-15476388D01*
X2505777Y-15476388D02*
X2496253Y-15438293D01*
X2496253Y-15438293D02*
X2496253Y-15390674D01*
X2496253Y-15390674D02*
X2505777Y-15352579D01*
X2505777Y-15352579D02*
X2515301Y-15333531D01*
X2515301Y-15333531D02*
X2524824Y-15324008D01*
X2524824Y-15324008D02*
X2543872Y-15314484D01*
X2696253Y-15495436D02*
X2705777Y-15504960D01*
X2705777Y-15504960D02*
X2696253Y-15514484D01*
X2696253Y-15514484D02*
X2686729Y-15504960D01*
X2686729Y-15504960D02*
X2696253Y-15495436D01*
X2696253Y-15495436D02*
X2696253Y-15514484D01*
X2801015Y-15514484D02*
X2839110Y-15514484D01*
X2839110Y-15514484D02*
X2858158Y-15504960D01*
X2858158Y-15504960D02*
X2867682Y-15495436D01*
X2867682Y-15495436D02*
X2886729Y-15466865D01*
X2886729Y-15466865D02*
X2896253Y-15428769D01*
X2896253Y-15428769D02*
X2896253Y-15352579D01*
X2896253Y-15352579D02*
X2886729Y-15333531D01*
X2886729Y-15333531D02*
X2877205Y-15324008D01*
X2877205Y-15324008D02*
X2858158Y-15314484D01*
X2858158Y-15314484D02*
X2820062Y-15314484D01*
X2820062Y-15314484D02*
X2801015Y-15324008D01*
X2801015Y-15324008D02*
X2791491Y-15333531D01*
X2791491Y-15333531D02*
X2781967Y-15352579D01*
X2781967Y-15352579D02*
X2781967Y-15400198D01*
X2781967Y-15400198D02*
X2791491Y-15419246D01*
X2791491Y-15419246D02*
X2801015Y-15428769D01*
X2801015Y-15428769D02*
X2820062Y-15438293D01*
X2820062Y-15438293D02*
X2858158Y-15438293D01*
X2858158Y-15438293D02*
X2877205Y-15428769D01*
X2877205Y-15428769D02*
X2886729Y-15419246D01*
X2886729Y-15419246D02*
X2896253Y-15400198D01*
X3020062Y-15314484D02*
X3039110Y-15314484D01*
X3039110Y-15314484D02*
X3058158Y-15324008D01*
X3058158Y-15324008D02*
X3067682Y-15333531D01*
X3067682Y-15333531D02*
X3077205Y-15352579D01*
X3077205Y-15352579D02*
X3086729Y-15390674D01*
X3086729Y-15390674D02*
X3086729Y-15438293D01*
X3086729Y-15438293D02*
X3077205Y-15476388D01*
X3077205Y-15476388D02*
X3067682Y-15495436D01*
X3067682Y-15495436D02*
X3058158Y-15504960D01*
X3058158Y-15504960D02*
X3039110Y-15514484D01*
X3039110Y-15514484D02*
X3020062Y-15514484D01*
X3020062Y-15514484D02*
X3001015Y-15504960D01*
X3001015Y-15504960D02*
X2991491Y-15495436D01*
X2991491Y-15495436D02*
X2981967Y-15476388D01*
X2981967Y-15476388D02*
X2972443Y-15438293D01*
X2972443Y-15438293D02*
X2972443Y-15390674D01*
X2972443Y-15390674D02*
X2981967Y-15352579D01*
X2981967Y-15352579D02*
X2991491Y-15333531D01*
X2991491Y-15333531D02*
X3001015Y-15324008D01*
X3001015Y-15324008D02*
X3020062Y-15314484D01*
X3210539Y-15314484D02*
X3229586Y-15314484D01*
X3229586Y-15314484D02*
X3248634Y-15324008D01*
X3248634Y-15324008D02*
X3258158Y-15333531D01*
X3258158Y-15333531D02*
X3267682Y-15352579D01*
X3267682Y-15352579D02*
X3277205Y-15390674D01*
X3277205Y-15390674D02*
X3277205Y-15438293D01*
X3277205Y-15438293D02*
X3267682Y-15476388D01*
X3267682Y-15476388D02*
X3258158Y-15495436D01*
X3258158Y-15495436D02*
X3248634Y-15504960D01*
X3248634Y-15504960D02*
X3229586Y-15514484D01*
X3229586Y-15514484D02*
X3210539Y-15514484D01*
X3210539Y-15514484D02*
X3191491Y-15504960D01*
X3191491Y-15504960D02*
X3181967Y-15495436D01*
X3181967Y-15495436D02*
X3172443Y-15476388D01*
X3172443Y-15476388D02*
X3162920Y-15438293D01*
X3162920Y-15438293D02*
X3162920Y-15390674D01*
X3162920Y-15390674D02*
X3172443Y-15352579D01*
X3172443Y-15352579D02*
X3181967Y-15333531D01*
X3181967Y-15333531D02*
X3191491Y-15324008D01*
X3191491Y-15324008D02*
X3210539Y-15314484D01*
X3362920Y-15514484D02*
X3362920Y-15381150D01*
X3362920Y-15400198D02*
X3372443Y-15390674D01*
X3372443Y-15390674D02*
X3391491Y-15381150D01*
X3391491Y-15381150D02*
X3420063Y-15381150D01*
X3420063Y-15381150D02*
X3439110Y-15390674D01*
X3439110Y-15390674D02*
X3448634Y-15409722D01*
X3448634Y-15409722D02*
X3448634Y-15514484D01*
X3448634Y-15409722D02*
X3458158Y-15390674D01*
X3458158Y-15390674D02*
X3477205Y-15381150D01*
X3477205Y-15381150D02*
X3505777Y-15381150D01*
X3505777Y-15381150D02*
X3524824Y-15390674D01*
X3524824Y-15390674D02*
X3534348Y-15409722D01*
X3534348Y-15409722D02*
X3534348Y-15514484D01*
X3629586Y-15514484D02*
X3629586Y-15381150D01*
X3629586Y-15400198D02*
X3639110Y-15390674D01*
X3639110Y-15390674D02*
X3658158Y-15381150D01*
X3658158Y-15381150D02*
X3686729Y-15381150D01*
X3686729Y-15381150D02*
X3705777Y-15390674D01*
X3705777Y-15390674D02*
X3715301Y-15409722D01*
X3715301Y-15409722D02*
X3715301Y-15514484D01*
X3715301Y-15409722D02*
X3724824Y-15390674D01*
X3724824Y-15390674D02*
X3743872Y-15381150D01*
X3743872Y-15381150D02*
X3772443Y-15381150D01*
X3772443Y-15381150D02*
X3791491Y-15390674D01*
X3791491Y-15390674D02*
X3801015Y-15409722D01*
X3801015Y-15409722D02*
X3801015Y-15514484D01*
X4191491Y-15304960D02*
X4020063Y-15562103D01*
X4448634Y-15314484D02*
X4467682Y-15314484D01*
X4467682Y-15314484D02*
X4486729Y-15324008D01*
X4486729Y-15324008D02*
X4496253Y-15333531D01*
X4496253Y-15333531D02*
X4505777Y-15352579D01*
X4505777Y-15352579D02*
X4515301Y-15390674D01*
X4515301Y-15390674D02*
X4515301Y-15438293D01*
X4515301Y-15438293D02*
X4505777Y-15476388D01*
X4505777Y-15476388D02*
X4496253Y-15495436D01*
X4496253Y-15495436D02*
X4486729Y-15504960D01*
X4486729Y-15504960D02*
X4467682Y-15514484D01*
X4467682Y-15514484D02*
X4448634Y-15514484D01*
X4448634Y-15514484D02*
X4429587Y-15504960D01*
X4429587Y-15504960D02*
X4420063Y-15495436D01*
X4420063Y-15495436D02*
X4410539Y-15476388D01*
X4410539Y-15476388D02*
X4401015Y-15438293D01*
X4401015Y-15438293D02*
X4401015Y-15390674D01*
X4401015Y-15390674D02*
X4410539Y-15352579D01*
X4410539Y-15352579D02*
X4420063Y-15333531D01*
X4420063Y-15333531D02*
X4429587Y-15324008D01*
X4429587Y-15324008D02*
X4448634Y-15314484D01*
X4601015Y-15495436D02*
X4610539Y-15504960D01*
X4610539Y-15504960D02*
X4601015Y-15514484D01*
X4601015Y-15514484D02*
X4591491Y-15504960D01*
X4591491Y-15504960D02*
X4601015Y-15495436D01*
X4601015Y-15495436D02*
X4601015Y-15514484D01*
X4734348Y-15314484D02*
X4753396Y-15314484D01*
X4753396Y-15314484D02*
X4772444Y-15324008D01*
X4772444Y-15324008D02*
X4781968Y-15333531D01*
X4781968Y-15333531D02*
X4791491Y-15352579D01*
X4791491Y-15352579D02*
X4801015Y-15390674D01*
X4801015Y-15390674D02*
X4801015Y-15438293D01*
X4801015Y-15438293D02*
X4791491Y-15476388D01*
X4791491Y-15476388D02*
X4781968Y-15495436D01*
X4781968Y-15495436D02*
X4772444Y-15504960D01*
X4772444Y-15504960D02*
X4753396Y-15514484D01*
X4753396Y-15514484D02*
X4734348Y-15514484D01*
X4734348Y-15514484D02*
X4715301Y-15504960D01*
X4715301Y-15504960D02*
X4705777Y-15495436D01*
X4705777Y-15495436D02*
X4696253Y-15476388D01*
X4696253Y-15476388D02*
X4686729Y-15438293D01*
X4686729Y-15438293D02*
X4686729Y-15390674D01*
X4686729Y-15390674D02*
X4696253Y-15352579D01*
X4696253Y-15352579D02*
X4705777Y-15333531D01*
X4705777Y-15333531D02*
X4715301Y-15324008D01*
X4715301Y-15324008D02*
X4734348Y-15314484D01*
X4867682Y-15314484D02*
X4991491Y-15314484D01*
X4991491Y-15314484D02*
X4924825Y-15390674D01*
X4924825Y-15390674D02*
X4953396Y-15390674D01*
X4953396Y-15390674D02*
X4972444Y-15400198D01*
X4972444Y-15400198D02*
X4981968Y-15409722D01*
X4981968Y-15409722D02*
X4991491Y-15428769D01*
X4991491Y-15428769D02*
X4991491Y-15476388D01*
X4991491Y-15476388D02*
X4981968Y-15495436D01*
X4981968Y-15495436D02*
X4972444Y-15504960D01*
X4972444Y-15504960D02*
X4953396Y-15514484D01*
X4953396Y-15514484D02*
X4896253Y-15514484D01*
X4896253Y-15514484D02*
X4877206Y-15504960D01*
X4877206Y-15504960D02*
X4867682Y-15495436D01*
X5172444Y-15314484D02*
X5077206Y-15314484D01*
X5077206Y-15314484D02*
X5067682Y-15409722D01*
X5067682Y-15409722D02*
X5077206Y-15400198D01*
X5077206Y-15400198D02*
X5096253Y-15390674D01*
X5096253Y-15390674D02*
X5143872Y-15390674D01*
X5143872Y-15390674D02*
X5162920Y-15400198D01*
X5162920Y-15400198D02*
X5172444Y-15409722D01*
X5172444Y-15409722D02*
X5181968Y-15428769D01*
X5181968Y-15428769D02*
X5181968Y-15476388D01*
X5181968Y-15476388D02*
X5172444Y-15495436D01*
X5172444Y-15495436D02*
X5162920Y-15504960D01*
X5162920Y-15504960D02*
X5143872Y-15514484D01*
X5143872Y-15514484D02*
X5096253Y-15514484D01*
X5096253Y-15514484D02*
X5077206Y-15504960D01*
X5077206Y-15504960D02*
X5067682Y-15495436D01*
X5353396Y-15381150D02*
X5353396Y-15514484D01*
X5305777Y-15304960D02*
X5258158Y-15447817D01*
X5258158Y-15447817D02*
X5381968Y-15447817D01*
X5448634Y-15314484D02*
X5448634Y-15352579D01*
X5524825Y-15314484D02*
X5524825Y-15352579D01*
X5820063Y-15590674D02*
X5810539Y-15581150D01*
X5810539Y-15581150D02*
X5791491Y-15552579D01*
X5791491Y-15552579D02*
X5781968Y-15533531D01*
X5781968Y-15533531D02*
X5772444Y-15504960D01*
X5772444Y-15504960D02*
X5762920Y-15457341D01*
X5762920Y-15457341D02*
X5762920Y-15419246D01*
X5762920Y-15419246D02*
X5772444Y-15371627D01*
X5772444Y-15371627D02*
X5781968Y-15343055D01*
X5781968Y-15343055D02*
X5791491Y-15324008D01*
X5791491Y-15324008D02*
X5810539Y-15295436D01*
X5810539Y-15295436D02*
X5820063Y-15285912D01*
X6001015Y-15514484D02*
X5886729Y-15514484D01*
X5943872Y-15514484D02*
X5943872Y-15314484D01*
X5943872Y-15314484D02*
X5924825Y-15343055D01*
X5924825Y-15343055D02*
X5905777Y-15362103D01*
X5905777Y-15362103D02*
X5886729Y-15371627D01*
X6124825Y-15314484D02*
X6143872Y-15314484D01*
X6143872Y-15314484D02*
X6162920Y-15324008D01*
X6162920Y-15324008D02*
X6172444Y-15333531D01*
X6172444Y-15333531D02*
X6181968Y-15352579D01*
X6181968Y-15352579D02*
X6191491Y-15390674D01*
X6191491Y-15390674D02*
X6191491Y-15438293D01*
X6191491Y-15438293D02*
X6181968Y-15476388D01*
X6181968Y-15476388D02*
X6172444Y-15495436D01*
X6172444Y-15495436D02*
X6162920Y-15504960D01*
X6162920Y-15504960D02*
X6143872Y-15514484D01*
X6143872Y-15514484D02*
X6124825Y-15514484D01*
X6124825Y-15514484D02*
X6105777Y-15504960D01*
X6105777Y-15504960D02*
X6096253Y-15495436D01*
X6096253Y-15495436D02*
X6086729Y-15476388D01*
X6086729Y-15476388D02*
X6077206Y-15438293D01*
X6077206Y-15438293D02*
X6077206Y-15390674D01*
X6077206Y-15390674D02*
X6086729Y-15352579D01*
X6086729Y-15352579D02*
X6096253Y-15333531D01*
X6096253Y-15333531D02*
X6105777Y-15324008D01*
X6105777Y-15324008D02*
X6124825Y-15314484D01*
X6429587Y-15514484D02*
X6429587Y-15314484D01*
X6515301Y-15514484D02*
X6515301Y-15409722D01*
X6515301Y-15409722D02*
X6505777Y-15390674D01*
X6505777Y-15390674D02*
X6486730Y-15381150D01*
X6486730Y-15381150D02*
X6458158Y-15381150D01*
X6458158Y-15381150D02*
X6439110Y-15390674D01*
X6439110Y-15390674D02*
X6429587Y-15400198D01*
X6639110Y-15514484D02*
X6620063Y-15504960D01*
X6620063Y-15504960D02*
X6610539Y-15495436D01*
X6610539Y-15495436D02*
X6601015Y-15476388D01*
X6601015Y-15476388D02*
X6601015Y-15419246D01*
X6601015Y-15419246D02*
X6610539Y-15400198D01*
X6610539Y-15400198D02*
X6620063Y-15390674D01*
X6620063Y-15390674D02*
X6639110Y-15381150D01*
X6639110Y-15381150D02*
X6667682Y-15381150D01*
X6667682Y-15381150D02*
X6686730Y-15390674D01*
X6686730Y-15390674D02*
X6696253Y-15400198D01*
X6696253Y-15400198D02*
X6705777Y-15419246D01*
X6705777Y-15419246D02*
X6705777Y-15476388D01*
X6705777Y-15476388D02*
X6696253Y-15495436D01*
X6696253Y-15495436D02*
X6686730Y-15504960D01*
X6686730Y-15504960D02*
X6667682Y-15514484D01*
X6667682Y-15514484D02*
X6639110Y-15514484D01*
X6820063Y-15514484D02*
X6801015Y-15504960D01*
X6801015Y-15504960D02*
X6791491Y-15485912D01*
X6791491Y-15485912D02*
X6791491Y-15314484D01*
X6972444Y-15504960D02*
X6953396Y-15514484D01*
X6953396Y-15514484D02*
X6915301Y-15514484D01*
X6915301Y-15514484D02*
X6896253Y-15504960D01*
X6896253Y-15504960D02*
X6886730Y-15485912D01*
X6886730Y-15485912D02*
X6886730Y-15409722D01*
X6886730Y-15409722D02*
X6896253Y-15390674D01*
X6896253Y-15390674D02*
X6915301Y-15381150D01*
X6915301Y-15381150D02*
X6953396Y-15381150D01*
X6953396Y-15381150D02*
X6972444Y-15390674D01*
X6972444Y-15390674D02*
X6981968Y-15409722D01*
X6981968Y-15409722D02*
X6981968Y-15428769D01*
X6981968Y-15428769D02*
X6886730Y-15447817D01*
X7058158Y-15504960D02*
X7077206Y-15514484D01*
X7077206Y-15514484D02*
X7115301Y-15514484D01*
X7115301Y-15514484D02*
X7134349Y-15504960D01*
X7134349Y-15504960D02*
X7143872Y-15485912D01*
X7143872Y-15485912D02*
X7143872Y-15476388D01*
X7143872Y-15476388D02*
X7134349Y-15457341D01*
X7134349Y-15457341D02*
X7115301Y-15447817D01*
X7115301Y-15447817D02*
X7086730Y-15447817D01*
X7086730Y-15447817D02*
X7067682Y-15438293D01*
X7067682Y-15438293D02*
X7058158Y-15419246D01*
X7058158Y-15419246D02*
X7058158Y-15409722D01*
X7058158Y-15409722D02*
X7067682Y-15390674D01*
X7067682Y-15390674D02*
X7086730Y-15381150D01*
X7086730Y-15381150D02*
X7115301Y-15381150D01*
X7115301Y-15381150D02*
X7134349Y-15390674D01*
X7210539Y-15590674D02*
X7220063Y-15581150D01*
X7220063Y-15581150D02*
X7239111Y-15552579D01*
X7239111Y-15552579D02*
X7248634Y-15533531D01*
X7248634Y-15533531D02*
X7258158Y-15504960D01*
X7258158Y-15504960D02*
X7267682Y-15457341D01*
X7267682Y-15457341D02*
X7267682Y-15419246D01*
X7267682Y-15419246D02*
X7258158Y-15371627D01*
X7258158Y-15371627D02*
X7248634Y-15343055D01*
X7248634Y-15343055D02*
X7239111Y-15324008D01*
X7239111Y-15324008D02*
X7220063Y-15295436D01*
X7220063Y-15295436D02*
X7210539Y-15285912D01*
D10*
X2230356Y-15722356D02*
X2230356Y-15651644D01*
X2159644Y-15651644D01*
X2159644Y-15722356D01*
X2230356Y-15722356D01*
D11*
X2610539Y-15778484D02*
X2496253Y-15778484D01*
X2553396Y-15778484D02*
X2553396Y-15578484D01*
X2553396Y-15578484D02*
X2534348Y-15607055D01*
X2534348Y-15607055D02*
X2515301Y-15626103D01*
X2515301Y-15626103D02*
X2496253Y-15635627D01*
X2696253Y-15759436D02*
X2705777Y-15768960D01*
X2705777Y-15768960D02*
X2696253Y-15778484D01*
X2696253Y-15778484D02*
X2686729Y-15768960D01*
X2686729Y-15768960D02*
X2696253Y-15759436D01*
X2696253Y-15759436D02*
X2696253Y-15778484D01*
X2829586Y-15578484D02*
X2848634Y-15578484D01*
X2848634Y-15578484D02*
X2867682Y-15588008D01*
X2867682Y-15588008D02*
X2877205Y-15597531D01*
X2877205Y-15597531D02*
X2886729Y-15616579D01*
X2886729Y-15616579D02*
X2896253Y-15654674D01*
X2896253Y-15654674D02*
X2896253Y-15702293D01*
X2896253Y-15702293D02*
X2886729Y-15740388D01*
X2886729Y-15740388D02*
X2877205Y-15759436D01*
X2877205Y-15759436D02*
X2867682Y-15768960D01*
X2867682Y-15768960D02*
X2848634Y-15778484D01*
X2848634Y-15778484D02*
X2829586Y-15778484D01*
X2829586Y-15778484D02*
X2810539Y-15768960D01*
X2810539Y-15768960D02*
X2801015Y-15759436D01*
X2801015Y-15759436D02*
X2791491Y-15740388D01*
X2791491Y-15740388D02*
X2781967Y-15702293D01*
X2781967Y-15702293D02*
X2781967Y-15654674D01*
X2781967Y-15654674D02*
X2791491Y-15616579D01*
X2791491Y-15616579D02*
X2801015Y-15597531D01*
X2801015Y-15597531D02*
X2810539Y-15588008D01*
X2810539Y-15588008D02*
X2829586Y-15578484D01*
X3020062Y-15578484D02*
X3039110Y-15578484D01*
X3039110Y-15578484D02*
X3058158Y-15588008D01*
X3058158Y-15588008D02*
X3067682Y-15597531D01*
X3067682Y-15597531D02*
X3077205Y-15616579D01*
X3077205Y-15616579D02*
X3086729Y-15654674D01*
X3086729Y-15654674D02*
X3086729Y-15702293D01*
X3086729Y-15702293D02*
X3077205Y-15740388D01*
X3077205Y-15740388D02*
X3067682Y-15759436D01*
X3067682Y-15759436D02*
X3058158Y-15768960D01*
X3058158Y-15768960D02*
X3039110Y-15778484D01*
X3039110Y-15778484D02*
X3020062Y-15778484D01*
X3020062Y-15778484D02*
X3001015Y-15768960D01*
X3001015Y-15768960D02*
X2991491Y-15759436D01*
X2991491Y-15759436D02*
X2981967Y-15740388D01*
X2981967Y-15740388D02*
X2972443Y-15702293D01*
X2972443Y-15702293D02*
X2972443Y-15654674D01*
X2972443Y-15654674D02*
X2981967Y-15616579D01*
X2981967Y-15616579D02*
X2991491Y-15597531D01*
X2991491Y-15597531D02*
X3001015Y-15588008D01*
X3001015Y-15588008D02*
X3020062Y-15578484D01*
X3210539Y-15578484D02*
X3229586Y-15578484D01*
X3229586Y-15578484D02*
X3248634Y-15588008D01*
X3248634Y-15588008D02*
X3258158Y-15597531D01*
X3258158Y-15597531D02*
X3267682Y-15616579D01*
X3267682Y-15616579D02*
X3277205Y-15654674D01*
X3277205Y-15654674D02*
X3277205Y-15702293D01*
X3277205Y-15702293D02*
X3267682Y-15740388D01*
X3267682Y-15740388D02*
X3258158Y-15759436D01*
X3258158Y-15759436D02*
X3248634Y-15768960D01*
X3248634Y-15768960D02*
X3229586Y-15778484D01*
X3229586Y-15778484D02*
X3210539Y-15778484D01*
X3210539Y-15778484D02*
X3191491Y-15768960D01*
X3191491Y-15768960D02*
X3181967Y-15759436D01*
X3181967Y-15759436D02*
X3172443Y-15740388D01*
X3172443Y-15740388D02*
X3162920Y-15702293D01*
X3162920Y-15702293D02*
X3162920Y-15654674D01*
X3162920Y-15654674D02*
X3172443Y-15616579D01*
X3172443Y-15616579D02*
X3181967Y-15597531D01*
X3181967Y-15597531D02*
X3191491Y-15588008D01*
X3191491Y-15588008D02*
X3210539Y-15578484D01*
X3362920Y-15778484D02*
X3362920Y-15645150D01*
X3362920Y-15664198D02*
X3372443Y-15654674D01*
X3372443Y-15654674D02*
X3391491Y-15645150D01*
X3391491Y-15645150D02*
X3420063Y-15645150D01*
X3420063Y-15645150D02*
X3439110Y-15654674D01*
X3439110Y-15654674D02*
X3448634Y-15673722D01*
X3448634Y-15673722D02*
X3448634Y-15778484D01*
X3448634Y-15673722D02*
X3458158Y-15654674D01*
X3458158Y-15654674D02*
X3477205Y-15645150D01*
X3477205Y-15645150D02*
X3505777Y-15645150D01*
X3505777Y-15645150D02*
X3524824Y-15654674D01*
X3524824Y-15654674D02*
X3534348Y-15673722D01*
X3534348Y-15673722D02*
X3534348Y-15778484D01*
X3629586Y-15778484D02*
X3629586Y-15645150D01*
X3629586Y-15664198D02*
X3639110Y-15654674D01*
X3639110Y-15654674D02*
X3658158Y-15645150D01*
X3658158Y-15645150D02*
X3686729Y-15645150D01*
X3686729Y-15645150D02*
X3705777Y-15654674D01*
X3705777Y-15654674D02*
X3715301Y-15673722D01*
X3715301Y-15673722D02*
X3715301Y-15778484D01*
X3715301Y-15673722D02*
X3724824Y-15654674D01*
X3724824Y-15654674D02*
X3743872Y-15645150D01*
X3743872Y-15645150D02*
X3772443Y-15645150D01*
X3772443Y-15645150D02*
X3791491Y-15654674D01*
X3791491Y-15654674D02*
X3801015Y-15673722D01*
X3801015Y-15673722D02*
X3801015Y-15778484D01*
X4191491Y-15568960D02*
X4020063Y-15826103D01*
X4448634Y-15578484D02*
X4467682Y-15578484D01*
X4467682Y-15578484D02*
X4486729Y-15588008D01*
X4486729Y-15588008D02*
X4496253Y-15597531D01*
X4496253Y-15597531D02*
X4505777Y-15616579D01*
X4505777Y-15616579D02*
X4515301Y-15654674D01*
X4515301Y-15654674D02*
X4515301Y-15702293D01*
X4515301Y-15702293D02*
X4505777Y-15740388D01*
X4505777Y-15740388D02*
X4496253Y-15759436D01*
X4496253Y-15759436D02*
X4486729Y-15768960D01*
X4486729Y-15768960D02*
X4467682Y-15778484D01*
X4467682Y-15778484D02*
X4448634Y-15778484D01*
X4448634Y-15778484D02*
X4429587Y-15768960D01*
X4429587Y-15768960D02*
X4420063Y-15759436D01*
X4420063Y-15759436D02*
X4410539Y-15740388D01*
X4410539Y-15740388D02*
X4401015Y-15702293D01*
X4401015Y-15702293D02*
X4401015Y-15654674D01*
X4401015Y-15654674D02*
X4410539Y-15616579D01*
X4410539Y-15616579D02*
X4420063Y-15597531D01*
X4420063Y-15597531D02*
X4429587Y-15588008D01*
X4429587Y-15588008D02*
X4448634Y-15578484D01*
X4601015Y-15759436D02*
X4610539Y-15768960D01*
X4610539Y-15768960D02*
X4601015Y-15778484D01*
X4601015Y-15778484D02*
X4591491Y-15768960D01*
X4591491Y-15768960D02*
X4601015Y-15759436D01*
X4601015Y-15759436D02*
X4601015Y-15778484D01*
X4734348Y-15578484D02*
X4753396Y-15578484D01*
X4753396Y-15578484D02*
X4772444Y-15588008D01*
X4772444Y-15588008D02*
X4781968Y-15597531D01*
X4781968Y-15597531D02*
X4791491Y-15616579D01*
X4791491Y-15616579D02*
X4801015Y-15654674D01*
X4801015Y-15654674D02*
X4801015Y-15702293D01*
X4801015Y-15702293D02*
X4791491Y-15740388D01*
X4791491Y-15740388D02*
X4781968Y-15759436D01*
X4781968Y-15759436D02*
X4772444Y-15768960D01*
X4772444Y-15768960D02*
X4753396Y-15778484D01*
X4753396Y-15778484D02*
X4734348Y-15778484D01*
X4734348Y-15778484D02*
X4715301Y-15768960D01*
X4715301Y-15768960D02*
X4705777Y-15759436D01*
X4705777Y-15759436D02*
X4696253Y-15740388D01*
X4696253Y-15740388D02*
X4686729Y-15702293D01*
X4686729Y-15702293D02*
X4686729Y-15654674D01*
X4686729Y-15654674D02*
X4696253Y-15616579D01*
X4696253Y-15616579D02*
X4705777Y-15597531D01*
X4705777Y-15597531D02*
X4715301Y-15588008D01*
X4715301Y-15588008D02*
X4734348Y-15578484D01*
X4867682Y-15578484D02*
X4991491Y-15578484D01*
X4991491Y-15578484D02*
X4924825Y-15654674D01*
X4924825Y-15654674D02*
X4953396Y-15654674D01*
X4953396Y-15654674D02*
X4972444Y-15664198D01*
X4972444Y-15664198D02*
X4981968Y-15673722D01*
X4981968Y-15673722D02*
X4991491Y-15692769D01*
X4991491Y-15692769D02*
X4991491Y-15740388D01*
X4991491Y-15740388D02*
X4981968Y-15759436D01*
X4981968Y-15759436D02*
X4972444Y-15768960D01*
X4972444Y-15768960D02*
X4953396Y-15778484D01*
X4953396Y-15778484D02*
X4896253Y-15778484D01*
X4896253Y-15778484D02*
X4877206Y-15768960D01*
X4877206Y-15768960D02*
X4867682Y-15759436D01*
X5086729Y-15778484D02*
X5124825Y-15778484D01*
X5124825Y-15778484D02*
X5143872Y-15768960D01*
X5143872Y-15768960D02*
X5153396Y-15759436D01*
X5153396Y-15759436D02*
X5172444Y-15730865D01*
X5172444Y-15730865D02*
X5181968Y-15692769D01*
X5181968Y-15692769D02*
X5181968Y-15616579D01*
X5181968Y-15616579D02*
X5172444Y-15597531D01*
X5172444Y-15597531D02*
X5162920Y-15588008D01*
X5162920Y-15588008D02*
X5143872Y-15578484D01*
X5143872Y-15578484D02*
X5105777Y-15578484D01*
X5105777Y-15578484D02*
X5086729Y-15588008D01*
X5086729Y-15588008D02*
X5077206Y-15597531D01*
X5077206Y-15597531D02*
X5067682Y-15616579D01*
X5067682Y-15616579D02*
X5067682Y-15664198D01*
X5067682Y-15664198D02*
X5077206Y-15683246D01*
X5077206Y-15683246D02*
X5086729Y-15692769D01*
X5086729Y-15692769D02*
X5105777Y-15702293D01*
X5105777Y-15702293D02*
X5143872Y-15702293D01*
X5143872Y-15702293D02*
X5162920Y-15692769D01*
X5162920Y-15692769D02*
X5172444Y-15683246D01*
X5172444Y-15683246D02*
X5181968Y-15664198D01*
X5353396Y-15645150D02*
X5353396Y-15778484D01*
X5305777Y-15568960D02*
X5258158Y-15711817D01*
X5258158Y-15711817D02*
X5381968Y-15711817D01*
X5448634Y-15578484D02*
X5448634Y-15616579D01*
X5524825Y-15578484D02*
X5524825Y-15616579D01*
X5820063Y-15854674D02*
X5810539Y-15845150D01*
X5810539Y-15845150D02*
X5791491Y-15816579D01*
X5791491Y-15816579D02*
X5781968Y-15797531D01*
X5781968Y-15797531D02*
X5772444Y-15768960D01*
X5772444Y-15768960D02*
X5762920Y-15721341D01*
X5762920Y-15721341D02*
X5762920Y-15683246D01*
X5762920Y-15683246D02*
X5772444Y-15635627D01*
X5772444Y-15635627D02*
X5781968Y-15607055D01*
X5781968Y-15607055D02*
X5791491Y-15588008D01*
X5791491Y-15588008D02*
X5810539Y-15559436D01*
X5810539Y-15559436D02*
X5820063Y-15549912D01*
X5981968Y-15578484D02*
X5943872Y-15578484D01*
X5943872Y-15578484D02*
X5924825Y-15588008D01*
X5924825Y-15588008D02*
X5915301Y-15597531D01*
X5915301Y-15597531D02*
X5896253Y-15626103D01*
X5896253Y-15626103D02*
X5886729Y-15664198D01*
X5886729Y-15664198D02*
X5886729Y-15740388D01*
X5886729Y-15740388D02*
X5896253Y-15759436D01*
X5896253Y-15759436D02*
X5905777Y-15768960D01*
X5905777Y-15768960D02*
X5924825Y-15778484D01*
X5924825Y-15778484D02*
X5962920Y-15778484D01*
X5962920Y-15778484D02*
X5981968Y-15768960D01*
X5981968Y-15768960D02*
X5991491Y-15759436D01*
X5991491Y-15759436D02*
X6001015Y-15740388D01*
X6001015Y-15740388D02*
X6001015Y-15692769D01*
X6001015Y-15692769D02*
X5991491Y-15673722D01*
X5991491Y-15673722D02*
X5981968Y-15664198D01*
X5981968Y-15664198D02*
X5962920Y-15654674D01*
X5962920Y-15654674D02*
X5924825Y-15654674D01*
X5924825Y-15654674D02*
X5905777Y-15664198D01*
X5905777Y-15664198D02*
X5896253Y-15673722D01*
X5896253Y-15673722D02*
X5886729Y-15692769D01*
X6239110Y-15778484D02*
X6239110Y-15578484D01*
X6324825Y-15778484D02*
X6324825Y-15673722D01*
X6324825Y-15673722D02*
X6315301Y-15654674D01*
X6315301Y-15654674D02*
X6296253Y-15645150D01*
X6296253Y-15645150D02*
X6267682Y-15645150D01*
X6267682Y-15645150D02*
X6248634Y-15654674D01*
X6248634Y-15654674D02*
X6239110Y-15664198D01*
X6448634Y-15778484D02*
X6429587Y-15768960D01*
X6429587Y-15768960D02*
X6420063Y-15759436D01*
X6420063Y-15759436D02*
X6410539Y-15740388D01*
X6410539Y-15740388D02*
X6410539Y-15683246D01*
X6410539Y-15683246D02*
X6420063Y-15664198D01*
X6420063Y-15664198D02*
X6429587Y-15654674D01*
X6429587Y-15654674D02*
X6448634Y-15645150D01*
X6448634Y-15645150D02*
X6477206Y-15645150D01*
X6477206Y-15645150D02*
X6496253Y-15654674D01*
X6496253Y-15654674D02*
X6505777Y-15664198D01*
X6505777Y-15664198D02*
X6515301Y-15683246D01*
X6515301Y-15683246D02*
X6515301Y-15740388D01*
X6515301Y-15740388D02*
X6505777Y-15759436D01*
X6505777Y-15759436D02*
X6496253Y-15768960D01*
X6496253Y-15768960D02*
X6477206Y-15778484D01*
X6477206Y-15778484D02*
X6448634Y-15778484D01*
X6629587Y-15778484D02*
X6610539Y-15768960D01*
X6610539Y-15768960D02*
X6601015Y-15749912D01*
X6601015Y-15749912D02*
X6601015Y-15578484D01*
X6781968Y-15768960D02*
X6762920Y-15778484D01*
X6762920Y-15778484D02*
X6724825Y-15778484D01*
X6724825Y-15778484D02*
X6705777Y-15768960D01*
X6705777Y-15768960D02*
X6696253Y-15749912D01*
X6696253Y-15749912D02*
X6696253Y-15673722D01*
X6696253Y-15673722D02*
X6705777Y-15654674D01*
X6705777Y-15654674D02*
X6724825Y-15645150D01*
X6724825Y-15645150D02*
X6762920Y-15645150D01*
X6762920Y-15645150D02*
X6781968Y-15654674D01*
X6781968Y-15654674D02*
X6791491Y-15673722D01*
X6791491Y-15673722D02*
X6791491Y-15692769D01*
X6791491Y-15692769D02*
X6696253Y-15711817D01*
X6867682Y-15768960D02*
X6886730Y-15778484D01*
X6886730Y-15778484D02*
X6924825Y-15778484D01*
X6924825Y-15778484D02*
X6943872Y-15768960D01*
X6943872Y-15768960D02*
X6953396Y-15749912D01*
X6953396Y-15749912D02*
X6953396Y-15740388D01*
X6953396Y-15740388D02*
X6943872Y-15721341D01*
X6943872Y-15721341D02*
X6924825Y-15711817D01*
X6924825Y-15711817D02*
X6896253Y-15711817D01*
X6896253Y-15711817D02*
X6877206Y-15702293D01*
X6877206Y-15702293D02*
X6867682Y-15683246D01*
X6867682Y-15683246D02*
X6867682Y-15673722D01*
X6867682Y-15673722D02*
X6877206Y-15654674D01*
X6877206Y-15654674D02*
X6896253Y-15645150D01*
X6896253Y-15645150D02*
X6924825Y-15645150D01*
X6924825Y-15645150D02*
X6943872Y-15654674D01*
X7020063Y-15854674D02*
X7029587Y-15845150D01*
X7029587Y-15845150D02*
X7048634Y-15816579D01*
X7048634Y-15816579D02*
X7058158Y-15797531D01*
X7058158Y-15797531D02*
X7067682Y-15768960D01*
X7067682Y-15768960D02*
X7077206Y-15721341D01*
X7077206Y-15721341D02*
X7077206Y-15683246D01*
X7077206Y-15683246D02*
X7067682Y-15635627D01*
X7067682Y-15635627D02*
X7058158Y-15607055D01*
X7058158Y-15607055D02*
X7048634Y-15588008D01*
X7048634Y-15588008D02*
X7029587Y-15559436D01*
X7029587Y-15559436D02*
X7020063Y-15549912D01*
D15*
X2194200Y-16001800D02*
X2245000Y-15951000D01*
X2194200Y-15900200D01*
X2143400Y-15951000D01*
X2194200Y-16001800D01*
D11*
X2610539Y-16042484D02*
X2496253Y-16042484D01*
X2553396Y-16042484D02*
X2553396Y-15842484D01*
X2553396Y-15842484D02*
X2534348Y-15871055D01*
X2534348Y-15871055D02*
X2515301Y-15890103D01*
X2515301Y-15890103D02*
X2496253Y-15899627D01*
X2696253Y-16023436D02*
X2705777Y-16032960D01*
X2705777Y-16032960D02*
X2696253Y-16042484D01*
X2696253Y-16042484D02*
X2686729Y-16032960D01*
X2686729Y-16032960D02*
X2696253Y-16023436D01*
X2696253Y-16023436D02*
X2696253Y-16042484D01*
X2829586Y-15842484D02*
X2848634Y-15842484D01*
X2848634Y-15842484D02*
X2867682Y-15852008D01*
X2867682Y-15852008D02*
X2877205Y-15861531D01*
X2877205Y-15861531D02*
X2886729Y-15880579D01*
X2886729Y-15880579D02*
X2896253Y-15918674D01*
X2896253Y-15918674D02*
X2896253Y-15966293D01*
X2896253Y-15966293D02*
X2886729Y-16004388D01*
X2886729Y-16004388D02*
X2877205Y-16023436D01*
X2877205Y-16023436D02*
X2867682Y-16032960D01*
X2867682Y-16032960D02*
X2848634Y-16042484D01*
X2848634Y-16042484D02*
X2829586Y-16042484D01*
X2829586Y-16042484D02*
X2810539Y-16032960D01*
X2810539Y-16032960D02*
X2801015Y-16023436D01*
X2801015Y-16023436D02*
X2791491Y-16004388D01*
X2791491Y-16004388D02*
X2781967Y-15966293D01*
X2781967Y-15966293D02*
X2781967Y-15918674D01*
X2781967Y-15918674D02*
X2791491Y-15880579D01*
X2791491Y-15880579D02*
X2801015Y-15861531D01*
X2801015Y-15861531D02*
X2810539Y-15852008D01*
X2810539Y-15852008D02*
X2829586Y-15842484D01*
X3086729Y-16042484D02*
X2972443Y-16042484D01*
X3029586Y-16042484D02*
X3029586Y-15842484D01*
X3029586Y-15842484D02*
X3010539Y-15871055D01*
X3010539Y-15871055D02*
X2991491Y-15890103D01*
X2991491Y-15890103D02*
X2972443Y-15899627D01*
X3258158Y-15842484D02*
X3220062Y-15842484D01*
X3220062Y-15842484D02*
X3201015Y-15852008D01*
X3201015Y-15852008D02*
X3191491Y-15861531D01*
X3191491Y-15861531D02*
X3172443Y-15890103D01*
X3172443Y-15890103D02*
X3162920Y-15928198D01*
X3162920Y-15928198D02*
X3162920Y-16004388D01*
X3162920Y-16004388D02*
X3172443Y-16023436D01*
X3172443Y-16023436D02*
X3181967Y-16032960D01*
X3181967Y-16032960D02*
X3201015Y-16042484D01*
X3201015Y-16042484D02*
X3239110Y-16042484D01*
X3239110Y-16042484D02*
X3258158Y-16032960D01*
X3258158Y-16032960D02*
X3267682Y-16023436D01*
X3267682Y-16023436D02*
X3277205Y-16004388D01*
X3277205Y-16004388D02*
X3277205Y-15956769D01*
X3277205Y-15956769D02*
X3267682Y-15937722D01*
X3267682Y-15937722D02*
X3258158Y-15928198D01*
X3258158Y-15928198D02*
X3239110Y-15918674D01*
X3239110Y-15918674D02*
X3201015Y-15918674D01*
X3201015Y-15918674D02*
X3181967Y-15928198D01*
X3181967Y-15928198D02*
X3172443Y-15937722D01*
X3172443Y-15937722D02*
X3162920Y-15956769D01*
X3362920Y-16042484D02*
X3362920Y-15909150D01*
X3362920Y-15928198D02*
X3372443Y-15918674D01*
X3372443Y-15918674D02*
X3391491Y-15909150D01*
X3391491Y-15909150D02*
X3420063Y-15909150D01*
X3420063Y-15909150D02*
X3439110Y-15918674D01*
X3439110Y-15918674D02*
X3448634Y-15937722D01*
X3448634Y-15937722D02*
X3448634Y-16042484D01*
X3448634Y-15937722D02*
X3458158Y-15918674D01*
X3458158Y-15918674D02*
X3477205Y-15909150D01*
X3477205Y-15909150D02*
X3505777Y-15909150D01*
X3505777Y-15909150D02*
X3524824Y-15918674D01*
X3524824Y-15918674D02*
X3534348Y-15937722D01*
X3534348Y-15937722D02*
X3534348Y-16042484D01*
X3629586Y-16042484D02*
X3629586Y-15909150D01*
X3629586Y-15928198D02*
X3639110Y-15918674D01*
X3639110Y-15918674D02*
X3658158Y-15909150D01*
X3658158Y-15909150D02*
X3686729Y-15909150D01*
X3686729Y-15909150D02*
X3705777Y-15918674D01*
X3705777Y-15918674D02*
X3715301Y-15937722D01*
X3715301Y-15937722D02*
X3715301Y-16042484D01*
X3715301Y-15937722D02*
X3724824Y-15918674D01*
X3724824Y-15918674D02*
X3743872Y-15909150D01*
X3743872Y-15909150D02*
X3772443Y-15909150D01*
X3772443Y-15909150D02*
X3791491Y-15918674D01*
X3791491Y-15918674D02*
X3801015Y-15937722D01*
X3801015Y-15937722D02*
X3801015Y-16042484D01*
X4191491Y-15832960D02*
X4020063Y-16090103D01*
X4448634Y-15842484D02*
X4467682Y-15842484D01*
X4467682Y-15842484D02*
X4486729Y-15852008D01*
X4486729Y-15852008D02*
X4496253Y-15861531D01*
X4496253Y-15861531D02*
X4505777Y-15880579D01*
X4505777Y-15880579D02*
X4515301Y-15918674D01*
X4515301Y-15918674D02*
X4515301Y-15966293D01*
X4515301Y-15966293D02*
X4505777Y-16004388D01*
X4505777Y-16004388D02*
X4496253Y-16023436D01*
X4496253Y-16023436D02*
X4486729Y-16032960D01*
X4486729Y-16032960D02*
X4467682Y-16042484D01*
X4467682Y-16042484D02*
X4448634Y-16042484D01*
X4448634Y-16042484D02*
X4429587Y-16032960D01*
X4429587Y-16032960D02*
X4420063Y-16023436D01*
X4420063Y-16023436D02*
X4410539Y-16004388D01*
X4410539Y-16004388D02*
X4401015Y-15966293D01*
X4401015Y-15966293D02*
X4401015Y-15918674D01*
X4401015Y-15918674D02*
X4410539Y-15880579D01*
X4410539Y-15880579D02*
X4420063Y-15861531D01*
X4420063Y-15861531D02*
X4429587Y-15852008D01*
X4429587Y-15852008D02*
X4448634Y-15842484D01*
X4601015Y-16023436D02*
X4610539Y-16032960D01*
X4610539Y-16032960D02*
X4601015Y-16042484D01*
X4601015Y-16042484D02*
X4591491Y-16032960D01*
X4591491Y-16032960D02*
X4601015Y-16023436D01*
X4601015Y-16023436D02*
X4601015Y-16042484D01*
X4734348Y-15842484D02*
X4753396Y-15842484D01*
X4753396Y-15842484D02*
X4772444Y-15852008D01*
X4772444Y-15852008D02*
X4781968Y-15861531D01*
X4781968Y-15861531D02*
X4791491Y-15880579D01*
X4791491Y-15880579D02*
X4801015Y-15918674D01*
X4801015Y-15918674D02*
X4801015Y-15966293D01*
X4801015Y-15966293D02*
X4791491Y-16004388D01*
X4791491Y-16004388D02*
X4781968Y-16023436D01*
X4781968Y-16023436D02*
X4772444Y-16032960D01*
X4772444Y-16032960D02*
X4753396Y-16042484D01*
X4753396Y-16042484D02*
X4734348Y-16042484D01*
X4734348Y-16042484D02*
X4715301Y-16032960D01*
X4715301Y-16032960D02*
X4705777Y-16023436D01*
X4705777Y-16023436D02*
X4696253Y-16004388D01*
X4696253Y-16004388D02*
X4686729Y-15966293D01*
X4686729Y-15966293D02*
X4686729Y-15918674D01*
X4686729Y-15918674D02*
X4696253Y-15880579D01*
X4696253Y-15880579D02*
X4705777Y-15861531D01*
X4705777Y-15861531D02*
X4715301Y-15852008D01*
X4715301Y-15852008D02*
X4734348Y-15842484D01*
X4972444Y-15909150D02*
X4972444Y-16042484D01*
X4924825Y-15832960D02*
X4877206Y-15975817D01*
X4877206Y-15975817D02*
X5001015Y-15975817D01*
X5115301Y-15842484D02*
X5134349Y-15842484D01*
X5134349Y-15842484D02*
X5153396Y-15852008D01*
X5153396Y-15852008D02*
X5162920Y-15861531D01*
X5162920Y-15861531D02*
X5172444Y-15880579D01*
X5172444Y-15880579D02*
X5181968Y-15918674D01*
X5181968Y-15918674D02*
X5181968Y-15966293D01*
X5181968Y-15966293D02*
X5172444Y-16004388D01*
X5172444Y-16004388D02*
X5162920Y-16023436D01*
X5162920Y-16023436D02*
X5153396Y-16032960D01*
X5153396Y-16032960D02*
X5134349Y-16042484D01*
X5134349Y-16042484D02*
X5115301Y-16042484D01*
X5115301Y-16042484D02*
X5096253Y-16032960D01*
X5096253Y-16032960D02*
X5086729Y-16023436D01*
X5086729Y-16023436D02*
X5077206Y-16004388D01*
X5077206Y-16004388D02*
X5067682Y-15966293D01*
X5067682Y-15966293D02*
X5067682Y-15918674D01*
X5067682Y-15918674D02*
X5077206Y-15880579D01*
X5077206Y-15880579D02*
X5086729Y-15861531D01*
X5086729Y-15861531D02*
X5096253Y-15852008D01*
X5096253Y-15852008D02*
X5115301Y-15842484D01*
X5305777Y-15842484D02*
X5324825Y-15842484D01*
X5324825Y-15842484D02*
X5343872Y-15852008D01*
X5343872Y-15852008D02*
X5353396Y-15861531D01*
X5353396Y-15861531D02*
X5362920Y-15880579D01*
X5362920Y-15880579D02*
X5372444Y-15918674D01*
X5372444Y-15918674D02*
X5372444Y-15966293D01*
X5372444Y-15966293D02*
X5362920Y-16004388D01*
X5362920Y-16004388D02*
X5353396Y-16023436D01*
X5353396Y-16023436D02*
X5343872Y-16032960D01*
X5343872Y-16032960D02*
X5324825Y-16042484D01*
X5324825Y-16042484D02*
X5305777Y-16042484D01*
X5305777Y-16042484D02*
X5286729Y-16032960D01*
X5286729Y-16032960D02*
X5277206Y-16023436D01*
X5277206Y-16023436D02*
X5267682Y-16004388D01*
X5267682Y-16004388D02*
X5258158Y-15966293D01*
X5258158Y-15966293D02*
X5258158Y-15918674D01*
X5258158Y-15918674D02*
X5267682Y-15880579D01*
X5267682Y-15880579D02*
X5277206Y-15861531D01*
X5277206Y-15861531D02*
X5286729Y-15852008D01*
X5286729Y-15852008D02*
X5305777Y-15842484D01*
X5448634Y-15842484D02*
X5448634Y-15880579D01*
X5524825Y-15842484D02*
X5524825Y-15880579D01*
X5820063Y-16118674D02*
X5810539Y-16109150D01*
X5810539Y-16109150D02*
X5791491Y-16080579D01*
X5791491Y-16080579D02*
X5781968Y-16061531D01*
X5781968Y-16061531D02*
X5772444Y-16032960D01*
X5772444Y-16032960D02*
X5762920Y-15985341D01*
X5762920Y-15985341D02*
X5762920Y-15947246D01*
X5762920Y-15947246D02*
X5772444Y-15899627D01*
X5772444Y-15899627D02*
X5781968Y-15871055D01*
X5781968Y-15871055D02*
X5791491Y-15852008D01*
X5791491Y-15852008D02*
X5810539Y-15823436D01*
X5810539Y-15823436D02*
X5820063Y-15813912D01*
X6001015Y-16042484D02*
X5886729Y-16042484D01*
X5943872Y-16042484D02*
X5943872Y-15842484D01*
X5943872Y-15842484D02*
X5924825Y-15871055D01*
X5924825Y-15871055D02*
X5905777Y-15890103D01*
X5905777Y-15890103D02*
X5886729Y-15899627D01*
X6124825Y-15842484D02*
X6143872Y-15842484D01*
X6143872Y-15842484D02*
X6162920Y-15852008D01*
X6162920Y-15852008D02*
X6172444Y-15861531D01*
X6172444Y-15861531D02*
X6181968Y-15880579D01*
X6181968Y-15880579D02*
X6191491Y-15918674D01*
X6191491Y-15918674D02*
X6191491Y-15966293D01*
X6191491Y-15966293D02*
X6181968Y-16004388D01*
X6181968Y-16004388D02*
X6172444Y-16023436D01*
X6172444Y-16023436D02*
X6162920Y-16032960D01*
X6162920Y-16032960D02*
X6143872Y-16042484D01*
X6143872Y-16042484D02*
X6124825Y-16042484D01*
X6124825Y-16042484D02*
X6105777Y-16032960D01*
X6105777Y-16032960D02*
X6096253Y-16023436D01*
X6096253Y-16023436D02*
X6086729Y-16004388D01*
X6086729Y-16004388D02*
X6077206Y-15966293D01*
X6077206Y-15966293D02*
X6077206Y-15918674D01*
X6077206Y-15918674D02*
X6086729Y-15880579D01*
X6086729Y-15880579D02*
X6096253Y-15861531D01*
X6096253Y-15861531D02*
X6105777Y-15852008D01*
X6105777Y-15852008D02*
X6124825Y-15842484D01*
X6267682Y-15861531D02*
X6277206Y-15852008D01*
X6277206Y-15852008D02*
X6296253Y-15842484D01*
X6296253Y-15842484D02*
X6343872Y-15842484D01*
X6343872Y-15842484D02*
X6362920Y-15852008D01*
X6362920Y-15852008D02*
X6372444Y-15861531D01*
X6372444Y-15861531D02*
X6381968Y-15880579D01*
X6381968Y-15880579D02*
X6381968Y-15899627D01*
X6381968Y-15899627D02*
X6372444Y-15928198D01*
X6372444Y-15928198D02*
X6258158Y-16042484D01*
X6258158Y-16042484D02*
X6381968Y-16042484D01*
X6620063Y-16042484D02*
X6620063Y-15842484D01*
X6705777Y-16042484D02*
X6705777Y-15937722D01*
X6705777Y-15937722D02*
X6696253Y-15918674D01*
X6696253Y-15918674D02*
X6677206Y-15909150D01*
X6677206Y-15909150D02*
X6648634Y-15909150D01*
X6648634Y-15909150D02*
X6629587Y-15918674D01*
X6629587Y-15918674D02*
X6620063Y-15928198D01*
X6829587Y-16042484D02*
X6810539Y-16032960D01*
X6810539Y-16032960D02*
X6801015Y-16023436D01*
X6801015Y-16023436D02*
X6791491Y-16004388D01*
X6791491Y-16004388D02*
X6791491Y-15947246D01*
X6791491Y-15947246D02*
X6801015Y-15928198D01*
X6801015Y-15928198D02*
X6810539Y-15918674D01*
X6810539Y-15918674D02*
X6829587Y-15909150D01*
X6829587Y-15909150D02*
X6858158Y-15909150D01*
X6858158Y-15909150D02*
X6877206Y-15918674D01*
X6877206Y-15918674D02*
X6886730Y-15928198D01*
X6886730Y-15928198D02*
X6896253Y-15947246D01*
X6896253Y-15947246D02*
X6896253Y-16004388D01*
X6896253Y-16004388D02*
X6886730Y-16023436D01*
X6886730Y-16023436D02*
X6877206Y-16032960D01*
X6877206Y-16032960D02*
X6858158Y-16042484D01*
X6858158Y-16042484D02*
X6829587Y-16042484D01*
X7010539Y-16042484D02*
X6991491Y-16032960D01*
X6991491Y-16032960D02*
X6981968Y-16013912D01*
X6981968Y-16013912D02*
X6981968Y-15842484D01*
X7162920Y-16032960D02*
X7143872Y-16042484D01*
X7143872Y-16042484D02*
X7105777Y-16042484D01*
X7105777Y-16042484D02*
X7086730Y-16032960D01*
X7086730Y-16032960D02*
X7077206Y-16013912D01*
X7077206Y-16013912D02*
X7077206Y-15937722D01*
X7077206Y-15937722D02*
X7086730Y-15918674D01*
X7086730Y-15918674D02*
X7105777Y-15909150D01*
X7105777Y-15909150D02*
X7143872Y-15909150D01*
X7143872Y-15909150D02*
X7162920Y-15918674D01*
X7162920Y-15918674D02*
X7172444Y-15937722D01*
X7172444Y-15937722D02*
X7172444Y-15956769D01*
X7172444Y-15956769D02*
X7077206Y-15975817D01*
X7248634Y-16032960D02*
X7267682Y-16042484D01*
X7267682Y-16042484D02*
X7305777Y-16042484D01*
X7305777Y-16042484D02*
X7324825Y-16032960D01*
X7324825Y-16032960D02*
X7334349Y-16013912D01*
X7334349Y-16013912D02*
X7334349Y-16004388D01*
X7334349Y-16004388D02*
X7324825Y-15985341D01*
X7324825Y-15985341D02*
X7305777Y-15975817D01*
X7305777Y-15975817D02*
X7277206Y-15975817D01*
X7277206Y-15975817D02*
X7258158Y-15966293D01*
X7258158Y-15966293D02*
X7248634Y-15947246D01*
X7248634Y-15947246D02*
X7248634Y-15937722D01*
X7248634Y-15937722D02*
X7258158Y-15918674D01*
X7258158Y-15918674D02*
X7277206Y-15909150D01*
X7277206Y-15909150D02*
X7305777Y-15909150D01*
X7305777Y-15909150D02*
X7324825Y-15918674D01*
X7401015Y-16118674D02*
X7410539Y-16109150D01*
X7410539Y-16109150D02*
X7429587Y-16080579D01*
X7429587Y-16080579D02*
X7439111Y-16061531D01*
X7439111Y-16061531D02*
X7448634Y-16032960D01*
X7448634Y-16032960D02*
X7458158Y-15985341D01*
X7458158Y-15985341D02*
X7458158Y-15947246D01*
X7458158Y-15947246D02*
X7448634Y-15899627D01*
X7448634Y-15899627D02*
X7439111Y-15871055D01*
X7439111Y-15871055D02*
X7429587Y-15852008D01*
X7429587Y-15852008D02*
X7410539Y-15823436D01*
X7410539Y-15823436D02*
X7401015Y-15813912D01*
D16*
X2125000Y-16155000D02*
X2245000Y-16275000D01*
X2245000Y-16155000D02*
X2125000Y-16275000D01*
X2245000Y-16215000D02*
G75*
G03*
X2245000Y-16215000I-60000J0D01*
G01*
D11*
X2610539Y-16306484D02*
X2496253Y-16306484D01*
X2553396Y-16306484D02*
X2553396Y-16106484D01*
X2553396Y-16106484D02*
X2534348Y-16135055D01*
X2534348Y-16135055D02*
X2515301Y-16154103D01*
X2515301Y-16154103D02*
X2496253Y-16163627D01*
X2696253Y-16287436D02*
X2705777Y-16296960D01*
X2705777Y-16296960D02*
X2696253Y-16306484D01*
X2696253Y-16306484D02*
X2686729Y-16296960D01*
X2686729Y-16296960D02*
X2696253Y-16287436D01*
X2696253Y-16287436D02*
X2696253Y-16306484D01*
X2781967Y-16125531D02*
X2791491Y-16116008D01*
X2791491Y-16116008D02*
X2810539Y-16106484D01*
X2810539Y-16106484D02*
X2858158Y-16106484D01*
X2858158Y-16106484D02*
X2877205Y-16116008D01*
X2877205Y-16116008D02*
X2886729Y-16125531D01*
X2886729Y-16125531D02*
X2896253Y-16144579D01*
X2896253Y-16144579D02*
X2896253Y-16163627D01*
X2896253Y-16163627D02*
X2886729Y-16192198D01*
X2886729Y-16192198D02*
X2772444Y-16306484D01*
X2772444Y-16306484D02*
X2896253Y-16306484D01*
X3020062Y-16106484D02*
X3039110Y-16106484D01*
X3039110Y-16106484D02*
X3058158Y-16116008D01*
X3058158Y-16116008D02*
X3067682Y-16125531D01*
X3067682Y-16125531D02*
X3077205Y-16144579D01*
X3077205Y-16144579D02*
X3086729Y-16182674D01*
X3086729Y-16182674D02*
X3086729Y-16230293D01*
X3086729Y-16230293D02*
X3077205Y-16268388D01*
X3077205Y-16268388D02*
X3067682Y-16287436D01*
X3067682Y-16287436D02*
X3058158Y-16296960D01*
X3058158Y-16296960D02*
X3039110Y-16306484D01*
X3039110Y-16306484D02*
X3020062Y-16306484D01*
X3020062Y-16306484D02*
X3001015Y-16296960D01*
X3001015Y-16296960D02*
X2991491Y-16287436D01*
X2991491Y-16287436D02*
X2981967Y-16268388D01*
X2981967Y-16268388D02*
X2972443Y-16230293D01*
X2972443Y-16230293D02*
X2972443Y-16182674D01*
X2972443Y-16182674D02*
X2981967Y-16144579D01*
X2981967Y-16144579D02*
X2991491Y-16125531D01*
X2991491Y-16125531D02*
X3001015Y-16116008D01*
X3001015Y-16116008D02*
X3020062Y-16106484D01*
X3210539Y-16106484D02*
X3229586Y-16106484D01*
X3229586Y-16106484D02*
X3248634Y-16116008D01*
X3248634Y-16116008D02*
X3258158Y-16125531D01*
X3258158Y-16125531D02*
X3267682Y-16144579D01*
X3267682Y-16144579D02*
X3277205Y-16182674D01*
X3277205Y-16182674D02*
X3277205Y-16230293D01*
X3277205Y-16230293D02*
X3267682Y-16268388D01*
X3267682Y-16268388D02*
X3258158Y-16287436D01*
X3258158Y-16287436D02*
X3248634Y-16296960D01*
X3248634Y-16296960D02*
X3229586Y-16306484D01*
X3229586Y-16306484D02*
X3210539Y-16306484D01*
X3210539Y-16306484D02*
X3191491Y-16296960D01*
X3191491Y-16296960D02*
X3181967Y-16287436D01*
X3181967Y-16287436D02*
X3172443Y-16268388D01*
X3172443Y-16268388D02*
X3162920Y-16230293D01*
X3162920Y-16230293D02*
X3162920Y-16182674D01*
X3162920Y-16182674D02*
X3172443Y-16144579D01*
X3172443Y-16144579D02*
X3181967Y-16125531D01*
X3181967Y-16125531D02*
X3191491Y-16116008D01*
X3191491Y-16116008D02*
X3210539Y-16106484D01*
X3362920Y-16306484D02*
X3362920Y-16173150D01*
X3362920Y-16192198D02*
X3372443Y-16182674D01*
X3372443Y-16182674D02*
X3391491Y-16173150D01*
X3391491Y-16173150D02*
X3420063Y-16173150D01*
X3420063Y-16173150D02*
X3439110Y-16182674D01*
X3439110Y-16182674D02*
X3448634Y-16201722D01*
X3448634Y-16201722D02*
X3448634Y-16306484D01*
X3448634Y-16201722D02*
X3458158Y-16182674D01*
X3458158Y-16182674D02*
X3477205Y-16173150D01*
X3477205Y-16173150D02*
X3505777Y-16173150D01*
X3505777Y-16173150D02*
X3524824Y-16182674D01*
X3524824Y-16182674D02*
X3534348Y-16201722D01*
X3534348Y-16201722D02*
X3534348Y-16306484D01*
X3629586Y-16306484D02*
X3629586Y-16173150D01*
X3629586Y-16192198D02*
X3639110Y-16182674D01*
X3639110Y-16182674D02*
X3658158Y-16173150D01*
X3658158Y-16173150D02*
X3686729Y-16173150D01*
X3686729Y-16173150D02*
X3705777Y-16182674D01*
X3705777Y-16182674D02*
X3715301Y-16201722D01*
X3715301Y-16201722D02*
X3715301Y-16306484D01*
X3715301Y-16201722D02*
X3724824Y-16182674D01*
X3724824Y-16182674D02*
X3743872Y-16173150D01*
X3743872Y-16173150D02*
X3772443Y-16173150D01*
X3772443Y-16173150D02*
X3791491Y-16182674D01*
X3791491Y-16182674D02*
X3801015Y-16201722D01*
X3801015Y-16201722D02*
X3801015Y-16306484D01*
X4191491Y-16096960D02*
X4020063Y-16354103D01*
X4448634Y-16106484D02*
X4467682Y-16106484D01*
X4467682Y-16106484D02*
X4486729Y-16116008D01*
X4486729Y-16116008D02*
X4496253Y-16125531D01*
X4496253Y-16125531D02*
X4505777Y-16144579D01*
X4505777Y-16144579D02*
X4515301Y-16182674D01*
X4515301Y-16182674D02*
X4515301Y-16230293D01*
X4515301Y-16230293D02*
X4505777Y-16268388D01*
X4505777Y-16268388D02*
X4496253Y-16287436D01*
X4496253Y-16287436D02*
X4486729Y-16296960D01*
X4486729Y-16296960D02*
X4467682Y-16306484D01*
X4467682Y-16306484D02*
X4448634Y-16306484D01*
X4448634Y-16306484D02*
X4429587Y-16296960D01*
X4429587Y-16296960D02*
X4420063Y-16287436D01*
X4420063Y-16287436D02*
X4410539Y-16268388D01*
X4410539Y-16268388D02*
X4401015Y-16230293D01*
X4401015Y-16230293D02*
X4401015Y-16182674D01*
X4401015Y-16182674D02*
X4410539Y-16144579D01*
X4410539Y-16144579D02*
X4420063Y-16125531D01*
X4420063Y-16125531D02*
X4429587Y-16116008D01*
X4429587Y-16116008D02*
X4448634Y-16106484D01*
X4601015Y-16287436D02*
X4610539Y-16296960D01*
X4610539Y-16296960D02*
X4601015Y-16306484D01*
X4601015Y-16306484D02*
X4591491Y-16296960D01*
X4591491Y-16296960D02*
X4601015Y-16287436D01*
X4601015Y-16287436D02*
X4601015Y-16306484D01*
X4734348Y-16106484D02*
X4753396Y-16106484D01*
X4753396Y-16106484D02*
X4772444Y-16116008D01*
X4772444Y-16116008D02*
X4781968Y-16125531D01*
X4781968Y-16125531D02*
X4791491Y-16144579D01*
X4791491Y-16144579D02*
X4801015Y-16182674D01*
X4801015Y-16182674D02*
X4801015Y-16230293D01*
X4801015Y-16230293D02*
X4791491Y-16268388D01*
X4791491Y-16268388D02*
X4781968Y-16287436D01*
X4781968Y-16287436D02*
X4772444Y-16296960D01*
X4772444Y-16296960D02*
X4753396Y-16306484D01*
X4753396Y-16306484D02*
X4734348Y-16306484D01*
X4734348Y-16306484D02*
X4715301Y-16296960D01*
X4715301Y-16296960D02*
X4705777Y-16287436D01*
X4705777Y-16287436D02*
X4696253Y-16268388D01*
X4696253Y-16268388D02*
X4686729Y-16230293D01*
X4686729Y-16230293D02*
X4686729Y-16182674D01*
X4686729Y-16182674D02*
X4696253Y-16144579D01*
X4696253Y-16144579D02*
X4705777Y-16125531D01*
X4705777Y-16125531D02*
X4715301Y-16116008D01*
X4715301Y-16116008D02*
X4734348Y-16106484D01*
X4972444Y-16173150D02*
X4972444Y-16306484D01*
X4924825Y-16096960D02*
X4877206Y-16239817D01*
X4877206Y-16239817D02*
X5001015Y-16239817D01*
X5058158Y-16106484D02*
X5191491Y-16106484D01*
X5191491Y-16106484D02*
X5105777Y-16306484D01*
X5258158Y-16125531D02*
X5267682Y-16116008D01*
X5267682Y-16116008D02*
X5286729Y-16106484D01*
X5286729Y-16106484D02*
X5334349Y-16106484D01*
X5334349Y-16106484D02*
X5353396Y-16116008D01*
X5353396Y-16116008D02*
X5362920Y-16125531D01*
X5362920Y-16125531D02*
X5372444Y-16144579D01*
X5372444Y-16144579D02*
X5372444Y-16163627D01*
X5372444Y-16163627D02*
X5362920Y-16192198D01*
X5362920Y-16192198D02*
X5248634Y-16306484D01*
X5248634Y-16306484D02*
X5372444Y-16306484D01*
X5448634Y-16106484D02*
X5448634Y-16144579D01*
X5524825Y-16106484D02*
X5524825Y-16144579D01*
X5820063Y-16382674D02*
X5810539Y-16373150D01*
X5810539Y-16373150D02*
X5791491Y-16344579D01*
X5791491Y-16344579D02*
X5781968Y-16325531D01*
X5781968Y-16325531D02*
X5772444Y-16296960D01*
X5772444Y-16296960D02*
X5762920Y-16249341D01*
X5762920Y-16249341D02*
X5762920Y-16211246D01*
X5762920Y-16211246D02*
X5772444Y-16163627D01*
X5772444Y-16163627D02*
X5781968Y-16135055D01*
X5781968Y-16135055D02*
X5791491Y-16116008D01*
X5791491Y-16116008D02*
X5810539Y-16087436D01*
X5810539Y-16087436D02*
X5820063Y-16077912D01*
X5981968Y-16106484D02*
X5943872Y-16106484D01*
X5943872Y-16106484D02*
X5924825Y-16116008D01*
X5924825Y-16116008D02*
X5915301Y-16125531D01*
X5915301Y-16125531D02*
X5896253Y-16154103D01*
X5896253Y-16154103D02*
X5886729Y-16192198D01*
X5886729Y-16192198D02*
X5886729Y-16268388D01*
X5886729Y-16268388D02*
X5896253Y-16287436D01*
X5896253Y-16287436D02*
X5905777Y-16296960D01*
X5905777Y-16296960D02*
X5924825Y-16306484D01*
X5924825Y-16306484D02*
X5962920Y-16306484D01*
X5962920Y-16306484D02*
X5981968Y-16296960D01*
X5981968Y-16296960D02*
X5991491Y-16287436D01*
X5991491Y-16287436D02*
X6001015Y-16268388D01*
X6001015Y-16268388D02*
X6001015Y-16220769D01*
X6001015Y-16220769D02*
X5991491Y-16201722D01*
X5991491Y-16201722D02*
X5981968Y-16192198D01*
X5981968Y-16192198D02*
X5962920Y-16182674D01*
X5962920Y-16182674D02*
X5924825Y-16182674D01*
X5924825Y-16182674D02*
X5905777Y-16192198D01*
X5905777Y-16192198D02*
X5896253Y-16201722D01*
X5896253Y-16201722D02*
X5886729Y-16220769D01*
X6239110Y-16306484D02*
X6239110Y-16106484D01*
X6324825Y-16306484D02*
X6324825Y-16201722D01*
X6324825Y-16201722D02*
X6315301Y-16182674D01*
X6315301Y-16182674D02*
X6296253Y-16173150D01*
X6296253Y-16173150D02*
X6267682Y-16173150D01*
X6267682Y-16173150D02*
X6248634Y-16182674D01*
X6248634Y-16182674D02*
X6239110Y-16192198D01*
X6448634Y-16306484D02*
X6429587Y-16296960D01*
X6429587Y-16296960D02*
X6420063Y-16287436D01*
X6420063Y-16287436D02*
X6410539Y-16268388D01*
X6410539Y-16268388D02*
X6410539Y-16211246D01*
X6410539Y-16211246D02*
X6420063Y-16192198D01*
X6420063Y-16192198D02*
X6429587Y-16182674D01*
X6429587Y-16182674D02*
X6448634Y-16173150D01*
X6448634Y-16173150D02*
X6477206Y-16173150D01*
X6477206Y-16173150D02*
X6496253Y-16182674D01*
X6496253Y-16182674D02*
X6505777Y-16192198D01*
X6505777Y-16192198D02*
X6515301Y-16211246D01*
X6515301Y-16211246D02*
X6515301Y-16268388D01*
X6515301Y-16268388D02*
X6505777Y-16287436D01*
X6505777Y-16287436D02*
X6496253Y-16296960D01*
X6496253Y-16296960D02*
X6477206Y-16306484D01*
X6477206Y-16306484D02*
X6448634Y-16306484D01*
X6629587Y-16306484D02*
X6610539Y-16296960D01*
X6610539Y-16296960D02*
X6601015Y-16277912D01*
X6601015Y-16277912D02*
X6601015Y-16106484D01*
X6781968Y-16296960D02*
X6762920Y-16306484D01*
X6762920Y-16306484D02*
X6724825Y-16306484D01*
X6724825Y-16306484D02*
X6705777Y-16296960D01*
X6705777Y-16296960D02*
X6696253Y-16277912D01*
X6696253Y-16277912D02*
X6696253Y-16201722D01*
X6696253Y-16201722D02*
X6705777Y-16182674D01*
X6705777Y-16182674D02*
X6724825Y-16173150D01*
X6724825Y-16173150D02*
X6762920Y-16173150D01*
X6762920Y-16173150D02*
X6781968Y-16182674D01*
X6781968Y-16182674D02*
X6791491Y-16201722D01*
X6791491Y-16201722D02*
X6791491Y-16220769D01*
X6791491Y-16220769D02*
X6696253Y-16239817D01*
X6867682Y-16296960D02*
X6886730Y-16306484D01*
X6886730Y-16306484D02*
X6924825Y-16306484D01*
X6924825Y-16306484D02*
X6943872Y-16296960D01*
X6943872Y-16296960D02*
X6953396Y-16277912D01*
X6953396Y-16277912D02*
X6953396Y-16268388D01*
X6953396Y-16268388D02*
X6943872Y-16249341D01*
X6943872Y-16249341D02*
X6924825Y-16239817D01*
X6924825Y-16239817D02*
X6896253Y-16239817D01*
X6896253Y-16239817D02*
X6877206Y-16230293D01*
X6877206Y-16230293D02*
X6867682Y-16211246D01*
X6867682Y-16211246D02*
X6867682Y-16201722D01*
X6867682Y-16201722D02*
X6877206Y-16182674D01*
X6877206Y-16182674D02*
X6896253Y-16173150D01*
X6896253Y-16173150D02*
X6924825Y-16173150D01*
X6924825Y-16173150D02*
X6943872Y-16182674D01*
X7020063Y-16382674D02*
X7029587Y-16373150D01*
X7029587Y-16373150D02*
X7048634Y-16344579D01*
X7048634Y-16344579D02*
X7058158Y-16325531D01*
X7058158Y-16325531D02*
X7067682Y-16296960D01*
X7067682Y-16296960D02*
X7077206Y-16249341D01*
X7077206Y-16249341D02*
X7077206Y-16211246D01*
X7077206Y-16211246D02*
X7067682Y-16163627D01*
X7067682Y-16163627D02*
X7058158Y-16135055D01*
X7058158Y-16135055D02*
X7048634Y-16116008D01*
X7048634Y-16116008D02*
X7029587Y-16087436D01*
X7029587Y-16087436D02*
X7020063Y-16077912D01*
D17*
X2115000Y-16414000D02*
X2245000Y-16544000D01*
X2245000Y-16414000D02*
X2115000Y-16544000D01*
X2180000Y-16414000D02*
X2180000Y-16544000D01*
X2115000Y-16479000D02*
X2245000Y-16479000D01*
D11*
X2610539Y-16570484D02*
X2496253Y-16570484D01*
X2553396Y-16570484D02*
X2553396Y-16370484D01*
X2553396Y-16370484D02*
X2534348Y-16399055D01*
X2534348Y-16399055D02*
X2515301Y-16418103D01*
X2515301Y-16418103D02*
X2496253Y-16427627D01*
X2696253Y-16551436D02*
X2705777Y-16560960D01*
X2705777Y-16560960D02*
X2696253Y-16570484D01*
X2696253Y-16570484D02*
X2686729Y-16560960D01*
X2686729Y-16560960D02*
X2696253Y-16551436D01*
X2696253Y-16551436D02*
X2696253Y-16570484D01*
X2772444Y-16370484D02*
X2896253Y-16370484D01*
X2896253Y-16370484D02*
X2829586Y-16446674D01*
X2829586Y-16446674D02*
X2858158Y-16446674D01*
X2858158Y-16446674D02*
X2877205Y-16456198D01*
X2877205Y-16456198D02*
X2886729Y-16465722D01*
X2886729Y-16465722D02*
X2896253Y-16484769D01*
X2896253Y-16484769D02*
X2896253Y-16532388D01*
X2896253Y-16532388D02*
X2886729Y-16551436D01*
X2886729Y-16551436D02*
X2877205Y-16560960D01*
X2877205Y-16560960D02*
X2858158Y-16570484D01*
X2858158Y-16570484D02*
X2801015Y-16570484D01*
X2801015Y-16570484D02*
X2781967Y-16560960D01*
X2781967Y-16560960D02*
X2772444Y-16551436D01*
X3020062Y-16370484D02*
X3039110Y-16370484D01*
X3039110Y-16370484D02*
X3058158Y-16380008D01*
X3058158Y-16380008D02*
X3067682Y-16389531D01*
X3067682Y-16389531D02*
X3077205Y-16408579D01*
X3077205Y-16408579D02*
X3086729Y-16446674D01*
X3086729Y-16446674D02*
X3086729Y-16494293D01*
X3086729Y-16494293D02*
X3077205Y-16532388D01*
X3077205Y-16532388D02*
X3067682Y-16551436D01*
X3067682Y-16551436D02*
X3058158Y-16560960D01*
X3058158Y-16560960D02*
X3039110Y-16570484D01*
X3039110Y-16570484D02*
X3020062Y-16570484D01*
X3020062Y-16570484D02*
X3001015Y-16560960D01*
X3001015Y-16560960D02*
X2991491Y-16551436D01*
X2991491Y-16551436D02*
X2981967Y-16532388D01*
X2981967Y-16532388D02*
X2972443Y-16494293D01*
X2972443Y-16494293D02*
X2972443Y-16446674D01*
X2972443Y-16446674D02*
X2981967Y-16408579D01*
X2981967Y-16408579D02*
X2991491Y-16389531D01*
X2991491Y-16389531D02*
X3001015Y-16380008D01*
X3001015Y-16380008D02*
X3020062Y-16370484D01*
X3210539Y-16370484D02*
X3229586Y-16370484D01*
X3229586Y-16370484D02*
X3248634Y-16380008D01*
X3248634Y-16380008D02*
X3258158Y-16389531D01*
X3258158Y-16389531D02*
X3267682Y-16408579D01*
X3267682Y-16408579D02*
X3277205Y-16446674D01*
X3277205Y-16446674D02*
X3277205Y-16494293D01*
X3277205Y-16494293D02*
X3267682Y-16532388D01*
X3267682Y-16532388D02*
X3258158Y-16551436D01*
X3258158Y-16551436D02*
X3248634Y-16560960D01*
X3248634Y-16560960D02*
X3229586Y-16570484D01*
X3229586Y-16570484D02*
X3210539Y-16570484D01*
X3210539Y-16570484D02*
X3191491Y-16560960D01*
X3191491Y-16560960D02*
X3181967Y-16551436D01*
X3181967Y-16551436D02*
X3172443Y-16532388D01*
X3172443Y-16532388D02*
X3162920Y-16494293D01*
X3162920Y-16494293D02*
X3162920Y-16446674D01*
X3162920Y-16446674D02*
X3172443Y-16408579D01*
X3172443Y-16408579D02*
X3181967Y-16389531D01*
X3181967Y-16389531D02*
X3191491Y-16380008D01*
X3191491Y-16380008D02*
X3210539Y-16370484D01*
X3362920Y-16570484D02*
X3362920Y-16437150D01*
X3362920Y-16456198D02*
X3372443Y-16446674D01*
X3372443Y-16446674D02*
X3391491Y-16437150D01*
X3391491Y-16437150D02*
X3420063Y-16437150D01*
X3420063Y-16437150D02*
X3439110Y-16446674D01*
X3439110Y-16446674D02*
X3448634Y-16465722D01*
X3448634Y-16465722D02*
X3448634Y-16570484D01*
X3448634Y-16465722D02*
X3458158Y-16446674D01*
X3458158Y-16446674D02*
X3477205Y-16437150D01*
X3477205Y-16437150D02*
X3505777Y-16437150D01*
X3505777Y-16437150D02*
X3524824Y-16446674D01*
X3524824Y-16446674D02*
X3534348Y-16465722D01*
X3534348Y-16465722D02*
X3534348Y-16570484D01*
X3629586Y-16570484D02*
X3629586Y-16437150D01*
X3629586Y-16456198D02*
X3639110Y-16446674D01*
X3639110Y-16446674D02*
X3658158Y-16437150D01*
X3658158Y-16437150D02*
X3686729Y-16437150D01*
X3686729Y-16437150D02*
X3705777Y-16446674D01*
X3705777Y-16446674D02*
X3715301Y-16465722D01*
X3715301Y-16465722D02*
X3715301Y-16570484D01*
X3715301Y-16465722D02*
X3724824Y-16446674D01*
X3724824Y-16446674D02*
X3743872Y-16437150D01*
X3743872Y-16437150D02*
X3772443Y-16437150D01*
X3772443Y-16437150D02*
X3791491Y-16446674D01*
X3791491Y-16446674D02*
X3801015Y-16465722D01*
X3801015Y-16465722D02*
X3801015Y-16570484D01*
X4191491Y-16360960D02*
X4020063Y-16618103D01*
X4448634Y-16370484D02*
X4467682Y-16370484D01*
X4467682Y-16370484D02*
X4486729Y-16380008D01*
X4486729Y-16380008D02*
X4496253Y-16389531D01*
X4496253Y-16389531D02*
X4505777Y-16408579D01*
X4505777Y-16408579D02*
X4515301Y-16446674D01*
X4515301Y-16446674D02*
X4515301Y-16494293D01*
X4515301Y-16494293D02*
X4505777Y-16532388D01*
X4505777Y-16532388D02*
X4496253Y-16551436D01*
X4496253Y-16551436D02*
X4486729Y-16560960D01*
X4486729Y-16560960D02*
X4467682Y-16570484D01*
X4467682Y-16570484D02*
X4448634Y-16570484D01*
X4448634Y-16570484D02*
X4429587Y-16560960D01*
X4429587Y-16560960D02*
X4420063Y-16551436D01*
X4420063Y-16551436D02*
X4410539Y-16532388D01*
X4410539Y-16532388D02*
X4401015Y-16494293D01*
X4401015Y-16494293D02*
X4401015Y-16446674D01*
X4401015Y-16446674D02*
X4410539Y-16408579D01*
X4410539Y-16408579D02*
X4420063Y-16389531D01*
X4420063Y-16389531D02*
X4429587Y-16380008D01*
X4429587Y-16380008D02*
X4448634Y-16370484D01*
X4601015Y-16551436D02*
X4610539Y-16560960D01*
X4610539Y-16560960D02*
X4601015Y-16570484D01*
X4601015Y-16570484D02*
X4591491Y-16560960D01*
X4591491Y-16560960D02*
X4601015Y-16551436D01*
X4601015Y-16551436D02*
X4601015Y-16570484D01*
X4734348Y-16370484D02*
X4753396Y-16370484D01*
X4753396Y-16370484D02*
X4772444Y-16380008D01*
X4772444Y-16380008D02*
X4781968Y-16389531D01*
X4781968Y-16389531D02*
X4791491Y-16408579D01*
X4791491Y-16408579D02*
X4801015Y-16446674D01*
X4801015Y-16446674D02*
X4801015Y-16494293D01*
X4801015Y-16494293D02*
X4791491Y-16532388D01*
X4791491Y-16532388D02*
X4781968Y-16551436D01*
X4781968Y-16551436D02*
X4772444Y-16560960D01*
X4772444Y-16560960D02*
X4753396Y-16570484D01*
X4753396Y-16570484D02*
X4734348Y-16570484D01*
X4734348Y-16570484D02*
X4715301Y-16560960D01*
X4715301Y-16560960D02*
X4705777Y-16551436D01*
X4705777Y-16551436D02*
X4696253Y-16532388D01*
X4696253Y-16532388D02*
X4686729Y-16494293D01*
X4686729Y-16494293D02*
X4686729Y-16446674D01*
X4686729Y-16446674D02*
X4696253Y-16408579D01*
X4696253Y-16408579D02*
X4705777Y-16389531D01*
X4705777Y-16389531D02*
X4715301Y-16380008D01*
X4715301Y-16380008D02*
X4734348Y-16370484D01*
X4981968Y-16370484D02*
X4886729Y-16370484D01*
X4886729Y-16370484D02*
X4877206Y-16465722D01*
X4877206Y-16465722D02*
X4886729Y-16456198D01*
X4886729Y-16456198D02*
X4905777Y-16446674D01*
X4905777Y-16446674D02*
X4953396Y-16446674D01*
X4953396Y-16446674D02*
X4972444Y-16456198D01*
X4972444Y-16456198D02*
X4981968Y-16465722D01*
X4981968Y-16465722D02*
X4991491Y-16484769D01*
X4991491Y-16484769D02*
X4991491Y-16532388D01*
X4991491Y-16532388D02*
X4981968Y-16551436D01*
X4981968Y-16551436D02*
X4972444Y-16560960D01*
X4972444Y-16560960D02*
X4953396Y-16570484D01*
X4953396Y-16570484D02*
X4905777Y-16570484D01*
X4905777Y-16570484D02*
X4886729Y-16560960D01*
X4886729Y-16560960D02*
X4877206Y-16551436D01*
X5181968Y-16570484D02*
X5067682Y-16570484D01*
X5124825Y-16570484D02*
X5124825Y-16370484D01*
X5124825Y-16370484D02*
X5105777Y-16399055D01*
X5105777Y-16399055D02*
X5086729Y-16418103D01*
X5086729Y-16418103D02*
X5067682Y-16427627D01*
X5258158Y-16389531D02*
X5267682Y-16380008D01*
X5267682Y-16380008D02*
X5286729Y-16370484D01*
X5286729Y-16370484D02*
X5334349Y-16370484D01*
X5334349Y-16370484D02*
X5353396Y-16380008D01*
X5353396Y-16380008D02*
X5362920Y-16389531D01*
X5362920Y-16389531D02*
X5372444Y-16408579D01*
X5372444Y-16408579D02*
X5372444Y-16427627D01*
X5372444Y-16427627D02*
X5362920Y-16456198D01*
X5362920Y-16456198D02*
X5248634Y-16570484D01*
X5248634Y-16570484D02*
X5372444Y-16570484D01*
X5448634Y-16370484D02*
X5448634Y-16408579D01*
X5524825Y-16370484D02*
X5524825Y-16408579D01*
X5820063Y-16646674D02*
X5810539Y-16637150D01*
X5810539Y-16637150D02*
X5791491Y-16608579D01*
X5791491Y-16608579D02*
X5781968Y-16589531D01*
X5781968Y-16589531D02*
X5772444Y-16560960D01*
X5772444Y-16560960D02*
X5762920Y-16513341D01*
X5762920Y-16513341D02*
X5762920Y-16475246D01*
X5762920Y-16475246D02*
X5772444Y-16427627D01*
X5772444Y-16427627D02*
X5781968Y-16399055D01*
X5781968Y-16399055D02*
X5791491Y-16380008D01*
X5791491Y-16380008D02*
X5810539Y-16351436D01*
X5810539Y-16351436D02*
X5820063Y-16341912D01*
X5981968Y-16370484D02*
X5943872Y-16370484D01*
X5943872Y-16370484D02*
X5924825Y-16380008D01*
X5924825Y-16380008D02*
X5915301Y-16389531D01*
X5915301Y-16389531D02*
X5896253Y-16418103D01*
X5896253Y-16418103D02*
X5886729Y-16456198D01*
X5886729Y-16456198D02*
X5886729Y-16532388D01*
X5886729Y-16532388D02*
X5896253Y-16551436D01*
X5896253Y-16551436D02*
X5905777Y-16560960D01*
X5905777Y-16560960D02*
X5924825Y-16570484D01*
X5924825Y-16570484D02*
X5962920Y-16570484D01*
X5962920Y-16570484D02*
X5981968Y-16560960D01*
X5981968Y-16560960D02*
X5991491Y-16551436D01*
X5991491Y-16551436D02*
X6001015Y-16532388D01*
X6001015Y-16532388D02*
X6001015Y-16484769D01*
X6001015Y-16484769D02*
X5991491Y-16465722D01*
X5991491Y-16465722D02*
X5981968Y-16456198D01*
X5981968Y-16456198D02*
X5962920Y-16446674D01*
X5962920Y-16446674D02*
X5924825Y-16446674D01*
X5924825Y-16446674D02*
X5905777Y-16456198D01*
X5905777Y-16456198D02*
X5896253Y-16465722D01*
X5896253Y-16465722D02*
X5886729Y-16484769D01*
X6124825Y-16370484D02*
X6143872Y-16370484D01*
X6143872Y-16370484D02*
X6162920Y-16380008D01*
X6162920Y-16380008D02*
X6172444Y-16389531D01*
X6172444Y-16389531D02*
X6181968Y-16408579D01*
X6181968Y-16408579D02*
X6191491Y-16446674D01*
X6191491Y-16446674D02*
X6191491Y-16494293D01*
X6191491Y-16494293D02*
X6181968Y-16532388D01*
X6181968Y-16532388D02*
X6172444Y-16551436D01*
X6172444Y-16551436D02*
X6162920Y-16560960D01*
X6162920Y-16560960D02*
X6143872Y-16570484D01*
X6143872Y-16570484D02*
X6124825Y-16570484D01*
X6124825Y-16570484D02*
X6105777Y-16560960D01*
X6105777Y-16560960D02*
X6096253Y-16551436D01*
X6096253Y-16551436D02*
X6086729Y-16532388D01*
X6086729Y-16532388D02*
X6077206Y-16494293D01*
X6077206Y-16494293D02*
X6077206Y-16446674D01*
X6077206Y-16446674D02*
X6086729Y-16408579D01*
X6086729Y-16408579D02*
X6096253Y-16389531D01*
X6096253Y-16389531D02*
X6105777Y-16380008D01*
X6105777Y-16380008D02*
X6124825Y-16370484D01*
X6429587Y-16570484D02*
X6429587Y-16370484D01*
X6515301Y-16570484D02*
X6515301Y-16465722D01*
X6515301Y-16465722D02*
X6505777Y-16446674D01*
X6505777Y-16446674D02*
X6486730Y-16437150D01*
X6486730Y-16437150D02*
X6458158Y-16437150D01*
X6458158Y-16437150D02*
X6439110Y-16446674D01*
X6439110Y-16446674D02*
X6429587Y-16456198D01*
X6639110Y-16570484D02*
X6620063Y-16560960D01*
X6620063Y-16560960D02*
X6610539Y-16551436D01*
X6610539Y-16551436D02*
X6601015Y-16532388D01*
X6601015Y-16532388D02*
X6601015Y-16475246D01*
X6601015Y-16475246D02*
X6610539Y-16456198D01*
X6610539Y-16456198D02*
X6620063Y-16446674D01*
X6620063Y-16446674D02*
X6639110Y-16437150D01*
X6639110Y-16437150D02*
X6667682Y-16437150D01*
X6667682Y-16437150D02*
X6686730Y-16446674D01*
X6686730Y-16446674D02*
X6696253Y-16456198D01*
X6696253Y-16456198D02*
X6705777Y-16475246D01*
X6705777Y-16475246D02*
X6705777Y-16532388D01*
X6705777Y-16532388D02*
X6696253Y-16551436D01*
X6696253Y-16551436D02*
X6686730Y-16560960D01*
X6686730Y-16560960D02*
X6667682Y-16570484D01*
X6667682Y-16570484D02*
X6639110Y-16570484D01*
X6820063Y-16570484D02*
X6801015Y-16560960D01*
X6801015Y-16560960D02*
X6791491Y-16541912D01*
X6791491Y-16541912D02*
X6791491Y-16370484D01*
X6972444Y-16560960D02*
X6953396Y-16570484D01*
X6953396Y-16570484D02*
X6915301Y-16570484D01*
X6915301Y-16570484D02*
X6896253Y-16560960D01*
X6896253Y-16560960D02*
X6886730Y-16541912D01*
X6886730Y-16541912D02*
X6886730Y-16465722D01*
X6886730Y-16465722D02*
X6896253Y-16446674D01*
X6896253Y-16446674D02*
X6915301Y-16437150D01*
X6915301Y-16437150D02*
X6953396Y-16437150D01*
X6953396Y-16437150D02*
X6972444Y-16446674D01*
X6972444Y-16446674D02*
X6981968Y-16465722D01*
X6981968Y-16465722D02*
X6981968Y-16484769D01*
X6981968Y-16484769D02*
X6886730Y-16503817D01*
X7058158Y-16560960D02*
X7077206Y-16570484D01*
X7077206Y-16570484D02*
X7115301Y-16570484D01*
X7115301Y-16570484D02*
X7134349Y-16560960D01*
X7134349Y-16560960D02*
X7143872Y-16541912D01*
X7143872Y-16541912D02*
X7143872Y-16532388D01*
X7143872Y-16532388D02*
X7134349Y-16513341D01*
X7134349Y-16513341D02*
X7115301Y-16503817D01*
X7115301Y-16503817D02*
X7086730Y-16503817D01*
X7086730Y-16503817D02*
X7067682Y-16494293D01*
X7067682Y-16494293D02*
X7058158Y-16475246D01*
X7058158Y-16475246D02*
X7058158Y-16465722D01*
X7058158Y-16465722D02*
X7067682Y-16446674D01*
X7067682Y-16446674D02*
X7086730Y-16437150D01*
X7086730Y-16437150D02*
X7115301Y-16437150D01*
X7115301Y-16437150D02*
X7134349Y-16446674D01*
X7210539Y-16646674D02*
X7220063Y-16637150D01*
X7220063Y-16637150D02*
X7239111Y-16608579D01*
X7239111Y-16608579D02*
X7248634Y-16589531D01*
X7248634Y-16589531D02*
X7258158Y-16560960D01*
X7258158Y-16560960D02*
X7267682Y-16513341D01*
X7267682Y-16513341D02*
X7267682Y-16475246D01*
X7267682Y-16475246D02*
X7258158Y-16427627D01*
X7258158Y-16427627D02*
X7248634Y-16399055D01*
X7248634Y-16399055D02*
X7239111Y-16380008D01*
X7239111Y-16380008D02*
X7220063Y-16351436D01*
X7220063Y-16351436D02*
X7210539Y-16341912D01*
D18*
X2085000Y-16663000D02*
X2245000Y-16823000D01*
X2245000Y-16663000D02*
X2085000Y-16823000D01*
X2221569Y-16799569D02*
X2221569Y-16686431D01*
X2108431Y-16686431D01*
X2108431Y-16799569D01*
X2221569Y-16799569D01*
D11*
X2610539Y-16834484D02*
X2496253Y-16834484D01*
X2553396Y-16834484D02*
X2553396Y-16634484D01*
X2553396Y-16634484D02*
X2534348Y-16663055D01*
X2534348Y-16663055D02*
X2515301Y-16682103D01*
X2515301Y-16682103D02*
X2496253Y-16691627D01*
X2696253Y-16815436D02*
X2705777Y-16824960D01*
X2705777Y-16824960D02*
X2696253Y-16834484D01*
X2696253Y-16834484D02*
X2686729Y-16824960D01*
X2686729Y-16824960D02*
X2696253Y-16815436D01*
X2696253Y-16815436D02*
X2696253Y-16834484D01*
X2877205Y-16634484D02*
X2839110Y-16634484D01*
X2839110Y-16634484D02*
X2820062Y-16644008D01*
X2820062Y-16644008D02*
X2810539Y-16653531D01*
X2810539Y-16653531D02*
X2791491Y-16682103D01*
X2791491Y-16682103D02*
X2781967Y-16720198D01*
X2781967Y-16720198D02*
X2781967Y-16796389D01*
X2781967Y-16796389D02*
X2791491Y-16815436D01*
X2791491Y-16815436D02*
X2801015Y-16824960D01*
X2801015Y-16824960D02*
X2820062Y-16834484D01*
X2820062Y-16834484D02*
X2858158Y-16834484D01*
X2858158Y-16834484D02*
X2877205Y-16824960D01*
X2877205Y-16824960D02*
X2886729Y-16815436D01*
X2886729Y-16815436D02*
X2896253Y-16796389D01*
X2896253Y-16796389D02*
X2896253Y-16748769D01*
X2896253Y-16748769D02*
X2886729Y-16729722D01*
X2886729Y-16729722D02*
X2877205Y-16720198D01*
X2877205Y-16720198D02*
X2858158Y-16710674D01*
X2858158Y-16710674D02*
X2820062Y-16710674D01*
X2820062Y-16710674D02*
X2801015Y-16720198D01*
X2801015Y-16720198D02*
X2791491Y-16729722D01*
X2791491Y-16729722D02*
X2781967Y-16748769D01*
X3020062Y-16634484D02*
X3039110Y-16634484D01*
X3039110Y-16634484D02*
X3058158Y-16644008D01*
X3058158Y-16644008D02*
X3067682Y-16653531D01*
X3067682Y-16653531D02*
X3077205Y-16672579D01*
X3077205Y-16672579D02*
X3086729Y-16710674D01*
X3086729Y-16710674D02*
X3086729Y-16758293D01*
X3086729Y-16758293D02*
X3077205Y-16796389D01*
X3077205Y-16796389D02*
X3067682Y-16815436D01*
X3067682Y-16815436D02*
X3058158Y-16824960D01*
X3058158Y-16824960D02*
X3039110Y-16834484D01*
X3039110Y-16834484D02*
X3020062Y-16834484D01*
X3020062Y-16834484D02*
X3001015Y-16824960D01*
X3001015Y-16824960D02*
X2991491Y-16815436D01*
X2991491Y-16815436D02*
X2981967Y-16796389D01*
X2981967Y-16796389D02*
X2972443Y-16758293D01*
X2972443Y-16758293D02*
X2972443Y-16710674D01*
X2972443Y-16710674D02*
X2981967Y-16672579D01*
X2981967Y-16672579D02*
X2991491Y-16653531D01*
X2991491Y-16653531D02*
X3001015Y-16644008D01*
X3001015Y-16644008D02*
X3020062Y-16634484D01*
X3210539Y-16634484D02*
X3229586Y-16634484D01*
X3229586Y-16634484D02*
X3248634Y-16644008D01*
X3248634Y-16644008D02*
X3258158Y-16653531D01*
X3258158Y-16653531D02*
X3267682Y-16672579D01*
X3267682Y-16672579D02*
X3277205Y-16710674D01*
X3277205Y-16710674D02*
X3277205Y-16758293D01*
X3277205Y-16758293D02*
X3267682Y-16796389D01*
X3267682Y-16796389D02*
X3258158Y-16815436D01*
X3258158Y-16815436D02*
X3248634Y-16824960D01*
X3248634Y-16824960D02*
X3229586Y-16834484D01*
X3229586Y-16834484D02*
X3210539Y-16834484D01*
X3210539Y-16834484D02*
X3191491Y-16824960D01*
X3191491Y-16824960D02*
X3181967Y-16815436D01*
X3181967Y-16815436D02*
X3172443Y-16796389D01*
X3172443Y-16796389D02*
X3162920Y-16758293D01*
X3162920Y-16758293D02*
X3162920Y-16710674D01*
X3162920Y-16710674D02*
X3172443Y-16672579D01*
X3172443Y-16672579D02*
X3181967Y-16653531D01*
X3181967Y-16653531D02*
X3191491Y-16644008D01*
X3191491Y-16644008D02*
X3210539Y-16634484D01*
X3362920Y-16834484D02*
X3362920Y-16701150D01*
X3362920Y-16720198D02*
X3372443Y-16710674D01*
X3372443Y-16710674D02*
X3391491Y-16701150D01*
X3391491Y-16701150D02*
X3420063Y-16701150D01*
X3420063Y-16701150D02*
X3439110Y-16710674D01*
X3439110Y-16710674D02*
X3448634Y-16729722D01*
X3448634Y-16729722D02*
X3448634Y-16834484D01*
X3448634Y-16729722D02*
X3458158Y-16710674D01*
X3458158Y-16710674D02*
X3477205Y-16701150D01*
X3477205Y-16701150D02*
X3505777Y-16701150D01*
X3505777Y-16701150D02*
X3524824Y-16710674D01*
X3524824Y-16710674D02*
X3534348Y-16729722D01*
X3534348Y-16729722D02*
X3534348Y-16834484D01*
X3629586Y-16834484D02*
X3629586Y-16701150D01*
X3629586Y-16720198D02*
X3639110Y-16710674D01*
X3639110Y-16710674D02*
X3658158Y-16701150D01*
X3658158Y-16701150D02*
X3686729Y-16701150D01*
X3686729Y-16701150D02*
X3705777Y-16710674D01*
X3705777Y-16710674D02*
X3715301Y-16729722D01*
X3715301Y-16729722D02*
X3715301Y-16834484D01*
X3715301Y-16729722D02*
X3724824Y-16710674D01*
X3724824Y-16710674D02*
X3743872Y-16701150D01*
X3743872Y-16701150D02*
X3772443Y-16701150D01*
X3772443Y-16701150D02*
X3791491Y-16710674D01*
X3791491Y-16710674D02*
X3801015Y-16729722D01*
X3801015Y-16729722D02*
X3801015Y-16834484D01*
X4191491Y-16624960D02*
X4020063Y-16882103D01*
X4448634Y-16634484D02*
X4467682Y-16634484D01*
X4467682Y-16634484D02*
X4486729Y-16644008D01*
X4486729Y-16644008D02*
X4496253Y-16653531D01*
X4496253Y-16653531D02*
X4505777Y-16672579D01*
X4505777Y-16672579D02*
X4515301Y-16710674D01*
X4515301Y-16710674D02*
X4515301Y-16758293D01*
X4515301Y-16758293D02*
X4505777Y-16796389D01*
X4505777Y-16796389D02*
X4496253Y-16815436D01*
X4496253Y-16815436D02*
X4486729Y-16824960D01*
X4486729Y-16824960D02*
X4467682Y-16834484D01*
X4467682Y-16834484D02*
X4448634Y-16834484D01*
X4448634Y-16834484D02*
X4429587Y-16824960D01*
X4429587Y-16824960D02*
X4420063Y-16815436D01*
X4420063Y-16815436D02*
X4410539Y-16796389D01*
X4410539Y-16796389D02*
X4401015Y-16758293D01*
X4401015Y-16758293D02*
X4401015Y-16710674D01*
X4401015Y-16710674D02*
X4410539Y-16672579D01*
X4410539Y-16672579D02*
X4420063Y-16653531D01*
X4420063Y-16653531D02*
X4429587Y-16644008D01*
X4429587Y-16644008D02*
X4448634Y-16634484D01*
X4601015Y-16815436D02*
X4610539Y-16824960D01*
X4610539Y-16824960D02*
X4601015Y-16834484D01*
X4601015Y-16834484D02*
X4591491Y-16824960D01*
X4591491Y-16824960D02*
X4601015Y-16815436D01*
X4601015Y-16815436D02*
X4601015Y-16834484D01*
X4734348Y-16634484D02*
X4753396Y-16634484D01*
X4753396Y-16634484D02*
X4772444Y-16644008D01*
X4772444Y-16644008D02*
X4781968Y-16653531D01*
X4781968Y-16653531D02*
X4791491Y-16672579D01*
X4791491Y-16672579D02*
X4801015Y-16710674D01*
X4801015Y-16710674D02*
X4801015Y-16758293D01*
X4801015Y-16758293D02*
X4791491Y-16796389D01*
X4791491Y-16796389D02*
X4781968Y-16815436D01*
X4781968Y-16815436D02*
X4772444Y-16824960D01*
X4772444Y-16824960D02*
X4753396Y-16834484D01*
X4753396Y-16834484D02*
X4734348Y-16834484D01*
X4734348Y-16834484D02*
X4715301Y-16824960D01*
X4715301Y-16824960D02*
X4705777Y-16815436D01*
X4705777Y-16815436D02*
X4696253Y-16796389D01*
X4696253Y-16796389D02*
X4686729Y-16758293D01*
X4686729Y-16758293D02*
X4686729Y-16710674D01*
X4686729Y-16710674D02*
X4696253Y-16672579D01*
X4696253Y-16672579D02*
X4705777Y-16653531D01*
X4705777Y-16653531D02*
X4715301Y-16644008D01*
X4715301Y-16644008D02*
X4734348Y-16634484D01*
X4972444Y-16634484D02*
X4934348Y-16634484D01*
X4934348Y-16634484D02*
X4915301Y-16644008D01*
X4915301Y-16644008D02*
X4905777Y-16653531D01*
X4905777Y-16653531D02*
X4886729Y-16682103D01*
X4886729Y-16682103D02*
X4877206Y-16720198D01*
X4877206Y-16720198D02*
X4877206Y-16796389D01*
X4877206Y-16796389D02*
X4886729Y-16815436D01*
X4886729Y-16815436D02*
X4896253Y-16824960D01*
X4896253Y-16824960D02*
X4915301Y-16834484D01*
X4915301Y-16834484D02*
X4953396Y-16834484D01*
X4953396Y-16834484D02*
X4972444Y-16824960D01*
X4972444Y-16824960D02*
X4981968Y-16815436D01*
X4981968Y-16815436D02*
X4991491Y-16796389D01*
X4991491Y-16796389D02*
X4991491Y-16748769D01*
X4991491Y-16748769D02*
X4981968Y-16729722D01*
X4981968Y-16729722D02*
X4972444Y-16720198D01*
X4972444Y-16720198D02*
X4953396Y-16710674D01*
X4953396Y-16710674D02*
X4915301Y-16710674D01*
X4915301Y-16710674D02*
X4896253Y-16720198D01*
X4896253Y-16720198D02*
X4886729Y-16729722D01*
X4886729Y-16729722D02*
X4877206Y-16748769D01*
X5058158Y-16634484D02*
X5181968Y-16634484D01*
X5181968Y-16634484D02*
X5115301Y-16710674D01*
X5115301Y-16710674D02*
X5143872Y-16710674D01*
X5143872Y-16710674D02*
X5162920Y-16720198D01*
X5162920Y-16720198D02*
X5172444Y-16729722D01*
X5172444Y-16729722D02*
X5181968Y-16748769D01*
X5181968Y-16748769D02*
X5181968Y-16796389D01*
X5181968Y-16796389D02*
X5172444Y-16815436D01*
X5172444Y-16815436D02*
X5162920Y-16824960D01*
X5162920Y-16824960D02*
X5143872Y-16834484D01*
X5143872Y-16834484D02*
X5086729Y-16834484D01*
X5086729Y-16834484D02*
X5067682Y-16824960D01*
X5067682Y-16824960D02*
X5058158Y-16815436D01*
X5305777Y-16634484D02*
X5324825Y-16634484D01*
X5324825Y-16634484D02*
X5343872Y-16644008D01*
X5343872Y-16644008D02*
X5353396Y-16653531D01*
X5353396Y-16653531D02*
X5362920Y-16672579D01*
X5362920Y-16672579D02*
X5372444Y-16710674D01*
X5372444Y-16710674D02*
X5372444Y-16758293D01*
X5372444Y-16758293D02*
X5362920Y-16796389D01*
X5362920Y-16796389D02*
X5353396Y-16815436D01*
X5353396Y-16815436D02*
X5343872Y-16824960D01*
X5343872Y-16824960D02*
X5324825Y-16834484D01*
X5324825Y-16834484D02*
X5305777Y-16834484D01*
X5305777Y-16834484D02*
X5286729Y-16824960D01*
X5286729Y-16824960D02*
X5277206Y-16815436D01*
X5277206Y-16815436D02*
X5267682Y-16796389D01*
X5267682Y-16796389D02*
X5258158Y-16758293D01*
X5258158Y-16758293D02*
X5258158Y-16710674D01*
X5258158Y-16710674D02*
X5267682Y-16672579D01*
X5267682Y-16672579D02*
X5277206Y-16653531D01*
X5277206Y-16653531D02*
X5286729Y-16644008D01*
X5286729Y-16644008D02*
X5305777Y-16634484D01*
X5448634Y-16634484D02*
X5448634Y-16672579D01*
X5524825Y-16634484D02*
X5524825Y-16672579D01*
X5820063Y-16910674D02*
X5810539Y-16901150D01*
X5810539Y-16901150D02*
X5791491Y-16872579D01*
X5791491Y-16872579D02*
X5781968Y-16853531D01*
X5781968Y-16853531D02*
X5772444Y-16824960D01*
X5772444Y-16824960D02*
X5762920Y-16777341D01*
X5762920Y-16777341D02*
X5762920Y-16739246D01*
X5762920Y-16739246D02*
X5772444Y-16691627D01*
X5772444Y-16691627D02*
X5781968Y-16663055D01*
X5781968Y-16663055D02*
X5791491Y-16644008D01*
X5791491Y-16644008D02*
X5810539Y-16615436D01*
X5810539Y-16615436D02*
X5820063Y-16605912D01*
X5886729Y-16653531D02*
X5896253Y-16644008D01*
X5896253Y-16644008D02*
X5915301Y-16634484D01*
X5915301Y-16634484D02*
X5962920Y-16634484D01*
X5962920Y-16634484D02*
X5981968Y-16644008D01*
X5981968Y-16644008D02*
X5991491Y-16653531D01*
X5991491Y-16653531D02*
X6001015Y-16672579D01*
X6001015Y-16672579D02*
X6001015Y-16691627D01*
X6001015Y-16691627D02*
X5991491Y-16720198D01*
X5991491Y-16720198D02*
X5877206Y-16834484D01*
X5877206Y-16834484D02*
X6001015Y-16834484D01*
X6124825Y-16634484D02*
X6143872Y-16634484D01*
X6143872Y-16634484D02*
X6162920Y-16644008D01*
X6162920Y-16644008D02*
X6172444Y-16653531D01*
X6172444Y-16653531D02*
X6181968Y-16672579D01*
X6181968Y-16672579D02*
X6191491Y-16710674D01*
X6191491Y-16710674D02*
X6191491Y-16758293D01*
X6191491Y-16758293D02*
X6181968Y-16796389D01*
X6181968Y-16796389D02*
X6172444Y-16815436D01*
X6172444Y-16815436D02*
X6162920Y-16824960D01*
X6162920Y-16824960D02*
X6143872Y-16834484D01*
X6143872Y-16834484D02*
X6124825Y-16834484D01*
X6124825Y-16834484D02*
X6105777Y-16824960D01*
X6105777Y-16824960D02*
X6096253Y-16815436D01*
X6096253Y-16815436D02*
X6086729Y-16796389D01*
X6086729Y-16796389D02*
X6077206Y-16758293D01*
X6077206Y-16758293D02*
X6077206Y-16710674D01*
X6077206Y-16710674D02*
X6086729Y-16672579D01*
X6086729Y-16672579D02*
X6096253Y-16653531D01*
X6096253Y-16653531D02*
X6105777Y-16644008D01*
X6105777Y-16644008D02*
X6124825Y-16634484D01*
X6429587Y-16834484D02*
X6429587Y-16634484D01*
X6515301Y-16834484D02*
X6515301Y-16729722D01*
X6515301Y-16729722D02*
X6505777Y-16710674D01*
X6505777Y-16710674D02*
X6486730Y-16701150D01*
X6486730Y-16701150D02*
X6458158Y-16701150D01*
X6458158Y-16701150D02*
X6439110Y-16710674D01*
X6439110Y-16710674D02*
X6429587Y-16720198D01*
X6639110Y-16834484D02*
X6620063Y-16824960D01*
X6620063Y-16824960D02*
X6610539Y-16815436D01*
X6610539Y-16815436D02*
X6601015Y-16796389D01*
X6601015Y-16796389D02*
X6601015Y-16739246D01*
X6601015Y-16739246D02*
X6610539Y-16720198D01*
X6610539Y-16720198D02*
X6620063Y-16710674D01*
X6620063Y-16710674D02*
X6639110Y-16701150D01*
X6639110Y-16701150D02*
X6667682Y-16701150D01*
X6667682Y-16701150D02*
X6686730Y-16710674D01*
X6686730Y-16710674D02*
X6696253Y-16720198D01*
X6696253Y-16720198D02*
X6705777Y-16739246D01*
X6705777Y-16739246D02*
X6705777Y-16796389D01*
X6705777Y-16796389D02*
X6696253Y-16815436D01*
X6696253Y-16815436D02*
X6686730Y-16824960D01*
X6686730Y-16824960D02*
X6667682Y-16834484D01*
X6667682Y-16834484D02*
X6639110Y-16834484D01*
X6820063Y-16834484D02*
X6801015Y-16824960D01*
X6801015Y-16824960D02*
X6791491Y-16805912D01*
X6791491Y-16805912D02*
X6791491Y-16634484D01*
X6972444Y-16824960D02*
X6953396Y-16834484D01*
X6953396Y-16834484D02*
X6915301Y-16834484D01*
X6915301Y-16834484D02*
X6896253Y-16824960D01*
X6896253Y-16824960D02*
X6886730Y-16805912D01*
X6886730Y-16805912D02*
X6886730Y-16729722D01*
X6886730Y-16729722D02*
X6896253Y-16710674D01*
X6896253Y-16710674D02*
X6915301Y-16701150D01*
X6915301Y-16701150D02*
X6953396Y-16701150D01*
X6953396Y-16701150D02*
X6972444Y-16710674D01*
X6972444Y-16710674D02*
X6981968Y-16729722D01*
X6981968Y-16729722D02*
X6981968Y-16748769D01*
X6981968Y-16748769D02*
X6886730Y-16767817D01*
X7058158Y-16824960D02*
X7077206Y-16834484D01*
X7077206Y-16834484D02*
X7115301Y-16834484D01*
X7115301Y-16834484D02*
X7134349Y-16824960D01*
X7134349Y-16824960D02*
X7143872Y-16805912D01*
X7143872Y-16805912D02*
X7143872Y-16796389D01*
X7143872Y-16796389D02*
X7134349Y-16777341D01*
X7134349Y-16777341D02*
X7115301Y-16767817D01*
X7115301Y-16767817D02*
X7086730Y-16767817D01*
X7086730Y-16767817D02*
X7067682Y-16758293D01*
X7067682Y-16758293D02*
X7058158Y-16739246D01*
X7058158Y-16739246D02*
X7058158Y-16729722D01*
X7058158Y-16729722D02*
X7067682Y-16710674D01*
X7067682Y-16710674D02*
X7086730Y-16701150D01*
X7086730Y-16701150D02*
X7115301Y-16701150D01*
X7115301Y-16701150D02*
X7134349Y-16710674D01*
X7210539Y-16910674D02*
X7220063Y-16901150D01*
X7220063Y-16901150D02*
X7239111Y-16872579D01*
X7239111Y-16872579D02*
X7248634Y-16853531D01*
X7248634Y-16853531D02*
X7258158Y-16824960D01*
X7258158Y-16824960D02*
X7267682Y-16777341D01*
X7267682Y-16777341D02*
X7267682Y-16739246D01*
X7267682Y-16739246D02*
X7258158Y-16691627D01*
X7258158Y-16691627D02*
X7248634Y-16663055D01*
X7248634Y-16663055D02*
X7239111Y-16644008D01*
X7239111Y-16644008D02*
X7220063Y-16615436D01*
X7220063Y-16615436D02*
X7210539Y-16605912D01*
X2045000Y-16923000D02*
X2245000Y-17123000D01*
X2245000Y-16923000D02*
X2045000Y-17123000D01*
X2145000Y-17123000D02*
X2245000Y-17023000D01*
X2145000Y-16923000D01*
X2045000Y-17023000D01*
X2145000Y-17123000D01*
X2496253Y-16933531D02*
X2505777Y-16924008D01*
X2505777Y-16924008D02*
X2524824Y-16914484D01*
X2524824Y-16914484D02*
X2572444Y-16914484D01*
X2572444Y-16914484D02*
X2591491Y-16924008D01*
X2591491Y-16924008D02*
X2601015Y-16933531D01*
X2601015Y-16933531D02*
X2610539Y-16952579D01*
X2610539Y-16952579D02*
X2610539Y-16971627D01*
X2610539Y-16971627D02*
X2601015Y-17000198D01*
X2601015Y-17000198D02*
X2486729Y-17114484D01*
X2486729Y-17114484D02*
X2610539Y-17114484D01*
X2696253Y-17095436D02*
X2705777Y-17104960D01*
X2705777Y-17104960D02*
X2696253Y-17114484D01*
X2696253Y-17114484D02*
X2686729Y-17104960D01*
X2686729Y-17104960D02*
X2696253Y-17095436D01*
X2696253Y-17095436D02*
X2696253Y-17114484D01*
X2772444Y-16914484D02*
X2896253Y-16914484D01*
X2896253Y-16914484D02*
X2829586Y-16990674D01*
X2829586Y-16990674D02*
X2858158Y-16990674D01*
X2858158Y-16990674D02*
X2877205Y-17000198D01*
X2877205Y-17000198D02*
X2886729Y-17009722D01*
X2886729Y-17009722D02*
X2896253Y-17028770D01*
X2896253Y-17028770D02*
X2896253Y-17076389D01*
X2896253Y-17076389D02*
X2886729Y-17095436D01*
X2886729Y-17095436D02*
X2877205Y-17104960D01*
X2877205Y-17104960D02*
X2858158Y-17114484D01*
X2858158Y-17114484D02*
X2801015Y-17114484D01*
X2801015Y-17114484D02*
X2781967Y-17104960D01*
X2781967Y-17104960D02*
X2772444Y-17095436D01*
X3020062Y-16914484D02*
X3039110Y-16914484D01*
X3039110Y-16914484D02*
X3058158Y-16924008D01*
X3058158Y-16924008D02*
X3067682Y-16933531D01*
X3067682Y-16933531D02*
X3077205Y-16952579D01*
X3077205Y-16952579D02*
X3086729Y-16990674D01*
X3086729Y-16990674D02*
X3086729Y-17038293D01*
X3086729Y-17038293D02*
X3077205Y-17076389D01*
X3077205Y-17076389D02*
X3067682Y-17095436D01*
X3067682Y-17095436D02*
X3058158Y-17104960D01*
X3058158Y-17104960D02*
X3039110Y-17114484D01*
X3039110Y-17114484D02*
X3020062Y-17114484D01*
X3020062Y-17114484D02*
X3001015Y-17104960D01*
X3001015Y-17104960D02*
X2991491Y-17095436D01*
X2991491Y-17095436D02*
X2981967Y-17076389D01*
X2981967Y-17076389D02*
X2972443Y-17038293D01*
X2972443Y-17038293D02*
X2972443Y-16990674D01*
X2972443Y-16990674D02*
X2981967Y-16952579D01*
X2981967Y-16952579D02*
X2991491Y-16933531D01*
X2991491Y-16933531D02*
X3001015Y-16924008D01*
X3001015Y-16924008D02*
X3020062Y-16914484D01*
X3210539Y-16914484D02*
X3229586Y-16914484D01*
X3229586Y-16914484D02*
X3248634Y-16924008D01*
X3248634Y-16924008D02*
X3258158Y-16933531D01*
X3258158Y-16933531D02*
X3267682Y-16952579D01*
X3267682Y-16952579D02*
X3277205Y-16990674D01*
X3277205Y-16990674D02*
X3277205Y-17038293D01*
X3277205Y-17038293D02*
X3267682Y-17076389D01*
X3267682Y-17076389D02*
X3258158Y-17095436D01*
X3258158Y-17095436D02*
X3248634Y-17104960D01*
X3248634Y-17104960D02*
X3229586Y-17114484D01*
X3229586Y-17114484D02*
X3210539Y-17114484D01*
X3210539Y-17114484D02*
X3191491Y-17104960D01*
X3191491Y-17104960D02*
X3181967Y-17095436D01*
X3181967Y-17095436D02*
X3172443Y-17076389D01*
X3172443Y-17076389D02*
X3162920Y-17038293D01*
X3162920Y-17038293D02*
X3162920Y-16990674D01*
X3162920Y-16990674D02*
X3172443Y-16952579D01*
X3172443Y-16952579D02*
X3181967Y-16933531D01*
X3181967Y-16933531D02*
X3191491Y-16924008D01*
X3191491Y-16924008D02*
X3210539Y-16914484D01*
X3362920Y-17114484D02*
X3362920Y-16981150D01*
X3362920Y-17000198D02*
X3372443Y-16990674D01*
X3372443Y-16990674D02*
X3391491Y-16981150D01*
X3391491Y-16981150D02*
X3420063Y-16981150D01*
X3420063Y-16981150D02*
X3439110Y-16990674D01*
X3439110Y-16990674D02*
X3448634Y-17009722D01*
X3448634Y-17009722D02*
X3448634Y-17114484D01*
X3448634Y-17009722D02*
X3458158Y-16990674D01*
X3458158Y-16990674D02*
X3477205Y-16981150D01*
X3477205Y-16981150D02*
X3505777Y-16981150D01*
X3505777Y-16981150D02*
X3524824Y-16990674D01*
X3524824Y-16990674D02*
X3534348Y-17009722D01*
X3534348Y-17009722D02*
X3534348Y-17114484D01*
X3629586Y-17114484D02*
X3629586Y-16981150D01*
X3629586Y-17000198D02*
X3639110Y-16990674D01*
X3639110Y-16990674D02*
X3658158Y-16981150D01*
X3658158Y-16981150D02*
X3686729Y-16981150D01*
X3686729Y-16981150D02*
X3705777Y-16990674D01*
X3705777Y-16990674D02*
X3715301Y-17009722D01*
X3715301Y-17009722D02*
X3715301Y-17114484D01*
X3715301Y-17009722D02*
X3724824Y-16990674D01*
X3724824Y-16990674D02*
X3743872Y-16981150D01*
X3743872Y-16981150D02*
X3772443Y-16981150D01*
X3772443Y-16981150D02*
X3791491Y-16990674D01*
X3791491Y-16990674D02*
X3801015Y-17009722D01*
X3801015Y-17009722D02*
X3801015Y-17114484D01*
X4191491Y-16904960D02*
X4020063Y-17162103D01*
X4448634Y-16914484D02*
X4467682Y-16914484D01*
X4467682Y-16914484D02*
X4486729Y-16924008D01*
X4486729Y-16924008D02*
X4496253Y-16933531D01*
X4496253Y-16933531D02*
X4505777Y-16952579D01*
X4505777Y-16952579D02*
X4515301Y-16990674D01*
X4515301Y-16990674D02*
X4515301Y-17038293D01*
X4515301Y-17038293D02*
X4505777Y-17076389D01*
X4505777Y-17076389D02*
X4496253Y-17095436D01*
X4496253Y-17095436D02*
X4486729Y-17104960D01*
X4486729Y-17104960D02*
X4467682Y-17114484D01*
X4467682Y-17114484D02*
X4448634Y-17114484D01*
X4448634Y-17114484D02*
X4429587Y-17104960D01*
X4429587Y-17104960D02*
X4420063Y-17095436D01*
X4420063Y-17095436D02*
X4410539Y-17076389D01*
X4410539Y-17076389D02*
X4401015Y-17038293D01*
X4401015Y-17038293D02*
X4401015Y-16990674D01*
X4401015Y-16990674D02*
X4410539Y-16952579D01*
X4410539Y-16952579D02*
X4420063Y-16933531D01*
X4420063Y-16933531D02*
X4429587Y-16924008D01*
X4429587Y-16924008D02*
X4448634Y-16914484D01*
X4601015Y-17095436D02*
X4610539Y-17104960D01*
X4610539Y-17104960D02*
X4601015Y-17114484D01*
X4601015Y-17114484D02*
X4591491Y-17104960D01*
X4591491Y-17104960D02*
X4601015Y-17095436D01*
X4601015Y-17095436D02*
X4601015Y-17114484D01*
X4734348Y-16914484D02*
X4753396Y-16914484D01*
X4753396Y-16914484D02*
X4772444Y-16924008D01*
X4772444Y-16924008D02*
X4781968Y-16933531D01*
X4781968Y-16933531D02*
X4791491Y-16952579D01*
X4791491Y-16952579D02*
X4801015Y-16990674D01*
X4801015Y-16990674D02*
X4801015Y-17038293D01*
X4801015Y-17038293D02*
X4791491Y-17076389D01*
X4791491Y-17076389D02*
X4781968Y-17095436D01*
X4781968Y-17095436D02*
X4772444Y-17104960D01*
X4772444Y-17104960D02*
X4753396Y-17114484D01*
X4753396Y-17114484D02*
X4734348Y-17114484D01*
X4734348Y-17114484D02*
X4715301Y-17104960D01*
X4715301Y-17104960D02*
X4705777Y-17095436D01*
X4705777Y-17095436D02*
X4696253Y-17076389D01*
X4696253Y-17076389D02*
X4686729Y-17038293D01*
X4686729Y-17038293D02*
X4686729Y-16990674D01*
X4686729Y-16990674D02*
X4696253Y-16952579D01*
X4696253Y-16952579D02*
X4705777Y-16933531D01*
X4705777Y-16933531D02*
X4715301Y-16924008D01*
X4715301Y-16924008D02*
X4734348Y-16914484D01*
X4896253Y-17114484D02*
X4934348Y-17114484D01*
X4934348Y-17114484D02*
X4953396Y-17104960D01*
X4953396Y-17104960D02*
X4962920Y-17095436D01*
X4962920Y-17095436D02*
X4981968Y-17066865D01*
X4981968Y-17066865D02*
X4991491Y-17028770D01*
X4991491Y-17028770D02*
X4991491Y-16952579D01*
X4991491Y-16952579D02*
X4981968Y-16933531D01*
X4981968Y-16933531D02*
X4972444Y-16924008D01*
X4972444Y-16924008D02*
X4953396Y-16914484D01*
X4953396Y-16914484D02*
X4915301Y-16914484D01*
X4915301Y-16914484D02*
X4896253Y-16924008D01*
X4896253Y-16924008D02*
X4886729Y-16933531D01*
X4886729Y-16933531D02*
X4877206Y-16952579D01*
X4877206Y-16952579D02*
X4877206Y-17000198D01*
X4877206Y-17000198D02*
X4886729Y-17019246D01*
X4886729Y-17019246D02*
X4896253Y-17028770D01*
X4896253Y-17028770D02*
X4915301Y-17038293D01*
X4915301Y-17038293D02*
X4953396Y-17038293D01*
X4953396Y-17038293D02*
X4972444Y-17028770D01*
X4972444Y-17028770D02*
X4981968Y-17019246D01*
X4981968Y-17019246D02*
X4991491Y-17000198D01*
X5115301Y-16914484D02*
X5134349Y-16914484D01*
X5134349Y-16914484D02*
X5153396Y-16924008D01*
X5153396Y-16924008D02*
X5162920Y-16933531D01*
X5162920Y-16933531D02*
X5172444Y-16952579D01*
X5172444Y-16952579D02*
X5181968Y-16990674D01*
X5181968Y-16990674D02*
X5181968Y-17038293D01*
X5181968Y-17038293D02*
X5172444Y-17076389D01*
X5172444Y-17076389D02*
X5162920Y-17095436D01*
X5162920Y-17095436D02*
X5153396Y-17104960D01*
X5153396Y-17104960D02*
X5134349Y-17114484D01*
X5134349Y-17114484D02*
X5115301Y-17114484D01*
X5115301Y-17114484D02*
X5096253Y-17104960D01*
X5096253Y-17104960D02*
X5086729Y-17095436D01*
X5086729Y-17095436D02*
X5077206Y-17076389D01*
X5077206Y-17076389D02*
X5067682Y-17038293D01*
X5067682Y-17038293D02*
X5067682Y-16990674D01*
X5067682Y-16990674D02*
X5077206Y-16952579D01*
X5077206Y-16952579D02*
X5086729Y-16933531D01*
X5086729Y-16933531D02*
X5096253Y-16924008D01*
X5096253Y-16924008D02*
X5115301Y-16914484D01*
X5353396Y-16914484D02*
X5315301Y-16914484D01*
X5315301Y-16914484D02*
X5296253Y-16924008D01*
X5296253Y-16924008D02*
X5286729Y-16933531D01*
X5286729Y-16933531D02*
X5267682Y-16962103D01*
X5267682Y-16962103D02*
X5258158Y-17000198D01*
X5258158Y-17000198D02*
X5258158Y-17076389D01*
X5258158Y-17076389D02*
X5267682Y-17095436D01*
X5267682Y-17095436D02*
X5277206Y-17104960D01*
X5277206Y-17104960D02*
X5296253Y-17114484D01*
X5296253Y-17114484D02*
X5334349Y-17114484D01*
X5334349Y-17114484D02*
X5353396Y-17104960D01*
X5353396Y-17104960D02*
X5362920Y-17095436D01*
X5362920Y-17095436D02*
X5372444Y-17076389D01*
X5372444Y-17076389D02*
X5372444Y-17028770D01*
X5372444Y-17028770D02*
X5362920Y-17009722D01*
X5362920Y-17009722D02*
X5353396Y-17000198D01*
X5353396Y-17000198D02*
X5334349Y-16990674D01*
X5334349Y-16990674D02*
X5296253Y-16990674D01*
X5296253Y-16990674D02*
X5277206Y-17000198D01*
X5277206Y-17000198D02*
X5267682Y-17009722D01*
X5267682Y-17009722D02*
X5258158Y-17028770D01*
X5448634Y-16914484D02*
X5448634Y-16952579D01*
X5524825Y-16914484D02*
X5524825Y-16952579D01*
X5820063Y-17190674D02*
X5810539Y-17181150D01*
X5810539Y-17181150D02*
X5791491Y-17152579D01*
X5791491Y-17152579D02*
X5781968Y-17133531D01*
X5781968Y-17133531D02*
X5772444Y-17104960D01*
X5772444Y-17104960D02*
X5762920Y-17057341D01*
X5762920Y-17057341D02*
X5762920Y-17019246D01*
X5762920Y-17019246D02*
X5772444Y-16971627D01*
X5772444Y-16971627D02*
X5781968Y-16943055D01*
X5781968Y-16943055D02*
X5791491Y-16924008D01*
X5791491Y-16924008D02*
X5810539Y-16895436D01*
X5810539Y-16895436D02*
X5820063Y-16885912D01*
X5886729Y-16933531D02*
X5896253Y-16924008D01*
X5896253Y-16924008D02*
X5915301Y-16914484D01*
X5915301Y-16914484D02*
X5962920Y-16914484D01*
X5962920Y-16914484D02*
X5981968Y-16924008D01*
X5981968Y-16924008D02*
X5991491Y-16933531D01*
X5991491Y-16933531D02*
X6001015Y-16952579D01*
X6001015Y-16952579D02*
X6001015Y-16971627D01*
X6001015Y-16971627D02*
X5991491Y-17000198D01*
X5991491Y-17000198D02*
X5877206Y-17114484D01*
X5877206Y-17114484D02*
X6001015Y-17114484D01*
X6124825Y-16914484D02*
X6143872Y-16914484D01*
X6143872Y-16914484D02*
X6162920Y-16924008D01*
X6162920Y-16924008D02*
X6172444Y-16933531D01*
X6172444Y-16933531D02*
X6181968Y-16952579D01*
X6181968Y-16952579D02*
X6191491Y-16990674D01*
X6191491Y-16990674D02*
X6191491Y-17038293D01*
X6191491Y-17038293D02*
X6181968Y-17076389D01*
X6181968Y-17076389D02*
X6172444Y-17095436D01*
X6172444Y-17095436D02*
X6162920Y-17104960D01*
X6162920Y-17104960D02*
X6143872Y-17114484D01*
X6143872Y-17114484D02*
X6124825Y-17114484D01*
X6124825Y-17114484D02*
X6105777Y-17104960D01*
X6105777Y-17104960D02*
X6096253Y-17095436D01*
X6096253Y-17095436D02*
X6086729Y-17076389D01*
X6086729Y-17076389D02*
X6077206Y-17038293D01*
X6077206Y-17038293D02*
X6077206Y-16990674D01*
X6077206Y-16990674D02*
X6086729Y-16952579D01*
X6086729Y-16952579D02*
X6096253Y-16933531D01*
X6096253Y-16933531D02*
X6105777Y-16924008D01*
X6105777Y-16924008D02*
X6124825Y-16914484D01*
X6429587Y-17114484D02*
X6429587Y-16914484D01*
X6515301Y-17114484D02*
X6515301Y-17009722D01*
X6515301Y-17009722D02*
X6505777Y-16990674D01*
X6505777Y-16990674D02*
X6486730Y-16981150D01*
X6486730Y-16981150D02*
X6458158Y-16981150D01*
X6458158Y-16981150D02*
X6439110Y-16990674D01*
X6439110Y-16990674D02*
X6429587Y-17000198D01*
X6639110Y-17114484D02*
X6620063Y-17104960D01*
X6620063Y-17104960D02*
X6610539Y-17095436D01*
X6610539Y-17095436D02*
X6601015Y-17076389D01*
X6601015Y-17076389D02*
X6601015Y-17019246D01*
X6601015Y-17019246D02*
X6610539Y-17000198D01*
X6610539Y-17000198D02*
X6620063Y-16990674D01*
X6620063Y-16990674D02*
X6639110Y-16981150D01*
X6639110Y-16981150D02*
X6667682Y-16981150D01*
X6667682Y-16981150D02*
X6686730Y-16990674D01*
X6686730Y-16990674D02*
X6696253Y-17000198D01*
X6696253Y-17000198D02*
X6705777Y-17019246D01*
X6705777Y-17019246D02*
X6705777Y-17076389D01*
X6705777Y-17076389D02*
X6696253Y-17095436D01*
X6696253Y-17095436D02*
X6686730Y-17104960D01*
X6686730Y-17104960D02*
X6667682Y-17114484D01*
X6667682Y-17114484D02*
X6639110Y-17114484D01*
X6820063Y-17114484D02*
X6801015Y-17104960D01*
X6801015Y-17104960D02*
X6791491Y-17085912D01*
X6791491Y-17085912D02*
X6791491Y-16914484D01*
X6972444Y-17104960D02*
X6953396Y-17114484D01*
X6953396Y-17114484D02*
X6915301Y-17114484D01*
X6915301Y-17114484D02*
X6896253Y-17104960D01*
X6896253Y-17104960D02*
X6886730Y-17085912D01*
X6886730Y-17085912D02*
X6886730Y-17009722D01*
X6886730Y-17009722D02*
X6896253Y-16990674D01*
X6896253Y-16990674D02*
X6915301Y-16981150D01*
X6915301Y-16981150D02*
X6953396Y-16981150D01*
X6953396Y-16981150D02*
X6972444Y-16990674D01*
X6972444Y-16990674D02*
X6981968Y-17009722D01*
X6981968Y-17009722D02*
X6981968Y-17028770D01*
X6981968Y-17028770D02*
X6886730Y-17047817D01*
X7058158Y-17104960D02*
X7077206Y-17114484D01*
X7077206Y-17114484D02*
X7115301Y-17114484D01*
X7115301Y-17114484D02*
X7134349Y-17104960D01*
X7134349Y-17104960D02*
X7143872Y-17085912D01*
X7143872Y-17085912D02*
X7143872Y-17076389D01*
X7143872Y-17076389D02*
X7134349Y-17057341D01*
X7134349Y-17057341D02*
X7115301Y-17047817D01*
X7115301Y-17047817D02*
X7086730Y-17047817D01*
X7086730Y-17047817D02*
X7067682Y-17038293D01*
X7067682Y-17038293D02*
X7058158Y-17019246D01*
X7058158Y-17019246D02*
X7058158Y-17009722D01*
X7058158Y-17009722D02*
X7067682Y-16990674D01*
X7067682Y-16990674D02*
X7086730Y-16981150D01*
X7086730Y-16981150D02*
X7115301Y-16981150D01*
X7115301Y-16981150D02*
X7134349Y-16990674D01*
X7210539Y-17190674D02*
X7220063Y-17181150D01*
X7220063Y-17181150D02*
X7239111Y-17152579D01*
X7239111Y-17152579D02*
X7248634Y-17133531D01*
X7248634Y-17133531D02*
X7258158Y-17104960D01*
X7258158Y-17104960D02*
X7267682Y-17057341D01*
X7267682Y-17057341D02*
X7267682Y-17019246D01*
X7267682Y-17019246D02*
X7258158Y-16971627D01*
X7258158Y-16971627D02*
X7248634Y-16943055D01*
X7248634Y-16943055D02*
X7239111Y-16924008D01*
X7239111Y-16924008D02*
X7220063Y-16895436D01*
X7220063Y-16895436D02*
X7210539Y-16885912D01*
M02*
