%TF.GenerationSoftware,KiCad,Pcbnew,8.0.7*%
%TF.CreationDate,2025-01-10T10:31:37-06:00*%
%TF.ProjectId,CANBOARD_REV3,43414e42-4f41-4524-945f-524556332e6b,rev?*%
%TF.SameCoordinates,Original*%
%TF.FileFunction,Copper,L2,Bot*%
%TF.FilePolarity,Positive*%
%FSLAX46Y46*%
G04 Gerber Fmt 4.6, Leading zero omitted, Abs format (unit mm)*
G04 Created by KiCad (PCBNEW 8.0.7) date 2025-01-10 10:31:37*
%MOMM*%
%LPD*%
G01*
G04 APERTURE LIST*
%TA.AperFunction,ComponentPad*%
%ADD10C,1.600000*%
%TD*%
%TA.AperFunction,ComponentPad*%
%ADD11O,1.600000X1.600000*%
%TD*%
%TA.AperFunction,ComponentPad*%
%ADD12R,2.600000X2.600000*%
%TD*%
%TA.AperFunction,ComponentPad*%
%ADD13C,2.600000*%
%TD*%
%TA.AperFunction,ComponentPad*%
%ADD14R,1.600000X2.400000*%
%TD*%
%TA.AperFunction,ComponentPad*%
%ADD15O,1.600000X2.400000*%
%TD*%
%TA.AperFunction,ComponentPad*%
%ADD16C,1.727200*%
%TD*%
%TA.AperFunction,ComponentPad*%
%ADD17R,1.727200X1.727200*%
%TD*%
%TA.AperFunction,ComponentPad*%
%ADD18C,2.400000*%
%TD*%
%TA.AperFunction,ComponentPad*%
%ADD19R,1.700000X1.700000*%
%TD*%
%TA.AperFunction,ComponentPad*%
%ADD20O,1.700000X1.700000*%
%TD*%
%TA.AperFunction,ComponentPad*%
%ADD21R,1.800000X1.800000*%
%TD*%
%TA.AperFunction,ComponentPad*%
%ADD22C,1.800000*%
%TD*%
%TA.AperFunction,Conductor*%
%ADD23C,0.750000*%
%TD*%
%TA.AperFunction,Conductor*%
%ADD24C,0.500000*%
%TD*%
G04 APERTURE END LIST*
D10*
%TO.P,R4,1*%
%TO.N,Net-(J4-Pin_7)*%
X36955000Y-50095000D03*
D11*
%TO.P,R4,2*%
%TO.N,/Safety Circuitry/other_sw2*%
X36955000Y-60255000D03*
%TD*%
D10*
%TO.P,R5,1*%
%TO.N,Net-(J4-Pin_5)*%
X32955000Y-50095000D03*
D11*
%TO.P,R5,2*%
%TO.N,/Safety Circuitry/other_sw1*%
X32955000Y-60255000D03*
%TD*%
D10*
%TO.P,R9,1*%
%TO.N,seat_signal*%
X25875000Y-28595000D03*
D11*
%TO.P,R9,2*%
%TO.N,+3V3*%
X36035000Y-28595000D03*
%TD*%
D12*
%TO.P,J7,1,Pin_1*%
%TO.N,GND*%
X46910000Y-73400000D03*
D13*
%TO.P,J7,2,Pin_2*%
%TO.N,/Input_Power/V_in_unreg*%
X51990000Y-73400000D03*
%TD*%
D14*
%TO.P,J4,1,Pin_1*%
%TO.N,Net-(J4-Pin_1)*%
X26915000Y-43095000D03*
D15*
%TO.P,J4,2,Pin_2*%
%TO.N,GND*%
X29455000Y-43095000D03*
%TO.P,J4,3,Pin_3*%
%TO.N,Net-(J4-Pin_3)*%
X31995000Y-43095000D03*
%TO.P,J4,4,Pin_4*%
%TO.N,GND*%
X34535000Y-43095000D03*
%TO.P,J4,5,Pin_5*%
%TO.N,Net-(J4-Pin_5)*%
X37075000Y-43095000D03*
%TO.P,J4,6,Pin_6*%
%TO.N,GND*%
X39615000Y-43095000D03*
%TO.P,J4,7,Pin_7*%
%TO.N,Net-(J4-Pin_7)*%
X42155000Y-43095000D03*
%TO.P,J4,8,Pin_8*%
%TO.N,GND*%
X44695000Y-43095000D03*
%TO.P,J4,9,Pin_9*%
X44695000Y-35475000D03*
%TO.P,J4,10,Pin_10*%
%TO.N,other_sw2_sig*%
X42155000Y-35475000D03*
%TO.P,J4,11,Pin_11*%
%TO.N,GND*%
X39615000Y-35475000D03*
%TO.P,J4,12,Pin_12*%
%TO.N,other_sw1_sig*%
X37075000Y-35475000D03*
%TO.P,J4,13,Pin_13*%
%TO.N,GND*%
X34535000Y-35475000D03*
%TO.P,J4,14,Pin_14*%
%TO.N,brake_signal*%
X31995000Y-35475000D03*
%TO.P,J4,15,Pin_15*%
%TO.N,GND*%
X29455000Y-35475000D03*
%TO.P,J4,16,Pin_16*%
%TO.N,seat_signal*%
X26915000Y-35475000D03*
%TD*%
D12*
%TO.P,J8,1,Pin_1*%
%TO.N,/Safety Circuitry/seat_switch*%
X25455000Y-73095000D03*
D13*
%TO.P,J8,2,Pin_2*%
%TO.N,/Safety Circuitry/brake_switch*%
X30535000Y-73095000D03*
%TO.P,J8,3,Pin_3*%
%TO.N,/Safety Circuitry/other_sw1*%
X35615000Y-73095000D03*
%TO.P,J8,4,Pin_4*%
%TO.N,/Safety Circuitry/other_sw2*%
X40695000Y-73095000D03*
%TD*%
D10*
%TO.P,R2,1*%
%TO.N,Net-(J4-Pin_1)*%
X24955000Y-49935000D03*
D11*
%TO.P,R2,2*%
%TO.N,/Safety Circuitry/seat_switch*%
X24955000Y-60095000D03*
%TD*%
D10*
%TO.P,R7,1*%
%TO.N,other_sw1_sig*%
X39375000Y-28595000D03*
D11*
%TO.P,R7,2*%
%TO.N,+3V3*%
X49535000Y-28595000D03*
%TD*%
D10*
%TO.P,R3,1*%
%TO.N,Net-(J4-Pin_3)*%
X28955000Y-50015000D03*
D11*
%TO.P,R3,2*%
%TO.N,/Safety Circuitry/brake_switch*%
X28955000Y-60175000D03*
%TD*%
D16*
%TO.P,A1,3V3,3.3V*%
%TO.N,+3V3*%
X86455000Y-71875000D03*
%TO.P,A1,5V,5V*%
%TO.N,+5V*%
X86455000Y-46475000D03*
%TO.P,A1,A0,A0*%
%TO.N,/Arduino/A0*%
X86455000Y-66795000D03*
%TO.P,A1,A1,A1*%
%TO.N,/Arduino/A1*%
X86455000Y-64255000D03*
%TO.P,A1,A2,A2*%
%TO.N,/Arduino/A2*%
X86455000Y-61715000D03*
%TO.P,A1,A3,A3*%
%TO.N,/Arduino/A3*%
X86455000Y-59175000D03*
%TO.P,A1,A4,A4/SDA*%
%TO.N,/Arduino/A4{slash}SDA*%
X86455000Y-56635000D03*
%TO.P,A1,A5,A5/SCL*%
%TO.N,/Arduino/A5{slash}SCL*%
X86455000Y-54095000D03*
%TO.P,A1,A6,A6*%
%TO.N,/Arduino/A6*%
X86455000Y-51555000D03*
%TO.P,A1,A7,A7*%
%TO.N,/Arduino/A7*%
X86455000Y-49015000D03*
%TO.P,A1,B0,B0*%
%TO.N,unconnected-(A1-PadB0)*%
X86455000Y-69335000D03*
%TO.P,A1,B1,B1*%
%TO.N,unconnected-(A1-PadB1)*%
X86455000Y-43935000D03*
%TO.P,A1,D0,D0/RX*%
%TO.N,unconnected-(A1-D0{slash}RX-PadD0)*%
X71215000Y-41395000D03*
%TO.P,A1,D1,D1/TX*%
%TO.N,unconnected-(A1-D1{slash}TX-PadD1)*%
X71215000Y-38855000D03*
%TO.P,A1,D2,D2*%
%TO.N,seat_signal*%
X71215000Y-49015000D03*
%TO.P,A1,D3,D3*%
%TO.N,brake_signal*%
X71215000Y-51555000D03*
%TO.P,A1,D4,D4*%
%TO.N,other_sw1_sig*%
X71215000Y-54095000D03*
%TO.P,A1,D5,D5*%
%TO.N,other_sw2_sig*%
X71215000Y-56635000D03*
%TO.P,A1,D6,D6*%
%TO.N,/Arduino/D6*%
X71215000Y-59175000D03*
%TO.P,A1,D7,D7*%
%TO.N,/Arduino/D7*%
X71215000Y-61715000D03*
%TO.P,A1,D8,D8*%
%TO.N,start_sig*%
X71215000Y-64255000D03*
%TO.P,A1,D9,D9*%
%TO.N,kill_sig*%
X71215000Y-66795000D03*
%TO.P,A1,D10,D10*%
%TO.N,/Arduino/CAN_RX*%
X71215000Y-69335000D03*
%TO.P,A1,D11,D11_MOSI*%
%TO.N,/Arduino/CAN_TX*%
X71215000Y-71875000D03*
%TO.P,A1,D12,D12_MISO*%
%TO.N,unconnected-(A1-D12_MISO-PadD12)*%
X71215000Y-74415000D03*
%TO.P,A1,D13,D13_SCK*%
%TO.N,unconnected-(A1-D13_SCK-PadD13)*%
X86455000Y-74415000D03*
D17*
%TO.P,A1,GND1,GND*%
%TO.N,GND*%
X71215000Y-46475000D03*
%TO.P,A1,GND2,GND*%
X86455000Y-41395000D03*
D16*
%TO.P,A1,RST,~{RESET}*%
%TO.N,unconnected-(A1-~{RESET}-PadRST)*%
X71215000Y-43935000D03*
%TO.P,A1,VIN,VIN*%
%TO.N,VCC*%
X86455000Y-38855000D03*
%TD*%
D10*
%TO.P,R1,1*%
%TO.N,/Input_Power/V_in_unreg*%
X43455000Y-65755000D03*
D11*
%TO.P,R1,2*%
%TO.N,Net-(D1-A)*%
X43455000Y-55595000D03*
%TD*%
D18*
%TO.P,F2,1*%
%TO.N,/Input_Power/V_in_unreg*%
X49255000Y-63555000D03*
%TO.P,F2,2*%
%TO.N,VCC*%
X49255000Y-53635000D03*
%TO.P,F2,3*%
%TO.N,/Input_Power/V_in_unreg*%
X52655000Y-63555000D03*
%TO.P,F2,4*%
%TO.N,VCC*%
X52655000Y-53635000D03*
%TD*%
D19*
%TO.P,J1,1,Pin_1*%
%TO.N,+3V3*%
X58455000Y-77095000D03*
D20*
%TO.P,J1,2,Pin_2*%
%TO.N,GND*%
X60995000Y-77095000D03*
%TO.P,J1,3,Pin_3*%
%TO.N,/Arduino/CAN_RX*%
X63535000Y-77095000D03*
%TO.P,J1,4,Pin_4*%
%TO.N,/Arduino/CAN_TX*%
X66075000Y-77095000D03*
%TD*%
D12*
%TO.P,J3,1,Pin_1*%
%TO.N,kill_sig*%
X97855000Y-28095000D03*
D13*
%TO.P,J3,2,Pin_2*%
%TO.N,start_sig*%
X92775000Y-28095000D03*
%TO.P,J3,3,Pin_3*%
%TO.N,/Arduino/D7*%
X87695000Y-28095000D03*
%TO.P,J3,4,Pin_4*%
%TO.N,/Arduino/D6*%
X82615000Y-28095000D03*
%TO.P,J3,5,Pin_5*%
%TO.N,other_sw2_sig*%
X77535000Y-28095000D03*
%TO.P,J3,6,Pin_6*%
%TO.N,other_sw1_sig*%
X72455000Y-28095000D03*
%TO.P,J3,7,Pin_7*%
%TO.N,brake_signal*%
X67375000Y-28095000D03*
%TO.P,J3,8,Pin_8*%
%TO.N,seat_signal*%
X62295000Y-28095000D03*
%TD*%
D10*
%TO.P,R8,1*%
%TO.N,brake_signal*%
X30875000Y-32095000D03*
D11*
%TO.P,R8,2*%
%TO.N,+3V3*%
X41035000Y-32095000D03*
%TD*%
D10*
%TO.P,R6,1*%
%TO.N,other_sw2_sig*%
X44375000Y-32095000D03*
D11*
%TO.P,R6,2*%
%TO.N,+3V3*%
X54535000Y-32095000D03*
%TD*%
D19*
%TO.P,J6,1,Pin_1*%
%TO.N,VCC*%
X67195000Y-37595000D03*
D20*
%TO.P,J6,2,Pin_2*%
X64655000Y-37595000D03*
%TO.P,J6,3,Pin_3*%
%TO.N,+3V3*%
X62115000Y-37595000D03*
%TO.P,J6,4,Pin_4*%
X59575000Y-37595000D03*
%TO.P,J6,5,Pin_5*%
%TO.N,GND*%
X57035000Y-37595000D03*
%TO.P,J6,6,Pin_6*%
X54495000Y-37595000D03*
%TO.P,J6,7,Pin_7*%
X51955000Y-37595000D03*
%TO.P,J6,8,Pin_8*%
X49415000Y-37595000D03*
%TD*%
D21*
%TO.P,D1,1,K*%
%TO.N,VCC*%
X43455000Y-49320000D03*
D22*
%TO.P,D1,2,A*%
%TO.N,Net-(D1-A)*%
X43455000Y-51860000D03*
%TD*%
D12*
%TO.P,J2,1,Pin_1*%
%TO.N,/Arduino/A7*%
X96230000Y-38525000D03*
D13*
%TO.P,J2,2,Pin_2*%
%TO.N,/Arduino/A6*%
X96230000Y-43605000D03*
%TO.P,J2,3,Pin_3*%
%TO.N,/Arduino/A5{slash}SCL*%
X96230000Y-48685000D03*
%TO.P,J2,4,Pin_4*%
%TO.N,/Arduino/A4{slash}SDA*%
X96230000Y-53765000D03*
%TO.P,J2,5,Pin_5*%
%TO.N,/Arduino/A3*%
X96230000Y-58845000D03*
%TO.P,J2,6,Pin_6*%
%TO.N,/Arduino/A2*%
X96230000Y-63925000D03*
%TO.P,J2,7,Pin_7*%
%TO.N,/Arduino/A1*%
X96230000Y-69005000D03*
%TO.P,J2,8,Pin_8*%
%TO.N,/Arduino/A0*%
X96230000Y-74085000D03*
%TD*%
D23*
%TO.N,+3V3*%
X39535000Y-32095000D02*
X36035000Y-28595000D01*
X41035000Y-32095000D02*
X39535000Y-32095000D01*
D24*
%TO.N,brake_signal*%
X66535000Y-27255000D02*
X67375000Y-28095000D01*
X65535000Y-24805000D02*
X66535000Y-25805000D01*
X30875000Y-32095000D02*
X30875000Y-30963630D01*
X30875000Y-30963630D02*
X37033630Y-24805000D01*
X66535000Y-25805000D02*
X66535000Y-27255000D01*
X37033630Y-24805000D02*
X65535000Y-24805000D01*
%TO.N,Net-(J4-Pin_1)*%
X26535000Y-43475000D02*
X26915000Y-43095000D01*
X26535000Y-48355000D02*
X26535000Y-43475000D01*
X24955000Y-49935000D02*
X26535000Y-48355000D01*
%TO.N,Net-(J4-Pin_3)*%
X28955000Y-50015000D02*
X30535000Y-48435000D01*
X30535000Y-44555000D02*
X31995000Y-43095000D01*
X30535000Y-48435000D02*
X30535000Y-44555000D01*
%TO.N,Net-(J4-Pin_7)*%
X37745000Y-50095000D02*
X42155000Y-45685000D01*
X42155000Y-45685000D02*
X42155000Y-43095000D01*
X36955000Y-50095000D02*
X37745000Y-50095000D01*
%TO.N,/Safety Circuitry/seat_switch*%
X25455000Y-73095000D02*
X25455000Y-60595000D01*
X25455000Y-60595000D02*
X24955000Y-60095000D01*
%TO.N,/Safety Circuitry/brake_switch*%
X28955000Y-71515000D02*
X30535000Y-73095000D01*
X28955000Y-60175000D02*
X28955000Y-71515000D01*
%TO.N,Net-(J4-Pin_5)*%
X32955000Y-49385000D02*
X36035000Y-46305000D01*
X36035000Y-46305000D02*
X36035000Y-44135000D01*
X32955000Y-50095000D02*
X32955000Y-49385000D01*
X36035000Y-44135000D02*
X37075000Y-43095000D01*
%TO.N,other_sw2_sig*%
X72650000Y-32980000D02*
X77535000Y-28095000D01*
X58860000Y-32980000D02*
X72650000Y-32980000D01*
X57535000Y-34305000D02*
X58860000Y-32980000D01*
X46585000Y-34305000D02*
X57535000Y-34305000D01*
X44375000Y-32095000D02*
X46585000Y-34305000D01*
%TO.N,other_sw1_sig*%
X69745000Y-30805000D02*
X72455000Y-28095000D01*
X41585000Y-30805000D02*
X69745000Y-30805000D01*
X39375000Y-28595000D02*
X41585000Y-30805000D01*
D23*
%TO.N,VCC*%
X64655000Y-37685000D02*
X68535000Y-33805000D01*
X68535000Y-33805000D02*
X78035000Y-33805000D01*
X64655000Y-41635000D02*
X64655000Y-37595000D01*
X78035000Y-33805000D02*
X83085000Y-38855000D01*
X83085000Y-38855000D02*
X86455000Y-38855000D01*
X64655000Y-41635000D02*
X64655000Y-37685000D01*
X52655000Y-53635000D02*
X64655000Y-41635000D01*
D24*
%TO.N,/Safety Circuitry/other_sw2*%
X40695000Y-63995000D02*
X36955000Y-60255000D01*
X40695000Y-73095000D02*
X40695000Y-63995000D01*
%TO.N,/Safety Circuitry/other_sw1*%
X32955000Y-70435000D02*
X32955000Y-60255000D01*
X35615000Y-73095000D02*
X32955000Y-70435000D01*
%TD*%
%TA.AperFunction,Conductor*%
%TO.N,GND*%
G36*
X51489075Y-37402007D02*
G01*
X51455000Y-37529174D01*
X51455000Y-37660826D01*
X51489075Y-37787993D01*
X51521988Y-37845000D01*
X49848012Y-37845000D01*
X49880925Y-37787993D01*
X49915000Y-37660826D01*
X49915000Y-37529174D01*
X49880925Y-37402007D01*
X49848012Y-37345000D01*
X51521988Y-37345000D01*
X51489075Y-37402007D01*
G37*
%TD.AperFunction*%
%TA.AperFunction,Conductor*%
G36*
X54029075Y-37402007D02*
G01*
X53995000Y-37529174D01*
X53995000Y-37660826D01*
X54029075Y-37787993D01*
X54061988Y-37845000D01*
X52388012Y-37845000D01*
X52420925Y-37787993D01*
X52455000Y-37660826D01*
X52455000Y-37529174D01*
X52420925Y-37402007D01*
X52388012Y-37345000D01*
X54061988Y-37345000D01*
X54029075Y-37402007D01*
G37*
%TD.AperFunction*%
%TA.AperFunction,Conductor*%
G36*
X56569075Y-37402007D02*
G01*
X56535000Y-37529174D01*
X56535000Y-37660826D01*
X56569075Y-37787993D01*
X56601988Y-37845000D01*
X54928012Y-37845000D01*
X54960925Y-37787993D01*
X54995000Y-37660826D01*
X54995000Y-37529174D01*
X54960925Y-37402007D01*
X54928012Y-37345000D01*
X56601988Y-37345000D01*
X56569075Y-37402007D01*
G37*
%TD.AperFunction*%
%TA.AperFunction,Conductor*%
G36*
X100495727Y-23824685D02*
G01*
X100541482Y-23877489D01*
X100552687Y-23929038D01*
X100535733Y-78450659D01*
X100535039Y-80681039D01*
X100515334Y-80748072D01*
X100462515Y-80793810D01*
X100411039Y-80805000D01*
X24659000Y-80805000D01*
X24591961Y-80785315D01*
X24546206Y-80732511D01*
X24535000Y-80681000D01*
X24535000Y-76197135D01*
X57104500Y-76197135D01*
X57104500Y-77992870D01*
X57104501Y-77992876D01*
X57110908Y-78052483D01*
X57161202Y-78187328D01*
X57161206Y-78187335D01*
X57247452Y-78302544D01*
X57247455Y-78302547D01*
X57362664Y-78388793D01*
X57362671Y-78388797D01*
X57497517Y-78439091D01*
X57497516Y-78439091D01*
X57504444Y-78439835D01*
X57557127Y-78445500D01*
X59352872Y-78445499D01*
X59412483Y-78439091D01*
X59547331Y-78388796D01*
X59662546Y-78302546D01*
X59748796Y-78187331D01*
X59798002Y-78055401D01*
X59839872Y-77999468D01*
X59905337Y-77975050D01*
X59973610Y-77989901D01*
X60001865Y-78011053D01*
X60123917Y-78133105D01*
X60317421Y-78268600D01*
X60531507Y-78368429D01*
X60531516Y-78368433D01*
X60745000Y-78425634D01*
X60745000Y-77528012D01*
X60802007Y-77560925D01*
X60929174Y-77595000D01*
X61060826Y-77595000D01*
X61187993Y-77560925D01*
X61245000Y-77528012D01*
X61245000Y-78425633D01*
X61458483Y-78368433D01*
X61458492Y-78368429D01*
X61672578Y-78268600D01*
X61866082Y-78133105D01*
X62033105Y-77966082D01*
X62163119Y-77780405D01*
X62217696Y-77736781D01*
X62287195Y-77729588D01*
X62349549Y-77761110D01*
X62366269Y-77780405D01*
X62496505Y-77966401D01*
X62663599Y-78133495D01*
X62760384Y-78201265D01*
X62857165Y-78269032D01*
X62857167Y-78269033D01*
X62857170Y-78269035D01*
X63071337Y-78368903D01*
X63299592Y-78430063D01*
X63476034Y-78445500D01*
X63534999Y-78450659D01*
X63535000Y-78450659D01*
X63535001Y-78450659D01*
X63593966Y-78445500D01*
X63770408Y-78430063D01*
X63998663Y-78368903D01*
X64212830Y-78269035D01*
X64406401Y-78133495D01*
X64573495Y-77966401D01*
X64703425Y-77780842D01*
X64758002Y-77737217D01*
X64827500Y-77730023D01*
X64889855Y-77761546D01*
X64906575Y-77780842D01*
X65036500Y-77966395D01*
X65036505Y-77966401D01*
X65203599Y-78133495D01*
X65300384Y-78201265D01*
X65397165Y-78269032D01*
X65397167Y-78269033D01*
X65397170Y-78269035D01*
X65611337Y-78368903D01*
X65839592Y-78430063D01*
X66016034Y-78445500D01*
X66074999Y-78450659D01*
X66075000Y-78450659D01*
X66075001Y-78450659D01*
X66133966Y-78445500D01*
X66310408Y-78430063D01*
X66538663Y-78368903D01*
X66752830Y-78269035D01*
X66946401Y-78133495D01*
X67113495Y-77966401D01*
X67249035Y-77772830D01*
X67348903Y-77558663D01*
X67410063Y-77330408D01*
X67430659Y-77095000D01*
X67410063Y-76859592D01*
X67348903Y-76631337D01*
X67249035Y-76417171D01*
X67243731Y-76409595D01*
X67113494Y-76223597D01*
X66946402Y-76056506D01*
X66946395Y-76056501D01*
X66752834Y-75920967D01*
X66752830Y-75920965D01*
X66726950Y-75908897D01*
X66538663Y-75821097D01*
X66538659Y-75821096D01*
X66538655Y-75821094D01*
X66310413Y-75759938D01*
X66310403Y-75759936D01*
X66075001Y-75739341D01*
X66074999Y-75739341D01*
X65839596Y-75759936D01*
X65839586Y-75759938D01*
X65611344Y-75821094D01*
X65611335Y-75821098D01*
X65397171Y-75920964D01*
X65397169Y-75920965D01*
X65203597Y-76056505D01*
X65036505Y-76223597D01*
X64906575Y-76409158D01*
X64851998Y-76452783D01*
X64782500Y-76459977D01*
X64720145Y-76428454D01*
X64703425Y-76409158D01*
X64573494Y-76223597D01*
X64406402Y-76056506D01*
X64406395Y-76056501D01*
X64212834Y-75920967D01*
X64212830Y-75920965D01*
X64186950Y-75908897D01*
X63998663Y-75821097D01*
X63998659Y-75821096D01*
X63998655Y-75821094D01*
X63770413Y-75759938D01*
X63770403Y-75759936D01*
X63535001Y-75739341D01*
X63534999Y-75739341D01*
X63299596Y-75759936D01*
X63299586Y-75759938D01*
X63071344Y-75821094D01*
X63071335Y-75821098D01*
X62857171Y-75920964D01*
X62857169Y-75920965D01*
X62663597Y-76056505D01*
X62496508Y-76223594D01*
X62366269Y-76409595D01*
X62311692Y-76453219D01*
X62242193Y-76460412D01*
X62179839Y-76428890D01*
X62163119Y-76409594D01*
X62033113Y-76223926D01*
X62033108Y-76223920D01*
X61866082Y-76056894D01*
X61672578Y-75921399D01*
X61458492Y-75821570D01*
X61458486Y-75821567D01*
X61245000Y-75764364D01*
X61245000Y-76661988D01*
X61187993Y-76629075D01*
X61060826Y-76595000D01*
X60929174Y-76595000D01*
X60802007Y-76629075D01*
X60745000Y-76661988D01*
X60745000Y-75764364D01*
X60744999Y-75764364D01*
X60531513Y-75821567D01*
X60531507Y-75821570D01*
X60317422Y-75921399D01*
X60317420Y-75921400D01*
X60123926Y-76056886D01*
X60001865Y-76178947D01*
X59940542Y-76212431D01*
X59870850Y-76207447D01*
X59814917Y-76165575D01*
X59798002Y-76134598D01*
X59748797Y-76002671D01*
X59748793Y-76002664D01*
X59662547Y-75887455D01*
X59662544Y-75887452D01*
X59547335Y-75801206D01*
X59547328Y-75801202D01*
X59412482Y-75750908D01*
X59412483Y-75750908D01*
X59352883Y-75744501D01*
X59352881Y-75744500D01*
X59352873Y-75744500D01*
X59352864Y-75744500D01*
X57557129Y-75744500D01*
X57557123Y-75744501D01*
X57497516Y-75750908D01*
X57362671Y-75801202D01*
X57362664Y-75801206D01*
X57247455Y-75887452D01*
X57247452Y-75887455D01*
X57161206Y-76002664D01*
X57161202Y-76002671D01*
X57110908Y-76137517D01*
X57104501Y-76197116D01*
X57104500Y-76197135D01*
X24535000Y-76197135D01*
X24535000Y-75019499D01*
X24554685Y-74952460D01*
X24607489Y-74906705D01*
X24658996Y-74895499D01*
X26802872Y-74895499D01*
X26862483Y-74889091D01*
X26997331Y-74838796D01*
X27112546Y-74752546D01*
X27198796Y-74637331D01*
X27249091Y-74502483D01*
X27255500Y-74442873D01*
X27255499Y-71747128D01*
X27249091Y-71687517D01*
X27247542Y-71683365D01*
X27198797Y-71552671D01*
X27198793Y-71552664D01*
X27112547Y-71437455D01*
X27112544Y-71437452D01*
X26997335Y-71351206D01*
X26997328Y-71351202D01*
X26862482Y-71300908D01*
X26862483Y-71300908D01*
X26802883Y-71294501D01*
X26802881Y-71294500D01*
X26802873Y-71294500D01*
X26802865Y-71294500D01*
X26329500Y-71294500D01*
X26262461Y-71274815D01*
X26216706Y-71222011D01*
X26205500Y-71170500D01*
X26205500Y-60521080D01*
X26203348Y-60510264D01*
X26205188Y-60453976D01*
X26240635Y-60321692D01*
X26253469Y-60174998D01*
X27649532Y-60174998D01*
X27649532Y-60175001D01*
X27669364Y-60401686D01*
X27669366Y-60401697D01*
X27728258Y-60621488D01*
X27728261Y-60621497D01*
X27824431Y-60827732D01*
X27824432Y-60827734D01*
X27954954Y-61014141D01*
X28115859Y-61175046D01*
X28151621Y-61200086D01*
X28195247Y-61254662D01*
X28204500Y-61301662D01*
X28204500Y-71588918D01*
X28204500Y-71588920D01*
X28204499Y-71588920D01*
X28233340Y-71733907D01*
X28233343Y-71733917D01*
X28289914Y-71870492D01*
X28322812Y-71919727D01*
X28322813Y-71919730D01*
X28372046Y-71993414D01*
X28372052Y-71993421D01*
X28789397Y-72410766D01*
X28822882Y-72472089D01*
X28817898Y-72541781D01*
X28817146Y-72543745D01*
X28809667Y-72562802D01*
X28809663Y-72562816D01*
X28749616Y-72825898D01*
X28729451Y-73094995D01*
X28729451Y-73095004D01*
X28749616Y-73364101D01*
X28809664Y-73627188D01*
X28809666Y-73627195D01*
X28908257Y-73878398D01*
X29043185Y-74112102D01*
X29105076Y-74189710D01*
X29211442Y-74323089D01*
X29398183Y-74496358D01*
X29409259Y-74506635D01*
X29632226Y-74658651D01*
X29875359Y-74775738D01*
X30133228Y-74855280D01*
X30133229Y-74855280D01*
X30133232Y-74855281D01*
X30400063Y-74895499D01*
X30400068Y-74895499D01*
X30400071Y-74895500D01*
X30400072Y-74895500D01*
X30669928Y-74895500D01*
X30669929Y-74895500D01*
X30669936Y-74895499D01*
X30936767Y-74855281D01*
X30936768Y-74855280D01*
X30936772Y-74855280D01*
X31194641Y-74775738D01*
X31437775Y-74658651D01*
X31660741Y-74506635D01*
X31858561Y-74323085D01*
X32026815Y-74112102D01*
X32161743Y-73878398D01*
X32260334Y-73627195D01*
X32320383Y-73364103D01*
X32328630Y-73254055D01*
X32340549Y-73095004D01*
X32340549Y-73094995D01*
X32320383Y-72825898D01*
X32295237Y-72715727D01*
X32260334Y-72562805D01*
X32161743Y-72311602D01*
X32026815Y-72077898D01*
X31858561Y-71866915D01*
X31858560Y-71866914D01*
X31858557Y-71866910D01*
X31660741Y-71683365D01*
X31611374Y-71649707D01*
X31437775Y-71531349D01*
X31437769Y-71531346D01*
X31437768Y-71531345D01*
X31437767Y-71531344D01*
X31194643Y-71414263D01*
X31194645Y-71414263D01*
X30936773Y-71334720D01*
X30936767Y-71334718D01*
X30669936Y-71294500D01*
X30669929Y-71294500D01*
X30400071Y-71294500D01*
X30400063Y-71294500D01*
X30133232Y-71334718D01*
X30133222Y-71334721D01*
X29977532Y-71382744D01*
X29907669Y-71383694D01*
X29853302Y-71351934D01*
X29741819Y-71240451D01*
X29708334Y-71179128D01*
X29705500Y-71152770D01*
X29705500Y-61301662D01*
X29725185Y-61234623D01*
X29758379Y-61200086D01*
X29794140Y-61175046D01*
X29955045Y-61014141D01*
X29955047Y-61014139D01*
X30085568Y-60827734D01*
X30181739Y-60621496D01*
X30240635Y-60401692D01*
X30253469Y-60254998D01*
X31649532Y-60254998D01*
X31649532Y-60255001D01*
X31669364Y-60481686D01*
X31669366Y-60481697D01*
X31728258Y-60701488D01*
X31728261Y-60701497D01*
X31824431Y-60907732D01*
X31824432Y-60907734D01*
X31954954Y-61094141D01*
X32115859Y-61255046D01*
X32151621Y-61280086D01*
X32195247Y-61334662D01*
X32204500Y-61381662D01*
X32204500Y-70508918D01*
X32204500Y-70508920D01*
X32204499Y-70508920D01*
X32233340Y-70653907D01*
X32233343Y-70653917D01*
X32289912Y-70790488D01*
X32289918Y-70790499D01*
X32299939Y-70805495D01*
X32299941Y-70805500D01*
X32372046Y-70913414D01*
X32372052Y-70913421D01*
X33869397Y-72410766D01*
X33902882Y-72472089D01*
X33897898Y-72541781D01*
X33897146Y-72543745D01*
X33889667Y-72562802D01*
X33889663Y-72562816D01*
X33829616Y-72825898D01*
X33809451Y-73094995D01*
X33809451Y-73095004D01*
X33829616Y-73364101D01*
X33889664Y-73627188D01*
X33889666Y-73627195D01*
X33988257Y-73878398D01*
X34123185Y-74112102D01*
X34185076Y-74189710D01*
X34291442Y-74323089D01*
X34478183Y-74496358D01*
X34489259Y-74506635D01*
X34712226Y-74658651D01*
X34955359Y-74775738D01*
X35213228Y-74855280D01*
X35213229Y-74855280D01*
X35213232Y-74855281D01*
X35480063Y-74895499D01*
X35480068Y-74895499D01*
X35480071Y-74895500D01*
X35480072Y-74895500D01*
X35749928Y-74895500D01*
X35749929Y-74895500D01*
X35749936Y-74895499D01*
X36016767Y-74855281D01*
X36016768Y-74855280D01*
X36016772Y-74855280D01*
X36274641Y-74775738D01*
X36517775Y-74658651D01*
X36740741Y-74506635D01*
X36938561Y-74323085D01*
X37106815Y-74112102D01*
X37241743Y-73878398D01*
X37340334Y-73627195D01*
X37400383Y-73364103D01*
X37408630Y-73254055D01*
X37420549Y-73095004D01*
X37420549Y-73094995D01*
X37400383Y-72825898D01*
X37375237Y-72715727D01*
X37340334Y-72562805D01*
X37241743Y-72311602D01*
X37106815Y-72077898D01*
X36938561Y-71866915D01*
X36938560Y-71866914D01*
X36938557Y-71866910D01*
X36740741Y-71683365D01*
X36691374Y-71649707D01*
X36517775Y-71531349D01*
X36517769Y-71531346D01*
X36517768Y-71531345D01*
X36517767Y-71531344D01*
X36274643Y-71414263D01*
X36274645Y-71414263D01*
X36016773Y-71334720D01*
X36016767Y-71334718D01*
X35749936Y-71294500D01*
X35749929Y-71294500D01*
X35480071Y-71294500D01*
X35480063Y-71294500D01*
X35213232Y-71334718D01*
X35213222Y-71334721D01*
X35057532Y-71382744D01*
X34987669Y-71383694D01*
X34933302Y-71351934D01*
X33741819Y-70160451D01*
X33708334Y-70099128D01*
X33705500Y-70072770D01*
X33705500Y-61381662D01*
X33725185Y-61314623D01*
X33758379Y-61280086D01*
X33794140Y-61255046D01*
X33955045Y-61094141D01*
X33955047Y-61094139D01*
X34085568Y-60907734D01*
X34181739Y-60701496D01*
X34240635Y-60481692D01*
X34260468Y-60255000D01*
X34260468Y-60254998D01*
X35649532Y-60254998D01*
X35649532Y-60255001D01*
X35669364Y-60481686D01*
X35669366Y-60481697D01*
X35728258Y-60701488D01*
X35728261Y-60701497D01*
X35824431Y-60907732D01*
X35824432Y-60907734D01*
X35954954Y-61094141D01*
X36115858Y-61255045D01*
X36115861Y-61255047D01*
X36302266Y-61385568D01*
X36508504Y-61481739D01*
X36728308Y-61540635D01*
X36890230Y-61554801D01*
X36954998Y-61560468D01*
X36955000Y-61560468D01*
X36955001Y-61560468D01*
X36975062Y-61558712D01*
X37121861Y-61545869D01*
X37190359Y-61559635D01*
X37220348Y-61581716D01*
X39908181Y-64269549D01*
X39941666Y-64330872D01*
X39944500Y-64357230D01*
X39944500Y-71380102D01*
X39924815Y-71447141D01*
X39874303Y-71491821D01*
X39792235Y-71531344D01*
X39792232Y-71531345D01*
X39569258Y-71683365D01*
X39371442Y-71866910D01*
X39203185Y-72077898D01*
X39068258Y-72311599D01*
X39068256Y-72311603D01*
X38969666Y-72562804D01*
X38969664Y-72562811D01*
X38909616Y-72825898D01*
X38889451Y-73094995D01*
X38889451Y-73095004D01*
X38909616Y-73364101D01*
X38969664Y-73627188D01*
X38969666Y-73627195D01*
X39068257Y-73878398D01*
X39203185Y-74112102D01*
X39265076Y-74189710D01*
X39371442Y-74323089D01*
X39558183Y-74496358D01*
X39569259Y-74506635D01*
X39792226Y-74658651D01*
X40035359Y-74775738D01*
X40293228Y-74855280D01*
X40293229Y-74855280D01*
X40293232Y-74855281D01*
X40560063Y-74895499D01*
X40560068Y-74895499D01*
X40560071Y-74895500D01*
X40560072Y-74895500D01*
X40829928Y-74895500D01*
X40829929Y-74895500D01*
X40829936Y-74895499D01*
X41096767Y-74855281D01*
X41096768Y-74855280D01*
X41096772Y-74855280D01*
X41354641Y-74775738D01*
X41597775Y-74658651D01*
X41820741Y-74506635D01*
X42018561Y-74323085D01*
X42186815Y-74112102D01*
X42321743Y-73878398D01*
X42420334Y-73627195D01*
X42480383Y-73364103D01*
X42488630Y-73254055D01*
X42500549Y-73095004D01*
X42500549Y-73094995D01*
X42480383Y-72825898D01*
X42455237Y-72715727D01*
X42420334Y-72562805D01*
X42321743Y-72311602D01*
X42186815Y-72077898D01*
X42166286Y-72052155D01*
X45110000Y-72052155D01*
X45110000Y-73150000D01*
X46309999Y-73150000D01*
X46284979Y-73210402D01*
X46260000Y-73335981D01*
X46260000Y-73464019D01*
X46284979Y-73589598D01*
X46309999Y-73650000D01*
X45110000Y-73650000D01*
X45110000Y-74747844D01*
X45116401Y-74807372D01*
X45116403Y-74807379D01*
X45166645Y-74942086D01*
X45166649Y-74942093D01*
X45252809Y-75057187D01*
X45252812Y-75057190D01*
X45367906Y-75143350D01*
X45367913Y-75143354D01*
X45502620Y-75193596D01*
X45502627Y-75193598D01*
X45562155Y-75199999D01*
X45562172Y-75200000D01*
X46660000Y-75200000D01*
X46660000Y-74000001D01*
X46720402Y-74025021D01*
X46845981Y-74050000D01*
X46974019Y-74050000D01*
X47099598Y-74025021D01*
X47160000Y-74000001D01*
X47160000Y-75200000D01*
X48257828Y-75200000D01*
X48257844Y-75199999D01*
X48317372Y-75193598D01*
X48317379Y-75193596D01*
X48452086Y-75143354D01*
X48452093Y-75143350D01*
X48567187Y-75057190D01*
X48567190Y-75057187D01*
X48653350Y-74942093D01*
X48653354Y-74942086D01*
X48703596Y-74807379D01*
X48703598Y-74807372D01*
X48709999Y-74747844D01*
X48710000Y-74747827D01*
X48710000Y-73650000D01*
X47510001Y-73650000D01*
X47535021Y-73589598D01*
X47560000Y-73464019D01*
X47560000Y-73399995D01*
X50184451Y-73399995D01*
X50184451Y-73400004D01*
X50204616Y-73669101D01*
X50264664Y-73932188D01*
X50264666Y-73932195D01*
X50310901Y-74050000D01*
X50363257Y-74183398D01*
X50498185Y-74417102D01*
X50634080Y-74587509D01*
X50666442Y-74628089D01*
X50800574Y-74752544D01*
X50864259Y-74811635D01*
X51087226Y-74963651D01*
X51330359Y-75080738D01*
X51588228Y-75160280D01*
X51588229Y-75160280D01*
X51588232Y-75160281D01*
X51855063Y-75200499D01*
X51855068Y-75200499D01*
X51855071Y-75200500D01*
X51855072Y-75200500D01*
X52124928Y-75200500D01*
X52124929Y-75200500D01*
X52124936Y-75200499D01*
X52391767Y-75160281D01*
X52391768Y-75160280D01*
X52391772Y-75160280D01*
X52649641Y-75080738D01*
X52892775Y-74963651D01*
X53115741Y-74811635D01*
X53280614Y-74658655D01*
X53313557Y-74628089D01*
X53313557Y-74628087D01*
X53313561Y-74628085D01*
X53481815Y-74417102D01*
X53616743Y-74183398D01*
X53715334Y-73932195D01*
X53775383Y-73669103D01*
X53790752Y-73464019D01*
X53795549Y-73400004D01*
X53795549Y-73399995D01*
X53777068Y-73153382D01*
X53775383Y-73130897D01*
X53715334Y-72867805D01*
X53616743Y-72616602D01*
X53481815Y-72382898D01*
X53313561Y-72171915D01*
X53313560Y-72171914D01*
X53313557Y-72171910D01*
X53115741Y-71988365D01*
X53015072Y-71919730D01*
X52892775Y-71836349D01*
X52892769Y-71836346D01*
X52892768Y-71836345D01*
X52892767Y-71836344D01*
X52649643Y-71719263D01*
X52649645Y-71719263D01*
X52391773Y-71639720D01*
X52391767Y-71639718D01*
X52124936Y-71599500D01*
X52124929Y-71599500D01*
X51855071Y-71599500D01*
X51855063Y-71599500D01*
X51588232Y-71639718D01*
X51588226Y-71639720D01*
X51330358Y-71719262D01*
X51087230Y-71836346D01*
X50864258Y-71988365D01*
X50666442Y-72171910D01*
X50498185Y-72382898D01*
X50363258Y-72616599D01*
X50363256Y-72616603D01*
X50264666Y-72867804D01*
X50264664Y-72867811D01*
X50204616Y-73130898D01*
X50184451Y-73399995D01*
X47560000Y-73399995D01*
X47560000Y-73335981D01*
X47535021Y-73210402D01*
X47510001Y-73150000D01*
X48710000Y-73150000D01*
X48710000Y-72052172D01*
X48709999Y-72052155D01*
X48703598Y-71992627D01*
X48703596Y-71992620D01*
X48653354Y-71857913D01*
X48653350Y-71857906D01*
X48567190Y-71742812D01*
X48567187Y-71742809D01*
X48452093Y-71656649D01*
X48452086Y-71656645D01*
X48317379Y-71606403D01*
X48317372Y-71606401D01*
X48257844Y-71600000D01*
X47160000Y-71600000D01*
X47160000Y-72799998D01*
X47099598Y-72774979D01*
X46974019Y-72750000D01*
X46845981Y-72750000D01*
X46720402Y-72774979D01*
X46660000Y-72799998D01*
X46660000Y-71600000D01*
X45562155Y-71600000D01*
X45502627Y-71606401D01*
X45502620Y-71606403D01*
X45367913Y-71656645D01*
X45367906Y-71656649D01*
X45252812Y-71742809D01*
X45252809Y-71742812D01*
X45166649Y-71857906D01*
X45166645Y-71857913D01*
X45116403Y-71992620D01*
X45116401Y-71992627D01*
X45110000Y-72052155D01*
X42166286Y-72052155D01*
X42018561Y-71866915D01*
X42018560Y-71866914D01*
X42018557Y-71866910D01*
X41820741Y-71683365D01*
X41756723Y-71639718D01*
X41597775Y-71531349D01*
X41597772Y-71531348D01*
X41597770Y-71531346D01*
X41515698Y-71491822D01*
X41463838Y-71444999D01*
X41445500Y-71380102D01*
X41445500Y-65754998D01*
X42149532Y-65754998D01*
X42149532Y-65755001D01*
X42169364Y-65981686D01*
X42169366Y-65981697D01*
X42228258Y-66201488D01*
X42228261Y-66201497D01*
X42324431Y-66407732D01*
X42324432Y-66407734D01*
X42454954Y-66594141D01*
X42615858Y-66755045D01*
X42615861Y-66755047D01*
X42802266Y-66885568D01*
X43008504Y-66981739D01*
X43228308Y-67040635D01*
X43390230Y-67054801D01*
X43454998Y-67060468D01*
X43455000Y-67060468D01*
X43455002Y-67060468D01*
X43511673Y-67055509D01*
X43681692Y-67040635D01*
X43901496Y-66981739D01*
X44107734Y-66885568D01*
X44294139Y-66755047D01*
X44455047Y-66594139D01*
X44585568Y-66407734D01*
X44681739Y-66201496D01*
X44740635Y-65981692D01*
X44760468Y-65755000D01*
X44740635Y-65528308D01*
X44681739Y-65308504D01*
X44585568Y-65102266D01*
X44455047Y-64915861D01*
X44455045Y-64915858D01*
X44294141Y-64754954D01*
X44107734Y-64624432D01*
X44107732Y-64624431D01*
X43901497Y-64528261D01*
X43901488Y-64528258D01*
X43681697Y-64469366D01*
X43681693Y-64469365D01*
X43681692Y-64469365D01*
X43681691Y-64469364D01*
X43681686Y-64469364D01*
X43455002Y-64449532D01*
X43454998Y-64449532D01*
X43228313Y-64469364D01*
X43228302Y-64469366D01*
X43008511Y-64528258D01*
X43008502Y-64528261D01*
X42802267Y-64624431D01*
X42802265Y-64624432D01*
X42615858Y-64754954D01*
X42454954Y-64915858D01*
X42324432Y-65102265D01*
X42324431Y-65102267D01*
X42228261Y-65308502D01*
X42228258Y-65308511D01*
X42169366Y-65528302D01*
X42169364Y-65528313D01*
X42149532Y-65754998D01*
X41445500Y-65754998D01*
X41445500Y-63921080D01*
X41433257Y-63859535D01*
X41433257Y-63859534D01*
X41416659Y-63776088D01*
X41367476Y-63657352D01*
X41360084Y-63639505D01*
X41303620Y-63555000D01*
X41303617Y-63554995D01*
X47549732Y-63554995D01*
X47549732Y-63555001D01*
X47568777Y-63809154D01*
X47619117Y-64029710D01*
X47625492Y-64057637D01*
X47718607Y-64294888D01*
X47846041Y-64515612D01*
X48004950Y-64714877D01*
X48191783Y-64888232D01*
X48402366Y-65031805D01*
X48402371Y-65031807D01*
X48402372Y-65031808D01*
X48402373Y-65031809D01*
X48524328Y-65090538D01*
X48631992Y-65142387D01*
X48631993Y-65142387D01*
X48631996Y-65142389D01*
X48875542Y-65217513D01*
X49127565Y-65255500D01*
X49382435Y-65255500D01*
X49634458Y-65217513D01*
X49878004Y-65142389D01*
X50107634Y-65031805D01*
X50318217Y-64888232D01*
X50505050Y-64714877D01*
X50663959Y-64515612D01*
X50791393Y-64294888D01*
X50839572Y-64172128D01*
X50882388Y-64116917D01*
X50948258Y-64093616D01*
X51016269Y-64109627D01*
X51064827Y-64159865D01*
X51070425Y-64172123D01*
X51118607Y-64294888D01*
X51246041Y-64515612D01*
X51404950Y-64714877D01*
X51591783Y-64888232D01*
X51802366Y-65031805D01*
X51802371Y-65031807D01*
X51802372Y-65031808D01*
X51802373Y-65031809D01*
X51924328Y-65090538D01*
X52031992Y-65142387D01*
X52031993Y-65142387D01*
X52031996Y-65142389D01*
X52275542Y-65217513D01*
X52527565Y-65255500D01*
X52782435Y-65255500D01*
X53034458Y-65217513D01*
X53278004Y-65142389D01*
X53507634Y-65031805D01*
X53718217Y-64888232D01*
X53905050Y-64714877D01*
X54063959Y-64515612D01*
X54191393Y-64294888D01*
X54284508Y-64057637D01*
X54341222Y-63809157D01*
X54360268Y-63555000D01*
X54341222Y-63300843D01*
X54284508Y-63052363D01*
X54191393Y-62815112D01*
X54063959Y-62594388D01*
X53905050Y-62395123D01*
X53718217Y-62221768D01*
X53507634Y-62078195D01*
X53507630Y-62078193D01*
X53507627Y-62078191D01*
X53507626Y-62078190D01*
X53278006Y-61967612D01*
X53278008Y-61967612D01*
X53034466Y-61892489D01*
X53034462Y-61892488D01*
X53034458Y-61892487D01*
X52913231Y-61874214D01*
X52782440Y-61854500D01*
X52782435Y-61854500D01*
X52527565Y-61854500D01*
X52527559Y-61854500D01*
X52370609Y-61878157D01*
X52275542Y-61892487D01*
X52275539Y-61892488D01*
X52275533Y-61892489D01*
X52031992Y-61967612D01*
X51802373Y-62078190D01*
X51802372Y-62078191D01*
X51591782Y-62221768D01*
X51404952Y-62395121D01*
X51404950Y-62395123D01*
X51246041Y-62594388D01*
X51118608Y-62815109D01*
X51070428Y-62937869D01*
X51027612Y-62993082D01*
X50961742Y-63016383D01*
X50893731Y-63000372D01*
X50845173Y-62950134D01*
X50839572Y-62937869D01*
X50809361Y-62860894D01*
X50791393Y-62815112D01*
X50663959Y-62594388D01*
X50505050Y-62395123D01*
X50318217Y-62221768D01*
X50107634Y-62078195D01*
X50107630Y-62078193D01*
X50107627Y-62078191D01*
X50107626Y-62078190D01*
X49878006Y-61967612D01*
X49878008Y-61967612D01*
X49634466Y-61892489D01*
X49634462Y-61892488D01*
X49634458Y-61892487D01*
X49513231Y-61874214D01*
X49382440Y-61854500D01*
X49382435Y-61854500D01*
X49127565Y-61854500D01*
X49127559Y-61854500D01*
X48970609Y-61878157D01*
X48875542Y-61892487D01*
X48875539Y-61892488D01*
X48875533Y-61892489D01*
X48631992Y-61967612D01*
X48402373Y-62078190D01*
X48402372Y-62078191D01*
X48191782Y-62221768D01*
X48004952Y-62395121D01*
X48004950Y-62395123D01*
X47846041Y-62594388D01*
X47718608Y-62815109D01*
X47625492Y-63052362D01*
X47625490Y-63052369D01*
X47568777Y-63300845D01*
X47549732Y-63554995D01*
X41303617Y-63554995D01*
X41277952Y-63516584D01*
X38281716Y-60520348D01*
X38248231Y-60459025D01*
X38245869Y-60421863D01*
X38260468Y-60255000D01*
X38240635Y-60028308D01*
X38181739Y-59808504D01*
X38085568Y-59602266D01*
X37955047Y-59415861D01*
X37955045Y-59415858D01*
X37794141Y-59254954D01*
X37607734Y-59124432D01*
X37607732Y-59124431D01*
X37401497Y-59028261D01*
X37401488Y-59028258D01*
X37181697Y-58969366D01*
X37181693Y-58969365D01*
X37181692Y-58969365D01*
X37181691Y-58969364D01*
X37181686Y-58969364D01*
X36955002Y-58949532D01*
X36954998Y-58949532D01*
X36728313Y-58969364D01*
X36728302Y-58969366D01*
X36508511Y-59028258D01*
X36508502Y-59028261D01*
X36302267Y-59124431D01*
X36302265Y-59124432D01*
X36115858Y-59254954D01*
X35954954Y-59415858D01*
X35824432Y-59602265D01*
X35824431Y-59602267D01*
X35728261Y-59808502D01*
X35728258Y-59808511D01*
X35669366Y-60028302D01*
X35669364Y-60028313D01*
X35649532Y-60254998D01*
X34260468Y-60254998D01*
X34240635Y-60028308D01*
X34181739Y-59808504D01*
X34085568Y-59602266D01*
X33955047Y-59415861D01*
X33955045Y-59415858D01*
X33794141Y-59254954D01*
X33607734Y-59124432D01*
X33607732Y-59124431D01*
X33401497Y-59028261D01*
X33401488Y-59028258D01*
X33181697Y-58969366D01*
X33181693Y-58969365D01*
X33181692Y-58969365D01*
X33181691Y-58969364D01*
X33181686Y-58969364D01*
X32955002Y-58949532D01*
X32954998Y-58949532D01*
X32728313Y-58969364D01*
X32728302Y-58969366D01*
X32508511Y-59028258D01*
X32508502Y-59028261D01*
X32302267Y-59124431D01*
X32302265Y-59124432D01*
X32115858Y-59254954D01*
X31954954Y-59415858D01*
X31824432Y-59602265D01*
X31824431Y-59602267D01*
X31728261Y-59808502D01*
X31728258Y-59808511D01*
X31669366Y-60028302D01*
X31669364Y-60028313D01*
X31649532Y-60254998D01*
X30253469Y-60254998D01*
X30260468Y-60175000D01*
X30240635Y-59948308D01*
X30181739Y-59728504D01*
X30085568Y-59522266D01*
X29955047Y-59335861D01*
X29955045Y-59335858D01*
X29794141Y-59174954D01*
X29607734Y-59044432D01*
X29607732Y-59044431D01*
X29401497Y-58948261D01*
X29401488Y-58948258D01*
X29181697Y-58889366D01*
X29181693Y-58889365D01*
X29181692Y-58889365D01*
X29181691Y-58889364D01*
X29181686Y-58889364D01*
X28955002Y-58869532D01*
X28954998Y-58869532D01*
X28728313Y-58889364D01*
X28728302Y-58889366D01*
X28508511Y-58948258D01*
X28508502Y-58948261D01*
X28302267Y-59044431D01*
X28302265Y-59044432D01*
X28115858Y-59174954D01*
X27954954Y-59335858D01*
X27824432Y-59522265D01*
X27824431Y-59522267D01*
X27728261Y-59728502D01*
X27728258Y-59728511D01*
X27669366Y-59948302D01*
X27669364Y-59948313D01*
X27649532Y-60174998D01*
X26253469Y-60174998D01*
X26260468Y-60095000D01*
X26240635Y-59868308D01*
X26181739Y-59648504D01*
X26085568Y-59442266D01*
X25955047Y-59255861D01*
X25955045Y-59255858D01*
X25794141Y-59094954D01*
X25607734Y-58964432D01*
X25607732Y-58964431D01*
X25401497Y-58868261D01*
X25401488Y-58868258D01*
X25181697Y-58809366D01*
X25181693Y-58809365D01*
X25181692Y-58809365D01*
X25181691Y-58809364D01*
X25181686Y-58809364D01*
X24955002Y-58789532D01*
X24954998Y-58789532D01*
X24728313Y-58809364D01*
X24728296Y-58809367D01*
X24691091Y-58819336D01*
X24621242Y-58817672D01*
X24563380Y-58778509D01*
X24535877Y-58714280D01*
X24535000Y-58699561D01*
X24535000Y-55594998D01*
X42149532Y-55594998D01*
X42149532Y-55595001D01*
X42169364Y-55821686D01*
X42169366Y-55821697D01*
X42228258Y-56041488D01*
X42228261Y-56041497D01*
X42324431Y-56247732D01*
X42324432Y-56247734D01*
X42454954Y-56434141D01*
X42615858Y-56595045D01*
X42615861Y-56595047D01*
X42802266Y-56725568D01*
X43008504Y-56821739D01*
X43228308Y-56880635D01*
X43390230Y-56894801D01*
X43454998Y-56900468D01*
X43455000Y-56900468D01*
X43455002Y-56900468D01*
X43511673Y-56895509D01*
X43681692Y-56880635D01*
X43901496Y-56821739D01*
X44107734Y-56725568D01*
X44294139Y-56595047D01*
X44455047Y-56434139D01*
X44585568Y-56247734D01*
X44681739Y-56041496D01*
X44740635Y-55821692D01*
X44760468Y-55595000D01*
X44740635Y-55368308D01*
X44681739Y-55148504D01*
X44585568Y-54942266D01*
X44455047Y-54755861D01*
X44455045Y-54755858D01*
X44294141Y-54594954D01*
X44107734Y-54464432D01*
X44107732Y-54464431D01*
X43901497Y-54368261D01*
X43901488Y-54368258D01*
X43681697Y-54309366D01*
X43681693Y-54309365D01*
X43681692Y-54309365D01*
X43681691Y-54309364D01*
X43681686Y-54309364D01*
X43455002Y-54289532D01*
X43454998Y-54289532D01*
X43228313Y-54309364D01*
X43228302Y-54309366D01*
X43008511Y-54368258D01*
X43008502Y-54368261D01*
X42802267Y-54464431D01*
X42802265Y-54464432D01*
X42615858Y-54594954D01*
X42454954Y-54755858D01*
X42324432Y-54942265D01*
X42324431Y-54942267D01*
X42228261Y-55148502D01*
X42228258Y-55148511D01*
X42169366Y-55368302D01*
X42169364Y-55368313D01*
X42149532Y-55594998D01*
X24535000Y-55594998D01*
X24535000Y-51859993D01*
X42049700Y-51859993D01*
X42049700Y-51860006D01*
X42068864Y-52091297D01*
X42068866Y-52091308D01*
X42125842Y-52316300D01*
X42219075Y-52528848D01*
X42346016Y-52723147D01*
X42346019Y-52723151D01*
X42346021Y-52723153D01*
X42503216Y-52893913D01*
X42503219Y-52893915D01*
X42503222Y-52893918D01*
X42686365Y-53036464D01*
X42686371Y-53036468D01*
X42686374Y-53036470D01*
X42890497Y-53146936D01*
X43004487Y-53186068D01*
X43110015Y-53222297D01*
X43110017Y-53222297D01*
X43110019Y-53222298D01*
X43338951Y-53260500D01*
X43338952Y-53260500D01*
X43571048Y-53260500D01*
X43571049Y-53260500D01*
X43799981Y-53222298D01*
X44019503Y-53146936D01*
X44223626Y-53036470D01*
X44406784Y-52893913D01*
X44563979Y-52723153D01*
X44690924Y-52528849D01*
X44784157Y-52316300D01*
X44841134Y-52091305D01*
X44841718Y-52084262D01*
X44860300Y-51860006D01*
X44860300Y-51859993D01*
X44841135Y-51628702D01*
X44841133Y-51628691D01*
X44784157Y-51403699D01*
X44690924Y-51191151D01*
X44563983Y-50996852D01*
X44563980Y-50996849D01*
X44563979Y-50996847D01*
X44469195Y-50893884D01*
X44438275Y-50831232D01*
X44446135Y-50761806D01*
X44490283Y-50707651D01*
X44517095Y-50693722D01*
X44597326Y-50663798D01*
X44597326Y-50663797D01*
X44597331Y-50663796D01*
X44712546Y-50577546D01*
X44798796Y-50462331D01*
X44849091Y-50327483D01*
X44855500Y-50267873D01*
X44855499Y-48372128D01*
X44849091Y-48312517D01*
X44798796Y-48177669D01*
X44798795Y-48177668D01*
X44798793Y-48177664D01*
X44712547Y-48062455D01*
X44712544Y-48062452D01*
X44597335Y-47976206D01*
X44597328Y-47976202D01*
X44462482Y-47925908D01*
X44462483Y-47925908D01*
X44402883Y-47919501D01*
X44402881Y-47919500D01*
X44402873Y-47919500D01*
X44402864Y-47919500D01*
X42507129Y-47919500D01*
X42507123Y-47919501D01*
X42447516Y-47925908D01*
X42312671Y-47976202D01*
X42312664Y-47976206D01*
X42197455Y-48062452D01*
X42197452Y-48062455D01*
X42111206Y-48177664D01*
X42111202Y-48177671D01*
X42060908Y-48312517D01*
X42054501Y-48372116D01*
X42054501Y-48372123D01*
X42054500Y-48372135D01*
X42054500Y-50267870D01*
X42054501Y-50267876D01*
X42060908Y-50327483D01*
X42111202Y-50462328D01*
X42111206Y-50462335D01*
X42197452Y-50577544D01*
X42197455Y-50577547D01*
X42312664Y-50663793D01*
X42312673Y-50663798D01*
X42392904Y-50693722D01*
X42448838Y-50735593D01*
X42473256Y-50801057D01*
X42458405Y-50869330D01*
X42440802Y-50893886D01*
X42346019Y-50996849D01*
X42219075Y-51191151D01*
X42125842Y-51403699D01*
X42068866Y-51628691D01*
X42068864Y-51628702D01*
X42049700Y-51859993D01*
X24535000Y-51859993D01*
X24535000Y-51330438D01*
X24554685Y-51263399D01*
X24607489Y-51217644D01*
X24676647Y-51207700D01*
X24691084Y-51210661D01*
X24728308Y-51220635D01*
X24890230Y-51234801D01*
X24954998Y-51240468D01*
X24955000Y-51240468D01*
X24955002Y-51240468D01*
X25011673Y-51235509D01*
X25181692Y-51220635D01*
X25401496Y-51161739D01*
X25607734Y-51065568D01*
X25794139Y-50935047D01*
X25955047Y-50774139D01*
X26085568Y-50587734D01*
X26181739Y-50381496D01*
X26240635Y-50161692D01*
X26260468Y-49935000D01*
X26245869Y-49768137D01*
X26259635Y-49699639D01*
X26281713Y-49669653D01*
X27117951Y-48833416D01*
X27200084Y-48710495D01*
X27256658Y-48573913D01*
X27257325Y-48570559D01*
X27285500Y-48428918D01*
X27285500Y-44919499D01*
X27305185Y-44852460D01*
X27357989Y-44806705D01*
X27409500Y-44795499D01*
X27762871Y-44795499D01*
X27762872Y-44795499D01*
X27822483Y-44789091D01*
X27957331Y-44738796D01*
X28072546Y-44652546D01*
X28158796Y-44537331D01*
X28209091Y-44402483D01*
X28213140Y-44364815D01*
X28239876Y-44300268D01*
X28297268Y-44260419D01*
X28367093Y-44257924D01*
X28427183Y-44293576D01*
X28436747Y-44305187D01*
X28463417Y-44341894D01*
X28463417Y-44341895D01*
X28608104Y-44486582D01*
X28773650Y-44606859D01*
X28955968Y-44699754D01*
X29150578Y-44762988D01*
X29205000Y-44771607D01*
X29205000Y-43410686D01*
X29209394Y-43415080D01*
X29300606Y-43467741D01*
X29402339Y-43495000D01*
X29507661Y-43495000D01*
X29609394Y-43467741D01*
X29700606Y-43415080D01*
X29705000Y-43410686D01*
X29705000Y-44771607D01*
X29741032Y-44802382D01*
X29779225Y-44860889D01*
X29784500Y-44896672D01*
X29784500Y-48072769D01*
X29764815Y-48139808D01*
X29748181Y-48160450D01*
X29220348Y-48688282D01*
X29159025Y-48721767D01*
X29121861Y-48724129D01*
X28955003Y-48709532D01*
X28954998Y-48709532D01*
X28728313Y-48729364D01*
X28728302Y-48729366D01*
X28508511Y-48788258D01*
X28508502Y-48788261D01*
X28302267Y-48884431D01*
X28302265Y-48884432D01*
X28115858Y-49014954D01*
X27954954Y-49175858D01*
X27824432Y-49362265D01*
X27824431Y-49362267D01*
X27728261Y-49568502D01*
X27728258Y-49568511D01*
X27669366Y-49788302D01*
X27669364Y-49788313D01*
X27649532Y-50014998D01*
X27649532Y-50015001D01*
X27669364Y-50241686D01*
X27669366Y-50241697D01*
X27728258Y-50461488D01*
X27728261Y-50461497D01*
X27824431Y-50667732D01*
X27824432Y-50667734D01*
X27954954Y-50854141D01*
X28115858Y-51015045D01*
X28115861Y-51015047D01*
X28302266Y-51145568D01*
X28508504Y-51241739D01*
X28728308Y-51300635D01*
X28890230Y-51314801D01*
X28954998Y-51320468D01*
X28955000Y-51320468D01*
X28955002Y-51320468D01*
X29011673Y-51315509D01*
X29181692Y-51300635D01*
X29401496Y-51241739D01*
X29607734Y-51145568D01*
X29794139Y-51015047D01*
X29955047Y-50854139D01*
X30085568Y-50667734D01*
X30181739Y-50461496D01*
X30240635Y-50241692D01*
X30260468Y-50015000D01*
X30245869Y-49848137D01*
X30259635Y-49779639D01*
X30281713Y-49749653D01*
X31117951Y-48913416D01*
X31200084Y-48790495D01*
X31256658Y-48653913D01*
X31257563Y-48649365D01*
X31285500Y-48508918D01*
X31285500Y-44917229D01*
X31305185Y-44850190D01*
X31321815Y-44829552D01*
X31408362Y-44743004D01*
X31469685Y-44709520D01*
X31534359Y-44712754D01*
X31614506Y-44738796D01*
X31690465Y-44763477D01*
X31767764Y-44775720D01*
X31892648Y-44795500D01*
X31892649Y-44795500D01*
X32097351Y-44795500D01*
X32097352Y-44795500D01*
X32299534Y-44763477D01*
X32494219Y-44700220D01*
X32676610Y-44607287D01*
X32796619Y-44520096D01*
X32842213Y-44486971D01*
X32842215Y-44486968D01*
X32842219Y-44486966D01*
X32986966Y-44342219D01*
X32986968Y-44342215D01*
X32986971Y-44342213D01*
X33107284Y-44176614D01*
X33107286Y-44176611D01*
X33107287Y-44176610D01*
X33154795Y-44083369D01*
X33202770Y-44032574D01*
X33270591Y-44015779D01*
X33336725Y-44038316D01*
X33375765Y-44083370D01*
X33423140Y-44176349D01*
X33543417Y-44341894D01*
X33543417Y-44341895D01*
X33688104Y-44486582D01*
X33853650Y-44606859D01*
X34035968Y-44699754D01*
X34230578Y-44762988D01*
X34285000Y-44771607D01*
X34285000Y-43410686D01*
X34289394Y-43415080D01*
X34380606Y-43467741D01*
X34482339Y-43495000D01*
X34587661Y-43495000D01*
X34689394Y-43467741D01*
X34780606Y-43415080D01*
X34785000Y-43410686D01*
X34785000Y-44771606D01*
X34839421Y-44762988D01*
X35034033Y-44699754D01*
X35104204Y-44664000D01*
X35172873Y-44651103D01*
X35237614Y-44677379D01*
X35277872Y-44734485D01*
X35284500Y-44774484D01*
X35284500Y-45942770D01*
X35264815Y-46009809D01*
X35248181Y-46030451D01*
X32372047Y-48906584D01*
X32372043Y-48906589D01*
X32366752Y-48914509D01*
X32316058Y-48958000D01*
X32302264Y-48964432D01*
X32115858Y-49094954D01*
X31954954Y-49255858D01*
X31824432Y-49442265D01*
X31824431Y-49442267D01*
X31728261Y-49648502D01*
X31728258Y-49648511D01*
X31669366Y-49868302D01*
X31669364Y-49868313D01*
X31649532Y-50094998D01*
X31649532Y-50095001D01*
X31669364Y-50321686D01*
X31669366Y-50321697D01*
X31728258Y-50541488D01*
X31728261Y-50541497D01*
X31824431Y-50747732D01*
X31824432Y-50747734D01*
X31954954Y-50934141D01*
X32115858Y-51095045D01*
X32115861Y-51095047D01*
X32302266Y-51225568D01*
X32508504Y-51321739D01*
X32728308Y-51380635D01*
X32890230Y-51394801D01*
X32954998Y-51400468D01*
X32955000Y-51400468D01*
X32955002Y-51400468D01*
X33011673Y-51395509D01*
X33181692Y-51380635D01*
X33401496Y-51321739D01*
X33607734Y-51225568D01*
X33794139Y-51095047D01*
X33955047Y-50934139D01*
X34085568Y-50747734D01*
X34181739Y-50541496D01*
X34240635Y-50321692D01*
X34260468Y-50095000D01*
X34240635Y-49868308D01*
X34181739Y-49648504D01*
X34093576Y-49459439D01*
X34083280Y-49437359D01*
X34084934Y-49436587D01*
X34070380Y-49376582D01*
X34093235Y-49310557D01*
X34106552Y-49294814D01*
X36617952Y-46783416D01*
X36656984Y-46725000D01*
X36673484Y-46700306D01*
X36673486Y-46700301D01*
X36673492Y-46700293D01*
X36700084Y-46660495D01*
X36756658Y-46523913D01*
X36785500Y-46378918D01*
X36785500Y-44911043D01*
X36805185Y-44844004D01*
X36857989Y-44798249D01*
X36927147Y-44788305D01*
X36928803Y-44788555D01*
X36972648Y-44795500D01*
X36972650Y-44795500D01*
X37177351Y-44795500D01*
X37177352Y-44795500D01*
X37379534Y-44763477D01*
X37574219Y-44700220D01*
X37756610Y-44607287D01*
X37876619Y-44520096D01*
X37922213Y-44486971D01*
X37922215Y-44486968D01*
X37922219Y-44486966D01*
X38066966Y-44342219D01*
X38066968Y-44342215D01*
X38066971Y-44342213D01*
X38187284Y-44176614D01*
X38187286Y-44176611D01*
X38187287Y-44176610D01*
X38234795Y-44083369D01*
X38282770Y-44032574D01*
X38350591Y-44015779D01*
X38416725Y-44038316D01*
X38455765Y-44083370D01*
X38503140Y-44176349D01*
X38623417Y-44341894D01*
X38623417Y-44341895D01*
X38768104Y-44486582D01*
X38933650Y-44606859D01*
X39115968Y-44699754D01*
X39310578Y-44762988D01*
X39365000Y-44771607D01*
X39365000Y-43410686D01*
X39369394Y-43415080D01*
X39460606Y-43467741D01*
X39562339Y-43495000D01*
X39667661Y-43495000D01*
X39769394Y-43467741D01*
X39860606Y-43415080D01*
X39865000Y-43410686D01*
X39865000Y-44771606D01*
X39919421Y-44762988D01*
X40114031Y-44699754D01*
X40296349Y-44606859D01*
X40461894Y-44486582D01*
X40461895Y-44486582D01*
X40606582Y-44341895D01*
X40606582Y-44341894D01*
X40726861Y-44176347D01*
X40774234Y-44083371D01*
X40822208Y-44032575D01*
X40890028Y-44015779D01*
X40956164Y-44038316D01*
X40995203Y-44083369D01*
X41042713Y-44176611D01*
X41163028Y-44342213D01*
X41163034Y-44342219D01*
X41307781Y-44486966D01*
X41353384Y-44520098D01*
X41396050Y-44575425D01*
X41404500Y-44620416D01*
X41404500Y-45322769D01*
X41384815Y-45389808D01*
X41368181Y-45410450D01*
X37802742Y-48975888D01*
X37741419Y-49009373D01*
X37671727Y-49004389D01*
X37643941Y-48989784D01*
X37607734Y-48964432D01*
X37544517Y-48934953D01*
X37401497Y-48868261D01*
X37401488Y-48868258D01*
X37181697Y-48809366D01*
X37181693Y-48809365D01*
X37181692Y-48809365D01*
X37181691Y-48809364D01*
X37181686Y-48809364D01*
X36955002Y-48789532D01*
X36954998Y-48789532D01*
X36728313Y-48809364D01*
X36728302Y-48809366D01*
X36508511Y-48868258D01*
X36508502Y-48868261D01*
X36302267Y-48964431D01*
X36302265Y-48964432D01*
X36115858Y-49094954D01*
X35954954Y-49255858D01*
X35824432Y-49442265D01*
X35824431Y-49442267D01*
X35728261Y-49648502D01*
X35728258Y-49648511D01*
X35669366Y-49868302D01*
X35669364Y-49868313D01*
X35649532Y-50094998D01*
X35649532Y-50095001D01*
X35669364Y-50321686D01*
X35669366Y-50321697D01*
X35728258Y-50541488D01*
X35728261Y-50541497D01*
X35824431Y-50747732D01*
X35824432Y-50747734D01*
X35954954Y-50934141D01*
X36115858Y-51095045D01*
X36115861Y-51095047D01*
X36302266Y-51225568D01*
X36508504Y-51321739D01*
X36728308Y-51380635D01*
X36890230Y-51394801D01*
X36954998Y-51400468D01*
X36955000Y-51400468D01*
X36955002Y-51400468D01*
X37011673Y-51395509D01*
X37181692Y-51380635D01*
X37401496Y-51321739D01*
X37607734Y-51225568D01*
X37794139Y-51095047D01*
X37955047Y-50934139D01*
X38046558Y-50803444D01*
X38095689Y-50764015D01*
X38095123Y-50762955D01*
X38100491Y-50760085D01*
X38100495Y-50760084D01*
X38159738Y-50720499D01*
X38223416Y-50677952D01*
X42737952Y-46163416D01*
X42789620Y-46086087D01*
X42820084Y-46040495D01*
X42876658Y-45903913D01*
X42905500Y-45758918D01*
X42905500Y-44620416D01*
X42925185Y-44553377D01*
X42956613Y-44520099D01*
X43002219Y-44486966D01*
X43146966Y-44342219D01*
X43146968Y-44342215D01*
X43146971Y-44342213D01*
X43267284Y-44176614D01*
X43267286Y-44176611D01*
X43267287Y-44176610D01*
X43314795Y-44083369D01*
X43362770Y-44032574D01*
X43430591Y-44015779D01*
X43496725Y-44038316D01*
X43535765Y-44083370D01*
X43583140Y-44176349D01*
X43703417Y-44341894D01*
X43703417Y-44341895D01*
X43848104Y-44486582D01*
X44013650Y-44606859D01*
X44195968Y-44699754D01*
X44390578Y-44762988D01*
X44445000Y-44771607D01*
X44445000Y-43410686D01*
X44449394Y-43415080D01*
X44540606Y-43467741D01*
X44642339Y-43495000D01*
X44747661Y-43495000D01*
X44849394Y-43467741D01*
X44940606Y-43415080D01*
X44945000Y-43410686D01*
X44945000Y-44771606D01*
X44999421Y-44762988D01*
X45194031Y-44699754D01*
X45376349Y-44606859D01*
X45541894Y-44486582D01*
X45541895Y-44486582D01*
X45686582Y-44341895D01*
X45686582Y-44341894D01*
X45806859Y-44176349D01*
X45899755Y-43994031D01*
X45962990Y-43799417D01*
X45995000Y-43597317D01*
X45995000Y-43345000D01*
X45010686Y-43345000D01*
X45015080Y-43340606D01*
X45067741Y-43249394D01*
X45095000Y-43147661D01*
X45095000Y-43042339D01*
X45067741Y-42940606D01*
X45015080Y-42849394D01*
X45010686Y-42845000D01*
X45995000Y-42845000D01*
X45995000Y-42592682D01*
X45962990Y-42390582D01*
X45899755Y-42195968D01*
X45806859Y-42013650D01*
X45686582Y-41848105D01*
X45686582Y-41848104D01*
X45541895Y-41703417D01*
X45376349Y-41583140D01*
X45194029Y-41490244D01*
X44999413Y-41427009D01*
X44945000Y-41418390D01*
X44945000Y-42779314D01*
X44940606Y-42774920D01*
X44849394Y-42722259D01*
X44747661Y-42695000D01*
X44642339Y-42695000D01*
X44540606Y-42722259D01*
X44449394Y-42774920D01*
X44445000Y-42779314D01*
X44445000Y-41418390D01*
X44390586Y-41427009D01*
X44195970Y-41490244D01*
X44013650Y-41583140D01*
X43848105Y-41703417D01*
X43848104Y-41703417D01*
X43703417Y-41848104D01*
X43703417Y-41848105D01*
X43583140Y-42013650D01*
X43535765Y-42106629D01*
X43487790Y-42157425D01*
X43419969Y-42174220D01*
X43353834Y-42151682D01*
X43314795Y-42106629D01*
X43303990Y-42085424D01*
X43267287Y-42013390D01*
X43259556Y-42002749D01*
X43146971Y-41847786D01*
X43002213Y-41703028D01*
X42836613Y-41582715D01*
X42836612Y-41582714D01*
X42836610Y-41582713D01*
X42769995Y-41548771D01*
X42654223Y-41489781D01*
X42459534Y-41426522D01*
X42284995Y-41398878D01*
X42257352Y-41394500D01*
X42052648Y-41394500D01*
X42028329Y-41398351D01*
X41850465Y-41426522D01*
X41655776Y-41489781D01*
X41473386Y-41582715D01*
X41307786Y-41703028D01*
X41163028Y-41847786D01*
X41042713Y-42013388D01*
X40995203Y-42106630D01*
X40947228Y-42157426D01*
X40879407Y-42174220D01*
X40813272Y-42151682D01*
X40774234Y-42106628D01*
X40726861Y-42013652D01*
X40606582Y-41848105D01*
X40606582Y-41848104D01*
X40461895Y-41703417D01*
X40296349Y-41583140D01*
X40114029Y-41490244D01*
X39919413Y-41427009D01*
X39865000Y-41418390D01*
X39865000Y-42779314D01*
X39860606Y-42774920D01*
X39769394Y-42722259D01*
X39667661Y-42695000D01*
X39562339Y-42695000D01*
X39460606Y-42722259D01*
X39369394Y-42774920D01*
X39365000Y-42779314D01*
X39365000Y-41418390D01*
X39310586Y-41427009D01*
X39115970Y-41490244D01*
X38933650Y-41583140D01*
X38768105Y-41703417D01*
X38768104Y-41703417D01*
X38623417Y-41848104D01*
X38623417Y-41848105D01*
X38503140Y-42013650D01*
X38455765Y-42106629D01*
X38407790Y-42157425D01*
X38339969Y-42174220D01*
X38273834Y-42151682D01*
X38234795Y-42106629D01*
X38223990Y-42085424D01*
X38187287Y-42013390D01*
X38179556Y-42002749D01*
X38066971Y-41847786D01*
X37922213Y-41703028D01*
X37756613Y-41582715D01*
X37756612Y-41582714D01*
X37756610Y-41582713D01*
X37689995Y-41548771D01*
X37574223Y-41489781D01*
X37379534Y-41426522D01*
X37204995Y-41398878D01*
X37177352Y-41394500D01*
X36972648Y-41394500D01*
X36948329Y-41398351D01*
X36770465Y-41426522D01*
X36575776Y-41489781D01*
X36393386Y-41582715D01*
X36227786Y-41703028D01*
X36083028Y-41847786D01*
X35962713Y-42013388D01*
X35915203Y-42106630D01*
X35867228Y-42157426D01*
X35799407Y-42174220D01*
X35733272Y-42151682D01*
X35694234Y-42106628D01*
X35646861Y-42013652D01*
X35526582Y-41848105D01*
X35526582Y-41848104D01*
X35381895Y-41703417D01*
X35216349Y-41583140D01*
X35034029Y-41490244D01*
X34839413Y-41427009D01*
X34785000Y-41418390D01*
X34785000Y-42779314D01*
X34780606Y-42774920D01*
X34689394Y-42722259D01*
X34587661Y-42695000D01*
X34482339Y-42695000D01*
X34380606Y-42722259D01*
X34289394Y-42774920D01*
X34285000Y-42779314D01*
X34285000Y-41418390D01*
X34230586Y-41427009D01*
X34035970Y-41490244D01*
X33853650Y-41583140D01*
X33688105Y-41703417D01*
X33688104Y-41703417D01*
X33543417Y-41848104D01*
X33543417Y-41848105D01*
X33423140Y-42013650D01*
X33375765Y-42106629D01*
X33327790Y-42157425D01*
X33259969Y-42174220D01*
X33193834Y-42151682D01*
X33154795Y-42106629D01*
X33143990Y-42085424D01*
X33107287Y-42013390D01*
X33099556Y-42002749D01*
X32986971Y-41847786D01*
X32842213Y-41703028D01*
X32676613Y-41582715D01*
X32676612Y-41582714D01*
X32676610Y-41582713D01*
X32609995Y-41548771D01*
X32494223Y-41489781D01*
X32299534Y-41426522D01*
X32124995Y-41398878D01*
X32097352Y-41394500D01*
X31892648Y-41394500D01*
X31868329Y-41398351D01*
X31690465Y-41426522D01*
X31495776Y-41489781D01*
X31313386Y-41582715D01*
X31147786Y-41703028D01*
X31003028Y-41847786D01*
X30882713Y-42013388D01*
X30835203Y-42106630D01*
X30787228Y-42157426D01*
X30719407Y-42174220D01*
X30653272Y-42151682D01*
X30614234Y-42106628D01*
X30566861Y-42013652D01*
X30446582Y-41848105D01*
X30446582Y-41848104D01*
X30301895Y-41703417D01*
X30136349Y-41583140D01*
X29954029Y-41490244D01*
X29759413Y-41427009D01*
X29705000Y-41418390D01*
X29705000Y-42779314D01*
X29700606Y-42774920D01*
X29609394Y-42722259D01*
X29507661Y-42695000D01*
X29402339Y-42695000D01*
X29300606Y-42722259D01*
X29209394Y-42774920D01*
X29205000Y-42779314D01*
X29205000Y-41418390D01*
X29150586Y-41427009D01*
X28955970Y-41490244D01*
X28773650Y-41583140D01*
X28608105Y-41703417D01*
X28608104Y-41703417D01*
X28463414Y-41848107D01*
X28436746Y-41884813D01*
X28381415Y-41927478D01*
X28311802Y-41933456D01*
X28250007Y-41900849D01*
X28215651Y-41840010D01*
X28213139Y-41825177D01*
X28210916Y-41804500D01*
X28209091Y-41787517D01*
X28158796Y-41652669D01*
X28158795Y-41652668D01*
X28158793Y-41652664D01*
X28072547Y-41537455D01*
X28072544Y-41537452D01*
X27957335Y-41451206D01*
X27957328Y-41451202D01*
X27822482Y-41400908D01*
X27822483Y-41400908D01*
X27762883Y-41394501D01*
X27762881Y-41394500D01*
X27762873Y-41394500D01*
X27762864Y-41394500D01*
X26067129Y-41394500D01*
X26067123Y-41394501D01*
X26007516Y-41400908D01*
X25872671Y-41451202D01*
X25872664Y-41451206D01*
X25757455Y-41537452D01*
X25757452Y-41537455D01*
X25671206Y-41652664D01*
X25671202Y-41652671D01*
X25620908Y-41787517D01*
X25614501Y-41847116D01*
X25614500Y-41847135D01*
X25614500Y-44342870D01*
X25614501Y-44342876D01*
X25620908Y-44402483D01*
X25671202Y-44537328D01*
X25671206Y-44537335D01*
X25759766Y-44655635D01*
X25784184Y-44721099D01*
X25784500Y-44729946D01*
X25784500Y-47992769D01*
X25764815Y-48059808D01*
X25748181Y-48080450D01*
X25220348Y-48608282D01*
X25159025Y-48641767D01*
X25121861Y-48644129D01*
X24955003Y-48629532D01*
X24954998Y-48629532D01*
X24728313Y-48649364D01*
X24728296Y-48649367D01*
X24691091Y-48659336D01*
X24621242Y-48657672D01*
X24563380Y-48618509D01*
X24535877Y-48554280D01*
X24535000Y-48539561D01*
X24535000Y-34972648D01*
X25614500Y-34972648D01*
X25614500Y-35977351D01*
X25646522Y-36179534D01*
X25709781Y-36374223D01*
X25755205Y-36463371D01*
X25802659Y-36556505D01*
X25802715Y-36556613D01*
X25923028Y-36722213D01*
X26067786Y-36866971D01*
X26222749Y-36979556D01*
X26233390Y-36987287D01*
X26349607Y-37046503D01*
X26415776Y-37080218D01*
X26415778Y-37080218D01*
X26415781Y-37080220D01*
X26520137Y-37114127D01*
X26610465Y-37143477D01*
X26711557Y-37159488D01*
X26812648Y-37175500D01*
X26812649Y-37175500D01*
X27017351Y-37175500D01*
X27017352Y-37175500D01*
X27219534Y-37143477D01*
X27414219Y-37080220D01*
X27596610Y-36987287D01*
X27704146Y-36909158D01*
X27762213Y-36866971D01*
X27762215Y-36866968D01*
X27762219Y-36866966D01*
X27906966Y-36722219D01*
X27906968Y-36722215D01*
X27906971Y-36722213D01*
X28027284Y-36556614D01*
X28027286Y-36556611D01*
X28027287Y-36556610D01*
X28074795Y-36463369D01*
X28122770Y-36412574D01*
X28190591Y-36395779D01*
X28256725Y-36418316D01*
X28295765Y-36463370D01*
X28343140Y-36556349D01*
X28463417Y-36721894D01*
X28463417Y-36721895D01*
X28608104Y-36866582D01*
X28773650Y-36986859D01*
X28955968Y-37079754D01*
X29150578Y-37142988D01*
X29205000Y-37151607D01*
X29205000Y-35790686D01*
X29209394Y-35795080D01*
X29300606Y-35847741D01*
X29402339Y-35875000D01*
X29507661Y-35875000D01*
X29609394Y-35847741D01*
X29700606Y-35795080D01*
X29705000Y-35790686D01*
X29705000Y-37151606D01*
X29759421Y-37142988D01*
X29954031Y-37079754D01*
X30136349Y-36986859D01*
X30301894Y-36866582D01*
X30301895Y-36866582D01*
X30446582Y-36721895D01*
X30446582Y-36721894D01*
X30566861Y-36556347D01*
X30614234Y-36463371D01*
X30662208Y-36412575D01*
X30730028Y-36395779D01*
X30796164Y-36418316D01*
X30835203Y-36463369D01*
X30882713Y-36556611D01*
X31003028Y-36722213D01*
X31147786Y-36866971D01*
X31302749Y-36979556D01*
X31313390Y-36987287D01*
X31429607Y-37046503D01*
X31495776Y-37080218D01*
X31495778Y-37080218D01*
X31495781Y-37080220D01*
X31600137Y-37114127D01*
X31690465Y-37143477D01*
X31791557Y-37159488D01*
X31892648Y-37175500D01*
X31892649Y-37175500D01*
X32097351Y-37175500D01*
X32097352Y-37175500D01*
X32299534Y-37143477D01*
X32494219Y-37080220D01*
X32676610Y-36987287D01*
X32784146Y-36909158D01*
X32842213Y-36866971D01*
X32842215Y-36866968D01*
X32842219Y-36866966D01*
X32986966Y-36722219D01*
X32986968Y-36722215D01*
X32986971Y-36722213D01*
X33107284Y-36556614D01*
X33107286Y-36556611D01*
X33107287Y-36556610D01*
X33154795Y-36463369D01*
X33202770Y-36412574D01*
X33270591Y-36395779D01*
X33336725Y-36418316D01*
X33375765Y-36463370D01*
X33423140Y-36556349D01*
X33543417Y-36721894D01*
X33543417Y-36721895D01*
X33688104Y-36866582D01*
X33853650Y-36986859D01*
X34035968Y-37079754D01*
X34230578Y-37142988D01*
X34285000Y-37151607D01*
X34285000Y-35790686D01*
X34289394Y-35795080D01*
X34380606Y-35847741D01*
X34482339Y-35875000D01*
X34587661Y-35875000D01*
X34689394Y-35847741D01*
X34780606Y-35795080D01*
X34785000Y-35790686D01*
X34785000Y-37151606D01*
X34839421Y-37142988D01*
X35034031Y-37079754D01*
X35216349Y-36986859D01*
X35381894Y-36866582D01*
X35381895Y-36866582D01*
X35526582Y-36721895D01*
X35526582Y-36721894D01*
X35646861Y-36556347D01*
X35694234Y-36463371D01*
X35742208Y-36412575D01*
X35810028Y-36395779D01*
X35876164Y-36418316D01*
X35915203Y-36463369D01*
X35962713Y-36556611D01*
X36083028Y-36722213D01*
X36227786Y-36866971D01*
X36382749Y-36979556D01*
X36393390Y-36987287D01*
X36509607Y-37046503D01*
X36575776Y-37080218D01*
X36575778Y-37080218D01*
X36575781Y-37080220D01*
X36680137Y-37114127D01*
X36770465Y-37143477D01*
X36871557Y-37159488D01*
X36972648Y-37175500D01*
X36972649Y-37175500D01*
X37177351Y-37175500D01*
X37177352Y-37175500D01*
X37379534Y-37143477D01*
X37574219Y-37080220D01*
X37756610Y-36987287D01*
X37864146Y-36909158D01*
X37922213Y-36866971D01*
X37922215Y-36866968D01*
X37922219Y-36866966D01*
X38066966Y-36722219D01*
X38066968Y-36722215D01*
X38066971Y-36722213D01*
X38187284Y-36556614D01*
X38187286Y-36556611D01*
X38187287Y-36556610D01*
X38234795Y-36463369D01*
X38282770Y-36412574D01*
X38350591Y-36395779D01*
X38416725Y-36418316D01*
X38455765Y-36463370D01*
X38503140Y-36556349D01*
X38623417Y-36721894D01*
X38623417Y-36721895D01*
X38768104Y-36866582D01*
X38933650Y-36986859D01*
X39115968Y-37079754D01*
X39310578Y-37142988D01*
X39365000Y-37151607D01*
X39365000Y-35790686D01*
X39369394Y-35795080D01*
X39460606Y-35847741D01*
X39562339Y-35875000D01*
X39667661Y-35875000D01*
X39769394Y-35847741D01*
X39860606Y-35795080D01*
X39865000Y-35790686D01*
X39865000Y-37151606D01*
X39919421Y-37142988D01*
X40114031Y-37079754D01*
X40296349Y-36986859D01*
X40461894Y-36866582D01*
X40461895Y-36866582D01*
X40606582Y-36721895D01*
X40606582Y-36721894D01*
X40726861Y-36556347D01*
X40774234Y-36463371D01*
X40822208Y-36412575D01*
X40890028Y-36395779D01*
X40956164Y-36418316D01*
X40995203Y-36463369D01*
X41042713Y-36556611D01*
X41163028Y-36722213D01*
X41307786Y-36866971D01*
X41462749Y-36979556D01*
X41473390Y-36987287D01*
X41589607Y-37046503D01*
X41655776Y-37080218D01*
X41655778Y-37080218D01*
X41655781Y-37080220D01*
X41760137Y-37114127D01*
X41850465Y-37143477D01*
X41951557Y-37159488D01*
X42052648Y-37175500D01*
X42052649Y-37175500D01*
X42257351Y-37175500D01*
X42257352Y-37175500D01*
X42459534Y-37143477D01*
X42654219Y-37080220D01*
X42836610Y-36987287D01*
X42944146Y-36909158D01*
X43002213Y-36866971D01*
X43002215Y-36866968D01*
X43002219Y-36866966D01*
X43146966Y-36722219D01*
X43146968Y-36722215D01*
X43146971Y-36722213D01*
X43267284Y-36556614D01*
X43267286Y-36556611D01*
X43267287Y-36556610D01*
X43314795Y-36463369D01*
X43362770Y-36412574D01*
X43430591Y-36395779D01*
X43496725Y-36418316D01*
X43535765Y-36463370D01*
X43583140Y-36556349D01*
X43703417Y-36721894D01*
X43703417Y-36721895D01*
X43848104Y-36866582D01*
X44013650Y-36986859D01*
X44195968Y-37079754D01*
X44390578Y-37142988D01*
X44445000Y-37151607D01*
X44445000Y-35790686D01*
X44449394Y-35795080D01*
X44540606Y-35847741D01*
X44642339Y-35875000D01*
X44747661Y-35875000D01*
X44849394Y-35847741D01*
X44940606Y-35795080D01*
X44945000Y-35790686D01*
X44945000Y-37151606D01*
X44999421Y-37142988D01*
X45194031Y-37079754D01*
X45376349Y-36986859D01*
X45541894Y-36866582D01*
X45541895Y-36866582D01*
X45686582Y-36721895D01*
X45686582Y-36721894D01*
X45806859Y-36556349D01*
X45899755Y-36374031D01*
X45962990Y-36179417D01*
X45995000Y-35977317D01*
X45995000Y-35725000D01*
X45010686Y-35725000D01*
X45015080Y-35720606D01*
X45067741Y-35629394D01*
X45095000Y-35527661D01*
X45095000Y-35422339D01*
X45067741Y-35320606D01*
X45015080Y-35229394D01*
X45010686Y-35225000D01*
X45995000Y-35225000D01*
X45995000Y-35045380D01*
X46014685Y-34978341D01*
X46067489Y-34932586D01*
X46136647Y-34922642D01*
X46187890Y-34942277D01*
X46229505Y-34970084D01*
X46229506Y-34970084D01*
X46229507Y-34970085D01*
X46229509Y-34970086D01*
X46366082Y-35026656D01*
X46366087Y-35026658D01*
X46366091Y-35026658D01*
X46366092Y-35026659D01*
X46511079Y-35055500D01*
X46511082Y-35055500D01*
X57608920Y-35055500D01*
X57706462Y-35036096D01*
X57753913Y-35026658D01*
X57890495Y-34970084D01*
X57939729Y-34937186D01*
X58013416Y-34887952D01*
X59134549Y-33766819D01*
X59195872Y-33733334D01*
X59222230Y-33730500D01*
X67071994Y-33730500D01*
X67139033Y-33750185D01*
X67184788Y-33802989D01*
X67194732Y-33872147D01*
X67165707Y-33935703D01*
X67159675Y-33942181D01*
X64886706Y-36215148D01*
X64825383Y-36248633D01*
X64788218Y-36250995D01*
X64655002Y-36239341D01*
X64654999Y-36239341D01*
X64419596Y-36259936D01*
X64419586Y-36259938D01*
X64191344Y-36321094D01*
X64191335Y-36321098D01*
X63977171Y-36420964D01*
X63977169Y-36420965D01*
X63783597Y-36556505D01*
X63616505Y-36723597D01*
X63486575Y-36909158D01*
X63431998Y-36952783D01*
X63362500Y-36959977D01*
X63300145Y-36928454D01*
X63283425Y-36909158D01*
X63153494Y-36723597D01*
X62986402Y-36556506D01*
X62986395Y-36556501D01*
X62792834Y-36420967D01*
X62792830Y-36420965D01*
X62774835Y-36412574D01*
X62578663Y-36321097D01*
X62578659Y-36321096D01*
X62578655Y-36321094D01*
X62350413Y-36259938D01*
X62350403Y-36259936D01*
X62115001Y-36239341D01*
X62114999Y-36239341D01*
X61879596Y-36259936D01*
X61879586Y-36259938D01*
X61651344Y-36321094D01*
X61651335Y-36321098D01*
X61437171Y-36420964D01*
X61437169Y-36420965D01*
X61243597Y-36556505D01*
X61076505Y-36723597D01*
X60946575Y-36909158D01*
X60891998Y-36952783D01*
X60822500Y-36959977D01*
X60760145Y-36928454D01*
X60743425Y-36909158D01*
X60613494Y-36723597D01*
X60446402Y-36556506D01*
X60446395Y-36556501D01*
X60252834Y-36420967D01*
X60252830Y-36420965D01*
X60234835Y-36412574D01*
X60038663Y-36321097D01*
X60038659Y-36321096D01*
X60038655Y-36321094D01*
X59810413Y-36259938D01*
X59810403Y-36259936D01*
X59575001Y-36239341D01*
X59574999Y-36239341D01*
X59339596Y-36259936D01*
X59339586Y-36259938D01*
X59111344Y-36321094D01*
X59111335Y-36321098D01*
X58897171Y-36420964D01*
X58897169Y-36420965D01*
X58703597Y-36556505D01*
X58536508Y-36723594D01*
X58406269Y-36909595D01*
X58351692Y-36953219D01*
X58282193Y-36960412D01*
X58219839Y-36928890D01*
X58203119Y-36909594D01*
X58073113Y-36723926D01*
X58073108Y-36723920D01*
X57906082Y-36556894D01*
X57712578Y-36421399D01*
X57498492Y-36321570D01*
X57498486Y-36321567D01*
X57285000Y-36264364D01*
X57285000Y-37161988D01*
X57227993Y-37129075D01*
X57100826Y-37095000D01*
X56969174Y-37095000D01*
X56842007Y-37129075D01*
X56785000Y-37161988D01*
X56785000Y-36264364D01*
X56784999Y-36264364D01*
X56571513Y-36321567D01*
X56571507Y-36321570D01*
X56357422Y-36421399D01*
X56357420Y-36421400D01*
X56163926Y-36556886D01*
X56163920Y-36556891D01*
X55996891Y-36723920D01*
X55996890Y-36723922D01*
X55866575Y-36910031D01*
X55811998Y-36953655D01*
X55742499Y-36960848D01*
X55680145Y-36929326D01*
X55663425Y-36910031D01*
X55533109Y-36723922D01*
X55533108Y-36723920D01*
X55366082Y-36556894D01*
X55172578Y-36421399D01*
X54958492Y-36321570D01*
X54958486Y-36321567D01*
X54745000Y-36264364D01*
X54745000Y-37161988D01*
X54687993Y-37129075D01*
X54560826Y-37095000D01*
X54429174Y-37095000D01*
X54302007Y-37129075D01*
X54245000Y-37161988D01*
X54245000Y-36264364D01*
X54244999Y-36264364D01*
X54031513Y-36321567D01*
X54031507Y-36321570D01*
X53817422Y-36421399D01*
X53817420Y-36421400D01*
X53623926Y-36556886D01*
X53623920Y-36556891D01*
X53456891Y-36723920D01*
X53456890Y-36723922D01*
X53326575Y-36910031D01*
X53271998Y-36953655D01*
X53202499Y-36960848D01*
X53140145Y-36929326D01*
X53123425Y-36910031D01*
X52993109Y-36723922D01*
X52993108Y-36723920D01*
X52826082Y-36556894D01*
X52632578Y-36421399D01*
X52418492Y-36321570D01*
X52418486Y-36321567D01*
X52205000Y-36264364D01*
X52205000Y-37161988D01*
X52147993Y-37129075D01*
X52020826Y-37095000D01*
X51889174Y-37095000D01*
X51762007Y-37129075D01*
X51705000Y-37161988D01*
X51705000Y-36264364D01*
X51704999Y-36264364D01*
X51491513Y-36321567D01*
X51491507Y-36321570D01*
X51277422Y-36421399D01*
X51277420Y-36421400D01*
X51083926Y-36556886D01*
X51083920Y-36556891D01*
X50916891Y-36723920D01*
X50916890Y-36723922D01*
X50786575Y-36910031D01*
X50731998Y-36953655D01*
X50662499Y-36960848D01*
X50600145Y-36929326D01*
X50583425Y-36910031D01*
X50453109Y-36723922D01*
X50453108Y-36723920D01*
X50286082Y-36556894D01*
X50092578Y-36421399D01*
X49878492Y-36321570D01*
X49878486Y-36321567D01*
X49665000Y-36264364D01*
X49665000Y-37161988D01*
X49607993Y-37129075D01*
X49480826Y-37095000D01*
X49349174Y-37095000D01*
X49222007Y-37129075D01*
X49165000Y-37161988D01*
X49165000Y-36264364D01*
X49164999Y-36264364D01*
X48951513Y-36321567D01*
X48951507Y-36321570D01*
X48737422Y-36421399D01*
X48737420Y-36421400D01*
X48543926Y-36556886D01*
X48543920Y-36556891D01*
X48376891Y-36723920D01*
X48376886Y-36723926D01*
X48241400Y-36917420D01*
X48241399Y-36917422D01*
X48141570Y-37131507D01*
X48141567Y-37131513D01*
X48084364Y-37344999D01*
X48084364Y-37345000D01*
X48981988Y-37345000D01*
X48949075Y-37402007D01*
X48915000Y-37529174D01*
X48915000Y-37660826D01*
X48949075Y-37787993D01*
X48981988Y-37845000D01*
X48084364Y-37845000D01*
X48141567Y-38058486D01*
X48141570Y-38058492D01*
X48241399Y-38272578D01*
X48376894Y-38466082D01*
X48543917Y-38633105D01*
X48737421Y-38768600D01*
X48951507Y-38868429D01*
X48951516Y-38868433D01*
X49165000Y-38925634D01*
X49165000Y-38028012D01*
X49222007Y-38060925D01*
X49349174Y-38095000D01*
X49480826Y-38095000D01*
X49607993Y-38060925D01*
X49665000Y-38028012D01*
X49665000Y-38925633D01*
X49878483Y-38868433D01*
X49878492Y-38868429D01*
X50092578Y-38768600D01*
X50286082Y-38633105D01*
X50453105Y-38466082D01*
X50583425Y-38279968D01*
X50638002Y-38236344D01*
X50707501Y-38229151D01*
X50769855Y-38260673D01*
X50786575Y-38279968D01*
X50916894Y-38466082D01*
X51083917Y-38633105D01*
X51277421Y-38768600D01*
X51491507Y-38868429D01*
X51491516Y-38868433D01*
X51705000Y-38925634D01*
X51705000Y-38028012D01*
X51762007Y-38060925D01*
X51889174Y-38095000D01*
X52020826Y-38095000D01*
X52147993Y-38060925D01*
X52205000Y-38028012D01*
X52205000Y-38925633D01*
X52418483Y-38868433D01*
X52418492Y-38868429D01*
X52632578Y-38768600D01*
X52826082Y-38633105D01*
X52993105Y-38466082D01*
X53123425Y-38279968D01*
X53178002Y-38236344D01*
X53247501Y-38229151D01*
X53309855Y-38260673D01*
X53326575Y-38279968D01*
X53456894Y-38466082D01*
X53623917Y-38633105D01*
X53817421Y-38768600D01*
X54031507Y-38868429D01*
X54031516Y-38868433D01*
X54245000Y-38925634D01*
X54245000Y-38028012D01*
X54302007Y-38060925D01*
X54429174Y-38095000D01*
X54560826Y-38095000D01*
X54687993Y-38060925D01*
X54745000Y-38028012D01*
X54745000Y-38925633D01*
X54958483Y-38868433D01*
X54958492Y-38868429D01*
X55172578Y-38768600D01*
X55366082Y-38633105D01*
X55533105Y-38466082D01*
X55663425Y-38279968D01*
X55718002Y-38236344D01*
X55787501Y-38229151D01*
X55849855Y-38260673D01*
X55866575Y-38279968D01*
X55996894Y-38466082D01*
X56163917Y-38633105D01*
X56357421Y-38768600D01*
X56571507Y-38868429D01*
X56571516Y-38868433D01*
X56785000Y-38925634D01*
X56785000Y-38028012D01*
X56842007Y-38060925D01*
X56969174Y-38095000D01*
X57100826Y-38095000D01*
X57227993Y-38060925D01*
X57285000Y-38028012D01*
X57285000Y-38925633D01*
X57498483Y-38868433D01*
X57498492Y-38868429D01*
X57712578Y-38768600D01*
X57906082Y-38633105D01*
X58073105Y-38466082D01*
X58203119Y-38280405D01*
X58257696Y-38236781D01*
X58327195Y-38229588D01*
X58389549Y-38261110D01*
X58406269Y-38280405D01*
X58536505Y-38466401D01*
X58703599Y-38633495D01*
X58800384Y-38701265D01*
X58897165Y-38769032D01*
X58897167Y-38769033D01*
X58897170Y-38769035D01*
X59111337Y-38868903D01*
X59339592Y-38930063D01*
X59516034Y-38945500D01*
X59574999Y-38950659D01*
X59575000Y-38950659D01*
X59575001Y-38950659D01*
X59633966Y-38945500D01*
X59810408Y-38930063D01*
X60038663Y-38868903D01*
X60252830Y-38769035D01*
X60446401Y-38633495D01*
X60613495Y-38466401D01*
X60743425Y-38280842D01*
X60798002Y-38237217D01*
X60867500Y-38230023D01*
X60929855Y-38261546D01*
X60946575Y-38280842D01*
X61076281Y-38466082D01*
X61076505Y-38466401D01*
X61243599Y-38633495D01*
X61340384Y-38701265D01*
X61437165Y-38769032D01*
X61437167Y-38769033D01*
X61437170Y-38769035D01*
X61651337Y-38868903D01*
X61879592Y-38930063D01*
X62056034Y-38945500D01*
X62114999Y-38950659D01*
X62115000Y-38950659D01*
X62115001Y-38950659D01*
X62173966Y-38945500D01*
X62350408Y-38930063D01*
X62578663Y-38868903D01*
X62792830Y-38769035D01*
X62986401Y-38633495D01*
X63153495Y-38466401D01*
X63283425Y-38280842D01*
X63338002Y-38237217D01*
X63407500Y-38230023D01*
X63469855Y-38261546D01*
X63486575Y-38280842D01*
X63616501Y-38466396D01*
X63616506Y-38466402D01*
X63743181Y-38593077D01*
X63776666Y-38654400D01*
X63779500Y-38680758D01*
X63779500Y-41220993D01*
X63759815Y-41288032D01*
X63743181Y-41308674D01*
X53117748Y-51934106D01*
X53056425Y-51967591D01*
X53011588Y-51969039D01*
X52909215Y-51953609D01*
X52782440Y-51934500D01*
X52782435Y-51934500D01*
X52527565Y-51934500D01*
X52527559Y-51934500D01*
X52370609Y-51958157D01*
X52275542Y-51972487D01*
X52275539Y-51972488D01*
X52275533Y-51972489D01*
X52031992Y-52047612D01*
X51802373Y-52158190D01*
X51802372Y-52158191D01*
X51591782Y-52301768D01*
X51404952Y-52475121D01*
X51404950Y-52475123D01*
X51246041Y-52674388D01*
X51118608Y-52895109D01*
X51070428Y-53017869D01*
X51027612Y-53073082D01*
X50961742Y-53096383D01*
X50893731Y-53080372D01*
X50845173Y-53030134D01*
X50839572Y-53017869D01*
X50791393Y-52895112D01*
X50663959Y-52674388D01*
X50505050Y-52475123D01*
X50318217Y-52301768D01*
X50107634Y-52158195D01*
X50107630Y-52158193D01*
X50107627Y-52158191D01*
X50107626Y-52158190D01*
X49878006Y-52047612D01*
X49878008Y-52047612D01*
X49634466Y-51972489D01*
X49634462Y-51972488D01*
X49634458Y-51972487D01*
X49513231Y-51954214D01*
X49382440Y-51934500D01*
X49382435Y-51934500D01*
X49127565Y-51934500D01*
X49127559Y-51934500D01*
X48970609Y-51958157D01*
X48875542Y-51972487D01*
X48875539Y-51972488D01*
X48875533Y-51972489D01*
X48631992Y-52047612D01*
X48402373Y-52158190D01*
X48402372Y-52158191D01*
X48191782Y-52301768D01*
X48004952Y-52475121D01*
X48004950Y-52475123D01*
X47846041Y-52674388D01*
X47718608Y-52895109D01*
X47625492Y-53132362D01*
X47625490Y-53132369D01*
X47568777Y-53380845D01*
X47549732Y-53634995D01*
X47549732Y-53635004D01*
X47568777Y-53889154D01*
X47615761Y-54095006D01*
X47625492Y-54137637D01*
X47718607Y-54374888D01*
X47846041Y-54595612D01*
X48004950Y-54794877D01*
X48191783Y-54968232D01*
X48402366Y-55111805D01*
X48402371Y-55111807D01*
X48402372Y-55111808D01*
X48402373Y-55111809D01*
X48524328Y-55170538D01*
X48631992Y-55222387D01*
X48631993Y-55222387D01*
X48631996Y-55222389D01*
X48875542Y-55297513D01*
X49127565Y-55335500D01*
X49382435Y-55335500D01*
X49634458Y-55297513D01*
X49878004Y-55222389D01*
X50107634Y-55111805D01*
X50318217Y-54968232D01*
X50505050Y-54794877D01*
X50663959Y-54595612D01*
X50791393Y-54374888D01*
X50839572Y-54252128D01*
X50882388Y-54196917D01*
X50948258Y-54173616D01*
X51016269Y-54189627D01*
X51064827Y-54239865D01*
X51070425Y-54252123D01*
X51118607Y-54374888D01*
X51246041Y-54595612D01*
X51404950Y-54794877D01*
X51591783Y-54968232D01*
X51802366Y-55111805D01*
X51802371Y-55111807D01*
X51802372Y-55111808D01*
X51802373Y-55111809D01*
X51924328Y-55170538D01*
X52031992Y-55222387D01*
X52031993Y-55222387D01*
X52031996Y-55222389D01*
X52275542Y-55297513D01*
X52527565Y-55335500D01*
X52782435Y-55335500D01*
X53034458Y-55297513D01*
X53278004Y-55222389D01*
X53507634Y-55111805D01*
X53718217Y-54968232D01*
X53905050Y-54794877D01*
X54063959Y-54595612D01*
X54191393Y-54374888D01*
X54284508Y-54137637D01*
X54341222Y-53889157D01*
X54360268Y-53635000D01*
X54341222Y-53380843D01*
X54320435Y-53289771D01*
X54324708Y-53220032D01*
X54353643Y-53174499D01*
X65335045Y-42193099D01*
X65430858Y-42049705D01*
X65496855Y-41890374D01*
X65530500Y-41721229D01*
X65530500Y-41548771D01*
X65530500Y-38680758D01*
X65550185Y-38613719D01*
X65566813Y-38593082D01*
X65648329Y-38511566D01*
X65709648Y-38478084D01*
X65779340Y-38483068D01*
X65835274Y-38524939D01*
X65852189Y-38555917D01*
X65901202Y-38687328D01*
X65901206Y-38687335D01*
X65987452Y-38802544D01*
X65987455Y-38802547D01*
X66102664Y-38888793D01*
X66102671Y-38888797D01*
X66237517Y-38939091D01*
X66237516Y-38939091D01*
X66244444Y-38939835D01*
X66297127Y-38945500D01*
X68092872Y-38945499D01*
X68152483Y-38939091D01*
X68287331Y-38888796D01*
X68332486Y-38854993D01*
X69846225Y-38854993D01*
X69846225Y-38855006D01*
X69864892Y-39080289D01*
X69920388Y-39299439D01*
X70011198Y-39506466D01*
X70134842Y-39695716D01*
X70134850Y-39695727D01*
X70272244Y-39844975D01*
X70287954Y-39862040D01*
X70466351Y-40000893D01*
X70494165Y-40015945D01*
X70543755Y-40065165D01*
X70558863Y-40133382D01*
X70534692Y-40198937D01*
X70494165Y-40234055D01*
X70466352Y-40249106D01*
X70287955Y-40387959D01*
X70134850Y-40554272D01*
X70134842Y-40554283D01*
X70011198Y-40743533D01*
X69920388Y-40950560D01*
X69864892Y-41169710D01*
X69846225Y-41394993D01*
X69846225Y-41395006D01*
X69864892Y-41620289D01*
X69920388Y-41839439D01*
X70011198Y-42046466D01*
X70134842Y-42235716D01*
X70134850Y-42235727D01*
X70277299Y-42390466D01*
X70287954Y-42402040D01*
X70466351Y-42540893D01*
X70494165Y-42555945D01*
X70543755Y-42605165D01*
X70558863Y-42673382D01*
X70534692Y-42738937D01*
X70494165Y-42774054D01*
X70485866Y-42778545D01*
X70466352Y-42789106D01*
X70287955Y-42927959D01*
X70287950Y-42927963D01*
X70134850Y-43094272D01*
X70134842Y-43094283D01*
X70011198Y-43283533D01*
X69920388Y-43490560D01*
X69864892Y-43709710D01*
X69846225Y-43934993D01*
X69846225Y-43935006D01*
X69864892Y-44160289D01*
X69920388Y-44379439D01*
X70011198Y-44586466D01*
X70113471Y-44743005D01*
X70134844Y-44775719D01*
X70272245Y-44924976D01*
X70303167Y-44987629D01*
X70295307Y-45057055D01*
X70251160Y-45111211D01*
X70224349Y-45125140D01*
X70109311Y-45168046D01*
X70109306Y-45168049D01*
X69994212Y-45254209D01*
X69994209Y-45254212D01*
X69908049Y-45369306D01*
X69908045Y-45369313D01*
X69857803Y-45504020D01*
X69857801Y-45504027D01*
X69851400Y-45563555D01*
X69851400Y-46225000D01*
X70772749Y-46225000D01*
X70741619Y-46278919D01*
X70707000Y-46408120D01*
X70707000Y-46541880D01*
X70741619Y-46671081D01*
X70772749Y-46725000D01*
X69851400Y-46725000D01*
X69851400Y-47386444D01*
X69857801Y-47445972D01*
X69857803Y-47445979D01*
X69908045Y-47580686D01*
X69908049Y-47580693D01*
X69994209Y-47695787D01*
X69994212Y-47695790D01*
X70109306Y-47781950D01*
X70109313Y-47781954D01*
X70224348Y-47824859D01*
X70280282Y-47866730D01*
X70304699Y-47932194D01*
X70289848Y-48000467D01*
X70272245Y-48025024D01*
X70134845Y-48174279D01*
X70134842Y-48174283D01*
X70011198Y-48363533D01*
X69920389Y-48570559D01*
X69864892Y-48789710D01*
X69846225Y-49014993D01*
X69846225Y-49015006D01*
X69864892Y-49240289D01*
X69920388Y-49459439D01*
X70011198Y-49666466D01*
X70134842Y-49855716D01*
X70134850Y-49855727D01*
X70281471Y-50014998D01*
X70287954Y-50022040D01*
X70466351Y-50160893D01*
X70494165Y-50175945D01*
X70543755Y-50225165D01*
X70558863Y-50293382D01*
X70534692Y-50358937D01*
X70494165Y-50394055D01*
X70466352Y-50409106D01*
X70287955Y-50547959D01*
X70287950Y-50547963D01*
X70134850Y-50714272D01*
X70134842Y-50714283D01*
X70011198Y-50903533D01*
X69920388Y-51110560D01*
X69864892Y-51329710D01*
X69846225Y-51554993D01*
X69846225Y-51555006D01*
X69864892Y-51780289D01*
X69920388Y-51999439D01*
X70011198Y-52206466D01*
X70134842Y-52395716D01*
X70134850Y-52395727D01*
X70287950Y-52562036D01*
X70287954Y-52562040D01*
X70466351Y-52700893D01*
X70494165Y-52715945D01*
X70543755Y-52765165D01*
X70558863Y-52833382D01*
X70534692Y-52898937D01*
X70494165Y-52934055D01*
X70466352Y-52949106D01*
X70287955Y-53087959D01*
X70287950Y-53087963D01*
X70134850Y-53254272D01*
X70134842Y-53254283D01*
X70011198Y-53443533D01*
X69920388Y-53650560D01*
X69864892Y-53869710D01*
X69846225Y-54094993D01*
X69846225Y-54095006D01*
X69864892Y-54320289D01*
X69920388Y-54539439D01*
X70011198Y-54746466D01*
X70134842Y-54935716D01*
X70134850Y-54935727D01*
X70287950Y-55102036D01*
X70287954Y-55102040D01*
X70466351Y-55240893D01*
X70494165Y-55255945D01*
X70543755Y-55305165D01*
X70558863Y-55373382D01*
X70534692Y-55438937D01*
X70494165Y-55474055D01*
X70466352Y-55489106D01*
X70287955Y-55627959D01*
X70287950Y-55627963D01*
X70134850Y-55794272D01*
X70134842Y-55794283D01*
X70011198Y-55983533D01*
X69920388Y-56190560D01*
X69864892Y-56409710D01*
X69846225Y-56634993D01*
X69846225Y-56635006D01*
X69864892Y-56860289D01*
X69920388Y-57079439D01*
X70011198Y-57286466D01*
X70134842Y-57475716D01*
X70134850Y-57475727D01*
X70287950Y-57642036D01*
X70287954Y-57642040D01*
X70466351Y-57780893D01*
X70494165Y-57795945D01*
X70543755Y-57845165D01*
X70558863Y-57913382D01*
X70534692Y-57978937D01*
X70494165Y-58014055D01*
X70466352Y-58029106D01*
X70287955Y-58167959D01*
X70287950Y-58167963D01*
X70134850Y-58334272D01*
X70134842Y-58334283D01*
X70011198Y-58523533D01*
X69920388Y-58730560D01*
X69864892Y-58949710D01*
X69846225Y-59174993D01*
X69846225Y-59175006D01*
X69864892Y-59400289D01*
X69920388Y-59619439D01*
X70011198Y-59826466D01*
X70134842Y-60015716D01*
X70134850Y-60015727D01*
X70281471Y-60174998D01*
X70287954Y-60182040D01*
X70466351Y-60320893D01*
X70494165Y-60335945D01*
X70543755Y-60385165D01*
X70558863Y-60453382D01*
X70534692Y-60518937D01*
X70494165Y-60554055D01*
X70466352Y-60569106D01*
X70287955Y-60707959D01*
X70287950Y-60707963D01*
X70134850Y-60874272D01*
X70134842Y-60874283D01*
X70011198Y-61063533D01*
X69920388Y-61270560D01*
X69864892Y-61489710D01*
X69846225Y-61714993D01*
X69846225Y-61715006D01*
X69864892Y-61940289D01*
X69920388Y-62159439D01*
X70011198Y-62366466D01*
X70134842Y-62555716D01*
X70134850Y-62555727D01*
X70287950Y-62722036D01*
X70287954Y-62722040D01*
X70466351Y-62860893D01*
X70494165Y-62875945D01*
X70543755Y-62925165D01*
X70558863Y-62993382D01*
X70534692Y-63058937D01*
X70494165Y-63094055D01*
X70466352Y-63109106D01*
X70287955Y-63247959D01*
X70287950Y-63247963D01*
X70134850Y-63414272D01*
X70134842Y-63414283D01*
X70011198Y-63603533D01*
X69920388Y-63810560D01*
X69864892Y-64029710D01*
X69846225Y-64254993D01*
X69846225Y-64255006D01*
X69864892Y-64480289D01*
X69920388Y-64699439D01*
X70011198Y-64906466D01*
X70134842Y-65095716D01*
X70134850Y-65095727D01*
X70281933Y-65255500D01*
X70287954Y-65262040D01*
X70466351Y-65400893D01*
X70494165Y-65415945D01*
X70543755Y-65465165D01*
X70558863Y-65533382D01*
X70534692Y-65598937D01*
X70494165Y-65634055D01*
X70466352Y-65649106D01*
X70287955Y-65787959D01*
X70287950Y-65787963D01*
X70134850Y-65954272D01*
X70134842Y-65954283D01*
X70011198Y-66143533D01*
X69920388Y-66350560D01*
X69864892Y-66569710D01*
X69846225Y-66794993D01*
X69846225Y-66795006D01*
X69864892Y-67020289D01*
X69920388Y-67239439D01*
X70011198Y-67446466D01*
X70134842Y-67635716D01*
X70134850Y-67635727D01*
X70287950Y-67802036D01*
X70287954Y-67802040D01*
X70466351Y-67940893D01*
X70494165Y-67955945D01*
X70543755Y-68005165D01*
X70558863Y-68073382D01*
X70534692Y-68138937D01*
X70494165Y-68174055D01*
X70466352Y-68189106D01*
X70287955Y-68327959D01*
X70287950Y-68327963D01*
X70134850Y-68494272D01*
X70134842Y-68494283D01*
X70011198Y-68683533D01*
X69920388Y-68890560D01*
X69864892Y-69109710D01*
X69846225Y-69334993D01*
X69846225Y-69335006D01*
X69864892Y-69560289D01*
X69920388Y-69779439D01*
X70011198Y-69986466D01*
X70134842Y-70175716D01*
X70134850Y-70175727D01*
X70287950Y-70342036D01*
X70287954Y-70342040D01*
X70466351Y-70480893D01*
X70494165Y-70495945D01*
X70543755Y-70545165D01*
X70558863Y-70613382D01*
X70534692Y-70678937D01*
X70494165Y-70714055D01*
X70466352Y-70729106D01*
X70287955Y-70867959D01*
X70287950Y-70867963D01*
X70134850Y-71034272D01*
X70134842Y-71034283D01*
X70011198Y-71223533D01*
X69920388Y-71430560D01*
X69864892Y-71649710D01*
X69846225Y-71874993D01*
X69846225Y-71875006D01*
X69864892Y-72100289D01*
X69920388Y-72319439D01*
X70011198Y-72526466D01*
X70134842Y-72715716D01*
X70134850Y-72715727D01*
X70274855Y-72867811D01*
X70287954Y-72882040D01*
X70466351Y-73020893D01*
X70494165Y-73035945D01*
X70543755Y-73085165D01*
X70558863Y-73153382D01*
X70534692Y-73218937D01*
X70494165Y-73254055D01*
X70466352Y-73269106D01*
X70287955Y-73407959D01*
X70287950Y-73407963D01*
X70134850Y-73574272D01*
X70134842Y-73574283D01*
X70011198Y-73763533D01*
X69920388Y-73970560D01*
X69864892Y-74189710D01*
X69846225Y-74414993D01*
X69846225Y-74415006D01*
X69864892Y-74640289D01*
X69920388Y-74859439D01*
X70011198Y-75066466D01*
X70134842Y-75255716D01*
X70134850Y-75255727D01*
X70287950Y-75422036D01*
X70287954Y-75422040D01*
X70466351Y-75560893D01*
X70665169Y-75668488D01*
X70711479Y-75684386D01*
X70768491Y-75724769D01*
X70794622Y-75789569D01*
X70781572Y-75858209D01*
X70733484Y-75908897D01*
X70727510Y-75912150D01*
X70612004Y-75971004D01*
X70465505Y-76077441D01*
X70465500Y-76077445D01*
X70337445Y-76205500D01*
X70337441Y-76205505D01*
X70231006Y-76352002D01*
X70148788Y-76513360D01*
X70148787Y-76513363D01*
X70092829Y-76685589D01*
X70064500Y-76864448D01*
X70064500Y-77045551D01*
X70092829Y-77224410D01*
X70148787Y-77396636D01*
X70148788Y-77396639D01*
X70231006Y-77557997D01*
X70337441Y-77704494D01*
X70337445Y-77704499D01*
X70465500Y-77832554D01*
X70465505Y-77832558D01*
X70593287Y-77925396D01*
X70612006Y-77938996D01*
X70682766Y-77975050D01*
X70773360Y-78021211D01*
X70773363Y-78021212D01*
X70859476Y-78049191D01*
X70945591Y-78077171D01*
X71028429Y-78090291D01*
X71124449Y-78105500D01*
X71124454Y-78105500D01*
X71305551Y-78105500D01*
X71392259Y-78091765D01*
X71484409Y-78077171D01*
X71656639Y-78021211D01*
X71817994Y-77938996D01*
X71964501Y-77832553D01*
X72092553Y-77704501D01*
X72198996Y-77557994D01*
X72281211Y-77396639D01*
X72337171Y-77224409D01*
X72351765Y-77132259D01*
X72365500Y-77045551D01*
X72365500Y-76864448D01*
X72349019Y-76760397D01*
X72337171Y-76685591D01*
X72281211Y-76513361D01*
X72281211Y-76513360D01*
X72250345Y-76452783D01*
X72198996Y-76352006D01*
X72105937Y-76223920D01*
X72092558Y-76205505D01*
X72092554Y-76205500D01*
X71964499Y-76077445D01*
X71964494Y-76077441D01*
X71817993Y-75971003D01*
X71817992Y-75971002D01*
X71702490Y-75912150D01*
X71651694Y-75864176D01*
X71634899Y-75796355D01*
X71657437Y-75730220D01*
X71712152Y-75686769D01*
X71718488Y-75684397D01*
X71764831Y-75668488D01*
X71963649Y-75560893D01*
X72142046Y-75422040D01*
X72295156Y-75255719D01*
X72418802Y-75066465D01*
X72509611Y-74859441D01*
X72565107Y-74640293D01*
X72581465Y-74442883D01*
X72583775Y-74415006D01*
X72583775Y-74414993D01*
X72565107Y-74189710D01*
X72565107Y-74189707D01*
X72509611Y-73970559D01*
X72418802Y-73763535D01*
X72295156Y-73574281D01*
X72295153Y-73574278D01*
X72295149Y-73574272D01*
X72142049Y-73407963D01*
X72142048Y-73407962D01*
X72142046Y-73407960D01*
X71963649Y-73269107D01*
X71963647Y-73269106D01*
X71963646Y-73269105D01*
X71963639Y-73269100D01*
X71935836Y-73254055D01*
X71886244Y-73204837D01*
X71871135Y-73136620D01*
X71895306Y-73071064D01*
X71935836Y-73035945D01*
X71963639Y-73020899D01*
X71963642Y-73020896D01*
X71963649Y-73020893D01*
X72142046Y-72882040D01*
X72295156Y-72715719D01*
X72418802Y-72526465D01*
X72509611Y-72319441D01*
X72565107Y-72100293D01*
X72574029Y-71992620D01*
X72583775Y-71875006D01*
X72583775Y-71874993D01*
X72565107Y-71649710D01*
X72565107Y-71649707D01*
X72509611Y-71430559D01*
X72418802Y-71223535D01*
X72417806Y-71222011D01*
X72295157Y-71034283D01*
X72295149Y-71034272D01*
X72142049Y-70867963D01*
X72142048Y-70867962D01*
X72142046Y-70867960D01*
X71963649Y-70729107D01*
X71963647Y-70729106D01*
X71963646Y-70729105D01*
X71963639Y-70729100D01*
X71935836Y-70714055D01*
X71886244Y-70664837D01*
X71871135Y-70596620D01*
X71895306Y-70531064D01*
X71935836Y-70495945D01*
X71963639Y-70480899D01*
X71963642Y-70480896D01*
X71963649Y-70480893D01*
X72142046Y-70342040D01*
X72295156Y-70175719D01*
X72418802Y-69986465D01*
X72509611Y-69779441D01*
X72565107Y-69560293D01*
X72583775Y-69335000D01*
X72583775Y-69334993D01*
X72565107Y-69109710D01*
X72565107Y-69109707D01*
X72509611Y-68890559D01*
X72418802Y-68683535D01*
X72295156Y-68494281D01*
X72295153Y-68494278D01*
X72295149Y-68494272D01*
X72142049Y-68327963D01*
X72142048Y-68327962D01*
X72142046Y-68327960D01*
X71963649Y-68189107D01*
X71963647Y-68189106D01*
X71963646Y-68189105D01*
X71963639Y-68189100D01*
X71935836Y-68174055D01*
X71886244Y-68124837D01*
X71871135Y-68056620D01*
X71895306Y-67991064D01*
X71935836Y-67955945D01*
X71963639Y-67940899D01*
X71963642Y-67940896D01*
X71963649Y-67940893D01*
X72142046Y-67802040D01*
X72295156Y-67635719D01*
X72418802Y-67446465D01*
X72509611Y-67239441D01*
X72565107Y-67020293D01*
X72572574Y-66930175D01*
X72583775Y-66795006D01*
X72583775Y-66794993D01*
X72570707Y-66637294D01*
X72565107Y-66569707D01*
X72509611Y-66350559D01*
X72418802Y-66143535D01*
X72295156Y-65954281D01*
X72295153Y-65954278D01*
X72295149Y-65954272D01*
X72142049Y-65787963D01*
X72142048Y-65787962D01*
X72142046Y-65787960D01*
X71963649Y-65649107D01*
X71963647Y-65649106D01*
X71963646Y-65649105D01*
X71963639Y-65649100D01*
X71935836Y-65634055D01*
X71886244Y-65584837D01*
X71871135Y-65516620D01*
X71895306Y-65451064D01*
X71935836Y-65415945D01*
X71963639Y-65400899D01*
X71963642Y-65400896D01*
X71963649Y-65400893D01*
X72142046Y-65262040D01*
X72295156Y-65095719D01*
X72418802Y-64906465D01*
X72509611Y-64699441D01*
X72565107Y-64480293D01*
X72580470Y-64294888D01*
X72583775Y-64255006D01*
X72583775Y-64254993D01*
X72565107Y-64029710D01*
X72565107Y-64029707D01*
X72509611Y-63810559D01*
X72418802Y-63603535D01*
X72387092Y-63555000D01*
X72295157Y-63414283D01*
X72295149Y-63414272D01*
X72142049Y-63247963D01*
X72142048Y-63247962D01*
X72142046Y-63247960D01*
X71963649Y-63109107D01*
X71963647Y-63109106D01*
X71963646Y-63109105D01*
X71963639Y-63109100D01*
X71935836Y-63094055D01*
X71886244Y-63044837D01*
X71871135Y-62976620D01*
X71895306Y-62911064D01*
X71935836Y-62875945D01*
X71963639Y-62860899D01*
X71963642Y-62860896D01*
X71963649Y-62860893D01*
X72142046Y-62722040D01*
X72295156Y-62555719D01*
X72418802Y-62366465D01*
X72509611Y-62159441D01*
X72565107Y-61940293D01*
X72583775Y-61715000D01*
X72583775Y-61714993D01*
X72565107Y-61489710D01*
X72565107Y-61489707D01*
X72509611Y-61270559D01*
X72418802Y-61063535D01*
X72295156Y-60874281D01*
X72295153Y-60874278D01*
X72295149Y-60874272D01*
X72142049Y-60707963D01*
X72142048Y-60707962D01*
X72142046Y-60707960D01*
X71963649Y-60569107D01*
X71963647Y-60569106D01*
X71963646Y-60569105D01*
X71963639Y-60569100D01*
X71935836Y-60554055D01*
X71886244Y-60504837D01*
X71871135Y-60436620D01*
X71895306Y-60371064D01*
X71935836Y-60335945D01*
X71963639Y-60320899D01*
X71963642Y-60320896D01*
X71963649Y-60320893D01*
X72142046Y-60182040D01*
X72242347Y-60073085D01*
X72295149Y-60015727D01*
X72295150Y-60015725D01*
X72295156Y-60015719D01*
X72418802Y-59826465D01*
X72509611Y-59619441D01*
X72565107Y-59400293D01*
X72583775Y-59175000D01*
X72583775Y-59174993D01*
X72565107Y-58949710D01*
X72565107Y-58949707D01*
X72509611Y-58730559D01*
X72418802Y-58523535D01*
X72295156Y-58334281D01*
X72295153Y-58334278D01*
X72295149Y-58334272D01*
X72142049Y-58167963D01*
X72142048Y-58167962D01*
X72142046Y-58167960D01*
X71963649Y-58029107D01*
X71963647Y-58029106D01*
X71963646Y-58029105D01*
X71963639Y-58029100D01*
X71935836Y-58014055D01*
X71886244Y-57964837D01*
X71871135Y-57896620D01*
X71895306Y-57831064D01*
X71935836Y-57795945D01*
X71963639Y-57780899D01*
X71963642Y-57780896D01*
X71963649Y-57780893D01*
X72142046Y-57642040D01*
X72295156Y-57475719D01*
X72418802Y-57286465D01*
X72509611Y-57079441D01*
X72565107Y-56860293D01*
X72572574Y-56770175D01*
X72583775Y-56635006D01*
X72583775Y-56634993D01*
X72570707Y-56477294D01*
X72565107Y-56409707D01*
X72509611Y-56190559D01*
X72418802Y-55983535D01*
X72295156Y-55794281D01*
X72295153Y-55794278D01*
X72295149Y-55794272D01*
X72142049Y-55627963D01*
X72142048Y-55627962D01*
X72142046Y-55627960D01*
X71963649Y-55489107D01*
X71963647Y-55489106D01*
X71963646Y-55489105D01*
X71963639Y-55489100D01*
X71935836Y-55474055D01*
X71886244Y-55424837D01*
X71871135Y-55356620D01*
X71895306Y-55291064D01*
X71935836Y-55255945D01*
X71963639Y-55240899D01*
X71963642Y-55240896D01*
X71963649Y-55240893D01*
X72142046Y-55102040D01*
X72265226Y-54968232D01*
X72295149Y-54935727D01*
X72295150Y-54935725D01*
X72295156Y-54935719D01*
X72418802Y-54746465D01*
X72509611Y-54539441D01*
X72565107Y-54320293D01*
X72583775Y-54095000D01*
X72583775Y-54094993D01*
X72570707Y-53937294D01*
X72565107Y-53869707D01*
X72509611Y-53650559D01*
X72418802Y-53443535D01*
X72295156Y-53254281D01*
X72295153Y-53254278D01*
X72295149Y-53254272D01*
X72142049Y-53087963D01*
X72142048Y-53087962D01*
X72142046Y-53087960D01*
X71963649Y-52949107D01*
X71963647Y-52949106D01*
X71963646Y-52949105D01*
X71963639Y-52949100D01*
X71935836Y-52934055D01*
X71886244Y-52884837D01*
X71871135Y-52816620D01*
X71895306Y-52751064D01*
X71935836Y-52715945D01*
X71963639Y-52700899D01*
X71963642Y-52700896D01*
X71963649Y-52700893D01*
X72142046Y-52562040D01*
X72295156Y-52395719D01*
X72418802Y-52206465D01*
X72509611Y-51999441D01*
X72565107Y-51780293D01*
X72583775Y-51555000D01*
X72583775Y-51554993D01*
X72569327Y-51380633D01*
X72565107Y-51329707D01*
X72509611Y-51110559D01*
X72418802Y-50903535D01*
X72295156Y-50714281D01*
X72295153Y-50714278D01*
X72295149Y-50714272D01*
X72142049Y-50547963D01*
X72142048Y-50547962D01*
X72142046Y-50547960D01*
X71963649Y-50409107D01*
X71963647Y-50409106D01*
X71963646Y-50409105D01*
X71963639Y-50409100D01*
X71935836Y-50394055D01*
X71886244Y-50344837D01*
X71871135Y-50276620D01*
X71895306Y-50211064D01*
X71935836Y-50175945D01*
X71963639Y-50160899D01*
X71963642Y-50160896D01*
X71963649Y-50160893D01*
X72142046Y-50022040D01*
X72242347Y-49913085D01*
X72295149Y-49855727D01*
X72295150Y-49855725D01*
X72295156Y-49855719D01*
X72418802Y-49666465D01*
X72509611Y-49459441D01*
X72565107Y-49240293D01*
X72583775Y-49015000D01*
X72583775Y-49014993D01*
X72565172Y-48790495D01*
X72565107Y-48789707D01*
X72509611Y-48570559D01*
X72418802Y-48363535D01*
X72295156Y-48174281D01*
X72295153Y-48174278D01*
X72295149Y-48174272D01*
X72157755Y-48025024D01*
X72126832Y-47962370D01*
X72134692Y-47892944D01*
X72178839Y-47838788D01*
X72205652Y-47824859D01*
X72320684Y-47781955D01*
X72320693Y-47781950D01*
X72435787Y-47695790D01*
X72435790Y-47695787D01*
X72521950Y-47580693D01*
X72521954Y-47580686D01*
X72572196Y-47445979D01*
X72572198Y-47445972D01*
X72578599Y-47386444D01*
X72578600Y-47386427D01*
X72578600Y-46725000D01*
X71657251Y-46725000D01*
X71688381Y-46671081D01*
X71723000Y-46541880D01*
X71723000Y-46408120D01*
X71688381Y-46278919D01*
X71657251Y-46225000D01*
X72578600Y-46225000D01*
X72578600Y-45563572D01*
X72578599Y-45563555D01*
X72572198Y-45504027D01*
X72572196Y-45504020D01*
X72521954Y-45369313D01*
X72521950Y-45369306D01*
X72435790Y-45254212D01*
X72435787Y-45254209D01*
X72320693Y-45168049D01*
X72320686Y-45168045D01*
X72205651Y-45125140D01*
X72149717Y-45083269D01*
X72125300Y-45017804D01*
X72140152Y-44949531D01*
X72157749Y-44924981D01*
X72295156Y-44775719D01*
X72418802Y-44586465D01*
X72509611Y-44379441D01*
X72565107Y-44160293D01*
X72583775Y-43935000D01*
X72583775Y-43934993D01*
X72565107Y-43709710D01*
X72565107Y-43709707D01*
X72509611Y-43490559D01*
X72418802Y-43283535D01*
X72295156Y-43094281D01*
X72295153Y-43094278D01*
X72295149Y-43094272D01*
X72142049Y-42927963D01*
X72142048Y-42927962D01*
X72142046Y-42927960D01*
X71963649Y-42789107D01*
X71963647Y-42789106D01*
X71963646Y-42789105D01*
X71963639Y-42789100D01*
X71935836Y-42774055D01*
X71886244Y-42724837D01*
X71871135Y-42656620D01*
X71895306Y-42591064D01*
X71935836Y-42555945D01*
X71963639Y-42540899D01*
X71963642Y-42540896D01*
X71963649Y-42540893D01*
X72142046Y-42402040D01*
X72295156Y-42235719D01*
X72418802Y-42046465D01*
X72509611Y-41839441D01*
X72565107Y-41620293D01*
X72575883Y-41490244D01*
X72583775Y-41395006D01*
X72583775Y-41394993D01*
X72569357Y-41220993D01*
X72565107Y-41169707D01*
X72509611Y-40950559D01*
X72418802Y-40743535D01*
X72295156Y-40554281D01*
X72295153Y-40554278D01*
X72295149Y-40554272D01*
X72142045Y-40387959D01*
X72015296Y-40289306D01*
X71963649Y-40249107D01*
X71963647Y-40249106D01*
X71963646Y-40249105D01*
X71963639Y-40249100D01*
X71935836Y-40234055D01*
X71886244Y-40184837D01*
X71871135Y-40116620D01*
X71895306Y-40051064D01*
X71935836Y-40015945D01*
X71963639Y-40000899D01*
X71963642Y-40000896D01*
X71963649Y-40000893D01*
X72142046Y-39862040D01*
X72263139Y-39730499D01*
X72295149Y-39695727D01*
X72295150Y-39695725D01*
X72295156Y-39695719D01*
X72418802Y-39506465D01*
X72509611Y-39299441D01*
X72565107Y-39080293D01*
X72577555Y-38930063D01*
X72583775Y-38855006D01*
X72583775Y-38854993D01*
X72569882Y-38687331D01*
X72565107Y-38629707D01*
X72509611Y-38410559D01*
X72418802Y-38203535D01*
X72295156Y-38014281D01*
X72295153Y-38014278D01*
X72295149Y-38014272D01*
X72142049Y-37847963D01*
X72142048Y-37847962D01*
X72142046Y-37847960D01*
X71963649Y-37709107D01*
X71874434Y-37660826D01*
X71764832Y-37601512D01*
X71764826Y-37601510D01*
X71718522Y-37585614D01*
X71661507Y-37545229D01*
X71635376Y-37480429D01*
X71648427Y-37411789D01*
X71696516Y-37361101D01*
X71702472Y-37357857D01*
X71817994Y-37298996D01*
X71964501Y-37192553D01*
X72092553Y-37064501D01*
X72198996Y-36917994D01*
X72281211Y-36756639D01*
X72337171Y-36584409D01*
X72351765Y-36492259D01*
X72365500Y-36405551D01*
X72365500Y-36224448D01*
X72346240Y-36102853D01*
X72337171Y-36045591D01*
X72281211Y-35873361D01*
X72281211Y-35873360D01*
X72252740Y-35817484D01*
X72198996Y-35712006D01*
X72185396Y-35693287D01*
X72092558Y-35565505D01*
X72092554Y-35565500D01*
X71964499Y-35437445D01*
X71964494Y-35437441D01*
X71817997Y-35331006D01*
X71817996Y-35331005D01*
X71817994Y-35331004D01*
X71766300Y-35304664D01*
X71656639Y-35248788D01*
X71656636Y-35248787D01*
X71484410Y-35192829D01*
X71305551Y-35164500D01*
X71305546Y-35164500D01*
X71124454Y-35164500D01*
X71124449Y-35164500D01*
X70945589Y-35192829D01*
X70773363Y-35248787D01*
X70773360Y-35248788D01*
X70612002Y-35331006D01*
X70465505Y-35437441D01*
X70465500Y-35437445D01*
X70337445Y-35565500D01*
X70337441Y-35565505D01*
X70231006Y-35712002D01*
X70148788Y-35873360D01*
X70148787Y-35873363D01*
X70092829Y-36045589D01*
X70064500Y-36224448D01*
X70064500Y-36405551D01*
X70092829Y-36584410D01*
X70148787Y-36756636D01*
X70148788Y-36756639D01*
X70204664Y-36866300D01*
X70226724Y-36909595D01*
X70231006Y-36917997D01*
X70337441Y-37064494D01*
X70337445Y-37064499D01*
X70465500Y-37192554D01*
X70465505Y-37192558D01*
X70593287Y-37285396D01*
X70612006Y-37298996D01*
X70727509Y-37357848D01*
X70778305Y-37405823D01*
X70795100Y-37473644D01*
X70772562Y-37539779D01*
X70717847Y-37583230D01*
X70711478Y-37585614D01*
X70665169Y-37601512D01*
X70665167Y-37601512D01*
X70466352Y-37709106D01*
X70287955Y-37847959D01*
X70287950Y-37847963D01*
X70134850Y-38014272D01*
X70134842Y-38014283D01*
X70011198Y-38203533D01*
X69920388Y-38410560D01*
X69864892Y-38629710D01*
X69846225Y-38854993D01*
X68332486Y-38854993D01*
X68402546Y-38802546D01*
X68488796Y-38687331D01*
X68539091Y-38552483D01*
X68545500Y-38492873D01*
X68545499Y-36697128D01*
X68539091Y-36637517D01*
X68519283Y-36584410D01*
X68488797Y-36502671D01*
X68488793Y-36502664D01*
X68402547Y-36387455D01*
X68402544Y-36387452D01*
X68287335Y-36301206D01*
X68287328Y-36301202D01*
X68152482Y-36250908D01*
X68152483Y-36250908D01*
X68092883Y-36244501D01*
X68092881Y-36244500D01*
X68092873Y-36244500D01*
X68092865Y-36244500D01*
X67633005Y-36244500D01*
X67565966Y-36224815D01*
X67520211Y-36172011D01*
X67510267Y-36102853D01*
X67539292Y-36039297D01*
X67545324Y-36032819D01*
X68140697Y-35437447D01*
X68861325Y-34716819D01*
X68922648Y-34683334D01*
X68949006Y-34680500D01*
X77620994Y-34680500D01*
X77688033Y-34700185D01*
X77708675Y-34716819D01*
X82404955Y-39413099D01*
X82498321Y-39506465D01*
X82526902Y-39535046D01*
X82670288Y-39630854D01*
X82670301Y-39630861D01*
X82826876Y-39695716D01*
X82829626Y-39696855D01*
X82998766Y-39730499D01*
X82998769Y-39730500D01*
X82998771Y-39730500D01*
X85352471Y-39730500D01*
X85419510Y-39750185D01*
X85443700Y-39770517D01*
X85512244Y-39844975D01*
X85543167Y-39907629D01*
X85535307Y-39977055D01*
X85491160Y-40031211D01*
X85464349Y-40045140D01*
X85349311Y-40088046D01*
X85349306Y-40088049D01*
X85234212Y-40174209D01*
X85234209Y-40174212D01*
X85148049Y-40289306D01*
X85148045Y-40289313D01*
X85097803Y-40424020D01*
X85097801Y-40424027D01*
X85091400Y-40483555D01*
X85091400Y-41145000D01*
X86012749Y-41145000D01*
X85981619Y-41198919D01*
X85947000Y-41328120D01*
X85947000Y-41461880D01*
X85981619Y-41591081D01*
X86012749Y-41645000D01*
X85091400Y-41645000D01*
X85091400Y-42306444D01*
X85097801Y-42365972D01*
X85097803Y-42365979D01*
X85148045Y-42500686D01*
X85148049Y-42500693D01*
X85234209Y-42615787D01*
X85234212Y-42615790D01*
X85349306Y-42701950D01*
X85349313Y-42701954D01*
X85464348Y-42744859D01*
X85520282Y-42786730D01*
X85544699Y-42852194D01*
X85529848Y-42920467D01*
X85512245Y-42945024D01*
X85374845Y-43094279D01*
X85374842Y-43094283D01*
X85251198Y-43283533D01*
X85160388Y-43490560D01*
X85104892Y-43709710D01*
X85086225Y-43934993D01*
X85086225Y-43935006D01*
X85104892Y-44160289D01*
X85160388Y-44379439D01*
X85251198Y-44586466D01*
X85374842Y-44775716D01*
X85374850Y-44775727D01*
X85512244Y-44924975D01*
X85527954Y-44942040D01*
X85706351Y-45080893D01*
X85734165Y-45095945D01*
X85783755Y-45145165D01*
X85798863Y-45213382D01*
X85774692Y-45278937D01*
X85734165Y-45314055D01*
X85706352Y-45329106D01*
X85527955Y-45467959D01*
X85374850Y-45634272D01*
X85374842Y-45634283D01*
X85251198Y-45823533D01*
X85160388Y-46030560D01*
X85104892Y-46249710D01*
X85086225Y-46474993D01*
X85086225Y-46475006D01*
X85104892Y-46700289D01*
X85160388Y-46919439D01*
X85251198Y-47126466D01*
X85374842Y-47315716D01*
X85374850Y-47315727D01*
X85527950Y-47482036D01*
X85527954Y-47482040D01*
X85706351Y-47620893D01*
X85734165Y-47635945D01*
X85783755Y-47685165D01*
X85798863Y-47753382D01*
X85774692Y-47818937D01*
X85734165Y-47854055D01*
X85706352Y-47869106D01*
X85527955Y-48007959D01*
X85527950Y-48007963D01*
X85374850Y-48174272D01*
X85374842Y-48174283D01*
X85251198Y-48363533D01*
X85160389Y-48570559D01*
X85104892Y-48789710D01*
X85086225Y-49014993D01*
X85086225Y-49015006D01*
X85104892Y-49240289D01*
X85160388Y-49459439D01*
X85251198Y-49666466D01*
X85374842Y-49855716D01*
X85374850Y-49855727D01*
X85521471Y-50014998D01*
X85527954Y-50022040D01*
X85706351Y-50160893D01*
X85734165Y-50175945D01*
X85783755Y-50225165D01*
X85798863Y-50293382D01*
X85774692Y-50358937D01*
X85734165Y-50394055D01*
X85706352Y-50409106D01*
X85527955Y-50547959D01*
X85527950Y-50547963D01*
X85374850Y-50714272D01*
X85374842Y-50714283D01*
X85251198Y-50903533D01*
X85160388Y-51110560D01*
X85104892Y-51329710D01*
X85086225Y-51554993D01*
X85086225Y-51555006D01*
X85104892Y-51780289D01*
X85160388Y-51999439D01*
X85251198Y-52206466D01*
X85374842Y-52395716D01*
X85374850Y-52395727D01*
X85527950Y-52562036D01*
X85527954Y-52562040D01*
X85706351Y-52700893D01*
X85734165Y-52715945D01*
X85783755Y-52765165D01*
X85798863Y-52833382D01*
X85774692Y-52898937D01*
X85734165Y-52934055D01*
X85706352Y-52949106D01*
X85527955Y-53087959D01*
X85527950Y-53087963D01*
X85374850Y-53254272D01*
X85374842Y-53254283D01*
X85251198Y-53443533D01*
X85160388Y-53650560D01*
X85104892Y-53869710D01*
X85086225Y-54094993D01*
X85086225Y-54095006D01*
X85104892Y-54320289D01*
X85160388Y-54539439D01*
X85251198Y-54746466D01*
X85374842Y-54935716D01*
X85374850Y-54935727D01*
X85527950Y-55102036D01*
X85527954Y-55102040D01*
X85706351Y-55240893D01*
X85734165Y-55255945D01*
X85783755Y-55305165D01*
X85798863Y-55373382D01*
X85774692Y-55438937D01*
X85734165Y-55474055D01*
X85706352Y-55489106D01*
X85527955Y-55627959D01*
X85527950Y-55627963D01*
X85374850Y-55794272D01*
X85374842Y-55794283D01*
X85251198Y-55983533D01*
X85160388Y-56190560D01*
X85104892Y-56409710D01*
X85086225Y-56634993D01*
X85086225Y-56635006D01*
X85104892Y-56860289D01*
X85160388Y-57079439D01*
X85251198Y-57286466D01*
X85374842Y-57475716D01*
X85374850Y-57475727D01*
X85527950Y-57642036D01*
X85527954Y-57642040D01*
X85706351Y-57780893D01*
X85734165Y-57795945D01*
X85783755Y-57845165D01*
X85798863Y-57913382D01*
X85774692Y-57978937D01*
X85734165Y-58014055D01*
X85706352Y-58029106D01*
X85527955Y-58167959D01*
X85527950Y-58167963D01*
X85374850Y-58334272D01*
X85374842Y-58334283D01*
X85251198Y-58523533D01*
X85160388Y-58730560D01*
X85104892Y-58949710D01*
X85086225Y-59174993D01*
X85086225Y-59175006D01*
X85104892Y-59400289D01*
X85160388Y-59619439D01*
X85251198Y-59826466D01*
X85374842Y-60015716D01*
X85374850Y-60015727D01*
X85521471Y-60174998D01*
X85527954Y-60182040D01*
X85706351Y-60320893D01*
X85734165Y-60335945D01*
X85783755Y-60385165D01*
X85798863Y-60453382D01*
X85774692Y-60518937D01*
X85734165Y-60554055D01*
X85706352Y-60569106D01*
X85527955Y-60707959D01*
X85527950Y-60707963D01*
X85374850Y-60874272D01*
X85374842Y-60874283D01*
X85251198Y-61063533D01*
X85160388Y-61270560D01*
X85104892Y-61489710D01*
X85086225Y-61714993D01*
X85086225Y-61715006D01*
X85104892Y-61940289D01*
X85160388Y-62159439D01*
X85251198Y-62366466D01*
X85374842Y-62555716D01*
X85374850Y-62555727D01*
X85527950Y-62722036D01*
X85527954Y-62722040D01*
X85706351Y-62860893D01*
X85734165Y-62875945D01*
X85783755Y-62925165D01*
X85798863Y-62993382D01*
X85774692Y-63058937D01*
X85734165Y-63094055D01*
X85706352Y-63109106D01*
X85527955Y-63247959D01*
X85527950Y-63247963D01*
X85374850Y-63414272D01*
X85374842Y-63414283D01*
X85251198Y-63603533D01*
X85160388Y-63810560D01*
X85104892Y-64029710D01*
X85086225Y-64254993D01*
X85086225Y-64255006D01*
X85104892Y-64480289D01*
X85160388Y-64699439D01*
X85251198Y-64906466D01*
X85374842Y-65095716D01*
X85374850Y-65095727D01*
X85521933Y-65255500D01*
X85527954Y-65262040D01*
X85706351Y-65400893D01*
X85734165Y-65415945D01*
X85783755Y-65465165D01*
X85798863Y-65533382D01*
X85774692Y-65598937D01*
X85734165Y-65634055D01*
X85706352Y-65649106D01*
X85527955Y-65787959D01*
X85527950Y-65787963D01*
X85374850Y-65954272D01*
X85374842Y-65954283D01*
X85251198Y-66143533D01*
X85160388Y-66350560D01*
X85104892Y-66569710D01*
X85086225Y-66794993D01*
X85086225Y-66795006D01*
X85104892Y-67020289D01*
X85160388Y-67239439D01*
X85251198Y-67446466D01*
X85374842Y-67635716D01*
X85374850Y-67635727D01*
X85527950Y-67802036D01*
X85527954Y-67802040D01*
X85706351Y-67940893D01*
X85734165Y-67955945D01*
X85783755Y-68005165D01*
X85798863Y-68073382D01*
X85774692Y-68138937D01*
X85734165Y-68174055D01*
X85706352Y-68189106D01*
X85527955Y-68327959D01*
X85527950Y-68327963D01*
X85374850Y-68494272D01*
X85374842Y-68494283D01*
X85251198Y-68683533D01*
X85160388Y-68890560D01*
X85104892Y-69109710D01*
X85086225Y-69334993D01*
X85086225Y-69335006D01*
X85104892Y-69560289D01*
X85160388Y-69779439D01*
X85251198Y-69986466D01*
X85374842Y-70175716D01*
X85374850Y-70175727D01*
X85527950Y-70342036D01*
X85527954Y-70342040D01*
X85706351Y-70480893D01*
X85734165Y-70495945D01*
X85783755Y-70545165D01*
X85798863Y-70613382D01*
X85774692Y-70678937D01*
X85734165Y-70714055D01*
X85706352Y-70729106D01*
X85527955Y-70867959D01*
X85527950Y-70867963D01*
X85374850Y-71034272D01*
X85374842Y-71034283D01*
X85251198Y-71223533D01*
X85160388Y-71430560D01*
X85104892Y-71649710D01*
X85086225Y-71874993D01*
X85086225Y-71875006D01*
X85104892Y-72100289D01*
X85160388Y-72319439D01*
X85251198Y-72526466D01*
X85374842Y-72715716D01*
X85374850Y-72715727D01*
X85514855Y-72867811D01*
X85527954Y-72882040D01*
X85706351Y-73020893D01*
X85734165Y-73035945D01*
X85783755Y-73085165D01*
X85798863Y-73153382D01*
X85774692Y-73218937D01*
X85734165Y-73254055D01*
X85706352Y-73269106D01*
X85527955Y-73407959D01*
X85527950Y-73407963D01*
X85374850Y-73574272D01*
X85374842Y-73574283D01*
X85251198Y-73763533D01*
X85160388Y-73970560D01*
X85104892Y-74189710D01*
X85086225Y-74414993D01*
X85086225Y-74415006D01*
X85104892Y-74640289D01*
X85160388Y-74859439D01*
X85251198Y-75066466D01*
X85374842Y-75255716D01*
X85374850Y-75255727D01*
X85527950Y-75422036D01*
X85527954Y-75422040D01*
X85706351Y-75560893D01*
X85905169Y-75668488D01*
X85951479Y-75684386D01*
X86008491Y-75724769D01*
X86034622Y-75789569D01*
X86021572Y-75858209D01*
X85973484Y-75908897D01*
X85967510Y-75912150D01*
X85852004Y-75971004D01*
X85705505Y-76077441D01*
X85705500Y-76077445D01*
X85577445Y-76205500D01*
X85577441Y-76205505D01*
X85471006Y-76352002D01*
X85388788Y-76513360D01*
X85388787Y-76513363D01*
X85332829Y-76685589D01*
X85304500Y-76864448D01*
X85304500Y-77045551D01*
X85332829Y-77224410D01*
X85388787Y-77396636D01*
X85388788Y-77396639D01*
X85471006Y-77557997D01*
X85577441Y-77704494D01*
X85577445Y-77704499D01*
X85705500Y-77832554D01*
X85705505Y-77832558D01*
X85833287Y-77925396D01*
X85852006Y-77938996D01*
X85922766Y-77975050D01*
X86013360Y-78021211D01*
X86013363Y-78021212D01*
X86099476Y-78049191D01*
X86185591Y-78077171D01*
X86268429Y-78090291D01*
X86364449Y-78105500D01*
X86364454Y-78105500D01*
X86545551Y-78105500D01*
X86632259Y-78091765D01*
X86724409Y-78077171D01*
X86896639Y-78021211D01*
X87057994Y-77938996D01*
X87204501Y-77832553D01*
X87332553Y-77704501D01*
X87438996Y-77557994D01*
X87521211Y-77396639D01*
X87577171Y-77224409D01*
X87591765Y-77132259D01*
X87605500Y-77045551D01*
X87605500Y-76864448D01*
X87589019Y-76760397D01*
X87577171Y-76685591D01*
X87521211Y-76513361D01*
X87521211Y-76513360D01*
X87490345Y-76452783D01*
X87438996Y-76352006D01*
X87345937Y-76223920D01*
X87332558Y-76205505D01*
X87332554Y-76205500D01*
X87204499Y-76077445D01*
X87204494Y-76077441D01*
X87057993Y-75971003D01*
X87057992Y-75971002D01*
X86942490Y-75912150D01*
X86891694Y-75864176D01*
X86874899Y-75796355D01*
X86897437Y-75730220D01*
X86952152Y-75686769D01*
X86958488Y-75684397D01*
X87004831Y-75668488D01*
X87203649Y-75560893D01*
X87382046Y-75422040D01*
X87535156Y-75255719D01*
X87658802Y-75066465D01*
X87749611Y-74859441D01*
X87805107Y-74640293D01*
X87821465Y-74442883D01*
X87823775Y-74415006D01*
X87823775Y-74414993D01*
X87805107Y-74189710D01*
X87805107Y-74189707D01*
X87778590Y-74084995D01*
X94424451Y-74084995D01*
X94424451Y-74085004D01*
X94444616Y-74354101D01*
X94504664Y-74617188D01*
X94504666Y-74617195D01*
X94599741Y-74859441D01*
X94603257Y-74868398D01*
X94738185Y-75102102D01*
X94816655Y-75200500D01*
X94906442Y-75313089D01*
X95093183Y-75486358D01*
X95104259Y-75496635D01*
X95327226Y-75648651D01*
X95570359Y-75765738D01*
X95828228Y-75845280D01*
X95828229Y-75845280D01*
X95828232Y-75845281D01*
X96095063Y-75885499D01*
X96095068Y-75885499D01*
X96095071Y-75885500D01*
X96095072Y-75885500D01*
X96364928Y-75885500D01*
X96364929Y-75885500D01*
X96364936Y-75885499D01*
X96631767Y-75845281D01*
X96631768Y-75845280D01*
X96631772Y-75845280D01*
X96889641Y-75765738D01*
X97132775Y-75648651D01*
X97355741Y-75496635D01*
X97553561Y-75313085D01*
X97721815Y-75102102D01*
X97856743Y-74868398D01*
X97955334Y-74617195D01*
X98015383Y-74354103D01*
X98027702Y-74189710D01*
X98035549Y-74085004D01*
X98035549Y-74084995D01*
X98015383Y-73815898D01*
X98015030Y-73814351D01*
X97955334Y-73552805D01*
X97856743Y-73301602D01*
X97721815Y-73067898D01*
X97553561Y-72856915D01*
X97553560Y-72856914D01*
X97553557Y-72856910D01*
X97355741Y-72673365D01*
X97132775Y-72521349D01*
X97132769Y-72521346D01*
X97132768Y-72521345D01*
X97132767Y-72521344D01*
X96889643Y-72404263D01*
X96889645Y-72404263D01*
X96631773Y-72324720D01*
X96631767Y-72324718D01*
X96364936Y-72284500D01*
X96364929Y-72284500D01*
X96095071Y-72284500D01*
X96095063Y-72284500D01*
X95828232Y-72324718D01*
X95828226Y-72324720D01*
X95570358Y-72404262D01*
X95327230Y-72521346D01*
X95104258Y-72673365D01*
X94906442Y-72856910D01*
X94738185Y-73067898D01*
X94603258Y-73301599D01*
X94603256Y-73301603D01*
X94504666Y-73552804D01*
X94504664Y-73552811D01*
X94444616Y-73815898D01*
X94424451Y-74084995D01*
X87778590Y-74084995D01*
X87749611Y-73970559D01*
X87658802Y-73763535D01*
X87535156Y-73574281D01*
X87535153Y-73574278D01*
X87535149Y-73574272D01*
X87382049Y-73407963D01*
X87382048Y-73407962D01*
X87382046Y-73407960D01*
X87203649Y-73269107D01*
X87203647Y-73269106D01*
X87203646Y-73269105D01*
X87203639Y-73269100D01*
X87175836Y-73254055D01*
X87126244Y-73204837D01*
X87111135Y-73136620D01*
X87135306Y-73071064D01*
X87175836Y-73035945D01*
X87203639Y-73020899D01*
X87203642Y-73020896D01*
X87203649Y-73020893D01*
X87382046Y-72882040D01*
X87535156Y-72715719D01*
X87658802Y-72526465D01*
X87749611Y-72319441D01*
X87805107Y-72100293D01*
X87814029Y-71992620D01*
X87823775Y-71875006D01*
X87823775Y-71874993D01*
X87805107Y-71649710D01*
X87805107Y-71649707D01*
X87749611Y-71430559D01*
X87658802Y-71223535D01*
X87657806Y-71222011D01*
X87535157Y-71034283D01*
X87535149Y-71034272D01*
X87382049Y-70867963D01*
X87382048Y-70867962D01*
X87382046Y-70867960D01*
X87203649Y-70729107D01*
X87203647Y-70729106D01*
X87203646Y-70729105D01*
X87203639Y-70729100D01*
X87175836Y-70714055D01*
X87126244Y-70664837D01*
X87111135Y-70596620D01*
X87135306Y-70531064D01*
X87175836Y-70495945D01*
X87203639Y-70480899D01*
X87203642Y-70480896D01*
X87203649Y-70480893D01*
X87382046Y-70342040D01*
X87535156Y-70175719D01*
X87658802Y-69986465D01*
X87749611Y-69779441D01*
X87805107Y-69560293D01*
X87823775Y-69335000D01*
X87823775Y-69334993D01*
X87805107Y-69109710D01*
X87805107Y-69109707D01*
X87778590Y-69004995D01*
X94424451Y-69004995D01*
X94424451Y-69005004D01*
X94444616Y-69274101D01*
X94504664Y-69537188D01*
X94504666Y-69537195D01*
X94599741Y-69779441D01*
X94603257Y-69788398D01*
X94738185Y-70022102D01*
X94819552Y-70124132D01*
X94906442Y-70233089D01*
X95093183Y-70406358D01*
X95104259Y-70416635D01*
X95327226Y-70568651D01*
X95570359Y-70685738D01*
X95828228Y-70765280D01*
X95828229Y-70765280D01*
X95828232Y-70765281D01*
X96095063Y-70805499D01*
X96095068Y-70805499D01*
X96095071Y-70805500D01*
X96095072Y-70805500D01*
X96364928Y-70805500D01*
X96364929Y-70805500D01*
X96364936Y-70805499D01*
X96631767Y-70765281D01*
X96631768Y-70765280D01*
X96631772Y-70765280D01*
X96889641Y-70685738D01*
X97132775Y-70568651D01*
X97355741Y-70416635D01*
X97553561Y-70233085D01*
X97721815Y-70022102D01*
X97856743Y-69788398D01*
X97955334Y-69537195D01*
X98015383Y-69274103D01*
X98027702Y-69109710D01*
X98035549Y-69005004D01*
X98035549Y-69004995D01*
X98015383Y-68735898D01*
X98015383Y-68735897D01*
X97955334Y-68472805D01*
X97856743Y-68221602D01*
X97721815Y-67987898D01*
X97553561Y-67776915D01*
X97553560Y-67776914D01*
X97553557Y-67776910D01*
X97355741Y-67593365D01*
X97132775Y-67441349D01*
X97132769Y-67441346D01*
X97132768Y-67441345D01*
X97132767Y-67441344D01*
X96889643Y-67324263D01*
X96889645Y-67324263D01*
X96631773Y-67244720D01*
X96631767Y-67244718D01*
X96364936Y-67204500D01*
X96364929Y-67204500D01*
X96095071Y-67204500D01*
X96095063Y-67204500D01*
X95828232Y-67244718D01*
X95828226Y-67244720D01*
X95570358Y-67324262D01*
X95327230Y-67441346D01*
X95104258Y-67593365D01*
X94906442Y-67776910D01*
X94738185Y-67987898D01*
X94603258Y-68221599D01*
X94603256Y-68221603D01*
X94504666Y-68472804D01*
X94504664Y-68472811D01*
X94444616Y-68735898D01*
X94424451Y-69004995D01*
X87778590Y-69004995D01*
X87749611Y-68890559D01*
X87658802Y-68683535D01*
X87535156Y-68494281D01*
X87535153Y-68494278D01*
X87535149Y-68494272D01*
X87382049Y-68327963D01*
X87382048Y-68327962D01*
X87382046Y-68327960D01*
X87203649Y-68189107D01*
X87203647Y-68189106D01*
X87203646Y-68189105D01*
X87203639Y-68189100D01*
X87175836Y-68174055D01*
X87126244Y-68124837D01*
X87111135Y-68056620D01*
X87135306Y-67991064D01*
X87175836Y-67955945D01*
X87203639Y-67940899D01*
X87203642Y-67940896D01*
X87203649Y-67940893D01*
X87382046Y-67802040D01*
X87535156Y-67635719D01*
X87658802Y-67446465D01*
X87749611Y-67239441D01*
X87805107Y-67020293D01*
X87812574Y-66930175D01*
X87823775Y-66795006D01*
X87823775Y-66794993D01*
X87810707Y-66637294D01*
X87805107Y-66569707D01*
X87749611Y-66350559D01*
X87658802Y-66143535D01*
X87535156Y-65954281D01*
X87535153Y-65954278D01*
X87535149Y-65954272D01*
X87382049Y-65787963D01*
X87382048Y-65787962D01*
X87382046Y-65787960D01*
X87203649Y-65649107D01*
X87203647Y-65649106D01*
X87203646Y-65649105D01*
X87203639Y-65649100D01*
X87175836Y-65634055D01*
X87126244Y-65584837D01*
X87111135Y-65516620D01*
X87135306Y-65451064D01*
X87175836Y-65415945D01*
X87203639Y-65400899D01*
X87203642Y-65400896D01*
X87203649Y-65400893D01*
X87382046Y-65262040D01*
X87535156Y-65095719D01*
X87658802Y-64906465D01*
X87749611Y-64699441D01*
X87805107Y-64480293D01*
X87820470Y-64294888D01*
X87823775Y-64255006D01*
X87823775Y-64254993D01*
X87805107Y-64029710D01*
X87805107Y-64029707D01*
X87778590Y-63924995D01*
X94424451Y-63924995D01*
X94424451Y-63925004D01*
X94444616Y-64194101D01*
X94504664Y-64457188D01*
X94504666Y-64457195D01*
X94603256Y-64708396D01*
X94603258Y-64708400D01*
X94606998Y-64714878D01*
X94738185Y-64942102D01*
X94860689Y-65095716D01*
X94906442Y-65153089D01*
X95093183Y-65326358D01*
X95104259Y-65336635D01*
X95327226Y-65488651D01*
X95570359Y-65605738D01*
X95828228Y-65685280D01*
X95828229Y-65685280D01*
X95828232Y-65685281D01*
X96095063Y-65725499D01*
X96095068Y-65725499D01*
X96095071Y-65725500D01*
X96095072Y-65725500D01*
X96364928Y-65725500D01*
X96364929Y-65725500D01*
X96364936Y-65725499D01*
X96631767Y-65685281D01*
X96631768Y-65685280D01*
X96631772Y-65685280D01*
X96889641Y-65605738D01*
X97132775Y-65488651D01*
X97355741Y-65336635D01*
X97553561Y-65153085D01*
X97721815Y-64942102D01*
X97856743Y-64708398D01*
X97955334Y-64457195D01*
X98015383Y-64194103D01*
X98022913Y-64093616D01*
X98035549Y-63925004D01*
X98035549Y-63924995D01*
X98015492Y-63657352D01*
X98015383Y-63655897D01*
X97955334Y-63392805D01*
X97856743Y-63141602D01*
X97721815Y-62907898D01*
X97553561Y-62696915D01*
X97553560Y-62696914D01*
X97553557Y-62696910D01*
X97355741Y-62513365D01*
X97132775Y-62361349D01*
X97132769Y-62361346D01*
X97132768Y-62361345D01*
X97132767Y-62361344D01*
X96889643Y-62244263D01*
X96889645Y-62244263D01*
X96631773Y-62164720D01*
X96631767Y-62164718D01*
X96364936Y-62124500D01*
X96364929Y-62124500D01*
X96095071Y-62124500D01*
X96095063Y-62124500D01*
X95828232Y-62164718D01*
X95828226Y-62164720D01*
X95570358Y-62244262D01*
X95327230Y-62361346D01*
X95104258Y-62513365D01*
X94906442Y-62696910D01*
X94738185Y-62907898D01*
X94603258Y-63141599D01*
X94603256Y-63141603D01*
X94504666Y-63392804D01*
X94504664Y-63392811D01*
X94444616Y-63655898D01*
X94424451Y-63924995D01*
X87778590Y-63924995D01*
X87749611Y-63810559D01*
X87658802Y-63603535D01*
X87627092Y-63555000D01*
X87535157Y-63414283D01*
X87535149Y-63414272D01*
X87382049Y-63247963D01*
X87382048Y-63247962D01*
X87382046Y-63247960D01*
X87203649Y-63109107D01*
X87203647Y-63109106D01*
X87203646Y-63109105D01*
X87203639Y-63109100D01*
X87175836Y-63094055D01*
X87126244Y-63044837D01*
X87111135Y-62976620D01*
X87135306Y-62911064D01*
X87175836Y-62875945D01*
X87203639Y-62860899D01*
X87203642Y-62860896D01*
X87203649Y-62860893D01*
X87382046Y-62722040D01*
X87535156Y-62555719D01*
X87658802Y-62366465D01*
X87749611Y-62159441D01*
X87805107Y-61940293D01*
X87823775Y-61715000D01*
X87823775Y-61714993D01*
X87805107Y-61489710D01*
X87805107Y-61489707D01*
X87749611Y-61270559D01*
X87658802Y-61063535D01*
X87535156Y-60874281D01*
X87535153Y-60874278D01*
X87535149Y-60874272D01*
X87382049Y-60707963D01*
X87382048Y-60707962D01*
X87382046Y-60707960D01*
X87203649Y-60569107D01*
X87203647Y-60569106D01*
X87203646Y-60569105D01*
X87203639Y-60569100D01*
X87175836Y-60554055D01*
X87126244Y-60504837D01*
X87111135Y-60436620D01*
X87135306Y-60371064D01*
X87175836Y-60335945D01*
X87203639Y-60320899D01*
X87203642Y-60320896D01*
X87203649Y-60320893D01*
X87382046Y-60182040D01*
X87482347Y-60073085D01*
X87535149Y-60015727D01*
X87535150Y-60015725D01*
X87535156Y-60015719D01*
X87658802Y-59826465D01*
X87749611Y-59619441D01*
X87805107Y-59400293D01*
X87823775Y-59175000D01*
X87823775Y-59174993D01*
X87805107Y-58949710D01*
X87805107Y-58949707D01*
X87778590Y-58844995D01*
X94424451Y-58844995D01*
X94424451Y-58845004D01*
X94444616Y-59114101D01*
X94504664Y-59377188D01*
X94504666Y-59377195D01*
X94599741Y-59619441D01*
X94603257Y-59628398D01*
X94738185Y-59862102D01*
X94860689Y-60015716D01*
X94906442Y-60073089D01*
X95093183Y-60246358D01*
X95104259Y-60256635D01*
X95327226Y-60408651D01*
X95570359Y-60525738D01*
X95828228Y-60605280D01*
X95828229Y-60605280D01*
X95828232Y-60605281D01*
X96095063Y-60645499D01*
X96095068Y-60645499D01*
X96095071Y-60645500D01*
X96095072Y-60645500D01*
X96364928Y-60645500D01*
X96364929Y-60645500D01*
X96364936Y-60645499D01*
X96631767Y-60605281D01*
X96631768Y-60605280D01*
X96631772Y-60605280D01*
X96889641Y-60525738D01*
X97132775Y-60408651D01*
X97355741Y-60256635D01*
X97529942Y-60095000D01*
X97553557Y-60073089D01*
X97553557Y-60073087D01*
X97553561Y-60073085D01*
X97721815Y-59862102D01*
X97856743Y-59628398D01*
X97955334Y-59377195D01*
X98015383Y-59114103D01*
X98026229Y-58969365D01*
X98035549Y-58845004D01*
X98035549Y-58844995D01*
X98015383Y-58575898D01*
X98015383Y-58575897D01*
X97955334Y-58312805D01*
X97856743Y-58061602D01*
X97721815Y-57827898D01*
X97553561Y-57616915D01*
X97553560Y-57616914D01*
X97553557Y-57616910D01*
X97355741Y-57433365D01*
X97132775Y-57281349D01*
X97132769Y-57281346D01*
X97132768Y-57281345D01*
X97132767Y-57281344D01*
X96889643Y-57164263D01*
X96889645Y-57164263D01*
X96631773Y-57084720D01*
X96631767Y-57084718D01*
X96364936Y-57044500D01*
X96364929Y-57044500D01*
X96095071Y-57044500D01*
X96095063Y-57044500D01*
X95828232Y-57084718D01*
X95828226Y-57084720D01*
X95570358Y-57164262D01*
X95327230Y-57281346D01*
X95104258Y-57433365D01*
X94906442Y-57616910D01*
X94738185Y-57827898D01*
X94603258Y-58061599D01*
X94603256Y-58061603D01*
X94504666Y-58312804D01*
X94504664Y-58312811D01*
X94444616Y-58575898D01*
X94424451Y-58844995D01*
X87778590Y-58844995D01*
X87749611Y-58730559D01*
X87658802Y-58523535D01*
X87535156Y-58334281D01*
X87535153Y-58334278D01*
X87535149Y-58334272D01*
X87382049Y-58167963D01*
X87382048Y-58167962D01*
X87382046Y-58167960D01*
X87203649Y-58029107D01*
X87203647Y-58029106D01*
X87203646Y-58029105D01*
X87203639Y-58029100D01*
X87175836Y-58014055D01*
X87126244Y-57964837D01*
X87111135Y-57896620D01*
X87135306Y-57831064D01*
X87175836Y-57795945D01*
X87203639Y-57780899D01*
X87203642Y-57780896D01*
X87203649Y-57780893D01*
X87382046Y-57642040D01*
X87535156Y-57475719D01*
X87658802Y-57286465D01*
X87749611Y-57079441D01*
X87805107Y-56860293D01*
X87812574Y-56770175D01*
X87823775Y-56635006D01*
X87823775Y-56634993D01*
X87810707Y-56477294D01*
X87805107Y-56409707D01*
X87749611Y-56190559D01*
X87658802Y-55983535D01*
X87535156Y-55794281D01*
X87535153Y-55794278D01*
X87535149Y-55794272D01*
X87382049Y-55627963D01*
X87382048Y-55627962D01*
X87382046Y-55627960D01*
X87203649Y-55489107D01*
X87203647Y-55489106D01*
X87203646Y-55489105D01*
X87203639Y-55489100D01*
X87175836Y-55474055D01*
X87126244Y-55424837D01*
X87111135Y-55356620D01*
X87135306Y-55291064D01*
X87175836Y-55255945D01*
X87203639Y-55240899D01*
X87203642Y-55240896D01*
X87203649Y-55240893D01*
X87382046Y-55102040D01*
X87505226Y-54968232D01*
X87535149Y-54935727D01*
X87535150Y-54935725D01*
X87535156Y-54935719D01*
X87658802Y-54746465D01*
X87749611Y-54539441D01*
X87805107Y-54320293D01*
X87823775Y-54095000D01*
X87823775Y-54094993D01*
X87810707Y-53937294D01*
X87805107Y-53869707D01*
X87778590Y-53764995D01*
X94424451Y-53764995D01*
X94424451Y-53765004D01*
X94444616Y-54034101D01*
X94504664Y-54297188D01*
X94504666Y-54297195D01*
X94599741Y-54539441D01*
X94603257Y-54548398D01*
X94738185Y-54782102D01*
X94748374Y-54794878D01*
X94906442Y-54993089D01*
X95093183Y-55166358D01*
X95104259Y-55176635D01*
X95327226Y-55328651D01*
X95570359Y-55445738D01*
X95828228Y-55525280D01*
X95828229Y-55525280D01*
X95828232Y-55525281D01*
X96095063Y-55565499D01*
X96095068Y-55565499D01*
X96095071Y-55565500D01*
X96095072Y-55565500D01*
X96364928Y-55565500D01*
X96364929Y-55565500D01*
X96364936Y-55565499D01*
X96631767Y-55525281D01*
X96631768Y-55525280D01*
X96631772Y-55525280D01*
X96889641Y-55445738D01*
X97132775Y-55328651D01*
X97355741Y-55176635D01*
X97553561Y-54993085D01*
X97721815Y-54782102D01*
X97856743Y-54548398D01*
X97955334Y-54297195D01*
X98015383Y-54034103D01*
X98027702Y-53869710D01*
X98035549Y-53765004D01*
X98035549Y-53764995D01*
X98015383Y-53495898D01*
X98015383Y-53495897D01*
X97955334Y-53232805D01*
X97856743Y-52981602D01*
X97721815Y-52747898D01*
X97553561Y-52536915D01*
X97553560Y-52536914D01*
X97553557Y-52536910D01*
X97355741Y-52353365D01*
X97132775Y-52201349D01*
X97132769Y-52201346D01*
X97132768Y-52201345D01*
X97132767Y-52201344D01*
X96889643Y-52084263D01*
X96889645Y-52084263D01*
X96631773Y-52004720D01*
X96631767Y-52004718D01*
X96364936Y-51964500D01*
X96364929Y-51964500D01*
X96095071Y-51964500D01*
X96095063Y-51964500D01*
X95828232Y-52004718D01*
X95828226Y-52004720D01*
X95570358Y-52084262D01*
X95327230Y-52201346D01*
X95104258Y-52353365D01*
X94906442Y-52536910D01*
X94738185Y-52747898D01*
X94603258Y-52981599D01*
X94603256Y-52981603D01*
X94504666Y-53232804D01*
X94504664Y-53232811D01*
X94444616Y-53495898D01*
X94424451Y-53764995D01*
X87778590Y-53764995D01*
X87749611Y-53650559D01*
X87658802Y-53443535D01*
X87535156Y-53254281D01*
X87535153Y-53254278D01*
X87535149Y-53254272D01*
X87382049Y-53087963D01*
X87382048Y-53087962D01*
X87382046Y-53087960D01*
X87203649Y-52949107D01*
X87203647Y-52949106D01*
X87203646Y-52949105D01*
X87203639Y-52949100D01*
X87175836Y-52934055D01*
X87126244Y-52884837D01*
X87111135Y-52816620D01*
X87135306Y-52751064D01*
X87175836Y-52715945D01*
X87203639Y-52700899D01*
X87203642Y-52700896D01*
X87203649Y-52700893D01*
X87382046Y-52562040D01*
X87535156Y-52395719D01*
X87658802Y-52206465D01*
X87749611Y-51999441D01*
X87805107Y-51780293D01*
X87823775Y-51555000D01*
X87823775Y-51554993D01*
X87809327Y-51380633D01*
X87805107Y-51329707D01*
X87749611Y-51110559D01*
X87658802Y-50903535D01*
X87535156Y-50714281D01*
X87535153Y-50714278D01*
X87535149Y-50714272D01*
X87382049Y-50547963D01*
X87382048Y-50547962D01*
X87382046Y-50547960D01*
X87203649Y-50409107D01*
X87203647Y-50409106D01*
X87203646Y-50409105D01*
X87203639Y-50409100D01*
X87175836Y-50394055D01*
X87126244Y-50344837D01*
X87111135Y-50276620D01*
X87135306Y-50211064D01*
X87175836Y-50175945D01*
X87203639Y-50160899D01*
X87203642Y-50160896D01*
X87203649Y-50160893D01*
X87382046Y-50022040D01*
X87482347Y-49913085D01*
X87535149Y-49855727D01*
X87535150Y-49855725D01*
X87535156Y-49855719D01*
X87658802Y-49666465D01*
X87749611Y-49459441D01*
X87805107Y-49240293D01*
X87823775Y-49015000D01*
X87823775Y-49014993D01*
X87805172Y-48790495D01*
X87805107Y-48789707D01*
X87778590Y-48684995D01*
X94424451Y-48684995D01*
X94424451Y-48685004D01*
X94444616Y-48954101D01*
X94504664Y-49217188D01*
X94504666Y-49217195D01*
X94599741Y-49459441D01*
X94603257Y-49468398D01*
X94738185Y-49702102D01*
X94808710Y-49790537D01*
X94906442Y-49913089D01*
X95093183Y-50086358D01*
X95104259Y-50096635D01*
X95327226Y-50248651D01*
X95570359Y-50365738D01*
X95828228Y-50445280D01*
X95828229Y-50445280D01*
X95828232Y-50445281D01*
X96095063Y-50485499D01*
X96095068Y-50485499D01*
X96095071Y-50485500D01*
X96095072Y-50485500D01*
X96364928Y-50485500D01*
X96364929Y-50485500D01*
X96364936Y-50485499D01*
X96631767Y-50445281D01*
X96631768Y-50445280D01*
X96631772Y-50445280D01*
X96889641Y-50365738D01*
X97132775Y-50248651D01*
X97355741Y-50096635D01*
X97553561Y-49913085D01*
X97721815Y-49702102D01*
X97856743Y-49468398D01*
X97955334Y-49217195D01*
X98015383Y-48954103D01*
X98026229Y-48809365D01*
X98035549Y-48685004D01*
X98035549Y-48684995D01*
X98015383Y-48415898D01*
X98015383Y-48415897D01*
X97955334Y-48152805D01*
X97856743Y-47901602D01*
X97721815Y-47667898D01*
X97553561Y-47456915D01*
X97553560Y-47456914D01*
X97553557Y-47456910D01*
X97355741Y-47273365D01*
X97132775Y-47121349D01*
X97132769Y-47121346D01*
X97132768Y-47121345D01*
X97132767Y-47121344D01*
X96889643Y-47004263D01*
X96889645Y-47004263D01*
X96631773Y-46924720D01*
X96631767Y-46924718D01*
X96364936Y-46884500D01*
X96364929Y-46884500D01*
X96095071Y-46884500D01*
X96095063Y-46884500D01*
X95828232Y-46924718D01*
X95828226Y-46924720D01*
X95570358Y-47004262D01*
X95327230Y-47121346D01*
X95104258Y-47273365D01*
X94906442Y-47456910D01*
X94738185Y-47667898D01*
X94603258Y-47901599D01*
X94603256Y-47901603D01*
X94504666Y-48152804D01*
X94504664Y-48152811D01*
X94444616Y-48415898D01*
X94424451Y-48684995D01*
X87778590Y-48684995D01*
X87749611Y-48570559D01*
X87658802Y-48363535D01*
X87535156Y-48174281D01*
X87535153Y-48174278D01*
X87535149Y-48174272D01*
X87382049Y-48007963D01*
X87382048Y-48007962D01*
X87382046Y-48007960D01*
X87203649Y-47869107D01*
X87203647Y-47869106D01*
X87203646Y-47869105D01*
X87203639Y-47869100D01*
X87175836Y-47854055D01*
X87126244Y-47804837D01*
X87111135Y-47736620D01*
X87135306Y-47671064D01*
X87175836Y-47635945D01*
X87203639Y-47620899D01*
X87203642Y-47620896D01*
X87203649Y-47620893D01*
X87382046Y-47482040D01*
X87535156Y-47315719D01*
X87658802Y-47126465D01*
X87749611Y-46919441D01*
X87805107Y-46700293D01*
X87812574Y-46610175D01*
X87823775Y-46475006D01*
X87823775Y-46474993D01*
X87810707Y-46317294D01*
X87805107Y-46249707D01*
X87749611Y-46030559D01*
X87658802Y-45823535D01*
X87535156Y-45634281D01*
X87535153Y-45634278D01*
X87535149Y-45634272D01*
X87382045Y-45467959D01*
X87281637Y-45389808D01*
X87203649Y-45329107D01*
X87203647Y-45329106D01*
X87203646Y-45329105D01*
X87203639Y-45329100D01*
X87175836Y-45314055D01*
X87126244Y-45264837D01*
X87111135Y-45196620D01*
X87135306Y-45131064D01*
X87175836Y-45095945D01*
X87203639Y-45080899D01*
X87203642Y-45080896D01*
X87203649Y-45080893D01*
X87382046Y-44942040D01*
X87535156Y-44775719D01*
X87658802Y-44586465D01*
X87749611Y-44379441D01*
X87805107Y-44160293D01*
X87823775Y-43935000D01*
X87823775Y-43934993D01*
X87805107Y-43709710D01*
X87805107Y-43709707D01*
X87778590Y-43604995D01*
X94424451Y-43604995D01*
X94424451Y-43605004D01*
X94444616Y-43874101D01*
X94504664Y-44137188D01*
X94504666Y-44137195D01*
X94599741Y-44379441D01*
X94603257Y-44388398D01*
X94738185Y-44622102D01*
X94850538Y-44762988D01*
X94906442Y-44833089D01*
X95031938Y-44949531D01*
X95104259Y-45016635D01*
X95327226Y-45168651D01*
X95570359Y-45285738D01*
X95828228Y-45365280D01*
X95828229Y-45365280D01*
X95828232Y-45365281D01*
X96095063Y-45405499D01*
X96095068Y-45405499D01*
X96095071Y-45405500D01*
X96095072Y-45405500D01*
X96364928Y-45405500D01*
X96364929Y-45405500D01*
X96364936Y-45405499D01*
X96631767Y-45365281D01*
X96631768Y-45365280D01*
X96631772Y-45365280D01*
X96889641Y-45285738D01*
X97132775Y-45168651D01*
X97355741Y-45016635D01*
X97553561Y-44833085D01*
X97721815Y-44622102D01*
X97856743Y-44388398D01*
X97955334Y-44137195D01*
X98015383Y-43874103D01*
X98027702Y-43709710D01*
X98035549Y-43605004D01*
X98035549Y-43604995D01*
X98015383Y-43335898D01*
X98014980Y-43334132D01*
X97955334Y-43072805D01*
X97856743Y-42821602D01*
X97721815Y-42587898D01*
X97553561Y-42376915D01*
X97553560Y-42376914D01*
X97553557Y-42376910D01*
X97355741Y-42193365D01*
X97355349Y-42193098D01*
X97132775Y-42041349D01*
X97132769Y-42041346D01*
X97132768Y-42041345D01*
X97132767Y-42041344D01*
X96889643Y-41924263D01*
X96889645Y-41924263D01*
X96631773Y-41844720D01*
X96631767Y-41844718D01*
X96364936Y-41804500D01*
X96364929Y-41804500D01*
X96095071Y-41804500D01*
X96095063Y-41804500D01*
X95828232Y-41844718D01*
X95828226Y-41844720D01*
X95570358Y-41924262D01*
X95327230Y-42041346D01*
X95104258Y-42193365D01*
X94906442Y-42376910D01*
X94738185Y-42587898D01*
X94603258Y-42821599D01*
X94603256Y-42821603D01*
X94504666Y-43072804D01*
X94504664Y-43072811D01*
X94444616Y-43335898D01*
X94424451Y-43604995D01*
X87778590Y-43604995D01*
X87749611Y-43490559D01*
X87658802Y-43283535D01*
X87535156Y-43094281D01*
X87535153Y-43094278D01*
X87535149Y-43094272D01*
X87397755Y-42945024D01*
X87366832Y-42882370D01*
X87374692Y-42812944D01*
X87418839Y-42758788D01*
X87445652Y-42744859D01*
X87560684Y-42701955D01*
X87560693Y-42701950D01*
X87675787Y-42615790D01*
X87675790Y-42615787D01*
X87761950Y-42500693D01*
X87761954Y-42500686D01*
X87812196Y-42365979D01*
X87812198Y-42365972D01*
X87818599Y-42306444D01*
X87818600Y-42306427D01*
X87818600Y-41645000D01*
X86897251Y-41645000D01*
X86928381Y-41591081D01*
X86963000Y-41461880D01*
X86963000Y-41328120D01*
X86928381Y-41198919D01*
X86897251Y-41145000D01*
X87818600Y-41145000D01*
X87818600Y-40483572D01*
X87818599Y-40483555D01*
X87812198Y-40424027D01*
X87812196Y-40424020D01*
X87761954Y-40289313D01*
X87761950Y-40289306D01*
X87675790Y-40174212D01*
X87675787Y-40174209D01*
X87560693Y-40088049D01*
X87560686Y-40088045D01*
X87445651Y-40045140D01*
X87389717Y-40003269D01*
X87365300Y-39937804D01*
X87380152Y-39869531D01*
X87397749Y-39844981D01*
X87535156Y-39695719D01*
X87658802Y-39506465D01*
X87749611Y-39299441D01*
X87805107Y-39080293D01*
X87817555Y-38930063D01*
X87823775Y-38855006D01*
X87823775Y-38854993D01*
X87809882Y-38687331D01*
X87805107Y-38629707D01*
X87749611Y-38410559D01*
X87658802Y-38203535D01*
X87535156Y-38014281D01*
X87535153Y-38014278D01*
X87535149Y-38014272D01*
X87382049Y-37847963D01*
X87382048Y-37847962D01*
X87382046Y-37847960D01*
X87203649Y-37709107D01*
X87114434Y-37660826D01*
X87004832Y-37601512D01*
X87004826Y-37601510D01*
X86958522Y-37585614D01*
X86901507Y-37545229D01*
X86875376Y-37480429D01*
X86888427Y-37411789D01*
X86936516Y-37361101D01*
X86942472Y-37357857D01*
X87057994Y-37298996D01*
X87204501Y-37192553D01*
X87219919Y-37177135D01*
X94429500Y-37177135D01*
X94429500Y-39872870D01*
X94429501Y-39872876D01*
X94435908Y-39932483D01*
X94486202Y-40067328D01*
X94486206Y-40067335D01*
X94572452Y-40182544D01*
X94572455Y-40182547D01*
X94687664Y-40268793D01*
X94687671Y-40268797D01*
X94822517Y-40319091D01*
X94822516Y-40319091D01*
X94829444Y-40319835D01*
X94882127Y-40325500D01*
X97577872Y-40325499D01*
X97637483Y-40319091D01*
X97772331Y-40268796D01*
X97887546Y-40182546D01*
X97973796Y-40067331D01*
X98024091Y-39932483D01*
X98030500Y-39872873D01*
X98030499Y-37177128D01*
X98024091Y-37117517D01*
X98010179Y-37080218D01*
X97973797Y-36982671D01*
X97973793Y-36982664D01*
X97887547Y-36867455D01*
X97887544Y-36867452D01*
X97772335Y-36781206D01*
X97772328Y-36781202D01*
X97637482Y-36730908D01*
X97637483Y-36730908D01*
X97577883Y-36724501D01*
X97577881Y-36724500D01*
X97577873Y-36724500D01*
X97577864Y-36724500D01*
X94882129Y-36724500D01*
X94882123Y-36724501D01*
X94822516Y-36730908D01*
X94687671Y-36781202D01*
X94687664Y-36781206D01*
X94572455Y-36867452D01*
X94572452Y-36867455D01*
X94486206Y-36982664D01*
X94486202Y-36982671D01*
X94435908Y-37117517D01*
X94429675Y-37175500D01*
X94429501Y-37177123D01*
X94429500Y-37177135D01*
X87219919Y-37177135D01*
X87332553Y-37064501D01*
X87438996Y-36917994D01*
X87521211Y-36756639D01*
X87577171Y-36584409D01*
X87591765Y-36492259D01*
X87605500Y-36405551D01*
X87605500Y-36224448D01*
X87586240Y-36102853D01*
X87577171Y-36045591D01*
X87521211Y-35873361D01*
X87521211Y-35873360D01*
X87492740Y-35817484D01*
X87438996Y-35712006D01*
X87425396Y-35693287D01*
X87332558Y-35565505D01*
X87332554Y-35565500D01*
X87204499Y-35437445D01*
X87204494Y-35437441D01*
X87057997Y-35331006D01*
X87057996Y-35331005D01*
X87057994Y-35331004D01*
X87006300Y-35304664D01*
X86896639Y-35248788D01*
X86896636Y-35248787D01*
X86724410Y-35192829D01*
X86545551Y-35164500D01*
X86545546Y-35164500D01*
X86364454Y-35164500D01*
X86364449Y-35164500D01*
X86185589Y-35192829D01*
X86013363Y-35248787D01*
X86013360Y-35248788D01*
X85852002Y-35331006D01*
X85705505Y-35437441D01*
X85705500Y-35437445D01*
X85577445Y-35565500D01*
X85577441Y-35565505D01*
X85471006Y-35712002D01*
X85388788Y-35873360D01*
X85388787Y-35873363D01*
X85332829Y-36045589D01*
X85304500Y-36224448D01*
X85304500Y-36405551D01*
X85332829Y-36584410D01*
X85388787Y-36756636D01*
X85388788Y-36756639D01*
X85444664Y-36866300D01*
X85466724Y-36909595D01*
X85471006Y-36917997D01*
X85577441Y-37064494D01*
X85577445Y-37064499D01*
X85705500Y-37192554D01*
X85705505Y-37192558D01*
X85833287Y-37285396D01*
X85852006Y-37298996D01*
X85967509Y-37357848D01*
X86018305Y-37405823D01*
X86035100Y-37473644D01*
X86012562Y-37539779D01*
X85957847Y-37583230D01*
X85951478Y-37585614D01*
X85905169Y-37601512D01*
X85905167Y-37601512D01*
X85706352Y-37709106D01*
X85527955Y-37847959D01*
X85527950Y-37847963D01*
X85443700Y-37939483D01*
X85383813Y-37975474D01*
X85352471Y-37979500D01*
X83499006Y-37979500D01*
X83431967Y-37959815D01*
X83411325Y-37943181D01*
X78593102Y-33124957D01*
X78593098Y-33124954D01*
X78449711Y-33029145D01*
X78449698Y-33029138D01*
X78290378Y-32963146D01*
X78290366Y-32963143D01*
X78121232Y-32929500D01*
X78121229Y-32929500D01*
X74061230Y-32929500D01*
X73994191Y-32909815D01*
X73948436Y-32857011D01*
X73938492Y-32787853D01*
X73967517Y-32724297D01*
X73973549Y-32717819D01*
X74433028Y-32258340D01*
X76853303Y-29838062D01*
X76914624Y-29804579D01*
X76977531Y-29807253D01*
X77133228Y-29855280D01*
X77133229Y-29855280D01*
X77133232Y-29855281D01*
X77400063Y-29895499D01*
X77400068Y-29895499D01*
X77400071Y-29895500D01*
X77400072Y-29895500D01*
X77669928Y-29895500D01*
X77669929Y-29895500D01*
X77669936Y-29895499D01*
X77936767Y-29855281D01*
X77936768Y-29855280D01*
X77936772Y-29855280D01*
X78194641Y-29775738D01*
X78437775Y-29658651D01*
X78660741Y-29506635D01*
X78832403Y-29347356D01*
X78858557Y-29323089D01*
X78858557Y-29323087D01*
X78858561Y-29323085D01*
X79026815Y-29112102D01*
X79161743Y-28878398D01*
X79260334Y-28627195D01*
X79320383Y-28364103D01*
X79340549Y-28095000D01*
X79340549Y-28094995D01*
X80809451Y-28094995D01*
X80809451Y-28095004D01*
X80829616Y-28364101D01*
X80889664Y-28627188D01*
X80889666Y-28627195D01*
X80988257Y-28878398D01*
X81123185Y-29112102D01*
X81249733Y-29270788D01*
X81291442Y-29323089D01*
X81478183Y-29496358D01*
X81489259Y-29506635D01*
X81712226Y-29658651D01*
X81955359Y-29775738D01*
X82213228Y-29855280D01*
X82213229Y-29855280D01*
X82213232Y-29855281D01*
X82480063Y-29895499D01*
X82480068Y-29895499D01*
X82480071Y-29895500D01*
X82480072Y-29895500D01*
X82749928Y-29895500D01*
X82749929Y-29895500D01*
X82749936Y-29895499D01*
X83016767Y-29855281D01*
X83016768Y-29855280D01*
X83016772Y-29855280D01*
X83274641Y-29775738D01*
X83517775Y-29658651D01*
X83740741Y-29506635D01*
X83912403Y-29347356D01*
X83938557Y-29323089D01*
X83938557Y-29323087D01*
X83938561Y-29323085D01*
X84106815Y-29112102D01*
X84241743Y-28878398D01*
X84340334Y-28627195D01*
X84400383Y-28364103D01*
X84420549Y-28095000D01*
X84420549Y-28094995D01*
X85889451Y-28094995D01*
X85889451Y-28095004D01*
X85909616Y-28364101D01*
X85969664Y-28627188D01*
X85969666Y-28627195D01*
X86068257Y-28878398D01*
X86203185Y-29112102D01*
X86329733Y-29270788D01*
X86371442Y-29323089D01*
X86558183Y-29496358D01*
X86569259Y-29506635D01*
X86792226Y-29658651D01*
X87035359Y-29775738D01*
X87293228Y-29855280D01*
X87293229Y-29855280D01*
X87293232Y-29855281D01*
X87560063Y-29895499D01*
X87560068Y-29895499D01*
X87560071Y-29895500D01*
X87560072Y-29895500D01*
X87829928Y-29895500D01*
X87829929Y-29895500D01*
X87829936Y-29895499D01*
X88096767Y-29855281D01*
X88096768Y-29855280D01*
X88096772Y-29855280D01*
X88354641Y-29775738D01*
X88597775Y-29658651D01*
X88820741Y-29506635D01*
X88992403Y-29347356D01*
X89018557Y-29323089D01*
X89018557Y-29323087D01*
X89018561Y-29323085D01*
X89186815Y-29112102D01*
X89321743Y-28878398D01*
X89420334Y-28627195D01*
X89480383Y-28364103D01*
X89500549Y-28095000D01*
X89500549Y-28094995D01*
X90969451Y-28094995D01*
X90969451Y-28095004D01*
X90989616Y-28364101D01*
X91049664Y-28627188D01*
X91049666Y-28627195D01*
X91148257Y-28878398D01*
X91283185Y-29112102D01*
X91409733Y-29270788D01*
X91451442Y-29323089D01*
X91638183Y-29496358D01*
X91649259Y-29506635D01*
X91872226Y-29658651D01*
X92115359Y-29775738D01*
X92373228Y-29855280D01*
X92373229Y-29855280D01*
X92373232Y-29855281D01*
X92640063Y-29895499D01*
X92640068Y-29895499D01*
X92640071Y-29895500D01*
X92640072Y-29895500D01*
X92909928Y-29895500D01*
X92909929Y-29895500D01*
X92909936Y-29895499D01*
X93176767Y-29855281D01*
X93176768Y-29855280D01*
X93176772Y-29855280D01*
X93434641Y-29775738D01*
X93677775Y-29658651D01*
X93900741Y-29506635D01*
X94072403Y-29347356D01*
X94098557Y-29323089D01*
X94098557Y-29323087D01*
X94098561Y-29323085D01*
X94266815Y-29112102D01*
X94401743Y-28878398D01*
X94500334Y-28627195D01*
X94560383Y-28364103D01*
X94580549Y-28095000D01*
X94576587Y-28042136D01*
X94560383Y-27825898D01*
X94560383Y-27825897D01*
X94500334Y-27562805D01*
X94401743Y-27311602D01*
X94266815Y-27077898D01*
X94098561Y-26866915D01*
X94098560Y-26866914D01*
X94098557Y-26866910D01*
X93969469Y-26747135D01*
X96054500Y-26747135D01*
X96054500Y-29442870D01*
X96054501Y-29442876D01*
X96060908Y-29502483D01*
X96111202Y-29637328D01*
X96111206Y-29637335D01*
X96197452Y-29752544D01*
X96197455Y-29752547D01*
X96312664Y-29838793D01*
X96312671Y-29838797D01*
X96447517Y-29889091D01*
X96447516Y-29889091D01*
X96454444Y-29889835D01*
X96507127Y-29895500D01*
X99202872Y-29895499D01*
X99262483Y-29889091D01*
X99397331Y-29838796D01*
X99512546Y-29752546D01*
X99598796Y-29637331D01*
X99649091Y-29502483D01*
X99655500Y-29442873D01*
X99655499Y-26747128D01*
X99649091Y-26687517D01*
X99647542Y-26683365D01*
X99598797Y-26552671D01*
X99598793Y-26552664D01*
X99512547Y-26437455D01*
X99512544Y-26437452D01*
X99397335Y-26351206D01*
X99397328Y-26351202D01*
X99262482Y-26300908D01*
X99262483Y-26300908D01*
X99202883Y-26294501D01*
X99202881Y-26294500D01*
X99202873Y-26294500D01*
X99202864Y-26294500D01*
X96507129Y-26294500D01*
X96507123Y-26294501D01*
X96447516Y-26300908D01*
X96312671Y-26351202D01*
X96312664Y-26351206D01*
X96197455Y-26437452D01*
X96197452Y-26437455D01*
X96111206Y-26552664D01*
X96111202Y-26552671D01*
X96060908Y-26687517D01*
X96054501Y-26747116D01*
X96054501Y-26747123D01*
X96054500Y-26747135D01*
X93969469Y-26747135D01*
X93900741Y-26683365D01*
X93677775Y-26531349D01*
X93677769Y-26531346D01*
X93677768Y-26531345D01*
X93677767Y-26531344D01*
X93434643Y-26414263D01*
X93434645Y-26414263D01*
X93176773Y-26334720D01*
X93176767Y-26334718D01*
X92909936Y-26294500D01*
X92909929Y-26294500D01*
X92640071Y-26294500D01*
X92640063Y-26294500D01*
X92373232Y-26334718D01*
X92373226Y-26334720D01*
X92115358Y-26414262D01*
X91872230Y-26531346D01*
X91649258Y-26683365D01*
X91451442Y-26866910D01*
X91283185Y-27077898D01*
X91148258Y-27311599D01*
X91148256Y-27311603D01*
X91049666Y-27562804D01*
X91049664Y-27562811D01*
X90989616Y-27825898D01*
X90969451Y-28094995D01*
X89500549Y-28094995D01*
X89496587Y-28042136D01*
X89480383Y-27825898D01*
X89480383Y-27825897D01*
X89420334Y-27562805D01*
X89321743Y-27311602D01*
X89186815Y-27077898D01*
X89018561Y-26866915D01*
X89018560Y-26866914D01*
X89018557Y-26866910D01*
X88820741Y-26683365D01*
X88597775Y-26531349D01*
X88597769Y-26531346D01*
X88597768Y-26531345D01*
X88597767Y-26531344D01*
X88354643Y-26414263D01*
X88354645Y-26414263D01*
X88096773Y-26334720D01*
X88096767Y-26334718D01*
X87829936Y-26294500D01*
X87829929Y-26294500D01*
X87560071Y-26294500D01*
X87560063Y-26294500D01*
X87293232Y-26334718D01*
X87293226Y-26334720D01*
X87035358Y-26414262D01*
X86792230Y-26531346D01*
X86569258Y-26683365D01*
X86371442Y-26866910D01*
X86203185Y-27077898D01*
X86068258Y-27311599D01*
X86068256Y-27311603D01*
X85969666Y-27562804D01*
X85969664Y-27562811D01*
X85909616Y-27825898D01*
X85889451Y-28094995D01*
X84420549Y-28094995D01*
X84416587Y-28042136D01*
X84400383Y-27825898D01*
X84400383Y-27825897D01*
X84340334Y-27562805D01*
X84241743Y-27311602D01*
X84106815Y-27077898D01*
X83938561Y-26866915D01*
X83938560Y-26866914D01*
X83938557Y-26866910D01*
X83740741Y-26683365D01*
X83517775Y-26531349D01*
X83517769Y-26531346D01*
X83517768Y-26531345D01*
X83517767Y-26531344D01*
X83274643Y-26414263D01*
X83274645Y-26414263D01*
X83016773Y-26334720D01*
X83016767Y-26334718D01*
X82749936Y-26294500D01*
X82749929Y-26294500D01*
X82480071Y-26294500D01*
X82480063Y-26294500D01*
X82213232Y-26334718D01*
X82213226Y-26334720D01*
X81955358Y-26414262D01*
X81712230Y-26531346D01*
X81489258Y-26683365D01*
X81291442Y-26866910D01*
X81123185Y-27077898D01*
X80988258Y-27311599D01*
X80988256Y-27311603D01*
X80889666Y-27562804D01*
X80889664Y-27562811D01*
X80829616Y-27825898D01*
X80809451Y-28094995D01*
X79340549Y-28094995D01*
X79336587Y-28042136D01*
X79320383Y-27825898D01*
X79320383Y-27825897D01*
X79260334Y-27562805D01*
X79161743Y-27311602D01*
X79026815Y-27077898D01*
X78858561Y-26866915D01*
X78858560Y-26866914D01*
X78858557Y-26866910D01*
X78660741Y-26683365D01*
X78437775Y-26531349D01*
X78437769Y-26531346D01*
X78437768Y-26531345D01*
X78437767Y-26531344D01*
X78194643Y-26414263D01*
X78194645Y-26414263D01*
X77936773Y-26334720D01*
X77936767Y-26334718D01*
X77669936Y-26294500D01*
X77669929Y-26294500D01*
X77400071Y-26294500D01*
X77400063Y-26294500D01*
X77133232Y-26334718D01*
X77133226Y-26334720D01*
X76875358Y-26414262D01*
X76632230Y-26531346D01*
X76409258Y-26683365D01*
X76211442Y-26866910D01*
X76043185Y-27077898D01*
X75908258Y-27311599D01*
X75908256Y-27311603D01*
X75809666Y-27562804D01*
X75809664Y-27562811D01*
X75749616Y-27825898D01*
X75729451Y-28094995D01*
X75729451Y-28095004D01*
X75749616Y-28364101D01*
X75802318Y-28595001D01*
X75809666Y-28627195D01*
X75817145Y-28646251D01*
X75823314Y-28715845D01*
X75790877Y-28777729D01*
X75789398Y-28779233D01*
X72375451Y-32193181D01*
X72314128Y-32226666D01*
X72287770Y-32229500D01*
X58786080Y-32229500D01*
X58641092Y-32258340D01*
X58641086Y-32258342D01*
X58504508Y-32314914D01*
X58504496Y-32314921D01*
X58455269Y-32347813D01*
X58381588Y-32397044D01*
X58381580Y-32397050D01*
X57260451Y-33518181D01*
X57199128Y-33551666D01*
X57172770Y-33554500D01*
X55041666Y-33554500D01*
X54974627Y-33534815D01*
X54928872Y-33482011D01*
X54918928Y-33412853D01*
X54947953Y-33349297D01*
X54989261Y-33318118D01*
X55187734Y-33225568D01*
X55374139Y-33095047D01*
X55535047Y-32934139D01*
X55665568Y-32747734D01*
X55761739Y-32541496D01*
X55820635Y-32321692D01*
X55840468Y-32095000D01*
X55820635Y-31868308D01*
X55778644Y-31711593D01*
X55780307Y-31641743D01*
X55819470Y-31583881D01*
X55883698Y-31556377D01*
X55898419Y-31555500D01*
X69818920Y-31555500D01*
X69916462Y-31536096D01*
X69963913Y-31526658D01*
X70100495Y-31470084D01*
X70183002Y-31414955D01*
X70223416Y-31387952D01*
X71773304Y-29838062D01*
X71834625Y-29804579D01*
X71897532Y-29807253D01*
X72053228Y-29855280D01*
X72053229Y-29855280D01*
X72053232Y-29855281D01*
X72320063Y-29895499D01*
X72320068Y-29895499D01*
X72320071Y-29895500D01*
X72320072Y-29895500D01*
X72589928Y-29895500D01*
X72589929Y-29895500D01*
X72589936Y-29895499D01*
X72856767Y-29855281D01*
X72856768Y-29855280D01*
X72856772Y-29855280D01*
X73114641Y-29775738D01*
X73357775Y-29658651D01*
X73580741Y-29506635D01*
X73752403Y-29347356D01*
X73778557Y-29323089D01*
X73778557Y-29323087D01*
X73778561Y-29323085D01*
X73946815Y-29112102D01*
X74081743Y-28878398D01*
X74180334Y-28627195D01*
X74240383Y-28364103D01*
X74260549Y-28095000D01*
X74256587Y-28042136D01*
X74240383Y-27825898D01*
X74240383Y-27825897D01*
X74180334Y-27562805D01*
X74081743Y-27311602D01*
X73946815Y-27077898D01*
X73778561Y-26866915D01*
X73778560Y-26866914D01*
X73778557Y-26866910D01*
X73580741Y-26683365D01*
X73357775Y-26531349D01*
X73357769Y-26531346D01*
X73357768Y-26531345D01*
X73357767Y-26531344D01*
X73114643Y-26414263D01*
X73114645Y-26414263D01*
X72856773Y-26334720D01*
X72856767Y-26334718D01*
X72589936Y-26294500D01*
X72589929Y-26294500D01*
X72320071Y-26294500D01*
X72320063Y-26294500D01*
X72053232Y-26334718D01*
X72053226Y-26334720D01*
X71795358Y-26414262D01*
X71552230Y-26531346D01*
X71329258Y-26683365D01*
X71131442Y-26866910D01*
X70963185Y-27077898D01*
X70828258Y-27311599D01*
X70828256Y-27311603D01*
X70729666Y-27562804D01*
X70729664Y-27562811D01*
X70669616Y-27825898D01*
X70649451Y-28094995D01*
X70649451Y-28095004D01*
X70669616Y-28364101D01*
X70729664Y-28627188D01*
X70729665Y-28627193D01*
X70737145Y-28646251D01*
X70743313Y-28715848D01*
X70710874Y-28777731D01*
X70709397Y-28779233D01*
X69470451Y-30018181D01*
X69409128Y-30051666D01*
X69382770Y-30054500D01*
X67953603Y-30054500D01*
X67886564Y-30034815D01*
X67840809Y-29982011D01*
X67830865Y-29912853D01*
X67859890Y-29849297D01*
X67917053Y-29812009D01*
X68034641Y-29775738D01*
X68277775Y-29658651D01*
X68500741Y-29506635D01*
X68672403Y-29347356D01*
X68698557Y-29323089D01*
X68698557Y-29323087D01*
X68698561Y-29323085D01*
X68866815Y-29112102D01*
X69001743Y-28878398D01*
X69100334Y-28627195D01*
X69160383Y-28364103D01*
X69180549Y-28095000D01*
X69176587Y-28042136D01*
X69160383Y-27825898D01*
X69160383Y-27825897D01*
X69100334Y-27562805D01*
X69001743Y-27311602D01*
X68866815Y-27077898D01*
X68698561Y-26866915D01*
X68698560Y-26866914D01*
X68698557Y-26866910D01*
X68500741Y-26683365D01*
X68277775Y-26531349D01*
X68277769Y-26531346D01*
X68277768Y-26531345D01*
X68277767Y-26531344D01*
X68034643Y-26414263D01*
X68034645Y-26414263D01*
X67776773Y-26334720D01*
X67776767Y-26334718D01*
X67509936Y-26294500D01*
X67509929Y-26294500D01*
X67409500Y-26294500D01*
X67342461Y-26274815D01*
X67296706Y-26222011D01*
X67285500Y-26170500D01*
X67285500Y-25731081D01*
X67279763Y-25702242D01*
X67279763Y-25702240D01*
X67256660Y-25586095D01*
X67256659Y-25586088D01*
X67202408Y-25455117D01*
X67200764Y-25450522D01*
X67117954Y-25326588D01*
X67117953Y-25326587D01*
X67117951Y-25326584D01*
X67013416Y-25222049D01*
X66013421Y-24222052D01*
X66013414Y-24222046D01*
X65939729Y-24172812D01*
X65939729Y-24172813D01*
X65890491Y-24139913D01*
X65753917Y-24083343D01*
X65753907Y-24083340D01*
X65608920Y-24054500D01*
X65608918Y-24054500D01*
X36959712Y-24054500D01*
X36959710Y-24054500D01*
X36814722Y-24083340D01*
X36814716Y-24083342D01*
X36678138Y-24139914D01*
X36678126Y-24139921D01*
X36628899Y-24172813D01*
X36555218Y-24222044D01*
X36555210Y-24222050D01*
X30292050Y-30485210D01*
X30292044Y-30485218D01*
X30242812Y-30558898D01*
X30242813Y-30558899D01*
X30209921Y-30608126D01*
X30209914Y-30608138D01*
X30153342Y-30744716D01*
X30153340Y-30744722D01*
X30124500Y-30889709D01*
X30124500Y-30968336D01*
X30104815Y-31035375D01*
X30071625Y-31069910D01*
X30035863Y-31094951D01*
X29874951Y-31255862D01*
X29744432Y-31442265D01*
X29744431Y-31442267D01*
X29648261Y-31648502D01*
X29648258Y-31648511D01*
X29589366Y-31868302D01*
X29589364Y-31868313D01*
X29569532Y-32094998D01*
X29569532Y-32095001D01*
X29589364Y-32321686D01*
X29589366Y-32321697D01*
X29648258Y-32541488D01*
X29648261Y-32541497D01*
X29744431Y-32747732D01*
X29744432Y-32747734D01*
X29874954Y-32934141D01*
X30035858Y-33095045D01*
X30035861Y-33095047D01*
X30222266Y-33225568D01*
X30428504Y-33321739D01*
X30648308Y-33380635D01*
X30810230Y-33394801D01*
X30874998Y-33400468D01*
X30875000Y-33400468D01*
X30875002Y-33400468D01*
X30931673Y-33395509D01*
X31101692Y-33380635D01*
X31321496Y-33321739D01*
X31527734Y-33225568D01*
X31714139Y-33095047D01*
X31875047Y-32934139D01*
X32005568Y-32747734D01*
X32101739Y-32541496D01*
X32160635Y-32321692D01*
X32180468Y-32095000D01*
X32160635Y-31868308D01*
X32101739Y-31648504D01*
X32005568Y-31442266D01*
X31875047Y-31255861D01*
X31875045Y-31255858D01*
X31847273Y-31228086D01*
X31813788Y-31166763D01*
X31818772Y-31097071D01*
X31847271Y-31052726D01*
X34529335Y-28370661D01*
X34590656Y-28337178D01*
X34660348Y-28342162D01*
X34716281Y-28384034D01*
X34740698Y-28449498D01*
X34740542Y-28469151D01*
X34729532Y-28594997D01*
X34729532Y-28595001D01*
X34749364Y-28821686D01*
X34749366Y-28821697D01*
X34808258Y-29041488D01*
X34808261Y-29041497D01*
X34904431Y-29247732D01*
X34904432Y-29247734D01*
X35034954Y-29434141D01*
X35195858Y-29595045D01*
X35195861Y-29595047D01*
X35382266Y-29725568D01*
X35588504Y-29821739D01*
X35808308Y-29880635D01*
X36035000Y-29900468D01*
X36039301Y-29900091D01*
X36107800Y-29913854D01*
X36137794Y-29935938D01*
X38854955Y-32653099D01*
X38919675Y-32717819D01*
X38976902Y-32775046D01*
X39120288Y-32870854D01*
X39120301Y-32870861D01*
X39261869Y-32929500D01*
X39279626Y-32936855D01*
X39411785Y-32963143D01*
X39448766Y-32970499D01*
X39448769Y-32970500D01*
X39448771Y-32970500D01*
X40019952Y-32970500D01*
X40086991Y-32990185D01*
X40107628Y-33006814D01*
X40195861Y-33095047D01*
X40382266Y-33225568D01*
X40588504Y-33321739D01*
X40808308Y-33380635D01*
X40970230Y-33394801D01*
X41034998Y-33400468D01*
X41035000Y-33400468D01*
X41035002Y-33400468D01*
X41091673Y-33395509D01*
X41261692Y-33380635D01*
X41481496Y-33321739D01*
X41687734Y-33225568D01*
X41874139Y-33095047D01*
X42035047Y-32934139D01*
X42165568Y-32747734D01*
X42261739Y-32541496D01*
X42320635Y-32321692D01*
X42340468Y-32095000D01*
X42320635Y-31868308D01*
X42278644Y-31711593D01*
X42280307Y-31641743D01*
X42319470Y-31583881D01*
X42383698Y-31556377D01*
X42398419Y-31555500D01*
X43011581Y-31555500D01*
X43078620Y-31575185D01*
X43124375Y-31627989D01*
X43134319Y-31697147D01*
X43131356Y-31711593D01*
X43089366Y-31868302D01*
X43089364Y-31868313D01*
X43069532Y-32094998D01*
X43069532Y-32095001D01*
X43089364Y-32321686D01*
X43089366Y-32321697D01*
X43148258Y-32541488D01*
X43148261Y-32541497D01*
X43244431Y-32747732D01*
X43244432Y-32747734D01*
X43374954Y-32934141D01*
X43535858Y-33095045D01*
X43535861Y-33095047D01*
X43722266Y-33225568D01*
X43928504Y-33321739D01*
X44148308Y-33380635D01*
X44310230Y-33394801D01*
X44374998Y-33400468D01*
X44375000Y-33400468D01*
X44375001Y-33400468D01*
X44395062Y-33398712D01*
X44541861Y-33385869D01*
X44610359Y-33399635D01*
X44640348Y-33421716D01*
X44908681Y-33690049D01*
X44942166Y-33751372D01*
X44945000Y-33777730D01*
X44945000Y-35159314D01*
X44940606Y-35154920D01*
X44849394Y-35102259D01*
X44747661Y-35075000D01*
X44642339Y-35075000D01*
X44540606Y-35102259D01*
X44449394Y-35154920D01*
X44445000Y-35159314D01*
X44445000Y-33798390D01*
X44390586Y-33807009D01*
X44195970Y-33870244D01*
X44013650Y-33963140D01*
X43848105Y-34083417D01*
X43848104Y-34083417D01*
X43703417Y-34228104D01*
X43703417Y-34228105D01*
X43583140Y-34393650D01*
X43535765Y-34486629D01*
X43487790Y-34537425D01*
X43419969Y-34554220D01*
X43353834Y-34531682D01*
X43314795Y-34486629D01*
X43267419Y-34393650D01*
X43267287Y-34393390D01*
X43259556Y-34382749D01*
X43146971Y-34227786D01*
X43002213Y-34083028D01*
X42836613Y-33962715D01*
X42836612Y-33962714D01*
X42836610Y-33962713D01*
X42779653Y-33933691D01*
X42654223Y-33869781D01*
X42459534Y-33806522D01*
X42277745Y-33777730D01*
X42257352Y-33774500D01*
X42052648Y-33774500D01*
X42032255Y-33777730D01*
X41850465Y-33806522D01*
X41655776Y-33869781D01*
X41473386Y-33962715D01*
X41307786Y-34083028D01*
X41163028Y-34227786D01*
X41042713Y-34393388D01*
X40995203Y-34486630D01*
X40947228Y-34537426D01*
X40879407Y-34554220D01*
X40813272Y-34531682D01*
X40774234Y-34486628D01*
X40726861Y-34393652D01*
X40606582Y-34228105D01*
X40606582Y-34228104D01*
X40461895Y-34083417D01*
X40296349Y-33963140D01*
X40114029Y-33870244D01*
X39919413Y-33807009D01*
X39865000Y-33798390D01*
X39865000Y-35159314D01*
X39860606Y-35154920D01*
X39769394Y-35102259D01*
X39667661Y-35075000D01*
X39562339Y-35075000D01*
X39460606Y-35102259D01*
X39369394Y-35154920D01*
X39365000Y-35159314D01*
X39365000Y-33798390D01*
X39310586Y-33807009D01*
X39115970Y-33870244D01*
X38933650Y-33963140D01*
X38768105Y-34083417D01*
X38768104Y-34083417D01*
X38623417Y-34228104D01*
X38623417Y-34228105D01*
X38503140Y-34393650D01*
X38455765Y-34486629D01*
X38407790Y-34537425D01*
X38339969Y-34554220D01*
X38273834Y-34531682D01*
X38234795Y-34486629D01*
X38187419Y-34393650D01*
X38187287Y-34393390D01*
X38179556Y-34382749D01*
X38066971Y-34227786D01*
X37922213Y-34083028D01*
X37756613Y-33962715D01*
X37756612Y-33962714D01*
X37756610Y-33962713D01*
X37699653Y-33933691D01*
X37574223Y-33869781D01*
X37379534Y-33806522D01*
X37197745Y-33777730D01*
X37177352Y-33774500D01*
X36972648Y-33774500D01*
X36952255Y-33777730D01*
X36770465Y-33806522D01*
X36575776Y-33869781D01*
X36393386Y-33962715D01*
X36227786Y-34083028D01*
X36083028Y-34227786D01*
X35962713Y-34393388D01*
X35915203Y-34486630D01*
X35867228Y-34537426D01*
X35799407Y-34554220D01*
X35733272Y-34531682D01*
X35694234Y-34486628D01*
X35646861Y-34393652D01*
X35526582Y-34228105D01*
X35526582Y-34228104D01*
X35381895Y-34083417D01*
X35216349Y-33963140D01*
X35034029Y-33870244D01*
X34839413Y-33807009D01*
X34785000Y-33798390D01*
X34785000Y-35159314D01*
X34780606Y-35154920D01*
X34689394Y-35102259D01*
X34587661Y-35075000D01*
X34482339Y-35075000D01*
X34380606Y-35102259D01*
X34289394Y-35154920D01*
X34285000Y-35159314D01*
X34285000Y-33798390D01*
X34230586Y-33807009D01*
X34035970Y-33870244D01*
X33853650Y-33963140D01*
X33688105Y-34083417D01*
X33688104Y-34083417D01*
X33543417Y-34228104D01*
X33543417Y-34228105D01*
X33423140Y-34393650D01*
X33375765Y-34486629D01*
X33327790Y-34537425D01*
X33259969Y-34554220D01*
X33193834Y-34531682D01*
X33154795Y-34486629D01*
X33107419Y-34393650D01*
X33107287Y-34393390D01*
X33099556Y-34382749D01*
X32986971Y-34227786D01*
X32842213Y-34083028D01*
X32676613Y-33962715D01*
X32676612Y-33962714D01*
X32676610Y-33962713D01*
X32619653Y-33933691D01*
X32494223Y-33869781D01*
X32299534Y-33806522D01*
X32117745Y-33777730D01*
X32097352Y-33774500D01*
X31892648Y-33774500D01*
X31872255Y-33777730D01*
X31690465Y-33806522D01*
X31495776Y-33869781D01*
X31313386Y-33962715D01*
X31147786Y-34083028D01*
X31003028Y-34227786D01*
X30882713Y-34393388D01*
X30835203Y-34486630D01*
X30787228Y-34537426D01*
X30719407Y-34554220D01*
X30653272Y-34531682D01*
X30614234Y-34486628D01*
X30566861Y-34393652D01*
X30446582Y-34228105D01*
X30446582Y-34228104D01*
X30301895Y-34083417D01*
X30136349Y-33963140D01*
X29954029Y-33870244D01*
X29759413Y-33807009D01*
X29705000Y-33798390D01*
X29705000Y-35159314D01*
X29700606Y-35154920D01*
X29609394Y-35102259D01*
X29507661Y-35075000D01*
X29402339Y-35075000D01*
X29300606Y-35102259D01*
X29209394Y-35154920D01*
X29205000Y-35159314D01*
X29205000Y-33798390D01*
X29150586Y-33807009D01*
X28955970Y-33870244D01*
X28773650Y-33963140D01*
X28608105Y-34083417D01*
X28608104Y-34083417D01*
X28463417Y-34228104D01*
X28463417Y-34228105D01*
X28343140Y-34393650D01*
X28295765Y-34486629D01*
X28247790Y-34537425D01*
X28179969Y-34554220D01*
X28113834Y-34531682D01*
X28074795Y-34486629D01*
X28027419Y-34393650D01*
X28027287Y-34393390D01*
X28019556Y-34382749D01*
X27906971Y-34227786D01*
X27762213Y-34083028D01*
X27596613Y-33962715D01*
X27596612Y-33962714D01*
X27596610Y-33962713D01*
X27539653Y-33933691D01*
X27414223Y-33869781D01*
X27219534Y-33806522D01*
X27037745Y-33777730D01*
X27017352Y-33774500D01*
X26812648Y-33774500D01*
X26792255Y-33777730D01*
X26610465Y-33806522D01*
X26415776Y-33869781D01*
X26233386Y-33962715D01*
X26067786Y-34083028D01*
X25923028Y-34227786D01*
X25802715Y-34393386D01*
X25709781Y-34575776D01*
X25646522Y-34770465D01*
X25614500Y-34972648D01*
X24535000Y-34972648D01*
X24535000Y-29341911D01*
X24554685Y-29274872D01*
X24607489Y-29229117D01*
X24676647Y-29219173D01*
X24740203Y-29248198D01*
X24760572Y-29270785D01*
X24827372Y-29366186D01*
X24874954Y-29434141D01*
X25035858Y-29595045D01*
X25035861Y-29595047D01*
X25222266Y-29725568D01*
X25428504Y-29821739D01*
X25648308Y-29880635D01*
X25810230Y-29894801D01*
X25874998Y-29900468D01*
X25875000Y-29900468D01*
X25875002Y-29900468D01*
X25931807Y-29895498D01*
X26101692Y-29880635D01*
X26321496Y-29821739D01*
X26527734Y-29725568D01*
X26714139Y-29595047D01*
X26875047Y-29434139D01*
X27005568Y-29247734D01*
X27101739Y-29041496D01*
X27160635Y-28821692D01*
X27180468Y-28595000D01*
X27160635Y-28368308D01*
X27101739Y-28148504D01*
X27005568Y-27942266D01*
X26875047Y-27755861D01*
X26875045Y-27755858D01*
X26714141Y-27594954D01*
X26527734Y-27464432D01*
X26527732Y-27464431D01*
X26321497Y-27368261D01*
X26321488Y-27368258D01*
X26101697Y-27309366D01*
X26101693Y-27309365D01*
X26101692Y-27309365D01*
X26101691Y-27309364D01*
X26101686Y-27309364D01*
X25875002Y-27289532D01*
X25874998Y-27289532D01*
X25648313Y-27309364D01*
X25648302Y-27309366D01*
X25428511Y-27368258D01*
X25428502Y-27368261D01*
X25222267Y-27464431D01*
X25222265Y-27464432D01*
X25035858Y-27594954D01*
X24874954Y-27755858D01*
X24760575Y-27919211D01*
X24705999Y-27962836D01*
X24636500Y-27970030D01*
X24574145Y-27938507D01*
X24538731Y-27878278D01*
X24535000Y-27848088D01*
X24535000Y-23929000D01*
X24554685Y-23861961D01*
X24607489Y-23816206D01*
X24659000Y-23805000D01*
X100428688Y-23805000D01*
X100495727Y-23824685D01*
G37*
%TD.AperFunction*%
%TD*%
M02*
