%TF.GenerationSoftware,KiCad,Pcbnew,8.0.7*%
%TF.CreationDate,2025-01-10T10:31:37-06:00*%
%TF.ProjectId,CANBOARD_REV3,43414e42-4f41-4524-945f-524556332e6b,rev?*%
%TF.SameCoordinates,Original*%
%TF.FileFunction,Legend,Bot*%
%TF.FilePolarity,Positive*%
%FSLAX46Y46*%
G04 Gerber Fmt 4.6, Leading zero omitted, Abs format (unit mm)*
G04 Created by KiCad (PCBNEW 8.0.7) date 2025-01-10 10:31:37*
%MOMM*%
%LPD*%
G01*
G04 APERTURE LIST*
%ADD10C,0.150000*%
%ADD11C,0.010000*%
G04 APERTURE END LIST*
D10*
X51174411Y-39722438D02*
X51269649Y-39674819D01*
X51269649Y-39674819D02*
X51412506Y-39674819D01*
X51412506Y-39674819D02*
X51555363Y-39722438D01*
X51555363Y-39722438D02*
X51650601Y-39817676D01*
X51650601Y-39817676D02*
X51698220Y-39912914D01*
X51698220Y-39912914D02*
X51745839Y-40103390D01*
X51745839Y-40103390D02*
X51745839Y-40246247D01*
X51745839Y-40246247D02*
X51698220Y-40436723D01*
X51698220Y-40436723D02*
X51650601Y-40531961D01*
X51650601Y-40531961D02*
X51555363Y-40627200D01*
X51555363Y-40627200D02*
X51412506Y-40674819D01*
X51412506Y-40674819D02*
X51317268Y-40674819D01*
X51317268Y-40674819D02*
X51174411Y-40627200D01*
X51174411Y-40627200D02*
X51126792Y-40579580D01*
X51126792Y-40579580D02*
X51126792Y-40246247D01*
X51126792Y-40246247D02*
X51317268Y-40246247D01*
X50698220Y-40674819D02*
X50698220Y-39674819D01*
X50698220Y-39674819D02*
X50126792Y-40674819D01*
X50126792Y-40674819D02*
X50126792Y-39674819D01*
X49650601Y-40674819D02*
X49650601Y-39674819D01*
X49650601Y-39674819D02*
X49412506Y-39674819D01*
X49412506Y-39674819D02*
X49269649Y-39722438D01*
X49269649Y-39722438D02*
X49174411Y-39817676D01*
X49174411Y-39817676D02*
X49126792Y-39912914D01*
X49126792Y-39912914D02*
X49079173Y-40103390D01*
X49079173Y-40103390D02*
X49079173Y-40246247D01*
X49079173Y-40246247D02*
X49126792Y-40436723D01*
X49126792Y-40436723D02*
X49174411Y-40531961D01*
X49174411Y-40531961D02*
X49269649Y-40627200D01*
X49269649Y-40627200D02*
X49412506Y-40674819D01*
X49412506Y-40674819D02*
X49650601Y-40674819D01*
X67841077Y-39674819D02*
X67507744Y-40674819D01*
X67507744Y-40674819D02*
X67174411Y-39674819D01*
X67079173Y-40770057D02*
X66317268Y-40770057D01*
X66079172Y-40674819D02*
X66079172Y-39674819D01*
X65602982Y-40674819D02*
X65602982Y-39674819D01*
X65602982Y-39674819D02*
X65031554Y-40674819D01*
X65031554Y-40674819D02*
X65031554Y-39674819D01*
X62793458Y-39674819D02*
X62174411Y-39674819D01*
X62174411Y-39674819D02*
X62507744Y-40055771D01*
X62507744Y-40055771D02*
X62364887Y-40055771D01*
X62364887Y-40055771D02*
X62269649Y-40103390D01*
X62269649Y-40103390D02*
X62222030Y-40151009D01*
X62222030Y-40151009D02*
X62174411Y-40246247D01*
X62174411Y-40246247D02*
X62174411Y-40484342D01*
X62174411Y-40484342D02*
X62222030Y-40579580D01*
X62222030Y-40579580D02*
X62269649Y-40627200D01*
X62269649Y-40627200D02*
X62364887Y-40674819D01*
X62364887Y-40674819D02*
X62650601Y-40674819D01*
X62650601Y-40674819D02*
X62745839Y-40627200D01*
X62745839Y-40627200D02*
X62793458Y-40579580D01*
X61745839Y-40579580D02*
X61698220Y-40627200D01*
X61698220Y-40627200D02*
X61745839Y-40674819D01*
X61745839Y-40674819D02*
X61793458Y-40627200D01*
X61793458Y-40627200D02*
X61745839Y-40579580D01*
X61745839Y-40579580D02*
X61745839Y-40674819D01*
X61364887Y-39674819D02*
X60745840Y-39674819D01*
X60745840Y-39674819D02*
X61079173Y-40055771D01*
X61079173Y-40055771D02*
X60936316Y-40055771D01*
X60936316Y-40055771D02*
X60841078Y-40103390D01*
X60841078Y-40103390D02*
X60793459Y-40151009D01*
X60793459Y-40151009D02*
X60745840Y-40246247D01*
X60745840Y-40246247D02*
X60745840Y-40484342D01*
X60745840Y-40484342D02*
X60793459Y-40579580D01*
X60793459Y-40579580D02*
X60841078Y-40627200D01*
X60841078Y-40627200D02*
X60936316Y-40674819D01*
X60936316Y-40674819D02*
X61222030Y-40674819D01*
X61222030Y-40674819D02*
X61317268Y-40627200D01*
X61317268Y-40627200D02*
X61364887Y-40579580D01*
X60460125Y-39674819D02*
X60126792Y-40674819D01*
X60126792Y-40674819D02*
X59793459Y-39674819D01*
X84514639Y-80050169D02*
X84467020Y-80002550D01*
X84467020Y-80002550D02*
X84371782Y-79954931D01*
X84371782Y-79954931D02*
X84133687Y-79954931D01*
X84133687Y-79954931D02*
X84038449Y-80002550D01*
X84038449Y-80002550D02*
X83990830Y-80050169D01*
X83990830Y-80050169D02*
X83943211Y-80145407D01*
X83943211Y-80145407D02*
X83943211Y-80240645D01*
X83943211Y-80240645D02*
X83990830Y-80383502D01*
X83990830Y-80383502D02*
X84562258Y-80954931D01*
X84562258Y-80954931D02*
X83943211Y-80954931D01*
X83086068Y-80288264D02*
X83086068Y-80954931D01*
X83324163Y-79907312D02*
X83562258Y-80621597D01*
X83562258Y-80621597D02*
X82943211Y-80621597D01*
X81847973Y-79907312D02*
X82705115Y-81193026D01*
X81562258Y-80050169D02*
X81514639Y-80002550D01*
X81514639Y-80002550D02*
X81419401Y-79954931D01*
X81419401Y-79954931D02*
X81181306Y-79954931D01*
X81181306Y-79954931D02*
X81086068Y-80002550D01*
X81086068Y-80002550D02*
X81038449Y-80050169D01*
X81038449Y-80050169D02*
X80990830Y-80145407D01*
X80990830Y-80145407D02*
X80990830Y-80240645D01*
X80990830Y-80240645D02*
X81038449Y-80383502D01*
X81038449Y-80383502D02*
X81609877Y-80954931D01*
X81609877Y-80954931D02*
X80990830Y-80954931D01*
X80086068Y-79954931D02*
X80562258Y-79954931D01*
X80562258Y-79954931D02*
X80609877Y-80431121D01*
X80609877Y-80431121D02*
X80562258Y-80383502D01*
X80562258Y-80383502D02*
X80467020Y-80335883D01*
X80467020Y-80335883D02*
X80228925Y-80335883D01*
X80228925Y-80335883D02*
X80133687Y-80383502D01*
X80133687Y-80383502D02*
X80086068Y-80431121D01*
X80086068Y-80431121D02*
X80038449Y-80526359D01*
X80038449Y-80526359D02*
X80038449Y-80764454D01*
X80038449Y-80764454D02*
X80086068Y-80859692D01*
X80086068Y-80859692D02*
X80133687Y-80907312D01*
X80133687Y-80907312D02*
X80228925Y-80954931D01*
X80228925Y-80954931D02*
X80467020Y-80954931D01*
X80467020Y-80954931D02*
X80562258Y-80907312D01*
X80562258Y-80907312D02*
X80609877Y-80859692D01*
X78276544Y-80954931D02*
X78609877Y-80478740D01*
X78847972Y-80954931D02*
X78847972Y-79954931D01*
X78847972Y-79954931D02*
X78467020Y-79954931D01*
X78467020Y-79954931D02*
X78371782Y-80002550D01*
X78371782Y-80002550D02*
X78324163Y-80050169D01*
X78324163Y-80050169D02*
X78276544Y-80145407D01*
X78276544Y-80145407D02*
X78276544Y-80288264D01*
X78276544Y-80288264D02*
X78324163Y-80383502D01*
X78324163Y-80383502D02*
X78371782Y-80431121D01*
X78371782Y-80431121D02*
X78467020Y-80478740D01*
X78467020Y-80478740D02*
X78847972Y-80478740D01*
X77467020Y-80907312D02*
X77562258Y-80954931D01*
X77562258Y-80954931D02*
X77752734Y-80954931D01*
X77752734Y-80954931D02*
X77847972Y-80907312D01*
X77847972Y-80907312D02*
X77895591Y-80812073D01*
X77895591Y-80812073D02*
X77895591Y-80431121D01*
X77895591Y-80431121D02*
X77847972Y-80335883D01*
X77847972Y-80335883D02*
X77752734Y-80288264D01*
X77752734Y-80288264D02*
X77562258Y-80288264D01*
X77562258Y-80288264D02*
X77467020Y-80335883D01*
X77467020Y-80335883D02*
X77419401Y-80431121D01*
X77419401Y-80431121D02*
X77419401Y-80526359D01*
X77419401Y-80526359D02*
X77895591Y-80621597D01*
X77086067Y-80288264D02*
X76847972Y-80954931D01*
X76847972Y-80954931D02*
X76609877Y-80288264D01*
X75562257Y-79954931D02*
X74943210Y-79954931D01*
X74943210Y-79954931D02*
X75276543Y-80335883D01*
X75276543Y-80335883D02*
X75133686Y-80335883D01*
X75133686Y-80335883D02*
X75038448Y-80383502D01*
X75038448Y-80383502D02*
X74990829Y-80431121D01*
X74990829Y-80431121D02*
X74943210Y-80526359D01*
X74943210Y-80526359D02*
X74943210Y-80764454D01*
X74943210Y-80764454D02*
X74990829Y-80859692D01*
X74990829Y-80859692D02*
X75038448Y-80907312D01*
X75038448Y-80907312D02*
X75133686Y-80954931D01*
X75133686Y-80954931D02*
X75419400Y-80954931D01*
X75419400Y-80954931D02*
X75514638Y-80907312D01*
X75514638Y-80907312D02*
X75562257Y-80859692D01*
X73181305Y-80859692D02*
X73228924Y-80907312D01*
X73228924Y-80907312D02*
X73371781Y-80954931D01*
X73371781Y-80954931D02*
X73467019Y-80954931D01*
X73467019Y-80954931D02*
X73609876Y-80907312D01*
X73609876Y-80907312D02*
X73705114Y-80812073D01*
X73705114Y-80812073D02*
X73752733Y-80716835D01*
X73752733Y-80716835D02*
X73800352Y-80526359D01*
X73800352Y-80526359D02*
X73800352Y-80383502D01*
X73800352Y-80383502D02*
X73752733Y-80193026D01*
X73752733Y-80193026D02*
X73705114Y-80097788D01*
X73705114Y-80097788D02*
X73609876Y-80002550D01*
X73609876Y-80002550D02*
X73467019Y-79954931D01*
X73467019Y-79954931D02*
X73371781Y-79954931D01*
X73371781Y-79954931D02*
X73228924Y-80002550D01*
X73228924Y-80002550D02*
X73181305Y-80050169D01*
X72800352Y-80669216D02*
X72324162Y-80669216D01*
X72895590Y-80954931D02*
X72562257Y-79954931D01*
X72562257Y-79954931D02*
X72228924Y-80954931D01*
X71895590Y-80954931D02*
X71895590Y-79954931D01*
X71895590Y-79954931D02*
X71324162Y-80954931D01*
X71324162Y-80954931D02*
X71324162Y-79954931D01*
X70847971Y-80573978D02*
X70086067Y-80573978D01*
X69276543Y-80431121D02*
X69133686Y-80478740D01*
X69133686Y-80478740D02*
X69086067Y-80526359D01*
X69086067Y-80526359D02*
X69038448Y-80621597D01*
X69038448Y-80621597D02*
X69038448Y-80764454D01*
X69038448Y-80764454D02*
X69086067Y-80859692D01*
X69086067Y-80859692D02*
X69133686Y-80907312D01*
X69133686Y-80907312D02*
X69228924Y-80954931D01*
X69228924Y-80954931D02*
X69609876Y-80954931D01*
X69609876Y-80954931D02*
X69609876Y-79954931D01*
X69609876Y-79954931D02*
X69276543Y-79954931D01*
X69276543Y-79954931D02*
X69181305Y-80002550D01*
X69181305Y-80002550D02*
X69133686Y-80050169D01*
X69133686Y-80050169D02*
X69086067Y-80145407D01*
X69086067Y-80145407D02*
X69086067Y-80240645D01*
X69086067Y-80240645D02*
X69133686Y-80335883D01*
X69133686Y-80335883D02*
X69181305Y-80383502D01*
X69181305Y-80383502D02*
X69276543Y-80431121D01*
X69276543Y-80431121D02*
X69609876Y-80431121D01*
X68181305Y-80288264D02*
X68181305Y-80954931D01*
X68609876Y-80288264D02*
X68609876Y-80812073D01*
X68609876Y-80812073D02*
X68562257Y-80907312D01*
X68562257Y-80907312D02*
X68467019Y-80954931D01*
X68467019Y-80954931D02*
X68324162Y-80954931D01*
X68324162Y-80954931D02*
X68228924Y-80907312D01*
X68228924Y-80907312D02*
X68181305Y-80859692D01*
X67752733Y-80907312D02*
X67657495Y-80954931D01*
X67657495Y-80954931D02*
X67467019Y-80954931D01*
X67467019Y-80954931D02*
X67371781Y-80907312D01*
X67371781Y-80907312D02*
X67324162Y-80812073D01*
X67324162Y-80812073D02*
X67324162Y-80764454D01*
X67324162Y-80764454D02*
X67371781Y-80669216D01*
X67371781Y-80669216D02*
X67467019Y-80621597D01*
X67467019Y-80621597D02*
X67609876Y-80621597D01*
X67609876Y-80621597D02*
X67705114Y-80573978D01*
X67705114Y-80573978D02*
X67752733Y-80478740D01*
X67752733Y-80478740D02*
X67752733Y-80431121D01*
X67752733Y-80431121D02*
X67705114Y-80335883D01*
X67705114Y-80335883D02*
X67609876Y-80288264D01*
X67609876Y-80288264D02*
X67467019Y-80288264D01*
X67467019Y-80288264D02*
X67371781Y-80335883D01*
X66133685Y-80954931D02*
X66133685Y-79954931D01*
X66133685Y-79954931D02*
X65800352Y-80669216D01*
X65800352Y-80669216D02*
X65467019Y-79954931D01*
X65467019Y-79954931D02*
X65467019Y-80954931D01*
X64847971Y-80954931D02*
X64943209Y-80907312D01*
X64943209Y-80907312D02*
X64990828Y-80859692D01*
X64990828Y-80859692D02*
X65038447Y-80764454D01*
X65038447Y-80764454D02*
X65038447Y-80478740D01*
X65038447Y-80478740D02*
X64990828Y-80383502D01*
X64990828Y-80383502D02*
X64943209Y-80335883D01*
X64943209Y-80335883D02*
X64847971Y-80288264D01*
X64847971Y-80288264D02*
X64705114Y-80288264D01*
X64705114Y-80288264D02*
X64609876Y-80335883D01*
X64609876Y-80335883D02*
X64562257Y-80383502D01*
X64562257Y-80383502D02*
X64514638Y-80478740D01*
X64514638Y-80478740D02*
X64514638Y-80764454D01*
X64514638Y-80764454D02*
X64562257Y-80859692D01*
X64562257Y-80859692D02*
X64609876Y-80907312D01*
X64609876Y-80907312D02*
X64705114Y-80954931D01*
X64705114Y-80954931D02*
X64847971Y-80954931D01*
X64228923Y-80288264D02*
X63847971Y-80288264D01*
X64086066Y-79954931D02*
X64086066Y-80812073D01*
X64086066Y-80812073D02*
X64038447Y-80907312D01*
X64038447Y-80907312D02*
X63943209Y-80954931D01*
X63943209Y-80954931D02*
X63847971Y-80954931D01*
X63514637Y-80954931D02*
X63514637Y-79954931D01*
X63086066Y-80954931D02*
X63086066Y-80431121D01*
X63086066Y-80431121D02*
X63133685Y-80335883D01*
X63133685Y-80335883D02*
X63228923Y-80288264D01*
X63228923Y-80288264D02*
X63371780Y-80288264D01*
X63371780Y-80288264D02*
X63467018Y-80335883D01*
X63467018Y-80335883D02*
X63514637Y-80383502D01*
X62228923Y-80907312D02*
X62324161Y-80954931D01*
X62324161Y-80954931D02*
X62514637Y-80954931D01*
X62514637Y-80954931D02*
X62609875Y-80907312D01*
X62609875Y-80907312D02*
X62657494Y-80812073D01*
X62657494Y-80812073D02*
X62657494Y-80431121D01*
X62657494Y-80431121D02*
X62609875Y-80335883D01*
X62609875Y-80335883D02*
X62514637Y-80288264D01*
X62514637Y-80288264D02*
X62324161Y-80288264D01*
X62324161Y-80288264D02*
X62228923Y-80335883D01*
X62228923Y-80335883D02*
X62181304Y-80431121D01*
X62181304Y-80431121D02*
X62181304Y-80526359D01*
X62181304Y-80526359D02*
X62657494Y-80621597D01*
X61752732Y-80954931D02*
X61752732Y-80288264D01*
X61752732Y-80478740D02*
X61705113Y-80383502D01*
X61705113Y-80383502D02*
X61657494Y-80335883D01*
X61657494Y-80335883D02*
X61562256Y-80288264D01*
X61562256Y-80288264D02*
X61467018Y-80288264D01*
X61133684Y-80954931D02*
X61133684Y-79954931D01*
X61133684Y-80335883D02*
X61038446Y-80288264D01*
X61038446Y-80288264D02*
X60847970Y-80288264D01*
X60847970Y-80288264D02*
X60752732Y-80335883D01*
X60752732Y-80335883D02*
X60705113Y-80383502D01*
X60705113Y-80383502D02*
X60657494Y-80478740D01*
X60657494Y-80478740D02*
X60657494Y-80764454D01*
X60657494Y-80764454D02*
X60705113Y-80859692D01*
X60705113Y-80859692D02*
X60752732Y-80907312D01*
X60752732Y-80907312D02*
X60847970Y-80954931D01*
X60847970Y-80954931D02*
X61038446Y-80954931D01*
X61038446Y-80954931D02*
X61133684Y-80907312D01*
X60086065Y-80954931D02*
X60181303Y-80907312D01*
X60181303Y-80907312D02*
X60228922Y-80859692D01*
X60228922Y-80859692D02*
X60276541Y-80764454D01*
X60276541Y-80764454D02*
X60276541Y-80478740D01*
X60276541Y-80478740D02*
X60228922Y-80383502D01*
X60228922Y-80383502D02*
X60181303Y-80335883D01*
X60181303Y-80335883D02*
X60086065Y-80288264D01*
X60086065Y-80288264D02*
X59943208Y-80288264D01*
X59943208Y-80288264D02*
X59847970Y-80335883D01*
X59847970Y-80335883D02*
X59800351Y-80383502D01*
X59800351Y-80383502D02*
X59752732Y-80478740D01*
X59752732Y-80478740D02*
X59752732Y-80764454D01*
X59752732Y-80764454D02*
X59800351Y-80859692D01*
X59800351Y-80859692D02*
X59847970Y-80907312D01*
X59847970Y-80907312D02*
X59943208Y-80954931D01*
X59943208Y-80954931D02*
X60086065Y-80954931D01*
X58895589Y-80954931D02*
X58895589Y-80431121D01*
X58895589Y-80431121D02*
X58943208Y-80335883D01*
X58943208Y-80335883D02*
X59038446Y-80288264D01*
X59038446Y-80288264D02*
X59228922Y-80288264D01*
X59228922Y-80288264D02*
X59324160Y-80335883D01*
X58895589Y-80907312D02*
X58990827Y-80954931D01*
X58990827Y-80954931D02*
X59228922Y-80954931D01*
X59228922Y-80954931D02*
X59324160Y-80907312D01*
X59324160Y-80907312D02*
X59371779Y-80812073D01*
X59371779Y-80812073D02*
X59371779Y-80716835D01*
X59371779Y-80716835D02*
X59324160Y-80621597D01*
X59324160Y-80621597D02*
X59228922Y-80573978D01*
X59228922Y-80573978D02*
X58990827Y-80573978D01*
X58990827Y-80573978D02*
X58895589Y-80526359D01*
X58419398Y-80954931D02*
X58419398Y-80288264D01*
X58419398Y-80478740D02*
X58371779Y-80383502D01*
X58371779Y-80383502D02*
X58324160Y-80335883D01*
X58324160Y-80335883D02*
X58228922Y-80288264D01*
X58228922Y-80288264D02*
X58133684Y-80288264D01*
X57371779Y-80954931D02*
X57371779Y-79954931D01*
X57371779Y-80907312D02*
X57467017Y-80954931D01*
X57467017Y-80954931D02*
X57657493Y-80954931D01*
X57657493Y-80954931D02*
X57752731Y-80907312D01*
X57752731Y-80907312D02*
X57800350Y-80859692D01*
X57800350Y-80859692D02*
X57847969Y-80764454D01*
X57847969Y-80764454D02*
X57847969Y-80478740D01*
X57847969Y-80478740D02*
X57800350Y-80383502D01*
X57800350Y-80383502D02*
X57752731Y-80335883D01*
X57752731Y-80335883D02*
X57657493Y-80288264D01*
X57657493Y-80288264D02*
X57467017Y-80288264D01*
X57467017Y-80288264D02*
X57371779Y-80335883D01*
X68847971Y-82041065D02*
X68705114Y-82088684D01*
X68705114Y-82088684D02*
X68657495Y-82136303D01*
X68657495Y-82136303D02*
X68609876Y-82231541D01*
X68609876Y-82231541D02*
X68609876Y-82374398D01*
X68609876Y-82374398D02*
X68657495Y-82469636D01*
X68657495Y-82469636D02*
X68705114Y-82517256D01*
X68705114Y-82517256D02*
X68800352Y-82564875D01*
X68800352Y-82564875D02*
X69181304Y-82564875D01*
X69181304Y-82564875D02*
X69181304Y-81564875D01*
X69181304Y-81564875D02*
X68847971Y-81564875D01*
X68847971Y-81564875D02*
X68752733Y-81612494D01*
X68752733Y-81612494D02*
X68705114Y-81660113D01*
X68705114Y-81660113D02*
X68657495Y-81755351D01*
X68657495Y-81755351D02*
X68657495Y-81850589D01*
X68657495Y-81850589D02*
X68705114Y-81945827D01*
X68705114Y-81945827D02*
X68752733Y-81993446D01*
X68752733Y-81993446D02*
X68847971Y-82041065D01*
X68847971Y-82041065D02*
X69181304Y-82041065D01*
X68276542Y-81898208D02*
X68038447Y-82564875D01*
X67800352Y-81898208D02*
X68038447Y-82564875D01*
X68038447Y-82564875D02*
X68133685Y-82802970D01*
X68133685Y-82802970D02*
X68181304Y-82850589D01*
X68181304Y-82850589D02*
X68276542Y-82898208D01*
X67419399Y-82469636D02*
X67371780Y-82517256D01*
X67371780Y-82517256D02*
X67419399Y-82564875D01*
X67419399Y-82564875D02*
X67467018Y-82517256D01*
X67467018Y-82517256D02*
X67419399Y-82469636D01*
X67419399Y-82469636D02*
X67419399Y-82564875D01*
X67419399Y-81945827D02*
X67371780Y-81993446D01*
X67371780Y-81993446D02*
X67419399Y-82041065D01*
X67419399Y-82041065D02*
X67467018Y-81993446D01*
X67467018Y-81993446D02*
X67419399Y-81945827D01*
X67419399Y-81945827D02*
X67419399Y-82041065D01*
X66181304Y-82564875D02*
X66181304Y-81564875D01*
X66181304Y-81564875D02*
X65943209Y-81564875D01*
X65943209Y-81564875D02*
X65800352Y-81612494D01*
X65800352Y-81612494D02*
X65705114Y-81707732D01*
X65705114Y-81707732D02*
X65657495Y-81802970D01*
X65657495Y-81802970D02*
X65609876Y-81993446D01*
X65609876Y-81993446D02*
X65609876Y-82136303D01*
X65609876Y-82136303D02*
X65657495Y-82326779D01*
X65657495Y-82326779D02*
X65705114Y-82422017D01*
X65705114Y-82422017D02*
X65800352Y-82517256D01*
X65800352Y-82517256D02*
X65943209Y-82564875D01*
X65943209Y-82564875D02*
X66181304Y-82564875D01*
X64752733Y-82564875D02*
X64752733Y-82041065D01*
X64752733Y-82041065D02*
X64800352Y-81945827D01*
X64800352Y-81945827D02*
X64895590Y-81898208D01*
X64895590Y-81898208D02*
X65086066Y-81898208D01*
X65086066Y-81898208D02*
X65181304Y-81945827D01*
X64752733Y-82517256D02*
X64847971Y-82564875D01*
X64847971Y-82564875D02*
X65086066Y-82564875D01*
X65086066Y-82564875D02*
X65181304Y-82517256D01*
X65181304Y-82517256D02*
X65228923Y-82422017D01*
X65228923Y-82422017D02*
X65228923Y-82326779D01*
X65228923Y-82326779D02*
X65181304Y-82231541D01*
X65181304Y-82231541D02*
X65086066Y-82183922D01*
X65086066Y-82183922D02*
X64847971Y-82183922D01*
X64847971Y-82183922D02*
X64752733Y-82136303D01*
X64371780Y-81898208D02*
X64133685Y-82564875D01*
X63895590Y-81898208D02*
X64133685Y-82564875D01*
X64133685Y-82564875D02*
X64228923Y-82802970D01*
X64228923Y-82802970D02*
X64276542Y-82850589D01*
X64276542Y-82850589D02*
X64371780Y-82898208D01*
X63371780Y-82564875D02*
X63467018Y-82517256D01*
X63467018Y-82517256D02*
X63514637Y-82422017D01*
X63514637Y-82422017D02*
X63514637Y-81564875D01*
X62609875Y-82517256D02*
X62705113Y-82564875D01*
X62705113Y-82564875D02*
X62895589Y-82564875D01*
X62895589Y-82564875D02*
X62990827Y-82517256D01*
X62990827Y-82517256D02*
X63038446Y-82422017D01*
X63038446Y-82422017D02*
X63038446Y-82041065D01*
X63038446Y-82041065D02*
X62990827Y-81945827D01*
X62990827Y-81945827D02*
X62895589Y-81898208D01*
X62895589Y-81898208D02*
X62705113Y-81898208D01*
X62705113Y-81898208D02*
X62609875Y-81945827D01*
X62609875Y-81945827D02*
X62562256Y-82041065D01*
X62562256Y-82041065D02*
X62562256Y-82136303D01*
X62562256Y-82136303D02*
X63038446Y-82231541D01*
X62133684Y-81898208D02*
X62133684Y-82564875D01*
X62133684Y-81993446D02*
X62086065Y-81945827D01*
X62086065Y-81945827D02*
X61990827Y-81898208D01*
X61990827Y-81898208D02*
X61847970Y-81898208D01*
X61847970Y-81898208D02*
X61752732Y-81945827D01*
X61752732Y-81945827D02*
X61705113Y-82041065D01*
X61705113Y-82041065D02*
X61705113Y-82564875D01*
X60133684Y-82041065D02*
X60467017Y-82041065D01*
X60467017Y-82564875D02*
X60467017Y-81564875D01*
X60467017Y-81564875D02*
X59990827Y-81564875D01*
X59228922Y-82517256D02*
X59324160Y-82564875D01*
X59324160Y-82564875D02*
X59514636Y-82564875D01*
X59514636Y-82564875D02*
X59609874Y-82517256D01*
X59609874Y-82517256D02*
X59657493Y-82422017D01*
X59657493Y-82422017D02*
X59657493Y-82041065D01*
X59657493Y-82041065D02*
X59609874Y-81945827D01*
X59609874Y-81945827D02*
X59514636Y-81898208D01*
X59514636Y-81898208D02*
X59324160Y-81898208D01*
X59324160Y-81898208D02*
X59228922Y-81945827D01*
X59228922Y-81945827D02*
X59181303Y-82041065D01*
X59181303Y-82041065D02*
X59181303Y-82136303D01*
X59181303Y-82136303D02*
X59657493Y-82231541D01*
X58752731Y-82564875D02*
X58752731Y-81898208D01*
X58752731Y-81564875D02*
X58800350Y-81612494D01*
X58800350Y-81612494D02*
X58752731Y-81660113D01*
X58752731Y-81660113D02*
X58705112Y-81612494D01*
X58705112Y-81612494D02*
X58752731Y-81564875D01*
X58752731Y-81564875D02*
X58752731Y-81660113D01*
X58324160Y-82517256D02*
X58228922Y-82564875D01*
X58228922Y-82564875D02*
X58038446Y-82564875D01*
X58038446Y-82564875D02*
X57943208Y-82517256D01*
X57943208Y-82517256D02*
X57895589Y-82422017D01*
X57895589Y-82422017D02*
X57895589Y-82374398D01*
X57895589Y-82374398D02*
X57943208Y-82279160D01*
X57943208Y-82279160D02*
X58038446Y-82231541D01*
X58038446Y-82231541D02*
X58181303Y-82231541D01*
X58181303Y-82231541D02*
X58276541Y-82183922D01*
X58276541Y-82183922D02*
X58324160Y-82088684D01*
X58324160Y-82088684D02*
X58324160Y-82041065D01*
X58324160Y-82041065D02*
X58276541Y-81945827D01*
X58276541Y-81945827D02*
X58181303Y-81898208D01*
X58181303Y-81898208D02*
X58038446Y-81898208D01*
X58038446Y-81898208D02*
X57943208Y-81945827D01*
X57609874Y-81898208D02*
X57228922Y-81898208D01*
X57467017Y-81564875D02*
X57467017Y-82422017D01*
X57467017Y-82422017D02*
X57419398Y-82517256D01*
X57419398Y-82517256D02*
X57324160Y-82564875D01*
X57324160Y-82564875D02*
X57228922Y-82564875D01*
X67038445Y-83270057D02*
X66990826Y-83222438D01*
X66990826Y-83222438D02*
X66895588Y-83174819D01*
X66895588Y-83174819D02*
X66657493Y-83174819D01*
X66657493Y-83174819D02*
X66562255Y-83222438D01*
X66562255Y-83222438D02*
X66514636Y-83270057D01*
X66514636Y-83270057D02*
X66467017Y-83365295D01*
X66467017Y-83365295D02*
X66467017Y-83460533D01*
X66467017Y-83460533D02*
X66514636Y-83603390D01*
X66514636Y-83603390D02*
X67086064Y-84174819D01*
X67086064Y-84174819D02*
X66467017Y-84174819D01*
X65847969Y-83174819D02*
X65752731Y-83174819D01*
X65752731Y-83174819D02*
X65657493Y-83222438D01*
X65657493Y-83222438D02*
X65609874Y-83270057D01*
X65609874Y-83270057D02*
X65562255Y-83365295D01*
X65562255Y-83365295D02*
X65514636Y-83555771D01*
X65514636Y-83555771D02*
X65514636Y-83793866D01*
X65514636Y-83793866D02*
X65562255Y-83984342D01*
X65562255Y-83984342D02*
X65609874Y-84079580D01*
X65609874Y-84079580D02*
X65657493Y-84127200D01*
X65657493Y-84127200D02*
X65752731Y-84174819D01*
X65752731Y-84174819D02*
X65847969Y-84174819D01*
X65847969Y-84174819D02*
X65943207Y-84127200D01*
X65943207Y-84127200D02*
X65990826Y-84079580D01*
X65990826Y-84079580D02*
X66038445Y-83984342D01*
X66038445Y-83984342D02*
X66086064Y-83793866D01*
X66086064Y-83793866D02*
X66086064Y-83555771D01*
X66086064Y-83555771D02*
X66038445Y-83365295D01*
X66038445Y-83365295D02*
X65990826Y-83270057D01*
X65990826Y-83270057D02*
X65943207Y-83222438D01*
X65943207Y-83222438D02*
X65847969Y-83174819D01*
X65133683Y-83270057D02*
X65086064Y-83222438D01*
X65086064Y-83222438D02*
X64990826Y-83174819D01*
X64990826Y-83174819D02*
X64752731Y-83174819D01*
X64752731Y-83174819D02*
X64657493Y-83222438D01*
X64657493Y-83222438D02*
X64609874Y-83270057D01*
X64609874Y-83270057D02*
X64562255Y-83365295D01*
X64562255Y-83365295D02*
X64562255Y-83460533D01*
X64562255Y-83460533D02*
X64609874Y-83603390D01*
X64609874Y-83603390D02*
X65181302Y-84174819D01*
X65181302Y-84174819D02*
X64562255Y-84174819D01*
X63657493Y-83174819D02*
X64133683Y-83174819D01*
X64133683Y-83174819D02*
X64181302Y-83651009D01*
X64181302Y-83651009D02*
X64133683Y-83603390D01*
X64133683Y-83603390D02*
X64038445Y-83555771D01*
X64038445Y-83555771D02*
X63800350Y-83555771D01*
X63800350Y-83555771D02*
X63705112Y-83603390D01*
X63705112Y-83603390D02*
X63657493Y-83651009D01*
X63657493Y-83651009D02*
X63609874Y-83746247D01*
X63609874Y-83746247D02*
X63609874Y-83984342D01*
X63609874Y-83984342D02*
X63657493Y-84079580D01*
X63657493Y-84079580D02*
X63705112Y-84127200D01*
X63705112Y-84127200D02*
X63800350Y-84174819D01*
X63800350Y-84174819D02*
X64038445Y-84174819D01*
X64038445Y-84174819D02*
X64133683Y-84127200D01*
X64133683Y-84127200D02*
X64181302Y-84079580D01*
X63181302Y-83793866D02*
X62419398Y-83793866D01*
X61752731Y-83174819D02*
X61657493Y-83174819D01*
X61657493Y-83174819D02*
X61562255Y-83222438D01*
X61562255Y-83222438D02*
X61514636Y-83270057D01*
X61514636Y-83270057D02*
X61467017Y-83365295D01*
X61467017Y-83365295D02*
X61419398Y-83555771D01*
X61419398Y-83555771D02*
X61419398Y-83793866D01*
X61419398Y-83793866D02*
X61467017Y-83984342D01*
X61467017Y-83984342D02*
X61514636Y-84079580D01*
X61514636Y-84079580D02*
X61562255Y-84127200D01*
X61562255Y-84127200D02*
X61657493Y-84174819D01*
X61657493Y-84174819D02*
X61752731Y-84174819D01*
X61752731Y-84174819D02*
X61847969Y-84127200D01*
X61847969Y-84127200D02*
X61895588Y-84079580D01*
X61895588Y-84079580D02*
X61943207Y-83984342D01*
X61943207Y-83984342D02*
X61990826Y-83793866D01*
X61990826Y-83793866D02*
X61990826Y-83555771D01*
X61990826Y-83555771D02*
X61943207Y-83365295D01*
X61943207Y-83365295D02*
X61895588Y-83270057D01*
X61895588Y-83270057D02*
X61847969Y-83222438D01*
X61847969Y-83222438D02*
X61752731Y-83174819D01*
X60467017Y-84174819D02*
X61038445Y-84174819D01*
X60752731Y-84174819D02*
X60752731Y-83174819D01*
X60752731Y-83174819D02*
X60847969Y-83317676D01*
X60847969Y-83317676D02*
X60943207Y-83412914D01*
X60943207Y-83412914D02*
X61038445Y-83460533D01*
X60038445Y-83793866D02*
X59276541Y-83793866D01*
X58609874Y-83174819D02*
X58514636Y-83174819D01*
X58514636Y-83174819D02*
X58419398Y-83222438D01*
X58419398Y-83222438D02*
X58371779Y-83270057D01*
X58371779Y-83270057D02*
X58324160Y-83365295D01*
X58324160Y-83365295D02*
X58276541Y-83555771D01*
X58276541Y-83555771D02*
X58276541Y-83793866D01*
X58276541Y-83793866D02*
X58324160Y-83984342D01*
X58324160Y-83984342D02*
X58371779Y-84079580D01*
X58371779Y-84079580D02*
X58419398Y-84127200D01*
X58419398Y-84127200D02*
X58514636Y-84174819D01*
X58514636Y-84174819D02*
X58609874Y-84174819D01*
X58609874Y-84174819D02*
X58705112Y-84127200D01*
X58705112Y-84127200D02*
X58752731Y-84079580D01*
X58752731Y-84079580D02*
X58800350Y-83984342D01*
X58800350Y-83984342D02*
X58847969Y-83793866D01*
X58847969Y-83793866D02*
X58847969Y-83555771D01*
X58847969Y-83555771D02*
X58800350Y-83365295D01*
X58800350Y-83365295D02*
X58752731Y-83270057D01*
X58752731Y-83270057D02*
X58705112Y-83222438D01*
X58705112Y-83222438D02*
X58609874Y-83174819D01*
X57800350Y-84174819D02*
X57609874Y-84174819D01*
X57609874Y-84174819D02*
X57514636Y-84127200D01*
X57514636Y-84127200D02*
X57467017Y-84079580D01*
X57467017Y-84079580D02*
X57371779Y-83936723D01*
X57371779Y-83936723D02*
X57324160Y-83746247D01*
X57324160Y-83746247D02*
X57324160Y-83365295D01*
X57324160Y-83365295D02*
X57371779Y-83270057D01*
X57371779Y-83270057D02*
X57419398Y-83222438D01*
X57419398Y-83222438D02*
X57514636Y-83174819D01*
X57514636Y-83174819D02*
X57705112Y-83174819D01*
X57705112Y-83174819D02*
X57800350Y-83222438D01*
X57800350Y-83222438D02*
X57847969Y-83270057D01*
X57847969Y-83270057D02*
X57895588Y-83365295D01*
X57895588Y-83365295D02*
X57895588Y-83603390D01*
X57895588Y-83603390D02*
X57847969Y-83698628D01*
X57847969Y-83698628D02*
X57800350Y-83746247D01*
X57800350Y-83746247D02*
X57705112Y-83793866D01*
X57705112Y-83793866D02*
X57514636Y-83793866D01*
X57514636Y-83793866D02*
X57419398Y-83746247D01*
X57419398Y-83746247D02*
X57371779Y-83698628D01*
X57371779Y-83698628D02*
X57324160Y-83603390D01*
X56174411Y-39722438D02*
X56269649Y-39674819D01*
X56269649Y-39674819D02*
X56412506Y-39674819D01*
X56412506Y-39674819D02*
X56555363Y-39722438D01*
X56555363Y-39722438D02*
X56650601Y-39817676D01*
X56650601Y-39817676D02*
X56698220Y-39912914D01*
X56698220Y-39912914D02*
X56745839Y-40103390D01*
X56745839Y-40103390D02*
X56745839Y-40246247D01*
X56745839Y-40246247D02*
X56698220Y-40436723D01*
X56698220Y-40436723D02*
X56650601Y-40531961D01*
X56650601Y-40531961D02*
X56555363Y-40627200D01*
X56555363Y-40627200D02*
X56412506Y-40674819D01*
X56412506Y-40674819D02*
X56317268Y-40674819D01*
X56317268Y-40674819D02*
X56174411Y-40627200D01*
X56174411Y-40627200D02*
X56126792Y-40579580D01*
X56126792Y-40579580D02*
X56126792Y-40246247D01*
X56126792Y-40246247D02*
X56317268Y-40246247D01*
X55698220Y-40674819D02*
X55698220Y-39674819D01*
X55698220Y-39674819D02*
X55126792Y-40674819D01*
X55126792Y-40674819D02*
X55126792Y-39674819D01*
X54650601Y-40674819D02*
X54650601Y-39674819D01*
X54650601Y-39674819D02*
X54412506Y-39674819D01*
X54412506Y-39674819D02*
X54269649Y-39722438D01*
X54269649Y-39722438D02*
X54174411Y-39817676D01*
X54174411Y-39817676D02*
X54126792Y-39912914D01*
X54126792Y-39912914D02*
X54079173Y-40103390D01*
X54079173Y-40103390D02*
X54079173Y-40246247D01*
X54079173Y-40246247D02*
X54126792Y-40436723D01*
X54126792Y-40436723D02*
X54174411Y-40531961D01*
X54174411Y-40531961D02*
X54269649Y-40627200D01*
X54269649Y-40627200D02*
X54412506Y-40674819D01*
X54412506Y-40674819D02*
X54650601Y-40674819D01*
X72665180Y-42133094D02*
X73665180Y-42133094D01*
X73665180Y-42133094D02*
X73665180Y-41894999D01*
X73665180Y-41894999D02*
X73617561Y-41752142D01*
X73617561Y-41752142D02*
X73522323Y-41656904D01*
X73522323Y-41656904D02*
X73427085Y-41609285D01*
X73427085Y-41609285D02*
X73236609Y-41561666D01*
X73236609Y-41561666D02*
X73093752Y-41561666D01*
X73093752Y-41561666D02*
X72903276Y-41609285D01*
X72903276Y-41609285D02*
X72808038Y-41656904D01*
X72808038Y-41656904D02*
X72712800Y-41752142D01*
X72712800Y-41752142D02*
X72665180Y-41894999D01*
X72665180Y-41894999D02*
X72665180Y-42133094D01*
X73665180Y-40942618D02*
X73665180Y-40847380D01*
X73665180Y-40847380D02*
X73617561Y-40752142D01*
X73617561Y-40752142D02*
X73569942Y-40704523D01*
X73569942Y-40704523D02*
X73474704Y-40656904D01*
X73474704Y-40656904D02*
X73284228Y-40609285D01*
X73284228Y-40609285D02*
X73046133Y-40609285D01*
X73046133Y-40609285D02*
X72855657Y-40656904D01*
X72855657Y-40656904D02*
X72760419Y-40704523D01*
X72760419Y-40704523D02*
X72712800Y-40752142D01*
X72712800Y-40752142D02*
X72665180Y-40847380D01*
X72665180Y-40847380D02*
X72665180Y-40942618D01*
X72665180Y-40942618D02*
X72712800Y-41037856D01*
X72712800Y-41037856D02*
X72760419Y-41085475D01*
X72760419Y-41085475D02*
X72855657Y-41133094D01*
X72855657Y-41133094D02*
X73046133Y-41180713D01*
X73046133Y-41180713D02*
X73284228Y-41180713D01*
X73284228Y-41180713D02*
X73474704Y-41133094D01*
X73474704Y-41133094D02*
X73569942Y-41085475D01*
X73569942Y-41085475D02*
X73617561Y-41037856D01*
X73617561Y-41037856D02*
X73665180Y-40942618D01*
D11*
%TO.C,G\u002A\u002A\u002A*%
X30873667Y-73806000D02*
X30870612Y-73822808D01*
X30845445Y-73827166D01*
X30840378Y-73822513D01*
X30845445Y-73784833D01*
X30858178Y-73779866D01*
X30873667Y-73806000D01*
G36*
X30873667Y-73806000D02*
G01*
X30870612Y-73822808D01*
X30845445Y-73827166D01*
X30840378Y-73822513D01*
X30845445Y-73784833D01*
X30858178Y-73779866D01*
X30873667Y-73806000D01*
G37*
X32603297Y-75007840D02*
X32630500Y-75075003D01*
X32609373Y-75136429D01*
X32524667Y-75173156D01*
X32449492Y-75178705D01*
X32363977Y-75142837D01*
X32344239Y-75121888D01*
X32340896Y-75082291D01*
X32402613Y-75034978D01*
X32429687Y-75019798D01*
X32531468Y-74988579D01*
X32603297Y-75007840D01*
G36*
X32603297Y-75007840D02*
G01*
X32630500Y-75075003D01*
X32609373Y-75136429D01*
X32524667Y-75173156D01*
X32449492Y-75178705D01*
X32363977Y-75142837D01*
X32344239Y-75121888D01*
X32340896Y-75082291D01*
X32402613Y-75034978D01*
X32429687Y-75019798D01*
X32531468Y-74988579D01*
X32603297Y-75007840D01*
G37*
X32928905Y-75382999D02*
X32962290Y-75428705D01*
X32988987Y-75514574D01*
X32984458Y-75554204D01*
X32947717Y-75578814D01*
X32853097Y-75578074D01*
X32798709Y-75570999D01*
X32715700Y-75532744D01*
X32708303Y-75470889D01*
X32779482Y-75392888D01*
X32841248Y-75350429D01*
X32883214Y-75345624D01*
X32928905Y-75382999D01*
G36*
X32928905Y-75382999D02*
G01*
X32962290Y-75428705D01*
X32988987Y-75514574D01*
X32984458Y-75554204D01*
X32947717Y-75578814D01*
X32853097Y-75578074D01*
X32798709Y-75570999D01*
X32715700Y-75532744D01*
X32708303Y-75470889D01*
X32779482Y-75392888D01*
X32841248Y-75350429D01*
X32883214Y-75345624D01*
X32928905Y-75382999D01*
G37*
X36543165Y-75015815D02*
X36559500Y-75070737D01*
X36505541Y-75130552D01*
X36462489Y-75150085D01*
X36363605Y-75170240D01*
X36349117Y-75169952D01*
X36303448Y-75148892D01*
X36300105Y-75083937D01*
X36302214Y-75072052D01*
X36337899Y-75010180D01*
X36426338Y-74986837D01*
X36468082Y-74986735D01*
X36543165Y-75015815D01*
G36*
X36543165Y-75015815D02*
G01*
X36559500Y-75070737D01*
X36505541Y-75130552D01*
X36462489Y-75150085D01*
X36363605Y-75170240D01*
X36349117Y-75169952D01*
X36303448Y-75148892D01*
X36300105Y-75083937D01*
X36302214Y-75072052D01*
X36337899Y-75010180D01*
X36426338Y-74986837D01*
X36468082Y-74986735D01*
X36543165Y-75015815D01*
G37*
X36190533Y-74686510D02*
X36222713Y-74727334D01*
X36245312Y-74790250D01*
X36240558Y-74814849D01*
X36221988Y-74798242D01*
X36189763Y-74776708D01*
X36098330Y-74777871D01*
X36073955Y-74782010D01*
X36011622Y-74778420D01*
X35996000Y-74733588D01*
X35997529Y-74717273D01*
X36039234Y-74661700D01*
X36114246Y-74648862D01*
X36190533Y-74686510D01*
G36*
X36190533Y-74686510D02*
G01*
X36222713Y-74727334D01*
X36245312Y-74790250D01*
X36240558Y-74814849D01*
X36221988Y-74798242D01*
X36189763Y-74776708D01*
X36098330Y-74777871D01*
X36073955Y-74782010D01*
X36011622Y-74778420D01*
X35996000Y-74733588D01*
X35997529Y-74717273D01*
X36039234Y-74661700D01*
X36114246Y-74648862D01*
X36190533Y-74686510D01*
G37*
X32923604Y-74648094D02*
X32988088Y-74677095D01*
X32991898Y-74680800D01*
X33009682Y-74745262D01*
X32972936Y-74815830D01*
X32895569Y-74864351D01*
X32852432Y-74876041D01*
X32785638Y-74875848D01*
X32715756Y-74833781D01*
X32678544Y-74792455D01*
X32670399Y-74735934D01*
X32680035Y-74714543D01*
X32694000Y-74660653D01*
X32695976Y-74653662D01*
X32743958Y-74634500D01*
X32831031Y-74633270D01*
X32923604Y-74648094D01*
G36*
X32923604Y-74648094D02*
G01*
X32988088Y-74677095D01*
X32991898Y-74680800D01*
X33009682Y-74745262D01*
X32972936Y-74815830D01*
X32895569Y-74864351D01*
X32852432Y-74876041D01*
X32785638Y-74875848D01*
X32715756Y-74833781D01*
X32678544Y-74792455D01*
X32670399Y-74735934D01*
X32680035Y-74714543D01*
X32694000Y-74660653D01*
X32695976Y-74653662D01*
X32743958Y-74634500D01*
X32831031Y-74633270D01*
X32923604Y-74648094D01*
G37*
X36237997Y-75245034D02*
X36326420Y-75300144D01*
X36351531Y-75331638D01*
X36354362Y-75351311D01*
X36297053Y-75331894D01*
X36294703Y-75330951D01*
X36213613Y-75302892D01*
X36187065Y-75315737D01*
X36197306Y-75377625D01*
X36203072Y-75405944D01*
X36187813Y-75447477D01*
X36111952Y-75457000D01*
X36034511Y-75445971D01*
X35949640Y-75405735D01*
X35926060Y-75380621D01*
X35926839Y-75342477D01*
X35991480Y-75294610D01*
X36120407Y-75243133D01*
X36237997Y-75245034D01*
G36*
X36237997Y-75245034D02*
G01*
X36326420Y-75300144D01*
X36351531Y-75331638D01*
X36354362Y-75351311D01*
X36297053Y-75331894D01*
X36294703Y-75330951D01*
X36213613Y-75302892D01*
X36187065Y-75315737D01*
X36197306Y-75377625D01*
X36203072Y-75405944D01*
X36187813Y-75447477D01*
X36111952Y-75457000D01*
X36034511Y-75445971D01*
X35949640Y-75405735D01*
X35926060Y-75380621D01*
X35926839Y-75342477D01*
X35991480Y-75294610D01*
X36120407Y-75243133D01*
X36237997Y-75245034D01*
G37*
X37823967Y-73337503D02*
X37898864Y-73360642D01*
X37945723Y-73384981D01*
X37971843Y-73431322D01*
X37961706Y-73514027D01*
X37944803Y-73580225D01*
X37906826Y-73709872D01*
X37859953Y-73856697D01*
X37810799Y-74000875D01*
X37765980Y-74122582D01*
X37732113Y-74201995D01*
X37679617Y-74262536D01*
X37607763Y-74285613D01*
X37546177Y-74262799D01*
X37520114Y-74194937D01*
X37521359Y-74180951D01*
X37536959Y-74108024D01*
X37566853Y-73997222D01*
X37606504Y-73862831D01*
X37651378Y-73719140D01*
X37696939Y-73580436D01*
X37738653Y-73461005D01*
X37771985Y-73375137D01*
X37792399Y-73337117D01*
X37823967Y-73337503D01*
G36*
X37823967Y-73337503D02*
G01*
X37898864Y-73360642D01*
X37945723Y-73384981D01*
X37971843Y-73431322D01*
X37961706Y-73514027D01*
X37944803Y-73580225D01*
X37906826Y-73709872D01*
X37859953Y-73856697D01*
X37810799Y-74000875D01*
X37765980Y-74122582D01*
X37732113Y-74201995D01*
X37679617Y-74262536D01*
X37607763Y-74285613D01*
X37546177Y-74262799D01*
X37520114Y-74194937D01*
X37521359Y-74180951D01*
X37536959Y-74108024D01*
X37566853Y-73997222D01*
X37606504Y-73862831D01*
X37651378Y-73719140D01*
X37696939Y-73580436D01*
X37738653Y-73461005D01*
X37771985Y-73375137D01*
X37792399Y-73337117D01*
X37823967Y-73337503D01*
G37*
X30879195Y-73893697D02*
X30918234Y-73953281D01*
X30929823Y-73977939D01*
X30966725Y-74070177D01*
X31007568Y-74185616D01*
X31045449Y-74303215D01*
X31073463Y-74401931D01*
X31084708Y-74460722D01*
X31070507Y-74475041D01*
X30994140Y-74498996D01*
X30873667Y-74517378D01*
X30662000Y-74538437D01*
X30662000Y-74856930D01*
X30660424Y-74943643D01*
X30651655Y-75076375D01*
X30636916Y-75179803D01*
X30618177Y-75236837D01*
X30568692Y-75275991D01*
X30447936Y-75298250D01*
X30358181Y-75287426D01*
X30277978Y-75234103D01*
X30257724Y-75137820D01*
X30298304Y-75000341D01*
X30328707Y-74909280D01*
X30356884Y-74747778D01*
X30368056Y-74558952D01*
X30373508Y-74405665D01*
X30396222Y-74242970D01*
X30440260Y-74126303D01*
X30509691Y-74046092D01*
X30608580Y-73992763D01*
X30617201Y-73989503D01*
X30728089Y-73943051D01*
X30808961Y-73902000D01*
X30839016Y-73886681D01*
X30879195Y-73893697D01*
G36*
X30879195Y-73893697D02*
G01*
X30918234Y-73953281D01*
X30929823Y-73977939D01*
X30966725Y-74070177D01*
X31007568Y-74185616D01*
X31045449Y-74303215D01*
X31073463Y-74401931D01*
X31084708Y-74460722D01*
X31070507Y-74475041D01*
X30994140Y-74498996D01*
X30873667Y-74517378D01*
X30662000Y-74538437D01*
X30662000Y-74856930D01*
X30660424Y-74943643D01*
X30651655Y-75076375D01*
X30636916Y-75179803D01*
X30618177Y-75236837D01*
X30568692Y-75275991D01*
X30447936Y-75298250D01*
X30358181Y-75287426D01*
X30277978Y-75234103D01*
X30257724Y-75137820D01*
X30298304Y-75000341D01*
X30328707Y-74909280D01*
X30356884Y-74747778D01*
X30368056Y-74558952D01*
X30373508Y-74405665D01*
X30396222Y-74242970D01*
X30440260Y-74126303D01*
X30509691Y-74046092D01*
X30608580Y-73992763D01*
X30617201Y-73989503D01*
X30728089Y-73943051D01*
X30808961Y-73902000D01*
X30839016Y-73886681D01*
X30879195Y-73893697D01*
G37*
X36299799Y-66154170D02*
X36318497Y-66229432D01*
X36324941Y-66343718D01*
X36319344Y-66482293D01*
X36301921Y-66630424D01*
X36272885Y-66773375D01*
X36255211Y-66844364D01*
X36216477Y-67036333D01*
X36206015Y-67184988D01*
X36225378Y-67303326D01*
X36276118Y-67404344D01*
X36359788Y-67501038D01*
X36420097Y-67564941D01*
X36530513Y-67702435D01*
X36640422Y-67861447D01*
X36744034Y-68030967D01*
X36835555Y-68199990D01*
X36909193Y-68357506D01*
X36959155Y-68492510D01*
X36979650Y-68593992D01*
X36964885Y-68650945D01*
X36915972Y-68676969D01*
X36817404Y-68694250D01*
X36786515Y-68691911D01*
X36722406Y-68666788D01*
X36662526Y-68608245D01*
X36602019Y-68509021D01*
X36536025Y-68361853D01*
X36459687Y-68159480D01*
X36419682Y-68054707D01*
X36359728Y-67917914D01*
X36302922Y-67808763D01*
X36257566Y-67744307D01*
X36239155Y-67726839D01*
X36177450Y-67686047D01*
X36095034Y-67670060D01*
X35960383Y-67671113D01*
X35940585Y-67671871D01*
X35814393Y-67671301D01*
X35742904Y-67654397D01*
X35700312Y-67615653D01*
X35689865Y-67599711D01*
X35684138Y-67562065D01*
X35727957Y-67528631D01*
X35835834Y-67485471D01*
X36017167Y-67419485D01*
X36002849Y-67213421D01*
X35998338Y-67161012D01*
X35975926Y-67051884D01*
X35931560Y-66995819D01*
X35855331Y-66985335D01*
X35737330Y-67012950D01*
X35695072Y-67024479D01*
X35599901Y-67027896D01*
X35547541Y-66980739D01*
X35530982Y-66878436D01*
X35537338Y-66826171D01*
X35577073Y-66776689D01*
X35667932Y-66746358D01*
X35826667Y-66726573D01*
X36017167Y-66709875D01*
X36042079Y-66519375D01*
X36063908Y-66383299D01*
X36095936Y-66269049D01*
X36136726Y-66205602D01*
X36189353Y-66186000D01*
X36215963Y-66182569D01*
X36250000Y-66152376D01*
X36251749Y-66142278D01*
X36282178Y-66133667D01*
X36299799Y-66154170D01*
G36*
X36299799Y-66154170D02*
G01*
X36318497Y-66229432D01*
X36324941Y-66343718D01*
X36319344Y-66482293D01*
X36301921Y-66630424D01*
X36272885Y-66773375D01*
X36255211Y-66844364D01*
X36216477Y-67036333D01*
X36206015Y-67184988D01*
X36225378Y-67303326D01*
X36276118Y-67404344D01*
X36359788Y-67501038D01*
X36420097Y-67564941D01*
X36530513Y-67702435D01*
X36640422Y-67861447D01*
X36744034Y-68030967D01*
X36835555Y-68199990D01*
X36909193Y-68357506D01*
X36959155Y-68492510D01*
X36979650Y-68593992D01*
X36964885Y-68650945D01*
X36915972Y-68676969D01*
X36817404Y-68694250D01*
X36786515Y-68691911D01*
X36722406Y-68666788D01*
X36662526Y-68608245D01*
X36602019Y-68509021D01*
X36536025Y-68361853D01*
X36459687Y-68159480D01*
X36419682Y-68054707D01*
X36359728Y-67917914D01*
X36302922Y-67808763D01*
X36257566Y-67744307D01*
X36239155Y-67726839D01*
X36177450Y-67686047D01*
X36095034Y-67670060D01*
X35960383Y-67671113D01*
X35940585Y-67671871D01*
X35814393Y-67671301D01*
X35742904Y-67654397D01*
X35700312Y-67615653D01*
X35689865Y-67599711D01*
X35684138Y-67562065D01*
X35727957Y-67528631D01*
X35835834Y-67485471D01*
X36017167Y-67419485D01*
X36002849Y-67213421D01*
X35998338Y-67161012D01*
X35975926Y-67051884D01*
X35931560Y-66995819D01*
X35855331Y-66985335D01*
X35737330Y-67012950D01*
X35695072Y-67024479D01*
X35599901Y-67027896D01*
X35547541Y-66980739D01*
X35530982Y-66878436D01*
X35537338Y-66826171D01*
X35577073Y-66776689D01*
X35667932Y-66746358D01*
X35826667Y-66726573D01*
X36017167Y-66709875D01*
X36042079Y-66519375D01*
X36063908Y-66383299D01*
X36095936Y-66269049D01*
X36136726Y-66205602D01*
X36189353Y-66186000D01*
X36215963Y-66182569D01*
X36250000Y-66152376D01*
X36251749Y-66142278D01*
X36282178Y-66133667D01*
X36299799Y-66154170D01*
G37*
X29081999Y-73506696D02*
X29092450Y-73519448D01*
X29115051Y-73580896D01*
X29120480Y-73681383D01*
X29109733Y-73832624D01*
X29099440Y-73939232D01*
X29094932Y-74027881D01*
X29102388Y-74073957D01*
X29124258Y-74089057D01*
X29162989Y-74084774D01*
X29211604Y-74074713D01*
X29306328Y-74055933D01*
X29348803Y-74061709D01*
X29383356Y-74115562D01*
X29408167Y-74174956D01*
X29450854Y-74176759D01*
X29514092Y-74117595D01*
X29571884Y-74048190D01*
X29635540Y-74139309D01*
X29699197Y-74230429D01*
X29781963Y-74145214D01*
X29851657Y-74083297D01*
X29904618Y-74067085D01*
X29933551Y-74109894D01*
X29942333Y-74213371D01*
X29934691Y-74314519D01*
X29912953Y-74454391D01*
X29881005Y-74613220D01*
X29842752Y-74774593D01*
X29802096Y-74922094D01*
X29762940Y-75039310D01*
X29729186Y-75109824D01*
X29701802Y-75145396D01*
X29667430Y-75162426D01*
X29625233Y-75129403D01*
X29616719Y-75117534D01*
X29590340Y-75045791D01*
X29566903Y-74935187D01*
X29550666Y-74804285D01*
X29538149Y-74678273D01*
X29519421Y-74570657D01*
X29494745Y-74516275D01*
X29461139Y-74509382D01*
X29415622Y-74544237D01*
X29403190Y-74556346D01*
X29330834Y-74598063D01*
X29273685Y-74580952D01*
X29236157Y-74508661D01*
X29222667Y-74384838D01*
X29222667Y-74270369D01*
X29103934Y-74355684D01*
X29081632Y-74371350D01*
X29002500Y-74420991D01*
X28955767Y-74441000D01*
X28949185Y-74437777D01*
X28932866Y-74393553D01*
X28926333Y-74314000D01*
X28924182Y-74253594D01*
X28904937Y-74199643D01*
X28853907Y-74200373D01*
X28757000Y-74250500D01*
X28740284Y-74260176D01*
X28640307Y-74308106D01*
X28588629Y-74307057D01*
X28581579Y-74254352D01*
X28615483Y-74147312D01*
X28645553Y-74075349D01*
X28720322Y-73918156D01*
X28804915Y-73760982D01*
X28888086Y-73624125D01*
X28958592Y-73527884D01*
X29002318Y-73481990D01*
X29038880Y-73471261D01*
X29081999Y-73506696D01*
G36*
X29081999Y-73506696D02*
G01*
X29092450Y-73519448D01*
X29115051Y-73580896D01*
X29120480Y-73681383D01*
X29109733Y-73832624D01*
X29099440Y-73939232D01*
X29094932Y-74027881D01*
X29102388Y-74073957D01*
X29124258Y-74089057D01*
X29162989Y-74084774D01*
X29211604Y-74074713D01*
X29306328Y-74055933D01*
X29348803Y-74061709D01*
X29383356Y-74115562D01*
X29408167Y-74174956D01*
X29450854Y-74176759D01*
X29514092Y-74117595D01*
X29571884Y-74048190D01*
X29635540Y-74139309D01*
X29699197Y-74230429D01*
X29781963Y-74145214D01*
X29851657Y-74083297D01*
X29904618Y-74067085D01*
X29933551Y-74109894D01*
X29942333Y-74213371D01*
X29934691Y-74314519D01*
X29912953Y-74454391D01*
X29881005Y-74613220D01*
X29842752Y-74774593D01*
X29802096Y-74922094D01*
X29762940Y-75039310D01*
X29729186Y-75109824D01*
X29701802Y-75145396D01*
X29667430Y-75162426D01*
X29625233Y-75129403D01*
X29616719Y-75117534D01*
X29590340Y-75045791D01*
X29566903Y-74935187D01*
X29550666Y-74804285D01*
X29538149Y-74678273D01*
X29519421Y-74570657D01*
X29494745Y-74516275D01*
X29461139Y-74509382D01*
X29415622Y-74544237D01*
X29403190Y-74556346D01*
X29330834Y-74598063D01*
X29273685Y-74580952D01*
X29236157Y-74508661D01*
X29222667Y-74384838D01*
X29222667Y-74270369D01*
X29103934Y-74355684D01*
X29081632Y-74371350D01*
X29002500Y-74420991D01*
X28955767Y-74441000D01*
X28949185Y-74437777D01*
X28932866Y-74393553D01*
X28926333Y-74314000D01*
X28924182Y-74253594D01*
X28904937Y-74199643D01*
X28853907Y-74200373D01*
X28757000Y-74250500D01*
X28740284Y-74260176D01*
X28640307Y-74308106D01*
X28588629Y-74307057D01*
X28581579Y-74254352D01*
X28615483Y-74147312D01*
X28645553Y-74075349D01*
X28720322Y-73918156D01*
X28804915Y-73760982D01*
X28888086Y-73624125D01*
X28958592Y-73527884D01*
X29002318Y-73481990D01*
X29038880Y-73471261D01*
X29081999Y-73506696D01*
G37*
X29545111Y-66688000D02*
X29542231Y-66692131D01*
X29564586Y-66709562D01*
X29664713Y-66704023D01*
X29683056Y-66701857D01*
X29756411Y-66698057D01*
X29808953Y-66713451D01*
X29851559Y-66758534D01*
X29895106Y-66843801D01*
X29950473Y-66979750D01*
X29971252Y-67027450D01*
X30020442Y-67097378D01*
X30075611Y-67114115D01*
X30216852Y-67124600D01*
X30349002Y-67190501D01*
X30451333Y-67304951D01*
X30456065Y-67312820D01*
X30520514Y-67440279D01*
X30532017Y-67518211D01*
X30490618Y-67546583D01*
X30396363Y-67525363D01*
X30249296Y-67454516D01*
X30073912Y-67357782D01*
X30052318Y-67462453D01*
X30047066Y-67487930D01*
X30015601Y-67645931D01*
X29998936Y-67755514D01*
X29998500Y-67829295D01*
X30015720Y-67879894D01*
X30052025Y-67919929D01*
X30108842Y-67962020D01*
X30181607Y-68026376D01*
X30232356Y-68112116D01*
X30230313Y-68185519D01*
X30171704Y-68230478D01*
X30139058Y-68238486D01*
X29979613Y-68244506D01*
X29838992Y-68201115D01*
X29725980Y-68155129D01*
X29615223Y-68157681D01*
X29508114Y-68217420D01*
X29395799Y-68337062D01*
X29323191Y-68427060D01*
X29228031Y-68538794D01*
X29150921Y-68622812D01*
X29095629Y-68674915D01*
X29027837Y-68719943D01*
X28975202Y-68721956D01*
X28934745Y-68676856D01*
X28903490Y-68580548D01*
X28878459Y-68428934D01*
X28856675Y-68217917D01*
X28850431Y-68137501D01*
X28846291Y-68003233D01*
X28855705Y-67921936D01*
X28879130Y-67886882D01*
X28920676Y-67875959D01*
X29029717Y-67859790D01*
X29170839Y-67846306D01*
X29176675Y-67845875D01*
X29358355Y-67823047D01*
X29476861Y-67779112D01*
X29552428Y-67701570D01*
X29605292Y-67577919D01*
X29622315Y-67517255D01*
X29634274Y-67348303D01*
X29578502Y-67199275D01*
X29449488Y-67051548D01*
X29291190Y-66906662D01*
X29378501Y-66793750D01*
X29397541Y-66770317D01*
X29465583Y-66701644D01*
X29519465Y-66667425D01*
X29541887Y-66665078D01*
X29545111Y-66688000D01*
G36*
X29545111Y-66688000D02*
G01*
X29542231Y-66692131D01*
X29564586Y-66709562D01*
X29664713Y-66704023D01*
X29683056Y-66701857D01*
X29756411Y-66698057D01*
X29808953Y-66713451D01*
X29851559Y-66758534D01*
X29895106Y-66843801D01*
X29950473Y-66979750D01*
X29971252Y-67027450D01*
X30020442Y-67097378D01*
X30075611Y-67114115D01*
X30216852Y-67124600D01*
X30349002Y-67190501D01*
X30451333Y-67304951D01*
X30456065Y-67312820D01*
X30520514Y-67440279D01*
X30532017Y-67518211D01*
X30490618Y-67546583D01*
X30396363Y-67525363D01*
X30249296Y-67454516D01*
X30073912Y-67357782D01*
X30052318Y-67462453D01*
X30047066Y-67487930D01*
X30015601Y-67645931D01*
X29998936Y-67755514D01*
X29998500Y-67829295D01*
X30015720Y-67879894D01*
X30052025Y-67919929D01*
X30108842Y-67962020D01*
X30181607Y-68026376D01*
X30232356Y-68112116D01*
X30230313Y-68185519D01*
X30171704Y-68230478D01*
X30139058Y-68238486D01*
X29979613Y-68244506D01*
X29838992Y-68201115D01*
X29725980Y-68155129D01*
X29615223Y-68157681D01*
X29508114Y-68217420D01*
X29395799Y-68337062D01*
X29323191Y-68427060D01*
X29228031Y-68538794D01*
X29150921Y-68622812D01*
X29095629Y-68674915D01*
X29027837Y-68719943D01*
X28975202Y-68721956D01*
X28934745Y-68676856D01*
X28903490Y-68580548D01*
X28878459Y-68428934D01*
X28856675Y-68217917D01*
X28850431Y-68137501D01*
X28846291Y-68003233D01*
X28855705Y-67921936D01*
X28879130Y-67886882D01*
X28920676Y-67875959D01*
X29029717Y-67859790D01*
X29170839Y-67846306D01*
X29176675Y-67845875D01*
X29358355Y-67823047D01*
X29476861Y-67779112D01*
X29552428Y-67701570D01*
X29605292Y-67577919D01*
X29622315Y-67517255D01*
X29634274Y-67348303D01*
X29578502Y-67199275D01*
X29449488Y-67051548D01*
X29291190Y-66906662D01*
X29378501Y-66793750D01*
X29397541Y-66770317D01*
X29465583Y-66701644D01*
X29519465Y-66667425D01*
X29541887Y-66665078D01*
X29545111Y-66688000D01*
G37*
X36581648Y-72184997D02*
X36525715Y-72273105D01*
X36459527Y-72333953D01*
X36376713Y-72361422D01*
X36308098Y-72366146D01*
X36139285Y-72340641D01*
X35957013Y-72272932D01*
X35783891Y-72170308D01*
X35719415Y-72126431D01*
X35623431Y-72082386D01*
X35540475Y-72080311D01*
X35496122Y-72094305D01*
X35451200Y-72144253D01*
X35465337Y-72212912D01*
X35530667Y-72289257D01*
X35639325Y-72362263D01*
X35783445Y-72420903D01*
X35857012Y-72439745D01*
X36025039Y-72471177D01*
X36196988Y-72492435D01*
X36377353Y-72512066D01*
X36508060Y-72539724D01*
X36562167Y-72574393D01*
X36543883Y-72617589D01*
X36512436Y-72634979D01*
X36397736Y-72656465D01*
X36229400Y-72660207D01*
X36025848Y-72646274D01*
X35805500Y-72614739D01*
X35686415Y-72594137D01*
X35565784Y-72575587D01*
X35498583Y-72568245D01*
X35453276Y-72582171D01*
X35458242Y-72632998D01*
X35522356Y-72723158D01*
X35646750Y-72854839D01*
X35663504Y-72871407D01*
X35765669Y-72972516D01*
X35850525Y-73056620D01*
X35901132Y-73106931D01*
X35930240Y-73161172D01*
X35927590Y-73260848D01*
X35925799Y-73267357D01*
X35899718Y-73333921D01*
X35874292Y-73361051D01*
X35853950Y-73345530D01*
X35793026Y-73284762D01*
X35700512Y-73186127D01*
X35584524Y-73058315D01*
X35453173Y-72910017D01*
X35358266Y-72801464D01*
X35231745Y-72652431D01*
X35146129Y-72537881D01*
X35098069Y-72446029D01*
X35084215Y-72365093D01*
X35101218Y-72283286D01*
X35145728Y-72188826D01*
X35214396Y-72069929D01*
X35282729Y-71962457D01*
X35380606Y-71845437D01*
X36207667Y-71845437D01*
X36207667Y-72028000D01*
X36212091Y-72114342D01*
X36231967Y-72170705D01*
X36272495Y-72186750D01*
X36306703Y-72180648D01*
X36362650Y-72137251D01*
X36372306Y-72089091D01*
X36362991Y-72005796D01*
X36336378Y-71918466D01*
X36299751Y-71849582D01*
X36260394Y-71821625D01*
X36241274Y-71823254D01*
X36207667Y-71845437D01*
X35380606Y-71845437D01*
X35417528Y-71801294D01*
X35565753Y-71693967D01*
X35737573Y-71634135D01*
X35943155Y-71615459D01*
X36028239Y-71617898D01*
X36135992Y-71631444D01*
X36257395Y-71661483D01*
X36412283Y-71713175D01*
X36620488Y-71791681D01*
X36799572Y-71862243D01*
X36953250Y-71924913D01*
X37064072Y-71972451D01*
X37115717Y-71998056D01*
X37115741Y-72010857D01*
X37049854Y-72023531D01*
X36912287Y-72028000D01*
X36668641Y-72028000D01*
X36634790Y-72089091D01*
X36581648Y-72184997D01*
G36*
X36581648Y-72184997D02*
G01*
X36525715Y-72273105D01*
X36459527Y-72333953D01*
X36376713Y-72361422D01*
X36308098Y-72366146D01*
X36139285Y-72340641D01*
X35957013Y-72272932D01*
X35783891Y-72170308D01*
X35719415Y-72126431D01*
X35623431Y-72082386D01*
X35540475Y-72080311D01*
X35496122Y-72094305D01*
X35451200Y-72144253D01*
X35465337Y-72212912D01*
X35530667Y-72289257D01*
X35639325Y-72362263D01*
X35783445Y-72420903D01*
X35857012Y-72439745D01*
X36025039Y-72471177D01*
X36196988Y-72492435D01*
X36377353Y-72512066D01*
X36508060Y-72539724D01*
X36562167Y-72574393D01*
X36543883Y-72617589D01*
X36512436Y-72634979D01*
X36397736Y-72656465D01*
X36229400Y-72660207D01*
X36025848Y-72646274D01*
X35805500Y-72614739D01*
X35686415Y-72594137D01*
X35565784Y-72575587D01*
X35498583Y-72568245D01*
X35453276Y-72582171D01*
X35458242Y-72632998D01*
X35522356Y-72723158D01*
X35646750Y-72854839D01*
X35663504Y-72871407D01*
X35765669Y-72972516D01*
X35850525Y-73056620D01*
X35901132Y-73106931D01*
X35930240Y-73161172D01*
X35927590Y-73260848D01*
X35925799Y-73267357D01*
X35899718Y-73333921D01*
X35874292Y-73361051D01*
X35853950Y-73345530D01*
X35793026Y-73284762D01*
X35700512Y-73186127D01*
X35584524Y-73058315D01*
X35453173Y-72910017D01*
X35358266Y-72801464D01*
X35231745Y-72652431D01*
X35146129Y-72537881D01*
X35098069Y-72446029D01*
X35084215Y-72365093D01*
X35101218Y-72283286D01*
X35145728Y-72188826D01*
X35214396Y-72069929D01*
X35282729Y-71962457D01*
X35380606Y-71845437D01*
X36207667Y-71845437D01*
X36207667Y-72028000D01*
X36212091Y-72114342D01*
X36231967Y-72170705D01*
X36272495Y-72186750D01*
X36306703Y-72180648D01*
X36362650Y-72137251D01*
X36372306Y-72089091D01*
X36362991Y-72005796D01*
X36336378Y-71918466D01*
X36299751Y-71849582D01*
X36260394Y-71821625D01*
X36241274Y-71823254D01*
X36207667Y-71845437D01*
X35380606Y-71845437D01*
X35417528Y-71801294D01*
X35565753Y-71693967D01*
X35737573Y-71634135D01*
X35943155Y-71615459D01*
X36028239Y-71617898D01*
X36135992Y-71631444D01*
X36257395Y-71661483D01*
X36412283Y-71713175D01*
X36620488Y-71791681D01*
X36799572Y-71862243D01*
X36953250Y-71924913D01*
X37064072Y-71972451D01*
X37115717Y-71998056D01*
X37115741Y-72010857D01*
X37049854Y-72023531D01*
X36912287Y-72028000D01*
X36668641Y-72028000D01*
X36634790Y-72089091D01*
X36581648Y-72184997D01*
G37*
X32166118Y-72132667D02*
X32223884Y-72160118D01*
X32233234Y-72166867D01*
X32196826Y-72188140D01*
X32102579Y-72214469D01*
X31922222Y-72254996D01*
X32032945Y-72341672D01*
X32049394Y-72354974D01*
X32116469Y-72420300D01*
X32143667Y-72466696D01*
X32134016Y-72490515D01*
X32091979Y-72564997D01*
X32022392Y-72678388D01*
X31931588Y-72820438D01*
X31825902Y-72980896D01*
X31763162Y-73074230D01*
X31654477Y-73230955D01*
X31571976Y-73340437D01*
X31509590Y-73409810D01*
X31461249Y-73446203D01*
X31420882Y-73456750D01*
X31383731Y-73454230D01*
X31358589Y-73439333D01*
X31357768Y-73402869D01*
X31383772Y-73335719D01*
X31439104Y-73228765D01*
X31526267Y-73072885D01*
X31662825Y-72831896D01*
X31490496Y-72905815D01*
X31401817Y-72935856D01*
X31188247Y-72971557D01*
X30939656Y-72977424D01*
X30683167Y-72951910D01*
X30556167Y-72930833D01*
X30662000Y-72878501D01*
X30678415Y-72871256D01*
X30785506Y-72836600D01*
X30940536Y-72797117D01*
X31115910Y-72760008D01*
X31341815Y-72715504D01*
X31512720Y-72676913D01*
X31633843Y-72641472D01*
X31722102Y-72604196D01*
X31794417Y-72560100D01*
X31863861Y-72492378D01*
X31883231Y-72399185D01*
X31819606Y-72308312D01*
X31779450Y-72277005D01*
X31727237Y-72255787D01*
X31680379Y-72281706D01*
X31618438Y-72360013D01*
X31549657Y-72435940D01*
X31383533Y-72548279D01*
X31179564Y-72628025D01*
X30962137Y-72666803D01*
X30755638Y-72656243D01*
X30696416Y-72639496D01*
X30568916Y-72561172D01*
X30482442Y-72443466D01*
X30450492Y-72302044D01*
X30450333Y-72179213D01*
X30312750Y-72256668D01*
X30243174Y-72295562D01*
X30145671Y-72345839D01*
X30093729Y-72359726D01*
X30073049Y-72338884D01*
X30069333Y-72284978D01*
X30072235Y-72253151D01*
X30116172Y-72168436D01*
X30686463Y-72168436D01*
X30686846Y-72269492D01*
X30755254Y-72369134D01*
X30774153Y-72385182D01*
X30831595Y-72413673D01*
X30873870Y-72391650D01*
X30904905Y-72314800D01*
X30928628Y-72178812D01*
X30931419Y-72086808D01*
X30903855Y-72031958D01*
X30841525Y-72034656D01*
X30742998Y-72094251D01*
X30686463Y-72168436D01*
X30116172Y-72168436D01*
X30133439Y-72135143D01*
X30266415Y-72025731D01*
X30460987Y-71930227D01*
X30706976Y-71853945D01*
X30994206Y-71802198D01*
X31171288Y-71783904D01*
X31399797Y-71779094D01*
X31587369Y-71807172D01*
X31756172Y-71872327D01*
X31928373Y-71978750D01*
X31948063Y-71992606D01*
X32067618Y-72072804D01*
X32090661Y-72086808D01*
X32166118Y-72132667D01*
G36*
X32166118Y-72132667D02*
G01*
X32223884Y-72160118D01*
X32233234Y-72166867D01*
X32196826Y-72188140D01*
X32102579Y-72214469D01*
X31922222Y-72254996D01*
X32032945Y-72341672D01*
X32049394Y-72354974D01*
X32116469Y-72420300D01*
X32143667Y-72466696D01*
X32134016Y-72490515D01*
X32091979Y-72564997D01*
X32022392Y-72678388D01*
X31931588Y-72820438D01*
X31825902Y-72980896D01*
X31763162Y-73074230D01*
X31654477Y-73230955D01*
X31571976Y-73340437D01*
X31509590Y-73409810D01*
X31461249Y-73446203D01*
X31420882Y-73456750D01*
X31383731Y-73454230D01*
X31358589Y-73439333D01*
X31357768Y-73402869D01*
X31383772Y-73335719D01*
X31439104Y-73228765D01*
X31526267Y-73072885D01*
X31662825Y-72831896D01*
X31490496Y-72905815D01*
X31401817Y-72935856D01*
X31188247Y-72971557D01*
X30939656Y-72977424D01*
X30683167Y-72951910D01*
X30556167Y-72930833D01*
X30662000Y-72878501D01*
X30678415Y-72871256D01*
X30785506Y-72836600D01*
X30940536Y-72797117D01*
X31115910Y-72760008D01*
X31341815Y-72715504D01*
X31512720Y-72676913D01*
X31633843Y-72641472D01*
X31722102Y-72604196D01*
X31794417Y-72560100D01*
X31863861Y-72492378D01*
X31883231Y-72399185D01*
X31819606Y-72308312D01*
X31779450Y-72277005D01*
X31727237Y-72255787D01*
X31680379Y-72281706D01*
X31618438Y-72360013D01*
X31549657Y-72435940D01*
X31383533Y-72548279D01*
X31179564Y-72628025D01*
X30962137Y-72666803D01*
X30755638Y-72656243D01*
X30696416Y-72639496D01*
X30568916Y-72561172D01*
X30482442Y-72443466D01*
X30450492Y-72302044D01*
X30450333Y-72179213D01*
X30312750Y-72256668D01*
X30243174Y-72295562D01*
X30145671Y-72345839D01*
X30093729Y-72359726D01*
X30073049Y-72338884D01*
X30069333Y-72284978D01*
X30072235Y-72253151D01*
X30116172Y-72168436D01*
X30686463Y-72168436D01*
X30686846Y-72269492D01*
X30755254Y-72369134D01*
X30774153Y-72385182D01*
X30831595Y-72413673D01*
X30873870Y-72391650D01*
X30904905Y-72314800D01*
X30928628Y-72178812D01*
X30931419Y-72086808D01*
X30903855Y-72031958D01*
X30841525Y-72034656D01*
X30742998Y-72094251D01*
X30686463Y-72168436D01*
X30116172Y-72168436D01*
X30133439Y-72135143D01*
X30266415Y-72025731D01*
X30460987Y-71930227D01*
X30706976Y-71853945D01*
X30994206Y-71802198D01*
X31171288Y-71783904D01*
X31399797Y-71779094D01*
X31587369Y-71807172D01*
X31756172Y-71872327D01*
X31928373Y-71978750D01*
X31948063Y-71992606D01*
X32067618Y-72072804D01*
X32090661Y-72086808D01*
X32166118Y-72132667D01*
G37*
X35710946Y-74836931D02*
X35710824Y-74936086D01*
X35698571Y-75151455D01*
X35664043Y-75318697D01*
X35600853Y-75448297D01*
X35502613Y-75550745D01*
X35362936Y-75636526D01*
X35175433Y-75716129D01*
X35050980Y-75765517D01*
X34876069Y-75848578D01*
X34764926Y-75922344D01*
X34726000Y-75981818D01*
X34750931Y-76000871D01*
X34849266Y-76022644D01*
X35011250Y-76039295D01*
X35167714Y-76055833D01*
X35321646Y-76086949D01*
X35495329Y-76138980D01*
X35714603Y-76218511D01*
X35792358Y-76247831D01*
X35991908Y-76318015D01*
X36141656Y-76358725D01*
X36258749Y-76372500D01*
X36360332Y-76361877D01*
X36463549Y-76329394D01*
X36524132Y-76300738D01*
X36646812Y-76198470D01*
X36740650Y-76045457D01*
X36807386Y-75838288D01*
X36848759Y-75573553D01*
X36864992Y-75284163D01*
X36850390Y-75003767D01*
X36802140Y-74771435D01*
X36720937Y-74592490D01*
X36677331Y-74536495D01*
X36579812Y-74432495D01*
X36452755Y-74310580D01*
X36312529Y-74187000D01*
X36109617Y-74012660D01*
X35939398Y-73855822D01*
X35824321Y-73733088D01*
X35761066Y-73639415D01*
X35746316Y-73569757D01*
X35776752Y-73519069D01*
X35849057Y-73482304D01*
X35904445Y-73469584D01*
X36005013Y-73480349D01*
X36112667Y-73538069D01*
X36234348Y-73647075D01*
X36377000Y-73811698D01*
X36405861Y-73847495D01*
X36502196Y-73964414D01*
X36586664Y-74063401D01*
X36643678Y-74126080D01*
X36657130Y-74139900D01*
X36691560Y-74173327D01*
X36721076Y-74182523D01*
X36759977Y-74161057D01*
X36822562Y-74102502D01*
X36923127Y-74000427D01*
X36956005Y-73969742D01*
X37014339Y-73943268D01*
X37087637Y-73961125D01*
X37152792Y-74006381D01*
X37201793Y-74108748D01*
X37211290Y-74262752D01*
X37181731Y-74470833D01*
X37162415Y-74582263D01*
X37151209Y-74728473D01*
X37156452Y-74892612D01*
X37178012Y-75096881D01*
X37198994Y-75284965D01*
X37217536Y-75531042D01*
X37225368Y-75761841D01*
X37222430Y-75965438D01*
X37208659Y-76129913D01*
X37183992Y-76243344D01*
X37143301Y-76340375D01*
X37067018Y-76452733D01*
X36956679Y-76538358D01*
X36811933Y-76601789D01*
X36795656Y-76608922D01*
X36567318Y-76676094D01*
X36420354Y-76717098D01*
X36213304Y-76788643D01*
X36004416Y-76880805D01*
X35764476Y-77005574D01*
X35686879Y-77047666D01*
X35490501Y-77148255D01*
X35326061Y-77218530D01*
X35169090Y-77266489D01*
X34995117Y-77300129D01*
X34779674Y-77327449D01*
X34687767Y-77335999D01*
X34472555Y-77348553D01*
X34230159Y-77355480D01*
X33982886Y-77356786D01*
X33753038Y-77352478D01*
X33562919Y-77342562D01*
X33434833Y-77327046D01*
X33433382Y-77326747D01*
X33259315Y-77262496D01*
X33075000Y-77141885D01*
X32884500Y-76991323D01*
X32431131Y-76970667D01*
X32295167Y-76963414D01*
X32065694Y-76943140D01*
X31876272Y-76912003D01*
X31697094Y-76865742D01*
X31628666Y-76844267D01*
X31359266Y-76743246D01*
X31299062Y-76715417D01*
X33417457Y-76715417D01*
X33456595Y-76780637D01*
X33463070Y-76789018D01*
X33551710Y-76863756D01*
X33668262Y-76923549D01*
X33737616Y-76945183D01*
X33975305Y-76985544D01*
X34259317Y-76996654D01*
X34569534Y-76980120D01*
X34885840Y-76937550D01*
X35188118Y-76870550D01*
X35456250Y-76780727D01*
X35511394Y-76754901D01*
X35600707Y-76681030D01*
X35607394Y-76601789D01*
X35530449Y-76520703D01*
X35516576Y-76511847D01*
X35475368Y-76493346D01*
X35416492Y-76481125D01*
X35326568Y-76474529D01*
X35192215Y-76472907D01*
X35000052Y-76475606D01*
X34736699Y-76481972D01*
X34489762Y-76489694D01*
X34167838Y-76505363D01*
X33915708Y-76526383D01*
X33724388Y-76553837D01*
X33584893Y-76588807D01*
X33488237Y-76632377D01*
X33429515Y-76673838D01*
X33417457Y-76715417D01*
X31299062Y-76715417D01*
X31091290Y-76619375D01*
X30835434Y-76479850D01*
X30602394Y-76331869D01*
X30402867Y-76182629D01*
X30247547Y-76039328D01*
X30147131Y-75909163D01*
X30112315Y-75799332D01*
X30116500Y-75776841D01*
X30151159Y-75713360D01*
X30171617Y-75699801D01*
X30219540Y-75706108D01*
X30300340Y-75747957D01*
X30426584Y-75830704D01*
X30458533Y-75852200D01*
X30612004Y-75949530D01*
X30805546Y-76066047D01*
X31018218Y-76189712D01*
X31229077Y-76308484D01*
X31417179Y-76410325D01*
X31561583Y-76483196D01*
X31567360Y-76485911D01*
X31643912Y-76518751D01*
X31673249Y-76514451D01*
X31678000Y-76470556D01*
X31675894Y-76454668D01*
X31642519Y-76398828D01*
X31562688Y-76325194D01*
X31428854Y-76227465D01*
X31233471Y-76099338D01*
X31070274Y-75995551D01*
X31204804Y-75891451D01*
X31220490Y-75879264D01*
X31277577Y-75830605D01*
X31312641Y-75783113D01*
X31331046Y-75720621D01*
X31338155Y-75626962D01*
X31339333Y-75485971D01*
X31339433Y-75466927D01*
X31355615Y-75240796D01*
X31396732Y-75032416D01*
X31458850Y-74856781D01*
X31538032Y-74728884D01*
X31605424Y-74651644D01*
X31684045Y-74724464D01*
X31730118Y-74781690D01*
X31758152Y-74890790D01*
X31733877Y-75032745D01*
X31656833Y-75215819D01*
X31656581Y-75216323D01*
X31603389Y-75330991D01*
X31565463Y-75429180D01*
X31551000Y-75489684D01*
X31551024Y-75491053D01*
X31582844Y-75555378D01*
X31656833Y-75621685D01*
X31687955Y-75645167D01*
X31754553Y-75745784D01*
X31751642Y-75857098D01*
X31677887Y-75957776D01*
X31593108Y-76026026D01*
X31822503Y-76292719D01*
X31887119Y-76365539D01*
X31987489Y-76469838D01*
X32070365Y-76545480D01*
X32122411Y-76579705D01*
X32223046Y-76600612D01*
X32375603Y-76603761D01*
X32555488Y-76574822D01*
X32775786Y-76511416D01*
X33049582Y-76411165D01*
X33093670Y-76393985D01*
X33329107Y-76307073D01*
X33525040Y-76246003D01*
X33708500Y-76203203D01*
X33906515Y-76171099D01*
X33920865Y-76169139D01*
X34132899Y-76139620D01*
X34275938Y-76116941D01*
X34363558Y-76096975D01*
X34409336Y-76075597D01*
X34426847Y-76048681D01*
X34429667Y-76012101D01*
X34418688Y-75970223D01*
X34365410Y-75911187D01*
X34260016Y-75843677D01*
X34093828Y-75762374D01*
X33858167Y-75661962D01*
X33825821Y-75648665D01*
X33566569Y-75533329D01*
X33380641Y-75426385D01*
X33263033Y-75317341D01*
X33208739Y-75195703D01*
X33212756Y-75050976D01*
X33270079Y-74872669D01*
X33342299Y-74720615D01*
X33971247Y-74720615D01*
X34007624Y-74859146D01*
X34046488Y-74939823D01*
X34138434Y-75038910D01*
X34248844Y-75081114D01*
X34365095Y-75066298D01*
X34474563Y-74994330D01*
X34564625Y-74865075D01*
X34586810Y-74821992D01*
X34629523Y-74768470D01*
X34670124Y-74774655D01*
X34718861Y-74838802D01*
X34720893Y-74842052D01*
X34799664Y-74914059D01*
X34907961Y-74957067D01*
X35011750Y-74957306D01*
X35013774Y-74956672D01*
X35051152Y-74913452D01*
X35065909Y-74831550D01*
X35059363Y-74732310D01*
X35032833Y-74637075D01*
X34987639Y-74567191D01*
X34971112Y-74552757D01*
X34920617Y-74522575D01*
X34847749Y-74504808D01*
X34731753Y-74495885D01*
X34551875Y-74492236D01*
X34392399Y-74493453D01*
X34187989Y-74510721D01*
X34054367Y-74551163D01*
X33984474Y-74619541D01*
X33971247Y-74720615D01*
X33342299Y-74720615D01*
X33375703Y-74650286D01*
X33482577Y-74459478D01*
X33581459Y-74319551D01*
X33668198Y-74239162D01*
X33732868Y-74206029D01*
X33924068Y-74155209D01*
X34168223Y-74137574D01*
X34450833Y-74154688D01*
X34718852Y-74187556D01*
X35004406Y-74226024D01*
X35235118Y-74261266D01*
X35401257Y-74291774D01*
X35493093Y-74316044D01*
X35556710Y-74354117D01*
X35639788Y-74463288D01*
X35691784Y-74625623D01*
X35710459Y-74831550D01*
X35710946Y-74836931D01*
G36*
X35710946Y-74836931D02*
G01*
X35710824Y-74936086D01*
X35698571Y-75151455D01*
X35664043Y-75318697D01*
X35600853Y-75448297D01*
X35502613Y-75550745D01*
X35362936Y-75636526D01*
X35175433Y-75716129D01*
X35050980Y-75765517D01*
X34876069Y-75848578D01*
X34764926Y-75922344D01*
X34726000Y-75981818D01*
X34750931Y-76000871D01*
X34849266Y-76022644D01*
X35011250Y-76039295D01*
X35167714Y-76055833D01*
X35321646Y-76086949D01*
X35495329Y-76138980D01*
X35714603Y-76218511D01*
X35792358Y-76247831D01*
X35991908Y-76318015D01*
X36141656Y-76358725D01*
X36258749Y-76372500D01*
X36360332Y-76361877D01*
X36463549Y-76329394D01*
X36524132Y-76300738D01*
X36646812Y-76198470D01*
X36740650Y-76045457D01*
X36807386Y-75838288D01*
X36848759Y-75573553D01*
X36864992Y-75284163D01*
X36850390Y-75003767D01*
X36802140Y-74771435D01*
X36720937Y-74592490D01*
X36677331Y-74536495D01*
X36579812Y-74432495D01*
X36452755Y-74310580D01*
X36312529Y-74187000D01*
X36109617Y-74012660D01*
X35939398Y-73855822D01*
X35824321Y-73733088D01*
X35761066Y-73639415D01*
X35746316Y-73569757D01*
X35776752Y-73519069D01*
X35849057Y-73482304D01*
X35904445Y-73469584D01*
X36005013Y-73480349D01*
X36112667Y-73538069D01*
X36234348Y-73647075D01*
X36377000Y-73811698D01*
X36405861Y-73847495D01*
X36502196Y-73964414D01*
X36586664Y-74063401D01*
X36643678Y-74126080D01*
X36657130Y-74139900D01*
X36691560Y-74173327D01*
X36721076Y-74182523D01*
X36759977Y-74161057D01*
X36822562Y-74102502D01*
X36923127Y-74000427D01*
X36956005Y-73969742D01*
X37014339Y-73943268D01*
X37087637Y-73961125D01*
X37152792Y-74006381D01*
X37201793Y-74108748D01*
X37211290Y-74262752D01*
X37181731Y-74470833D01*
X37162415Y-74582263D01*
X37151209Y-74728473D01*
X37156452Y-74892612D01*
X37178012Y-75096881D01*
X37198994Y-75284965D01*
X37217536Y-75531042D01*
X37225368Y-75761841D01*
X37222430Y-75965438D01*
X37208659Y-76129913D01*
X37183992Y-76243344D01*
X37143301Y-76340375D01*
X37067018Y-76452733D01*
X36956679Y-76538358D01*
X36811933Y-76601789D01*
X36795656Y-76608922D01*
X36567318Y-76676094D01*
X36420354Y-76717098D01*
X36213304Y-76788643D01*
X36004416Y-76880805D01*
X35764476Y-77005574D01*
X35686879Y-77047666D01*
X35490501Y-77148255D01*
X35326061Y-77218530D01*
X35169090Y-77266489D01*
X34995117Y-77300129D01*
X34779674Y-77327449D01*
X34687767Y-77335999D01*
X34472555Y-77348553D01*
X34230159Y-77355480D01*
X33982886Y-77356786D01*
X33753038Y-77352478D01*
X33562919Y-77342562D01*
X33434833Y-77327046D01*
X33433382Y-77326747D01*
X33259315Y-77262496D01*
X33075000Y-77141885D01*
X32884500Y-76991323D01*
X32431131Y-76970667D01*
X32295167Y-76963414D01*
X32065694Y-76943140D01*
X31876272Y-76912003D01*
X31697094Y-76865742D01*
X31628666Y-76844267D01*
X31359266Y-76743246D01*
X31299062Y-76715417D01*
X33417457Y-76715417D01*
X33456595Y-76780637D01*
X33463070Y-76789018D01*
X33551710Y-76863756D01*
X33668262Y-76923549D01*
X33737616Y-76945183D01*
X33975305Y-76985544D01*
X34259317Y-76996654D01*
X34569534Y-76980120D01*
X34885840Y-76937550D01*
X35188118Y-76870550D01*
X35456250Y-76780727D01*
X35511394Y-76754901D01*
X35600707Y-76681030D01*
X35607394Y-76601789D01*
X35530449Y-76520703D01*
X35516576Y-76511847D01*
X35475368Y-76493346D01*
X35416492Y-76481125D01*
X35326568Y-76474529D01*
X35192215Y-76472907D01*
X35000052Y-76475606D01*
X34736699Y-76481972D01*
X34489762Y-76489694D01*
X34167838Y-76505363D01*
X33915708Y-76526383D01*
X33724388Y-76553837D01*
X33584893Y-76588807D01*
X33488237Y-76632377D01*
X33429515Y-76673838D01*
X33417457Y-76715417D01*
X31299062Y-76715417D01*
X31091290Y-76619375D01*
X30835434Y-76479850D01*
X30602394Y-76331869D01*
X30402867Y-76182629D01*
X30247547Y-76039328D01*
X30147131Y-75909163D01*
X30112315Y-75799332D01*
X30116500Y-75776841D01*
X30151159Y-75713360D01*
X30171617Y-75699801D01*
X30219540Y-75706108D01*
X30300340Y-75747957D01*
X30426584Y-75830704D01*
X30458533Y-75852200D01*
X30612004Y-75949530D01*
X30805546Y-76066047D01*
X31018218Y-76189712D01*
X31229077Y-76308484D01*
X31417179Y-76410325D01*
X31561583Y-76483196D01*
X31567360Y-76485911D01*
X31643912Y-76518751D01*
X31673249Y-76514451D01*
X31678000Y-76470556D01*
X31675894Y-76454668D01*
X31642519Y-76398828D01*
X31562688Y-76325194D01*
X31428854Y-76227465D01*
X31233471Y-76099338D01*
X31070274Y-75995551D01*
X31204804Y-75891451D01*
X31220490Y-75879264D01*
X31277577Y-75830605D01*
X31312641Y-75783113D01*
X31331046Y-75720621D01*
X31338155Y-75626962D01*
X31339333Y-75485971D01*
X31339433Y-75466927D01*
X31355615Y-75240796D01*
X31396732Y-75032416D01*
X31458850Y-74856781D01*
X31538032Y-74728884D01*
X31605424Y-74651644D01*
X31684045Y-74724464D01*
X31730118Y-74781690D01*
X31758152Y-74890790D01*
X31733877Y-75032745D01*
X31656833Y-75215819D01*
X31656581Y-75216323D01*
X31603389Y-75330991D01*
X31565463Y-75429180D01*
X31551000Y-75489684D01*
X31551024Y-75491053D01*
X31582844Y-75555378D01*
X31656833Y-75621685D01*
X31687955Y-75645167D01*
X31754553Y-75745784D01*
X31751642Y-75857098D01*
X31677887Y-75957776D01*
X31593108Y-76026026D01*
X31822503Y-76292719D01*
X31887119Y-76365539D01*
X31987489Y-76469838D01*
X32070365Y-76545480D01*
X32122411Y-76579705D01*
X32223046Y-76600612D01*
X32375603Y-76603761D01*
X32555488Y-76574822D01*
X32775786Y-76511416D01*
X33049582Y-76411165D01*
X33093670Y-76393985D01*
X33329107Y-76307073D01*
X33525040Y-76246003D01*
X33708500Y-76203203D01*
X33906515Y-76171099D01*
X33920865Y-76169139D01*
X34132899Y-76139620D01*
X34275938Y-76116941D01*
X34363558Y-76096975D01*
X34409336Y-76075597D01*
X34426847Y-76048681D01*
X34429667Y-76012101D01*
X34418688Y-75970223D01*
X34365410Y-75911187D01*
X34260016Y-75843677D01*
X34093828Y-75762374D01*
X33858167Y-75661962D01*
X33825821Y-75648665D01*
X33566569Y-75533329D01*
X33380641Y-75426385D01*
X33263033Y-75317341D01*
X33208739Y-75195703D01*
X33212756Y-75050976D01*
X33270079Y-74872669D01*
X33342299Y-74720615D01*
X33971247Y-74720615D01*
X34007624Y-74859146D01*
X34046488Y-74939823D01*
X34138434Y-75038910D01*
X34248844Y-75081114D01*
X34365095Y-75066298D01*
X34474563Y-74994330D01*
X34564625Y-74865075D01*
X34586810Y-74821992D01*
X34629523Y-74768470D01*
X34670124Y-74774655D01*
X34718861Y-74838802D01*
X34720893Y-74842052D01*
X34799664Y-74914059D01*
X34907961Y-74957067D01*
X35011750Y-74957306D01*
X35013774Y-74956672D01*
X35051152Y-74913452D01*
X35065909Y-74831550D01*
X35059363Y-74732310D01*
X35032833Y-74637075D01*
X34987639Y-74567191D01*
X34971112Y-74552757D01*
X34920617Y-74522575D01*
X34847749Y-74504808D01*
X34731753Y-74495885D01*
X34551875Y-74492236D01*
X34392399Y-74493453D01*
X34187989Y-74510721D01*
X34054367Y-74551163D01*
X33984474Y-74619541D01*
X33971247Y-74720615D01*
X33342299Y-74720615D01*
X33375703Y-74650286D01*
X33482577Y-74459478D01*
X33581459Y-74319551D01*
X33668198Y-74239162D01*
X33732868Y-74206029D01*
X33924068Y-74155209D01*
X34168223Y-74137574D01*
X34450833Y-74154688D01*
X34718852Y-74187556D01*
X35004406Y-74226024D01*
X35235118Y-74261266D01*
X35401257Y-74291774D01*
X35493093Y-74316044D01*
X35556710Y-74354117D01*
X35639788Y-74463288D01*
X35691784Y-74625623D01*
X35710459Y-74831550D01*
X35710946Y-74836931D01*
G37*
X39511482Y-69020738D02*
X39540912Y-69182588D01*
X39542485Y-69320888D01*
X39540113Y-69338775D01*
X39518921Y-69452612D01*
X39485652Y-69595909D01*
X39446392Y-69742000D01*
X39416658Y-69854398D01*
X39393666Y-70002596D01*
X39406378Y-70108237D01*
X39456875Y-70181429D01*
X39547233Y-70232275D01*
X39638897Y-70282425D01*
X39696776Y-70356495D01*
X39692067Y-70428278D01*
X39627170Y-70482528D01*
X39504483Y-70504000D01*
X39427183Y-70509368D01*
X39390216Y-70539375D01*
X39382667Y-70613324D01*
X39382669Y-70614203D01*
X39418503Y-70718603D01*
X39511434Y-70793084D01*
X39641396Y-70821500D01*
X39716140Y-70837673D01*
X39810519Y-70881360D01*
X39834238Y-70896850D01*
X39869098Y-70929990D01*
X39893330Y-70978141D01*
X39910290Y-71053416D01*
X39923332Y-71167931D01*
X39935810Y-71333797D01*
X39962535Y-71726375D01*
X40201768Y-72088260D01*
X40307748Y-72253121D01*
X40381391Y-72385536D01*
X40421431Y-72493957D01*
X40431657Y-72594473D01*
X40415854Y-72703172D01*
X40377810Y-72836142D01*
X40366684Y-72871267D01*
X40341841Y-72964719D01*
X40342715Y-73002180D01*
X40343399Y-73031550D01*
X40376594Y-73098997D01*
X40446662Y-73194297D01*
X40540664Y-73346307D01*
X40583545Y-73502108D01*
X40557759Y-73633402D01*
X40463122Y-73734062D01*
X40344625Y-73810507D01*
X40423179Y-73990816D01*
X40459083Y-74072315D01*
X40493530Y-74148252D01*
X40510075Y-74181634D01*
X40533046Y-74180968D01*
X40601431Y-74158823D01*
X40635631Y-74147111D01*
X40671232Y-74151522D01*
X40693624Y-74194688D01*
X40713337Y-74288844D01*
X40714833Y-74297428D01*
X40725094Y-74402220D01*
X40707078Y-74474453D01*
X40654467Y-74541214D01*
X40566705Y-74630242D01*
X40715519Y-74676875D01*
X40741358Y-74685515D01*
X40828963Y-74725094D01*
X40864333Y-74759236D01*
X40863073Y-74764007D01*
X40825206Y-74810362D01*
X40745290Y-74885329D01*
X40637744Y-74975169D01*
X40552892Y-75043301D01*
X40435276Y-75143735D01*
X40370623Y-75213965D01*
X40353969Y-75263284D01*
X40380349Y-75300989D01*
X40444797Y-75336373D01*
X40485767Y-75356352D01*
X40539607Y-75397779D01*
X40562929Y-75458174D01*
X40567967Y-75559720D01*
X40567957Y-75562749D01*
X40529113Y-75761427D01*
X40413956Y-75967701D01*
X40220954Y-76183289D01*
X39948574Y-76409906D01*
X39595284Y-76649269D01*
X39293281Y-76837943D01*
X39322244Y-77115618D01*
X39333393Y-77273614D01*
X39327299Y-77381699D01*
X39302871Y-77436973D01*
X39278045Y-77452012D01*
X39183770Y-77492589D01*
X39041982Y-77544703D01*
X38872563Y-77600786D01*
X38729909Y-77647955D01*
X38483255Y-77747771D01*
X38307372Y-77853369D01*
X38193091Y-77973038D01*
X38131245Y-78115065D01*
X38112667Y-78287738D01*
X38112571Y-78294990D01*
X38094194Y-78410826D01*
X38053635Y-78517752D01*
X38025284Y-78563921D01*
X37986477Y-78599900D01*
X37922547Y-78623616D01*
X37813887Y-78641903D01*
X37640885Y-78661596D01*
X37447435Y-78685780D01*
X36999779Y-78765896D01*
X36560493Y-78875531D01*
X36154715Y-79007903D01*
X35807579Y-79156230D01*
X35564052Y-79296782D01*
X35363437Y-79467597D01*
X35222360Y-79668366D01*
X35128214Y-79913138D01*
X35126248Y-79920148D01*
X35101177Y-79975106D01*
X35050823Y-79993632D01*
X34946373Y-79987508D01*
X34923920Y-79984999D01*
X34769208Y-79961705D01*
X34614079Y-79931023D01*
X34564677Y-79920001D01*
X34468238Y-79906994D01*
X34395072Y-79923583D01*
X34303914Y-79975715D01*
X34299100Y-79978743D01*
X34191370Y-80037094D01*
X34103821Y-80055602D01*
X34022187Y-80029941D01*
X33932197Y-79955780D01*
X33819585Y-79828793D01*
X33735327Y-79731867D01*
X33628747Y-79630679D01*
X33512861Y-79552981D01*
X33361495Y-79478772D01*
X33109629Y-79382177D01*
X32732541Y-79274558D01*
X32295032Y-79182236D01*
X31809772Y-79107438D01*
X31289428Y-79052388D01*
X30746667Y-79019314D01*
X30175167Y-78997125D01*
X30090500Y-78800542D01*
X30076670Y-78769205D01*
X29994622Y-78617993D01*
X29892018Y-78496864D01*
X29749890Y-78387246D01*
X29549271Y-78270564D01*
X29405237Y-78198893D01*
X29133565Y-78080395D01*
X28812796Y-77955033D01*
X28462167Y-77829595D01*
X28100916Y-77710867D01*
X27748281Y-77605634D01*
X27423500Y-77520683D01*
X27393015Y-77513256D01*
X27123843Y-77431649D01*
X26905726Y-77335643D01*
X26749833Y-77231098D01*
X26667332Y-77123875D01*
X26656129Y-77076926D01*
X26682813Y-77022514D01*
X26773410Y-76990305D01*
X26937591Y-76974972D01*
X26942260Y-76974774D01*
X27073203Y-76967304D01*
X27142298Y-76952165D01*
X27171645Y-76918670D01*
X27183343Y-76856132D01*
X27184584Y-76718364D01*
X27126208Y-76554685D01*
X26992849Y-76407605D01*
X26842148Y-76282500D01*
X26509897Y-76282500D01*
X26467640Y-76282436D01*
X26312529Y-76279563D01*
X26217880Y-76269865D01*
X26163756Y-76249855D01*
X26130223Y-76216042D01*
X26110786Y-76180618D01*
X26105927Y-76095316D01*
X26154389Y-75988084D01*
X26260058Y-75847905D01*
X26304416Y-75793313D01*
X26348712Y-75724002D01*
X26373371Y-75649961D01*
X26384033Y-75551612D01*
X26386333Y-75409375D01*
X26386094Y-75334544D01*
X26381388Y-75230343D01*
X26364706Y-75146650D01*
X26328438Y-75069115D01*
X26264975Y-74983393D01*
X26166706Y-74875134D01*
X26026024Y-74729992D01*
X25997636Y-74698951D01*
X25940365Y-74611106D01*
X25913117Y-74510176D01*
X25915609Y-74384512D01*
X25947562Y-74222461D01*
X26008693Y-74012375D01*
X26010114Y-74007878D01*
X26047553Y-73864716D01*
X26072242Y-73706821D01*
X26073866Y-73684529D01*
X26941790Y-73684529D01*
X26956931Y-73915540D01*
X27031122Y-74123500D01*
X27068242Y-74187571D01*
X27132022Y-74268277D01*
X27215988Y-74323332D01*
X27348696Y-74375385D01*
X27479995Y-74427696D01*
X27567414Y-74485184D01*
X27616320Y-74557397D01*
X27640339Y-74620180D01*
X27651878Y-74725371D01*
X27604989Y-74789153D01*
X27497583Y-74816074D01*
X27434538Y-74824090D01*
X27372489Y-74851400D01*
X27362442Y-74901148D01*
X27406567Y-74978796D01*
X27507035Y-75089803D01*
X27666019Y-75239629D01*
X27722725Y-75294144D01*
X27818120Y-75401763D01*
X27889619Y-75502821D01*
X27927681Y-75582902D01*
X27922766Y-75627592D01*
X27903113Y-75634035D01*
X27816598Y-75643697D01*
X27691611Y-75647500D01*
X27587493Y-75650092D01*
X27505746Y-75669464D01*
X27476360Y-75720763D01*
X27480924Y-75818970D01*
X27485082Y-75841799D01*
X27499037Y-75868574D01*
X27532131Y-75899040D01*
X27594494Y-75939648D01*
X27696257Y-75996851D01*
X27847549Y-76077102D01*
X28058500Y-76186852D01*
X28104205Y-76210581D01*
X28309192Y-76318025D01*
X28458261Y-76399080D01*
X28563533Y-76461307D01*
X28637129Y-76512269D01*
X28691170Y-76559528D01*
X28737777Y-76610647D01*
X28774404Y-76657645D01*
X28788140Y-76701449D01*
X28753653Y-76730382D01*
X28752449Y-76730960D01*
X28669474Y-76746158D01*
X28555917Y-76742109D01*
X28456992Y-76740226D01*
X28416407Y-76767270D01*
X28433893Y-76818675D01*
X28502986Y-76889036D01*
X28617219Y-76972953D01*
X28770128Y-77065021D01*
X28955245Y-77159838D01*
X29166107Y-77252002D01*
X29219204Y-77273385D01*
X29435374Y-77362394D01*
X29612333Y-77440842D01*
X29766479Y-77518057D01*
X29914211Y-77603370D01*
X30071925Y-77706110D01*
X30256019Y-77835605D01*
X30482891Y-78001186D01*
X30522700Y-78030403D01*
X30790094Y-78220759D01*
X31017117Y-78368522D01*
X31216052Y-78479089D01*
X31399181Y-78557855D01*
X31578788Y-78610216D01*
X31767155Y-78641566D01*
X31976566Y-78657301D01*
X32059116Y-78660643D01*
X32203655Y-78662838D01*
X32300657Y-78654206D01*
X32375905Y-78631120D01*
X32455183Y-78589950D01*
X32598378Y-78508035D01*
X32695901Y-78585892D01*
X32792072Y-78640529D01*
X32944796Y-78663227D01*
X32985046Y-78661937D01*
X33073758Y-78649435D01*
X33175913Y-78619362D01*
X33304992Y-78566495D01*
X33474477Y-78485613D01*
X33697850Y-78371492D01*
X33824841Y-78307634D01*
X33996476Y-78232933D01*
X34118101Y-78199699D01*
X34196722Y-78206378D01*
X34239344Y-78251418D01*
X34243925Y-78267432D01*
X34237098Y-78354560D01*
X34196128Y-78463178D01*
X34165954Y-78528175D01*
X34149238Y-78600339D01*
X34171941Y-78641905D01*
X34214753Y-78650583D01*
X34280699Y-78618206D01*
X34380843Y-78538365D01*
X34471354Y-78465822D01*
X34553088Y-78421976D01*
X34616767Y-78420253D01*
X34657267Y-78440538D01*
X34679645Y-78490515D01*
X34677017Y-78584598D01*
X34674295Y-78623911D01*
X34681022Y-78698243D01*
X34704528Y-78725978D01*
X34759385Y-78715635D01*
X34886562Y-78667377D01*
X35055787Y-78584714D01*
X35255167Y-78473109D01*
X35368493Y-78407335D01*
X35473937Y-78350929D01*
X35578821Y-78303025D01*
X35699181Y-78257607D01*
X35851056Y-78208658D01*
X36050483Y-78150162D01*
X36313500Y-78076103D01*
X36491520Y-78024730D01*
X36793889Y-77925994D01*
X37057988Y-77819631D01*
X37306283Y-77694963D01*
X37561244Y-77541310D01*
X37845337Y-77347992D01*
X37991354Y-77243199D01*
X38170380Y-77107352D01*
X38298836Y-76996582D01*
X38385904Y-76901744D01*
X38440765Y-76813694D01*
X38472600Y-76723288D01*
X38473806Y-76718331D01*
X38481713Y-76639647D01*
X38451447Y-76575182D01*
X38370321Y-76496847D01*
X38290811Y-76417427D01*
X38245407Y-76326273D01*
X38265505Y-76240449D01*
X38355130Y-76154392D01*
X38518308Y-76062534D01*
X38759062Y-75959312D01*
X38933385Y-75878477D01*
X39146998Y-75752583D01*
X39348195Y-75608605D01*
X39515796Y-75461922D01*
X39628621Y-75327913D01*
X39641807Y-75306197D01*
X39695892Y-75180703D01*
X39718612Y-75057008D01*
X39708470Y-74953688D01*
X39663968Y-74889318D01*
X39650953Y-74882200D01*
X39561267Y-74846887D01*
X39441718Y-74811196D01*
X39415466Y-74803853D01*
X39270331Y-74731704D01*
X39193659Y-74628478D01*
X39192599Y-74503022D01*
X39202880Y-74480007D01*
X39260794Y-74398439D01*
X39354021Y-74293157D01*
X39468070Y-74181093D01*
X39588164Y-74068170D01*
X39687420Y-73961181D01*
X39734859Y-73879082D01*
X39733467Y-73809751D01*
X39686226Y-73741065D01*
X39596121Y-73660902D01*
X39521519Y-73596444D01*
X39451881Y-73526234D01*
X39425000Y-73484339D01*
X39425260Y-73482281D01*
X39457436Y-73438820D01*
X39532910Y-73366261D01*
X39636667Y-73279155D01*
X39681315Y-73243174D01*
X39771412Y-73160918D01*
X39824360Y-73084901D01*
X39840992Y-73002180D01*
X39822139Y-72899811D01*
X39768632Y-72764848D01*
X39681304Y-72584348D01*
X39573152Y-72382560D01*
X39455162Y-72202824D01*
X39331299Y-72062944D01*
X39190691Y-71950877D01*
X39022467Y-71854582D01*
X38811001Y-71764344D01*
X38599495Y-71702661D01*
X38409222Y-71674914D01*
X38254923Y-71683216D01*
X38151340Y-71729682D01*
X38103008Y-71763234D01*
X38002790Y-71806902D01*
X37974631Y-71818843D01*
X37893379Y-71894820D01*
X37808472Y-72033782D01*
X37706343Y-72234375D01*
X37329500Y-72234375D01*
X37332213Y-72091500D01*
X37342783Y-72016432D01*
X37401023Y-71859083D01*
X37511368Y-71656162D01*
X37614223Y-71476494D01*
X37687179Y-71321373D01*
X37718174Y-71206694D01*
X37708985Y-71125513D01*
X37661394Y-71070887D01*
X37575399Y-71023630D01*
X37466279Y-70999455D01*
X37337953Y-71016531D01*
X37168056Y-71075047D01*
X37116889Y-71095149D01*
X36957080Y-71148987D01*
X36844590Y-71165539D01*
X36763036Y-71145277D01*
X36696034Y-71088674D01*
X36673926Y-71059744D01*
X36650710Y-71007251D01*
X36640362Y-70933855D01*
X36641422Y-70825465D01*
X36652430Y-70667987D01*
X36658649Y-70590082D01*
X36665379Y-70434545D01*
X36651765Y-70328006D01*
X36608243Y-70260249D01*
X36525249Y-70221057D01*
X36393218Y-70200214D01*
X36202585Y-70187504D01*
X36148317Y-70184269D01*
X35901201Y-70157985D01*
X35723651Y-70114040D01*
X35604463Y-70048595D01*
X35532436Y-69957809D01*
X35531638Y-69956207D01*
X35484969Y-69863411D01*
X35445571Y-69786390D01*
X35442656Y-69781111D01*
X35399950Y-69741528D01*
X35315061Y-69716111D01*
X35166750Y-69698138D01*
X35151652Y-69696811D01*
X35017255Y-69687828D01*
X34929404Y-69695972D01*
X34853691Y-69729489D01*
X34755705Y-69796622D01*
X34595832Y-69917047D01*
X34461604Y-70041045D01*
X34382722Y-70159045D01*
X34352477Y-70287495D01*
X34364159Y-70442842D01*
X34411061Y-70641534D01*
X34412022Y-70645040D01*
X34442992Y-70783484D01*
X34461646Y-70917304D01*
X34463978Y-71017993D01*
X34452674Y-71093368D01*
X34422982Y-71145090D01*
X34355482Y-71185147D01*
X34230151Y-71231850D01*
X34167132Y-71255321D01*
X34043938Y-71319514D01*
X33968990Y-71400962D01*
X33931890Y-71514647D01*
X33922245Y-71675550D01*
X33925349Y-71798078D01*
X33940243Y-71902197D01*
X33973585Y-71961798D01*
X34032031Y-71987319D01*
X34122236Y-71989195D01*
X34237966Y-71993881D01*
X34316015Y-72033747D01*
X34329442Y-72057212D01*
X34319847Y-72099451D01*
X34265613Y-72159917D01*
X34157789Y-72250897D01*
X34113265Y-72286816D01*
X34025039Y-72363599D01*
X33980786Y-72421083D01*
X33969241Y-72478433D01*
X33979140Y-72554814D01*
X33990210Y-72602353D01*
X34051323Y-72751795D01*
X34141473Y-72887557D01*
X34245245Y-72984738D01*
X34269608Y-72999322D01*
X34373901Y-73050672D01*
X34499749Y-73102914D01*
X34622296Y-73159330D01*
X34743876Y-73239367D01*
X34823507Y-73320231D01*
X34844027Y-73387726D01*
X34806596Y-73448395D01*
X34724299Y-73476672D01*
X34589085Y-73469004D01*
X34391827Y-73426168D01*
X34097283Y-73349565D01*
X33850725Y-73462678D01*
X33765888Y-73501163D01*
X33543273Y-73595718D01*
X33374014Y-73654578D01*
X33247821Y-73680135D01*
X33154403Y-73674779D01*
X33083467Y-73640899D01*
X33044704Y-73597556D01*
X33041522Y-73535828D01*
X33088316Y-73455098D01*
X33189727Y-73347814D01*
X33350395Y-73206421D01*
X33461491Y-73110952D01*
X33568329Y-73013821D01*
X33640892Y-72941444D01*
X33667637Y-72904796D01*
X33666832Y-72895660D01*
X33649973Y-72829251D01*
X33616010Y-72726312D01*
X33571240Y-72603194D01*
X33521962Y-72476250D01*
X33474471Y-72361829D01*
X33435066Y-72276283D01*
X33410044Y-72235962D01*
X33403267Y-72229560D01*
X33379271Y-72168379D01*
X33373798Y-72057204D01*
X33386909Y-71892056D01*
X33418664Y-71668957D01*
X33426703Y-71617077D01*
X33443684Y-71458830D01*
X33440594Y-71340027D01*
X33417379Y-71243151D01*
X33410671Y-71225074D01*
X33369762Y-71146115D01*
X33306427Y-71103499D01*
X33190131Y-71074574D01*
X33074694Y-71051910D01*
X32955191Y-71025627D01*
X32884951Y-71002724D01*
X32844137Y-70976038D01*
X32812914Y-70938412D01*
X32788095Y-70870502D01*
X32773374Y-70755180D01*
X32771543Y-70610317D01*
X32774233Y-70510360D01*
X32770647Y-70415993D01*
X32753213Y-70354043D01*
X32715931Y-70306596D01*
X32652802Y-70255736D01*
X32629016Y-70238985D01*
X32444588Y-70150066D01*
X32199183Y-70082876D01*
X31910833Y-70042595D01*
X31852520Y-70037715D01*
X31682111Y-70022956D01*
X31537225Y-70009795D01*
X31375282Y-69994483D01*
X31386796Y-70157174D01*
X31386491Y-70251352D01*
X31358171Y-70323216D01*
X31287155Y-70361653D01*
X31160135Y-70373180D01*
X30963802Y-70364312D01*
X30917802Y-70361429D01*
X30708618Y-70365105D01*
X30546700Y-70406914D01*
X30411696Y-70495029D01*
X30283254Y-70637624D01*
X30271158Y-70653601D01*
X30187923Y-70783139D01*
X30161876Y-70883932D01*
X30192930Y-70972278D01*
X30281000Y-71064475D01*
X30328471Y-71107885D01*
X30401020Y-71205106D01*
X30400810Y-71284954D01*
X30324913Y-71350716D01*
X30170398Y-71405675D01*
X29934335Y-71453118D01*
X29834657Y-71472616D01*
X29688966Y-71512548D01*
X29587766Y-71554315D01*
X29556679Y-71575243D01*
X29453033Y-71686594D01*
X29369618Y-71841524D01*
X29313190Y-72024872D01*
X29290504Y-72221480D01*
X29289659Y-72295782D01*
X29295001Y-72396399D01*
X29316778Y-72468236D01*
X29363810Y-72533807D01*
X29444917Y-72615628D01*
X29535530Y-72711253D01*
X29593379Y-72803933D01*
X29585678Y-72866169D01*
X29513496Y-72902435D01*
X29512966Y-72902560D01*
X29437429Y-72902588D01*
X29333471Y-72868041D01*
X29185413Y-72793723D01*
X29016267Y-72703376D01*
X28777208Y-72587996D01*
X28578070Y-72513370D01*
X28405916Y-72477294D01*
X28247810Y-72477562D01*
X28090818Y-72511969D01*
X27922003Y-72578308D01*
X27858721Y-72608673D01*
X27621801Y-72747002D01*
X27397403Y-72912850D01*
X27207331Y-73088772D01*
X27073387Y-73257321D01*
X26984639Y-73452135D01*
X26941790Y-73684529D01*
X26073866Y-73684529D01*
X26085997Y-73518016D01*
X26090633Y-73282125D01*
X26093322Y-73078317D01*
X26104887Y-72910986D01*
X26131926Y-72777215D01*
X26181067Y-72661659D01*
X26258938Y-72548970D01*
X26372165Y-72423803D01*
X26527375Y-72270811D01*
X26664883Y-72137314D01*
X26813145Y-71987104D01*
X26913861Y-71870374D01*
X26970414Y-71777909D01*
X26986186Y-71700496D01*
X26964561Y-71628917D01*
X26908920Y-71553959D01*
X26822646Y-71466405D01*
X26689951Y-71330702D01*
X26534996Y-71135478D01*
X26439679Y-70951997D01*
X26396133Y-70767368D01*
X26391122Y-70702584D01*
X26393683Y-70623355D01*
X26407799Y-70555268D01*
X26947515Y-70555268D01*
X26959195Y-70726491D01*
X26990317Y-70869478D01*
X27041366Y-70967532D01*
X27054745Y-70982080D01*
X27109828Y-71021035D01*
X27191793Y-71037963D01*
X27329226Y-71040066D01*
X27508511Y-71031866D01*
X27694348Y-71003826D01*
X27800401Y-70956979D01*
X27826201Y-70891834D01*
X27771279Y-70808897D01*
X27635167Y-70708675D01*
X27532120Y-70640669D01*
X27461387Y-70574089D01*
X27454630Y-70521564D01*
X27506490Y-70473293D01*
X27509641Y-70471417D01*
X27575411Y-70452932D01*
X27690009Y-70450608D01*
X27870106Y-70464019D01*
X27884186Y-70465355D01*
X28064781Y-70475230D01*
X28216425Y-70463539D01*
X28354560Y-70424162D01*
X28494632Y-70350977D01*
X28652085Y-70237865D01*
X28842362Y-70078704D01*
X28971161Y-69970456D01*
X29108897Y-69862464D01*
X29225474Y-69778985D01*
X29304552Y-69732267D01*
X29312009Y-69728962D01*
X29373433Y-69698368D01*
X29411044Y-69664320D01*
X29425758Y-69615140D01*
X29418497Y-69539150D01*
X29390178Y-69424673D01*
X29341722Y-69260031D01*
X29333785Y-69233447D01*
X29294334Y-69089416D01*
X29276338Y-68990305D01*
X29278239Y-68922095D01*
X29298481Y-68870768D01*
X29346646Y-68815640D01*
X29401676Y-68790438D01*
X29414357Y-68794001D01*
X29475855Y-68834798D01*
X29565003Y-68911447D01*
X29667167Y-69011750D01*
X29706027Y-69051889D01*
X29803492Y-69146299D01*
X29876588Y-69201042D01*
X29941632Y-69226502D01*
X30014944Y-69233061D01*
X30090766Y-69227810D01*
X30207860Y-69192316D01*
X30323592Y-69118538D01*
X30444408Y-69000848D01*
X30576757Y-68833616D01*
X30727083Y-68611213D01*
X30768043Y-68548300D01*
X30867402Y-68403457D01*
X30957020Y-68283063D01*
X31028392Y-68198213D01*
X31073011Y-68160002D01*
X31097358Y-68152005D01*
X31205229Y-68127927D01*
X31339333Y-68107511D01*
X31400933Y-68099226D01*
X31581514Y-68056391D01*
X31685975Y-67993281D01*
X31718475Y-67907705D01*
X31717593Y-67903294D01*
X34398461Y-67903294D01*
X34400926Y-67907705D01*
X34449306Y-67994282D01*
X34558280Y-68059922D01*
X34727835Y-68106382D01*
X34960418Y-68139830D01*
X35199188Y-68171090D01*
X35461668Y-68226773D01*
X35671884Y-68306629D01*
X35847474Y-68420113D01*
X36006079Y-68576683D01*
X36165339Y-68785796D01*
X36197970Y-68831263D01*
X36297772Y-68955716D01*
X36396109Y-69060572D01*
X36475740Y-69126884D01*
X36494673Y-69138690D01*
X36567042Y-69177001D01*
X36641236Y-69195640D01*
X36744667Y-69198644D01*
X36904749Y-69190049D01*
X37064165Y-69178469D01*
X37235322Y-69163978D01*
X37361512Y-69151068D01*
X37434414Y-69144059D01*
X37589581Y-69145732D01*
X37746074Y-69175917D01*
X37924109Y-69239532D01*
X38143896Y-69341498D01*
X38160610Y-69349748D01*
X38389603Y-69452268D01*
X38573083Y-69513358D01*
X38706340Y-69531807D01*
X38784661Y-69506402D01*
X38833176Y-69441506D01*
X38885388Y-69306416D01*
X38912651Y-69142474D01*
X38913836Y-68968971D01*
X38887820Y-68805195D01*
X38833474Y-68670437D01*
X38805790Y-68629339D01*
X38743969Y-68562063D01*
X38692903Y-68535500D01*
X38678467Y-68538140D01*
X38617412Y-68577797D01*
X38553250Y-68649922D01*
X38538963Y-68668633D01*
X38455144Y-68747355D01*
X38366949Y-68794949D01*
X38312500Y-68807113D01*
X38242772Y-68797211D01*
X38165726Y-68742134D01*
X38138807Y-68717368D01*
X38096399Y-68654872D01*
X38112527Y-68599195D01*
X38137192Y-68530267D01*
X38150700Y-68405418D01*
X38151032Y-68237435D01*
X38138192Y-68036428D01*
X38112184Y-67812503D01*
X38085288Y-67669029D01*
X38038190Y-67520680D01*
X37966946Y-67375808D01*
X37865397Y-67226505D01*
X37727387Y-67064865D01*
X37546756Y-66882982D01*
X37317348Y-66672948D01*
X37033004Y-66426858D01*
X36884062Y-66295905D01*
X36721562Y-66144479D01*
X36577524Y-66001940D01*
X36471527Y-65887108D01*
X36348566Y-65747535D01*
X36211380Y-65610509D01*
X36094042Y-65520367D01*
X35988059Y-65470863D01*
X35884935Y-65455749D01*
X35826957Y-65461561D01*
X35704204Y-65508204D01*
X35610175Y-65585577D01*
X35572509Y-65674344D01*
X35550173Y-65741268D01*
X35487994Y-65827323D01*
X35407931Y-65902502D01*
X35332171Y-65942089D01*
X35256191Y-65956622D01*
X35139972Y-65977048D01*
X35138732Y-65977257D01*
X35063738Y-65998246D01*
X35006501Y-66038329D01*
X34963045Y-66106382D01*
X34929391Y-66211284D01*
X34901564Y-66361912D01*
X34875585Y-66567142D01*
X34855724Y-66734533D01*
X34834487Y-66869726D01*
X34807484Y-66976922D01*
X34768749Y-67074416D01*
X34712318Y-67180503D01*
X34632223Y-67313481D01*
X34570213Y-67416564D01*
X34461365Y-67620603D01*
X34403297Y-67780790D01*
X34398461Y-67903294D01*
X31717593Y-67903294D01*
X31695056Y-67790524D01*
X31608571Y-67612428D01*
X31460504Y-67401742D01*
X31403530Y-67337935D01*
X31276435Y-67216171D01*
X31109871Y-67070629D01*
X30917776Y-66912420D01*
X30714088Y-66752657D01*
X30512745Y-66602450D01*
X30327683Y-66472912D01*
X30172840Y-66375153D01*
X30168258Y-66372495D01*
X30057668Y-66303252D01*
X29984262Y-66247641D01*
X29963720Y-66217483D01*
X29968435Y-66206920D01*
X29936108Y-66181059D01*
X29832513Y-66157958D01*
X29650953Y-66135870D01*
X29443209Y-66115202D01*
X29246378Y-66301413D01*
X29237376Y-66309962D01*
X28964588Y-66598647D01*
X28688202Y-66947248D01*
X28410358Y-67352440D01*
X28133196Y-67810899D01*
X27858859Y-68319300D01*
X27589485Y-68874320D01*
X27425923Y-69229015D01*
X27544775Y-69415516D01*
X27585269Y-69484888D01*
X27637131Y-69606182D01*
X27649397Y-69695821D01*
X27635680Y-69747734D01*
X27600134Y-69780285D01*
X27522215Y-69801874D01*
X27381167Y-69822287D01*
X27306049Y-69832658D01*
X27186766Y-69857008D01*
X27116633Y-69890461D01*
X27071207Y-69942496D01*
X27024264Y-70039128D01*
X26980536Y-70194892D01*
X26954791Y-70372503D01*
X26947515Y-70555268D01*
X26407799Y-70555268D01*
X26410515Y-70542165D01*
X26445883Y-70450002D01*
X26504052Y-70337856D01*
X26589283Y-70196717D01*
X26705843Y-70017575D01*
X26857995Y-69791419D01*
X26890005Y-69743591D01*
X26991165Y-69583874D01*
X27076900Y-69435881D01*
X27138985Y-69314344D01*
X27169193Y-69234000D01*
X27175406Y-69204606D01*
X27219726Y-69006591D01*
X27266057Y-68826895D01*
X27318150Y-68658071D01*
X27379756Y-68492671D01*
X27454625Y-68323246D01*
X27546509Y-68142351D01*
X27659158Y-67942535D01*
X27796323Y-67716353D01*
X27961755Y-67456355D01*
X28159205Y-67155095D01*
X28392423Y-66805125D01*
X28546486Y-66575565D01*
X28715002Y-66327323D01*
X28855017Y-66127105D01*
X28971595Y-65969902D01*
X29069798Y-65850704D01*
X29154688Y-65764501D01*
X29231328Y-65706284D01*
X29304780Y-65671042D01*
X29380107Y-65653767D01*
X29462372Y-65649449D01*
X29556636Y-65653077D01*
X29728417Y-65671712D01*
X30055963Y-65748295D01*
X30395270Y-65875750D01*
X30733586Y-66048900D01*
X31058157Y-66262570D01*
X31148260Y-66331566D01*
X31419373Y-66576763D01*
X31639795Y-66846398D01*
X31825580Y-67159228D01*
X31868353Y-67241181D01*
X31951716Y-67392607D01*
X32031398Y-67528226D01*
X32094757Y-67626107D01*
X32204421Y-67780340D01*
X32715927Y-67758213D01*
X32849047Y-67752691D01*
X33032085Y-67747391D01*
X33164917Y-67749235D01*
X33269457Y-67759807D01*
X33367619Y-67780687D01*
X33481318Y-67813458D01*
X33735203Y-67890830D01*
X34079552Y-67411477D01*
X34119039Y-67355620D01*
X34264569Y-67137531D01*
X34413669Y-66898139D01*
X34550890Y-66662811D01*
X34660786Y-66456916D01*
X34729609Y-66321476D01*
X34887495Y-66033741D01*
X35036449Y-65797938D01*
X35181379Y-65606671D01*
X35327192Y-65452544D01*
X35342312Y-65438982D01*
X35488322Y-65339244D01*
X35669243Y-65253193D01*
X35855799Y-65192792D01*
X36018717Y-65170000D01*
X36075115Y-65173346D01*
X36259802Y-65215655D01*
X36476900Y-65301213D01*
X36715091Y-65423286D01*
X36963056Y-65575139D01*
X37209477Y-65750039D01*
X37443036Y-65941250D01*
X37652414Y-66142040D01*
X37832880Y-66338605D01*
X38138531Y-66716331D01*
X38372349Y-67077335D01*
X38538012Y-67427698D01*
X38639196Y-67773500D01*
X38650707Y-67830306D01*
X38685818Y-68001900D01*
X38713416Y-68122817D01*
X38738340Y-68202479D01*
X38765427Y-68250307D01*
X38799519Y-68275722D01*
X38845452Y-68288146D01*
X38908066Y-68297001D01*
X38921539Y-68298970D01*
X39047498Y-68323208D01*
X39141978Y-68350342D01*
X39151281Y-68354502D01*
X39232224Y-68421416D01*
X39314567Y-68535676D01*
X39392458Y-68683103D01*
X39460047Y-68849516D01*
X39495932Y-68968971D01*
X39511482Y-69020738D01*
G36*
X39511482Y-69020738D02*
G01*
X39540912Y-69182588D01*
X39542485Y-69320888D01*
X39540113Y-69338775D01*
X39518921Y-69452612D01*
X39485652Y-69595909D01*
X39446392Y-69742000D01*
X39416658Y-69854398D01*
X39393666Y-70002596D01*
X39406378Y-70108237D01*
X39456875Y-70181429D01*
X39547233Y-70232275D01*
X39638897Y-70282425D01*
X39696776Y-70356495D01*
X39692067Y-70428278D01*
X39627170Y-70482528D01*
X39504483Y-70504000D01*
X39427183Y-70509368D01*
X39390216Y-70539375D01*
X39382667Y-70613324D01*
X39382669Y-70614203D01*
X39418503Y-70718603D01*
X39511434Y-70793084D01*
X39641396Y-70821500D01*
X39716140Y-70837673D01*
X39810519Y-70881360D01*
X39834238Y-70896850D01*
X39869098Y-70929990D01*
X39893330Y-70978141D01*
X39910290Y-71053416D01*
X39923332Y-71167931D01*
X39935810Y-71333797D01*
X39962535Y-71726375D01*
X40201768Y-72088260D01*
X40307748Y-72253121D01*
X40381391Y-72385536D01*
X40421431Y-72493957D01*
X40431657Y-72594473D01*
X40415854Y-72703172D01*
X40377810Y-72836142D01*
X40366684Y-72871267D01*
X40341841Y-72964719D01*
X40342715Y-73002180D01*
X40343399Y-73031550D01*
X40376594Y-73098997D01*
X40446662Y-73194297D01*
X40540664Y-73346307D01*
X40583545Y-73502108D01*
X40557759Y-73633402D01*
X40463122Y-73734062D01*
X40344625Y-73810507D01*
X40423179Y-73990816D01*
X40459083Y-74072315D01*
X40493530Y-74148252D01*
X40510075Y-74181634D01*
X40533046Y-74180968D01*
X40601431Y-74158823D01*
X40635631Y-74147111D01*
X40671232Y-74151522D01*
X40693624Y-74194688D01*
X40713337Y-74288844D01*
X40714833Y-74297428D01*
X40725094Y-74402220D01*
X40707078Y-74474453D01*
X40654467Y-74541214D01*
X40566705Y-74630242D01*
X40715519Y-74676875D01*
X40741358Y-74685515D01*
X40828963Y-74725094D01*
X40864333Y-74759236D01*
X40863073Y-74764007D01*
X40825206Y-74810362D01*
X40745290Y-74885329D01*
X40637744Y-74975169D01*
X40552892Y-75043301D01*
X40435276Y-75143735D01*
X40370623Y-75213965D01*
X40353969Y-75263284D01*
X40380349Y-75300989D01*
X40444797Y-75336373D01*
X40485767Y-75356352D01*
X40539607Y-75397779D01*
X40562929Y-75458174D01*
X40567967Y-75559720D01*
X40567957Y-75562749D01*
X40529113Y-75761427D01*
X40413956Y-75967701D01*
X40220954Y-76183289D01*
X39948574Y-76409906D01*
X39595284Y-76649269D01*
X39293281Y-76837943D01*
X39322244Y-77115618D01*
X39333393Y-77273614D01*
X39327299Y-77381699D01*
X39302871Y-77436973D01*
X39278045Y-77452012D01*
X39183770Y-77492589D01*
X39041982Y-77544703D01*
X38872563Y-77600786D01*
X38729909Y-77647955D01*
X38483255Y-77747771D01*
X38307372Y-77853369D01*
X38193091Y-77973038D01*
X38131245Y-78115065D01*
X38112667Y-78287738D01*
X38112571Y-78294990D01*
X38094194Y-78410826D01*
X38053635Y-78517752D01*
X38025284Y-78563921D01*
X37986477Y-78599900D01*
X37922547Y-78623616D01*
X37813887Y-78641903D01*
X37640885Y-78661596D01*
X37447435Y-78685780D01*
X36999779Y-78765896D01*
X36560493Y-78875531D01*
X36154715Y-79007903D01*
X35807579Y-79156230D01*
X35564052Y-79296782D01*
X35363437Y-79467597D01*
X35222360Y-79668366D01*
X35128214Y-79913138D01*
X35126248Y-79920148D01*
X35101177Y-79975106D01*
X35050823Y-79993632D01*
X34946373Y-79987508D01*
X34923920Y-79984999D01*
X34769208Y-79961705D01*
X34614079Y-79931023D01*
X34564677Y-79920001D01*
X34468238Y-79906994D01*
X34395072Y-79923583D01*
X34303914Y-79975715D01*
X34299100Y-79978743D01*
X34191370Y-80037094D01*
X34103821Y-80055602D01*
X34022187Y-80029941D01*
X33932197Y-79955780D01*
X33819585Y-79828793D01*
X33735327Y-79731867D01*
X33628747Y-79630679D01*
X33512861Y-79552981D01*
X33361495Y-79478772D01*
X33109629Y-79382177D01*
X32732541Y-79274558D01*
X32295032Y-79182236D01*
X31809772Y-79107438D01*
X31289428Y-79052388D01*
X30746667Y-79019314D01*
X30175167Y-78997125D01*
X30090500Y-78800542D01*
X30076670Y-78769205D01*
X29994622Y-78617993D01*
X29892018Y-78496864D01*
X29749890Y-78387246D01*
X29549271Y-78270564D01*
X29405237Y-78198893D01*
X29133565Y-78080395D01*
X28812796Y-77955033D01*
X28462167Y-77829595D01*
X28100916Y-77710867D01*
X27748281Y-77605634D01*
X27423500Y-77520683D01*
X27393015Y-77513256D01*
X27123843Y-77431649D01*
X26905726Y-77335643D01*
X26749833Y-77231098D01*
X26667332Y-77123875D01*
X26656129Y-77076926D01*
X26682813Y-77022514D01*
X26773410Y-76990305D01*
X26937591Y-76974972D01*
X26942260Y-76974774D01*
X27073203Y-76967304D01*
X27142298Y-76952165D01*
X27171645Y-76918670D01*
X27183343Y-76856132D01*
X27184584Y-76718364D01*
X27126208Y-76554685D01*
X26992849Y-76407605D01*
X26842148Y-76282500D01*
X26509897Y-76282500D01*
X26467640Y-76282436D01*
X26312529Y-76279563D01*
X26217880Y-76269865D01*
X26163756Y-76249855D01*
X26130223Y-76216042D01*
X26110786Y-76180618D01*
X26105927Y-76095316D01*
X26154389Y-75988084D01*
X26260058Y-75847905D01*
X26304416Y-75793313D01*
X26348712Y-75724002D01*
X26373371Y-75649961D01*
X26384033Y-75551612D01*
X26386333Y-75409375D01*
X26386094Y-75334544D01*
X26381388Y-75230343D01*
X26364706Y-75146650D01*
X26328438Y-75069115D01*
X26264975Y-74983393D01*
X26166706Y-74875134D01*
X26026024Y-74729992D01*
X25997636Y-74698951D01*
X25940365Y-74611106D01*
X25913117Y-74510176D01*
X25915609Y-74384512D01*
X25947562Y-74222461D01*
X26008693Y-74012375D01*
X26010114Y-74007878D01*
X26047553Y-73864716D01*
X26072242Y-73706821D01*
X26073866Y-73684529D01*
X26941790Y-73684529D01*
X26956931Y-73915540D01*
X27031122Y-74123500D01*
X27068242Y-74187571D01*
X27132022Y-74268277D01*
X27215988Y-74323332D01*
X27348696Y-74375385D01*
X27479995Y-74427696D01*
X27567414Y-74485184D01*
X27616320Y-74557397D01*
X27640339Y-74620180D01*
X27651878Y-74725371D01*
X27604989Y-74789153D01*
X27497583Y-74816074D01*
X27434538Y-74824090D01*
X27372489Y-74851400D01*
X27362442Y-74901148D01*
X27406567Y-74978796D01*
X27507035Y-75089803D01*
X27666019Y-75239629D01*
X27722725Y-75294144D01*
X27818120Y-75401763D01*
X27889619Y-75502821D01*
X27927681Y-75582902D01*
X27922766Y-75627592D01*
X27903113Y-75634035D01*
X27816598Y-75643697D01*
X27691611Y-75647500D01*
X27587493Y-75650092D01*
X27505746Y-75669464D01*
X27476360Y-75720763D01*
X27480924Y-75818970D01*
X27485082Y-75841799D01*
X27499037Y-75868574D01*
X27532131Y-75899040D01*
X27594494Y-75939648D01*
X27696257Y-75996851D01*
X27847549Y-76077102D01*
X28058500Y-76186852D01*
X28104205Y-76210581D01*
X28309192Y-76318025D01*
X28458261Y-76399080D01*
X28563533Y-76461307D01*
X28637129Y-76512269D01*
X28691170Y-76559528D01*
X28737777Y-76610647D01*
X28774404Y-76657645D01*
X28788140Y-76701449D01*
X28753653Y-76730382D01*
X28752449Y-76730960D01*
X28669474Y-76746158D01*
X28555917Y-76742109D01*
X28456992Y-76740226D01*
X28416407Y-76767270D01*
X28433893Y-76818675D01*
X28502986Y-76889036D01*
X28617219Y-76972953D01*
X28770128Y-77065021D01*
X28955245Y-77159838D01*
X29166107Y-77252002D01*
X29219204Y-77273385D01*
X29435374Y-77362394D01*
X29612333Y-77440842D01*
X29766479Y-77518057D01*
X29914211Y-77603370D01*
X30071925Y-77706110D01*
X30256019Y-77835605D01*
X30482891Y-78001186D01*
X30522700Y-78030403D01*
X30790094Y-78220759D01*
X31017117Y-78368522D01*
X31216052Y-78479089D01*
X31399181Y-78557855D01*
X31578788Y-78610216D01*
X31767155Y-78641566D01*
X31976566Y-78657301D01*
X32059116Y-78660643D01*
X32203655Y-78662838D01*
X32300657Y-78654206D01*
X32375905Y-78631120D01*
X32455183Y-78589950D01*
X32598378Y-78508035D01*
X32695901Y-78585892D01*
X32792072Y-78640529D01*
X32944796Y-78663227D01*
X32985046Y-78661937D01*
X33073758Y-78649435D01*
X33175913Y-78619362D01*
X33304992Y-78566495D01*
X33474477Y-78485613D01*
X33697850Y-78371492D01*
X33824841Y-78307634D01*
X33996476Y-78232933D01*
X34118101Y-78199699D01*
X34196722Y-78206378D01*
X34239344Y-78251418D01*
X34243925Y-78267432D01*
X34237098Y-78354560D01*
X34196128Y-78463178D01*
X34165954Y-78528175D01*
X34149238Y-78600339D01*
X34171941Y-78641905D01*
X34214753Y-78650583D01*
X34280699Y-78618206D01*
X34380843Y-78538365D01*
X34471354Y-78465822D01*
X34553088Y-78421976D01*
X34616767Y-78420253D01*
X34657267Y-78440538D01*
X34679645Y-78490515D01*
X34677017Y-78584598D01*
X34674295Y-78623911D01*
X34681022Y-78698243D01*
X34704528Y-78725978D01*
X34759385Y-78715635D01*
X34886562Y-78667377D01*
X35055787Y-78584714D01*
X35255167Y-78473109D01*
X35368493Y-78407335D01*
X35473937Y-78350929D01*
X35578821Y-78303025D01*
X35699181Y-78257607D01*
X35851056Y-78208658D01*
X36050483Y-78150162D01*
X36313500Y-78076103D01*
X36491520Y-78024730D01*
X36793889Y-77925994D01*
X37057988Y-77819631D01*
X37306283Y-77694963D01*
X37561244Y-77541310D01*
X37845337Y-77347992D01*
X37991354Y-77243199D01*
X38170380Y-77107352D01*
X38298836Y-76996582D01*
X38385904Y-76901744D01*
X38440765Y-76813694D01*
X38472600Y-76723288D01*
X38473806Y-76718331D01*
X38481713Y-76639647D01*
X38451447Y-76575182D01*
X38370321Y-76496847D01*
X38290811Y-76417427D01*
X38245407Y-76326273D01*
X38265505Y-76240449D01*
X38355130Y-76154392D01*
X38518308Y-76062534D01*
X38759062Y-75959312D01*
X38933385Y-75878477D01*
X39146998Y-75752583D01*
X39348195Y-75608605D01*
X39515796Y-75461922D01*
X39628621Y-75327913D01*
X39641807Y-75306197D01*
X39695892Y-75180703D01*
X39718612Y-75057008D01*
X39708470Y-74953688D01*
X39663968Y-74889318D01*
X39650953Y-74882200D01*
X39561267Y-74846887D01*
X39441718Y-74811196D01*
X39415466Y-74803853D01*
X39270331Y-74731704D01*
X39193659Y-74628478D01*
X39192599Y-74503022D01*
X39202880Y-74480007D01*
X39260794Y-74398439D01*
X39354021Y-74293157D01*
X39468070Y-74181093D01*
X39588164Y-74068170D01*
X39687420Y-73961181D01*
X39734859Y-73879082D01*
X39733467Y-73809751D01*
X39686226Y-73741065D01*
X39596121Y-73660902D01*
X39521519Y-73596444D01*
X39451881Y-73526234D01*
X39425000Y-73484339D01*
X39425260Y-73482281D01*
X39457436Y-73438820D01*
X39532910Y-73366261D01*
X39636667Y-73279155D01*
X39681315Y-73243174D01*
X39771412Y-73160918D01*
X39824360Y-73084901D01*
X39840992Y-73002180D01*
X39822139Y-72899811D01*
X39768632Y-72764848D01*
X39681304Y-72584348D01*
X39573152Y-72382560D01*
X39455162Y-72202824D01*
X39331299Y-72062944D01*
X39190691Y-71950877D01*
X39022467Y-71854582D01*
X38811001Y-71764344D01*
X38599495Y-71702661D01*
X38409222Y-71674914D01*
X38254923Y-71683216D01*
X38151340Y-71729682D01*
X38103008Y-71763234D01*
X38002790Y-71806902D01*
X37974631Y-71818843D01*
X37893379Y-71894820D01*
X37808472Y-72033782D01*
X37706343Y-72234375D01*
X37329500Y-72234375D01*
X37332213Y-72091500D01*
X37342783Y-72016432D01*
X37401023Y-71859083D01*
X37511368Y-71656162D01*
X37614223Y-71476494D01*
X37687179Y-71321373D01*
X37718174Y-71206694D01*
X37708985Y-71125513D01*
X37661394Y-71070887D01*
X37575399Y-71023630D01*
X37466279Y-70999455D01*
X37337953Y-71016531D01*
X37168056Y-71075047D01*
X37116889Y-71095149D01*
X36957080Y-71148987D01*
X36844590Y-71165539D01*
X36763036Y-71145277D01*
X36696034Y-71088674D01*
X36673926Y-71059744D01*
X36650710Y-71007251D01*
X36640362Y-70933855D01*
X36641422Y-70825465D01*
X36652430Y-70667987D01*
X36658649Y-70590082D01*
X36665379Y-70434545D01*
X36651765Y-70328006D01*
X36608243Y-70260249D01*
X36525249Y-70221057D01*
X36393218Y-70200214D01*
X36202585Y-70187504D01*
X36148317Y-70184269D01*
X35901201Y-70157985D01*
X35723651Y-70114040D01*
X35604463Y-70048595D01*
X35532436Y-69957809D01*
X35531638Y-69956207D01*
X35484969Y-69863411D01*
X35445571Y-69786390D01*
X35442656Y-69781111D01*
X35399950Y-69741528D01*
X35315061Y-69716111D01*
X35166750Y-69698138D01*
X35151652Y-69696811D01*
X35017255Y-69687828D01*
X34929404Y-69695972D01*
X34853691Y-69729489D01*
X34755705Y-69796622D01*
X34595832Y-69917047D01*
X34461604Y-70041045D01*
X34382722Y-70159045D01*
X34352477Y-70287495D01*
X34364159Y-70442842D01*
X34411061Y-70641534D01*
X34412022Y-70645040D01*
X34442992Y-70783484D01*
X34461646Y-70917304D01*
X34463978Y-71017993D01*
X34452674Y-71093368D01*
X34422982Y-71145090D01*
X34355482Y-71185147D01*
X34230151Y-71231850D01*
X34167132Y-71255321D01*
X34043938Y-71319514D01*
X33968990Y-71400962D01*
X33931890Y-71514647D01*
X33922245Y-71675550D01*
X33925349Y-71798078D01*
X33940243Y-71902197D01*
X33973585Y-71961798D01*
X34032031Y-71987319D01*
X34122236Y-71989195D01*
X34237966Y-71993881D01*
X34316015Y-72033747D01*
X34329442Y-72057212D01*
X34319847Y-72099451D01*
X34265613Y-72159917D01*
X34157789Y-72250897D01*
X34113265Y-72286816D01*
X34025039Y-72363599D01*
X33980786Y-72421083D01*
X33969241Y-72478433D01*
X33979140Y-72554814D01*
X33990210Y-72602353D01*
X34051323Y-72751795D01*
X34141473Y-72887557D01*
X34245245Y-72984738D01*
X34269608Y-72999322D01*
X34373901Y-73050672D01*
X34499749Y-73102914D01*
X34622296Y-73159330D01*
X34743876Y-73239367D01*
X34823507Y-73320231D01*
X34844027Y-73387726D01*
X34806596Y-73448395D01*
X34724299Y-73476672D01*
X34589085Y-73469004D01*
X34391827Y-73426168D01*
X34097283Y-73349565D01*
X33850725Y-73462678D01*
X33765888Y-73501163D01*
X33543273Y-73595718D01*
X33374014Y-73654578D01*
X33247821Y-73680135D01*
X33154403Y-73674779D01*
X33083467Y-73640899D01*
X33044704Y-73597556D01*
X33041522Y-73535828D01*
X33088316Y-73455098D01*
X33189727Y-73347814D01*
X33350395Y-73206421D01*
X33461491Y-73110952D01*
X33568329Y-73013821D01*
X33640892Y-72941444D01*
X33667637Y-72904796D01*
X33666832Y-72895660D01*
X33649973Y-72829251D01*
X33616010Y-72726312D01*
X33571240Y-72603194D01*
X33521962Y-72476250D01*
X33474471Y-72361829D01*
X33435066Y-72276283D01*
X33410044Y-72235962D01*
X33403267Y-72229560D01*
X33379271Y-72168379D01*
X33373798Y-72057204D01*
X33386909Y-71892056D01*
X33418664Y-71668957D01*
X33426703Y-71617077D01*
X33443684Y-71458830D01*
X33440594Y-71340027D01*
X33417379Y-71243151D01*
X33410671Y-71225074D01*
X33369762Y-71146115D01*
X33306427Y-71103499D01*
X33190131Y-71074574D01*
X33074694Y-71051910D01*
X32955191Y-71025627D01*
X32884951Y-71002724D01*
X32844137Y-70976038D01*
X32812914Y-70938412D01*
X32788095Y-70870502D01*
X32773374Y-70755180D01*
X32771543Y-70610317D01*
X32774233Y-70510360D01*
X32770647Y-70415993D01*
X32753213Y-70354043D01*
X32715931Y-70306596D01*
X32652802Y-70255736D01*
X32629016Y-70238985D01*
X32444588Y-70150066D01*
X32199183Y-70082876D01*
X31910833Y-70042595D01*
X31852520Y-70037715D01*
X31682111Y-70022956D01*
X31537225Y-70009795D01*
X31375282Y-69994483D01*
X31386796Y-70157174D01*
X31386491Y-70251352D01*
X31358171Y-70323216D01*
X31287155Y-70361653D01*
X31160135Y-70373180D01*
X30963802Y-70364312D01*
X30917802Y-70361429D01*
X30708618Y-70365105D01*
X30546700Y-70406914D01*
X30411696Y-70495029D01*
X30283254Y-70637624D01*
X30271158Y-70653601D01*
X30187923Y-70783139D01*
X30161876Y-70883932D01*
X30192930Y-70972278D01*
X30281000Y-71064475D01*
X30328471Y-71107885D01*
X30401020Y-71205106D01*
X30400810Y-71284954D01*
X30324913Y-71350716D01*
X30170398Y-71405675D01*
X29934335Y-71453118D01*
X29834657Y-71472616D01*
X29688966Y-71512548D01*
X29587766Y-71554315D01*
X29556679Y-71575243D01*
X29453033Y-71686594D01*
X29369618Y-71841524D01*
X29313190Y-72024872D01*
X29290504Y-72221480D01*
X29289659Y-72295782D01*
X29295001Y-72396399D01*
X29316778Y-72468236D01*
X29363810Y-72533807D01*
X29444917Y-72615628D01*
X29535530Y-72711253D01*
X29593379Y-72803933D01*
X29585678Y-72866169D01*
X29513496Y-72902435D01*
X29512966Y-72902560D01*
X29437429Y-72902588D01*
X29333471Y-72868041D01*
X29185413Y-72793723D01*
X29016267Y-72703376D01*
X28777208Y-72587996D01*
X28578070Y-72513370D01*
X28405916Y-72477294D01*
X28247810Y-72477562D01*
X28090818Y-72511969D01*
X27922003Y-72578308D01*
X27858721Y-72608673D01*
X27621801Y-72747002D01*
X27397403Y-72912850D01*
X27207331Y-73088772D01*
X27073387Y-73257321D01*
X26984639Y-73452135D01*
X26941790Y-73684529D01*
X26073866Y-73684529D01*
X26085997Y-73518016D01*
X26090633Y-73282125D01*
X26093322Y-73078317D01*
X26104887Y-72910986D01*
X26131926Y-72777215D01*
X26181067Y-72661659D01*
X26258938Y-72548970D01*
X26372165Y-72423803D01*
X26527375Y-72270811D01*
X26664883Y-72137314D01*
X26813145Y-71987104D01*
X26913861Y-71870374D01*
X26970414Y-71777909D01*
X26986186Y-71700496D01*
X26964561Y-71628917D01*
X26908920Y-71553959D01*
X26822646Y-71466405D01*
X26689951Y-71330702D01*
X26534996Y-71135478D01*
X26439679Y-70951997D01*
X26396133Y-70767368D01*
X26391122Y-70702584D01*
X26393683Y-70623355D01*
X26407799Y-70555268D01*
X26947515Y-70555268D01*
X26959195Y-70726491D01*
X26990317Y-70869478D01*
X27041366Y-70967532D01*
X27054745Y-70982080D01*
X27109828Y-71021035D01*
X27191793Y-71037963D01*
X27329226Y-71040066D01*
X27508511Y-71031866D01*
X27694348Y-71003826D01*
X27800401Y-70956979D01*
X27826201Y-70891834D01*
X27771279Y-70808897D01*
X27635167Y-70708675D01*
X27532120Y-70640669D01*
X27461387Y-70574089D01*
X27454630Y-70521564D01*
X27506490Y-70473293D01*
X27509641Y-70471417D01*
X27575411Y-70452932D01*
X27690009Y-70450608D01*
X27870106Y-70464019D01*
X27884186Y-70465355D01*
X28064781Y-70475230D01*
X28216425Y-70463539D01*
X28354560Y-70424162D01*
X28494632Y-70350977D01*
X28652085Y-70237865D01*
X28842362Y-70078704D01*
X28971161Y-69970456D01*
X29108897Y-69862464D01*
X29225474Y-69778985D01*
X29304552Y-69732267D01*
X29312009Y-69728962D01*
X29373433Y-69698368D01*
X29411044Y-69664320D01*
X29425758Y-69615140D01*
X29418497Y-69539150D01*
X29390178Y-69424673D01*
X29341722Y-69260031D01*
X29333785Y-69233447D01*
X29294334Y-69089416D01*
X29276338Y-68990305D01*
X29278239Y-68922095D01*
X29298481Y-68870768D01*
X29346646Y-68815640D01*
X29401676Y-68790438D01*
X29414357Y-68794001D01*
X29475855Y-68834798D01*
X29565003Y-68911447D01*
X29667167Y-69011750D01*
X29706027Y-69051889D01*
X29803492Y-69146299D01*
X29876588Y-69201042D01*
X29941632Y-69226502D01*
X30014944Y-69233061D01*
X30090766Y-69227810D01*
X30207860Y-69192316D01*
X30323592Y-69118538D01*
X30444408Y-69000848D01*
X30576757Y-68833616D01*
X30727083Y-68611213D01*
X30768043Y-68548300D01*
X30867402Y-68403457D01*
X30957020Y-68283063D01*
X31028392Y-68198213D01*
X31073011Y-68160002D01*
X31097358Y-68152005D01*
X31205229Y-68127927D01*
X31339333Y-68107511D01*
X31400933Y-68099226D01*
X31581514Y-68056391D01*
X31685975Y-67993281D01*
X31718475Y-67907705D01*
X31717593Y-67903294D01*
X34398461Y-67903294D01*
X34400926Y-67907705D01*
X34449306Y-67994282D01*
X34558280Y-68059922D01*
X34727835Y-68106382D01*
X34960418Y-68139830D01*
X35199188Y-68171090D01*
X35461668Y-68226773D01*
X35671884Y-68306629D01*
X35847474Y-68420113D01*
X36006079Y-68576683D01*
X36165339Y-68785796D01*
X36197970Y-68831263D01*
X36297772Y-68955716D01*
X36396109Y-69060572D01*
X36475740Y-69126884D01*
X36494673Y-69138690D01*
X36567042Y-69177001D01*
X36641236Y-69195640D01*
X36744667Y-69198644D01*
X36904749Y-69190049D01*
X37064165Y-69178469D01*
X37235322Y-69163978D01*
X37361512Y-69151068D01*
X37434414Y-69144059D01*
X37589581Y-69145732D01*
X37746074Y-69175917D01*
X37924109Y-69239532D01*
X38143896Y-69341498D01*
X38160610Y-69349748D01*
X38389603Y-69452268D01*
X38573083Y-69513358D01*
X38706340Y-69531807D01*
X38784661Y-69506402D01*
X38833176Y-69441506D01*
X38885388Y-69306416D01*
X38912651Y-69142474D01*
X38913836Y-68968971D01*
X38887820Y-68805195D01*
X38833474Y-68670437D01*
X38805790Y-68629339D01*
X38743969Y-68562063D01*
X38692903Y-68535500D01*
X38678467Y-68538140D01*
X38617412Y-68577797D01*
X38553250Y-68649922D01*
X38538963Y-68668633D01*
X38455144Y-68747355D01*
X38366949Y-68794949D01*
X38312500Y-68807113D01*
X38242772Y-68797211D01*
X38165726Y-68742134D01*
X38138807Y-68717368D01*
X38096399Y-68654872D01*
X38112527Y-68599195D01*
X38137192Y-68530267D01*
X38150700Y-68405418D01*
X38151032Y-68237435D01*
X38138192Y-68036428D01*
X38112184Y-67812503D01*
X38085288Y-67669029D01*
X38038190Y-67520680D01*
X37966946Y-67375808D01*
X37865397Y-67226505D01*
X37727387Y-67064865D01*
X37546756Y-66882982D01*
X37317348Y-66672948D01*
X37033004Y-66426858D01*
X36884062Y-66295905D01*
X36721562Y-66144479D01*
X36577524Y-66001940D01*
X36471527Y-65887108D01*
X36348566Y-65747535D01*
X36211380Y-65610509D01*
X36094042Y-65520367D01*
X35988059Y-65470863D01*
X35884935Y-65455749D01*
X35826957Y-65461561D01*
X35704204Y-65508204D01*
X35610175Y-65585577D01*
X35572509Y-65674344D01*
X35550173Y-65741268D01*
X35487994Y-65827323D01*
X35407931Y-65902502D01*
X35332171Y-65942089D01*
X35256191Y-65956622D01*
X35139972Y-65977048D01*
X35138732Y-65977257D01*
X35063738Y-65998246D01*
X35006501Y-66038329D01*
X34963045Y-66106382D01*
X34929391Y-66211284D01*
X34901564Y-66361912D01*
X34875585Y-66567142D01*
X34855724Y-66734533D01*
X34834487Y-66869726D01*
X34807484Y-66976922D01*
X34768749Y-67074416D01*
X34712318Y-67180503D01*
X34632223Y-67313481D01*
X34570213Y-67416564D01*
X34461365Y-67620603D01*
X34403297Y-67780790D01*
X34398461Y-67903294D01*
X31717593Y-67903294D01*
X31695056Y-67790524D01*
X31608571Y-67612428D01*
X31460504Y-67401742D01*
X31403530Y-67337935D01*
X31276435Y-67216171D01*
X31109871Y-67070629D01*
X30917776Y-66912420D01*
X30714088Y-66752657D01*
X30512745Y-66602450D01*
X30327683Y-66472912D01*
X30172840Y-66375153D01*
X30168258Y-66372495D01*
X30057668Y-66303252D01*
X29984262Y-66247641D01*
X29963720Y-66217483D01*
X29968435Y-66206920D01*
X29936108Y-66181059D01*
X29832513Y-66157958D01*
X29650953Y-66135870D01*
X29443209Y-66115202D01*
X29246378Y-66301413D01*
X29237376Y-66309962D01*
X28964588Y-66598647D01*
X28688202Y-66947248D01*
X28410358Y-67352440D01*
X28133196Y-67810899D01*
X27858859Y-68319300D01*
X27589485Y-68874320D01*
X27425923Y-69229015D01*
X27544775Y-69415516D01*
X27585269Y-69484888D01*
X27637131Y-69606182D01*
X27649397Y-69695821D01*
X27635680Y-69747734D01*
X27600134Y-69780285D01*
X27522215Y-69801874D01*
X27381167Y-69822287D01*
X27306049Y-69832658D01*
X27186766Y-69857008D01*
X27116633Y-69890461D01*
X27071207Y-69942496D01*
X27024264Y-70039128D01*
X26980536Y-70194892D01*
X26954791Y-70372503D01*
X26947515Y-70555268D01*
X26407799Y-70555268D01*
X26410515Y-70542165D01*
X26445883Y-70450002D01*
X26504052Y-70337856D01*
X26589283Y-70196717D01*
X26705843Y-70017575D01*
X26857995Y-69791419D01*
X26890005Y-69743591D01*
X26991165Y-69583874D01*
X27076900Y-69435881D01*
X27138985Y-69314344D01*
X27169193Y-69234000D01*
X27175406Y-69204606D01*
X27219726Y-69006591D01*
X27266057Y-68826895D01*
X27318150Y-68658071D01*
X27379756Y-68492671D01*
X27454625Y-68323246D01*
X27546509Y-68142351D01*
X27659158Y-67942535D01*
X27796323Y-67716353D01*
X27961755Y-67456355D01*
X28159205Y-67155095D01*
X28392423Y-66805125D01*
X28546486Y-66575565D01*
X28715002Y-66327323D01*
X28855017Y-66127105D01*
X28971595Y-65969902D01*
X29069798Y-65850704D01*
X29154688Y-65764501D01*
X29231328Y-65706284D01*
X29304780Y-65671042D01*
X29380107Y-65653767D01*
X29462372Y-65649449D01*
X29556636Y-65653077D01*
X29728417Y-65671712D01*
X30055963Y-65748295D01*
X30395270Y-65875750D01*
X30733586Y-66048900D01*
X31058157Y-66262570D01*
X31148260Y-66331566D01*
X31419373Y-66576763D01*
X31639795Y-66846398D01*
X31825580Y-67159228D01*
X31868353Y-67241181D01*
X31951716Y-67392607D01*
X32031398Y-67528226D01*
X32094757Y-67626107D01*
X32204421Y-67780340D01*
X32715927Y-67758213D01*
X32849047Y-67752691D01*
X33032085Y-67747391D01*
X33164917Y-67749235D01*
X33269457Y-67759807D01*
X33367619Y-67780687D01*
X33481318Y-67813458D01*
X33735203Y-67890830D01*
X34079552Y-67411477D01*
X34119039Y-67355620D01*
X34264569Y-67137531D01*
X34413669Y-66898139D01*
X34550890Y-66662811D01*
X34660786Y-66456916D01*
X34729609Y-66321476D01*
X34887495Y-66033741D01*
X35036449Y-65797938D01*
X35181379Y-65606671D01*
X35327192Y-65452544D01*
X35342312Y-65438982D01*
X35488322Y-65339244D01*
X35669243Y-65253193D01*
X35855799Y-65192792D01*
X36018717Y-65170000D01*
X36075115Y-65173346D01*
X36259802Y-65215655D01*
X36476900Y-65301213D01*
X36715091Y-65423286D01*
X36963056Y-65575139D01*
X37209477Y-65750039D01*
X37443036Y-65941250D01*
X37652414Y-66142040D01*
X37832880Y-66338605D01*
X38138531Y-66716331D01*
X38372349Y-67077335D01*
X38538012Y-67427698D01*
X38639196Y-67773500D01*
X38650707Y-67830306D01*
X38685818Y-68001900D01*
X38713416Y-68122817D01*
X38738340Y-68202479D01*
X38765427Y-68250307D01*
X38799519Y-68275722D01*
X38845452Y-68288146D01*
X38908066Y-68297001D01*
X38921539Y-68298970D01*
X39047498Y-68323208D01*
X39141978Y-68350342D01*
X39151281Y-68354502D01*
X39232224Y-68421416D01*
X39314567Y-68535676D01*
X39392458Y-68683103D01*
X39460047Y-68849516D01*
X39495932Y-68968971D01*
X39511482Y-69020738D01*
G37*
%TD*%
M02*
