%TF.GenerationSoftware,KiCad,Pcbnew,8.0.7*%
%TF.CreationDate,2025-01-10T10:31:37-06:00*%
%TF.ProjectId,CANBOARD_REV3,43414e42-4f41-4524-945f-524556332e6b,rev?*%
%TF.SameCoordinates,Original*%
%TF.FileFunction,Legend,Top*%
%TF.FilePolarity,Positive*%
%FSLAX46Y46*%
G04 Gerber Fmt 4.6, Leading zero omitted, Abs format (unit mm)*
G04 Created by KiCad (PCBNEW 8.0.7) date 2025-01-10 10:31:37*
%MOMM*%
%LPD*%
G01*
G04 APERTURE LIST*
%ADD10C,0.150000*%
%ADD11C,0.120000*%
%ADD12C,0.127000*%
%ADD13C,0.200000*%
G04 APERTURE END LIST*
D10*
X101817268Y-58889104D02*
X102293458Y-58889104D01*
X101722030Y-59174819D02*
X102055363Y-58174819D01*
X102055363Y-58174819D02*
X102388696Y-59174819D01*
X102626792Y-58174819D02*
X103245839Y-58174819D01*
X103245839Y-58174819D02*
X102912506Y-58555771D01*
X102912506Y-58555771D02*
X103055363Y-58555771D01*
X103055363Y-58555771D02*
X103150601Y-58603390D01*
X103150601Y-58603390D02*
X103198220Y-58651009D01*
X103198220Y-58651009D02*
X103245839Y-58746247D01*
X103245839Y-58746247D02*
X103245839Y-58984342D01*
X103245839Y-58984342D02*
X103198220Y-59079580D01*
X103198220Y-59079580D02*
X103150601Y-59127200D01*
X103150601Y-59127200D02*
X103055363Y-59174819D01*
X103055363Y-59174819D02*
X102769649Y-59174819D01*
X102769649Y-59174819D02*
X102674411Y-59127200D01*
X102674411Y-59127200D02*
X102626792Y-59079580D01*
X101817268Y-68889104D02*
X102293458Y-68889104D01*
X101722030Y-69174819D02*
X102055363Y-68174819D01*
X102055363Y-68174819D02*
X102388696Y-69174819D01*
X103245839Y-69174819D02*
X102674411Y-69174819D01*
X102960125Y-69174819D02*
X102960125Y-68174819D01*
X102960125Y-68174819D02*
X102864887Y-68317676D01*
X102864887Y-68317676D02*
X102769649Y-68412914D01*
X102769649Y-68412914D02*
X102674411Y-68460533D01*
X101817268Y-42889104D02*
X102293458Y-42889104D01*
X101722030Y-43174819D02*
X102055363Y-42174819D01*
X102055363Y-42174819D02*
X102388696Y-43174819D01*
X103150601Y-42174819D02*
X102960125Y-42174819D01*
X102960125Y-42174819D02*
X102864887Y-42222438D01*
X102864887Y-42222438D02*
X102817268Y-42270057D01*
X102817268Y-42270057D02*
X102722030Y-42412914D01*
X102722030Y-42412914D02*
X102674411Y-42603390D01*
X102674411Y-42603390D02*
X102674411Y-42984342D01*
X102674411Y-42984342D02*
X102722030Y-43079580D01*
X102722030Y-43079580D02*
X102769649Y-43127200D01*
X102769649Y-43127200D02*
X102864887Y-43174819D01*
X102864887Y-43174819D02*
X103055363Y-43174819D01*
X103055363Y-43174819D02*
X103150601Y-43127200D01*
X103150601Y-43127200D02*
X103198220Y-43079580D01*
X103198220Y-43079580D02*
X103245839Y-42984342D01*
X103245839Y-42984342D02*
X103245839Y-42746247D01*
X103245839Y-42746247D02*
X103198220Y-42651009D01*
X103198220Y-42651009D02*
X103150601Y-42603390D01*
X103150601Y-42603390D02*
X103055363Y-42555771D01*
X103055363Y-42555771D02*
X102864887Y-42555771D01*
X102864887Y-42555771D02*
X102769649Y-42603390D01*
X102769649Y-42603390D02*
X102722030Y-42651009D01*
X102722030Y-42651009D02*
X102674411Y-42746247D01*
X33562255Y-78674819D02*
X33752731Y-78674819D01*
X33752731Y-78674819D02*
X33847969Y-78722438D01*
X33847969Y-78722438D02*
X33943207Y-78817676D01*
X33943207Y-78817676D02*
X33990826Y-79008152D01*
X33990826Y-79008152D02*
X33990826Y-79341485D01*
X33990826Y-79341485D02*
X33943207Y-79531961D01*
X33943207Y-79531961D02*
X33847969Y-79627200D01*
X33847969Y-79627200D02*
X33752731Y-79674819D01*
X33752731Y-79674819D02*
X33562255Y-79674819D01*
X33562255Y-79674819D02*
X33467017Y-79627200D01*
X33467017Y-79627200D02*
X33371779Y-79531961D01*
X33371779Y-79531961D02*
X33324160Y-79341485D01*
X33324160Y-79341485D02*
X33324160Y-79008152D01*
X33324160Y-79008152D02*
X33371779Y-78817676D01*
X33371779Y-78817676D02*
X33467017Y-78722438D01*
X33467017Y-78722438D02*
X33562255Y-78674819D01*
X34276541Y-79008152D02*
X34657493Y-79008152D01*
X34419398Y-78674819D02*
X34419398Y-79531961D01*
X34419398Y-79531961D02*
X34467017Y-79627200D01*
X34467017Y-79627200D02*
X34562255Y-79674819D01*
X34562255Y-79674819D02*
X34657493Y-79674819D01*
X34990827Y-79674819D02*
X34990827Y-78674819D01*
X35419398Y-79674819D02*
X35419398Y-79151009D01*
X35419398Y-79151009D02*
X35371779Y-79055771D01*
X35371779Y-79055771D02*
X35276541Y-79008152D01*
X35276541Y-79008152D02*
X35133684Y-79008152D01*
X35133684Y-79008152D02*
X35038446Y-79055771D01*
X35038446Y-79055771D02*
X34990827Y-79103390D01*
X36276541Y-79627200D02*
X36181303Y-79674819D01*
X36181303Y-79674819D02*
X35990827Y-79674819D01*
X35990827Y-79674819D02*
X35895589Y-79627200D01*
X35895589Y-79627200D02*
X35847970Y-79531961D01*
X35847970Y-79531961D02*
X35847970Y-79151009D01*
X35847970Y-79151009D02*
X35895589Y-79055771D01*
X35895589Y-79055771D02*
X35990827Y-79008152D01*
X35990827Y-79008152D02*
X36181303Y-79008152D01*
X36181303Y-79008152D02*
X36276541Y-79055771D01*
X36276541Y-79055771D02*
X36324160Y-79151009D01*
X36324160Y-79151009D02*
X36324160Y-79246247D01*
X36324160Y-79246247D02*
X35847970Y-79341485D01*
X36752732Y-79674819D02*
X36752732Y-79008152D01*
X36752732Y-79198628D02*
X36800351Y-79103390D01*
X36800351Y-79103390D02*
X36847970Y-79055771D01*
X36847970Y-79055771D02*
X36943208Y-79008152D01*
X36943208Y-79008152D02*
X37038446Y-79008152D01*
X37133685Y-79770057D02*
X37895589Y-79770057D01*
X38657494Y-79674819D02*
X38086066Y-79674819D01*
X38371780Y-79674819D02*
X38371780Y-78674819D01*
X38371780Y-78674819D02*
X38276542Y-78817676D01*
X38276542Y-78817676D02*
X38181304Y-78912914D01*
X38181304Y-78912914D02*
X38086066Y-78960533D01*
X101817268Y-38389104D02*
X102293458Y-38389104D01*
X101722030Y-38674819D02*
X102055363Y-37674819D01*
X102055363Y-37674819D02*
X102388696Y-38674819D01*
X102626792Y-37674819D02*
X103293458Y-37674819D01*
X103293458Y-37674819D02*
X102864887Y-38674819D01*
X101817268Y-74389104D02*
X102293458Y-74389104D01*
X101722030Y-74674819D02*
X102055363Y-73674819D01*
X102055363Y-73674819D02*
X102388696Y-74674819D01*
X102912506Y-73674819D02*
X103007744Y-73674819D01*
X103007744Y-73674819D02*
X103102982Y-73722438D01*
X103102982Y-73722438D02*
X103150601Y-73770057D01*
X103150601Y-73770057D02*
X103198220Y-73865295D01*
X103198220Y-73865295D02*
X103245839Y-74055771D01*
X103245839Y-74055771D02*
X103245839Y-74293866D01*
X103245839Y-74293866D02*
X103198220Y-74484342D01*
X103198220Y-74484342D02*
X103150601Y-74579580D01*
X103150601Y-74579580D02*
X103102982Y-74627200D01*
X103102982Y-74627200D02*
X103007744Y-74674819D01*
X103007744Y-74674819D02*
X102912506Y-74674819D01*
X102912506Y-74674819D02*
X102817268Y-74627200D01*
X102817268Y-74627200D02*
X102769649Y-74579580D01*
X102769649Y-74579580D02*
X102722030Y-74484342D01*
X102722030Y-74484342D02*
X102674411Y-74293866D01*
X102674411Y-74293866D02*
X102674411Y-74055771D01*
X102674411Y-74055771D02*
X102722030Y-73865295D01*
X102722030Y-73865295D02*
X102769649Y-73770057D01*
X102769649Y-73770057D02*
X102817268Y-73722438D01*
X102817268Y-73722438D02*
X102912506Y-73674819D01*
X45895588Y-79222438D02*
X45800350Y-79174819D01*
X45800350Y-79174819D02*
X45657493Y-79174819D01*
X45657493Y-79174819D02*
X45514636Y-79222438D01*
X45514636Y-79222438D02*
X45419398Y-79317676D01*
X45419398Y-79317676D02*
X45371779Y-79412914D01*
X45371779Y-79412914D02*
X45324160Y-79603390D01*
X45324160Y-79603390D02*
X45324160Y-79746247D01*
X45324160Y-79746247D02*
X45371779Y-79936723D01*
X45371779Y-79936723D02*
X45419398Y-80031961D01*
X45419398Y-80031961D02*
X45514636Y-80127200D01*
X45514636Y-80127200D02*
X45657493Y-80174819D01*
X45657493Y-80174819D02*
X45752731Y-80174819D01*
X45752731Y-80174819D02*
X45895588Y-80127200D01*
X45895588Y-80127200D02*
X45943207Y-80079580D01*
X45943207Y-80079580D02*
X45943207Y-79746247D01*
X45943207Y-79746247D02*
X45752731Y-79746247D01*
X46371779Y-80174819D02*
X46371779Y-79174819D01*
X46371779Y-79174819D02*
X46943207Y-80174819D01*
X46943207Y-80174819D02*
X46943207Y-79174819D01*
X47419398Y-80174819D02*
X47419398Y-79174819D01*
X47419398Y-79174819D02*
X47657493Y-79174819D01*
X47657493Y-79174819D02*
X47800350Y-79222438D01*
X47800350Y-79222438D02*
X47895588Y-79317676D01*
X47895588Y-79317676D02*
X47943207Y-79412914D01*
X47943207Y-79412914D02*
X47990826Y-79603390D01*
X47990826Y-79603390D02*
X47990826Y-79746247D01*
X47990826Y-79746247D02*
X47943207Y-79936723D01*
X47943207Y-79936723D02*
X47895588Y-80031961D01*
X47895588Y-80031961D02*
X47800350Y-80127200D01*
X47800350Y-80127200D02*
X47657493Y-80174819D01*
X47657493Y-80174819D02*
X47419398Y-80174819D01*
X65205112Y-21151009D02*
X65347969Y-21198628D01*
X65347969Y-21198628D02*
X65395588Y-21246247D01*
X65395588Y-21246247D02*
X65443207Y-21341485D01*
X65443207Y-21341485D02*
X65443207Y-21484342D01*
X65443207Y-21484342D02*
X65395588Y-21579580D01*
X65395588Y-21579580D02*
X65347969Y-21627200D01*
X65347969Y-21627200D02*
X65252731Y-21674819D01*
X65252731Y-21674819D02*
X64871779Y-21674819D01*
X64871779Y-21674819D02*
X64871779Y-20674819D01*
X64871779Y-20674819D02*
X65205112Y-20674819D01*
X65205112Y-20674819D02*
X65300350Y-20722438D01*
X65300350Y-20722438D02*
X65347969Y-20770057D01*
X65347969Y-20770057D02*
X65395588Y-20865295D01*
X65395588Y-20865295D02*
X65395588Y-20960533D01*
X65395588Y-20960533D02*
X65347969Y-21055771D01*
X65347969Y-21055771D02*
X65300350Y-21103390D01*
X65300350Y-21103390D02*
X65205112Y-21151009D01*
X65205112Y-21151009D02*
X64871779Y-21151009D01*
X65871779Y-21674819D02*
X65871779Y-21008152D01*
X65871779Y-21198628D02*
X65919398Y-21103390D01*
X65919398Y-21103390D02*
X65967017Y-21055771D01*
X65967017Y-21055771D02*
X66062255Y-21008152D01*
X66062255Y-21008152D02*
X66157493Y-21008152D01*
X66919398Y-21674819D02*
X66919398Y-21151009D01*
X66919398Y-21151009D02*
X66871779Y-21055771D01*
X66871779Y-21055771D02*
X66776541Y-21008152D01*
X66776541Y-21008152D02*
X66586065Y-21008152D01*
X66586065Y-21008152D02*
X66490827Y-21055771D01*
X66919398Y-21627200D02*
X66824160Y-21674819D01*
X66824160Y-21674819D02*
X66586065Y-21674819D01*
X66586065Y-21674819D02*
X66490827Y-21627200D01*
X66490827Y-21627200D02*
X66443208Y-21531961D01*
X66443208Y-21531961D02*
X66443208Y-21436723D01*
X66443208Y-21436723D02*
X66490827Y-21341485D01*
X66490827Y-21341485D02*
X66586065Y-21293866D01*
X66586065Y-21293866D02*
X66824160Y-21293866D01*
X66824160Y-21293866D02*
X66919398Y-21246247D01*
X67395589Y-21674819D02*
X67395589Y-20674819D01*
X67490827Y-21293866D02*
X67776541Y-21674819D01*
X67776541Y-21008152D02*
X67395589Y-21389104D01*
X68586065Y-21627200D02*
X68490827Y-21674819D01*
X68490827Y-21674819D02*
X68300351Y-21674819D01*
X68300351Y-21674819D02*
X68205113Y-21627200D01*
X68205113Y-21627200D02*
X68157494Y-21531961D01*
X68157494Y-21531961D02*
X68157494Y-21151009D01*
X68157494Y-21151009D02*
X68205113Y-21055771D01*
X68205113Y-21055771D02*
X68300351Y-21008152D01*
X68300351Y-21008152D02*
X68490827Y-21008152D01*
X68490827Y-21008152D02*
X68586065Y-21055771D01*
X68586065Y-21055771D02*
X68633684Y-21151009D01*
X68633684Y-21151009D02*
X68633684Y-21246247D01*
X68633684Y-21246247D02*
X68157494Y-21341485D01*
X60824160Y-22627200D02*
X60967017Y-22674819D01*
X60967017Y-22674819D02*
X61205112Y-22674819D01*
X61205112Y-22674819D02*
X61300350Y-22627200D01*
X61300350Y-22627200D02*
X61347969Y-22579580D01*
X61347969Y-22579580D02*
X61395588Y-22484342D01*
X61395588Y-22484342D02*
X61395588Y-22389104D01*
X61395588Y-22389104D02*
X61347969Y-22293866D01*
X61347969Y-22293866D02*
X61300350Y-22246247D01*
X61300350Y-22246247D02*
X61205112Y-22198628D01*
X61205112Y-22198628D02*
X61014636Y-22151009D01*
X61014636Y-22151009D02*
X60919398Y-22103390D01*
X60919398Y-22103390D02*
X60871779Y-22055771D01*
X60871779Y-22055771D02*
X60824160Y-21960533D01*
X60824160Y-21960533D02*
X60824160Y-21865295D01*
X60824160Y-21865295D02*
X60871779Y-21770057D01*
X60871779Y-21770057D02*
X60919398Y-21722438D01*
X60919398Y-21722438D02*
X61014636Y-21674819D01*
X61014636Y-21674819D02*
X61252731Y-21674819D01*
X61252731Y-21674819D02*
X61395588Y-21722438D01*
X62205112Y-22627200D02*
X62109874Y-22674819D01*
X62109874Y-22674819D02*
X61919398Y-22674819D01*
X61919398Y-22674819D02*
X61824160Y-22627200D01*
X61824160Y-22627200D02*
X61776541Y-22531961D01*
X61776541Y-22531961D02*
X61776541Y-22151009D01*
X61776541Y-22151009D02*
X61824160Y-22055771D01*
X61824160Y-22055771D02*
X61919398Y-22008152D01*
X61919398Y-22008152D02*
X62109874Y-22008152D01*
X62109874Y-22008152D02*
X62205112Y-22055771D01*
X62205112Y-22055771D02*
X62252731Y-22151009D01*
X62252731Y-22151009D02*
X62252731Y-22246247D01*
X62252731Y-22246247D02*
X61776541Y-22341485D01*
X63109874Y-22674819D02*
X63109874Y-22151009D01*
X63109874Y-22151009D02*
X63062255Y-22055771D01*
X63062255Y-22055771D02*
X62967017Y-22008152D01*
X62967017Y-22008152D02*
X62776541Y-22008152D01*
X62776541Y-22008152D02*
X62681303Y-22055771D01*
X63109874Y-22627200D02*
X63014636Y-22674819D01*
X63014636Y-22674819D02*
X62776541Y-22674819D01*
X62776541Y-22674819D02*
X62681303Y-22627200D01*
X62681303Y-22627200D02*
X62633684Y-22531961D01*
X62633684Y-22531961D02*
X62633684Y-22436723D01*
X62633684Y-22436723D02*
X62681303Y-22341485D01*
X62681303Y-22341485D02*
X62776541Y-22293866D01*
X62776541Y-22293866D02*
X63014636Y-22293866D01*
X63014636Y-22293866D02*
X63109874Y-22246247D01*
X63443208Y-22008152D02*
X63824160Y-22008152D01*
X63586065Y-21674819D02*
X63586065Y-22531961D01*
X63586065Y-22531961D02*
X63633684Y-22627200D01*
X63633684Y-22627200D02*
X63728922Y-22674819D01*
X63728922Y-22674819D02*
X63824160Y-22674819D01*
X49895588Y-39722438D02*
X49800350Y-39674819D01*
X49800350Y-39674819D02*
X49657493Y-39674819D01*
X49657493Y-39674819D02*
X49514636Y-39722438D01*
X49514636Y-39722438D02*
X49419398Y-39817676D01*
X49419398Y-39817676D02*
X49371779Y-39912914D01*
X49371779Y-39912914D02*
X49324160Y-40103390D01*
X49324160Y-40103390D02*
X49324160Y-40246247D01*
X49324160Y-40246247D02*
X49371779Y-40436723D01*
X49371779Y-40436723D02*
X49419398Y-40531961D01*
X49419398Y-40531961D02*
X49514636Y-40627200D01*
X49514636Y-40627200D02*
X49657493Y-40674819D01*
X49657493Y-40674819D02*
X49752731Y-40674819D01*
X49752731Y-40674819D02*
X49895588Y-40627200D01*
X49895588Y-40627200D02*
X49943207Y-40579580D01*
X49943207Y-40579580D02*
X49943207Y-40246247D01*
X49943207Y-40246247D02*
X49752731Y-40246247D01*
X50371779Y-40674819D02*
X50371779Y-39674819D01*
X50371779Y-39674819D02*
X50943207Y-40674819D01*
X50943207Y-40674819D02*
X50943207Y-39674819D01*
X51419398Y-40674819D02*
X51419398Y-39674819D01*
X51419398Y-39674819D02*
X51657493Y-39674819D01*
X51657493Y-39674819D02*
X51800350Y-39722438D01*
X51800350Y-39722438D02*
X51895588Y-39817676D01*
X51895588Y-39817676D02*
X51943207Y-39912914D01*
X51943207Y-39912914D02*
X51990826Y-40103390D01*
X51990826Y-40103390D02*
X51990826Y-40246247D01*
X51990826Y-40246247D02*
X51943207Y-40436723D01*
X51943207Y-40436723D02*
X51895588Y-40531961D01*
X51895588Y-40531961D02*
X51800350Y-40627200D01*
X51800350Y-40627200D02*
X51657493Y-40674819D01*
X51657493Y-40674819D02*
X51419398Y-40674819D01*
X81371779Y-22674819D02*
X81371779Y-21674819D01*
X81371779Y-21674819D02*
X81609874Y-21674819D01*
X81609874Y-21674819D02*
X81752731Y-21722438D01*
X81752731Y-21722438D02*
X81847969Y-21817676D01*
X81847969Y-21817676D02*
X81895588Y-21912914D01*
X81895588Y-21912914D02*
X81943207Y-22103390D01*
X81943207Y-22103390D02*
X81943207Y-22246247D01*
X81943207Y-22246247D02*
X81895588Y-22436723D01*
X81895588Y-22436723D02*
X81847969Y-22531961D01*
X81847969Y-22531961D02*
X81752731Y-22627200D01*
X81752731Y-22627200D02*
X81609874Y-22674819D01*
X81609874Y-22674819D02*
X81371779Y-22674819D01*
X82800350Y-21674819D02*
X82609874Y-21674819D01*
X82609874Y-21674819D02*
X82514636Y-21722438D01*
X82514636Y-21722438D02*
X82467017Y-21770057D01*
X82467017Y-21770057D02*
X82371779Y-21912914D01*
X82371779Y-21912914D02*
X82324160Y-22103390D01*
X82324160Y-22103390D02*
X82324160Y-22484342D01*
X82324160Y-22484342D02*
X82371779Y-22579580D01*
X82371779Y-22579580D02*
X82419398Y-22627200D01*
X82419398Y-22627200D02*
X82514636Y-22674819D01*
X82514636Y-22674819D02*
X82705112Y-22674819D01*
X82705112Y-22674819D02*
X82800350Y-22627200D01*
X82800350Y-22627200D02*
X82847969Y-22579580D01*
X82847969Y-22579580D02*
X82895588Y-22484342D01*
X82895588Y-22484342D02*
X82895588Y-22246247D01*
X82895588Y-22246247D02*
X82847969Y-22151009D01*
X82847969Y-22151009D02*
X82800350Y-22103390D01*
X82800350Y-22103390D02*
X82705112Y-22055771D01*
X82705112Y-22055771D02*
X82514636Y-22055771D01*
X82514636Y-22055771D02*
X82419398Y-22103390D01*
X82419398Y-22103390D02*
X82371779Y-22151009D01*
X82371779Y-22151009D02*
X82324160Y-22246247D01*
X64728922Y-39674819D02*
X65062255Y-40674819D01*
X65062255Y-40674819D02*
X65395588Y-39674819D01*
X65490827Y-40770057D02*
X66252731Y-40770057D01*
X66490827Y-40674819D02*
X66490827Y-39674819D01*
X66967017Y-40674819D02*
X66967017Y-39674819D01*
X66967017Y-39674819D02*
X67538445Y-40674819D01*
X67538445Y-40674819D02*
X67538445Y-39674819D01*
X75062255Y-20674819D02*
X75252731Y-20674819D01*
X75252731Y-20674819D02*
X75347969Y-20722438D01*
X75347969Y-20722438D02*
X75443207Y-20817676D01*
X75443207Y-20817676D02*
X75490826Y-21008152D01*
X75490826Y-21008152D02*
X75490826Y-21341485D01*
X75490826Y-21341485D02*
X75443207Y-21531961D01*
X75443207Y-21531961D02*
X75347969Y-21627200D01*
X75347969Y-21627200D02*
X75252731Y-21674819D01*
X75252731Y-21674819D02*
X75062255Y-21674819D01*
X75062255Y-21674819D02*
X74967017Y-21627200D01*
X74967017Y-21627200D02*
X74871779Y-21531961D01*
X74871779Y-21531961D02*
X74824160Y-21341485D01*
X74824160Y-21341485D02*
X74824160Y-21008152D01*
X74824160Y-21008152D02*
X74871779Y-20817676D01*
X74871779Y-20817676D02*
X74967017Y-20722438D01*
X74967017Y-20722438D02*
X75062255Y-20674819D01*
X75776541Y-21008152D02*
X76157493Y-21008152D01*
X75919398Y-20674819D02*
X75919398Y-21531961D01*
X75919398Y-21531961D02*
X75967017Y-21627200D01*
X75967017Y-21627200D02*
X76062255Y-21674819D01*
X76062255Y-21674819D02*
X76157493Y-21674819D01*
X76490827Y-21674819D02*
X76490827Y-20674819D01*
X76919398Y-21674819D02*
X76919398Y-21151009D01*
X76919398Y-21151009D02*
X76871779Y-21055771D01*
X76871779Y-21055771D02*
X76776541Y-21008152D01*
X76776541Y-21008152D02*
X76633684Y-21008152D01*
X76633684Y-21008152D02*
X76538446Y-21055771D01*
X76538446Y-21055771D02*
X76490827Y-21103390D01*
X77776541Y-21627200D02*
X77681303Y-21674819D01*
X77681303Y-21674819D02*
X77490827Y-21674819D01*
X77490827Y-21674819D02*
X77395589Y-21627200D01*
X77395589Y-21627200D02*
X77347970Y-21531961D01*
X77347970Y-21531961D02*
X77347970Y-21151009D01*
X77347970Y-21151009D02*
X77395589Y-21055771D01*
X77395589Y-21055771D02*
X77490827Y-21008152D01*
X77490827Y-21008152D02*
X77681303Y-21008152D01*
X77681303Y-21008152D02*
X77776541Y-21055771D01*
X77776541Y-21055771D02*
X77824160Y-21151009D01*
X77824160Y-21151009D02*
X77824160Y-21246247D01*
X77824160Y-21246247D02*
X77347970Y-21341485D01*
X78252732Y-21674819D02*
X78252732Y-21008152D01*
X78252732Y-21198628D02*
X78300351Y-21103390D01*
X78300351Y-21103390D02*
X78347970Y-21055771D01*
X78347970Y-21055771D02*
X78443208Y-21008152D01*
X78443208Y-21008152D02*
X78538446Y-21008152D01*
X78824161Y-20770057D02*
X78871780Y-20722438D01*
X78871780Y-20722438D02*
X78967018Y-20674819D01*
X78967018Y-20674819D02*
X79205113Y-20674819D01*
X79205113Y-20674819D02*
X79300351Y-20722438D01*
X79300351Y-20722438D02*
X79347970Y-20770057D01*
X79347970Y-20770057D02*
X79395589Y-20865295D01*
X79395589Y-20865295D02*
X79395589Y-20960533D01*
X79395589Y-20960533D02*
X79347970Y-21103390D01*
X79347970Y-21103390D02*
X78776542Y-21674819D01*
X78776542Y-21674819D02*
X79395589Y-21674819D01*
X94871779Y-21674819D02*
X94871779Y-20674819D01*
X95443207Y-21674819D02*
X95014636Y-21103390D01*
X95443207Y-20674819D02*
X94871779Y-21246247D01*
X95871779Y-21674819D02*
X95871779Y-21008152D01*
X95871779Y-20674819D02*
X95824160Y-20722438D01*
X95824160Y-20722438D02*
X95871779Y-20770057D01*
X95871779Y-20770057D02*
X95919398Y-20722438D01*
X95919398Y-20722438D02*
X95871779Y-20674819D01*
X95871779Y-20674819D02*
X95871779Y-20770057D01*
X96490826Y-21674819D02*
X96395588Y-21627200D01*
X96395588Y-21627200D02*
X96347969Y-21531961D01*
X96347969Y-21531961D02*
X96347969Y-20674819D01*
X97014636Y-21674819D02*
X96919398Y-21627200D01*
X96919398Y-21627200D02*
X96871779Y-21531961D01*
X96871779Y-21531961D02*
X96871779Y-20674819D01*
X97157494Y-21770057D02*
X97919398Y-21770057D01*
X98109875Y-21627200D02*
X98252732Y-21674819D01*
X98252732Y-21674819D02*
X98490827Y-21674819D01*
X98490827Y-21674819D02*
X98586065Y-21627200D01*
X98586065Y-21627200D02*
X98633684Y-21579580D01*
X98633684Y-21579580D02*
X98681303Y-21484342D01*
X98681303Y-21484342D02*
X98681303Y-21389104D01*
X98681303Y-21389104D02*
X98633684Y-21293866D01*
X98633684Y-21293866D02*
X98586065Y-21246247D01*
X98586065Y-21246247D02*
X98490827Y-21198628D01*
X98490827Y-21198628D02*
X98300351Y-21151009D01*
X98300351Y-21151009D02*
X98205113Y-21103390D01*
X98205113Y-21103390D02*
X98157494Y-21055771D01*
X98157494Y-21055771D02*
X98109875Y-20960533D01*
X98109875Y-20960533D02*
X98109875Y-20865295D01*
X98109875Y-20865295D02*
X98157494Y-20770057D01*
X98157494Y-20770057D02*
X98205113Y-20722438D01*
X98205113Y-20722438D02*
X98300351Y-20674819D01*
X98300351Y-20674819D02*
X98538446Y-20674819D01*
X98538446Y-20674819D02*
X98681303Y-20722438D01*
X99109875Y-21674819D02*
X99109875Y-21008152D01*
X99109875Y-20674819D02*
X99062256Y-20722438D01*
X99062256Y-20722438D02*
X99109875Y-20770057D01*
X99109875Y-20770057D02*
X99157494Y-20722438D01*
X99157494Y-20722438D02*
X99109875Y-20674819D01*
X99109875Y-20674819D02*
X99109875Y-20770057D01*
X100014636Y-21008152D02*
X100014636Y-21817676D01*
X100014636Y-21817676D02*
X99967017Y-21912914D01*
X99967017Y-21912914D02*
X99919398Y-21960533D01*
X99919398Y-21960533D02*
X99824160Y-22008152D01*
X99824160Y-22008152D02*
X99681303Y-22008152D01*
X99681303Y-22008152D02*
X99586065Y-21960533D01*
X100014636Y-21627200D02*
X99919398Y-21674819D01*
X99919398Y-21674819D02*
X99728922Y-21674819D01*
X99728922Y-21674819D02*
X99633684Y-21627200D01*
X99633684Y-21627200D02*
X99586065Y-21579580D01*
X99586065Y-21579580D02*
X99538446Y-21484342D01*
X99538446Y-21484342D02*
X99538446Y-21198628D01*
X99538446Y-21198628D02*
X99586065Y-21103390D01*
X99586065Y-21103390D02*
X99633684Y-21055771D01*
X99633684Y-21055771D02*
X99728922Y-21008152D01*
X99728922Y-21008152D02*
X99919398Y-21008152D01*
X99919398Y-21008152D02*
X100014636Y-21055771D01*
X89824160Y-22627200D02*
X89967017Y-22674819D01*
X89967017Y-22674819D02*
X90205112Y-22674819D01*
X90205112Y-22674819D02*
X90300350Y-22627200D01*
X90300350Y-22627200D02*
X90347969Y-22579580D01*
X90347969Y-22579580D02*
X90395588Y-22484342D01*
X90395588Y-22484342D02*
X90395588Y-22389104D01*
X90395588Y-22389104D02*
X90347969Y-22293866D01*
X90347969Y-22293866D02*
X90300350Y-22246247D01*
X90300350Y-22246247D02*
X90205112Y-22198628D01*
X90205112Y-22198628D02*
X90014636Y-22151009D01*
X90014636Y-22151009D02*
X89919398Y-22103390D01*
X89919398Y-22103390D02*
X89871779Y-22055771D01*
X89871779Y-22055771D02*
X89824160Y-21960533D01*
X89824160Y-21960533D02*
X89824160Y-21865295D01*
X89824160Y-21865295D02*
X89871779Y-21770057D01*
X89871779Y-21770057D02*
X89919398Y-21722438D01*
X89919398Y-21722438D02*
X90014636Y-21674819D01*
X90014636Y-21674819D02*
X90252731Y-21674819D01*
X90252731Y-21674819D02*
X90395588Y-21722438D01*
X90681303Y-22008152D02*
X91062255Y-22008152D01*
X90824160Y-21674819D02*
X90824160Y-22531961D01*
X90824160Y-22531961D02*
X90871779Y-22627200D01*
X90871779Y-22627200D02*
X90967017Y-22674819D01*
X90967017Y-22674819D02*
X91062255Y-22674819D01*
X91824160Y-22674819D02*
X91824160Y-22151009D01*
X91824160Y-22151009D02*
X91776541Y-22055771D01*
X91776541Y-22055771D02*
X91681303Y-22008152D01*
X91681303Y-22008152D02*
X91490827Y-22008152D01*
X91490827Y-22008152D02*
X91395589Y-22055771D01*
X91824160Y-22627200D02*
X91728922Y-22674819D01*
X91728922Y-22674819D02*
X91490827Y-22674819D01*
X91490827Y-22674819D02*
X91395589Y-22627200D01*
X91395589Y-22627200D02*
X91347970Y-22531961D01*
X91347970Y-22531961D02*
X91347970Y-22436723D01*
X91347970Y-22436723D02*
X91395589Y-22341485D01*
X91395589Y-22341485D02*
X91490827Y-22293866D01*
X91490827Y-22293866D02*
X91728922Y-22293866D01*
X91728922Y-22293866D02*
X91824160Y-22246247D01*
X92300351Y-22674819D02*
X92300351Y-22008152D01*
X92300351Y-22198628D02*
X92347970Y-22103390D01*
X92347970Y-22103390D02*
X92395589Y-22055771D01*
X92395589Y-22055771D02*
X92490827Y-22008152D01*
X92490827Y-22008152D02*
X92586065Y-22008152D01*
X92776542Y-22008152D02*
X93157494Y-22008152D01*
X92919399Y-21674819D02*
X92919399Y-22531961D01*
X92919399Y-22531961D02*
X92967018Y-22627200D01*
X92967018Y-22627200D02*
X93062256Y-22674819D01*
X93062256Y-22674819D02*
X93157494Y-22674819D01*
X93252733Y-22770057D02*
X94014637Y-22770057D01*
X94205114Y-22627200D02*
X94347971Y-22674819D01*
X94347971Y-22674819D02*
X94586066Y-22674819D01*
X94586066Y-22674819D02*
X94681304Y-22627200D01*
X94681304Y-22627200D02*
X94728923Y-22579580D01*
X94728923Y-22579580D02*
X94776542Y-22484342D01*
X94776542Y-22484342D02*
X94776542Y-22389104D01*
X94776542Y-22389104D02*
X94728923Y-22293866D01*
X94728923Y-22293866D02*
X94681304Y-22246247D01*
X94681304Y-22246247D02*
X94586066Y-22198628D01*
X94586066Y-22198628D02*
X94395590Y-22151009D01*
X94395590Y-22151009D02*
X94300352Y-22103390D01*
X94300352Y-22103390D02*
X94252733Y-22055771D01*
X94252733Y-22055771D02*
X94205114Y-21960533D01*
X94205114Y-21960533D02*
X94205114Y-21865295D01*
X94205114Y-21865295D02*
X94252733Y-21770057D01*
X94252733Y-21770057D02*
X94300352Y-21722438D01*
X94300352Y-21722438D02*
X94395590Y-21674819D01*
X94395590Y-21674819D02*
X94633685Y-21674819D01*
X94633685Y-21674819D02*
X94776542Y-21722438D01*
X95205114Y-22674819D02*
X95205114Y-22008152D01*
X95205114Y-21674819D02*
X95157495Y-21722438D01*
X95157495Y-21722438D02*
X95205114Y-21770057D01*
X95205114Y-21770057D02*
X95252733Y-21722438D01*
X95252733Y-21722438D02*
X95205114Y-21674819D01*
X95205114Y-21674819D02*
X95205114Y-21770057D01*
X96109875Y-22008152D02*
X96109875Y-22817676D01*
X96109875Y-22817676D02*
X96062256Y-22912914D01*
X96062256Y-22912914D02*
X96014637Y-22960533D01*
X96014637Y-22960533D02*
X95919399Y-23008152D01*
X95919399Y-23008152D02*
X95776542Y-23008152D01*
X95776542Y-23008152D02*
X95681304Y-22960533D01*
X96109875Y-22627200D02*
X96014637Y-22674819D01*
X96014637Y-22674819D02*
X95824161Y-22674819D01*
X95824161Y-22674819D02*
X95728923Y-22627200D01*
X95728923Y-22627200D02*
X95681304Y-22579580D01*
X95681304Y-22579580D02*
X95633685Y-22484342D01*
X95633685Y-22484342D02*
X95633685Y-22198628D01*
X95633685Y-22198628D02*
X95681304Y-22103390D01*
X95681304Y-22103390D02*
X95728923Y-22055771D01*
X95728923Y-22055771D02*
X95824161Y-22008152D01*
X95824161Y-22008152D02*
X96014637Y-22008152D01*
X96014637Y-22008152D02*
X96109875Y-22055771D01*
X23324160Y-79627200D02*
X23467017Y-79674819D01*
X23467017Y-79674819D02*
X23705112Y-79674819D01*
X23705112Y-79674819D02*
X23800350Y-79627200D01*
X23800350Y-79627200D02*
X23847969Y-79579580D01*
X23847969Y-79579580D02*
X23895588Y-79484342D01*
X23895588Y-79484342D02*
X23895588Y-79389104D01*
X23895588Y-79389104D02*
X23847969Y-79293866D01*
X23847969Y-79293866D02*
X23800350Y-79246247D01*
X23800350Y-79246247D02*
X23705112Y-79198628D01*
X23705112Y-79198628D02*
X23514636Y-79151009D01*
X23514636Y-79151009D02*
X23419398Y-79103390D01*
X23419398Y-79103390D02*
X23371779Y-79055771D01*
X23371779Y-79055771D02*
X23324160Y-78960533D01*
X23324160Y-78960533D02*
X23324160Y-78865295D01*
X23324160Y-78865295D02*
X23371779Y-78770057D01*
X23371779Y-78770057D02*
X23419398Y-78722438D01*
X23419398Y-78722438D02*
X23514636Y-78674819D01*
X23514636Y-78674819D02*
X23752731Y-78674819D01*
X23752731Y-78674819D02*
X23895588Y-78722438D01*
X24705112Y-79627200D02*
X24609874Y-79674819D01*
X24609874Y-79674819D02*
X24419398Y-79674819D01*
X24419398Y-79674819D02*
X24324160Y-79627200D01*
X24324160Y-79627200D02*
X24276541Y-79531961D01*
X24276541Y-79531961D02*
X24276541Y-79151009D01*
X24276541Y-79151009D02*
X24324160Y-79055771D01*
X24324160Y-79055771D02*
X24419398Y-79008152D01*
X24419398Y-79008152D02*
X24609874Y-79008152D01*
X24609874Y-79008152D02*
X24705112Y-79055771D01*
X24705112Y-79055771D02*
X24752731Y-79151009D01*
X24752731Y-79151009D02*
X24752731Y-79246247D01*
X24752731Y-79246247D02*
X24276541Y-79341485D01*
X25609874Y-79674819D02*
X25609874Y-79151009D01*
X25609874Y-79151009D02*
X25562255Y-79055771D01*
X25562255Y-79055771D02*
X25467017Y-79008152D01*
X25467017Y-79008152D02*
X25276541Y-79008152D01*
X25276541Y-79008152D02*
X25181303Y-79055771D01*
X25609874Y-79627200D02*
X25514636Y-79674819D01*
X25514636Y-79674819D02*
X25276541Y-79674819D01*
X25276541Y-79674819D02*
X25181303Y-79627200D01*
X25181303Y-79627200D02*
X25133684Y-79531961D01*
X25133684Y-79531961D02*
X25133684Y-79436723D01*
X25133684Y-79436723D02*
X25181303Y-79341485D01*
X25181303Y-79341485D02*
X25276541Y-79293866D01*
X25276541Y-79293866D02*
X25514636Y-79293866D01*
X25514636Y-79293866D02*
X25609874Y-79246247D01*
X25943208Y-79008152D02*
X26324160Y-79008152D01*
X26086065Y-78674819D02*
X26086065Y-79531961D01*
X26086065Y-79531961D02*
X26133684Y-79627200D01*
X26133684Y-79627200D02*
X26228922Y-79674819D01*
X26228922Y-79674819D02*
X26324160Y-79674819D01*
X26419399Y-79770057D02*
X27181303Y-79770057D01*
X27371780Y-79627200D02*
X27514637Y-79674819D01*
X27514637Y-79674819D02*
X27752732Y-79674819D01*
X27752732Y-79674819D02*
X27847970Y-79627200D01*
X27847970Y-79627200D02*
X27895589Y-79579580D01*
X27895589Y-79579580D02*
X27943208Y-79484342D01*
X27943208Y-79484342D02*
X27943208Y-79389104D01*
X27943208Y-79389104D02*
X27895589Y-79293866D01*
X27895589Y-79293866D02*
X27847970Y-79246247D01*
X27847970Y-79246247D02*
X27752732Y-79198628D01*
X27752732Y-79198628D02*
X27562256Y-79151009D01*
X27562256Y-79151009D02*
X27467018Y-79103390D01*
X27467018Y-79103390D02*
X27419399Y-79055771D01*
X27419399Y-79055771D02*
X27371780Y-78960533D01*
X27371780Y-78960533D02*
X27371780Y-78865295D01*
X27371780Y-78865295D02*
X27419399Y-78770057D01*
X27419399Y-78770057D02*
X27467018Y-78722438D01*
X27467018Y-78722438D02*
X27562256Y-78674819D01*
X27562256Y-78674819D02*
X27800351Y-78674819D01*
X27800351Y-78674819D02*
X27943208Y-78722438D01*
X28276542Y-78674819D02*
X28514637Y-79674819D01*
X28514637Y-79674819D02*
X28705113Y-78960533D01*
X28705113Y-78960533D02*
X28895589Y-79674819D01*
X28895589Y-79674819D02*
X29133685Y-78674819D01*
X59776541Y-39674819D02*
X60395588Y-39674819D01*
X60395588Y-39674819D02*
X60062255Y-40055771D01*
X60062255Y-40055771D02*
X60205112Y-40055771D01*
X60205112Y-40055771D02*
X60300350Y-40103390D01*
X60300350Y-40103390D02*
X60347969Y-40151009D01*
X60347969Y-40151009D02*
X60395588Y-40246247D01*
X60395588Y-40246247D02*
X60395588Y-40484342D01*
X60395588Y-40484342D02*
X60347969Y-40579580D01*
X60347969Y-40579580D02*
X60300350Y-40627200D01*
X60300350Y-40627200D02*
X60205112Y-40674819D01*
X60205112Y-40674819D02*
X59919398Y-40674819D01*
X59919398Y-40674819D02*
X59824160Y-40627200D01*
X59824160Y-40627200D02*
X59776541Y-40579580D01*
X60824160Y-40579580D02*
X60871779Y-40627200D01*
X60871779Y-40627200D02*
X60824160Y-40674819D01*
X60824160Y-40674819D02*
X60776541Y-40627200D01*
X60776541Y-40627200D02*
X60824160Y-40579580D01*
X60824160Y-40579580D02*
X60824160Y-40674819D01*
X61205112Y-39674819D02*
X61824159Y-39674819D01*
X61824159Y-39674819D02*
X61490826Y-40055771D01*
X61490826Y-40055771D02*
X61633683Y-40055771D01*
X61633683Y-40055771D02*
X61728921Y-40103390D01*
X61728921Y-40103390D02*
X61776540Y-40151009D01*
X61776540Y-40151009D02*
X61824159Y-40246247D01*
X61824159Y-40246247D02*
X61824159Y-40484342D01*
X61824159Y-40484342D02*
X61776540Y-40579580D01*
X61776540Y-40579580D02*
X61728921Y-40627200D01*
X61728921Y-40627200D02*
X61633683Y-40674819D01*
X61633683Y-40674819D02*
X61347969Y-40674819D01*
X61347969Y-40674819D02*
X61252731Y-40627200D01*
X61252731Y-40627200D02*
X61205112Y-40579580D01*
X62109874Y-39674819D02*
X62443207Y-40674819D01*
X62443207Y-40674819D02*
X62776540Y-39674819D01*
X86371779Y-22674819D02*
X86371779Y-21674819D01*
X86371779Y-21674819D02*
X86609874Y-21674819D01*
X86609874Y-21674819D02*
X86752731Y-21722438D01*
X86752731Y-21722438D02*
X86847969Y-21817676D01*
X86847969Y-21817676D02*
X86895588Y-21912914D01*
X86895588Y-21912914D02*
X86943207Y-22103390D01*
X86943207Y-22103390D02*
X86943207Y-22246247D01*
X86943207Y-22246247D02*
X86895588Y-22436723D01*
X86895588Y-22436723D02*
X86847969Y-22531961D01*
X86847969Y-22531961D02*
X86752731Y-22627200D01*
X86752731Y-22627200D02*
X86609874Y-22674819D01*
X86609874Y-22674819D02*
X86371779Y-22674819D01*
X87276541Y-21674819D02*
X87943207Y-21674819D01*
X87943207Y-21674819D02*
X87514636Y-22674819D01*
X28205112Y-81151009D02*
X28347969Y-81198628D01*
X28347969Y-81198628D02*
X28395588Y-81246247D01*
X28395588Y-81246247D02*
X28443207Y-81341485D01*
X28443207Y-81341485D02*
X28443207Y-81484342D01*
X28443207Y-81484342D02*
X28395588Y-81579580D01*
X28395588Y-81579580D02*
X28347969Y-81627200D01*
X28347969Y-81627200D02*
X28252731Y-81674819D01*
X28252731Y-81674819D02*
X27871779Y-81674819D01*
X27871779Y-81674819D02*
X27871779Y-80674819D01*
X27871779Y-80674819D02*
X28205112Y-80674819D01*
X28205112Y-80674819D02*
X28300350Y-80722438D01*
X28300350Y-80722438D02*
X28347969Y-80770057D01*
X28347969Y-80770057D02*
X28395588Y-80865295D01*
X28395588Y-80865295D02*
X28395588Y-80960533D01*
X28395588Y-80960533D02*
X28347969Y-81055771D01*
X28347969Y-81055771D02*
X28300350Y-81103390D01*
X28300350Y-81103390D02*
X28205112Y-81151009D01*
X28205112Y-81151009D02*
X27871779Y-81151009D01*
X28871779Y-81674819D02*
X28871779Y-81008152D01*
X28871779Y-81198628D02*
X28919398Y-81103390D01*
X28919398Y-81103390D02*
X28967017Y-81055771D01*
X28967017Y-81055771D02*
X29062255Y-81008152D01*
X29062255Y-81008152D02*
X29157493Y-81008152D01*
X29919398Y-81674819D02*
X29919398Y-81151009D01*
X29919398Y-81151009D02*
X29871779Y-81055771D01*
X29871779Y-81055771D02*
X29776541Y-81008152D01*
X29776541Y-81008152D02*
X29586065Y-81008152D01*
X29586065Y-81008152D02*
X29490827Y-81055771D01*
X29919398Y-81627200D02*
X29824160Y-81674819D01*
X29824160Y-81674819D02*
X29586065Y-81674819D01*
X29586065Y-81674819D02*
X29490827Y-81627200D01*
X29490827Y-81627200D02*
X29443208Y-81531961D01*
X29443208Y-81531961D02*
X29443208Y-81436723D01*
X29443208Y-81436723D02*
X29490827Y-81341485D01*
X29490827Y-81341485D02*
X29586065Y-81293866D01*
X29586065Y-81293866D02*
X29824160Y-81293866D01*
X29824160Y-81293866D02*
X29919398Y-81246247D01*
X30395589Y-81674819D02*
X30395589Y-80674819D01*
X30490827Y-81293866D02*
X30776541Y-81674819D01*
X30776541Y-81008152D02*
X30395589Y-81389104D01*
X31586065Y-81627200D02*
X31490827Y-81674819D01*
X31490827Y-81674819D02*
X31300351Y-81674819D01*
X31300351Y-81674819D02*
X31205113Y-81627200D01*
X31205113Y-81627200D02*
X31157494Y-81531961D01*
X31157494Y-81531961D02*
X31157494Y-81151009D01*
X31157494Y-81151009D02*
X31205113Y-81055771D01*
X31205113Y-81055771D02*
X31300351Y-81008152D01*
X31300351Y-81008152D02*
X31490827Y-81008152D01*
X31490827Y-81008152D02*
X31586065Y-81055771D01*
X31586065Y-81055771D02*
X31633684Y-81151009D01*
X31633684Y-81151009D02*
X31633684Y-81246247D01*
X31633684Y-81246247D02*
X31157494Y-81341485D01*
X31824161Y-81770057D02*
X32586065Y-81770057D01*
X32776542Y-81627200D02*
X32919399Y-81674819D01*
X32919399Y-81674819D02*
X33157494Y-81674819D01*
X33157494Y-81674819D02*
X33252732Y-81627200D01*
X33252732Y-81627200D02*
X33300351Y-81579580D01*
X33300351Y-81579580D02*
X33347970Y-81484342D01*
X33347970Y-81484342D02*
X33347970Y-81389104D01*
X33347970Y-81389104D02*
X33300351Y-81293866D01*
X33300351Y-81293866D02*
X33252732Y-81246247D01*
X33252732Y-81246247D02*
X33157494Y-81198628D01*
X33157494Y-81198628D02*
X32967018Y-81151009D01*
X32967018Y-81151009D02*
X32871780Y-81103390D01*
X32871780Y-81103390D02*
X32824161Y-81055771D01*
X32824161Y-81055771D02*
X32776542Y-80960533D01*
X32776542Y-80960533D02*
X32776542Y-80865295D01*
X32776542Y-80865295D02*
X32824161Y-80770057D01*
X32824161Y-80770057D02*
X32871780Y-80722438D01*
X32871780Y-80722438D02*
X32967018Y-80674819D01*
X32967018Y-80674819D02*
X33205113Y-80674819D01*
X33205113Y-80674819D02*
X33347970Y-80722438D01*
X33681304Y-80674819D02*
X33919399Y-81674819D01*
X33919399Y-81674819D02*
X34109875Y-80960533D01*
X34109875Y-80960533D02*
X34300351Y-81674819D01*
X34300351Y-81674819D02*
X34538447Y-80674819D01*
X57324160Y-80050169D02*
X57371779Y-80002550D01*
X57371779Y-80002550D02*
X57467017Y-79954931D01*
X57467017Y-79954931D02*
X57705112Y-79954931D01*
X57705112Y-79954931D02*
X57800350Y-80002550D01*
X57800350Y-80002550D02*
X57847969Y-80050169D01*
X57847969Y-80050169D02*
X57895588Y-80145407D01*
X57895588Y-80145407D02*
X57895588Y-80240645D01*
X57895588Y-80240645D02*
X57847969Y-80383502D01*
X57847969Y-80383502D02*
X57276541Y-80954931D01*
X57276541Y-80954931D02*
X57895588Y-80954931D01*
X58752731Y-80288264D02*
X58752731Y-80954931D01*
X58514636Y-79907312D02*
X58276541Y-80621597D01*
X58276541Y-80621597D02*
X58895588Y-80621597D01*
X59990826Y-79907312D02*
X59133684Y-81193026D01*
X60276541Y-80050169D02*
X60324160Y-80002550D01*
X60324160Y-80002550D02*
X60419398Y-79954931D01*
X60419398Y-79954931D02*
X60657493Y-79954931D01*
X60657493Y-79954931D02*
X60752731Y-80002550D01*
X60752731Y-80002550D02*
X60800350Y-80050169D01*
X60800350Y-80050169D02*
X60847969Y-80145407D01*
X60847969Y-80145407D02*
X60847969Y-80240645D01*
X60847969Y-80240645D02*
X60800350Y-80383502D01*
X60800350Y-80383502D02*
X60228922Y-80954931D01*
X60228922Y-80954931D02*
X60847969Y-80954931D01*
X61752731Y-79954931D02*
X61276541Y-79954931D01*
X61276541Y-79954931D02*
X61228922Y-80431121D01*
X61228922Y-80431121D02*
X61276541Y-80383502D01*
X61276541Y-80383502D02*
X61371779Y-80335883D01*
X61371779Y-80335883D02*
X61609874Y-80335883D01*
X61609874Y-80335883D02*
X61705112Y-80383502D01*
X61705112Y-80383502D02*
X61752731Y-80431121D01*
X61752731Y-80431121D02*
X61800350Y-80526359D01*
X61800350Y-80526359D02*
X61800350Y-80764454D01*
X61800350Y-80764454D02*
X61752731Y-80859692D01*
X61752731Y-80859692D02*
X61705112Y-80907312D01*
X61705112Y-80907312D02*
X61609874Y-80954931D01*
X61609874Y-80954931D02*
X61371779Y-80954931D01*
X61371779Y-80954931D02*
X61276541Y-80907312D01*
X61276541Y-80907312D02*
X61228922Y-80859692D01*
X63562255Y-80954931D02*
X63228922Y-80478740D01*
X62990827Y-80954931D02*
X62990827Y-79954931D01*
X62990827Y-79954931D02*
X63371779Y-79954931D01*
X63371779Y-79954931D02*
X63467017Y-80002550D01*
X63467017Y-80002550D02*
X63514636Y-80050169D01*
X63514636Y-80050169D02*
X63562255Y-80145407D01*
X63562255Y-80145407D02*
X63562255Y-80288264D01*
X63562255Y-80288264D02*
X63514636Y-80383502D01*
X63514636Y-80383502D02*
X63467017Y-80431121D01*
X63467017Y-80431121D02*
X63371779Y-80478740D01*
X63371779Y-80478740D02*
X62990827Y-80478740D01*
X64371779Y-80907312D02*
X64276541Y-80954931D01*
X64276541Y-80954931D02*
X64086065Y-80954931D01*
X64086065Y-80954931D02*
X63990827Y-80907312D01*
X63990827Y-80907312D02*
X63943208Y-80812073D01*
X63943208Y-80812073D02*
X63943208Y-80431121D01*
X63943208Y-80431121D02*
X63990827Y-80335883D01*
X63990827Y-80335883D02*
X64086065Y-80288264D01*
X64086065Y-80288264D02*
X64276541Y-80288264D01*
X64276541Y-80288264D02*
X64371779Y-80335883D01*
X64371779Y-80335883D02*
X64419398Y-80431121D01*
X64419398Y-80431121D02*
X64419398Y-80526359D01*
X64419398Y-80526359D02*
X63943208Y-80621597D01*
X64752732Y-80288264D02*
X64990827Y-80954931D01*
X64990827Y-80954931D02*
X65228922Y-80288264D01*
X66276542Y-79954931D02*
X66895589Y-79954931D01*
X66895589Y-79954931D02*
X66562256Y-80335883D01*
X66562256Y-80335883D02*
X66705113Y-80335883D01*
X66705113Y-80335883D02*
X66800351Y-80383502D01*
X66800351Y-80383502D02*
X66847970Y-80431121D01*
X66847970Y-80431121D02*
X66895589Y-80526359D01*
X66895589Y-80526359D02*
X66895589Y-80764454D01*
X66895589Y-80764454D02*
X66847970Y-80859692D01*
X66847970Y-80859692D02*
X66800351Y-80907312D01*
X66800351Y-80907312D02*
X66705113Y-80954931D01*
X66705113Y-80954931D02*
X66419399Y-80954931D01*
X66419399Y-80954931D02*
X66324161Y-80907312D01*
X66324161Y-80907312D02*
X66276542Y-80859692D01*
X68657494Y-80859692D02*
X68609875Y-80907312D01*
X68609875Y-80907312D02*
X68467018Y-80954931D01*
X68467018Y-80954931D02*
X68371780Y-80954931D01*
X68371780Y-80954931D02*
X68228923Y-80907312D01*
X68228923Y-80907312D02*
X68133685Y-80812073D01*
X68133685Y-80812073D02*
X68086066Y-80716835D01*
X68086066Y-80716835D02*
X68038447Y-80526359D01*
X68038447Y-80526359D02*
X68038447Y-80383502D01*
X68038447Y-80383502D02*
X68086066Y-80193026D01*
X68086066Y-80193026D02*
X68133685Y-80097788D01*
X68133685Y-80097788D02*
X68228923Y-80002550D01*
X68228923Y-80002550D02*
X68371780Y-79954931D01*
X68371780Y-79954931D02*
X68467018Y-79954931D01*
X68467018Y-79954931D02*
X68609875Y-80002550D01*
X68609875Y-80002550D02*
X68657494Y-80050169D01*
X69038447Y-80669216D02*
X69514637Y-80669216D01*
X68943209Y-80954931D02*
X69276542Y-79954931D01*
X69276542Y-79954931D02*
X69609875Y-80954931D01*
X69943209Y-80954931D02*
X69943209Y-79954931D01*
X69943209Y-79954931D02*
X70514637Y-80954931D01*
X70514637Y-80954931D02*
X70514637Y-79954931D01*
X70990828Y-80573978D02*
X71752733Y-80573978D01*
X72562256Y-80431121D02*
X72705113Y-80478740D01*
X72705113Y-80478740D02*
X72752732Y-80526359D01*
X72752732Y-80526359D02*
X72800351Y-80621597D01*
X72800351Y-80621597D02*
X72800351Y-80764454D01*
X72800351Y-80764454D02*
X72752732Y-80859692D01*
X72752732Y-80859692D02*
X72705113Y-80907312D01*
X72705113Y-80907312D02*
X72609875Y-80954931D01*
X72609875Y-80954931D02*
X72228923Y-80954931D01*
X72228923Y-80954931D02*
X72228923Y-79954931D01*
X72228923Y-79954931D02*
X72562256Y-79954931D01*
X72562256Y-79954931D02*
X72657494Y-80002550D01*
X72657494Y-80002550D02*
X72705113Y-80050169D01*
X72705113Y-80050169D02*
X72752732Y-80145407D01*
X72752732Y-80145407D02*
X72752732Y-80240645D01*
X72752732Y-80240645D02*
X72705113Y-80335883D01*
X72705113Y-80335883D02*
X72657494Y-80383502D01*
X72657494Y-80383502D02*
X72562256Y-80431121D01*
X72562256Y-80431121D02*
X72228923Y-80431121D01*
X73657494Y-80288264D02*
X73657494Y-80954931D01*
X73228923Y-80288264D02*
X73228923Y-80812073D01*
X73228923Y-80812073D02*
X73276542Y-80907312D01*
X73276542Y-80907312D02*
X73371780Y-80954931D01*
X73371780Y-80954931D02*
X73514637Y-80954931D01*
X73514637Y-80954931D02*
X73609875Y-80907312D01*
X73609875Y-80907312D02*
X73657494Y-80859692D01*
X74086066Y-80907312D02*
X74181304Y-80954931D01*
X74181304Y-80954931D02*
X74371780Y-80954931D01*
X74371780Y-80954931D02*
X74467018Y-80907312D01*
X74467018Y-80907312D02*
X74514637Y-80812073D01*
X74514637Y-80812073D02*
X74514637Y-80764454D01*
X74514637Y-80764454D02*
X74467018Y-80669216D01*
X74467018Y-80669216D02*
X74371780Y-80621597D01*
X74371780Y-80621597D02*
X74228923Y-80621597D01*
X74228923Y-80621597D02*
X74133685Y-80573978D01*
X74133685Y-80573978D02*
X74086066Y-80478740D01*
X74086066Y-80478740D02*
X74086066Y-80431121D01*
X74086066Y-80431121D02*
X74133685Y-80335883D01*
X74133685Y-80335883D02*
X74228923Y-80288264D01*
X74228923Y-80288264D02*
X74371780Y-80288264D01*
X74371780Y-80288264D02*
X74467018Y-80335883D01*
X75705114Y-80954931D02*
X75705114Y-79954931D01*
X75705114Y-79954931D02*
X76038447Y-80669216D01*
X76038447Y-80669216D02*
X76371780Y-79954931D01*
X76371780Y-79954931D02*
X76371780Y-80954931D01*
X76990828Y-80954931D02*
X76895590Y-80907312D01*
X76895590Y-80907312D02*
X76847971Y-80859692D01*
X76847971Y-80859692D02*
X76800352Y-80764454D01*
X76800352Y-80764454D02*
X76800352Y-80478740D01*
X76800352Y-80478740D02*
X76847971Y-80383502D01*
X76847971Y-80383502D02*
X76895590Y-80335883D01*
X76895590Y-80335883D02*
X76990828Y-80288264D01*
X76990828Y-80288264D02*
X77133685Y-80288264D01*
X77133685Y-80288264D02*
X77228923Y-80335883D01*
X77228923Y-80335883D02*
X77276542Y-80383502D01*
X77276542Y-80383502D02*
X77324161Y-80478740D01*
X77324161Y-80478740D02*
X77324161Y-80764454D01*
X77324161Y-80764454D02*
X77276542Y-80859692D01*
X77276542Y-80859692D02*
X77228923Y-80907312D01*
X77228923Y-80907312D02*
X77133685Y-80954931D01*
X77133685Y-80954931D02*
X76990828Y-80954931D01*
X77609876Y-80288264D02*
X77990828Y-80288264D01*
X77752733Y-79954931D02*
X77752733Y-80812073D01*
X77752733Y-80812073D02*
X77800352Y-80907312D01*
X77800352Y-80907312D02*
X77895590Y-80954931D01*
X77895590Y-80954931D02*
X77990828Y-80954931D01*
X78324162Y-80954931D02*
X78324162Y-79954931D01*
X78752733Y-80954931D02*
X78752733Y-80431121D01*
X78752733Y-80431121D02*
X78705114Y-80335883D01*
X78705114Y-80335883D02*
X78609876Y-80288264D01*
X78609876Y-80288264D02*
X78467019Y-80288264D01*
X78467019Y-80288264D02*
X78371781Y-80335883D01*
X78371781Y-80335883D02*
X78324162Y-80383502D01*
X79609876Y-80907312D02*
X79514638Y-80954931D01*
X79514638Y-80954931D02*
X79324162Y-80954931D01*
X79324162Y-80954931D02*
X79228924Y-80907312D01*
X79228924Y-80907312D02*
X79181305Y-80812073D01*
X79181305Y-80812073D02*
X79181305Y-80431121D01*
X79181305Y-80431121D02*
X79228924Y-80335883D01*
X79228924Y-80335883D02*
X79324162Y-80288264D01*
X79324162Y-80288264D02*
X79514638Y-80288264D01*
X79514638Y-80288264D02*
X79609876Y-80335883D01*
X79609876Y-80335883D02*
X79657495Y-80431121D01*
X79657495Y-80431121D02*
X79657495Y-80526359D01*
X79657495Y-80526359D02*
X79181305Y-80621597D01*
X80086067Y-80954931D02*
X80086067Y-80288264D01*
X80086067Y-80478740D02*
X80133686Y-80383502D01*
X80133686Y-80383502D02*
X80181305Y-80335883D01*
X80181305Y-80335883D02*
X80276543Y-80288264D01*
X80276543Y-80288264D02*
X80371781Y-80288264D01*
X80705115Y-80954931D02*
X80705115Y-79954931D01*
X80705115Y-80335883D02*
X80800353Y-80288264D01*
X80800353Y-80288264D02*
X80990829Y-80288264D01*
X80990829Y-80288264D02*
X81086067Y-80335883D01*
X81086067Y-80335883D02*
X81133686Y-80383502D01*
X81133686Y-80383502D02*
X81181305Y-80478740D01*
X81181305Y-80478740D02*
X81181305Y-80764454D01*
X81181305Y-80764454D02*
X81133686Y-80859692D01*
X81133686Y-80859692D02*
X81086067Y-80907312D01*
X81086067Y-80907312D02*
X80990829Y-80954931D01*
X80990829Y-80954931D02*
X80800353Y-80954931D01*
X80800353Y-80954931D02*
X80705115Y-80907312D01*
X81752734Y-80954931D02*
X81657496Y-80907312D01*
X81657496Y-80907312D02*
X81609877Y-80859692D01*
X81609877Y-80859692D02*
X81562258Y-80764454D01*
X81562258Y-80764454D02*
X81562258Y-80478740D01*
X81562258Y-80478740D02*
X81609877Y-80383502D01*
X81609877Y-80383502D02*
X81657496Y-80335883D01*
X81657496Y-80335883D02*
X81752734Y-80288264D01*
X81752734Y-80288264D02*
X81895591Y-80288264D01*
X81895591Y-80288264D02*
X81990829Y-80335883D01*
X81990829Y-80335883D02*
X82038448Y-80383502D01*
X82038448Y-80383502D02*
X82086067Y-80478740D01*
X82086067Y-80478740D02*
X82086067Y-80764454D01*
X82086067Y-80764454D02*
X82038448Y-80859692D01*
X82038448Y-80859692D02*
X81990829Y-80907312D01*
X81990829Y-80907312D02*
X81895591Y-80954931D01*
X81895591Y-80954931D02*
X81752734Y-80954931D01*
X82943210Y-80954931D02*
X82943210Y-80431121D01*
X82943210Y-80431121D02*
X82895591Y-80335883D01*
X82895591Y-80335883D02*
X82800353Y-80288264D01*
X82800353Y-80288264D02*
X82609877Y-80288264D01*
X82609877Y-80288264D02*
X82514639Y-80335883D01*
X82943210Y-80907312D02*
X82847972Y-80954931D01*
X82847972Y-80954931D02*
X82609877Y-80954931D01*
X82609877Y-80954931D02*
X82514639Y-80907312D01*
X82514639Y-80907312D02*
X82467020Y-80812073D01*
X82467020Y-80812073D02*
X82467020Y-80716835D01*
X82467020Y-80716835D02*
X82514639Y-80621597D01*
X82514639Y-80621597D02*
X82609877Y-80573978D01*
X82609877Y-80573978D02*
X82847972Y-80573978D01*
X82847972Y-80573978D02*
X82943210Y-80526359D01*
X83419401Y-80954931D02*
X83419401Y-80288264D01*
X83419401Y-80478740D02*
X83467020Y-80383502D01*
X83467020Y-80383502D02*
X83514639Y-80335883D01*
X83514639Y-80335883D02*
X83609877Y-80288264D01*
X83609877Y-80288264D02*
X83705115Y-80288264D01*
X84467020Y-80954931D02*
X84467020Y-79954931D01*
X84467020Y-80907312D02*
X84371782Y-80954931D01*
X84371782Y-80954931D02*
X84181306Y-80954931D01*
X84181306Y-80954931D02*
X84086068Y-80907312D01*
X84086068Y-80907312D02*
X84038449Y-80859692D01*
X84038449Y-80859692D02*
X83990830Y-80764454D01*
X83990830Y-80764454D02*
X83990830Y-80478740D01*
X83990830Y-80478740D02*
X84038449Y-80383502D01*
X84038449Y-80383502D02*
X84086068Y-80335883D01*
X84086068Y-80335883D02*
X84181306Y-80288264D01*
X84181306Y-80288264D02*
X84371782Y-80288264D01*
X84371782Y-80288264D02*
X84467020Y-80335883D01*
X57705112Y-82041065D02*
X57847969Y-82088684D01*
X57847969Y-82088684D02*
X57895588Y-82136303D01*
X57895588Y-82136303D02*
X57943207Y-82231541D01*
X57943207Y-82231541D02*
X57943207Y-82374398D01*
X57943207Y-82374398D02*
X57895588Y-82469636D01*
X57895588Y-82469636D02*
X57847969Y-82517256D01*
X57847969Y-82517256D02*
X57752731Y-82564875D01*
X57752731Y-82564875D02*
X57371779Y-82564875D01*
X57371779Y-82564875D02*
X57371779Y-81564875D01*
X57371779Y-81564875D02*
X57705112Y-81564875D01*
X57705112Y-81564875D02*
X57800350Y-81612494D01*
X57800350Y-81612494D02*
X57847969Y-81660113D01*
X57847969Y-81660113D02*
X57895588Y-81755351D01*
X57895588Y-81755351D02*
X57895588Y-81850589D01*
X57895588Y-81850589D02*
X57847969Y-81945827D01*
X57847969Y-81945827D02*
X57800350Y-81993446D01*
X57800350Y-81993446D02*
X57705112Y-82041065D01*
X57705112Y-82041065D02*
X57371779Y-82041065D01*
X58276541Y-81898208D02*
X58514636Y-82564875D01*
X58752731Y-81898208D02*
X58514636Y-82564875D01*
X58514636Y-82564875D02*
X58419398Y-82802970D01*
X58419398Y-82802970D02*
X58371779Y-82850589D01*
X58371779Y-82850589D02*
X58276541Y-82898208D01*
X59133684Y-82469636D02*
X59181303Y-82517256D01*
X59181303Y-82517256D02*
X59133684Y-82564875D01*
X59133684Y-82564875D02*
X59086065Y-82517256D01*
X59086065Y-82517256D02*
X59133684Y-82469636D01*
X59133684Y-82469636D02*
X59133684Y-82564875D01*
X59133684Y-81945827D02*
X59181303Y-81993446D01*
X59181303Y-81993446D02*
X59133684Y-82041065D01*
X59133684Y-82041065D02*
X59086065Y-81993446D01*
X59086065Y-81993446D02*
X59133684Y-81945827D01*
X59133684Y-81945827D02*
X59133684Y-82041065D01*
X60371779Y-82564875D02*
X60371779Y-81564875D01*
X60371779Y-81564875D02*
X60609874Y-81564875D01*
X60609874Y-81564875D02*
X60752731Y-81612494D01*
X60752731Y-81612494D02*
X60847969Y-81707732D01*
X60847969Y-81707732D02*
X60895588Y-81802970D01*
X60895588Y-81802970D02*
X60943207Y-81993446D01*
X60943207Y-81993446D02*
X60943207Y-82136303D01*
X60943207Y-82136303D02*
X60895588Y-82326779D01*
X60895588Y-82326779D02*
X60847969Y-82422017D01*
X60847969Y-82422017D02*
X60752731Y-82517256D01*
X60752731Y-82517256D02*
X60609874Y-82564875D01*
X60609874Y-82564875D02*
X60371779Y-82564875D01*
X61800350Y-82564875D02*
X61800350Y-82041065D01*
X61800350Y-82041065D02*
X61752731Y-81945827D01*
X61752731Y-81945827D02*
X61657493Y-81898208D01*
X61657493Y-81898208D02*
X61467017Y-81898208D01*
X61467017Y-81898208D02*
X61371779Y-81945827D01*
X61800350Y-82517256D02*
X61705112Y-82564875D01*
X61705112Y-82564875D02*
X61467017Y-82564875D01*
X61467017Y-82564875D02*
X61371779Y-82517256D01*
X61371779Y-82517256D02*
X61324160Y-82422017D01*
X61324160Y-82422017D02*
X61324160Y-82326779D01*
X61324160Y-82326779D02*
X61371779Y-82231541D01*
X61371779Y-82231541D02*
X61467017Y-82183922D01*
X61467017Y-82183922D02*
X61705112Y-82183922D01*
X61705112Y-82183922D02*
X61800350Y-82136303D01*
X62181303Y-81898208D02*
X62419398Y-82564875D01*
X62657493Y-81898208D02*
X62419398Y-82564875D01*
X62419398Y-82564875D02*
X62324160Y-82802970D01*
X62324160Y-82802970D02*
X62276541Y-82850589D01*
X62276541Y-82850589D02*
X62181303Y-82898208D01*
X63181303Y-82564875D02*
X63086065Y-82517256D01*
X63086065Y-82517256D02*
X63038446Y-82422017D01*
X63038446Y-82422017D02*
X63038446Y-81564875D01*
X63943208Y-82517256D02*
X63847970Y-82564875D01*
X63847970Y-82564875D02*
X63657494Y-82564875D01*
X63657494Y-82564875D02*
X63562256Y-82517256D01*
X63562256Y-82517256D02*
X63514637Y-82422017D01*
X63514637Y-82422017D02*
X63514637Y-82041065D01*
X63514637Y-82041065D02*
X63562256Y-81945827D01*
X63562256Y-81945827D02*
X63657494Y-81898208D01*
X63657494Y-81898208D02*
X63847970Y-81898208D01*
X63847970Y-81898208D02*
X63943208Y-81945827D01*
X63943208Y-81945827D02*
X63990827Y-82041065D01*
X63990827Y-82041065D02*
X63990827Y-82136303D01*
X63990827Y-82136303D02*
X63514637Y-82231541D01*
X64419399Y-81898208D02*
X64419399Y-82564875D01*
X64419399Y-81993446D02*
X64467018Y-81945827D01*
X64467018Y-81945827D02*
X64562256Y-81898208D01*
X64562256Y-81898208D02*
X64705113Y-81898208D01*
X64705113Y-81898208D02*
X64800351Y-81945827D01*
X64800351Y-81945827D02*
X64847970Y-82041065D01*
X64847970Y-82041065D02*
X64847970Y-82564875D01*
X66419399Y-82041065D02*
X66086066Y-82041065D01*
X66086066Y-82564875D02*
X66086066Y-81564875D01*
X66086066Y-81564875D02*
X66562256Y-81564875D01*
X67324161Y-82517256D02*
X67228923Y-82564875D01*
X67228923Y-82564875D02*
X67038447Y-82564875D01*
X67038447Y-82564875D02*
X66943209Y-82517256D01*
X66943209Y-82517256D02*
X66895590Y-82422017D01*
X66895590Y-82422017D02*
X66895590Y-82041065D01*
X66895590Y-82041065D02*
X66943209Y-81945827D01*
X66943209Y-81945827D02*
X67038447Y-81898208D01*
X67038447Y-81898208D02*
X67228923Y-81898208D01*
X67228923Y-81898208D02*
X67324161Y-81945827D01*
X67324161Y-81945827D02*
X67371780Y-82041065D01*
X67371780Y-82041065D02*
X67371780Y-82136303D01*
X67371780Y-82136303D02*
X66895590Y-82231541D01*
X67800352Y-82564875D02*
X67800352Y-81898208D01*
X67800352Y-81564875D02*
X67752733Y-81612494D01*
X67752733Y-81612494D02*
X67800352Y-81660113D01*
X67800352Y-81660113D02*
X67847971Y-81612494D01*
X67847971Y-81612494D02*
X67800352Y-81564875D01*
X67800352Y-81564875D02*
X67800352Y-81660113D01*
X68228923Y-82517256D02*
X68324161Y-82564875D01*
X68324161Y-82564875D02*
X68514637Y-82564875D01*
X68514637Y-82564875D02*
X68609875Y-82517256D01*
X68609875Y-82517256D02*
X68657494Y-82422017D01*
X68657494Y-82422017D02*
X68657494Y-82374398D01*
X68657494Y-82374398D02*
X68609875Y-82279160D01*
X68609875Y-82279160D02*
X68514637Y-82231541D01*
X68514637Y-82231541D02*
X68371780Y-82231541D01*
X68371780Y-82231541D02*
X68276542Y-82183922D01*
X68276542Y-82183922D02*
X68228923Y-82088684D01*
X68228923Y-82088684D02*
X68228923Y-82041065D01*
X68228923Y-82041065D02*
X68276542Y-81945827D01*
X68276542Y-81945827D02*
X68371780Y-81898208D01*
X68371780Y-81898208D02*
X68514637Y-81898208D01*
X68514637Y-81898208D02*
X68609875Y-81945827D01*
X68943209Y-81898208D02*
X69324161Y-81898208D01*
X69086066Y-81564875D02*
X69086066Y-82422017D01*
X69086066Y-82422017D02*
X69133685Y-82517256D01*
X69133685Y-82517256D02*
X69228923Y-82564875D01*
X69228923Y-82564875D02*
X69324161Y-82564875D01*
X57324160Y-83270057D02*
X57371779Y-83222438D01*
X57371779Y-83222438D02*
X57467017Y-83174819D01*
X57467017Y-83174819D02*
X57705112Y-83174819D01*
X57705112Y-83174819D02*
X57800350Y-83222438D01*
X57800350Y-83222438D02*
X57847969Y-83270057D01*
X57847969Y-83270057D02*
X57895588Y-83365295D01*
X57895588Y-83365295D02*
X57895588Y-83460533D01*
X57895588Y-83460533D02*
X57847969Y-83603390D01*
X57847969Y-83603390D02*
X57276541Y-84174819D01*
X57276541Y-84174819D02*
X57895588Y-84174819D01*
X58514636Y-83174819D02*
X58609874Y-83174819D01*
X58609874Y-83174819D02*
X58705112Y-83222438D01*
X58705112Y-83222438D02*
X58752731Y-83270057D01*
X58752731Y-83270057D02*
X58800350Y-83365295D01*
X58800350Y-83365295D02*
X58847969Y-83555771D01*
X58847969Y-83555771D02*
X58847969Y-83793866D01*
X58847969Y-83793866D02*
X58800350Y-83984342D01*
X58800350Y-83984342D02*
X58752731Y-84079580D01*
X58752731Y-84079580D02*
X58705112Y-84127200D01*
X58705112Y-84127200D02*
X58609874Y-84174819D01*
X58609874Y-84174819D02*
X58514636Y-84174819D01*
X58514636Y-84174819D02*
X58419398Y-84127200D01*
X58419398Y-84127200D02*
X58371779Y-84079580D01*
X58371779Y-84079580D02*
X58324160Y-83984342D01*
X58324160Y-83984342D02*
X58276541Y-83793866D01*
X58276541Y-83793866D02*
X58276541Y-83555771D01*
X58276541Y-83555771D02*
X58324160Y-83365295D01*
X58324160Y-83365295D02*
X58371779Y-83270057D01*
X58371779Y-83270057D02*
X58419398Y-83222438D01*
X58419398Y-83222438D02*
X58514636Y-83174819D01*
X59228922Y-83270057D02*
X59276541Y-83222438D01*
X59276541Y-83222438D02*
X59371779Y-83174819D01*
X59371779Y-83174819D02*
X59609874Y-83174819D01*
X59609874Y-83174819D02*
X59705112Y-83222438D01*
X59705112Y-83222438D02*
X59752731Y-83270057D01*
X59752731Y-83270057D02*
X59800350Y-83365295D01*
X59800350Y-83365295D02*
X59800350Y-83460533D01*
X59800350Y-83460533D02*
X59752731Y-83603390D01*
X59752731Y-83603390D02*
X59181303Y-84174819D01*
X59181303Y-84174819D02*
X59800350Y-84174819D01*
X60705112Y-83174819D02*
X60228922Y-83174819D01*
X60228922Y-83174819D02*
X60181303Y-83651009D01*
X60181303Y-83651009D02*
X60228922Y-83603390D01*
X60228922Y-83603390D02*
X60324160Y-83555771D01*
X60324160Y-83555771D02*
X60562255Y-83555771D01*
X60562255Y-83555771D02*
X60657493Y-83603390D01*
X60657493Y-83603390D02*
X60705112Y-83651009D01*
X60705112Y-83651009D02*
X60752731Y-83746247D01*
X60752731Y-83746247D02*
X60752731Y-83984342D01*
X60752731Y-83984342D02*
X60705112Y-84079580D01*
X60705112Y-84079580D02*
X60657493Y-84127200D01*
X60657493Y-84127200D02*
X60562255Y-84174819D01*
X60562255Y-84174819D02*
X60324160Y-84174819D01*
X60324160Y-84174819D02*
X60228922Y-84127200D01*
X60228922Y-84127200D02*
X60181303Y-84079580D01*
X61181303Y-83793866D02*
X61943208Y-83793866D01*
X62609874Y-83174819D02*
X62705112Y-83174819D01*
X62705112Y-83174819D02*
X62800350Y-83222438D01*
X62800350Y-83222438D02*
X62847969Y-83270057D01*
X62847969Y-83270057D02*
X62895588Y-83365295D01*
X62895588Y-83365295D02*
X62943207Y-83555771D01*
X62943207Y-83555771D02*
X62943207Y-83793866D01*
X62943207Y-83793866D02*
X62895588Y-83984342D01*
X62895588Y-83984342D02*
X62847969Y-84079580D01*
X62847969Y-84079580D02*
X62800350Y-84127200D01*
X62800350Y-84127200D02*
X62705112Y-84174819D01*
X62705112Y-84174819D02*
X62609874Y-84174819D01*
X62609874Y-84174819D02*
X62514636Y-84127200D01*
X62514636Y-84127200D02*
X62467017Y-84079580D01*
X62467017Y-84079580D02*
X62419398Y-83984342D01*
X62419398Y-83984342D02*
X62371779Y-83793866D01*
X62371779Y-83793866D02*
X62371779Y-83555771D01*
X62371779Y-83555771D02*
X62419398Y-83365295D01*
X62419398Y-83365295D02*
X62467017Y-83270057D01*
X62467017Y-83270057D02*
X62514636Y-83222438D01*
X62514636Y-83222438D02*
X62609874Y-83174819D01*
X63895588Y-84174819D02*
X63324160Y-84174819D01*
X63609874Y-84174819D02*
X63609874Y-83174819D01*
X63609874Y-83174819D02*
X63514636Y-83317676D01*
X63514636Y-83317676D02*
X63419398Y-83412914D01*
X63419398Y-83412914D02*
X63324160Y-83460533D01*
X64324160Y-83793866D02*
X65086065Y-83793866D01*
X65752731Y-83174819D02*
X65847969Y-83174819D01*
X65847969Y-83174819D02*
X65943207Y-83222438D01*
X65943207Y-83222438D02*
X65990826Y-83270057D01*
X65990826Y-83270057D02*
X66038445Y-83365295D01*
X66038445Y-83365295D02*
X66086064Y-83555771D01*
X66086064Y-83555771D02*
X66086064Y-83793866D01*
X66086064Y-83793866D02*
X66038445Y-83984342D01*
X66038445Y-83984342D02*
X65990826Y-84079580D01*
X65990826Y-84079580D02*
X65943207Y-84127200D01*
X65943207Y-84127200D02*
X65847969Y-84174819D01*
X65847969Y-84174819D02*
X65752731Y-84174819D01*
X65752731Y-84174819D02*
X65657493Y-84127200D01*
X65657493Y-84127200D02*
X65609874Y-84079580D01*
X65609874Y-84079580D02*
X65562255Y-83984342D01*
X65562255Y-83984342D02*
X65514636Y-83793866D01*
X65514636Y-83793866D02*
X65514636Y-83555771D01*
X65514636Y-83555771D02*
X65562255Y-83365295D01*
X65562255Y-83365295D02*
X65609874Y-83270057D01*
X65609874Y-83270057D02*
X65657493Y-83222438D01*
X65657493Y-83222438D02*
X65752731Y-83174819D01*
X66562255Y-84174819D02*
X66752731Y-84174819D01*
X66752731Y-84174819D02*
X66847969Y-84127200D01*
X66847969Y-84127200D02*
X66895588Y-84079580D01*
X66895588Y-84079580D02*
X66990826Y-83936723D01*
X66990826Y-83936723D02*
X67038445Y-83746247D01*
X67038445Y-83746247D02*
X67038445Y-83365295D01*
X67038445Y-83365295D02*
X66990826Y-83270057D01*
X66990826Y-83270057D02*
X66943207Y-83222438D01*
X66943207Y-83222438D02*
X66847969Y-83174819D01*
X66847969Y-83174819D02*
X66657493Y-83174819D01*
X66657493Y-83174819D02*
X66562255Y-83222438D01*
X66562255Y-83222438D02*
X66514636Y-83270057D01*
X66514636Y-83270057D02*
X66467017Y-83365295D01*
X66467017Y-83365295D02*
X66467017Y-83603390D01*
X66467017Y-83603390D02*
X66514636Y-83698628D01*
X66514636Y-83698628D02*
X66562255Y-83746247D01*
X66562255Y-83746247D02*
X66657493Y-83793866D01*
X66657493Y-83793866D02*
X66847969Y-83793866D01*
X66847969Y-83793866D02*
X66943207Y-83746247D01*
X66943207Y-83746247D02*
X66990826Y-83698628D01*
X66990826Y-83698628D02*
X67038445Y-83603390D01*
X101817268Y-63889104D02*
X102293458Y-63889104D01*
X101722030Y-64174819D02*
X102055363Y-63174819D01*
X102055363Y-63174819D02*
X102388696Y-64174819D01*
X102674411Y-63270057D02*
X102722030Y-63222438D01*
X102722030Y-63222438D02*
X102817268Y-63174819D01*
X102817268Y-63174819D02*
X103055363Y-63174819D01*
X103055363Y-63174819D02*
X103150601Y-63222438D01*
X103150601Y-63222438D02*
X103198220Y-63270057D01*
X103198220Y-63270057D02*
X103245839Y-63365295D01*
X103245839Y-63365295D02*
X103245839Y-63460533D01*
X103245839Y-63460533D02*
X103198220Y-63603390D01*
X103198220Y-63603390D02*
X102626792Y-64174819D01*
X102626792Y-64174819D02*
X103245839Y-64174819D01*
X54895588Y-39722438D02*
X54800350Y-39674819D01*
X54800350Y-39674819D02*
X54657493Y-39674819D01*
X54657493Y-39674819D02*
X54514636Y-39722438D01*
X54514636Y-39722438D02*
X54419398Y-39817676D01*
X54419398Y-39817676D02*
X54371779Y-39912914D01*
X54371779Y-39912914D02*
X54324160Y-40103390D01*
X54324160Y-40103390D02*
X54324160Y-40246247D01*
X54324160Y-40246247D02*
X54371779Y-40436723D01*
X54371779Y-40436723D02*
X54419398Y-40531961D01*
X54419398Y-40531961D02*
X54514636Y-40627200D01*
X54514636Y-40627200D02*
X54657493Y-40674819D01*
X54657493Y-40674819D02*
X54752731Y-40674819D01*
X54752731Y-40674819D02*
X54895588Y-40627200D01*
X54895588Y-40627200D02*
X54943207Y-40579580D01*
X54943207Y-40579580D02*
X54943207Y-40246247D01*
X54943207Y-40246247D02*
X54752731Y-40246247D01*
X55371779Y-40674819D02*
X55371779Y-39674819D01*
X55371779Y-39674819D02*
X55943207Y-40674819D01*
X55943207Y-40674819D02*
X55943207Y-39674819D01*
X56419398Y-40674819D02*
X56419398Y-39674819D01*
X56419398Y-39674819D02*
X56657493Y-39674819D01*
X56657493Y-39674819D02*
X56800350Y-39722438D01*
X56800350Y-39722438D02*
X56895588Y-39817676D01*
X56895588Y-39817676D02*
X56943207Y-39912914D01*
X56943207Y-39912914D02*
X56990826Y-40103390D01*
X56990826Y-40103390D02*
X56990826Y-40246247D01*
X56990826Y-40246247D02*
X56943207Y-40436723D01*
X56943207Y-40436723D02*
X56895588Y-40531961D01*
X56895588Y-40531961D02*
X56800350Y-40627200D01*
X56800350Y-40627200D02*
X56657493Y-40674819D01*
X56657493Y-40674819D02*
X56419398Y-40674819D01*
X70062255Y-21674819D02*
X70252731Y-21674819D01*
X70252731Y-21674819D02*
X70347969Y-21722438D01*
X70347969Y-21722438D02*
X70443207Y-21817676D01*
X70443207Y-21817676D02*
X70490826Y-22008152D01*
X70490826Y-22008152D02*
X70490826Y-22341485D01*
X70490826Y-22341485D02*
X70443207Y-22531961D01*
X70443207Y-22531961D02*
X70347969Y-22627200D01*
X70347969Y-22627200D02*
X70252731Y-22674819D01*
X70252731Y-22674819D02*
X70062255Y-22674819D01*
X70062255Y-22674819D02*
X69967017Y-22627200D01*
X69967017Y-22627200D02*
X69871779Y-22531961D01*
X69871779Y-22531961D02*
X69824160Y-22341485D01*
X69824160Y-22341485D02*
X69824160Y-22008152D01*
X69824160Y-22008152D02*
X69871779Y-21817676D01*
X69871779Y-21817676D02*
X69967017Y-21722438D01*
X69967017Y-21722438D02*
X70062255Y-21674819D01*
X70776541Y-22008152D02*
X71157493Y-22008152D01*
X70919398Y-21674819D02*
X70919398Y-22531961D01*
X70919398Y-22531961D02*
X70967017Y-22627200D01*
X70967017Y-22627200D02*
X71062255Y-22674819D01*
X71062255Y-22674819D02*
X71157493Y-22674819D01*
X71490827Y-22674819D02*
X71490827Y-21674819D01*
X71919398Y-22674819D02*
X71919398Y-22151009D01*
X71919398Y-22151009D02*
X71871779Y-22055771D01*
X71871779Y-22055771D02*
X71776541Y-22008152D01*
X71776541Y-22008152D02*
X71633684Y-22008152D01*
X71633684Y-22008152D02*
X71538446Y-22055771D01*
X71538446Y-22055771D02*
X71490827Y-22103390D01*
X72776541Y-22627200D02*
X72681303Y-22674819D01*
X72681303Y-22674819D02*
X72490827Y-22674819D01*
X72490827Y-22674819D02*
X72395589Y-22627200D01*
X72395589Y-22627200D02*
X72347970Y-22531961D01*
X72347970Y-22531961D02*
X72347970Y-22151009D01*
X72347970Y-22151009D02*
X72395589Y-22055771D01*
X72395589Y-22055771D02*
X72490827Y-22008152D01*
X72490827Y-22008152D02*
X72681303Y-22008152D01*
X72681303Y-22008152D02*
X72776541Y-22055771D01*
X72776541Y-22055771D02*
X72824160Y-22151009D01*
X72824160Y-22151009D02*
X72824160Y-22246247D01*
X72824160Y-22246247D02*
X72347970Y-22341485D01*
X73252732Y-22674819D02*
X73252732Y-22008152D01*
X73252732Y-22198628D02*
X73300351Y-22103390D01*
X73300351Y-22103390D02*
X73347970Y-22055771D01*
X73347970Y-22055771D02*
X73443208Y-22008152D01*
X73443208Y-22008152D02*
X73538446Y-22008152D01*
X74395589Y-22674819D02*
X73824161Y-22674819D01*
X74109875Y-22674819D02*
X74109875Y-21674819D01*
X74109875Y-21674819D02*
X74014637Y-21817676D01*
X74014637Y-21817676D02*
X73919399Y-21912914D01*
X73919399Y-21912914D02*
X73824161Y-21960533D01*
X98960125Y-53889104D02*
X99436315Y-53889104D01*
X98864887Y-54174819D02*
X99198220Y-53174819D01*
X99198220Y-53174819D02*
X99531553Y-54174819D01*
X100293458Y-53508152D02*
X100293458Y-54174819D01*
X100055363Y-53127200D02*
X99817268Y-53841485D01*
X99817268Y-53841485D02*
X100436315Y-53841485D01*
X101531553Y-53127200D02*
X100674411Y-54412914D01*
X101817268Y-54127200D02*
X101960125Y-54174819D01*
X101960125Y-54174819D02*
X102198220Y-54174819D01*
X102198220Y-54174819D02*
X102293458Y-54127200D01*
X102293458Y-54127200D02*
X102341077Y-54079580D01*
X102341077Y-54079580D02*
X102388696Y-53984342D01*
X102388696Y-53984342D02*
X102388696Y-53889104D01*
X102388696Y-53889104D02*
X102341077Y-53793866D01*
X102341077Y-53793866D02*
X102293458Y-53746247D01*
X102293458Y-53746247D02*
X102198220Y-53698628D01*
X102198220Y-53698628D02*
X102007744Y-53651009D01*
X102007744Y-53651009D02*
X101912506Y-53603390D01*
X101912506Y-53603390D02*
X101864887Y-53555771D01*
X101864887Y-53555771D02*
X101817268Y-53460533D01*
X101817268Y-53460533D02*
X101817268Y-53365295D01*
X101817268Y-53365295D02*
X101864887Y-53270057D01*
X101864887Y-53270057D02*
X101912506Y-53222438D01*
X101912506Y-53222438D02*
X102007744Y-53174819D01*
X102007744Y-53174819D02*
X102245839Y-53174819D01*
X102245839Y-53174819D02*
X102388696Y-53222438D01*
X102817268Y-54174819D02*
X102817268Y-53174819D01*
X102817268Y-53174819D02*
X103055363Y-53174819D01*
X103055363Y-53174819D02*
X103198220Y-53222438D01*
X103198220Y-53222438D02*
X103293458Y-53317676D01*
X103293458Y-53317676D02*
X103341077Y-53412914D01*
X103341077Y-53412914D02*
X103388696Y-53603390D01*
X103388696Y-53603390D02*
X103388696Y-53746247D01*
X103388696Y-53746247D02*
X103341077Y-53936723D01*
X103341077Y-53936723D02*
X103293458Y-54031961D01*
X103293458Y-54031961D02*
X103198220Y-54127200D01*
X103198220Y-54127200D02*
X103055363Y-54174819D01*
X103055363Y-54174819D02*
X102817268Y-54174819D01*
X103769649Y-53889104D02*
X104245839Y-53889104D01*
X103674411Y-54174819D02*
X104007744Y-53174819D01*
X104007744Y-53174819D02*
X104341077Y-54174819D01*
X38562255Y-80174819D02*
X38752731Y-80174819D01*
X38752731Y-80174819D02*
X38847969Y-80222438D01*
X38847969Y-80222438D02*
X38943207Y-80317676D01*
X38943207Y-80317676D02*
X38990826Y-80508152D01*
X38990826Y-80508152D02*
X38990826Y-80841485D01*
X38990826Y-80841485D02*
X38943207Y-81031961D01*
X38943207Y-81031961D02*
X38847969Y-81127200D01*
X38847969Y-81127200D02*
X38752731Y-81174819D01*
X38752731Y-81174819D02*
X38562255Y-81174819D01*
X38562255Y-81174819D02*
X38467017Y-81127200D01*
X38467017Y-81127200D02*
X38371779Y-81031961D01*
X38371779Y-81031961D02*
X38324160Y-80841485D01*
X38324160Y-80841485D02*
X38324160Y-80508152D01*
X38324160Y-80508152D02*
X38371779Y-80317676D01*
X38371779Y-80317676D02*
X38467017Y-80222438D01*
X38467017Y-80222438D02*
X38562255Y-80174819D01*
X39276541Y-80508152D02*
X39657493Y-80508152D01*
X39419398Y-80174819D02*
X39419398Y-81031961D01*
X39419398Y-81031961D02*
X39467017Y-81127200D01*
X39467017Y-81127200D02*
X39562255Y-81174819D01*
X39562255Y-81174819D02*
X39657493Y-81174819D01*
X39990827Y-81174819D02*
X39990827Y-80174819D01*
X40419398Y-81174819D02*
X40419398Y-80651009D01*
X40419398Y-80651009D02*
X40371779Y-80555771D01*
X40371779Y-80555771D02*
X40276541Y-80508152D01*
X40276541Y-80508152D02*
X40133684Y-80508152D01*
X40133684Y-80508152D02*
X40038446Y-80555771D01*
X40038446Y-80555771D02*
X39990827Y-80603390D01*
X41276541Y-81127200D02*
X41181303Y-81174819D01*
X41181303Y-81174819D02*
X40990827Y-81174819D01*
X40990827Y-81174819D02*
X40895589Y-81127200D01*
X40895589Y-81127200D02*
X40847970Y-81031961D01*
X40847970Y-81031961D02*
X40847970Y-80651009D01*
X40847970Y-80651009D02*
X40895589Y-80555771D01*
X40895589Y-80555771D02*
X40990827Y-80508152D01*
X40990827Y-80508152D02*
X41181303Y-80508152D01*
X41181303Y-80508152D02*
X41276541Y-80555771D01*
X41276541Y-80555771D02*
X41324160Y-80651009D01*
X41324160Y-80651009D02*
X41324160Y-80746247D01*
X41324160Y-80746247D02*
X40847970Y-80841485D01*
X41752732Y-81174819D02*
X41752732Y-80508152D01*
X41752732Y-80698628D02*
X41800351Y-80603390D01*
X41800351Y-80603390D02*
X41847970Y-80555771D01*
X41847970Y-80555771D02*
X41943208Y-80508152D01*
X41943208Y-80508152D02*
X42038446Y-80508152D01*
X42133685Y-81270057D02*
X42895589Y-81270057D01*
X43086066Y-80270057D02*
X43133685Y-80222438D01*
X43133685Y-80222438D02*
X43228923Y-80174819D01*
X43228923Y-80174819D02*
X43467018Y-80174819D01*
X43467018Y-80174819D02*
X43562256Y-80222438D01*
X43562256Y-80222438D02*
X43609875Y-80270057D01*
X43609875Y-80270057D02*
X43657494Y-80365295D01*
X43657494Y-80365295D02*
X43657494Y-80460533D01*
X43657494Y-80460533D02*
X43609875Y-80603390D01*
X43609875Y-80603390D02*
X43038447Y-81174819D01*
X43038447Y-81174819D02*
X43657494Y-81174819D01*
X99007744Y-48389104D02*
X99483934Y-48389104D01*
X98912506Y-48674819D02*
X99245839Y-47674819D01*
X99245839Y-47674819D02*
X99579172Y-48674819D01*
X100388696Y-47674819D02*
X99912506Y-47674819D01*
X99912506Y-47674819D02*
X99864887Y-48151009D01*
X99864887Y-48151009D02*
X99912506Y-48103390D01*
X99912506Y-48103390D02*
X100007744Y-48055771D01*
X100007744Y-48055771D02*
X100245839Y-48055771D01*
X100245839Y-48055771D02*
X100341077Y-48103390D01*
X100341077Y-48103390D02*
X100388696Y-48151009D01*
X100388696Y-48151009D02*
X100436315Y-48246247D01*
X100436315Y-48246247D02*
X100436315Y-48484342D01*
X100436315Y-48484342D02*
X100388696Y-48579580D01*
X100388696Y-48579580D02*
X100341077Y-48627200D01*
X100341077Y-48627200D02*
X100245839Y-48674819D01*
X100245839Y-48674819D02*
X100007744Y-48674819D01*
X100007744Y-48674819D02*
X99912506Y-48627200D01*
X99912506Y-48627200D02*
X99864887Y-48579580D01*
X101579172Y-47627200D02*
X100722030Y-48912914D01*
X101864887Y-48627200D02*
X102007744Y-48674819D01*
X102007744Y-48674819D02*
X102245839Y-48674819D01*
X102245839Y-48674819D02*
X102341077Y-48627200D01*
X102341077Y-48627200D02*
X102388696Y-48579580D01*
X102388696Y-48579580D02*
X102436315Y-48484342D01*
X102436315Y-48484342D02*
X102436315Y-48389104D01*
X102436315Y-48389104D02*
X102388696Y-48293866D01*
X102388696Y-48293866D02*
X102341077Y-48246247D01*
X102341077Y-48246247D02*
X102245839Y-48198628D01*
X102245839Y-48198628D02*
X102055363Y-48151009D01*
X102055363Y-48151009D02*
X101960125Y-48103390D01*
X101960125Y-48103390D02*
X101912506Y-48055771D01*
X101912506Y-48055771D02*
X101864887Y-47960533D01*
X101864887Y-47960533D02*
X101864887Y-47865295D01*
X101864887Y-47865295D02*
X101912506Y-47770057D01*
X101912506Y-47770057D02*
X101960125Y-47722438D01*
X101960125Y-47722438D02*
X102055363Y-47674819D01*
X102055363Y-47674819D02*
X102293458Y-47674819D01*
X102293458Y-47674819D02*
X102436315Y-47722438D01*
X103436315Y-48579580D02*
X103388696Y-48627200D01*
X103388696Y-48627200D02*
X103245839Y-48674819D01*
X103245839Y-48674819D02*
X103150601Y-48674819D01*
X103150601Y-48674819D02*
X103007744Y-48627200D01*
X103007744Y-48627200D02*
X102912506Y-48531961D01*
X102912506Y-48531961D02*
X102864887Y-48436723D01*
X102864887Y-48436723D02*
X102817268Y-48246247D01*
X102817268Y-48246247D02*
X102817268Y-48103390D01*
X102817268Y-48103390D02*
X102864887Y-47912914D01*
X102864887Y-47912914D02*
X102912506Y-47817676D01*
X102912506Y-47817676D02*
X103007744Y-47722438D01*
X103007744Y-47722438D02*
X103150601Y-47674819D01*
X103150601Y-47674819D02*
X103245839Y-47674819D01*
X103245839Y-47674819D02*
X103388696Y-47722438D01*
X103388696Y-47722438D02*
X103436315Y-47770057D01*
X104341077Y-48674819D02*
X103864887Y-48674819D01*
X103864887Y-48674819D02*
X103864887Y-47674819D01*
X50728922Y-79674819D02*
X51062255Y-80674819D01*
X51062255Y-80674819D02*
X51395588Y-79674819D01*
X51490827Y-80770057D02*
X52252731Y-80770057D01*
X52490827Y-80674819D02*
X52490827Y-79674819D01*
X52967017Y-80674819D02*
X52967017Y-79674819D01*
X52967017Y-79674819D02*
X53538445Y-80674819D01*
X53538445Y-80674819D02*
X53538445Y-79674819D01*
X37489819Y-55341666D02*
X37013628Y-55674999D01*
X37489819Y-55913094D02*
X36489819Y-55913094D01*
X36489819Y-55913094D02*
X36489819Y-55532142D01*
X36489819Y-55532142D02*
X36537438Y-55436904D01*
X36537438Y-55436904D02*
X36585057Y-55389285D01*
X36585057Y-55389285D02*
X36680295Y-55341666D01*
X36680295Y-55341666D02*
X36823152Y-55341666D01*
X36823152Y-55341666D02*
X36918390Y-55389285D01*
X36918390Y-55389285D02*
X36966009Y-55436904D01*
X36966009Y-55436904D02*
X37013628Y-55532142D01*
X37013628Y-55532142D02*
X37013628Y-55913094D01*
X36823152Y-54484523D02*
X37489819Y-54484523D01*
X36442200Y-54722618D02*
X37156485Y-54960713D01*
X37156485Y-54960713D02*
X37156485Y-54341666D01*
X33489819Y-55341666D02*
X33013628Y-55674999D01*
X33489819Y-55913094D02*
X32489819Y-55913094D01*
X32489819Y-55913094D02*
X32489819Y-55532142D01*
X32489819Y-55532142D02*
X32537438Y-55436904D01*
X32537438Y-55436904D02*
X32585057Y-55389285D01*
X32585057Y-55389285D02*
X32680295Y-55341666D01*
X32680295Y-55341666D02*
X32823152Y-55341666D01*
X32823152Y-55341666D02*
X32918390Y-55389285D01*
X32918390Y-55389285D02*
X32966009Y-55436904D01*
X32966009Y-55436904D02*
X33013628Y-55532142D01*
X33013628Y-55532142D02*
X33013628Y-55913094D01*
X32489819Y-54436904D02*
X32489819Y-54913094D01*
X32489819Y-54913094D02*
X32966009Y-54960713D01*
X32966009Y-54960713D02*
X32918390Y-54913094D01*
X32918390Y-54913094D02*
X32870771Y-54817856D01*
X32870771Y-54817856D02*
X32870771Y-54579761D01*
X32870771Y-54579761D02*
X32918390Y-54484523D01*
X32918390Y-54484523D02*
X32966009Y-54436904D01*
X32966009Y-54436904D02*
X33061247Y-54389285D01*
X33061247Y-54389285D02*
X33299342Y-54389285D01*
X33299342Y-54389285D02*
X33394580Y-54436904D01*
X33394580Y-54436904D02*
X33442200Y-54484523D01*
X33442200Y-54484523D02*
X33489819Y-54579761D01*
X33489819Y-54579761D02*
X33489819Y-54817856D01*
X33489819Y-54817856D02*
X33442200Y-54913094D01*
X33442200Y-54913094D02*
X33394580Y-54960713D01*
X30868333Y-29259819D02*
X30535000Y-28783628D01*
X30296905Y-29259819D02*
X30296905Y-28259819D01*
X30296905Y-28259819D02*
X30677857Y-28259819D01*
X30677857Y-28259819D02*
X30773095Y-28307438D01*
X30773095Y-28307438D02*
X30820714Y-28355057D01*
X30820714Y-28355057D02*
X30868333Y-28450295D01*
X30868333Y-28450295D02*
X30868333Y-28593152D01*
X30868333Y-28593152D02*
X30820714Y-28688390D01*
X30820714Y-28688390D02*
X30773095Y-28736009D01*
X30773095Y-28736009D02*
X30677857Y-28783628D01*
X30677857Y-28783628D02*
X30296905Y-28783628D01*
X31344524Y-29259819D02*
X31535000Y-29259819D01*
X31535000Y-29259819D02*
X31630238Y-29212200D01*
X31630238Y-29212200D02*
X31677857Y-29164580D01*
X31677857Y-29164580D02*
X31773095Y-29021723D01*
X31773095Y-29021723D02*
X31820714Y-28831247D01*
X31820714Y-28831247D02*
X31820714Y-28450295D01*
X31820714Y-28450295D02*
X31773095Y-28355057D01*
X31773095Y-28355057D02*
X31725476Y-28307438D01*
X31725476Y-28307438D02*
X31630238Y-28259819D01*
X31630238Y-28259819D02*
X31439762Y-28259819D01*
X31439762Y-28259819D02*
X31344524Y-28307438D01*
X31344524Y-28307438D02*
X31296905Y-28355057D01*
X31296905Y-28355057D02*
X31249286Y-28450295D01*
X31249286Y-28450295D02*
X31249286Y-28688390D01*
X31249286Y-28688390D02*
X31296905Y-28783628D01*
X31296905Y-28783628D02*
X31344524Y-28831247D01*
X31344524Y-28831247D02*
X31439762Y-28878866D01*
X31439762Y-28878866D02*
X31630238Y-28878866D01*
X31630238Y-28878866D02*
X31725476Y-28831247D01*
X31725476Y-28831247D02*
X31773095Y-28783628D01*
X31773095Y-28783628D02*
X31820714Y-28688390D01*
X49116666Y-66594819D02*
X49116666Y-67309104D01*
X49116666Y-67309104D02*
X49069047Y-67451961D01*
X49069047Y-67451961D02*
X48973809Y-67547200D01*
X48973809Y-67547200D02*
X48830952Y-67594819D01*
X48830952Y-67594819D02*
X48735714Y-67594819D01*
X49497619Y-66594819D02*
X50164285Y-66594819D01*
X50164285Y-66594819D02*
X49735714Y-67594819D01*
X24039819Y-39618333D02*
X24754104Y-39618333D01*
X24754104Y-39618333D02*
X24896961Y-39665952D01*
X24896961Y-39665952D02*
X24992200Y-39761190D01*
X24992200Y-39761190D02*
X25039819Y-39904047D01*
X25039819Y-39904047D02*
X25039819Y-39999285D01*
X24373152Y-38713571D02*
X25039819Y-38713571D01*
X23992200Y-38951666D02*
X24706485Y-39189761D01*
X24706485Y-39189761D02*
X24706485Y-38570714D01*
X32741666Y-66289819D02*
X32741666Y-67004104D01*
X32741666Y-67004104D02*
X32694047Y-67146961D01*
X32694047Y-67146961D02*
X32598809Y-67242200D01*
X32598809Y-67242200D02*
X32455952Y-67289819D01*
X32455952Y-67289819D02*
X32360714Y-67289819D01*
X33360714Y-66718390D02*
X33265476Y-66670771D01*
X33265476Y-66670771D02*
X33217857Y-66623152D01*
X33217857Y-66623152D02*
X33170238Y-66527914D01*
X33170238Y-66527914D02*
X33170238Y-66480295D01*
X33170238Y-66480295D02*
X33217857Y-66385057D01*
X33217857Y-66385057D02*
X33265476Y-66337438D01*
X33265476Y-66337438D02*
X33360714Y-66289819D01*
X33360714Y-66289819D02*
X33551190Y-66289819D01*
X33551190Y-66289819D02*
X33646428Y-66337438D01*
X33646428Y-66337438D02*
X33694047Y-66385057D01*
X33694047Y-66385057D02*
X33741666Y-66480295D01*
X33741666Y-66480295D02*
X33741666Y-66527914D01*
X33741666Y-66527914D02*
X33694047Y-66623152D01*
X33694047Y-66623152D02*
X33646428Y-66670771D01*
X33646428Y-66670771D02*
X33551190Y-66718390D01*
X33551190Y-66718390D02*
X33360714Y-66718390D01*
X33360714Y-66718390D02*
X33265476Y-66766009D01*
X33265476Y-66766009D02*
X33217857Y-66813628D01*
X33217857Y-66813628D02*
X33170238Y-66908866D01*
X33170238Y-66908866D02*
X33170238Y-67099342D01*
X33170238Y-67099342D02*
X33217857Y-67194580D01*
X33217857Y-67194580D02*
X33265476Y-67242200D01*
X33265476Y-67242200D02*
X33360714Y-67289819D01*
X33360714Y-67289819D02*
X33551190Y-67289819D01*
X33551190Y-67289819D02*
X33646428Y-67242200D01*
X33646428Y-67242200D02*
X33694047Y-67194580D01*
X33694047Y-67194580D02*
X33741666Y-67099342D01*
X33741666Y-67099342D02*
X33741666Y-66908866D01*
X33741666Y-66908866D02*
X33694047Y-66813628D01*
X33694047Y-66813628D02*
X33646428Y-66766009D01*
X33646428Y-66766009D02*
X33551190Y-66718390D01*
X25489819Y-55181666D02*
X25013628Y-55514999D01*
X25489819Y-55753094D02*
X24489819Y-55753094D01*
X24489819Y-55753094D02*
X24489819Y-55372142D01*
X24489819Y-55372142D02*
X24537438Y-55276904D01*
X24537438Y-55276904D02*
X24585057Y-55229285D01*
X24585057Y-55229285D02*
X24680295Y-55181666D01*
X24680295Y-55181666D02*
X24823152Y-55181666D01*
X24823152Y-55181666D02*
X24918390Y-55229285D01*
X24918390Y-55229285D02*
X24966009Y-55276904D01*
X24966009Y-55276904D02*
X25013628Y-55372142D01*
X25013628Y-55372142D02*
X25013628Y-55753094D01*
X24585057Y-54800713D02*
X24537438Y-54753094D01*
X24537438Y-54753094D02*
X24489819Y-54657856D01*
X24489819Y-54657856D02*
X24489819Y-54419761D01*
X24489819Y-54419761D02*
X24537438Y-54324523D01*
X24537438Y-54324523D02*
X24585057Y-54276904D01*
X24585057Y-54276904D02*
X24680295Y-54229285D01*
X24680295Y-54229285D02*
X24775533Y-54229285D01*
X24775533Y-54229285D02*
X24918390Y-54276904D01*
X24918390Y-54276904D02*
X25489819Y-54848332D01*
X25489819Y-54848332D02*
X25489819Y-54229285D01*
X43868333Y-29259819D02*
X43535000Y-28783628D01*
X43296905Y-29259819D02*
X43296905Y-28259819D01*
X43296905Y-28259819D02*
X43677857Y-28259819D01*
X43677857Y-28259819D02*
X43773095Y-28307438D01*
X43773095Y-28307438D02*
X43820714Y-28355057D01*
X43820714Y-28355057D02*
X43868333Y-28450295D01*
X43868333Y-28450295D02*
X43868333Y-28593152D01*
X43868333Y-28593152D02*
X43820714Y-28688390D01*
X43820714Y-28688390D02*
X43773095Y-28736009D01*
X43773095Y-28736009D02*
X43677857Y-28783628D01*
X43677857Y-28783628D02*
X43296905Y-28783628D01*
X44201667Y-28259819D02*
X44868333Y-28259819D01*
X44868333Y-28259819D02*
X44439762Y-29259819D01*
X29489819Y-55261666D02*
X29013628Y-55594999D01*
X29489819Y-55833094D02*
X28489819Y-55833094D01*
X28489819Y-55833094D02*
X28489819Y-55452142D01*
X28489819Y-55452142D02*
X28537438Y-55356904D01*
X28537438Y-55356904D02*
X28585057Y-55309285D01*
X28585057Y-55309285D02*
X28680295Y-55261666D01*
X28680295Y-55261666D02*
X28823152Y-55261666D01*
X28823152Y-55261666D02*
X28918390Y-55309285D01*
X28918390Y-55309285D02*
X28966009Y-55356904D01*
X28966009Y-55356904D02*
X29013628Y-55452142D01*
X29013628Y-55452142D02*
X29013628Y-55833094D01*
X28489819Y-54928332D02*
X28489819Y-54309285D01*
X28489819Y-54309285D02*
X28870771Y-54642618D01*
X28870771Y-54642618D02*
X28870771Y-54499761D01*
X28870771Y-54499761D02*
X28918390Y-54404523D01*
X28918390Y-54404523D02*
X28966009Y-54356904D01*
X28966009Y-54356904D02*
X29061247Y-54309285D01*
X29061247Y-54309285D02*
X29299342Y-54309285D01*
X29299342Y-54309285D02*
X29394580Y-54356904D01*
X29394580Y-54356904D02*
X29442200Y-54404523D01*
X29442200Y-54404523D02*
X29489819Y-54499761D01*
X29489819Y-54499761D02*
X29489819Y-54785475D01*
X29489819Y-54785475D02*
X29442200Y-54880713D01*
X29442200Y-54880713D02*
X29394580Y-54928332D01*
X78120714Y-33944104D02*
X78596904Y-33944104D01*
X78025476Y-34229819D02*
X78358809Y-33229819D01*
X78358809Y-33229819D02*
X78692142Y-34229819D01*
X79549285Y-34229819D02*
X78977857Y-34229819D01*
X79263571Y-34229819D02*
X79263571Y-33229819D01*
X79263571Y-33229819D02*
X79168333Y-33372676D01*
X79168333Y-33372676D02*
X79073095Y-33467914D01*
X79073095Y-33467914D02*
X78977857Y-33515533D01*
X72665180Y-40656905D02*
X73665180Y-40656905D01*
X73665180Y-40656905D02*
X73665180Y-40895000D01*
X73665180Y-40895000D02*
X73617561Y-41037857D01*
X73617561Y-41037857D02*
X73522323Y-41133095D01*
X73522323Y-41133095D02*
X73427085Y-41180714D01*
X73427085Y-41180714D02*
X73236609Y-41228333D01*
X73236609Y-41228333D02*
X73093752Y-41228333D01*
X73093752Y-41228333D02*
X72903276Y-41180714D01*
X72903276Y-41180714D02*
X72808038Y-41133095D01*
X72808038Y-41133095D02*
X72712800Y-41037857D01*
X72712800Y-41037857D02*
X72665180Y-40895000D01*
X72665180Y-40895000D02*
X72665180Y-40656905D01*
X73665180Y-41847381D02*
X73665180Y-41942619D01*
X73665180Y-41942619D02*
X73617561Y-42037857D01*
X73617561Y-42037857D02*
X73569942Y-42085476D01*
X73569942Y-42085476D02*
X73474704Y-42133095D01*
X73474704Y-42133095D02*
X73284228Y-42180714D01*
X73284228Y-42180714D02*
X73046133Y-42180714D01*
X73046133Y-42180714D02*
X72855657Y-42133095D01*
X72855657Y-42133095D02*
X72760419Y-42085476D01*
X72760419Y-42085476D02*
X72712800Y-42037857D01*
X72712800Y-42037857D02*
X72665180Y-41942619D01*
X72665180Y-41942619D02*
X72665180Y-41847381D01*
X72665180Y-41847381D02*
X72712800Y-41752143D01*
X72712800Y-41752143D02*
X72760419Y-41704524D01*
X72760419Y-41704524D02*
X72855657Y-41656905D01*
X72855657Y-41656905D02*
X73046133Y-41609286D01*
X73046133Y-41609286D02*
X73284228Y-41609286D01*
X73284228Y-41609286D02*
X73474704Y-41656905D01*
X73474704Y-41656905D02*
X73569942Y-41704524D01*
X73569942Y-41704524D02*
X73617561Y-41752143D01*
X73617561Y-41752143D02*
X73665180Y-41847381D01*
X43989819Y-60971666D02*
X43513628Y-61304999D01*
X43989819Y-61543094D02*
X42989819Y-61543094D01*
X42989819Y-61543094D02*
X42989819Y-61162142D01*
X42989819Y-61162142D02*
X43037438Y-61066904D01*
X43037438Y-61066904D02*
X43085057Y-61019285D01*
X43085057Y-61019285D02*
X43180295Y-60971666D01*
X43180295Y-60971666D02*
X43323152Y-60971666D01*
X43323152Y-60971666D02*
X43418390Y-61019285D01*
X43418390Y-61019285D02*
X43466009Y-61066904D01*
X43466009Y-61066904D02*
X43513628Y-61162142D01*
X43513628Y-61162142D02*
X43513628Y-61543094D01*
X43989819Y-60019285D02*
X43989819Y-60590713D01*
X43989819Y-60304999D02*
X42989819Y-60304999D01*
X42989819Y-60304999D02*
X43132676Y-60400237D01*
X43132676Y-60400237D02*
X43227914Y-60495475D01*
X43227914Y-60495475D02*
X43275533Y-60590713D01*
X46279819Y-60794047D02*
X46279819Y-61365475D01*
X46279819Y-61079761D02*
X45279819Y-61079761D01*
X45279819Y-61079761D02*
X45422676Y-61174999D01*
X45422676Y-61174999D02*
X45517914Y-61270237D01*
X45517914Y-61270237D02*
X45565533Y-61365475D01*
X46279819Y-60365475D02*
X45279819Y-60365475D01*
X45898866Y-60270237D02*
X46279819Y-59984523D01*
X45613152Y-59984523D02*
X45994104Y-60365475D01*
X46501009Y-64003333D02*
X46501009Y-64336666D01*
X47024819Y-64336666D02*
X46024819Y-64336666D01*
X46024819Y-64336666D02*
X46024819Y-63860476D01*
X46120057Y-63527142D02*
X46072438Y-63479523D01*
X46072438Y-63479523D02*
X46024819Y-63384285D01*
X46024819Y-63384285D02*
X46024819Y-63146190D01*
X46024819Y-63146190D02*
X46072438Y-63050952D01*
X46072438Y-63050952D02*
X46120057Y-63003333D01*
X46120057Y-63003333D02*
X46215295Y-62955714D01*
X46215295Y-62955714D02*
X46310533Y-62955714D01*
X46310533Y-62955714D02*
X46453390Y-63003333D01*
X46453390Y-63003333D02*
X47024819Y-63574761D01*
X47024819Y-63574761D02*
X47024819Y-62955714D01*
X55639819Y-73043333D02*
X56354104Y-73043333D01*
X56354104Y-73043333D02*
X56496961Y-73090952D01*
X56496961Y-73090952D02*
X56592200Y-73186190D01*
X56592200Y-73186190D02*
X56639819Y-73329047D01*
X56639819Y-73329047D02*
X56639819Y-73424285D01*
X56639819Y-72043333D02*
X56639819Y-72614761D01*
X56639819Y-72329047D02*
X55639819Y-72329047D01*
X55639819Y-72329047D02*
X55782676Y-72424285D01*
X55782676Y-72424285D02*
X55877914Y-72519523D01*
X55877914Y-72519523D02*
X55925533Y-72614761D01*
X79741666Y-33809819D02*
X79741666Y-34524104D01*
X79741666Y-34524104D02*
X79694047Y-34666961D01*
X79694047Y-34666961D02*
X79598809Y-34762200D01*
X79598809Y-34762200D02*
X79455952Y-34809819D01*
X79455952Y-34809819D02*
X79360714Y-34809819D01*
X80122619Y-33809819D02*
X80741666Y-33809819D01*
X80741666Y-33809819D02*
X80408333Y-34190771D01*
X80408333Y-34190771D02*
X80551190Y-34190771D01*
X80551190Y-34190771D02*
X80646428Y-34238390D01*
X80646428Y-34238390D02*
X80694047Y-34286009D01*
X80694047Y-34286009D02*
X80741666Y-34381247D01*
X80741666Y-34381247D02*
X80741666Y-34619342D01*
X80741666Y-34619342D02*
X80694047Y-34714580D01*
X80694047Y-34714580D02*
X80646428Y-34762200D01*
X80646428Y-34762200D02*
X80551190Y-34809819D01*
X80551190Y-34809819D02*
X80265476Y-34809819D01*
X80265476Y-34809819D02*
X80170238Y-34762200D01*
X80170238Y-34762200D02*
X80122619Y-34714580D01*
X35868333Y-32259819D02*
X35535000Y-31783628D01*
X35296905Y-32259819D02*
X35296905Y-31259819D01*
X35296905Y-31259819D02*
X35677857Y-31259819D01*
X35677857Y-31259819D02*
X35773095Y-31307438D01*
X35773095Y-31307438D02*
X35820714Y-31355057D01*
X35820714Y-31355057D02*
X35868333Y-31450295D01*
X35868333Y-31450295D02*
X35868333Y-31593152D01*
X35868333Y-31593152D02*
X35820714Y-31688390D01*
X35820714Y-31688390D02*
X35773095Y-31736009D01*
X35773095Y-31736009D02*
X35677857Y-31783628D01*
X35677857Y-31783628D02*
X35296905Y-31783628D01*
X36439762Y-31688390D02*
X36344524Y-31640771D01*
X36344524Y-31640771D02*
X36296905Y-31593152D01*
X36296905Y-31593152D02*
X36249286Y-31497914D01*
X36249286Y-31497914D02*
X36249286Y-31450295D01*
X36249286Y-31450295D02*
X36296905Y-31355057D01*
X36296905Y-31355057D02*
X36344524Y-31307438D01*
X36344524Y-31307438D02*
X36439762Y-31259819D01*
X36439762Y-31259819D02*
X36630238Y-31259819D01*
X36630238Y-31259819D02*
X36725476Y-31307438D01*
X36725476Y-31307438D02*
X36773095Y-31355057D01*
X36773095Y-31355057D02*
X36820714Y-31450295D01*
X36820714Y-31450295D02*
X36820714Y-31497914D01*
X36820714Y-31497914D02*
X36773095Y-31593152D01*
X36773095Y-31593152D02*
X36725476Y-31640771D01*
X36725476Y-31640771D02*
X36630238Y-31688390D01*
X36630238Y-31688390D02*
X36439762Y-31688390D01*
X36439762Y-31688390D02*
X36344524Y-31736009D01*
X36344524Y-31736009D02*
X36296905Y-31783628D01*
X36296905Y-31783628D02*
X36249286Y-31878866D01*
X36249286Y-31878866D02*
X36249286Y-32069342D01*
X36249286Y-32069342D02*
X36296905Y-32164580D01*
X36296905Y-32164580D02*
X36344524Y-32212200D01*
X36344524Y-32212200D02*
X36439762Y-32259819D01*
X36439762Y-32259819D02*
X36630238Y-32259819D01*
X36630238Y-32259819D02*
X36725476Y-32212200D01*
X36725476Y-32212200D02*
X36773095Y-32164580D01*
X36773095Y-32164580D02*
X36820714Y-32069342D01*
X36820714Y-32069342D02*
X36820714Y-31878866D01*
X36820714Y-31878866D02*
X36773095Y-31783628D01*
X36773095Y-31783628D02*
X36725476Y-31736009D01*
X36725476Y-31736009D02*
X36630238Y-31688390D01*
X49368333Y-32259819D02*
X49035000Y-31783628D01*
X48796905Y-32259819D02*
X48796905Y-31259819D01*
X48796905Y-31259819D02*
X49177857Y-31259819D01*
X49177857Y-31259819D02*
X49273095Y-31307438D01*
X49273095Y-31307438D02*
X49320714Y-31355057D01*
X49320714Y-31355057D02*
X49368333Y-31450295D01*
X49368333Y-31450295D02*
X49368333Y-31593152D01*
X49368333Y-31593152D02*
X49320714Y-31688390D01*
X49320714Y-31688390D02*
X49273095Y-31736009D01*
X49273095Y-31736009D02*
X49177857Y-31783628D01*
X49177857Y-31783628D02*
X48796905Y-31783628D01*
X50225476Y-31259819D02*
X50035000Y-31259819D01*
X50035000Y-31259819D02*
X49939762Y-31307438D01*
X49939762Y-31307438D02*
X49892143Y-31355057D01*
X49892143Y-31355057D02*
X49796905Y-31497914D01*
X49796905Y-31497914D02*
X49749286Y-31688390D01*
X49749286Y-31688390D02*
X49749286Y-32069342D01*
X49749286Y-32069342D02*
X49796905Y-32164580D01*
X49796905Y-32164580D02*
X49844524Y-32212200D01*
X49844524Y-32212200D02*
X49939762Y-32259819D01*
X49939762Y-32259819D02*
X50130238Y-32259819D01*
X50130238Y-32259819D02*
X50225476Y-32212200D01*
X50225476Y-32212200D02*
X50273095Y-32164580D01*
X50273095Y-32164580D02*
X50320714Y-32069342D01*
X50320714Y-32069342D02*
X50320714Y-31831247D01*
X50320714Y-31831247D02*
X50273095Y-31736009D01*
X50273095Y-31736009D02*
X50225476Y-31688390D01*
X50225476Y-31688390D02*
X50130238Y-31640771D01*
X50130238Y-31640771D02*
X49939762Y-31640771D01*
X49939762Y-31640771D02*
X49844524Y-31688390D01*
X49844524Y-31688390D02*
X49796905Y-31736009D01*
X49796905Y-31736009D02*
X49749286Y-31831247D01*
X68979819Y-37928333D02*
X69694104Y-37928333D01*
X69694104Y-37928333D02*
X69836961Y-37975952D01*
X69836961Y-37975952D02*
X69932200Y-38071190D01*
X69932200Y-38071190D02*
X69979819Y-38214047D01*
X69979819Y-38214047D02*
X69979819Y-38309285D01*
X68979819Y-37023571D02*
X68979819Y-37214047D01*
X68979819Y-37214047D02*
X69027438Y-37309285D01*
X69027438Y-37309285D02*
X69075057Y-37356904D01*
X69075057Y-37356904D02*
X69217914Y-37452142D01*
X69217914Y-37452142D02*
X69408390Y-37499761D01*
X69408390Y-37499761D02*
X69789342Y-37499761D01*
X69789342Y-37499761D02*
X69884580Y-37452142D01*
X69884580Y-37452142D02*
X69932200Y-37404523D01*
X69932200Y-37404523D02*
X69979819Y-37309285D01*
X69979819Y-37309285D02*
X69979819Y-37118809D01*
X69979819Y-37118809D02*
X69932200Y-37023571D01*
X69932200Y-37023571D02*
X69884580Y-36975952D01*
X69884580Y-36975952D02*
X69789342Y-36928333D01*
X69789342Y-36928333D02*
X69551247Y-36928333D01*
X69551247Y-36928333D02*
X69456009Y-36975952D01*
X69456009Y-36975952D02*
X69408390Y-37023571D01*
X69408390Y-37023571D02*
X69360771Y-37118809D01*
X69360771Y-37118809D02*
X69360771Y-37309285D01*
X69360771Y-37309285D02*
X69408390Y-37404523D01*
X69408390Y-37404523D02*
X69456009Y-37452142D01*
X69456009Y-37452142D02*
X69551247Y-37499761D01*
X47869819Y-51328094D02*
X46869819Y-51328094D01*
X46869819Y-51328094D02*
X46869819Y-51089999D01*
X46869819Y-51089999D02*
X46917438Y-50947142D01*
X46917438Y-50947142D02*
X47012676Y-50851904D01*
X47012676Y-50851904D02*
X47107914Y-50804285D01*
X47107914Y-50804285D02*
X47298390Y-50756666D01*
X47298390Y-50756666D02*
X47441247Y-50756666D01*
X47441247Y-50756666D02*
X47631723Y-50804285D01*
X47631723Y-50804285D02*
X47726961Y-50851904D01*
X47726961Y-50851904D02*
X47822200Y-50947142D01*
X47822200Y-50947142D02*
X47869819Y-51089999D01*
X47869819Y-51089999D02*
X47869819Y-51328094D01*
X47869819Y-49804285D02*
X47869819Y-50375713D01*
X47869819Y-50089999D02*
X46869819Y-50089999D01*
X46869819Y-50089999D02*
X47012676Y-50185237D01*
X47012676Y-50185237D02*
X47107914Y-50280475D01*
X47107914Y-50280475D02*
X47155533Y-50375713D01*
X101944819Y-56638333D02*
X102659104Y-56638333D01*
X102659104Y-56638333D02*
X102801961Y-56685952D01*
X102801961Y-56685952D02*
X102897200Y-56781190D01*
X102897200Y-56781190D02*
X102944819Y-56924047D01*
X102944819Y-56924047D02*
X102944819Y-57019285D01*
X102040057Y-56209761D02*
X101992438Y-56162142D01*
X101992438Y-56162142D02*
X101944819Y-56066904D01*
X101944819Y-56066904D02*
X101944819Y-55828809D01*
X101944819Y-55828809D02*
X101992438Y-55733571D01*
X101992438Y-55733571D02*
X102040057Y-55685952D01*
X102040057Y-55685952D02*
X102135295Y-55638333D01*
X102135295Y-55638333D02*
X102230533Y-55638333D01*
X102230533Y-55638333D02*
X102373390Y-55685952D01*
X102373390Y-55685952D02*
X102944819Y-56257380D01*
X102944819Y-56257380D02*
X102944819Y-55638333D01*
D11*
%TO.C,R4*%
X35585000Y-51905000D02*
X35585000Y-58445000D01*
X35585000Y-58445000D02*
X38325000Y-58445000D01*
X36955000Y-51135000D02*
X36955000Y-51905000D01*
X36955000Y-59215000D02*
X36955000Y-58445000D01*
X38325000Y-51905000D02*
X35585000Y-51905000D01*
X38325000Y-58445000D02*
X38325000Y-51905000D01*
%TO.C,R5*%
X31585000Y-51905000D02*
X31585000Y-58445000D01*
X31585000Y-58445000D02*
X34325000Y-58445000D01*
X32955000Y-51135000D02*
X32955000Y-51905000D01*
X32955000Y-59215000D02*
X32955000Y-58445000D01*
X34325000Y-51905000D02*
X31585000Y-51905000D01*
X34325000Y-58445000D02*
X34325000Y-51905000D01*
%TO.C,R9*%
X26915000Y-28595000D02*
X27685000Y-28595000D01*
X27685000Y-27225000D02*
X27685000Y-29965000D01*
X27685000Y-29965000D02*
X34225000Y-29965000D01*
X34225000Y-27225000D02*
X27685000Y-27225000D01*
X34225000Y-29965000D02*
X34225000Y-27225000D01*
X34995000Y-28595000D02*
X34225000Y-28595000D01*
%TO.C,J7*%
X44070000Y-77560000D02*
X44070000Y-78300000D01*
X44070000Y-78300000D02*
X44570000Y-78300000D01*
X44310000Y-68139000D02*
X44310000Y-78060000D01*
X44310000Y-68139000D02*
X54590000Y-68139000D01*
X44310000Y-71099000D02*
X54590000Y-71099000D01*
X44310000Y-76000000D02*
X54590000Y-76000000D01*
X44310000Y-77500000D02*
X54590000Y-77500000D01*
X44310000Y-78060000D02*
X54590000Y-78060000D01*
X50763000Y-74423000D02*
X50716000Y-74469000D01*
X50956000Y-74639000D02*
X50921000Y-74674000D01*
X53060000Y-72125000D02*
X53025000Y-72161000D01*
X53265000Y-72331000D02*
X53218000Y-72377000D01*
X54590000Y-68139000D02*
X54590000Y-78060000D01*
X45374573Y-74083042D02*
G75*
G02*
X45375000Y-72716000I1535420J683041D01*
G01*
X46226958Y-71864573D02*
G75*
G02*
X47594000Y-71865000I683041J-1535420D01*
G01*
X46938805Y-75080253D02*
G75*
G02*
X46226000Y-74935000I-28806J1680254D01*
G01*
X47593318Y-74934756D02*
G75*
G02*
X46910000Y-75080000I-683318J1534756D01*
G01*
X48445427Y-72716958D02*
G75*
G02*
X48445000Y-74084000I-1535427J-683042D01*
G01*
X53670000Y-73400000D02*
G75*
G02*
X50310000Y-73400000I-1680000J0D01*
G01*
X50310000Y-73400000D02*
G75*
G02*
X53670000Y-73400000I1680000J0D01*
G01*
%TO.C,J4*%
X25585000Y-37035000D02*
X25585000Y-38285000D01*
X25585000Y-40285000D02*
X25585000Y-41535000D01*
X25585000Y-41535000D02*
X46025000Y-41535000D01*
X46025000Y-37035000D02*
X25585000Y-37035000D01*
X46025000Y-41535000D02*
X46025000Y-37035000D01*
X25585000Y-38285000D02*
G75*
G02*
X25585000Y-40285000I0J-1000000D01*
G01*
%TO.C,J8*%
X22615000Y-77255000D02*
X22615000Y-77995000D01*
X22615000Y-77995000D02*
X23115000Y-77995000D01*
X22855000Y-67834000D02*
X22855000Y-77755000D01*
X22855000Y-67834000D02*
X43295000Y-67834000D01*
X22855000Y-70794000D02*
X43295000Y-70794000D01*
X22855000Y-75695000D02*
X43295000Y-75695000D01*
X22855000Y-77195000D02*
X43295000Y-77195000D01*
X22855000Y-77755000D02*
X43295000Y-77755000D01*
X29308000Y-74118000D02*
X29261000Y-74164000D01*
X29501000Y-74334000D02*
X29466000Y-74369000D01*
X31605000Y-71820000D02*
X31570000Y-71856000D01*
X31810000Y-72026000D02*
X31763000Y-72072000D01*
X34388000Y-74118000D02*
X34341000Y-74164000D01*
X34581000Y-74334000D02*
X34546000Y-74369000D01*
X36685000Y-71820000D02*
X36650000Y-71856000D01*
X36890000Y-72026000D02*
X36843000Y-72072000D01*
X39468000Y-74118000D02*
X39421000Y-74164000D01*
X39661000Y-74334000D02*
X39626000Y-74369000D01*
X41765000Y-71820000D02*
X41730000Y-71856000D01*
X41970000Y-72026000D02*
X41923000Y-72072000D01*
X43295000Y-67834000D02*
X43295000Y-77755000D01*
X23919573Y-73778042D02*
G75*
G02*
X23920000Y-72411000I1535420J683041D01*
G01*
X24771958Y-71559573D02*
G75*
G02*
X26139000Y-71560000I683041J-1535420D01*
G01*
X25483805Y-74775253D02*
G75*
G02*
X24771000Y-74630000I-28806J1680254D01*
G01*
X26138318Y-74629756D02*
G75*
G02*
X25455000Y-74775000I-683318J1534756D01*
G01*
X26990427Y-72411958D02*
G75*
G02*
X26990000Y-73779000I-1535427J-683042D01*
G01*
X32215000Y-73095000D02*
G75*
G02*
X28855000Y-73095000I-1680000J0D01*
G01*
X28855000Y-73095000D02*
G75*
G02*
X32215000Y-73095000I1680000J0D01*
G01*
X37295000Y-73095000D02*
G75*
G02*
X33935000Y-73095000I-1680000J0D01*
G01*
X33935000Y-73095000D02*
G75*
G02*
X37295000Y-73095000I1680000J0D01*
G01*
X42375000Y-73095000D02*
G75*
G02*
X39015000Y-73095000I-1680000J0D01*
G01*
X39015000Y-73095000D02*
G75*
G02*
X42375000Y-73095000I1680000J0D01*
G01*
%TO.C,R2*%
X23585000Y-51745000D02*
X23585000Y-58285000D01*
X23585000Y-58285000D02*
X26325000Y-58285000D01*
X24955000Y-50975000D02*
X24955000Y-51745000D01*
X24955000Y-59055000D02*
X24955000Y-58285000D01*
X26325000Y-51745000D02*
X23585000Y-51745000D01*
X26325000Y-58285000D02*
X26325000Y-51745000D01*
%TO.C,R7*%
X40415000Y-28595000D02*
X41185000Y-28595000D01*
X41185000Y-27225000D02*
X41185000Y-29965000D01*
X41185000Y-29965000D02*
X47725000Y-29965000D01*
X47725000Y-27225000D02*
X41185000Y-27225000D01*
X47725000Y-29965000D02*
X47725000Y-27225000D01*
X48495000Y-28595000D02*
X47725000Y-28595000D01*
%TO.C,R3*%
X27585000Y-51825000D02*
X27585000Y-58365000D01*
X27585000Y-58365000D02*
X30325000Y-58365000D01*
X28955000Y-51055000D02*
X28955000Y-51825000D01*
X28955000Y-59135000D02*
X28955000Y-58365000D01*
X30325000Y-51825000D02*
X27585000Y-51825000D01*
X30325000Y-58365000D02*
X30325000Y-51825000D01*
D10*
%TO.C,A1*%
X69945000Y-35045000D02*
X69945000Y-78225000D01*
X69945000Y-35045000D02*
X87725000Y-35045000D01*
X69945000Y-78225000D02*
X87725000Y-78225000D01*
X87725000Y-35045000D02*
X87725000Y-78225000D01*
D11*
%TO.C,R1*%
X42085000Y-57405000D02*
X42085000Y-63945000D01*
X42085000Y-63945000D02*
X44825000Y-63945000D01*
X43455000Y-56635000D02*
X43455000Y-57405000D01*
X43455000Y-64715000D02*
X43455000Y-63945000D01*
X44825000Y-57405000D02*
X42085000Y-57405000D01*
X44825000Y-63945000D02*
X44825000Y-57405000D01*
D12*
%TO.C,F2*%
X47590000Y-50595000D02*
X54320000Y-50595000D01*
X47590000Y-66595000D02*
X47590000Y-50595000D01*
X54320000Y-50595000D02*
X54320000Y-66595000D01*
X54320000Y-66595000D02*
X47590000Y-66595000D01*
D13*
X48555000Y-67595000D02*
G75*
G02*
X48355000Y-67595000I-100000J0D01*
G01*
X48355000Y-67595000D02*
G75*
G02*
X48555000Y-67595000I100000J0D01*
G01*
D11*
%TO.C,J1*%
X57125000Y-72995000D02*
X57125000Y-75655000D01*
X57125000Y-75655000D02*
X67405000Y-75655000D01*
X57185000Y-78365000D02*
X57185000Y-77095000D01*
X58075000Y-66995000D02*
X58835000Y-66995000D01*
X58075000Y-72995000D02*
X58075000Y-66995000D01*
X58075000Y-75985000D02*
X58075000Y-75655000D01*
X58135000Y-72995000D02*
X58135000Y-66995000D01*
X58255000Y-72995000D02*
X58255000Y-66995000D01*
X58375000Y-72995000D02*
X58375000Y-66995000D01*
X58455000Y-78365000D02*
X57185000Y-78365000D01*
X58495000Y-72995000D02*
X58495000Y-66995000D01*
X58615000Y-72995000D02*
X58615000Y-66995000D01*
X58735000Y-72995000D02*
X58735000Y-66995000D01*
X58835000Y-66995000D02*
X58835000Y-72995000D01*
X58835000Y-75985000D02*
X58835000Y-75655000D01*
X59725000Y-75655000D02*
X59725000Y-72995000D01*
X60615000Y-66995000D02*
X61375000Y-66995000D01*
X60615000Y-72995000D02*
X60615000Y-66995000D01*
X60615000Y-76052071D02*
X60615000Y-75655000D01*
X61375000Y-66995000D02*
X61375000Y-72995000D01*
X61375000Y-76052071D02*
X61375000Y-75655000D01*
X62265000Y-75655000D02*
X62265000Y-72995000D01*
X63155000Y-66995000D02*
X63915000Y-66995000D01*
X63155000Y-72995000D02*
X63155000Y-66995000D01*
X63155000Y-76052071D02*
X63155000Y-75655000D01*
X63915000Y-66995000D02*
X63915000Y-72995000D01*
X63915000Y-76052071D02*
X63915000Y-75655000D01*
X64805000Y-75655000D02*
X64805000Y-72995000D01*
X65695000Y-66995000D02*
X66455000Y-66995000D01*
X65695000Y-72995000D02*
X65695000Y-66995000D01*
X65695000Y-76052071D02*
X65695000Y-75655000D01*
X66455000Y-66995000D02*
X66455000Y-72995000D01*
X66455000Y-76052071D02*
X66455000Y-75655000D01*
X67405000Y-72995000D02*
X57125000Y-72995000D01*
X67405000Y-75655000D02*
X67405000Y-72995000D01*
%TO.C,J3*%
X59695000Y-33356000D02*
X59695000Y-23435000D01*
X61020000Y-29164000D02*
X61067000Y-29118000D01*
X61225000Y-29370000D02*
X61260000Y-29334000D01*
X63329000Y-26856000D02*
X63364000Y-26821000D01*
X63522000Y-27072000D02*
X63569000Y-27026000D01*
X66100000Y-29164000D02*
X66147000Y-29118000D01*
X66305000Y-29370000D02*
X66340000Y-29334000D01*
X68409000Y-26856000D02*
X68444000Y-26821000D01*
X68602000Y-27072000D02*
X68649000Y-27026000D01*
X71180000Y-29164000D02*
X71227000Y-29118000D01*
X71385000Y-29370000D02*
X71420000Y-29334000D01*
X73489000Y-26856000D02*
X73524000Y-26821000D01*
X73682000Y-27072000D02*
X73729000Y-27026000D01*
X76260000Y-29164000D02*
X76307000Y-29118000D01*
X76465000Y-29370000D02*
X76500000Y-29334000D01*
X78569000Y-26856000D02*
X78604000Y-26821000D01*
X78762000Y-27072000D02*
X78809000Y-27026000D01*
X81340000Y-29164000D02*
X81387000Y-29118000D01*
X81545000Y-29370000D02*
X81580000Y-29334000D01*
X83649000Y-26856000D02*
X83684000Y-26821000D01*
X83842000Y-27072000D02*
X83889000Y-27026000D01*
X86420000Y-29164000D02*
X86467000Y-29118000D01*
X86625000Y-29370000D02*
X86660000Y-29334000D01*
X88729000Y-26856000D02*
X88764000Y-26821000D01*
X88922000Y-27072000D02*
X88969000Y-27026000D01*
X91500000Y-29164000D02*
X91547000Y-29118000D01*
X91705000Y-29370000D02*
X91740000Y-29334000D01*
X93809000Y-26856000D02*
X93844000Y-26821000D01*
X94002000Y-27072000D02*
X94049000Y-27026000D01*
X100455000Y-23435000D02*
X59695000Y-23435000D01*
X100455000Y-23995000D02*
X59695000Y-23995000D01*
X100455000Y-25495000D02*
X59695000Y-25495000D01*
X100455000Y-30396000D02*
X59695000Y-30396000D01*
X100455000Y-33356000D02*
X59695000Y-33356000D01*
X100455000Y-33356000D02*
X100455000Y-23435000D01*
X100695000Y-23195000D02*
X100195000Y-23195000D01*
X100695000Y-23935000D02*
X100695000Y-23195000D01*
X96319573Y-28778042D02*
G75*
G02*
X96320000Y-27411000I1535427J683042D01*
G01*
X97171682Y-26560244D02*
G75*
G02*
X97855000Y-26415000I683318J-1534756D01*
G01*
X97826195Y-26414747D02*
G75*
G02*
X98539000Y-26560000I28806J-1680254D01*
G01*
X98538042Y-29630427D02*
G75*
G02*
X97171000Y-29630000I-683041J1535420D01*
G01*
X99390427Y-27411958D02*
G75*
G02*
X99390000Y-28779000I-1535420J-683041D01*
G01*
X63975000Y-28095000D02*
G75*
G02*
X60615000Y-28095000I-1680000J0D01*
G01*
X60615000Y-28095000D02*
G75*
G02*
X63975000Y-28095000I1680000J0D01*
G01*
X69055000Y-28095000D02*
G75*
G02*
X65695000Y-28095000I-1680000J0D01*
G01*
X65695000Y-28095000D02*
G75*
G02*
X69055000Y-28095000I1680000J0D01*
G01*
X74135000Y-28095000D02*
G75*
G02*
X70775000Y-28095000I-1680000J0D01*
G01*
X70775000Y-28095000D02*
G75*
G02*
X74135000Y-28095000I1680000J0D01*
G01*
X79215000Y-28095000D02*
G75*
G02*
X75855000Y-28095000I-1680000J0D01*
G01*
X75855000Y-28095000D02*
G75*
G02*
X79215000Y-28095000I1680000J0D01*
G01*
X84295000Y-28095000D02*
G75*
G02*
X80935000Y-28095000I-1680000J0D01*
G01*
X80935000Y-28095000D02*
G75*
G02*
X84295000Y-28095000I1680000J0D01*
G01*
X89375000Y-28095000D02*
G75*
G02*
X86015000Y-28095000I-1680000J0D01*
G01*
X86015000Y-28095000D02*
G75*
G02*
X89375000Y-28095000I1680000J0D01*
G01*
X94455000Y-28095000D02*
G75*
G02*
X91095000Y-28095000I-1680000J0D01*
G01*
X91095000Y-28095000D02*
G75*
G02*
X94455000Y-28095000I1680000J0D01*
G01*
%TO.C,R8*%
X31915000Y-32095000D02*
X32685000Y-32095000D01*
X32685000Y-30725000D02*
X32685000Y-33465000D01*
X32685000Y-33465000D02*
X39225000Y-33465000D01*
X39225000Y-30725000D02*
X32685000Y-30725000D01*
X39225000Y-33465000D02*
X39225000Y-30725000D01*
X39995000Y-32095000D02*
X39225000Y-32095000D01*
%TO.C,R6*%
X45415000Y-32095000D02*
X46185000Y-32095000D01*
X46185000Y-30725000D02*
X46185000Y-33465000D01*
X46185000Y-33465000D02*
X52725000Y-33465000D01*
X52725000Y-30725000D02*
X46185000Y-30725000D01*
X52725000Y-33465000D02*
X52725000Y-30725000D01*
X53495000Y-32095000D02*
X52725000Y-32095000D01*
%TO.C,J6*%
X48085000Y-36265000D02*
X48085000Y-38925000D01*
X65925000Y-36265000D02*
X48085000Y-36265000D01*
X65925000Y-36265000D02*
X65925000Y-38925000D01*
X65925000Y-38925000D02*
X48085000Y-38925000D01*
X67195000Y-36265000D02*
X68525000Y-36265000D01*
X68525000Y-36265000D02*
X68525000Y-37595000D01*
%TO.C,D1*%
X45000000Y-48030000D02*
X41910000Y-48030000D01*
X43454952Y-53580000D02*
G75*
G02*
X41910170Y-48030000I48J2990000D01*
G01*
X44999830Y-48030000D02*
G75*
G02*
X43455048Y-53580000I-1544830J-2560000D01*
G01*
X45955000Y-50590000D02*
G75*
G02*
X40955000Y-50590000I-2500000J0D01*
G01*
X40955000Y-50590000D02*
G75*
G02*
X45955000Y-50590000I2500000J0D01*
G01*
%TO.C,J2*%
X91330000Y-35685000D02*
X91330000Y-36185000D01*
X91570000Y-35925000D02*
X91570000Y-76685000D01*
X92070000Y-35685000D02*
X91330000Y-35685000D01*
X92130000Y-35925000D02*
X92130000Y-76685000D01*
X93630000Y-35925000D02*
X93630000Y-76685000D01*
X94991000Y-42571000D02*
X94956000Y-42536000D01*
X94991000Y-47651000D02*
X94956000Y-47616000D01*
X94991000Y-52731000D02*
X94956000Y-52696000D01*
X94991000Y-57811000D02*
X94956000Y-57776000D01*
X94991000Y-62891000D02*
X94956000Y-62856000D01*
X94991000Y-67971000D02*
X94956000Y-67936000D01*
X94991000Y-73051000D02*
X94956000Y-73016000D01*
X95207000Y-42378000D02*
X95161000Y-42331000D01*
X95207000Y-47458000D02*
X95161000Y-47411000D01*
X95207000Y-52538000D02*
X95161000Y-52491000D01*
X95207000Y-57618000D02*
X95161000Y-57571000D01*
X95207000Y-62698000D02*
X95161000Y-62651000D01*
X95207000Y-67778000D02*
X95161000Y-67731000D01*
X95207000Y-72858000D02*
X95161000Y-72811000D01*
X97299000Y-44880000D02*
X97253000Y-44833000D01*
X97299000Y-49960000D02*
X97253000Y-49913000D01*
X97299000Y-55040000D02*
X97253000Y-54993000D01*
X97299000Y-60120000D02*
X97253000Y-60073000D01*
X97299000Y-65200000D02*
X97253000Y-65153000D01*
X97299000Y-70280000D02*
X97253000Y-70233000D01*
X97299000Y-75360000D02*
X97253000Y-75313000D01*
X97505000Y-44675000D02*
X97469000Y-44640000D01*
X97505000Y-49755000D02*
X97469000Y-49720000D01*
X97505000Y-54835000D02*
X97469000Y-54800000D01*
X97505000Y-59915000D02*
X97469000Y-59880000D01*
X97505000Y-64995000D02*
X97469000Y-64960000D01*
X97505000Y-70075000D02*
X97469000Y-70040000D01*
X97505000Y-75155000D02*
X97469000Y-75120000D01*
X98531000Y-35925000D02*
X98531000Y-76685000D01*
X101491000Y-35925000D02*
X91570000Y-35925000D01*
X101491000Y-35925000D02*
X101491000Y-76685000D01*
X101491000Y-76685000D02*
X91570000Y-76685000D01*
X94549747Y-38553805D02*
G75*
G02*
X94695000Y-37841000I1680254J28806D01*
G01*
X94695244Y-39208318D02*
G75*
G02*
X94550000Y-38525000I1534756J683318D01*
G01*
X95546958Y-36989573D02*
G75*
G02*
X96914000Y-36990000I683041J-1535420D01*
G01*
X96913042Y-40060427D02*
G75*
G02*
X95546000Y-40060000I-683042J1535427D01*
G01*
X97765427Y-37841958D02*
G75*
G02*
X97765000Y-39209000I-1535420J-683041D01*
G01*
X97910000Y-43605000D02*
G75*
G02*
X94550000Y-43605000I-1680000J0D01*
G01*
X94550000Y-43605000D02*
G75*
G02*
X97910000Y-43605000I1680000J0D01*
G01*
X97910000Y-48685000D02*
G75*
G02*
X94550000Y-48685000I-1680000J0D01*
G01*
X94550000Y-48685000D02*
G75*
G02*
X97910000Y-48685000I1680000J0D01*
G01*
X97910000Y-53765000D02*
G75*
G02*
X94550000Y-53765000I-1680000J0D01*
G01*
X94550000Y-53765000D02*
G75*
G02*
X97910000Y-53765000I1680000J0D01*
G01*
X97910000Y-58845000D02*
G75*
G02*
X94550000Y-58845000I-1680000J0D01*
G01*
X94550000Y-58845000D02*
G75*
G02*
X97910000Y-58845000I1680000J0D01*
G01*
X97910000Y-63925000D02*
G75*
G02*
X94550000Y-63925000I-1680000J0D01*
G01*
X94550000Y-63925000D02*
G75*
G02*
X97910000Y-63925000I1680000J0D01*
G01*
X97910000Y-69005000D02*
G75*
G02*
X94550000Y-69005000I-1680000J0D01*
G01*
X94550000Y-69005000D02*
G75*
G02*
X97910000Y-69005000I1680000J0D01*
G01*
X97910000Y-74085000D02*
G75*
G02*
X94550000Y-74085000I-1680000J0D01*
G01*
X94550000Y-74085000D02*
G75*
G02*
X97910000Y-74085000I1680000J0D01*
G01*
%TD*%
M02*
