M48
; DRILL file {KiCad 8.0.7} date 2025-01-10T10:31:32-0600
; FORMAT={-:-/ absolute / metric / decimal}
; #@! TF.CreationDate,2025-01-10T10:31:32-06:00
; #@! TF.GenerationSoftware,Kicad,Pcbnew,8.0.7
; #@! TF.FileFunction,Plated,1,2,PTH
FMAT,2
METRIC
; #@! TA.AperFunction,Plated,PTH,ComponentDrill
T1C0.800
; #@! TA.AperFunction,Plated,PTH,ComponentDrill
T2C0.900
; #@! TA.AperFunction,Plated,PTH,ComponentDrill
T3C1.000
; #@! TA.AperFunction,Plated,PTH,ComponentDrill
T4C1.016
; #@! TA.AperFunction,Plated,PTH,ComponentDrill
T5C1.300
; #@! TA.AperFunction,Plated,PTH,ComponentDrill
T6C1.600
%
G90
G05
T1
X24.955Y-49.935
X24.955Y-60.095
X25.875Y-28.595
X26.915Y-35.475
X26.915Y-43.095
X28.955Y-50.015
X28.955Y-60.175
X29.455Y-35.475
X29.455Y-43.095
X30.875Y-32.095
X31.995Y-35.475
X31.995Y-43.095
X32.955Y-50.095
X32.955Y-60.255
X34.535Y-35.475
X34.535Y-43.095
X36.035Y-28.595
X36.955Y-50.095
X36.955Y-60.255
X37.075Y-35.475
X37.075Y-43.095
X39.375Y-28.595
X39.615Y-35.475
X39.615Y-43.095
X41.035Y-32.095
X42.155Y-35.475
X42.155Y-43.095
X43.455Y-55.595
X43.455Y-65.755
X44.375Y-32.095
X44.695Y-35.475
X44.695Y-43.095
X49.535Y-28.595
X54.535Y-32.095
T2
X43.455Y-49.32
X43.455Y-51.86
T3
X49.415Y-37.595
X51.955Y-37.595
X54.495Y-37.595
X57.035Y-37.595
X58.455Y-77.095
X59.575Y-37.595
X60.995Y-77.095
X62.115Y-37.595
X63.535Y-77.095
X64.655Y-37.595
X66.075Y-77.095
X67.195Y-37.595
T4
X71.215Y-38.855
X71.215Y-41.395
X71.215Y-43.935
X71.215Y-46.475
X71.215Y-49.015
X71.215Y-51.555
X71.215Y-54.095
X71.215Y-56.635
X71.215Y-59.175
X71.215Y-61.715
X71.215Y-64.255
X71.215Y-66.795
X71.215Y-69.335
X71.215Y-71.875
X71.215Y-74.415
X86.455Y-38.855
X86.455Y-41.395
X86.455Y-43.935
X86.455Y-46.475
X86.455Y-49.015
X86.455Y-51.555
X86.455Y-54.095
X86.455Y-56.635
X86.455Y-59.175
X86.455Y-61.715
X86.455Y-64.255
X86.455Y-66.795
X86.455Y-69.335
X86.455Y-71.875
X86.455Y-74.415
T5
X25.455Y-73.095
X30.535Y-73.095
X35.615Y-73.095
X40.695Y-73.095
X46.91Y-73.4
X51.99Y-73.4
X62.295Y-28.095
X67.375Y-28.095
X72.455Y-28.095
X77.535Y-28.095
X82.615Y-28.095
X87.695Y-28.095
X92.775Y-28.095
X96.23Y-38.525
X96.23Y-43.605
X96.23Y-48.685
X96.23Y-53.765
X96.23Y-58.845
X96.23Y-63.925
X96.23Y-69.005
X96.23Y-74.085
X97.855Y-28.095
T6
X49.255Y-53.635
X49.255Y-63.555
X52.655Y-53.635
X52.655Y-63.555
M30
