%TF.GenerationSoftware,KiCad,Pcbnew,(5.1.9)-1*%
%TF.CreationDate,2023-01-30T16:09:17-06:00*%
%TF.ProjectId,Motherboard_2023,4d6f7468-6572-4626-9f61-72645f323032,rev?*%
%TF.SameCoordinates,Original*%
%TF.FileFunction,Legend,Bot*%
%TF.FilePolarity,Positive*%
%FSLAX46Y46*%
G04 Gerber Fmt 4.6, Leading zero omitted, Abs format (unit mm)*
G04 Created by KiCad (PCBNEW (5.1.9)-1) date 2023-01-30 16:09:17*
%MOMM*%
%LPD*%
G01*
G04 APERTURE LIST*
%ADD10C,0.150000*%
G04 APERTURE END LIST*
D10*
X273179047Y-41290000D02*
X273274285Y-41242380D01*
X273417142Y-41242380D01*
X273560000Y-41290000D01*
X273655238Y-41385238D01*
X273702857Y-41480476D01*
X273750476Y-41670952D01*
X273750476Y-41813809D01*
X273702857Y-42004285D01*
X273655238Y-42099523D01*
X273560000Y-42194761D01*
X273417142Y-42242380D01*
X273321904Y-42242380D01*
X273179047Y-42194761D01*
X273131428Y-42147142D01*
X273131428Y-41813809D01*
X273321904Y-41813809D01*
X272702857Y-42242380D02*
X272702857Y-41242380D01*
X272131428Y-42242380D01*
X272131428Y-41242380D01*
X271655238Y-42242380D02*
X271655238Y-41242380D01*
X271417142Y-41242380D01*
X271274285Y-41290000D01*
X271179047Y-41385238D01*
X271131428Y-41480476D01*
X271083809Y-41670952D01*
X271083809Y-41813809D01*
X271131428Y-42004285D01*
X271179047Y-42099523D01*
X271274285Y-42194761D01*
X271417142Y-42242380D01*
X271655238Y-42242380D01*
X269893333Y-42242380D02*
X269893333Y-41242380D01*
X269512380Y-41242380D01*
X269417142Y-41290000D01*
X269369523Y-41337619D01*
X269321904Y-41432857D01*
X269321904Y-41575714D01*
X269369523Y-41670952D01*
X269417142Y-41718571D01*
X269512380Y-41766190D01*
X269893333Y-41766190D01*
X268750476Y-42242380D02*
X268845714Y-42194761D01*
X268893333Y-42099523D01*
X268893333Y-41242380D01*
X267940952Y-42242380D02*
X267940952Y-41718571D01*
X267988571Y-41623333D01*
X268083809Y-41575714D01*
X268274285Y-41575714D01*
X268369523Y-41623333D01*
X267940952Y-42194761D02*
X268036190Y-42242380D01*
X268274285Y-42242380D01*
X268369523Y-42194761D01*
X268417142Y-42099523D01*
X268417142Y-42004285D01*
X268369523Y-41909047D01*
X268274285Y-41861428D01*
X268036190Y-41861428D01*
X267940952Y-41813809D01*
X267464761Y-41575714D02*
X267464761Y-42242380D01*
X267464761Y-41670952D02*
X267417142Y-41623333D01*
X267321904Y-41575714D01*
X267179047Y-41575714D01*
X267083809Y-41623333D01*
X267036190Y-41718571D01*
X267036190Y-42242380D01*
X266179047Y-42194761D02*
X266274285Y-42242380D01*
X266464761Y-42242380D01*
X266560000Y-42194761D01*
X266607619Y-42099523D01*
X266607619Y-41718571D01*
X266560000Y-41623333D01*
X266464761Y-41575714D01*
X266274285Y-41575714D01*
X266179047Y-41623333D01*
X266131428Y-41718571D01*
X266131428Y-41813809D01*
X266607619Y-41909047D01*
M02*
