M48
; DRILL file {KiCad 7.0.8} date Tue Dec 10 03:26:14 2024
; FORMAT={-:-/ absolute / metric / decimal}
; #@! TF.CreationDate,2024-12-10T03:26:14-06:00
; #@! TF.GenerationSoftware,Kicad,Pcbnew,7.0.8
; #@! TF.FileFunction,Plated,1,2,PTH
FMAT,2
METRIC
; #@! TA.AperFunction,Plated,PTH,ViaDrill
T1C0.400
; #@! TA.AperFunction,Plated,PTH,ComponentDrill
T2C0.750
; #@! TA.AperFunction,Plated,PTH,ComponentDrill
T3C0.800
; #@! TA.AperFunction,Plated,PTH,ComponentDrill
T4C0.900
; #@! TA.AperFunction,Plated,PTH,ComponentDrill
T5C1.000
; #@! TA.AperFunction,Plated,PTH,ComponentDrill
T6C1.016
; #@! TA.AperFunction,Plated,PTH,ComponentDrill
T7C1.300
; #@! TA.AperFunction,Plated,PTH,ComponentDrill
T8C1.600
; #@! TA.AperFunction,Plated,PTH,ComponentDrill
T9C1.800
%
G90
G05
T1
X109.155Y-71.39
X113.425Y-73.12
X118.195Y-75.35
X123.545Y-78.0
X153.535Y-111.805
T2
X52.755Y-68.0
X52.755Y-69.27
X52.755Y-70.54
X53.545Y-91.46
X53.545Y-92.73
X53.545Y-94.0
X61.545Y-68.0
X61.545Y-69.27
X61.545Y-70.54
X64.545Y-91.46
X64.545Y-92.73
X64.545Y-94.0
X70.335Y-68.0
X70.335Y-69.27
X70.335Y-70.54
X79.335Y-68.0
X79.335Y-69.27
X79.335Y-70.54
X88.545Y-68.0
X88.545Y-69.27
X88.545Y-70.54
X96.965Y-67.73
X96.965Y-69.0
X96.965Y-70.27
T3
X52.335Y-75.92
X52.335Y-86.08
X52.545Y-96.92
X52.545Y-107.08
X61.335Y-75.92
X61.335Y-86.08
X64.545Y-96.92
X64.545Y-107.08
X70.335Y-75.92
X70.335Y-86.08
X79.545Y-75.92
X79.545Y-86.08
X88.965Y-75.84
X88.965Y-86.0
X97.595Y-75.57
X97.595Y-85.73
X184.545Y-82.92
X184.545Y-93.08
T4
X184.545Y-77.0
X184.545Y-79.54
T5
X154.745Y-105.375
X157.285Y-105.375
X159.825Y-105.375
X162.365Y-105.375
X183.545Y-41.125
X183.545Y-43.665
X183.545Y-46.205
X183.545Y-48.745
X183.545Y-51.285
X183.545Y-53.825
X183.545Y-56.365
X183.545Y-58.905
X240.555Y-74.305
X243.055Y-74.305
X245.555Y-74.305
T6
X129.545Y-68.92
X129.545Y-71.46
X129.545Y-74.0
X129.545Y-76.54
X129.545Y-79.08
X129.545Y-81.62
X129.545Y-84.16
X129.545Y-86.7
X129.545Y-89.24
X129.545Y-91.78
X129.545Y-94.32
X129.545Y-96.86
X129.545Y-99.4
X129.545Y-101.94
X129.545Y-104.48
X144.785Y-68.92
X144.785Y-71.46
X144.785Y-74.0
X144.785Y-76.54
X144.785Y-79.08
X144.785Y-81.62
X144.785Y-84.16
X144.785Y-86.7
X144.785Y-89.24
X144.785Y-91.78
X144.785Y-94.32
X144.785Y-96.86
X144.785Y-99.4
X144.785Y-101.94
X144.785Y-104.48
T7
X61.635Y-45.305
X66.715Y-45.305
X71.795Y-45.305
X76.875Y-45.305
X81.955Y-45.305
X83.545Y-104.0
X87.035Y-45.305
X88.625Y-104.0
X93.705Y-104.0
X95.985Y-45.305
X98.785Y-104.0
X101.065Y-45.305
X106.145Y-45.305
X111.225Y-45.305
X116.305Y-45.305
X121.385Y-45.305
X126.465Y-45.305
X131.545Y-45.305
X140.545Y-45.0
X145.625Y-45.0
X150.705Y-45.0
X155.785Y-45.0
X160.865Y-45.0
X165.945Y-45.0
X171.025Y-45.0
X176.0Y-102.305
X176.105Y-45.0
X181.08Y-102.305
X237.955Y-49.805
X243.035Y-49.805
X248.115Y-49.805
T8
X174.845Y-81.04
X174.845Y-90.96
X178.245Y-81.04
X178.245Y-90.96
T9
G00X238.655Y-67.455
M15
G01X238.655Y-67.155
M16
G05
G00X247.455Y-67.455
M15
G01X247.455Y-67.155
M16
G05
T0
M30
