%TF.GenerationSoftware,KiCad,Pcbnew,7.0.8*%
%TF.CreationDate,2024-12-10T03:26:12-06:00*%
%TF.ProjectId,CANBOARD_REV2,43414e42-4f41-4524-945f-524556322e6b,rev?*%
%TF.SameCoordinates,Original*%
%TF.FileFunction,Copper,L1,Top*%
%TF.FilePolarity,Positive*%
%FSLAX46Y46*%
G04 Gerber Fmt 4.6, Leading zero omitted, Abs format (unit mm)*
G04 Created by KiCad (PCBNEW 7.0.8) date 2024-12-10 03:26:12*
%MOMM*%
%LPD*%
G01*
G04 APERTURE LIST*
G04 Aperture macros list*
%AMRoundRect*
0 Rectangle with rounded corners*
0 $1 Rounding radius*
0 $2 $3 $4 $5 $6 $7 $8 $9 X,Y pos of 4 corners*
0 Add a 4 corners polygon primitive as box body*
4,1,4,$2,$3,$4,$5,$6,$7,$8,$9,$2,$3,0*
0 Add four circle primitives for the rounded corners*
1,1,$1+$1,$2,$3*
1,1,$1+$1,$4,$5*
1,1,$1+$1,$6,$7*
1,1,$1+$1,$8,$9*
0 Add four rect primitives between the rounded corners*
20,1,$1+$1,$2,$3,$4,$5,0*
20,1,$1+$1,$4,$5,$6,$7,0*
20,1,$1+$1,$6,$7,$8,$9,0*
20,1,$1+$1,$8,$9,$2,$3,0*%
G04 Aperture macros list end*
%TA.AperFunction,ComponentPad*%
%ADD10R,2.600000X2.600000*%
%TD*%
%TA.AperFunction,ComponentPad*%
%ADD11C,2.600000*%
%TD*%
%TA.AperFunction,ComponentPad*%
%ADD12R,1.800000X1.800000*%
%TD*%
%TA.AperFunction,ComponentPad*%
%ADD13C,1.800000*%
%TD*%
%TA.AperFunction,ComponentPad*%
%ADD14RoundRect,0.750000X0.750000X-1.250000X0.750000X1.250000X-0.750000X1.250000X-0.750000X-1.250000X0*%
%TD*%
%TA.AperFunction,ComponentPad*%
%ADD15C,1.600000*%
%TD*%
%TA.AperFunction,ComponentPad*%
%ADD16O,1.600000X1.600000*%
%TD*%
%TA.AperFunction,ComponentPad*%
%ADD17R,1.500000X1.050000*%
%TD*%
%TA.AperFunction,ComponentPad*%
%ADD18O,1.500000X1.050000*%
%TD*%
%TA.AperFunction,ComponentPad*%
%ADD19C,2.400000*%
%TD*%
%TA.AperFunction,ComponentPad*%
%ADD20R,1.700000X1.700000*%
%TD*%
%TA.AperFunction,ComponentPad*%
%ADD21O,1.700000X1.700000*%
%TD*%
%TA.AperFunction,ComponentPad*%
%ADD22C,1.727200*%
%TD*%
%TA.AperFunction,ComponentPad*%
%ADD23R,1.727200X1.727200*%
%TD*%
%TA.AperFunction,ViaPad*%
%ADD24C,0.800000*%
%TD*%
%TA.AperFunction,Conductor*%
%ADD25C,0.750000*%
%TD*%
%TA.AperFunction,Conductor*%
%ADD26C,1.250000*%
%TD*%
%TA.AperFunction,Conductor*%
%ADD27C,0.500000*%
%TD*%
G04 APERTURE END LIST*
D10*
%TO.P,J7,1,Pin_1*%
%TO.N,GND*%
X176000000Y-102305000D03*
D11*
%TO.P,J7,2,Pin_2*%
%TO.N,/Input_Power/V_in_unreg*%
X181080000Y-102305000D03*
%TD*%
D12*
%TO.P,RV1,1,1*%
%TO.N,/Throttle/Accel_power*%
X240555000Y-74305000D03*
D13*
%TO.P,RV1,2,2*%
%TO.N,/Throttle/Accel_sig*%
X243055000Y-74305000D03*
%TO.P,RV1,3,3*%
%TO.N,/Throttle/Accel_GND*%
X245555000Y-74305000D03*
D14*
%TO.P,RV1,MP*%
%TO.N,N/C*%
X238655000Y-67305000D03*
X247455000Y-67305000D03*
%TD*%
D15*
%TO.P,R9,1*%
%TO.N,GND*%
X52545000Y-107080000D03*
D16*
%TO.P,R9,2*%
%TO.N,/Arduino/kill_vout*%
X52545000Y-96920000D03*
%TD*%
D15*
%TO.P,R8,1*%
%TO.N,GND*%
X64545000Y-107080000D03*
D16*
%TO.P,R8,2*%
%TO.N,/Arduino/starter_vout*%
X64545000Y-96920000D03*
%TD*%
D17*
%TO.P,Q8,1,S*%
%TO.N,/Arduino/kill_vout*%
X53545000Y-94000000D03*
D18*
%TO.P,Q8,2,G*%
%TO.N,kill_sig*%
X53545000Y-92730000D03*
%TO.P,Q8,3,D*%
%TO.N,/Arduino/kill_vin*%
X53545000Y-91460000D03*
%TD*%
D17*
%TO.P,Q7,1,S*%
%TO.N,/Arduino/starter_vout*%
X64545000Y-94000000D03*
D18*
%TO.P,Q7,2,G*%
%TO.N,start_sig*%
X64545000Y-92730000D03*
%TO.P,Q7,3,D*%
%TO.N,/Arduino/starter_vin*%
X64545000Y-91460000D03*
%TD*%
D17*
%TO.P,Q6,1,S*%
%TO.N,deadman_left*%
X96965000Y-70270000D03*
D18*
%TO.P,Q6,2,G*%
%TO.N,/Safety Circuitry/deadman_left_switch*%
X96965000Y-69000000D03*
%TO.P,Q6,3,D*%
%TO.N,+3V3*%
X96965000Y-67730000D03*
%TD*%
D17*
%TO.P,Q5,1,S*%
%TO.N,deadman_right*%
X88545000Y-70540000D03*
D18*
%TO.P,Q5,2,G*%
%TO.N,/Safety Circuitry/deadman_right_switch*%
X88545000Y-69270000D03*
%TO.P,Q5,3,D*%
%TO.N,+3V3*%
X88545000Y-68000000D03*
%TD*%
D17*
%TO.P,Q4,1,S*%
%TO.N,neutral_left*%
X79335000Y-70540000D03*
D18*
%TO.P,Q4,2,G*%
%TO.N,/Safety Circuitry/neutral_left_switch*%
X79335000Y-69270000D03*
%TO.P,Q4,3,D*%
%TO.N,+3V3*%
X79335000Y-68000000D03*
%TD*%
D17*
%TO.P,Q3,1,S*%
%TO.N,neutral_right*%
X70335000Y-70540000D03*
D18*
%TO.P,Q3,2,G*%
%TO.N,/Safety Circuitry/neutral_right_switch*%
X70335000Y-69270000D03*
%TO.P,Q3,3,D*%
%TO.N,+3V3*%
X70335000Y-68000000D03*
%TD*%
D17*
%TO.P,Q2,1,S*%
%TO.N,brake_signal*%
X61545000Y-70540000D03*
D18*
%TO.P,Q2,2,G*%
%TO.N,/Safety Circuitry/brake_switch*%
X61545000Y-69270000D03*
%TO.P,Q2,3,D*%
%TO.N,+3V3*%
X61545000Y-68000000D03*
%TD*%
%TO.P,Q1,3,D*%
%TO.N,+3V3*%
X52755000Y-68000000D03*
%TO.P,Q1,2,G*%
%TO.N,/Safety Circuitry/seat_switch*%
X52755000Y-69270000D03*
D17*
%TO.P,Q1,1,S*%
%TO.N,seat_signal*%
X52755000Y-70540000D03*
%TD*%
D10*
%TO.P,J10,1,Pin_1*%
%TO.N,/Arduino/kill_vout*%
X83545000Y-104000000D03*
D11*
%TO.P,J10,2,Pin_2*%
%TO.N,/Arduino/starter_vout*%
X88625000Y-104000000D03*
%TO.P,J10,3,Pin_3*%
%TO.N,/Arduino/kill_vin*%
X93705000Y-104000000D03*
%TO.P,J10,4,Pin_4*%
%TO.N,/Arduino/starter_vin*%
X98785000Y-104000000D03*
%TD*%
D19*
%TO.P,F1,1*%
%TO.N,/Input_Power/V_in_unreg*%
X174845000Y-90960000D03*
%TO.P,F1,2*%
%TO.N,V_in*%
X174845000Y-81040000D03*
%TO.P,F1,3*%
%TO.N,/Input_Power/V_in_unreg*%
X178245000Y-90960000D03*
%TO.P,F1,4*%
%TO.N,V_in*%
X178245000Y-81040000D03*
%TD*%
D10*
%TO.P,J4,1,Pin_1*%
%TO.N,/Throttle/Accel_GND*%
X248115000Y-49805000D03*
D11*
%TO.P,J4,2,Pin_2*%
%TO.N,/Throttle/Accel_sig*%
X243035000Y-49805000D03*
%TO.P,J4,3,Pin_3*%
%TO.N,/Throttle/Accel_power*%
X237955000Y-49805000D03*
%TD*%
D12*
%TO.P,D1,1,K*%
%TO.N,V_in*%
X184545000Y-77000000D03*
D13*
%TO.P,D1,2,A*%
%TO.N,Net-(D1-A)*%
X184545000Y-79540000D03*
%TD*%
D15*
%TO.P,R1,1*%
%TO.N,/Input_Power/V_in_unreg*%
X184545000Y-93080000D03*
D16*
%TO.P,R1,2*%
%TO.N,Net-(D1-A)*%
X184545000Y-82920000D03*
%TD*%
D20*
%TO.P,J1,1,Pin_1*%
%TO.N,+3V3*%
X154745000Y-105375000D03*
D21*
%TO.P,J1,2,Pin_2*%
%TO.N,GND*%
X157285000Y-105375000D03*
%TO.P,J1,3,Pin_3*%
%TO.N,/Arduino/CAN_RX*%
X159825000Y-105375000D03*
%TO.P,J1,4,Pin_4*%
%TO.N,/Arduino/CAN_TX*%
X162365000Y-105375000D03*
%TD*%
D15*
%TO.P,R5,1*%
%TO.N,neutral_left*%
X79545000Y-75920000D03*
D16*
%TO.P,R5,2*%
%TO.N,GND*%
X79545000Y-86080000D03*
%TD*%
D11*
%TO.P,J2,8,Pin_8*%
%TO.N,/Arduino/A0*%
X176105000Y-45000000D03*
%TO.P,J2,7,Pin_7*%
%TO.N,/Arduino/A1*%
X171025000Y-45000000D03*
%TO.P,J2,6,Pin_6*%
%TO.N,/Arduino/A2*%
X165945000Y-45000000D03*
%TO.P,J2,5,Pin_5*%
%TO.N,/Arduino/A3*%
X160865000Y-45000000D03*
%TO.P,J2,4,Pin_4*%
%TO.N,/Arduino/A4{slash}SDA*%
X155785000Y-45000000D03*
%TO.P,J2,3,Pin_3*%
%TO.N,/Arduino/A5{slash}SCL*%
X150705000Y-45000000D03*
%TO.P,J2,2,Pin_2*%
%TO.N,/Arduino/A6*%
X145625000Y-45000000D03*
D10*
%TO.P,J2,1,Pin_1*%
%TO.N,/Arduino/A7*%
X140545000Y-45000000D03*
%TD*%
D11*
%TO.P,J3,8,Pin_8*%
%TO.N,seat_signal*%
X131545000Y-45305000D03*
%TO.P,J3,7,Pin_7*%
%TO.N,brake_signal*%
X126465000Y-45305000D03*
%TO.P,J3,6,Pin_6*%
%TO.N,neutral_right*%
X121385000Y-45305000D03*
%TO.P,J3,5,Pin_5*%
%TO.N,neutral_left*%
X116305000Y-45305000D03*
%TO.P,J3,4,Pin_4*%
%TO.N,deadman_right*%
X111225000Y-45305000D03*
%TO.P,J3,3,Pin_3*%
%TO.N,deadman_left*%
X106145000Y-45305000D03*
%TO.P,J3,2,Pin_2*%
%TO.N,start_sig*%
X101065000Y-45305000D03*
D10*
%TO.P,J3,1,Pin_1*%
%TO.N,kill_sig*%
X95985000Y-45305000D03*
%TD*%
D22*
%TO.P,A1,3V3,3.3V*%
%TO.N,+3V3*%
X144785000Y-101940000D03*
%TO.P,A1,5V,5V*%
%TO.N,+5V*%
X144785000Y-76540000D03*
%TO.P,A1,A0,A0*%
%TO.N,/Arduino/A0*%
X144785000Y-96860000D03*
%TO.P,A1,A1,A1*%
%TO.N,/Arduino/A1*%
X144785000Y-94320000D03*
%TO.P,A1,A2,A2*%
%TO.N,/Arduino/A2*%
X144785000Y-91780000D03*
%TO.P,A1,A3,A3*%
%TO.N,/Arduino/A3*%
X144785000Y-89240000D03*
%TO.P,A1,A4,A4/SDA*%
%TO.N,/Arduino/A4{slash}SDA*%
X144785000Y-86700000D03*
%TO.P,A1,A5,A5/SCL*%
%TO.N,/Arduino/A5{slash}SCL*%
X144785000Y-84160000D03*
%TO.P,A1,A6,A6*%
%TO.N,/Arduino/A6*%
X144785000Y-81620000D03*
%TO.P,A1,A7,A7*%
%TO.N,/Arduino/A7*%
X144785000Y-79080000D03*
%TO.P,A1,B0,B0*%
%TO.N,unconnected-(A1-PadB0)*%
X144785000Y-99400000D03*
%TO.P,A1,B1,B1*%
%TO.N,unconnected-(A1-PadB1)*%
X144785000Y-74000000D03*
%TO.P,A1,D0,D0/RX*%
%TO.N,unconnected-(A1-D0{slash}RX-PadD0)*%
X129545000Y-71460000D03*
%TO.P,A1,D1,D1/TX*%
%TO.N,unconnected-(A1-D1{slash}TX-PadD1)*%
X129545000Y-68920000D03*
%TO.P,A1,D2,D2*%
%TO.N,seat_signal*%
X129545000Y-79080000D03*
%TO.P,A1,D3,D3*%
%TO.N,brake_signal*%
X129545000Y-81620000D03*
%TO.P,A1,D4,D4*%
%TO.N,neutral_right*%
X129545000Y-84160000D03*
%TO.P,A1,D5,D5*%
%TO.N,neutral_left*%
X129545000Y-86700000D03*
%TO.P,A1,D6,D6*%
%TO.N,deadman_right*%
X129545000Y-89240000D03*
%TO.P,A1,D7,D7*%
%TO.N,deadman_left*%
X129545000Y-91780000D03*
%TO.P,A1,D8,D8*%
%TO.N,start_sig*%
X129545000Y-94320000D03*
%TO.P,A1,D9,D9*%
%TO.N,kill_sig*%
X129545000Y-96860000D03*
%TO.P,A1,D10,D10*%
%TO.N,/Arduino/CAN_RX*%
X129545000Y-99400000D03*
%TO.P,A1,D11,D11_MOSI*%
%TO.N,/Arduino/CAN_TX*%
X129545000Y-101940000D03*
%TO.P,A1,D12,D12_MISO*%
%TO.N,unconnected-(A1-D12_MISO-PadD12)*%
X129545000Y-104480000D03*
%TO.P,A1,D13,D13_SCK*%
%TO.N,unconnected-(A1-D13_SCK-PadD13)*%
X144785000Y-104480000D03*
D23*
%TO.P,A1,GND1,GND*%
%TO.N,GND*%
X129545000Y-76540000D03*
%TO.P,A1,GND2,GND*%
X144785000Y-71460000D03*
D22*
%TO.P,A1,RST,~{RESET}*%
%TO.N,unconnected-(A1-~{RESET}-PadRST)*%
X129545000Y-74000000D03*
%TO.P,A1,VIN,VIN*%
%TO.N,V_in*%
X144785000Y-68920000D03*
%TD*%
D15*
%TO.P,R2,1*%
%TO.N,seat_signal*%
X52335000Y-75920000D03*
D16*
%TO.P,R2,2*%
%TO.N,GND*%
X52335000Y-86080000D03*
%TD*%
D15*
%TO.P,R7,1*%
%TO.N,deadman_left*%
X97595000Y-75570000D03*
D16*
%TO.P,R7,2*%
%TO.N,GND*%
X97595000Y-85730000D03*
%TD*%
D15*
%TO.P,R6,1*%
%TO.N,deadman_right*%
X88965000Y-75840000D03*
D16*
%TO.P,R6,2*%
%TO.N,GND*%
X88965000Y-86000000D03*
%TD*%
D15*
%TO.P,R4,1*%
%TO.N,neutral_right*%
X70335000Y-75920000D03*
D16*
%TO.P,R4,2*%
%TO.N,GND*%
X70335000Y-86080000D03*
%TD*%
D15*
%TO.P,R3,1*%
%TO.N,brake_signal*%
X61335000Y-75920000D03*
D16*
%TO.P,R3,2*%
%TO.N,GND*%
X61335000Y-86080000D03*
%TD*%
D10*
%TO.P,J8,1,Pin_1*%
%TO.N,/Safety Circuitry/seat_switch*%
X61635000Y-45305000D03*
D11*
%TO.P,J8,2,Pin_2*%
%TO.N,/Safety Circuitry/brake_switch*%
X66715000Y-45305000D03*
%TO.P,J8,3,Pin_3*%
%TO.N,/Safety Circuitry/neutral_right_switch*%
X71795000Y-45305000D03*
%TO.P,J8,4,Pin_4*%
%TO.N,/Safety Circuitry/neutral_left_switch*%
X76875000Y-45305000D03*
%TO.P,J8,5,Pin_5*%
%TO.N,/Safety Circuitry/deadman_right_switch*%
X81955000Y-45305000D03*
%TO.P,J8,6,Pin_6*%
%TO.N,/Safety Circuitry/deadman_left_switch*%
X87035000Y-45305000D03*
%TD*%
D20*
%TO.P,J6,1,Pin_1*%
%TO.N,+5V*%
X183545000Y-41125000D03*
D21*
%TO.P,J6,2,Pin_2*%
X183545000Y-43665000D03*
%TO.P,J6,3,Pin_3*%
%TO.N,+3V3*%
X183545000Y-46205000D03*
%TO.P,J6,4,Pin_4*%
X183545000Y-48745000D03*
%TO.P,J6,5,Pin_5*%
%TO.N,GND*%
X183545000Y-51285000D03*
%TO.P,J6,6,Pin_6*%
X183545000Y-53825000D03*
%TO.P,J6,7,Pin_7*%
X183545000Y-56365000D03*
%TO.P,J6,8,Pin_8*%
X183545000Y-58905000D03*
%TD*%
D24*
%TO.N,GND*%
X153535000Y-111805000D03*
%TO.N,neutral_right*%
X123545000Y-78000000D03*
%TO.N,neutral_left*%
X118195000Y-75350000D03*
%TO.N,deadman_right*%
X113425000Y-73120000D03*
%TO.N,deadman_left*%
X109155000Y-71390000D03*
%TD*%
D25*
%TO.N,GND*%
X153535000Y-109125000D02*
X153535000Y-111805000D01*
X157285000Y-105375000D02*
X153535000Y-109125000D01*
D26*
%TO.N,/Input_Power/V_in_unreg*%
X181080000Y-102305000D02*
X181080000Y-96545000D01*
D25*
%TO.N,/Throttle/Accel_power*%
X241115000Y-69355000D02*
X240555000Y-69915000D01*
X241115000Y-52965000D02*
X241115000Y-69355000D01*
X240555000Y-69915000D02*
X240555000Y-74305000D01*
X237955000Y-49805000D02*
X241115000Y-52965000D01*
%TO.N,/Throttle/Accel_sig*%
X243055000Y-69915000D02*
X243055000Y-74305000D01*
X243115000Y-69855000D02*
X243055000Y-69915000D01*
%TO.N,/Throttle/Accel_GND*%
X245555000Y-69915000D02*
X245555000Y-74305000D01*
X245615000Y-69855000D02*
X245555000Y-69915000D01*
X248115000Y-49805000D02*
X245115000Y-52805000D01*
X245115000Y-52805000D02*
X245115000Y-69355000D01*
X245115000Y-69355000D02*
X245615000Y-69855000D01*
D26*
%TO.N,Net-(D1-A)*%
X184545000Y-79540000D02*
X184545000Y-82920000D01*
%TO.N,V_in*%
X182285000Y-77000000D02*
X178245000Y-81040000D01*
X184545000Y-77000000D02*
X182285000Y-77000000D01*
X174845000Y-81040000D02*
X178245000Y-81040000D01*
%TO.N,/Input_Power/V_in_unreg*%
X178245000Y-90960000D02*
X174845000Y-90960000D01*
X181080000Y-93795000D02*
X178245000Y-90960000D01*
X181080000Y-96545000D02*
X181080000Y-93795000D01*
X181080000Y-96545000D02*
X184545000Y-93080000D01*
D25*
%TO.N,neutral_left*%
X116305000Y-73460000D02*
X118195000Y-75350000D01*
X118195000Y-75350000D02*
X129545000Y-86700000D01*
%TO.N,deadman_right*%
X111225000Y-70920000D02*
X129545000Y-89240000D01*
X111225000Y-45000000D02*
X111225000Y-70920000D01*
%TO.N,deadman_left*%
X109155000Y-71390000D02*
X129545000Y-91780000D01*
X106145000Y-68380000D02*
X109155000Y-71390000D01*
%TO.N,kill_sig*%
X106685000Y-74000000D02*
X129545000Y-96860000D01*
X95985000Y-63440000D02*
X106545000Y-74000000D01*
X95985000Y-45000000D02*
X95985000Y-63440000D01*
X106545000Y-74000000D02*
X106685000Y-74000000D01*
%TO.N,start_sig*%
X101065000Y-65840000D02*
X129545000Y-94320000D01*
X101065000Y-45000000D02*
X101065000Y-65840000D01*
%TO.N,deadman_left*%
X106145000Y-45000000D02*
X106145000Y-68380000D01*
%TO.N,neutral_left*%
X116305000Y-45000000D02*
X116305000Y-73460000D01*
%TO.N,neutral_right*%
X121385000Y-76000000D02*
X129545000Y-84160000D01*
X121385000Y-45000000D02*
X121385000Y-76000000D01*
%TO.N,brake_signal*%
X126465000Y-78540000D02*
X129545000Y-81620000D01*
X126465000Y-45000000D02*
X126465000Y-78540000D01*
%TO.N,seat_signal*%
X131545000Y-77080000D02*
X129545000Y-79080000D01*
X131545000Y-45000000D02*
X131545000Y-77080000D01*
%TO.N,/Arduino/A6*%
X149545000Y-48920000D02*
X149545000Y-76860000D01*
X149545000Y-76860000D02*
X144785000Y-81620000D01*
X145625000Y-45000000D02*
X149545000Y-48920000D01*
%TO.N,/Arduino/A5{slash}SCL*%
X151545000Y-45840000D02*
X151545000Y-77400000D01*
X151545000Y-77400000D02*
X144785000Y-84160000D01*
X150705000Y-45000000D02*
X151545000Y-45840000D01*
D27*
%TO.N,/Arduino/A0*%
X176105000Y-65540000D02*
X144785000Y-96860000D01*
X176105000Y-45000000D02*
X176105000Y-65540000D01*
D25*
%TO.N,/Arduino/A1*%
X171025000Y-68080000D02*
X144785000Y-94320000D01*
X171025000Y-45000000D02*
X171025000Y-68080000D01*
%TO.N,/Arduino/A2*%
X165945000Y-70620000D02*
X144785000Y-91780000D01*
X165945000Y-45000000D02*
X165945000Y-70620000D01*
%TO.N,/Arduino/A3*%
X160865000Y-73160000D02*
X144785000Y-89240000D01*
X160865000Y-45000000D02*
X160865000Y-73160000D01*
D27*
%TO.N,/Arduino/A4{slash}SDA*%
X155785000Y-75700000D02*
X144785000Y-86700000D01*
X155785000Y-45000000D02*
X155785000Y-75700000D01*
D25*
%TO.N,/Arduino/A7*%
X147545000Y-76320000D02*
X144785000Y-79080000D01*
X147545000Y-52000000D02*
X147545000Y-76320000D01*
X140545000Y-45000000D02*
X147545000Y-52000000D01*
%TO.N,/Arduino/kill_vin*%
X93705000Y-107160000D02*
X93705000Y-104000000D01*
X95545000Y-109000000D02*
X93705000Y-107160000D01*
X102545000Y-109000000D02*
X95545000Y-109000000D01*
X103545000Y-108000000D02*
X102545000Y-109000000D01*
X103545000Y-102000000D02*
X103545000Y-108000000D01*
X90545000Y-89000000D02*
X103545000Y-102000000D01*
X56005000Y-89000000D02*
X90545000Y-89000000D01*
X53545000Y-91460000D02*
X56005000Y-89000000D01*
%TO.N,/Arduino/starter_vin*%
X86245000Y-91460000D02*
X98785000Y-104000000D01*
X64545000Y-91460000D02*
X86245000Y-91460000D01*
%TO.N,/Arduino/kill_vout*%
X61625000Y-104000000D02*
X83545000Y-104000000D01*
X53545000Y-95920000D02*
X61625000Y-104000000D01*
X53545000Y-95920000D02*
X52545000Y-96920000D01*
X53545000Y-94000000D02*
X53545000Y-95920000D01*
%TO.N,/Arduino/starter_vout*%
X64545000Y-94000000D02*
X78625000Y-94000000D01*
X78625000Y-94000000D02*
X88625000Y-104000000D01*
X64545000Y-94000000D02*
X64545000Y-96920000D01*
%TO.N,/Throttle/Accel_sig*%
X243115000Y-49885000D02*
X243115000Y-69855000D01*
X243035000Y-49805000D02*
X243115000Y-49885000D01*
D27*
%TO.N,/Safety Circuitry/deadman_left_switch*%
X87035000Y-59700000D02*
X96335000Y-69000000D01*
X96335000Y-69000000D02*
X96965000Y-69000000D01*
X87035000Y-45305000D02*
X87035000Y-59700000D01*
%TO.N,/Safety Circuitry/deadman_right_switch*%
X87798675Y-69270000D02*
X88545000Y-69270000D01*
X81955000Y-63426325D02*
X87798675Y-69270000D01*
X81955000Y-45305000D02*
X81955000Y-63426325D01*
%TO.N,/Safety Circuitry/neutral_left_switch*%
X78588675Y-69270000D02*
X79335000Y-69270000D01*
X76875000Y-67556325D02*
X78588675Y-69270000D01*
X76875000Y-45305000D02*
X76875000Y-67556325D01*
%TO.N,/Safety Circuitry/neutral_right_switch*%
X71795000Y-45305000D02*
X71795000Y-68556325D01*
X71795000Y-68556325D02*
X71081325Y-69270000D01*
X71081325Y-69270000D02*
X70335000Y-69270000D01*
%TO.N,/Safety Circuitry/brake_switch*%
X62291325Y-69270000D02*
X61545000Y-69270000D01*
X66715000Y-64846325D02*
X62291325Y-69270000D01*
X66715000Y-45305000D02*
X66715000Y-64846325D01*
%TO.N,/Safety Circuitry/seat_switch*%
X61635000Y-60723426D02*
X53088426Y-69270000D01*
X61635000Y-45305000D02*
X61635000Y-60723426D01*
X53088426Y-69270000D02*
X52755000Y-69270000D01*
%TO.N,seat_signal*%
X52755000Y-75500000D02*
X52335000Y-75920000D01*
X52755000Y-70540000D02*
X52755000Y-75500000D01*
%TO.N,brake_signal*%
X61545000Y-70540000D02*
X61545000Y-75710000D01*
X61545000Y-75710000D02*
X61335000Y-75920000D01*
%TO.N,neutral_right*%
X70335000Y-70540000D02*
X70335000Y-75920000D01*
%TO.N,neutral_left*%
X79335000Y-75710000D02*
X79545000Y-75920000D01*
X79335000Y-70540000D02*
X79335000Y-75710000D01*
%TO.N,deadman_right*%
X88545000Y-75420000D02*
X88965000Y-75840000D01*
X88545000Y-70540000D02*
X88545000Y-75420000D01*
%TO.N,deadman_left*%
X97595000Y-70900000D02*
X97595000Y-75570000D01*
X96965000Y-70270000D02*
X97595000Y-70900000D01*
%TD*%
M02*
