%TF.GenerationSoftware,KiCad,Pcbnew,7.0.8*%
%TF.CreationDate,2024-12-10T03:26:12-06:00*%
%TF.ProjectId,CANBOARD_REV2,43414e42-4f41-4524-945f-524556322e6b,rev?*%
%TF.SameCoordinates,Original*%
%TF.FileFunction,Soldermask,Bot*%
%TF.FilePolarity,Negative*%
%FSLAX46Y46*%
G04 Gerber Fmt 4.6, Leading zero omitted, Abs format (unit mm)*
G04 Created by KiCad (PCBNEW 7.0.8) date 2024-12-10 03:26:12*
%MOMM*%
%LPD*%
G01*
G04 APERTURE LIST*
G04 Aperture macros list*
%AMRoundRect*
0 Rectangle with rounded corners*
0 $1 Rounding radius*
0 $2 $3 $4 $5 $6 $7 $8 $9 X,Y pos of 4 corners*
0 Add a 4 corners polygon primitive as box body*
4,1,4,$2,$3,$4,$5,$6,$7,$8,$9,$2,$3,0*
0 Add four circle primitives for the rounded corners*
1,1,$1+$1,$2,$3*
1,1,$1+$1,$4,$5*
1,1,$1+$1,$6,$7*
1,1,$1+$1,$8,$9*
0 Add four rect primitives between the rounded corners*
20,1,$1+$1,$2,$3,$4,$5,0*
20,1,$1+$1,$4,$5,$6,$7,0*
20,1,$1+$1,$6,$7,$8,$9,0*
20,1,$1+$1,$8,$9,$2,$3,0*%
G04 Aperture macros list end*
%ADD10R,2.600000X2.600000*%
%ADD11C,2.600000*%
%ADD12R,1.800000X1.800000*%
%ADD13C,1.800000*%
%ADD14RoundRect,0.750000X0.750000X-1.250000X0.750000X1.250000X-0.750000X1.250000X-0.750000X-1.250000X0*%
%ADD15C,1.600000*%
%ADD16O,1.600000X1.600000*%
%ADD17R,1.500000X1.050000*%
%ADD18O,1.500000X1.050000*%
%ADD19C,2.400000*%
%ADD20R,1.700000X1.700000*%
%ADD21O,1.700000X1.700000*%
%ADD22C,1.727200*%
%ADD23R,1.727200X1.727200*%
G04 APERTURE END LIST*
D10*
%TO.C,J7*%
X176000000Y-102305000D03*
D11*
X181080000Y-102305000D03*
%TD*%
D12*
%TO.C,RV1*%
X240555000Y-74305000D03*
D13*
X243055000Y-74305000D03*
X245555000Y-74305000D03*
D14*
X238655000Y-67305000D03*
X247455000Y-67305000D03*
%TD*%
D15*
%TO.C,R9*%
X52545000Y-107080000D03*
D16*
X52545000Y-96920000D03*
%TD*%
D15*
%TO.C,R8*%
X64545000Y-107080000D03*
D16*
X64545000Y-96920000D03*
%TD*%
D17*
%TO.C,Q8*%
X53545000Y-94000000D03*
D18*
X53545000Y-92730000D03*
X53545000Y-91460000D03*
%TD*%
D17*
%TO.C,Q7*%
X64545000Y-94000000D03*
D18*
X64545000Y-92730000D03*
X64545000Y-91460000D03*
%TD*%
D17*
%TO.C,Q6*%
X96965000Y-70270000D03*
D18*
X96965000Y-69000000D03*
X96965000Y-67730000D03*
%TD*%
D17*
%TO.C,Q5*%
X88545000Y-70540000D03*
D18*
X88545000Y-69270000D03*
X88545000Y-68000000D03*
%TD*%
D17*
%TO.C,Q4*%
X79335000Y-70540000D03*
D18*
X79335000Y-69270000D03*
X79335000Y-68000000D03*
%TD*%
D17*
%TO.C,Q3*%
X70335000Y-70540000D03*
D18*
X70335000Y-69270000D03*
X70335000Y-68000000D03*
%TD*%
D17*
%TO.C,Q2*%
X61545000Y-70540000D03*
D18*
X61545000Y-69270000D03*
X61545000Y-68000000D03*
%TD*%
%TO.C,Q1*%
X52755000Y-68000000D03*
X52755000Y-69270000D03*
D17*
X52755000Y-70540000D03*
%TD*%
D10*
%TO.C,J10*%
X83545000Y-104000000D03*
D11*
X88625000Y-104000000D03*
X93705000Y-104000000D03*
X98785000Y-104000000D03*
%TD*%
D19*
%TO.C,F1*%
X174845000Y-90960000D03*
X174845000Y-81040000D03*
X178245000Y-90960000D03*
X178245000Y-81040000D03*
%TD*%
D10*
%TO.C,J4*%
X248115000Y-49805000D03*
D11*
X243035000Y-49805000D03*
X237955000Y-49805000D03*
%TD*%
D12*
%TO.C,D1*%
X184545000Y-77000000D03*
D13*
X184545000Y-79540000D03*
%TD*%
D15*
%TO.C,R1*%
X184545000Y-93080000D03*
D16*
X184545000Y-82920000D03*
%TD*%
D20*
%TO.C,J1*%
X154745000Y-105375000D03*
D21*
X157285000Y-105375000D03*
X159825000Y-105375000D03*
X162365000Y-105375000D03*
%TD*%
D15*
%TO.C,R5*%
X79545000Y-75920000D03*
D16*
X79545000Y-86080000D03*
%TD*%
D11*
%TO.C,J2*%
X176105000Y-45000000D03*
X171025000Y-45000000D03*
X165945000Y-45000000D03*
X160865000Y-45000000D03*
X155785000Y-45000000D03*
X150705000Y-45000000D03*
X145625000Y-45000000D03*
D10*
X140545000Y-45000000D03*
%TD*%
D11*
%TO.C,J3*%
X131545000Y-45305000D03*
X126465000Y-45305000D03*
X121385000Y-45305000D03*
X116305000Y-45305000D03*
X111225000Y-45305000D03*
X106145000Y-45305000D03*
X101065000Y-45305000D03*
D10*
X95985000Y-45305000D03*
%TD*%
D13*
%TO.C,A1*%
X129545000Y-66380000D03*
X129545000Y-107020000D03*
X144785000Y-66380000D03*
X144785000Y-107020000D03*
D22*
X144785000Y-101940000D03*
X144785000Y-76540000D03*
X144785000Y-96860000D03*
X144785000Y-94320000D03*
X144785000Y-91780000D03*
X144785000Y-89240000D03*
X144785000Y-86700000D03*
X144785000Y-84160000D03*
X144785000Y-81620000D03*
X144785000Y-79080000D03*
X144785000Y-99400000D03*
X144785000Y-74000000D03*
X129545000Y-71460000D03*
X129545000Y-68920000D03*
X129545000Y-79080000D03*
X129545000Y-81620000D03*
X129545000Y-84160000D03*
X129545000Y-86700000D03*
X129545000Y-89240000D03*
X129545000Y-91780000D03*
X129545000Y-94320000D03*
X129545000Y-96860000D03*
X129545000Y-99400000D03*
X129545000Y-101940000D03*
X129545000Y-104480000D03*
X144785000Y-104480000D03*
D23*
X129545000Y-76540000D03*
X144785000Y-71460000D03*
D22*
X129545000Y-74000000D03*
X144785000Y-68920000D03*
%TD*%
D15*
%TO.C,R2*%
X52335000Y-75920000D03*
D16*
X52335000Y-86080000D03*
%TD*%
D15*
%TO.C,R7*%
X97595000Y-75570000D03*
D16*
X97595000Y-85730000D03*
%TD*%
D15*
%TO.C,R6*%
X88965000Y-75840000D03*
D16*
X88965000Y-86000000D03*
%TD*%
D15*
%TO.C,R4*%
X70335000Y-75920000D03*
D16*
X70335000Y-86080000D03*
%TD*%
D15*
%TO.C,R3*%
X61335000Y-75920000D03*
D16*
X61335000Y-86080000D03*
%TD*%
D10*
%TO.C,J8*%
X61635000Y-45305000D03*
D11*
X66715000Y-45305000D03*
X71795000Y-45305000D03*
X76875000Y-45305000D03*
X81955000Y-45305000D03*
X87035000Y-45305000D03*
%TD*%
D20*
%TO.C,J6*%
X183545000Y-41125000D03*
D21*
X183545000Y-43665000D03*
X183545000Y-46205000D03*
X183545000Y-48745000D03*
X183545000Y-51285000D03*
X183545000Y-53825000D03*
X183545000Y-56365000D03*
X183545000Y-58905000D03*
%TD*%
M02*
