%TF.GenerationSoftware,KiCad,Pcbnew,7.0.8*%
%TF.CreationDate,2024-04-24T16:05:49-06:00*%
%TF.ProjectId,Motherboard23-24,4d6f7468-6572-4626-9f61-726432332d32,rev?*%
%TF.SameCoordinates,Original*%
%TF.FileFunction,Soldermask,Bot*%
%TF.FilePolarity,Negative*%
%FSLAX46Y46*%
G04 Gerber Fmt 4.6, Leading zero omitted, Abs format (unit mm)*
G04 Created by KiCad (PCBNEW 7.0.8) date 2024-04-24 16:05:49*
%MOMM*%
%LPD*%
G01*
G04 APERTURE LIST*
%ADD10R,2.600000X2.600000*%
%ADD11C,2.600000*%
%ADD12C,2.400000*%
%ADD13C,2.500000*%
%ADD14C,2.100000*%
%ADD15C,3.450000*%
%ADD16C,1.600000*%
%ADD17O,1.600000X1.600000*%
%ADD18R,1.600000X1.600000*%
%ADD19C,2.083600*%
%ADD20O,2.400000X2.400000*%
%ADD21R,1.170000X1.170000*%
%ADD22C,1.170000*%
%ADD23R,1.800000X1.800000*%
%ADD24C,1.800000*%
%ADD25R,2.400000X2.400000*%
%ADD26R,1.700000X1.700000*%
%ADD27O,1.700000X1.700000*%
G04 APERTURE END LIST*
D10*
%TO.C,J4*%
X36000000Y-29000000D03*
D11*
X41080000Y-29000000D03*
X46160000Y-29000000D03*
%TD*%
D12*
%TO.C,F5*%
X207200000Y-119827500D03*
X207200000Y-129747500D03*
X203800000Y-119827500D03*
X203800000Y-129747500D03*
%TD*%
D10*
%TO.C,J3*%
X174295000Y-111195000D03*
D11*
X169215000Y-111195000D03*
%TD*%
D10*
%TO.C,J17*%
X122500000Y-28000000D03*
D11*
X127580000Y-28000000D03*
%TD*%
D13*
%TO.C,REF\u002A\u002A*%
X247500000Y-137500000D03*
%TD*%
D14*
%TO.C,J15*%
X39250000Y-116000000D03*
X53250000Y-129000000D03*
D15*
X55250000Y-122500000D03*
X45750000Y-130950000D03*
X45750000Y-114050000D03*
X37350000Y-122500000D03*
X45350000Y-122500000D03*
%TD*%
D16*
%TO.C,R8*%
X64360000Y-40170000D03*
D17*
X64360000Y-50330000D03*
%TD*%
D16*
%TO.C,R16*%
X76830000Y-68250000D03*
D17*
X86990000Y-68250000D03*
%TD*%
D13*
%TO.C,REF\u002A\u002A*%
X247500000Y-22500000D03*
%TD*%
D16*
%TO.C,R22*%
X31280000Y-63420000D03*
D17*
X41440000Y-63420000D03*
%TD*%
D10*
%TO.C,J24*%
X181335000Y-26950000D03*
D11*
X186415000Y-26950000D03*
%TD*%
D16*
%TO.C,R29*%
X54360000Y-64170000D03*
D17*
X64520000Y-64170000D03*
%TD*%
D10*
%TO.C,J21*%
X235500000Y-27000000D03*
D11*
X240580000Y-27000000D03*
%TD*%
D10*
%TO.C,J10*%
X52250000Y-29000000D03*
D11*
X57330000Y-29000000D03*
X62410000Y-29000000D03*
X67490000Y-29000000D03*
%TD*%
D14*
%TO.C,J16*%
X67500000Y-116000000D03*
X81500000Y-129000000D03*
D15*
X83500000Y-122500000D03*
X74000000Y-130950000D03*
X74000000Y-114050000D03*
X65600000Y-122500000D03*
X73600000Y-122500000D03*
%TD*%
D16*
%TO.C,R28*%
X54500000Y-55000000D03*
D17*
X64660000Y-55000000D03*
%TD*%
D13*
%TO.C,REF\u002A\u002A*%
X27500000Y-22500000D03*
%TD*%
D10*
%TO.C,J2*%
X156545000Y-111695000D03*
D11*
X151465000Y-111695000D03*
%TD*%
D10*
%TO.C,J19*%
X122250000Y-67740000D03*
D11*
X122250000Y-62660000D03*
X122250000Y-57580000D03*
X122250000Y-52500000D03*
X122250000Y-47420000D03*
X122250000Y-42340000D03*
%TD*%
D18*
%TO.C,C1*%
X36860000Y-40170000D03*
D16*
X36860000Y-42670000D03*
%TD*%
D12*
%TO.C,F1*%
X153700000Y-120790000D03*
X153700000Y-130710000D03*
X150300000Y-120790000D03*
X150300000Y-130710000D03*
%TD*%
%TO.C,F2*%
X171450000Y-120502500D03*
X171450000Y-130422500D03*
X168050000Y-120502500D03*
X168050000Y-130422500D03*
%TD*%
D10*
%TO.C,J1*%
X168805000Y-69700000D03*
D11*
X168805000Y-64620000D03*
X168805000Y-59540000D03*
X168805000Y-54460000D03*
X168805000Y-49380000D03*
X168805000Y-44300000D03*
%TD*%
D10*
%TO.C,J8*%
X193670000Y-27000000D03*
D11*
X198750000Y-27000000D03*
X203830000Y-27000000D03*
X208910000Y-27000000D03*
X213990000Y-27000000D03*
X219070000Y-27000000D03*
X224150000Y-27000000D03*
X229230000Y-27000000D03*
%TD*%
D19*
%TO.C,U5*%
X236720000Y-39380000D03*
X234180000Y-39380000D03*
X231640000Y-39380000D03*
X229100000Y-39380000D03*
X226560000Y-39380000D03*
X224020000Y-39380000D03*
X235069000Y-53223000D03*
X235069000Y-50683000D03*
X235069000Y-63637000D03*
X235069000Y-61097000D03*
X237990000Y-41920000D03*
X237990000Y-44460000D03*
X237990000Y-47000000D03*
X237990000Y-49540000D03*
X237990000Y-52080000D03*
X237990000Y-54620000D03*
X237990000Y-57160000D03*
X237990000Y-59700000D03*
X237990000Y-62240000D03*
X237990000Y-64780000D03*
X237990000Y-67320000D03*
X237990000Y-69860000D03*
X222750000Y-69860000D03*
X222750000Y-67320000D03*
X222750000Y-64780000D03*
X222750000Y-62240000D03*
X222750000Y-59700000D03*
X222750000Y-57160000D03*
X222750000Y-54620000D03*
X222750000Y-52080000D03*
X222750000Y-49540000D03*
X222750000Y-47000000D03*
X222750000Y-44460000D03*
X222750000Y-41920000D03*
%TD*%
D16*
%TO.C,R13*%
X61360000Y-50320000D03*
D17*
X61360000Y-40160000D03*
%TD*%
D16*
%TO.C,R15*%
X76830000Y-71250000D03*
D17*
X86990000Y-71250000D03*
%TD*%
D16*
%TO.C,R7*%
X47860000Y-40090000D03*
D17*
X47860000Y-50250000D03*
%TD*%
D10*
%TO.C,J6*%
X210045000Y-110695000D03*
D11*
X204965000Y-110695000D03*
%TD*%
D16*
%TO.C,R1*%
X157250000Y-135080000D03*
D17*
X157250000Y-124920000D03*
%TD*%
D16*
%TO.C,R23*%
X41440000Y-57170000D03*
D17*
X31280000Y-57170000D03*
%TD*%
D16*
%TO.C,R27*%
X86990000Y-62250000D03*
D17*
X76830000Y-62250000D03*
%TD*%
D16*
%TO.C,R4*%
X192250000Y-134750000D03*
D17*
X192250000Y-124590000D03*
%TD*%
D12*
%TO.C,F3*%
X238950000Y-108752500D03*
X238950000Y-118672500D03*
X235550000Y-108752500D03*
X235550000Y-118672500D03*
%TD*%
%TO.C,TH2*%
X224235000Y-124000000D03*
D20*
X229315000Y-124000000D03*
%TD*%
D16*
%TO.C,R19*%
X41490000Y-60300000D03*
D17*
X31330000Y-60300000D03*
%TD*%
D21*
%TO.C,U3*%
X66610000Y-55380000D03*
D22*
X66610000Y-57920000D03*
X66610000Y-60460000D03*
X66610000Y-63000000D03*
X66610000Y-65540000D03*
X66610000Y-68080000D03*
X66610000Y-70620000D03*
X74550000Y-70620000D03*
X74550000Y-68080000D03*
X74550000Y-65540000D03*
X74550000Y-63000000D03*
X74550000Y-60460000D03*
X74550000Y-57920000D03*
X74550000Y-55380000D03*
%TD*%
D16*
%TO.C,R9*%
X41860000Y-50294888D03*
D17*
X41860000Y-40134888D03*
%TD*%
D19*
%TO.C,U2*%
X198450000Y-40090000D03*
X195910000Y-40090000D03*
X193370000Y-40090000D03*
X190830000Y-40090000D03*
X188290000Y-40090000D03*
X185750000Y-40090000D03*
X196799000Y-53933000D03*
X196799000Y-51393000D03*
X196799000Y-64347000D03*
X196799000Y-61807000D03*
X199720000Y-42630000D03*
X199720000Y-45170000D03*
X199720000Y-47710000D03*
X199720000Y-50250000D03*
X199720000Y-52790000D03*
X199720000Y-55330000D03*
X199720000Y-57870000D03*
X199720000Y-60410000D03*
X199720000Y-62950000D03*
X199720000Y-65490000D03*
X199720000Y-68030000D03*
X199720000Y-70570000D03*
X184480000Y-70570000D03*
X184480000Y-68030000D03*
X184480000Y-65490000D03*
X184480000Y-62950000D03*
X184480000Y-60410000D03*
X184480000Y-57870000D03*
X184480000Y-55330000D03*
X184480000Y-52790000D03*
X184480000Y-50250000D03*
X184480000Y-47710000D03*
X184480000Y-45170000D03*
X184480000Y-42630000D03*
%TD*%
D10*
%TO.C,J23*%
X164250000Y-27500000D03*
D11*
X169330000Y-27500000D03*
X174410000Y-27500000D03*
%TD*%
D16*
%TO.C,R20*%
X31330000Y-66420000D03*
D17*
X41490000Y-66420000D03*
%TD*%
D16*
%TO.C,R18*%
X76750000Y-56250000D03*
D17*
X86910000Y-56250000D03*
%TD*%
D16*
%TO.C,R2*%
X175000000Y-135830000D03*
D17*
X175000000Y-125670000D03*
%TD*%
D23*
%TO.C,D2*%
X176750000Y-119210000D03*
D24*
X176750000Y-121750000D03*
%TD*%
D14*
%TO.C,J13*%
X67500000Y-90250000D03*
X81500000Y-103250000D03*
D15*
X83500000Y-96750000D03*
X74000000Y-105200000D03*
X74000000Y-88300000D03*
X65600000Y-96750000D03*
X73600000Y-96750000D03*
%TD*%
D23*
%TO.C,D3*%
X193750000Y-118975000D03*
D24*
X193750000Y-121515000D03*
%TD*%
D23*
%TO.C,D5*%
X244250000Y-107462500D03*
D24*
X244250000Y-110002500D03*
%TD*%
D23*
%TO.C,D1*%
X159000000Y-119250000D03*
D24*
X159000000Y-121790000D03*
%TD*%
D10*
%TO.C,J11*%
X73670000Y-28250000D03*
D11*
X78750000Y-28250000D03*
X83830000Y-28250000D03*
X88910000Y-28250000D03*
X93990000Y-28250000D03*
X99070000Y-28250000D03*
%TD*%
D16*
%TO.C,R24*%
X54420000Y-58000000D03*
D17*
X64580000Y-58000000D03*
%TD*%
D16*
%TO.C,R30*%
X90500000Y-49080000D03*
D17*
X90500000Y-38920000D03*
%TD*%
D25*
%TO.C,D9*%
X223660000Y-129750000D03*
D20*
X228740000Y-129750000D03*
%TD*%
D16*
%TO.C,R12*%
X44860000Y-50320000D03*
D17*
X44860000Y-40160000D03*
%TD*%
D18*
%TO.C,C3*%
X69110000Y-40214888D03*
D16*
X69110000Y-42714888D03*
%TD*%
D14*
%TO.C,J12*%
X39250000Y-90300000D03*
X53250000Y-103300000D03*
D15*
X55250000Y-96800000D03*
X45750000Y-105250000D03*
X45750000Y-88350000D03*
X37350000Y-96800000D03*
X45350000Y-96800000D03*
%TD*%
D16*
%TO.C,R32*%
X216080000Y-42500000D03*
D17*
X205920000Y-42500000D03*
%TD*%
D10*
%TO.C,J7*%
X135250000Y-27750000D03*
D11*
X140330000Y-27750000D03*
X145410000Y-27750000D03*
%TD*%
D12*
%TO.C,F4*%
X188450000Y-120290000D03*
X188450000Y-130210000D03*
X185050000Y-120290000D03*
X185050000Y-130210000D03*
%TD*%
D16*
%TO.C,R6*%
X32360000Y-40134888D03*
D17*
X32360000Y-50294888D03*
%TD*%
D16*
%TO.C,R25*%
X64580000Y-61000000D03*
D17*
X54420000Y-61000000D03*
%TD*%
D21*
%TO.C,U4*%
X43640000Y-55300000D03*
D22*
X43640000Y-57840000D03*
X43640000Y-60380000D03*
X43640000Y-62920000D03*
X43640000Y-65460000D03*
X43640000Y-68000000D03*
X43640000Y-70540000D03*
X51580000Y-70540000D03*
X51580000Y-68000000D03*
X51580000Y-65460000D03*
X51580000Y-62920000D03*
X51580000Y-60380000D03*
X51580000Y-57840000D03*
X51580000Y-55300000D03*
%TD*%
D16*
%TO.C,R3*%
X242750000Y-123292500D03*
D17*
X242750000Y-113132500D03*
%TD*%
D18*
%TO.C,C2*%
X53110000Y-40214888D03*
D16*
X53110000Y-42714888D03*
%TD*%
%TO.C,R26*%
X86990000Y-65250000D03*
D17*
X76830000Y-65250000D03*
%TD*%
D19*
%TO.C,U1*%
X152660000Y-40000000D03*
X150120000Y-40000000D03*
X147580000Y-40000000D03*
X145040000Y-40000000D03*
X142500000Y-40000000D03*
X139960000Y-40000000D03*
X151009000Y-53843000D03*
X151009000Y-51303000D03*
X151009000Y-64257000D03*
X151009000Y-61717000D03*
X153930000Y-42540000D03*
X153930000Y-45080000D03*
X153930000Y-47620000D03*
X153930000Y-50160000D03*
X153930000Y-52700000D03*
X153930000Y-55240000D03*
X153930000Y-57780000D03*
X153930000Y-60320000D03*
X153930000Y-62860000D03*
X153930000Y-65400000D03*
X153930000Y-67940000D03*
X153930000Y-70480000D03*
X138690000Y-70480000D03*
X138690000Y-67940000D03*
X138690000Y-65400000D03*
X138690000Y-62860000D03*
X138690000Y-60320000D03*
X138690000Y-57780000D03*
X138690000Y-55240000D03*
X138690000Y-52700000D03*
X138690000Y-50160000D03*
X138690000Y-47620000D03*
X138690000Y-45080000D03*
X138690000Y-42540000D03*
%TD*%
D16*
%TO.C,R5*%
X210750000Y-134330000D03*
D17*
X210750000Y-124170000D03*
%TD*%
D26*
%TO.C,Q1*%
X56360000Y-68420000D03*
D27*
X58900000Y-68420000D03*
X61440000Y-68420000D03*
%TD*%
D16*
%TO.C,R14*%
X76860000Y-50240000D03*
D17*
X76860000Y-40080000D03*
%TD*%
D16*
%TO.C,R31*%
X216080000Y-39500000D03*
D17*
X205920000Y-39500000D03*
%TD*%
D16*
%TO.C,R11*%
X73860000Y-50250000D03*
D17*
X73860000Y-40090000D03*
%TD*%
D10*
%TO.C,J9*%
X223955000Y-111305000D03*
D11*
X229035000Y-111305000D03*
%TD*%
D16*
%TO.C,R17*%
X76750000Y-59250000D03*
D17*
X86910000Y-59250000D03*
%TD*%
D26*
%TO.C,Q2*%
X99250000Y-35750000D03*
D27*
X99250000Y-38290000D03*
X99250000Y-40830000D03*
%TD*%
D25*
%TO.C,D8*%
X223660000Y-118750000D03*
D20*
X228740000Y-118750000D03*
%TD*%
D23*
%TO.C,D4*%
X212500000Y-118475000D03*
D24*
X212500000Y-121015000D03*
%TD*%
D10*
%TO.C,J18*%
X152335000Y-26950000D03*
D11*
X157415000Y-26950000D03*
%TD*%
D16*
%TO.C,R33*%
X216080000Y-45250000D03*
D17*
X205920000Y-45250000D03*
%TD*%
D10*
%TO.C,J5*%
X191295000Y-111195000D03*
D11*
X186215000Y-111195000D03*
%TD*%
D13*
%TO.C,REF\u002A\u002A*%
X27500000Y-137500000D03*
%TD*%
D10*
%TO.C,J14*%
X105750000Y-28250000D03*
D11*
X110830000Y-28250000D03*
X115910000Y-28250000D03*
%TD*%
D16*
%TO.C,R10*%
X58360000Y-50330000D03*
D17*
X58360000Y-40170000D03*
%TD*%
D16*
%TO.C,R21*%
X41460000Y-69420000D03*
D17*
X31300000Y-69420000D03*
%TD*%
M02*
