M48
; DRILL file {KiCad 7.0.8} date Wed Apr 24 16:04:09 2024
; FORMAT={-:-/ absolute / inch / decimal}
; #@! TF.CreationDate,2024-04-24T16:04:09-06:00
; #@! TF.GenerationSoftware,Kicad,Pcbnew,7.0.8
; #@! TF.FileFunction,Plated,1,2,PTH
FMAT,2
INCH
; #@! TA.AperFunction,Plated,PTH,ComponentDrill
T1C0.0303
; #@! TA.AperFunction,Plated,PTH,ComponentDrill
T2C0.0315
; #@! TA.AperFunction,Plated,PTH,ComponentDrill
T3C0.0354
; #@! TA.AperFunction,Plated,PTH,ComponentDrill
T4C0.0394
; #@! TA.AperFunction,Plated,PTH,ComponentDrill
T5C0.0400
; #@! TA.AperFunction,Plated,PTH,ComponentDrill
T6C0.0472
; #@! TA.AperFunction,Plated,PTH,ComponentDrill
T7C0.0512
; #@! TA.AperFunction,Plated,PTH,ComponentDrill
T8C0.0630
; #@! TA.AperFunction,Plated,PTH,ComponentDrill
T9C0.0906
%
G90
G05
T1
X1.7181Y-2.1772
X1.7181Y-2.2772
X1.7181Y-2.3772
X1.7181Y-2.4772
X1.7181Y-2.5772
X1.7181Y-2.6772
X1.7181Y-2.7772
X2.0307Y-2.1772
X2.0307Y-2.2772
X2.0307Y-2.3772
X2.0307Y-2.4772
X2.0307Y-2.5772
X2.0307Y-2.6772
X2.0307Y-2.7772
X2.6224Y-2.1803
X2.6224Y-2.2803
X2.6224Y-2.3803
X2.6224Y-2.4803
X2.6224Y-2.5803
X2.6224Y-2.6803
X2.6224Y-2.7803
X2.935Y-2.1803
X2.935Y-2.2803
X2.935Y-2.3803
X2.935Y-2.4803
X2.935Y-2.5803
X2.935Y-2.6803
X2.935Y-2.7803
T2
X1.2315Y-2.2508
X1.2315Y-2.4969
X1.2323Y-2.7331
X1.2335Y-2.374
X1.2335Y-2.615
X1.274Y-1.5801
X1.274Y-1.9801
X1.4512Y-1.5815
X1.4512Y-1.6799
X1.6315Y-2.2508
X1.6315Y-2.4969
X1.6323Y-2.7331
X1.6335Y-2.374
X1.6335Y-2.615
X1.648Y-1.5801
X1.648Y-1.9801
X1.7661Y-1.5811
X1.7661Y-1.9811
X1.8843Y-1.5783
X1.8843Y-1.9783
X2.0909Y-1.5833
X2.0909Y-1.6817
X2.1402Y-2.5264
X2.1425Y-2.2835
X2.1425Y-2.4016
X2.1457Y-2.1654
X2.2976Y-1.5815
X2.2976Y-1.9815
X2.4157Y-1.5811
X2.4157Y-1.9811
X2.5339Y-1.5815
X2.5339Y-1.9815
X2.5402Y-2.5264
X2.5425Y-2.2835
X2.5425Y-2.4016
X2.5457Y-2.1654
X2.7209Y-1.5833
X2.7209Y-1.6817
X2.9079Y-1.5783
X2.9079Y-1.9783
X3.0217Y-2.2146
X3.0217Y-2.3327
X3.0248Y-2.4508
X3.0248Y-2.5689
X3.0248Y-2.687
X3.0248Y-2.8051
X3.026Y-1.578
X3.026Y-1.978
X3.4217Y-2.2146
X3.4217Y-2.3327
X3.4248Y-2.4508
X3.4248Y-2.5689
X3.4248Y-2.687
X3.4248Y-2.8051
X3.563Y-1.5323
X3.563Y-1.9323
X6.1909Y-4.9181
X6.1909Y-5.3181
X6.8898Y-4.9476
X6.8898Y-5.3476
X7.5689Y-4.9051
X7.5689Y-5.3051
X8.1071Y-1.5551
X8.1071Y-1.6732
X8.1071Y-1.7815
X8.2972Y-4.8886
X8.2972Y-5.2886
X8.5071Y-1.5551
X8.5071Y-1.6732
X8.5071Y-1.7815
X9.5571Y-4.454
X9.5571Y-4.854
T3
X6.2598Y-4.6949
X6.2598Y-4.7949
X6.9587Y-4.6933
X6.9587Y-4.7933
X7.628Y-4.6841
X7.628Y-4.7841
X8.3661Y-4.6644
X8.3661Y-4.7644
X9.6161Y-4.2308
X9.6161Y-4.3308
T4
X2.2189Y-2.6937
X2.3189Y-2.6937
X2.4189Y-2.6937
X3.9075Y-1.4075
X3.9075Y-1.5075
X3.9075Y-1.6075
T5
X5.4602Y-1.6748
X5.4602Y-1.7748
X5.4602Y-1.8748
X5.4602Y-1.9748
X5.4602Y-2.0748
X5.4602Y-2.1748
X5.4602Y-2.2748
X5.4602Y-2.3748
X5.4602Y-2.4748
X5.4602Y-2.5748
X5.4602Y-2.6748
X5.4602Y-2.7748
X5.5102Y-1.5748
X5.6102Y-1.5748
X5.7102Y-1.5748
X5.8102Y-1.5748
X5.9102Y-1.5748
X5.9452Y-2.0198
X5.9452Y-2.1198
X5.9452Y-2.4298
X5.9452Y-2.5298
X6.0102Y-1.5748
X6.0602Y-1.6748
X6.0602Y-1.7748
X6.0602Y-1.8748
X6.0602Y-1.9748
X6.0602Y-2.0748
X6.0602Y-2.1748
X6.0602Y-2.2748
X6.0602Y-2.3748
X6.0602Y-2.4748
X6.0602Y-2.5748
X6.0602Y-2.6748
X6.0602Y-2.7748
X7.263Y-1.6783
X7.263Y-1.7783
X7.263Y-1.8783
X7.263Y-1.9783
X7.263Y-2.0783
X7.263Y-2.1783
X7.263Y-2.2783
X7.263Y-2.3783
X7.263Y-2.4783
X7.263Y-2.5783
X7.263Y-2.6783
X7.263Y-2.7783
X7.313Y-1.5783
X7.413Y-1.5783
X7.513Y-1.5783
X7.613Y-1.5783
X7.713Y-1.5783
X7.748Y-2.0233
X7.748Y-2.1233
X7.748Y-2.4333
X7.748Y-2.5333
X7.813Y-1.5783
X7.863Y-1.6783
X7.863Y-1.7783
X7.863Y-1.8783
X7.863Y-1.9783
X7.863Y-2.0783
X7.863Y-2.1783
X7.863Y-2.2783
X7.863Y-2.3783
X7.863Y-2.4783
X7.863Y-2.5783
X7.863Y-2.6783
X7.863Y-2.7783
X8.7697Y-1.6504
X8.7697Y-1.7504
X8.7697Y-1.8504
X8.7697Y-1.9504
X8.7697Y-2.0504
X8.7697Y-2.1504
X8.7697Y-2.2504
X8.7697Y-2.3504
X8.7697Y-2.4504
X8.7697Y-2.5504
X8.7697Y-2.6504
X8.7697Y-2.7504
X8.8197Y-1.5504
X8.9197Y-1.5504
X9.0197Y-1.5504
X9.1197Y-1.5504
X9.2197Y-1.5504
X9.2547Y-1.9954
X9.2547Y-2.0954
X9.2547Y-2.4054
X9.2547Y-2.5054
X9.3197Y-1.5504
X9.3697Y-1.6504
X9.3697Y-1.7504
X9.3697Y-1.8504
X9.3697Y-1.9504
X9.3697Y-2.0504
X9.3697Y-2.1504
X9.3697Y-2.2504
X9.3697Y-2.3504
X9.3697Y-2.4504
X9.3697Y-2.5504
X9.3697Y-2.6504
X9.3697Y-2.7504
T6
X8.8055Y-4.6752
X8.8055Y-5.1083
X8.8281Y-4.8819
X9.0055Y-4.6752
X9.0055Y-5.1083
X9.0281Y-4.8819
T7
X1.4173Y-1.1417
X1.6173Y-1.1417
X1.8173Y-1.1417
X2.0571Y-1.1417
X2.2571Y-1.1417
X2.4571Y-1.1417
X2.6571Y-1.1417
X2.9004Y-1.1122
X3.1004Y-1.1122
X3.3004Y-1.1122
X3.5004Y-1.1122
X3.7004Y-1.1122
X3.9004Y-1.1122
X4.1634Y-1.1122
X4.3634Y-1.1122
X4.5634Y-1.1122
X4.813Y-1.6669
X4.813Y-1.8669
X4.813Y-2.0669
X4.813Y-2.2669
X4.813Y-2.4669
X4.813Y-2.6669
X4.8228Y-1.1024
X5.0228Y-1.1024
X5.3248Y-1.0925
X5.5248Y-1.0925
X5.7248Y-1.0925
X5.9632Y-4.3974
X5.9974Y-1.061
X6.1632Y-4.3974
X6.1974Y-1.061
X6.4665Y-1.0827
X6.6459Y-1.7441
X6.6459Y-1.9441
X6.6459Y-2.1441
X6.6459Y-2.3441
X6.6459Y-2.5441
X6.6459Y-2.7441
X6.662Y-4.3778
X6.6665Y-1.0827
X6.862Y-4.3778
X6.8665Y-1.0827
X7.1392Y-1.061
X7.3313Y-4.3778
X7.3392Y-1.061
X7.5313Y-4.3778
X7.6248Y-1.063
X7.8248Y-1.063
X8.0248Y-1.063
X8.0695Y-4.3581
X8.2248Y-1.063
X8.2695Y-4.3581
X8.4248Y-1.063
X8.6248Y-1.063
X8.8171Y-4.3821
X8.8248Y-1.063
X9.0171Y-4.3821
X9.0248Y-1.063
X9.2717Y-1.063
X9.4717Y-1.063
T8
X5.9173Y-4.7555
X5.9173Y-5.1461
X6.0512Y-4.7555
X6.0512Y-5.1461
X6.6161Y-4.7442
X6.6161Y-5.1347
X6.75Y-4.7442
X6.75Y-5.1347
X7.2854Y-4.7358
X7.2854Y-5.1264
X7.4193Y-4.7358
X7.4193Y-5.1264
X8.0236Y-4.7176
X8.0236Y-5.1082
X8.1575Y-4.7176
X8.1575Y-5.1082
X9.2736Y-4.2816
X9.2736Y-4.6721
X9.4075Y-4.2816
X9.4075Y-4.6721
T9
X1.4705Y-3.811
X1.4705Y-4.8228
X1.7854Y-3.811
X1.7854Y-4.8228
X1.8012Y-3.4783
X1.8012Y-4.1437
X1.8012Y-4.4902
X1.8012Y-5.1555
X2.1752Y-3.811
X2.1752Y-4.8228
X2.5827Y-3.8091
X2.5827Y-4.8228
X2.8976Y-3.8091
X2.8976Y-4.8228
X2.9134Y-3.4764
X2.9134Y-4.1417
X2.9134Y-4.4902
X2.9134Y-5.1555
X3.2874Y-3.8091
X3.2874Y-4.8228
T0
M30
