M48
; DRILL file {KiCad (5.1.9)-1} date 01/30/23 16:09:10
; FORMAT={-:-/ absolute / inch / decimal}
; #@! TF.CreationDate,2023-01-30T16:09:10-06:00
; #@! TF.GenerationSoftware,Kicad,Pcbnew,(5.1.9)-1
; #@! TF.FileFunction,Plated,1,2,PTH
FMAT,2
INCH
T1C0.0303
T2C0.0315
T3C0.0354
T4C0.0394
T5C0.0400
T6C0.0472
T7C0.0512
T8C0.0630
T9C0.0906
%
G90
G05
T1
X2.1555Y-2.6972
X2.1555Y-2.7972
X2.1555Y-2.8972
X2.1555Y-2.9972
X2.1555Y-3.0972
X2.1555Y-3.1972
X2.1555Y-3.2972
X2.4681Y-2.6972
X2.4681Y-2.7972
X2.4681Y-2.8972
X2.4681Y-2.9972
X2.4681Y-3.0972
X2.4681Y-3.1972
X2.4681Y-3.2972
X3.035Y-2.6976
X3.035Y-2.7976
X3.035Y-2.8976
X3.035Y-2.9976
X3.035Y-3.0976
X3.035Y-3.1976
X3.035Y-3.2976
X3.3476Y-2.6976
X3.3476Y-2.7976
X3.3476Y-2.8976
X3.3476Y-2.9976
X3.3476Y-3.0976
X3.3476Y-3.1976
X3.3476Y-3.2976
T2
X1.6567Y-2.6531
X1.6567Y-2.7717
X1.6567Y-2.8898
X1.6567Y-3.0079
X1.6567Y-3.126
X1.6744Y-2.1528
X1.6744Y-2.5528
X1.8693Y-2.1528
X1.8693Y-2.2512
X2.0567Y-2.6531
X2.0567Y-2.7717
X2.0567Y-2.8898
X2.0567Y-3.0079
X2.0567Y-3.126
X2.063Y-2.1524
X2.063Y-2.5524
X2.1815Y-2.1524
X2.1815Y-2.5524
X2.2996Y-2.1524
X2.2996Y-2.5524
X2.4913Y-2.152
X2.4913Y-2.2504
X2.548Y-2.6591
X2.548Y-2.7772
X2.548Y-2.8953
X2.548Y-3.0134
X2.6772Y-2.1528
X2.6772Y-2.5528
X2.7953Y-2.1528
X2.7953Y-2.5528
X2.9134Y-2.1528
X2.9134Y-2.5528
X2.948Y-2.6591
X2.948Y-2.7772
X2.948Y-2.8953
X2.948Y-3.0134
X3.1157Y-2.1528
X3.1157Y-2.2512
X3.3201Y-2.1524
X3.3201Y-2.5524
X3.4295Y-2.6594
X3.4295Y-2.7776
X3.4295Y-2.8957
X3.4295Y-3.0138
X3.4295Y-3.1319
X3.4295Y-3.25
X3.4382Y-2.1524
X3.4382Y-2.5524
X3.8295Y-2.6594
X3.8295Y-2.7776
X3.8295Y-2.8957
X3.8295Y-3.0138
X3.8295Y-3.1319
X3.8295Y-3.25
X6.2087Y-1.6441
X6.2087Y-2.0441
X6.9118Y-3.9567
X6.9118Y-4.3567
X7.0Y-2.1413
X7.0Y-2.5413
X7.0004Y-2.624
X7.0004Y-3.024
X7.0008Y-3.1075
X7.0008Y-3.5075
X8.1591Y-3.9567
X8.1591Y-4.3567
X8.1669Y-2.176
X8.1669Y-2.576
X8.2862Y-2.1764
X8.2862Y-2.5764
X8.4043Y-2.1764
X8.4043Y-2.5764
X8.7567Y-3.0992
X8.7567Y-3.4992
X9.4067Y-3.9547
X9.4067Y-4.3547
X10.413Y-3.422
X10.413Y-3.822
X10.6106Y-2.5524
X10.6106Y-2.7524
X10.6146Y-2.1563
X10.6146Y-2.3563
X10.7106Y-2.6524
X10.7146Y-2.2563
T3
X6.7213Y-4.1185
X6.7213Y-4.2185
X7.9685Y-4.1185
X7.9685Y-4.2185
X8.5661Y-3.2606
X8.5661Y-3.3606
X9.2165Y-4.1177
X9.2165Y-4.2177
X10.4039Y-3.9996
X10.4039Y-4.0996
T4
X2.6437Y-3.2465
X2.7437Y-3.2465
X2.8437Y-3.2465
X6.2059Y-2.1606
X6.2059Y-2.2606
X6.2059Y-2.3606
X7.3815Y-2.2878
X7.4815Y-2.2878
X7.5815Y-2.2878
X7.6815Y-2.2878
X7.7815Y-2.2878
X7.8815Y-2.2878
X10.2461Y-2.2787
X10.2461Y-2.3787
X10.2461Y-2.4787
X10.2461Y-2.5787
X10.2461Y-2.6787
X10.2461Y-2.7787
T5
X7.3315Y-2.5217
X7.3315Y-2.6217
X7.3315Y-2.7217
X7.3315Y-2.8217
X7.3315Y-2.9217
X7.3315Y-3.0217
X7.3315Y-3.1217
X7.3315Y-3.2217
X7.3315Y-3.3217
X7.3315Y-3.4217
X7.3315Y-3.5217
X7.3315Y-3.6217
X7.3815Y-2.4217
X7.4815Y-2.4217
X7.5815Y-2.4217
X7.6815Y-2.4217
X7.7815Y-2.4217
X7.8165Y-2.8667
X7.8165Y-2.9667
X7.8165Y-3.2767
X7.8165Y-3.3767
X7.8815Y-2.4217
X7.9315Y-2.5217
X7.9315Y-2.6217
X7.9315Y-2.7217
X7.9315Y-2.8217
X7.9315Y-2.9217
X7.9315Y-3.0217
X7.9315Y-3.1217
X7.9315Y-3.2217
X7.9315Y-3.3217
X7.9315Y-3.4217
X7.9315Y-3.5217
X7.9315Y-3.6217
X8.9091Y-2.2252
X8.9091Y-2.8252
X9.0091Y-2.2252
X9.0091Y-2.8252
X9.1091Y-2.2252
X9.1091Y-2.8252
X9.1541Y-2.7102
X9.2091Y-2.2252
X9.2091Y-2.8252
X9.2541Y-2.7102
X9.3091Y-2.2252
X9.3091Y-2.8252
X9.4091Y-2.2252
X9.4091Y-2.8252
X9.5091Y-2.2252
X9.5091Y-2.8252
X9.5641Y-2.7102
X9.6091Y-2.2252
X9.6091Y-2.8252
X9.6641Y-2.7102
X9.7091Y-2.2252
X9.7091Y-2.8252
X9.8091Y-2.2252
X9.8091Y-2.8252
X9.9091Y-2.2252
X9.9091Y-2.8252
X10.0091Y-2.2252
X10.0091Y-2.8252
X10.1091Y-2.2752
X10.1091Y-2.3752
X10.1091Y-2.4752
X10.1091Y-2.5752
X10.1091Y-2.6752
X10.1091Y-2.7752
T6
X6.4917Y-2.7311
X6.4957Y-2.2079
X6.5205Y-2.4988
X6.6917Y-2.7311
X6.6957Y-2.2079
X6.7205Y-2.4988
T7
X1.9327Y-1.8307
X2.1327Y-1.8307
X2.1626Y-4.1705
X2.3327Y-1.8307
X2.3626Y-4.1705
X2.5626Y-4.1705
X2.5768Y-1.8307
X2.7626Y-4.1705
X2.7768Y-1.8307
X2.9768Y-1.8307
X3.002Y-4.1705
X3.1768Y-1.8307
X3.202Y-4.1705
X3.402Y-4.1705
X3.602Y-4.1705
X3.9354Y-1.8307
X4.1354Y-1.8307
X4.3354Y-1.8307
X4.5354Y-1.8307
X4.7354Y-1.8307
X4.9354Y-1.8307
X5.1748Y-1.8307
X5.3748Y-1.8307
X5.5748Y-1.8307
X5.8161Y-1.828
X6.0161Y-1.828
X6.4965Y-1.8039
X6.6965Y-1.8039
X6.9748Y-1.7795
X7.1748Y-1.7795
X7.3748Y-1.7795
X7.4618Y-4.2787
X7.5748Y-1.7795
X7.6618Y-4.2787
X7.7748Y-1.7795
X7.9748Y-1.7795
X8.1748Y-1.7795
X8.3748Y-1.7795
X8.6142Y-1.8307
X8.7091Y-4.2787
X8.8142Y-1.8307
X8.9091Y-4.2787
X9.0142Y-1.8307
X9.2543Y-1.8035
X9.2591Y-3.4169
X9.4543Y-1.8035
X9.4591Y-3.4169
X9.6965Y-1.8307
X9.7244Y-3.4161
X9.8846Y-4.278
X9.8965Y-1.8307
X9.9244Y-3.4161
X10.0846Y-4.278
X10.0965Y-1.8307
X10.2965Y-1.8307
X10.7921Y-3.0598
X10.7921Y-3.2598
X10.7921Y-3.4598
X10.8193Y-3.7028
X10.8193Y-3.9028
T8
X6.5425Y-3.1921
X6.5425Y-3.5827
X6.6764Y-3.1921
X6.6764Y-3.5827
X7.0594Y-3.9579
X7.0594Y-4.3484
X7.1933Y-3.9579
X7.1933Y-4.3484
X8.311Y-3.9575
X8.311Y-4.348
X8.4449Y-3.9575
X8.4449Y-4.348
X8.913Y-3.1
X8.913Y-3.4906
X9.0469Y-3.1
X9.0469Y-3.4906
X9.5504Y-3.9598
X9.5504Y-4.3504
X9.6843Y-3.9598
X9.6843Y-4.3504
X10.1343Y-3.3917
X10.1343Y-3.7823
X10.2681Y-3.3917
X10.2681Y-3.7823
T9
X4.0531Y-2.6228
X4.0531Y-3.6402
X4.3681Y-2.6228
X4.3681Y-3.6402
X4.3839Y-2.2902
X4.3839Y-2.9555
X4.3839Y-3.3075
X4.3839Y-3.9728
X4.7579Y-2.6228
X4.7579Y-3.6402
X5.1709Y-2.6224
X5.1728Y-3.6409
X5.4858Y-2.6224
X5.4878Y-3.6409
X5.5016Y-2.2898
X5.5016Y-2.9551
X5.5035Y-3.3083
X5.5035Y-3.9736
X5.8756Y-2.6224
X5.8776Y-3.6409
T0
M30
