%FSLAX45Y45*%
G04 Gerber Fmt 4.5, Leading zero omitted, Abs format (unit mm)*
G04 Created by KiCad (PCBNEW (5.1.9)-1) date 2023-01-30 16:09:12*
%MOMM*%
%LPD*%
G01*
G04 APERTURE LIST*
%TA.AperFunction,Profile*%
%ADD10C,0.050000*%
%TD*%
%ADD11C,0.200000*%
%ADD12C,0.300000*%
G04 APERTURE END LIST*
D10*
X3950000Y-4019000D02*
X3952000Y-11369000D01*
X4002000Y-11419000D02*
G75*
G02*
X3952000Y-11369000I0J50000D01*
G01*
X28052000Y-11428000D02*
X4002000Y-11419000D01*
X28102000Y-11378000D02*
G75*
G02*
X28052000Y-11428000I-50000J0D01*
G01*
X3950000Y-4019000D02*
G75*
G02*
X4000000Y-3969000I50000J0D01*
G01*
X28050000Y-3978000D02*
X4000000Y-3969000D01*
X28100000Y-4028000D02*
X28102000Y-11378000D01*
X28050000Y-3978000D02*
G75*
G02*
X28100000Y-4028000I0J-50000D01*
G01*
D11*
X5436500Y-6812500D02*
X5513500Y-6889500D01*
X5513500Y-6812500D02*
X5436500Y-6889500D01*
X5436500Y-7066500D02*
X5513500Y-7143500D01*
X5513500Y-7066500D02*
X5436500Y-7143500D01*
X5436500Y-7320500D02*
X5513500Y-7397500D01*
X5513500Y-7320500D02*
X5436500Y-7397500D01*
X5436500Y-7574500D02*
X5513500Y-7651500D01*
X5513500Y-7574500D02*
X5436500Y-7651500D01*
X5436500Y-7828500D02*
X5513500Y-7905500D01*
X5513500Y-7828500D02*
X5436500Y-7905500D01*
X5436500Y-8082500D02*
X5513500Y-8159500D01*
X5513500Y-8082500D02*
X5436500Y-8159500D01*
X5436500Y-8336500D02*
X5513500Y-8413500D01*
X5513500Y-8336500D02*
X5436500Y-8413500D01*
X6230500Y-6812500D02*
X6307500Y-6889500D01*
X6307500Y-6812500D02*
X6230500Y-6889500D01*
X6230500Y-7066500D02*
X6307500Y-7143500D01*
X6307500Y-7066500D02*
X6230500Y-7143500D01*
X6230500Y-7320500D02*
X6307500Y-7397500D01*
X6307500Y-7320500D02*
X6230500Y-7397500D01*
X6230500Y-7574500D02*
X6307500Y-7651500D01*
X6307500Y-7574500D02*
X6230500Y-7651500D01*
X6230500Y-7828500D02*
X6307500Y-7905500D01*
X6307500Y-7828500D02*
X6230500Y-7905500D01*
X6230500Y-8082500D02*
X6307500Y-8159500D01*
X6307500Y-8082500D02*
X6230500Y-8159500D01*
X6230500Y-8336500D02*
X6307500Y-8413500D01*
X6307500Y-8336500D02*
X6230500Y-8413500D01*
X7670500Y-6813500D02*
X7747500Y-6890500D01*
X7747500Y-6813500D02*
X7670500Y-6890500D01*
X7670500Y-7067500D02*
X7747500Y-7144500D01*
X7747500Y-7067500D02*
X7670500Y-7144500D01*
X7670500Y-7321500D02*
X7747500Y-7398500D01*
X7747500Y-7321500D02*
X7670500Y-7398500D01*
X7670500Y-7575500D02*
X7747500Y-7652500D01*
X7747500Y-7575500D02*
X7670500Y-7652500D01*
X7670500Y-7829500D02*
X7747500Y-7906500D01*
X7747500Y-7829500D02*
X7670500Y-7906500D01*
X7670500Y-8083500D02*
X7747500Y-8160500D01*
X7747500Y-8083500D02*
X7670500Y-8160500D01*
X7670500Y-8337500D02*
X7747500Y-8414500D01*
X7747500Y-8337500D02*
X7670500Y-8414500D01*
X8464500Y-6813500D02*
X8541500Y-6890500D01*
X8541500Y-6813500D02*
X8464500Y-6890500D01*
X8464500Y-7067500D02*
X8541500Y-7144500D01*
X8541500Y-7067500D02*
X8464500Y-7144500D01*
X8464500Y-7321500D02*
X8541500Y-7398500D01*
X8541500Y-7321500D02*
X8464500Y-7398500D01*
X8464500Y-7575500D02*
X8541500Y-7652500D01*
X8541500Y-7575500D02*
X8464500Y-7652500D01*
X8464500Y-7829500D02*
X8541500Y-7906500D01*
X8541500Y-7829500D02*
X8464500Y-7906500D01*
X8464500Y-8083500D02*
X8541500Y-8160500D01*
X8541500Y-8083500D02*
X8464500Y-8160500D01*
X8464500Y-8337500D02*
X8541500Y-8414500D01*
X8541500Y-8337500D02*
X8464500Y-8414500D01*
X4248000Y-6739000D02*
G75*
G03*
X4248000Y-6739000I-40000J0D01*
G01*
X4248000Y-7040000D02*
G75*
G03*
X4248000Y-7040000I-40000J0D01*
G01*
X4248000Y-7340000D02*
G75*
G03*
X4248000Y-7340000I-40000J0D01*
G01*
X4248000Y-7640000D02*
G75*
G03*
X4248000Y-7640000I-40000J0D01*
G01*
X4248000Y-7940000D02*
G75*
G03*
X4248000Y-7940000I-40000J0D01*
G01*
X4293000Y-5468000D02*
G75*
G03*
X4293000Y-5468000I-40000J0D01*
G01*
X4293000Y-6484000D02*
G75*
G03*
X4293000Y-6484000I-40000J0D01*
G01*
X4788000Y-5468000D02*
G75*
G03*
X4788000Y-5468000I-40000J0D01*
G01*
X4788000Y-5718000D02*
G75*
G03*
X4788000Y-5718000I-40000J0D01*
G01*
X5264000Y-6739000D02*
G75*
G03*
X5264000Y-6739000I-40000J0D01*
G01*
X5264000Y-7040000D02*
G75*
G03*
X5264000Y-7040000I-40000J0D01*
G01*
X5264000Y-7340000D02*
G75*
G03*
X5264000Y-7340000I-40000J0D01*
G01*
X5264000Y-7640000D02*
G75*
G03*
X5264000Y-7640000I-40000J0D01*
G01*
X5264000Y-7940000D02*
G75*
G03*
X5264000Y-7940000I-40000J0D01*
G01*
X5280000Y-5467000D02*
G75*
G03*
X5280000Y-5467000I-40000J0D01*
G01*
X5280000Y-6483000D02*
G75*
G03*
X5280000Y-6483000I-40000J0D01*
G01*
X5581000Y-5467000D02*
G75*
G03*
X5581000Y-5467000I-40000J0D01*
G01*
X5581000Y-6483000D02*
G75*
G03*
X5581000Y-6483000I-40000J0D01*
G01*
X5881000Y-5467000D02*
G75*
G03*
X5881000Y-5467000I-40000J0D01*
G01*
X5881000Y-6483000D02*
G75*
G03*
X5881000Y-6483000I-40000J0D01*
G01*
X6368000Y-5466000D02*
G75*
G03*
X6368000Y-5466000I-40000J0D01*
G01*
X6368000Y-5716000D02*
G75*
G03*
X6368000Y-5716000I-40000J0D01*
G01*
X6512000Y-6754000D02*
G75*
G03*
X6512000Y-6754000I-40000J0D01*
G01*
X6512000Y-7054000D02*
G75*
G03*
X6512000Y-7054000I-40000J0D01*
G01*
X6512000Y-7354000D02*
G75*
G03*
X6512000Y-7354000I-40000J0D01*
G01*
X6512000Y-7654000D02*
G75*
G03*
X6512000Y-7654000I-40000J0D01*
G01*
X6840000Y-5468000D02*
G75*
G03*
X6840000Y-5468000I-40000J0D01*
G01*
X6840000Y-6484000D02*
G75*
G03*
X6840000Y-6484000I-40000J0D01*
G01*
X7140000Y-5468000D02*
G75*
G03*
X7140000Y-5468000I-40000J0D01*
G01*
X7140000Y-6484000D02*
G75*
G03*
X7140000Y-6484000I-40000J0D01*
G01*
X7440000Y-5468000D02*
G75*
G03*
X7440000Y-5468000I-40000J0D01*
G01*
X7440000Y-6484000D02*
G75*
G03*
X7440000Y-6484000I-40000J0D01*
G01*
X7528000Y-6754000D02*
G75*
G03*
X7528000Y-6754000I-40000J0D01*
G01*
X7528000Y-7054000D02*
G75*
G03*
X7528000Y-7054000I-40000J0D01*
G01*
X7528000Y-7354000D02*
G75*
G03*
X7528000Y-7354000I-40000J0D01*
G01*
X7528000Y-7654000D02*
G75*
G03*
X7528000Y-7654000I-40000J0D01*
G01*
X7954000Y-5468000D02*
G75*
G03*
X7954000Y-5468000I-40000J0D01*
G01*
X7954000Y-5718000D02*
G75*
G03*
X7954000Y-5718000I-40000J0D01*
G01*
X8473000Y-5467000D02*
G75*
G03*
X8473000Y-5467000I-40000J0D01*
G01*
X8473000Y-6483000D02*
G75*
G03*
X8473000Y-6483000I-40000J0D01*
G01*
X8751000Y-6755000D02*
G75*
G03*
X8751000Y-6755000I-40000J0D01*
G01*
X8751000Y-7055000D02*
G75*
G03*
X8751000Y-7055000I-40000J0D01*
G01*
X8751000Y-7355000D02*
G75*
G03*
X8751000Y-7355000I-40000J0D01*
G01*
X8751000Y-7655000D02*
G75*
G03*
X8751000Y-7655000I-40000J0D01*
G01*
X8751000Y-7955000D02*
G75*
G03*
X8751000Y-7955000I-40000J0D01*
G01*
X8751000Y-8255000D02*
G75*
G03*
X8751000Y-8255000I-40000J0D01*
G01*
X8773000Y-5467000D02*
G75*
G03*
X8773000Y-5467000I-40000J0D01*
G01*
X8773000Y-6483000D02*
G75*
G03*
X8773000Y-6483000I-40000J0D01*
G01*
X9767000Y-6755000D02*
G75*
G03*
X9767000Y-6755000I-40000J0D01*
G01*
X9767000Y-7055000D02*
G75*
G03*
X9767000Y-7055000I-40000J0D01*
G01*
X9767000Y-7355000D02*
G75*
G03*
X9767000Y-7355000I-40000J0D01*
G01*
X9767000Y-7655000D02*
G75*
G03*
X9767000Y-7655000I-40000J0D01*
G01*
X9767000Y-7955000D02*
G75*
G03*
X9767000Y-7955000I-40000J0D01*
G01*
X9767000Y-8255000D02*
G75*
G03*
X9767000Y-8255000I-40000J0D01*
G01*
X15810000Y-4176000D02*
G75*
G03*
X15810000Y-4176000I-40000J0D01*
G01*
X15810000Y-5192000D02*
G75*
G03*
X15810000Y-5192000I-40000J0D01*
G01*
X17596000Y-10050000D02*
G75*
G03*
X17596000Y-10050000I-40000J0D01*
G01*
X17596000Y-11066000D02*
G75*
G03*
X17596000Y-11066000I-40000J0D01*
G01*
X17820000Y-5439000D02*
G75*
G03*
X17820000Y-5439000I-40000J0D01*
G01*
X17820000Y-6455000D02*
G75*
G03*
X17820000Y-6455000I-40000J0D01*
G01*
X17821000Y-6665000D02*
G75*
G03*
X17821000Y-6665000I-40000J0D01*
G01*
X17821000Y-7681000D02*
G75*
G03*
X17821000Y-7681000I-40000J0D01*
G01*
X17822000Y-7893000D02*
G75*
G03*
X17822000Y-7893000I-40000J0D01*
G01*
X17822000Y-8909000D02*
G75*
G03*
X17822000Y-8909000I-40000J0D01*
G01*
X20764000Y-10050000D02*
G75*
G03*
X20764000Y-10050000I-40000J0D01*
G01*
X20764000Y-11066000D02*
G75*
G03*
X20764000Y-11066000I-40000J0D01*
G01*
X20784000Y-5527000D02*
G75*
G03*
X20784000Y-5527000I-40000J0D01*
G01*
X20784000Y-6543000D02*
G75*
G03*
X20784000Y-6543000I-40000J0D01*
G01*
X21087000Y-5528000D02*
G75*
G03*
X21087000Y-5528000I-40000J0D01*
G01*
X21087000Y-6544000D02*
G75*
G03*
X21087000Y-6544000I-40000J0D01*
G01*
X21387000Y-5528000D02*
G75*
G03*
X21387000Y-5528000I-40000J0D01*
G01*
X21387000Y-6544000D02*
G75*
G03*
X21387000Y-6544000I-40000J0D01*
G01*
X22282000Y-7872000D02*
G75*
G03*
X22282000Y-7872000I-40000J0D01*
G01*
X22282000Y-8888000D02*
G75*
G03*
X22282000Y-8888000I-40000J0D01*
G01*
X23933000Y-10045000D02*
G75*
G03*
X23933000Y-10045000I-40000J0D01*
G01*
X23933000Y-11061000D02*
G75*
G03*
X23933000Y-11061000I-40000J0D01*
G01*
X26489000Y-8692000D02*
G75*
G03*
X26489000Y-8692000I-40000J0D01*
G01*
X26489000Y-9708000D02*
G75*
G03*
X26489000Y-9708000I-40000J0D01*
G01*
X26991000Y-6483000D02*
G75*
G03*
X26991000Y-6483000I-40000J0D01*
G01*
X26991000Y-6991000D02*
G75*
G03*
X26991000Y-6991000I-40000J0D01*
G01*
X27001000Y-5477000D02*
G75*
G03*
X27001000Y-5477000I-40000J0D01*
G01*
X27001000Y-5985000D02*
G75*
G03*
X27001000Y-5985000I-40000J0D01*
G01*
X27245000Y-6737000D02*
G75*
G03*
X27245000Y-6737000I-40000J0D01*
G01*
X27255000Y-5731000D02*
G75*
G03*
X27255000Y-5731000I-40000J0D01*
G01*
X17072000Y-10416000D02*
X17072000Y-10506000D01*
X17027000Y-10461000D02*
X17117000Y-10461000D01*
X17072000Y-10670000D02*
X17072000Y-10760000D01*
X17027000Y-10715000D02*
X17117000Y-10715000D01*
X20240000Y-10416000D02*
X20240000Y-10506000D01*
X20195000Y-10461000D02*
X20285000Y-10461000D01*
X20240000Y-10670000D02*
X20240000Y-10760000D01*
X20195000Y-10715000D02*
X20285000Y-10715000D01*
X21758000Y-8237000D02*
X21758000Y-8327000D01*
X21713000Y-8282000D02*
X21803000Y-8282000D01*
X21758000Y-8491000D02*
X21758000Y-8581000D01*
X21713000Y-8536000D02*
X21803000Y-8536000D01*
X23410000Y-10414000D02*
X23410000Y-10504000D01*
X23365000Y-10459000D02*
X23455000Y-10459000D01*
X23410000Y-10668000D02*
X23410000Y-10758000D01*
X23365000Y-10713000D02*
X23455000Y-10713000D01*
X26426000Y-10114000D02*
X26426000Y-10204000D01*
X26381000Y-10159000D02*
X26471000Y-10159000D01*
X26426000Y-10368000D02*
X26426000Y-10458000D01*
X26381000Y-10413000D02*
X26471000Y-10413000D01*
X6750356Y-8281356D02*
X6750356Y-8210644D01*
X6679644Y-8210644D01*
X6679644Y-8281356D01*
X6750356Y-8281356D01*
X7004356Y-8281356D02*
X7004356Y-8210644D01*
X6933644Y-8210644D01*
X6933644Y-8281356D01*
X7004356Y-8281356D01*
X7258356Y-8281356D02*
X7258356Y-8210644D01*
X7187644Y-8210644D01*
X7187644Y-8281356D01*
X7258356Y-8281356D01*
X15798356Y-5523356D02*
X15798356Y-5452644D01*
X15727644Y-5452644D01*
X15727644Y-5523356D01*
X15798356Y-5523356D01*
X15798356Y-5777356D02*
X15798356Y-5706644D01*
X15727644Y-5706644D01*
X15727644Y-5777356D01*
X15798356Y-5777356D01*
X15798356Y-6031356D02*
X15798356Y-5960644D01*
X15727644Y-5960644D01*
X15727644Y-6031356D01*
X15798356Y-6031356D01*
X18784356Y-5846356D02*
X18784356Y-5775644D01*
X18713644Y-5775644D01*
X18713644Y-5846356D01*
X18784356Y-5846356D01*
X19038356Y-5846356D02*
X19038356Y-5775644D01*
X18967644Y-5775644D01*
X18967644Y-5846356D01*
X19038356Y-5846356D01*
X19292356Y-5846356D02*
X19292356Y-5775644D01*
X19221644Y-5775644D01*
X19221644Y-5846356D01*
X19292356Y-5846356D01*
X19546356Y-5846356D02*
X19546356Y-5775644D01*
X19475644Y-5775644D01*
X19475644Y-5846356D01*
X19546356Y-5846356D01*
X19800356Y-5846356D02*
X19800356Y-5775644D01*
X19729644Y-5775644D01*
X19729644Y-5846356D01*
X19800356Y-5846356D01*
X20054356Y-5846356D02*
X20054356Y-5775644D01*
X19983644Y-5775644D01*
X19983644Y-5846356D01*
X20054356Y-5846356D01*
X26060356Y-5823356D02*
X26060356Y-5752644D01*
X25989644Y-5752644D01*
X25989644Y-5823356D01*
X26060356Y-5823356D01*
X26060356Y-6077356D02*
X26060356Y-6006644D01*
X25989644Y-6006644D01*
X25989644Y-6077356D01*
X26060356Y-6077356D01*
X26060356Y-6331356D02*
X26060356Y-6260644D01*
X25989644Y-6260644D01*
X25989644Y-6331356D01*
X26060356Y-6331356D01*
X26060356Y-6585356D02*
X26060356Y-6514644D01*
X25989644Y-6514644D01*
X25989644Y-6585356D01*
X26060356Y-6585356D01*
X26060356Y-6839356D02*
X26060356Y-6768644D01*
X25989644Y-6768644D01*
X25989644Y-6839356D01*
X26060356Y-6839356D01*
X26060356Y-7093356D02*
X26060356Y-7022644D01*
X25989644Y-7022644D01*
X25989644Y-7093356D01*
X26060356Y-7093356D01*
X18622000Y-6455800D02*
X18672800Y-6405000D01*
X18622000Y-6354200D01*
X18571200Y-6405000D01*
X18622000Y-6455800D01*
X18622000Y-6709800D02*
X18672800Y-6659000D01*
X18622000Y-6608200D01*
X18571200Y-6659000D01*
X18622000Y-6709800D01*
X18622000Y-6963800D02*
X18672800Y-6913000D01*
X18622000Y-6862200D01*
X18571200Y-6913000D01*
X18622000Y-6963800D01*
X18622000Y-7217800D02*
X18672800Y-7167000D01*
X18622000Y-7116200D01*
X18571200Y-7167000D01*
X18622000Y-7217800D01*
X18622000Y-7471800D02*
X18672800Y-7421000D01*
X18622000Y-7370200D01*
X18571200Y-7421000D01*
X18622000Y-7471800D01*
X18622000Y-7725800D02*
X18672800Y-7675000D01*
X18622000Y-7624200D01*
X18571200Y-7675000D01*
X18622000Y-7725800D01*
X18622000Y-7979800D02*
X18672800Y-7929000D01*
X18622000Y-7878200D01*
X18571200Y-7929000D01*
X18622000Y-7979800D01*
X18622000Y-8233800D02*
X18672800Y-8183000D01*
X18622000Y-8132200D01*
X18571200Y-8183000D01*
X18622000Y-8233800D01*
X18622000Y-8487800D02*
X18672800Y-8437000D01*
X18622000Y-8386200D01*
X18571200Y-8437000D01*
X18622000Y-8487800D01*
X18622000Y-8741800D02*
X18672800Y-8691000D01*
X18622000Y-8640200D01*
X18571200Y-8691000D01*
X18622000Y-8741800D01*
X18622000Y-8995800D02*
X18672800Y-8945000D01*
X18622000Y-8894200D01*
X18571200Y-8945000D01*
X18622000Y-8995800D01*
X18622000Y-9249800D02*
X18672800Y-9199000D01*
X18622000Y-9148200D01*
X18571200Y-9199000D01*
X18622000Y-9249800D01*
X18749000Y-6201800D02*
X18799800Y-6151000D01*
X18749000Y-6100200D01*
X18698200Y-6151000D01*
X18749000Y-6201800D01*
X19003000Y-6201800D02*
X19053800Y-6151000D01*
X19003000Y-6100200D01*
X18952200Y-6151000D01*
X19003000Y-6201800D01*
X19257000Y-6201800D02*
X19307800Y-6151000D01*
X19257000Y-6100200D01*
X19206200Y-6151000D01*
X19257000Y-6201800D01*
X19511000Y-6201800D02*
X19561800Y-6151000D01*
X19511000Y-6100200D01*
X19460200Y-6151000D01*
X19511000Y-6201800D01*
X19765000Y-6201800D02*
X19815800Y-6151000D01*
X19765000Y-6100200D01*
X19714200Y-6151000D01*
X19765000Y-6201800D01*
X19853900Y-7332100D02*
X19904700Y-7281300D01*
X19853900Y-7230500D01*
X19803100Y-7281300D01*
X19853900Y-7332100D01*
X19853900Y-7586100D02*
X19904700Y-7535300D01*
X19853900Y-7484500D01*
X19803100Y-7535300D01*
X19853900Y-7586100D01*
X19853900Y-8373500D02*
X19904700Y-8322700D01*
X19853900Y-8271900D01*
X19803100Y-8322700D01*
X19853900Y-8373500D01*
X19853900Y-8627500D02*
X19904700Y-8576700D01*
X19853900Y-8525900D01*
X19803100Y-8576700D01*
X19853900Y-8627500D01*
X20019000Y-6201800D02*
X20069800Y-6151000D01*
X20019000Y-6100200D01*
X19968200Y-6151000D01*
X20019000Y-6201800D01*
X20146000Y-6455800D02*
X20196800Y-6405000D01*
X20146000Y-6354200D01*
X20095200Y-6405000D01*
X20146000Y-6455800D01*
X20146000Y-6709800D02*
X20196800Y-6659000D01*
X20146000Y-6608200D01*
X20095200Y-6659000D01*
X20146000Y-6709800D01*
X20146000Y-6963800D02*
X20196800Y-6913000D01*
X20146000Y-6862200D01*
X20095200Y-6913000D01*
X20146000Y-6963800D01*
X20146000Y-7217800D02*
X20196800Y-7167000D01*
X20146000Y-7116200D01*
X20095200Y-7167000D01*
X20146000Y-7217800D01*
X20146000Y-7471800D02*
X20196800Y-7421000D01*
X20146000Y-7370200D01*
X20095200Y-7421000D01*
X20146000Y-7471800D01*
X20146000Y-7725800D02*
X20196800Y-7675000D01*
X20146000Y-7624200D01*
X20095200Y-7675000D01*
X20146000Y-7725800D01*
X20146000Y-7979800D02*
X20196800Y-7929000D01*
X20146000Y-7878200D01*
X20095200Y-7929000D01*
X20146000Y-7979800D01*
X20146000Y-8233800D02*
X20196800Y-8183000D01*
X20146000Y-8132200D01*
X20095200Y-8183000D01*
X20146000Y-8233800D01*
X20146000Y-8487800D02*
X20196800Y-8437000D01*
X20146000Y-8386200D01*
X20095200Y-8437000D01*
X20146000Y-8487800D01*
X20146000Y-8741800D02*
X20196800Y-8691000D01*
X20146000Y-8640200D01*
X20095200Y-8691000D01*
X20146000Y-8741800D01*
X20146000Y-8995800D02*
X20196800Y-8945000D01*
X20146000Y-8894200D01*
X20095200Y-8945000D01*
X20146000Y-8995800D01*
X20146000Y-9249800D02*
X20196800Y-9199000D01*
X20146000Y-9148200D01*
X20095200Y-9199000D01*
X20146000Y-9249800D01*
X22629000Y-5702800D02*
X22679800Y-5652000D01*
X22629000Y-5601200D01*
X22578200Y-5652000D01*
X22629000Y-5702800D01*
X22629000Y-7226800D02*
X22679800Y-7176000D01*
X22629000Y-7125200D01*
X22578200Y-7176000D01*
X22629000Y-7226800D01*
X22883000Y-5702800D02*
X22933800Y-5652000D01*
X22883000Y-5601200D01*
X22832200Y-5652000D01*
X22883000Y-5702800D01*
X22883000Y-7226800D02*
X22933800Y-7176000D01*
X22883000Y-7125200D01*
X22832200Y-7176000D01*
X22883000Y-7226800D01*
X23137000Y-5702800D02*
X23187800Y-5652000D01*
X23137000Y-5601200D01*
X23086200Y-5652000D01*
X23137000Y-5702800D01*
X23137000Y-7226800D02*
X23187800Y-7176000D01*
X23137000Y-7125200D01*
X23086200Y-7176000D01*
X23137000Y-7226800D01*
X23251300Y-6934700D02*
X23302100Y-6883900D01*
X23251300Y-6833100D01*
X23200500Y-6883900D01*
X23251300Y-6934700D01*
X23391000Y-5702800D02*
X23441800Y-5652000D01*
X23391000Y-5601200D01*
X23340200Y-5652000D01*
X23391000Y-5702800D01*
X23391000Y-7226800D02*
X23441800Y-7176000D01*
X23391000Y-7125200D01*
X23340200Y-7176000D01*
X23391000Y-7226800D01*
X23505300Y-6934700D02*
X23556100Y-6883900D01*
X23505300Y-6833100D01*
X23454500Y-6883900D01*
X23505300Y-6934700D01*
X23645000Y-5702800D02*
X23695800Y-5652000D01*
X23645000Y-5601200D01*
X23594200Y-5652000D01*
X23645000Y-5702800D01*
X23645000Y-7226800D02*
X23695800Y-7176000D01*
X23645000Y-7125200D01*
X23594200Y-7176000D01*
X23645000Y-7226800D01*
X23899000Y-5702800D02*
X23949800Y-5652000D01*
X23899000Y-5601200D01*
X23848200Y-5652000D01*
X23899000Y-5702800D01*
X23899000Y-7226800D02*
X23949800Y-7176000D01*
X23899000Y-7125200D01*
X23848200Y-7176000D01*
X23899000Y-7226800D01*
X24153000Y-5702800D02*
X24203800Y-5652000D01*
X24153000Y-5601200D01*
X24102200Y-5652000D01*
X24153000Y-5702800D01*
X24153000Y-7226800D02*
X24203800Y-7176000D01*
X24153000Y-7125200D01*
X24102200Y-7176000D01*
X24153000Y-7226800D01*
X24292700Y-6934700D02*
X24343500Y-6883900D01*
X24292700Y-6833100D01*
X24241900Y-6883900D01*
X24292700Y-6934700D01*
X24407000Y-5702800D02*
X24457800Y-5652000D01*
X24407000Y-5601200D01*
X24356200Y-5652000D01*
X24407000Y-5702800D01*
X24407000Y-7226800D02*
X24457800Y-7176000D01*
X24407000Y-7125200D01*
X24356200Y-7176000D01*
X24407000Y-7226800D01*
X24546700Y-6934700D02*
X24597500Y-6883900D01*
X24546700Y-6833100D01*
X24495900Y-6883900D01*
X24546700Y-6934700D01*
X24661000Y-5702800D02*
X24711800Y-5652000D01*
X24661000Y-5601200D01*
X24610200Y-5652000D01*
X24661000Y-5702800D01*
X24661000Y-7226800D02*
X24711800Y-7176000D01*
X24661000Y-7125200D01*
X24610200Y-7176000D01*
X24661000Y-7226800D01*
X24915000Y-5702800D02*
X24965800Y-5652000D01*
X24915000Y-5601200D01*
X24864200Y-5652000D01*
X24915000Y-5702800D01*
X24915000Y-7226800D02*
X24965800Y-7176000D01*
X24915000Y-7125200D01*
X24864200Y-7176000D01*
X24915000Y-7226800D01*
X25169000Y-5702800D02*
X25219800Y-5652000D01*
X25169000Y-5601200D01*
X25118200Y-5652000D01*
X25169000Y-5702800D01*
X25169000Y-7226800D02*
X25219800Y-7176000D01*
X25169000Y-7125200D01*
X25118200Y-7176000D01*
X25169000Y-7226800D01*
X25423000Y-5702800D02*
X25473800Y-5652000D01*
X25423000Y-5601200D01*
X25372200Y-5652000D01*
X25423000Y-5702800D01*
X25423000Y-7226800D02*
X25473800Y-7176000D01*
X25423000Y-7125200D01*
X25372200Y-7176000D01*
X25423000Y-7226800D01*
X25677000Y-5829800D02*
X25727800Y-5779000D01*
X25677000Y-5728200D01*
X25626200Y-5779000D01*
X25677000Y-5829800D01*
X25677000Y-6083800D02*
X25727800Y-6033000D01*
X25677000Y-5982200D01*
X25626200Y-6033000D01*
X25677000Y-6083800D01*
X25677000Y-6337800D02*
X25727800Y-6287000D01*
X25677000Y-6236200D01*
X25626200Y-6287000D01*
X25677000Y-6337800D01*
X25677000Y-6591800D02*
X25727800Y-6541000D01*
X25677000Y-6490200D01*
X25626200Y-6541000D01*
X25677000Y-6591800D01*
X25677000Y-6845800D02*
X25727800Y-6795000D01*
X25677000Y-6744200D01*
X25626200Y-6795000D01*
X25677000Y-6845800D01*
X25677000Y-7099800D02*
X25727800Y-7049000D01*
X25677000Y-6998200D01*
X25626200Y-7049000D01*
X25677000Y-7099800D01*
X16429000Y-6877000D02*
X16549000Y-6997000D01*
X16549000Y-6877000D02*
X16429000Y-6997000D01*
X16549000Y-6937000D02*
G75*
G03*
X16549000Y-6937000I-60000J0D01*
G01*
X16439000Y-5548000D02*
X16559000Y-5668000D01*
X16559000Y-5548000D02*
X16439000Y-5668000D01*
X16559000Y-5608000D02*
G75*
G03*
X16559000Y-5608000I-60000J0D01*
G01*
X16502000Y-6287000D02*
X16622000Y-6407000D01*
X16622000Y-6287000D02*
X16502000Y-6407000D01*
X16622000Y-6347000D02*
G75*
G03*
X16622000Y-6347000I-60000J0D01*
G01*
X16937000Y-6877000D02*
X17057000Y-6997000D01*
X17057000Y-6877000D02*
X16937000Y-6997000D01*
X17057000Y-6937000D02*
G75*
G03*
X17057000Y-6937000I-60000J0D01*
G01*
X16947000Y-5548000D02*
X17067000Y-5668000D01*
X17067000Y-5548000D02*
X16947000Y-5668000D01*
X17067000Y-5608000D02*
G75*
G03*
X17067000Y-5608000I-60000J0D01*
G01*
X17010000Y-6287000D02*
X17130000Y-6407000D01*
X17130000Y-6287000D02*
X17010000Y-6407000D01*
X17130000Y-6347000D02*
G75*
G03*
X17130000Y-6347000I-60000J0D01*
G01*
X4844000Y-4585000D02*
X4974000Y-4715000D01*
X4974000Y-4585000D02*
X4844000Y-4715000D01*
X4909000Y-4585000D02*
X4909000Y-4715000D01*
X4844000Y-4650000D02*
X4974000Y-4650000D01*
X5352000Y-4585000D02*
X5482000Y-4715000D01*
X5482000Y-4585000D02*
X5352000Y-4715000D01*
X5417000Y-4585000D02*
X5417000Y-4715000D01*
X5352000Y-4650000D02*
X5482000Y-4650000D01*
X5428000Y-10528000D02*
X5558000Y-10658000D01*
X5558000Y-10528000D02*
X5428000Y-10658000D01*
X5493000Y-10528000D02*
X5493000Y-10658000D01*
X5428000Y-10593000D02*
X5558000Y-10593000D01*
X5860000Y-4585000D02*
X5990000Y-4715000D01*
X5990000Y-4585000D02*
X5860000Y-4715000D01*
X5925000Y-4585000D02*
X5925000Y-4715000D01*
X5860000Y-4650000D02*
X5990000Y-4650000D01*
X5936000Y-10528000D02*
X6066000Y-10658000D01*
X6066000Y-10528000D02*
X5936000Y-10658000D01*
X6001000Y-10528000D02*
X6001000Y-10658000D01*
X5936000Y-10593000D02*
X6066000Y-10593000D01*
X6444000Y-10528000D02*
X6574000Y-10658000D01*
X6574000Y-10528000D02*
X6444000Y-10658000D01*
X6509000Y-10528000D02*
X6509000Y-10658000D01*
X6444000Y-10593000D02*
X6574000Y-10593000D01*
X6480000Y-4585000D02*
X6610000Y-4715000D01*
X6610000Y-4585000D02*
X6480000Y-4715000D01*
X6545000Y-4585000D02*
X6545000Y-4715000D01*
X6480000Y-4650000D02*
X6610000Y-4650000D01*
X6952000Y-10528000D02*
X7082000Y-10658000D01*
X7082000Y-10528000D02*
X6952000Y-10658000D01*
X7017000Y-10528000D02*
X7017000Y-10658000D01*
X6952000Y-10593000D02*
X7082000Y-10593000D01*
X6988000Y-4585000D02*
X7118000Y-4715000D01*
X7118000Y-4585000D02*
X6988000Y-4715000D01*
X7053000Y-4585000D02*
X7053000Y-4715000D01*
X6988000Y-4650000D02*
X7118000Y-4650000D01*
X7496000Y-4585000D02*
X7626000Y-4715000D01*
X7626000Y-4585000D02*
X7496000Y-4715000D01*
X7561000Y-4585000D02*
X7561000Y-4715000D01*
X7496000Y-4650000D02*
X7626000Y-4650000D01*
X7560000Y-10528000D02*
X7690000Y-10658000D01*
X7690000Y-10528000D02*
X7560000Y-10658000D01*
X7625000Y-10528000D02*
X7625000Y-10658000D01*
X7560000Y-10593000D02*
X7690000Y-10593000D01*
X8004000Y-4585000D02*
X8134000Y-4715000D01*
X8134000Y-4585000D02*
X8004000Y-4715000D01*
X8069000Y-4585000D02*
X8069000Y-4715000D01*
X8004000Y-4650000D02*
X8134000Y-4650000D01*
X8068000Y-10528000D02*
X8198000Y-10658000D01*
X8198000Y-10528000D02*
X8068000Y-10658000D01*
X8133000Y-10528000D02*
X8133000Y-10658000D01*
X8068000Y-10593000D02*
X8198000Y-10593000D01*
X8576000Y-10528000D02*
X8706000Y-10658000D01*
X8706000Y-10528000D02*
X8576000Y-10658000D01*
X8641000Y-10528000D02*
X8641000Y-10658000D01*
X8576000Y-10593000D02*
X8706000Y-10593000D01*
X9084000Y-10528000D02*
X9214000Y-10658000D01*
X9214000Y-10528000D02*
X9084000Y-10658000D01*
X9149000Y-10528000D02*
X9149000Y-10658000D01*
X9084000Y-10593000D02*
X9214000Y-10593000D01*
X9931000Y-4585000D02*
X10061000Y-4715000D01*
X10061000Y-4585000D02*
X9931000Y-4715000D01*
X9996000Y-4585000D02*
X9996000Y-4715000D01*
X9931000Y-4650000D02*
X10061000Y-4650000D01*
X10439000Y-4585000D02*
X10569000Y-4715000D01*
X10569000Y-4585000D02*
X10439000Y-4715000D01*
X10504000Y-4585000D02*
X10504000Y-4715000D01*
X10439000Y-4650000D02*
X10569000Y-4650000D01*
X10947000Y-4585000D02*
X11077000Y-4715000D01*
X11077000Y-4585000D02*
X10947000Y-4715000D01*
X11012000Y-4585000D02*
X11012000Y-4715000D01*
X10947000Y-4650000D02*
X11077000Y-4650000D01*
X11455000Y-4585000D02*
X11585000Y-4715000D01*
X11585000Y-4585000D02*
X11455000Y-4715000D01*
X11520000Y-4585000D02*
X11520000Y-4715000D01*
X11455000Y-4650000D02*
X11585000Y-4650000D01*
X11963000Y-4585000D02*
X12093000Y-4715000D01*
X12093000Y-4585000D02*
X11963000Y-4715000D01*
X12028000Y-4585000D02*
X12028000Y-4715000D01*
X11963000Y-4650000D02*
X12093000Y-4650000D01*
X12471000Y-4585000D02*
X12601000Y-4715000D01*
X12601000Y-4585000D02*
X12471000Y-4715000D01*
X12536000Y-4585000D02*
X12536000Y-4715000D01*
X12471000Y-4650000D02*
X12601000Y-4650000D01*
X13079000Y-4585000D02*
X13209000Y-4715000D01*
X13209000Y-4585000D02*
X13079000Y-4715000D01*
X13144000Y-4585000D02*
X13144000Y-4715000D01*
X13079000Y-4650000D02*
X13209000Y-4650000D01*
X13587000Y-4585000D02*
X13717000Y-4715000D01*
X13717000Y-4585000D02*
X13587000Y-4715000D01*
X13652000Y-4585000D02*
X13652000Y-4715000D01*
X13587000Y-4650000D02*
X13717000Y-4650000D01*
X14095000Y-4585000D02*
X14225000Y-4715000D01*
X14225000Y-4585000D02*
X14095000Y-4715000D01*
X14160000Y-4585000D02*
X14160000Y-4715000D01*
X14095000Y-4650000D02*
X14225000Y-4650000D01*
X14708000Y-4578000D02*
X14838000Y-4708000D01*
X14838000Y-4578000D02*
X14708000Y-4708000D01*
X14773000Y-4578000D02*
X14773000Y-4708000D01*
X14708000Y-4643000D02*
X14838000Y-4643000D01*
X15216000Y-4578000D02*
X15346000Y-4708000D01*
X15346000Y-4578000D02*
X15216000Y-4708000D01*
X15281000Y-4578000D02*
X15281000Y-4708000D01*
X15216000Y-4643000D02*
X15346000Y-4643000D01*
X16436000Y-4517000D02*
X16566000Y-4647000D01*
X16566000Y-4517000D02*
X16436000Y-4647000D01*
X16501000Y-4517000D02*
X16501000Y-4647000D01*
X16436000Y-4582000D02*
X16566000Y-4582000D01*
X16944000Y-4517000D02*
X17074000Y-4647000D01*
X17074000Y-4517000D02*
X16944000Y-4647000D01*
X17009000Y-4517000D02*
X17009000Y-4647000D01*
X16944000Y-4582000D02*
X17074000Y-4582000D01*
X17651000Y-4455000D02*
X17781000Y-4585000D01*
X17781000Y-4455000D02*
X17651000Y-4585000D01*
X17716000Y-4455000D02*
X17716000Y-4585000D01*
X17651000Y-4520000D02*
X17781000Y-4520000D01*
X18159000Y-4455000D02*
X18289000Y-4585000D01*
X18289000Y-4455000D02*
X18159000Y-4585000D01*
X18224000Y-4455000D02*
X18224000Y-4585000D01*
X18159000Y-4520000D02*
X18289000Y-4520000D01*
X18667000Y-4455000D02*
X18797000Y-4585000D01*
X18797000Y-4455000D02*
X18667000Y-4585000D01*
X18732000Y-4455000D02*
X18732000Y-4585000D01*
X18667000Y-4520000D02*
X18797000Y-4520000D01*
X18888000Y-10803000D02*
X19018000Y-10933000D01*
X19018000Y-10803000D02*
X18888000Y-10933000D01*
X18953000Y-10803000D02*
X18953000Y-10933000D01*
X18888000Y-10868000D02*
X19018000Y-10868000D01*
X19175000Y-4455000D02*
X19305000Y-4585000D01*
X19305000Y-4455000D02*
X19175000Y-4585000D01*
X19240000Y-4455000D02*
X19240000Y-4585000D01*
X19175000Y-4520000D02*
X19305000Y-4520000D01*
X19396000Y-10803000D02*
X19526000Y-10933000D01*
X19526000Y-10803000D02*
X19396000Y-10933000D01*
X19461000Y-10803000D02*
X19461000Y-10933000D01*
X19396000Y-10868000D02*
X19526000Y-10868000D01*
X19683000Y-4455000D02*
X19813000Y-4585000D01*
X19813000Y-4455000D02*
X19683000Y-4585000D01*
X19748000Y-4455000D02*
X19748000Y-4585000D01*
X19683000Y-4520000D02*
X19813000Y-4520000D01*
X20191000Y-4455000D02*
X20321000Y-4585000D01*
X20321000Y-4455000D02*
X20191000Y-4585000D01*
X20256000Y-4455000D02*
X20256000Y-4585000D01*
X20191000Y-4520000D02*
X20321000Y-4520000D01*
X20699000Y-4455000D02*
X20829000Y-4585000D01*
X20829000Y-4455000D02*
X20699000Y-4585000D01*
X20764000Y-4455000D02*
X20764000Y-4585000D01*
X20699000Y-4520000D02*
X20829000Y-4520000D01*
X21207000Y-4455000D02*
X21337000Y-4585000D01*
X21337000Y-4455000D02*
X21207000Y-4585000D01*
X21272000Y-4455000D02*
X21272000Y-4585000D01*
X21207000Y-4520000D02*
X21337000Y-4520000D01*
X21815000Y-4585000D02*
X21945000Y-4715000D01*
X21945000Y-4585000D02*
X21815000Y-4715000D01*
X21880000Y-4585000D02*
X21880000Y-4715000D01*
X21815000Y-4650000D02*
X21945000Y-4650000D01*
X22056000Y-10803000D02*
X22186000Y-10933000D01*
X22186000Y-10803000D02*
X22056000Y-10933000D01*
X22121000Y-10803000D02*
X22121000Y-10933000D01*
X22056000Y-10868000D02*
X22186000Y-10868000D01*
X22323000Y-4585000D02*
X22453000Y-4715000D01*
X22453000Y-4585000D02*
X22323000Y-4715000D01*
X22388000Y-4585000D02*
X22388000Y-4715000D01*
X22323000Y-4650000D02*
X22453000Y-4650000D01*
X22564000Y-10803000D02*
X22694000Y-10933000D01*
X22694000Y-10803000D02*
X22564000Y-10933000D01*
X22629000Y-10803000D02*
X22629000Y-10933000D01*
X22564000Y-10868000D02*
X22694000Y-10868000D01*
X22831000Y-4585000D02*
X22961000Y-4715000D01*
X22961000Y-4585000D02*
X22831000Y-4715000D01*
X22896000Y-4585000D02*
X22896000Y-4715000D01*
X22831000Y-4650000D02*
X22961000Y-4650000D01*
X23441000Y-4516000D02*
X23571000Y-4646000D01*
X23571000Y-4516000D02*
X23441000Y-4646000D01*
X23506000Y-4516000D02*
X23506000Y-4646000D01*
X23441000Y-4581000D02*
X23571000Y-4581000D01*
X23453000Y-8614000D02*
X23583000Y-8744000D01*
X23583000Y-8614000D02*
X23453000Y-8744000D01*
X23518000Y-8614000D02*
X23518000Y-8744000D01*
X23453000Y-8679000D02*
X23583000Y-8679000D01*
X23949000Y-4516000D02*
X24079000Y-4646000D01*
X24079000Y-4516000D02*
X23949000Y-4646000D01*
X24014000Y-4516000D02*
X24014000Y-4646000D01*
X23949000Y-4581000D02*
X24079000Y-4581000D01*
X23961000Y-8614000D02*
X24091000Y-8744000D01*
X24091000Y-8614000D02*
X23961000Y-8744000D01*
X24026000Y-8614000D02*
X24026000Y-8744000D01*
X23961000Y-8679000D02*
X24091000Y-8679000D01*
X24564000Y-4585000D02*
X24694000Y-4715000D01*
X24694000Y-4585000D02*
X24564000Y-4715000D01*
X24629000Y-4585000D02*
X24629000Y-4715000D01*
X24564000Y-4650000D02*
X24694000Y-4650000D01*
X24635000Y-8612000D02*
X24765000Y-8742000D01*
X24765000Y-8612000D02*
X24635000Y-8742000D01*
X24700000Y-8612000D02*
X24700000Y-8742000D01*
X24635000Y-8677000D02*
X24765000Y-8677000D01*
X25042000Y-10801000D02*
X25172000Y-10931000D01*
X25172000Y-10801000D02*
X25042000Y-10931000D01*
X25107000Y-10801000D02*
X25107000Y-10931000D01*
X25042000Y-10866000D02*
X25172000Y-10866000D01*
X25072000Y-4585000D02*
X25202000Y-4715000D01*
X25202000Y-4585000D02*
X25072000Y-4715000D01*
X25137000Y-4585000D02*
X25137000Y-4715000D01*
X25072000Y-4650000D02*
X25202000Y-4650000D01*
X25143000Y-8612000D02*
X25273000Y-8742000D01*
X25273000Y-8612000D02*
X25143000Y-8742000D01*
X25208000Y-8612000D02*
X25208000Y-8742000D01*
X25143000Y-8677000D02*
X25273000Y-8677000D01*
X25550000Y-10801000D02*
X25680000Y-10931000D01*
X25680000Y-10801000D02*
X25550000Y-10931000D01*
X25615000Y-10801000D02*
X25615000Y-10931000D01*
X25550000Y-10866000D02*
X25680000Y-10866000D01*
X25580000Y-4585000D02*
X25710000Y-4715000D01*
X25710000Y-4585000D02*
X25580000Y-4715000D01*
X25645000Y-4585000D02*
X25645000Y-4715000D01*
X25580000Y-4650000D02*
X25710000Y-4650000D01*
X26088000Y-4585000D02*
X26218000Y-4715000D01*
X26218000Y-4585000D02*
X26088000Y-4715000D01*
X26153000Y-4585000D02*
X26153000Y-4715000D01*
X26088000Y-4650000D02*
X26218000Y-4650000D01*
X27347000Y-7707000D02*
X27477000Y-7837000D01*
X27477000Y-7707000D02*
X27347000Y-7837000D01*
X27412000Y-7707000D02*
X27412000Y-7837000D01*
X27347000Y-7772000D02*
X27477000Y-7772000D01*
X27347000Y-8215000D02*
X27477000Y-8345000D01*
X27477000Y-8215000D02*
X27347000Y-8345000D01*
X27412000Y-8215000D02*
X27412000Y-8345000D01*
X27347000Y-8280000D02*
X27477000Y-8280000D01*
X27347000Y-8723000D02*
X27477000Y-8853000D01*
X27477000Y-8723000D02*
X27347000Y-8853000D01*
X27412000Y-8723000D02*
X27412000Y-8853000D01*
X27347000Y-8788000D02*
X27477000Y-8788000D01*
X27416000Y-9340000D02*
X27546000Y-9470000D01*
X27546000Y-9340000D02*
X27416000Y-9470000D01*
X27481000Y-9340000D02*
X27481000Y-9470000D01*
X27416000Y-9405000D02*
X27546000Y-9405000D01*
X27416000Y-9848000D02*
X27546000Y-9978000D01*
X27546000Y-9848000D02*
X27416000Y-9978000D01*
X27481000Y-9848000D02*
X27481000Y-9978000D01*
X27416000Y-9913000D02*
X27546000Y-9913000D01*
X16538000Y-8028000D02*
X16698000Y-8188000D01*
X16698000Y-8028000D02*
X16538000Y-8188000D01*
X16674569Y-8164569D02*
X16674569Y-8051431D01*
X16561431Y-8051431D01*
X16561431Y-8164569D01*
X16674569Y-8164569D01*
X16538000Y-9020000D02*
X16698000Y-9180000D01*
X16698000Y-9020000D02*
X16538000Y-9180000D01*
X16674569Y-9156569D02*
X16674569Y-9043431D01*
X16561431Y-9043431D01*
X16561431Y-9156569D01*
X16674569Y-9156569D01*
X16878000Y-8028000D02*
X17038000Y-8188000D01*
X17038000Y-8028000D02*
X16878000Y-8188000D01*
X17014569Y-8164569D02*
X17014569Y-8051431D01*
X16901431Y-8051431D01*
X16901431Y-8164569D01*
X17014569Y-8164569D01*
X16878000Y-9020000D02*
X17038000Y-9180000D01*
X17038000Y-9020000D02*
X16878000Y-9180000D01*
X17014569Y-9156569D02*
X17014569Y-9043431D01*
X16901431Y-9043431D01*
X16901431Y-9156569D01*
X17014569Y-9156569D01*
X17851000Y-9973000D02*
X18011000Y-10133000D01*
X18011000Y-9973000D02*
X17851000Y-10133000D01*
X17987569Y-10109569D02*
X17987569Y-9996431D01*
X17874431Y-9996431D01*
X17874431Y-10109569D01*
X17987569Y-10109569D01*
X17851000Y-10965000D02*
X18011000Y-11125000D01*
X18011000Y-10965000D02*
X17851000Y-11125000D01*
X17987569Y-11101569D02*
X17987569Y-10988431D01*
X17874431Y-10988431D01*
X17874431Y-11101569D01*
X17987569Y-11101569D01*
X18191000Y-9973000D02*
X18351000Y-10133000D01*
X18351000Y-9973000D02*
X18191000Y-10133000D01*
X18327569Y-10109569D02*
X18327569Y-9996431D01*
X18214431Y-9996431D01*
X18214431Y-10109569D01*
X18327569Y-10109569D01*
X18191000Y-10965000D02*
X18351000Y-11125000D01*
X18351000Y-10965000D02*
X18191000Y-11125000D01*
X18327569Y-11101569D02*
X18327569Y-10988431D01*
X18214431Y-10988431D01*
X18214431Y-11101569D01*
X18327569Y-11101569D01*
X21030000Y-9972000D02*
X21190000Y-10132000D01*
X21190000Y-9972000D02*
X21030000Y-10132000D01*
X21166569Y-10108569D02*
X21166569Y-9995431D01*
X21053431Y-9995431D01*
X21053431Y-10108569D01*
X21166569Y-10108569D01*
X21030000Y-10964000D02*
X21190000Y-11124000D01*
X21190000Y-10964000D02*
X21030000Y-11124000D01*
X21166569Y-11100569D02*
X21166569Y-10987431D01*
X21053431Y-10987431D01*
X21053431Y-11100569D01*
X21166569Y-11100569D01*
X21370000Y-9972000D02*
X21530000Y-10132000D01*
X21530000Y-9972000D02*
X21370000Y-10132000D01*
X21506569Y-10108569D02*
X21506569Y-9995431D01*
X21393431Y-9995431D01*
X21393431Y-10108569D01*
X21506569Y-10108569D01*
X21370000Y-10964000D02*
X21530000Y-11124000D01*
X21530000Y-10964000D02*
X21370000Y-11124000D01*
X21506569Y-11100569D02*
X21506569Y-10987431D01*
X21393431Y-10987431D01*
X21393431Y-11100569D01*
X21506569Y-11100569D01*
X22559000Y-7794000D02*
X22719000Y-7954000D01*
X22719000Y-7794000D02*
X22559000Y-7954000D01*
X22695569Y-7930569D02*
X22695569Y-7817431D01*
X22582431Y-7817431D01*
X22582431Y-7930569D01*
X22695569Y-7930569D01*
X22559000Y-8786000D02*
X22719000Y-8946000D01*
X22719000Y-8786000D02*
X22559000Y-8946000D01*
X22695569Y-8922569D02*
X22695569Y-8809431D01*
X22582431Y-8809431D01*
X22582431Y-8922569D01*
X22695569Y-8922569D01*
X22899000Y-7794000D02*
X23059000Y-7954000D01*
X23059000Y-7794000D02*
X22899000Y-7954000D01*
X23035569Y-7930569D02*
X23035569Y-7817431D01*
X22922431Y-7817431D01*
X22922431Y-7930569D01*
X23035569Y-7930569D01*
X22899000Y-8786000D02*
X23059000Y-8946000D01*
X23059000Y-8786000D02*
X22899000Y-8946000D01*
X23035569Y-8922569D02*
X23035569Y-8809431D01*
X22922431Y-8809431D01*
X22922431Y-8922569D01*
X23035569Y-8922569D01*
X24178000Y-9978000D02*
X24338000Y-10138000D01*
X24338000Y-9978000D02*
X24178000Y-10138000D01*
X24314569Y-10114569D02*
X24314569Y-10001431D01*
X24201431Y-10001431D01*
X24201431Y-10114569D01*
X24314569Y-10114569D01*
X24178000Y-10970000D02*
X24338000Y-11130000D01*
X24338000Y-10970000D02*
X24178000Y-11130000D01*
X24314569Y-11106569D02*
X24314569Y-10993431D01*
X24201431Y-10993431D01*
X24201431Y-11106569D01*
X24314569Y-11106569D01*
X24518000Y-9978000D02*
X24678000Y-10138000D01*
X24678000Y-9978000D02*
X24518000Y-10138000D01*
X24654569Y-10114569D02*
X24654569Y-10001431D01*
X24541431Y-10001431D01*
X24541431Y-10114569D01*
X24654569Y-10114569D01*
X24518000Y-10970000D02*
X24678000Y-11130000D01*
X24678000Y-10970000D02*
X24518000Y-11130000D01*
X24654569Y-11106569D02*
X24654569Y-10993431D01*
X24541431Y-10993431D01*
X24541431Y-11106569D01*
X24654569Y-11106569D01*
X25661000Y-8535000D02*
X25821000Y-8695000D01*
X25821000Y-8535000D02*
X25661000Y-8695000D01*
X25797569Y-8671569D02*
X25797569Y-8558431D01*
X25684431Y-8558431D01*
X25684431Y-8671569D01*
X25797569Y-8671569D01*
X25661000Y-9527000D02*
X25821000Y-9687000D01*
X25821000Y-9527000D02*
X25661000Y-9687000D01*
X25797569Y-9663569D02*
X25797569Y-9550431D01*
X25684431Y-9550431D01*
X25684431Y-9663569D01*
X25797569Y-9663569D01*
X26001000Y-8535000D02*
X26161000Y-8695000D01*
X26161000Y-8535000D02*
X26001000Y-8695000D01*
X26137569Y-8671569D02*
X26137569Y-8558431D01*
X26024431Y-8558431D01*
X26024431Y-8671569D01*
X26137569Y-8671569D01*
X26001000Y-9527000D02*
X26161000Y-9687000D01*
X26161000Y-9527000D02*
X26001000Y-9687000D01*
X26137569Y-9663569D02*
X26137569Y-9550431D01*
X26024431Y-9550431D01*
X26024431Y-9663569D01*
X26137569Y-9663569D01*
X10180000Y-6547000D02*
X10410000Y-6777000D01*
X10410000Y-6547000D02*
X10180000Y-6777000D01*
X10295000Y-6777000D02*
X10410000Y-6662000D01*
X10295000Y-6547000D01*
X10180000Y-6662000D01*
X10295000Y-6777000D01*
X10180000Y-9131000D02*
X10410000Y-9361000D01*
X10410000Y-9131000D02*
X10180000Y-9361000D01*
X10295000Y-9361000D02*
X10410000Y-9246000D01*
X10295000Y-9131000D01*
X10180000Y-9246000D01*
X10295000Y-9361000D01*
X10980000Y-6547000D02*
X11210000Y-6777000D01*
X11210000Y-6547000D02*
X10980000Y-6777000D01*
X11095000Y-6777000D02*
X11210000Y-6662000D01*
X11095000Y-6547000D01*
X10980000Y-6662000D01*
X11095000Y-6777000D01*
X10980000Y-9131000D02*
X11210000Y-9361000D01*
X11210000Y-9131000D02*
X10980000Y-9361000D01*
X11095000Y-9361000D02*
X11210000Y-9246000D01*
X11095000Y-9131000D01*
X10980000Y-9246000D01*
X11095000Y-9361000D01*
X11020000Y-5702000D02*
X11250000Y-5932000D01*
X11250000Y-5702000D02*
X11020000Y-5932000D01*
X11135000Y-5932000D02*
X11250000Y-5817000D01*
X11135000Y-5702000D01*
X11020000Y-5817000D01*
X11135000Y-5932000D01*
X11020000Y-7392000D02*
X11250000Y-7622000D01*
X11250000Y-7392000D02*
X11020000Y-7622000D01*
X11135000Y-7622000D02*
X11250000Y-7507000D01*
X11135000Y-7392000D01*
X11020000Y-7507000D01*
X11135000Y-7622000D01*
X11020000Y-8286000D02*
X11250000Y-8516000D01*
X11250000Y-8286000D02*
X11020000Y-8516000D01*
X11135000Y-8516000D02*
X11250000Y-8401000D01*
X11135000Y-8286000D01*
X11020000Y-8401000D01*
X11135000Y-8516000D01*
X11020000Y-9976000D02*
X11250000Y-10206000D01*
X11250000Y-9976000D02*
X11020000Y-10206000D01*
X11135000Y-10206000D02*
X11250000Y-10091000D01*
X11135000Y-9976000D01*
X11020000Y-10091000D01*
X11135000Y-10206000D01*
X11970000Y-6547000D02*
X12200000Y-6777000D01*
X12200000Y-6547000D02*
X11970000Y-6777000D01*
X12085000Y-6777000D02*
X12200000Y-6662000D01*
X12085000Y-6547000D01*
X11970000Y-6662000D01*
X12085000Y-6777000D01*
X11970000Y-9131000D02*
X12200000Y-9361000D01*
X12200000Y-9131000D02*
X11970000Y-9361000D01*
X12085000Y-9361000D02*
X12200000Y-9246000D01*
X12085000Y-9131000D01*
X11970000Y-9246000D01*
X12085000Y-9361000D01*
X13019000Y-6546000D02*
X13249000Y-6776000D01*
X13249000Y-6546000D02*
X13019000Y-6776000D01*
X13134000Y-6776000D02*
X13249000Y-6661000D01*
X13134000Y-6546000D01*
X13019000Y-6661000D01*
X13134000Y-6776000D01*
X13024000Y-9133000D02*
X13254000Y-9363000D01*
X13254000Y-9133000D02*
X13024000Y-9363000D01*
X13139000Y-9363000D02*
X13254000Y-9248000D01*
X13139000Y-9133000D01*
X13024000Y-9248000D01*
X13139000Y-9363000D01*
X13819000Y-6546000D02*
X14049000Y-6776000D01*
X14049000Y-6546000D02*
X13819000Y-6776000D01*
X13934000Y-6776000D02*
X14049000Y-6661000D01*
X13934000Y-6546000D01*
X13819000Y-6661000D01*
X13934000Y-6776000D01*
X13824000Y-9133000D02*
X14054000Y-9363000D01*
X14054000Y-9133000D02*
X13824000Y-9363000D01*
X13939000Y-9363000D02*
X14054000Y-9248000D01*
X13939000Y-9133000D01*
X13824000Y-9248000D01*
X13939000Y-9363000D01*
X13859000Y-5701000D02*
X14089000Y-5931000D01*
X14089000Y-5701000D02*
X13859000Y-5931000D01*
X13974000Y-5931000D02*
X14089000Y-5816000D01*
X13974000Y-5701000D01*
X13859000Y-5816000D01*
X13974000Y-5931000D01*
X13859000Y-7391000D02*
X14089000Y-7621000D01*
X14089000Y-7391000D02*
X13859000Y-7621000D01*
X13974000Y-7621000D02*
X14089000Y-7506000D01*
X13974000Y-7391000D01*
X13859000Y-7506000D01*
X13974000Y-7621000D01*
X13864000Y-8288000D02*
X14094000Y-8518000D01*
X14094000Y-8288000D02*
X13864000Y-8518000D01*
X13979000Y-8518000D02*
X14094000Y-8403000D01*
X13979000Y-8288000D01*
X13864000Y-8403000D01*
X13979000Y-8518000D01*
X13864000Y-9978000D02*
X14094000Y-10208000D01*
X14094000Y-9978000D02*
X13864000Y-10208000D01*
X13979000Y-10208000D02*
X14094000Y-10093000D01*
X13979000Y-9978000D01*
X13864000Y-10093000D01*
X13979000Y-10208000D01*
X14809000Y-6546000D02*
X15039000Y-6776000D01*
X15039000Y-6546000D02*
X14809000Y-6776000D01*
X14924000Y-6776000D02*
X15039000Y-6661000D01*
X14924000Y-6546000D01*
X14809000Y-6661000D01*
X14924000Y-6776000D01*
X14814000Y-9133000D02*
X15044000Y-9363000D01*
X15044000Y-9133000D02*
X14814000Y-9363000D01*
X14929000Y-9363000D02*
X15044000Y-9248000D01*
X14929000Y-9133000D01*
X14814000Y-9248000D01*
X14929000Y-9363000D01*
D12*
X4233928Y-11896214D02*
X4233928Y-11596214D01*
X4305357Y-11596214D01*
X4348214Y-11610500D01*
X4376786Y-11639071D01*
X4391071Y-11667643D01*
X4405357Y-11724786D01*
X4405357Y-11767643D01*
X4391071Y-11824786D01*
X4376786Y-11853357D01*
X4348214Y-11881929D01*
X4305357Y-11896214D01*
X4233928Y-11896214D01*
X4533928Y-11896214D02*
X4533928Y-11696214D01*
X4533928Y-11753357D02*
X4548214Y-11724786D01*
X4562500Y-11710500D01*
X4591071Y-11696214D01*
X4619643Y-11696214D01*
X4719643Y-11896214D02*
X4719643Y-11696214D01*
X4719643Y-11596214D02*
X4705357Y-11610500D01*
X4719643Y-11624786D01*
X4733928Y-11610500D01*
X4719643Y-11596214D01*
X4719643Y-11624786D01*
X4905357Y-11896214D02*
X4876786Y-11881929D01*
X4862500Y-11853357D01*
X4862500Y-11596214D01*
X5062500Y-11896214D02*
X5033928Y-11881929D01*
X5019643Y-11853357D01*
X5019643Y-11596214D01*
X5405357Y-11896214D02*
X5405357Y-11596214D01*
X5505357Y-11810500D01*
X5605357Y-11596214D01*
X5605357Y-11896214D01*
X5876786Y-11896214D02*
X5876786Y-11739071D01*
X5862500Y-11710500D01*
X5833928Y-11696214D01*
X5776786Y-11696214D01*
X5748214Y-11710500D01*
X5876786Y-11881929D02*
X5848214Y-11896214D01*
X5776786Y-11896214D01*
X5748214Y-11881929D01*
X5733928Y-11853357D01*
X5733928Y-11824786D01*
X5748214Y-11796214D01*
X5776786Y-11781929D01*
X5848214Y-11781929D01*
X5876786Y-11767643D01*
X6019643Y-11696214D02*
X6019643Y-11996214D01*
X6019643Y-11710500D02*
X6048214Y-11696214D01*
X6105357Y-11696214D01*
X6133928Y-11710500D01*
X6148214Y-11724786D01*
X6162500Y-11753357D01*
X6162500Y-11839071D01*
X6148214Y-11867643D01*
X6133928Y-11881929D01*
X6105357Y-11896214D01*
X6048214Y-11896214D01*
X6019643Y-11881929D01*
X6291071Y-11867643D02*
X6305357Y-11881929D01*
X6291071Y-11896214D01*
X6276786Y-11881929D01*
X6291071Y-11867643D01*
X6291071Y-11896214D01*
X6291071Y-11710500D02*
X6305357Y-11724786D01*
X6291071Y-11739071D01*
X6276786Y-11724786D01*
X6291071Y-11710500D01*
X6291071Y-11739071D01*
X3870500Y-12352000D02*
X3947500Y-12429000D01*
X3947500Y-12352000D02*
X3870500Y-12429000D01*
X4291071Y-12226214D02*
X4319643Y-12226214D01*
X4348214Y-12240500D01*
X4362500Y-12254786D01*
X4376786Y-12283357D01*
X4391071Y-12340500D01*
X4391071Y-12411929D01*
X4376786Y-12469071D01*
X4362500Y-12497643D01*
X4348214Y-12511929D01*
X4319643Y-12526214D01*
X4291071Y-12526214D01*
X4262500Y-12511929D01*
X4248214Y-12497643D01*
X4233928Y-12469071D01*
X4219643Y-12411929D01*
X4219643Y-12340500D01*
X4233928Y-12283357D01*
X4248214Y-12254786D01*
X4262500Y-12240500D01*
X4291071Y-12226214D01*
X4519643Y-12497643D02*
X4533928Y-12511929D01*
X4519643Y-12526214D01*
X4505357Y-12511929D01*
X4519643Y-12497643D01*
X4519643Y-12526214D01*
X4633928Y-12226214D02*
X4833928Y-12226214D01*
X4705357Y-12526214D01*
X4919643Y-12226214D02*
X5119643Y-12226214D01*
X4991071Y-12526214D01*
X5233928Y-12526214D02*
X5233928Y-12326214D01*
X5233928Y-12354786D02*
X5248214Y-12340500D01*
X5276786Y-12326214D01*
X5319643Y-12326214D01*
X5348214Y-12340500D01*
X5362500Y-12369071D01*
X5362500Y-12526214D01*
X5362500Y-12369071D02*
X5376786Y-12340500D01*
X5405357Y-12326214D01*
X5448214Y-12326214D01*
X5476786Y-12340500D01*
X5491071Y-12369071D01*
X5491071Y-12526214D01*
X5633928Y-12526214D02*
X5633928Y-12326214D01*
X5633928Y-12354786D02*
X5648214Y-12340500D01*
X5676786Y-12326214D01*
X5719643Y-12326214D01*
X5748214Y-12340500D01*
X5762500Y-12369071D01*
X5762500Y-12526214D01*
X5762500Y-12369071D02*
X5776786Y-12340500D01*
X5805357Y-12326214D01*
X5848214Y-12326214D01*
X5876786Y-12340500D01*
X5891071Y-12369071D01*
X5891071Y-12526214D01*
X6476786Y-12211929D02*
X6219643Y-12597643D01*
X6862500Y-12226214D02*
X6891071Y-12226214D01*
X6919643Y-12240500D01*
X6933928Y-12254786D01*
X6948214Y-12283357D01*
X6962500Y-12340500D01*
X6962500Y-12411929D01*
X6948214Y-12469071D01*
X6933928Y-12497643D01*
X6919643Y-12511929D01*
X6891071Y-12526214D01*
X6862500Y-12526214D01*
X6833928Y-12511929D01*
X6819643Y-12497643D01*
X6805357Y-12469071D01*
X6791071Y-12411929D01*
X6791071Y-12340500D01*
X6805357Y-12283357D01*
X6819643Y-12254786D01*
X6833928Y-12240500D01*
X6862500Y-12226214D01*
X7091071Y-12497643D02*
X7105357Y-12511929D01*
X7091071Y-12526214D01*
X7076786Y-12511929D01*
X7091071Y-12497643D01*
X7091071Y-12526214D01*
X7291071Y-12226214D02*
X7319643Y-12226214D01*
X7348214Y-12240500D01*
X7362500Y-12254786D01*
X7376786Y-12283357D01*
X7391071Y-12340500D01*
X7391071Y-12411929D01*
X7376786Y-12469071D01*
X7362500Y-12497643D01*
X7348214Y-12511929D01*
X7319643Y-12526214D01*
X7291071Y-12526214D01*
X7262500Y-12511929D01*
X7248214Y-12497643D01*
X7233928Y-12469071D01*
X7219643Y-12411929D01*
X7219643Y-12340500D01*
X7233928Y-12283357D01*
X7248214Y-12254786D01*
X7262500Y-12240500D01*
X7291071Y-12226214D01*
X7491071Y-12226214D02*
X7676786Y-12226214D01*
X7576786Y-12340500D01*
X7619643Y-12340500D01*
X7648214Y-12354786D01*
X7662500Y-12369071D01*
X7676786Y-12397643D01*
X7676786Y-12469071D01*
X7662500Y-12497643D01*
X7648214Y-12511929D01*
X7619643Y-12526214D01*
X7533928Y-12526214D01*
X7505357Y-12511929D01*
X7491071Y-12497643D01*
X7862500Y-12226214D02*
X7891071Y-12226214D01*
X7919643Y-12240500D01*
X7933928Y-12254786D01*
X7948214Y-12283357D01*
X7962500Y-12340500D01*
X7962500Y-12411929D01*
X7948214Y-12469071D01*
X7933928Y-12497643D01*
X7919643Y-12511929D01*
X7891071Y-12526214D01*
X7862500Y-12526214D01*
X7833928Y-12511929D01*
X7819643Y-12497643D01*
X7805357Y-12469071D01*
X7791071Y-12411929D01*
X7791071Y-12340500D01*
X7805357Y-12283357D01*
X7819643Y-12254786D01*
X7833928Y-12240500D01*
X7862500Y-12226214D01*
X8076786Y-12226214D02*
X8076786Y-12283357D01*
X8191071Y-12226214D02*
X8191071Y-12283357D01*
X8633928Y-12640500D02*
X8619643Y-12626214D01*
X8591071Y-12583357D01*
X8576786Y-12554786D01*
X8562500Y-12511929D01*
X8548214Y-12440500D01*
X8548214Y-12383357D01*
X8562500Y-12311929D01*
X8576786Y-12269071D01*
X8591071Y-12240500D01*
X8619643Y-12197643D01*
X8633928Y-12183357D01*
X8733928Y-12254786D02*
X8748214Y-12240500D01*
X8776786Y-12226214D01*
X8848214Y-12226214D01*
X8876786Y-12240500D01*
X8891071Y-12254786D01*
X8905357Y-12283357D01*
X8905357Y-12311929D01*
X8891071Y-12354786D01*
X8719643Y-12526214D01*
X8905357Y-12526214D01*
X9076786Y-12354786D02*
X9048214Y-12340500D01*
X9033928Y-12326214D01*
X9019643Y-12297643D01*
X9019643Y-12283357D01*
X9033928Y-12254786D01*
X9048214Y-12240500D01*
X9076786Y-12226214D01*
X9133928Y-12226214D01*
X9162500Y-12240500D01*
X9176786Y-12254786D01*
X9191071Y-12283357D01*
X9191071Y-12297643D01*
X9176786Y-12326214D01*
X9162500Y-12340500D01*
X9133928Y-12354786D01*
X9076786Y-12354786D01*
X9048214Y-12369071D01*
X9033928Y-12383357D01*
X9019643Y-12411929D01*
X9019643Y-12469071D01*
X9033928Y-12497643D01*
X9048214Y-12511929D01*
X9076786Y-12526214D01*
X9133928Y-12526214D01*
X9162500Y-12511929D01*
X9176786Y-12497643D01*
X9191071Y-12469071D01*
X9191071Y-12411929D01*
X9176786Y-12383357D01*
X9162500Y-12369071D01*
X9133928Y-12354786D01*
X9548214Y-12526214D02*
X9548214Y-12226214D01*
X9676786Y-12526214D02*
X9676786Y-12369071D01*
X9662500Y-12340500D01*
X9633928Y-12326214D01*
X9591071Y-12326214D01*
X9562500Y-12340500D01*
X9548214Y-12354786D01*
X9862500Y-12526214D02*
X9833928Y-12511929D01*
X9819643Y-12497643D01*
X9805357Y-12469071D01*
X9805357Y-12383357D01*
X9819643Y-12354786D01*
X9833928Y-12340500D01*
X9862500Y-12326214D01*
X9905357Y-12326214D01*
X9933928Y-12340500D01*
X9948214Y-12354786D01*
X9962500Y-12383357D01*
X9962500Y-12469071D01*
X9948214Y-12497643D01*
X9933928Y-12511929D01*
X9905357Y-12526214D01*
X9862500Y-12526214D01*
X10133928Y-12526214D02*
X10105357Y-12511929D01*
X10091071Y-12483357D01*
X10091071Y-12226214D01*
X10362500Y-12511929D02*
X10333928Y-12526214D01*
X10276786Y-12526214D01*
X10248214Y-12511929D01*
X10233928Y-12483357D01*
X10233928Y-12369071D01*
X10248214Y-12340500D01*
X10276786Y-12326214D01*
X10333928Y-12326214D01*
X10362500Y-12340500D01*
X10376786Y-12369071D01*
X10376786Y-12397643D01*
X10233928Y-12426214D01*
X10491071Y-12511929D02*
X10519643Y-12526214D01*
X10576786Y-12526214D01*
X10605357Y-12511929D01*
X10619643Y-12483357D01*
X10619643Y-12469071D01*
X10605357Y-12440500D01*
X10576786Y-12426214D01*
X10533928Y-12426214D01*
X10505357Y-12411929D01*
X10491071Y-12383357D01*
X10491071Y-12369071D01*
X10505357Y-12340500D01*
X10533928Y-12326214D01*
X10576786Y-12326214D01*
X10605357Y-12340500D01*
X10719643Y-12640500D02*
X10733928Y-12626214D01*
X10762500Y-12583357D01*
X10776786Y-12554786D01*
X10791071Y-12511929D01*
X10805357Y-12440500D01*
X10805357Y-12383357D01*
X10791071Y-12311929D01*
X10776786Y-12269071D01*
X10762500Y-12240500D01*
X10733928Y-12197643D01*
X10719643Y-12183357D01*
X3947500Y-12786500D02*
G75*
G03*
X3947500Y-12786500I-40000J0D01*
G01*
X4291071Y-12622214D02*
X4319643Y-12622214D01*
X4348214Y-12636500D01*
X4362500Y-12650786D01*
X4376786Y-12679357D01*
X4391071Y-12736500D01*
X4391071Y-12807929D01*
X4376786Y-12865071D01*
X4362500Y-12893643D01*
X4348214Y-12907929D01*
X4319643Y-12922214D01*
X4291071Y-12922214D01*
X4262500Y-12907929D01*
X4248214Y-12893643D01*
X4233928Y-12865071D01*
X4219643Y-12807929D01*
X4219643Y-12736500D01*
X4233928Y-12679357D01*
X4248214Y-12650786D01*
X4262500Y-12636500D01*
X4291071Y-12622214D01*
X4519643Y-12893643D02*
X4533928Y-12907929D01*
X4519643Y-12922214D01*
X4505357Y-12907929D01*
X4519643Y-12893643D01*
X4519643Y-12922214D01*
X4705357Y-12750786D02*
X4676786Y-12736500D01*
X4662500Y-12722214D01*
X4648214Y-12693643D01*
X4648214Y-12679357D01*
X4662500Y-12650786D01*
X4676786Y-12636500D01*
X4705357Y-12622214D01*
X4762500Y-12622214D01*
X4791071Y-12636500D01*
X4805357Y-12650786D01*
X4819643Y-12679357D01*
X4819643Y-12693643D01*
X4805357Y-12722214D01*
X4791071Y-12736500D01*
X4762500Y-12750786D01*
X4705357Y-12750786D01*
X4676786Y-12765071D01*
X4662500Y-12779357D01*
X4648214Y-12807929D01*
X4648214Y-12865071D01*
X4662500Y-12893643D01*
X4676786Y-12907929D01*
X4705357Y-12922214D01*
X4762500Y-12922214D01*
X4791071Y-12907929D01*
X4805357Y-12893643D01*
X4819643Y-12865071D01*
X4819643Y-12807929D01*
X4805357Y-12779357D01*
X4791071Y-12765071D01*
X4762500Y-12750786D01*
X5005357Y-12622214D02*
X5033928Y-12622214D01*
X5062500Y-12636500D01*
X5076786Y-12650786D01*
X5091071Y-12679357D01*
X5105357Y-12736500D01*
X5105357Y-12807929D01*
X5091071Y-12865071D01*
X5076786Y-12893643D01*
X5062500Y-12907929D01*
X5033928Y-12922214D01*
X5005357Y-12922214D01*
X4976786Y-12907929D01*
X4962500Y-12893643D01*
X4948214Y-12865071D01*
X4933928Y-12807929D01*
X4933928Y-12736500D01*
X4948214Y-12679357D01*
X4962500Y-12650786D01*
X4976786Y-12636500D01*
X5005357Y-12622214D01*
X5233928Y-12922214D02*
X5233928Y-12722214D01*
X5233928Y-12750786D02*
X5248214Y-12736500D01*
X5276786Y-12722214D01*
X5319643Y-12722214D01*
X5348214Y-12736500D01*
X5362500Y-12765071D01*
X5362500Y-12922214D01*
X5362500Y-12765071D02*
X5376786Y-12736500D01*
X5405357Y-12722214D01*
X5448214Y-12722214D01*
X5476786Y-12736500D01*
X5491071Y-12765071D01*
X5491071Y-12922214D01*
X5633928Y-12922214D02*
X5633928Y-12722214D01*
X5633928Y-12750786D02*
X5648214Y-12736500D01*
X5676786Y-12722214D01*
X5719643Y-12722214D01*
X5748214Y-12736500D01*
X5762500Y-12765071D01*
X5762500Y-12922214D01*
X5762500Y-12765071D02*
X5776786Y-12736500D01*
X5805357Y-12722214D01*
X5848214Y-12722214D01*
X5876786Y-12736500D01*
X5891071Y-12765071D01*
X5891071Y-12922214D01*
X6476786Y-12607929D02*
X6219643Y-12993643D01*
X6862500Y-12622214D02*
X6891071Y-12622214D01*
X6919643Y-12636500D01*
X6933928Y-12650786D01*
X6948214Y-12679357D01*
X6962500Y-12736500D01*
X6962500Y-12807929D01*
X6948214Y-12865071D01*
X6933928Y-12893643D01*
X6919643Y-12907929D01*
X6891071Y-12922214D01*
X6862500Y-12922214D01*
X6833928Y-12907929D01*
X6819643Y-12893643D01*
X6805357Y-12865071D01*
X6791071Y-12807929D01*
X6791071Y-12736500D01*
X6805357Y-12679357D01*
X6819643Y-12650786D01*
X6833928Y-12636500D01*
X6862500Y-12622214D01*
X7091071Y-12893643D02*
X7105357Y-12907929D01*
X7091071Y-12922214D01*
X7076786Y-12907929D01*
X7091071Y-12893643D01*
X7091071Y-12922214D01*
X7291071Y-12622214D02*
X7319643Y-12622214D01*
X7348214Y-12636500D01*
X7362500Y-12650786D01*
X7376786Y-12679357D01*
X7391071Y-12736500D01*
X7391071Y-12807929D01*
X7376786Y-12865071D01*
X7362500Y-12893643D01*
X7348214Y-12907929D01*
X7319643Y-12922214D01*
X7291071Y-12922214D01*
X7262500Y-12907929D01*
X7248214Y-12893643D01*
X7233928Y-12865071D01*
X7219643Y-12807929D01*
X7219643Y-12736500D01*
X7233928Y-12679357D01*
X7248214Y-12650786D01*
X7262500Y-12636500D01*
X7291071Y-12622214D01*
X7491071Y-12622214D02*
X7676786Y-12622214D01*
X7576786Y-12736500D01*
X7619643Y-12736500D01*
X7648214Y-12750786D01*
X7662500Y-12765071D01*
X7676786Y-12793643D01*
X7676786Y-12865071D01*
X7662500Y-12893643D01*
X7648214Y-12907929D01*
X7619643Y-12922214D01*
X7533928Y-12922214D01*
X7505357Y-12907929D01*
X7491071Y-12893643D01*
X7962500Y-12922214D02*
X7791071Y-12922214D01*
X7876786Y-12922214D02*
X7876786Y-12622214D01*
X7848214Y-12665071D01*
X7819643Y-12693643D01*
X7791071Y-12707929D01*
X8076786Y-12622214D02*
X8076786Y-12679357D01*
X8191071Y-12622214D02*
X8191071Y-12679357D01*
X8633928Y-13036500D02*
X8619643Y-13022214D01*
X8591071Y-12979357D01*
X8576786Y-12950786D01*
X8562500Y-12907929D01*
X8548214Y-12836500D01*
X8548214Y-12779357D01*
X8562500Y-12707929D01*
X8576786Y-12665071D01*
X8591071Y-12636500D01*
X8619643Y-12593643D01*
X8633928Y-12579357D01*
X8791071Y-12750786D02*
X8762500Y-12736500D01*
X8748214Y-12722214D01*
X8733928Y-12693643D01*
X8733928Y-12679357D01*
X8748214Y-12650786D01*
X8762500Y-12636500D01*
X8791071Y-12622214D01*
X8848214Y-12622214D01*
X8876786Y-12636500D01*
X8891071Y-12650786D01*
X8905357Y-12679357D01*
X8905357Y-12693643D01*
X8891071Y-12722214D01*
X8876786Y-12736500D01*
X8848214Y-12750786D01*
X8791071Y-12750786D01*
X8762500Y-12765071D01*
X8748214Y-12779357D01*
X8733928Y-12807929D01*
X8733928Y-12865071D01*
X8748214Y-12893643D01*
X8762500Y-12907929D01*
X8791071Y-12922214D01*
X8848214Y-12922214D01*
X8876786Y-12907929D01*
X8891071Y-12893643D01*
X8905357Y-12865071D01*
X8905357Y-12807929D01*
X8891071Y-12779357D01*
X8876786Y-12765071D01*
X8848214Y-12750786D01*
X9162500Y-12722214D02*
X9162500Y-12922214D01*
X9091071Y-12607929D02*
X9019643Y-12822214D01*
X9205357Y-12822214D01*
X9548214Y-12922214D02*
X9548214Y-12622214D01*
X9676786Y-12922214D02*
X9676786Y-12765071D01*
X9662500Y-12736500D01*
X9633928Y-12722214D01*
X9591071Y-12722214D01*
X9562500Y-12736500D01*
X9548214Y-12750786D01*
X9862500Y-12922214D02*
X9833928Y-12907929D01*
X9819643Y-12893643D01*
X9805357Y-12865071D01*
X9805357Y-12779357D01*
X9819643Y-12750786D01*
X9833928Y-12736500D01*
X9862500Y-12722214D01*
X9905357Y-12722214D01*
X9933928Y-12736500D01*
X9948214Y-12750786D01*
X9962500Y-12779357D01*
X9962500Y-12865071D01*
X9948214Y-12893643D01*
X9933928Y-12907929D01*
X9905357Y-12922214D01*
X9862500Y-12922214D01*
X10133928Y-12922214D02*
X10105357Y-12907929D01*
X10091071Y-12879357D01*
X10091071Y-12622214D01*
X10362500Y-12907929D02*
X10333928Y-12922214D01*
X10276786Y-12922214D01*
X10248214Y-12907929D01*
X10233928Y-12879357D01*
X10233928Y-12765071D01*
X10248214Y-12736500D01*
X10276786Y-12722214D01*
X10333928Y-12722214D01*
X10362500Y-12736500D01*
X10376786Y-12765071D01*
X10376786Y-12793643D01*
X10233928Y-12822214D01*
X10491071Y-12907929D02*
X10519643Y-12922214D01*
X10576786Y-12922214D01*
X10605357Y-12907929D01*
X10619643Y-12879357D01*
X10619643Y-12865071D01*
X10605357Y-12836500D01*
X10576786Y-12822214D01*
X10533928Y-12822214D01*
X10505357Y-12807929D01*
X10491071Y-12779357D01*
X10491071Y-12765071D01*
X10505357Y-12736500D01*
X10533928Y-12722214D01*
X10576786Y-12722214D01*
X10605357Y-12736500D01*
X10719643Y-13036500D02*
X10733928Y-13022214D01*
X10762500Y-12979357D01*
X10776786Y-12950786D01*
X10791071Y-12907929D01*
X10805357Y-12836500D01*
X10805357Y-12779357D01*
X10791071Y-12707929D01*
X10776786Y-12665071D01*
X10762500Y-12636500D01*
X10733928Y-12593643D01*
X10719643Y-12579357D01*
X3902500Y-13137500D02*
X3902500Y-13227500D01*
X3857500Y-13182500D02*
X3947500Y-13182500D01*
X4291071Y-13018214D02*
X4319643Y-13018214D01*
X4348214Y-13032500D01*
X4362500Y-13046786D01*
X4376786Y-13075357D01*
X4391071Y-13132500D01*
X4391071Y-13203929D01*
X4376786Y-13261071D01*
X4362500Y-13289643D01*
X4348214Y-13303929D01*
X4319643Y-13318214D01*
X4291071Y-13318214D01*
X4262500Y-13303929D01*
X4248214Y-13289643D01*
X4233928Y-13261071D01*
X4219643Y-13203929D01*
X4219643Y-13132500D01*
X4233928Y-13075357D01*
X4248214Y-13046786D01*
X4262500Y-13032500D01*
X4291071Y-13018214D01*
X4519643Y-13289643D02*
X4533928Y-13303929D01*
X4519643Y-13318214D01*
X4505357Y-13303929D01*
X4519643Y-13289643D01*
X4519643Y-13318214D01*
X4676786Y-13318214D02*
X4733928Y-13318214D01*
X4762500Y-13303929D01*
X4776786Y-13289643D01*
X4805357Y-13246786D01*
X4819643Y-13189643D01*
X4819643Y-13075357D01*
X4805357Y-13046786D01*
X4791071Y-13032500D01*
X4762500Y-13018214D01*
X4705357Y-13018214D01*
X4676786Y-13032500D01*
X4662500Y-13046786D01*
X4648214Y-13075357D01*
X4648214Y-13146786D01*
X4662500Y-13175357D01*
X4676786Y-13189643D01*
X4705357Y-13203929D01*
X4762500Y-13203929D01*
X4791071Y-13189643D01*
X4805357Y-13175357D01*
X4819643Y-13146786D01*
X5005357Y-13018214D02*
X5033928Y-13018214D01*
X5062500Y-13032500D01*
X5076786Y-13046786D01*
X5091071Y-13075357D01*
X5105357Y-13132500D01*
X5105357Y-13203929D01*
X5091071Y-13261071D01*
X5076786Y-13289643D01*
X5062500Y-13303929D01*
X5033928Y-13318214D01*
X5005357Y-13318214D01*
X4976786Y-13303929D01*
X4962500Y-13289643D01*
X4948214Y-13261071D01*
X4933928Y-13203929D01*
X4933928Y-13132500D01*
X4948214Y-13075357D01*
X4962500Y-13046786D01*
X4976786Y-13032500D01*
X5005357Y-13018214D01*
X5233928Y-13318214D02*
X5233928Y-13118214D01*
X5233928Y-13146786D02*
X5248214Y-13132500D01*
X5276786Y-13118214D01*
X5319643Y-13118214D01*
X5348214Y-13132500D01*
X5362500Y-13161071D01*
X5362500Y-13318214D01*
X5362500Y-13161071D02*
X5376786Y-13132500D01*
X5405357Y-13118214D01*
X5448214Y-13118214D01*
X5476786Y-13132500D01*
X5491071Y-13161071D01*
X5491071Y-13318214D01*
X5633928Y-13318214D02*
X5633928Y-13118214D01*
X5633928Y-13146786D02*
X5648214Y-13132500D01*
X5676786Y-13118214D01*
X5719643Y-13118214D01*
X5748214Y-13132500D01*
X5762500Y-13161071D01*
X5762500Y-13318214D01*
X5762500Y-13161071D02*
X5776786Y-13132500D01*
X5805357Y-13118214D01*
X5848214Y-13118214D01*
X5876786Y-13132500D01*
X5891071Y-13161071D01*
X5891071Y-13318214D01*
X6476786Y-13003929D02*
X6219643Y-13389643D01*
X6862500Y-13018214D02*
X6891071Y-13018214D01*
X6919643Y-13032500D01*
X6933928Y-13046786D01*
X6948214Y-13075357D01*
X6962500Y-13132500D01*
X6962500Y-13203929D01*
X6948214Y-13261071D01*
X6933928Y-13289643D01*
X6919643Y-13303929D01*
X6891071Y-13318214D01*
X6862500Y-13318214D01*
X6833928Y-13303929D01*
X6819643Y-13289643D01*
X6805357Y-13261071D01*
X6791071Y-13203929D01*
X6791071Y-13132500D01*
X6805357Y-13075357D01*
X6819643Y-13046786D01*
X6833928Y-13032500D01*
X6862500Y-13018214D01*
X7091071Y-13289643D02*
X7105357Y-13303929D01*
X7091071Y-13318214D01*
X7076786Y-13303929D01*
X7091071Y-13289643D01*
X7091071Y-13318214D01*
X7291071Y-13018214D02*
X7319643Y-13018214D01*
X7348214Y-13032500D01*
X7362500Y-13046786D01*
X7376786Y-13075357D01*
X7391071Y-13132500D01*
X7391071Y-13203929D01*
X7376786Y-13261071D01*
X7362500Y-13289643D01*
X7348214Y-13303929D01*
X7319643Y-13318214D01*
X7291071Y-13318214D01*
X7262500Y-13303929D01*
X7248214Y-13289643D01*
X7233928Y-13261071D01*
X7219643Y-13203929D01*
X7219643Y-13132500D01*
X7233928Y-13075357D01*
X7248214Y-13046786D01*
X7262500Y-13032500D01*
X7291071Y-13018214D01*
X7491071Y-13018214D02*
X7676786Y-13018214D01*
X7576786Y-13132500D01*
X7619643Y-13132500D01*
X7648214Y-13146786D01*
X7662500Y-13161071D01*
X7676786Y-13189643D01*
X7676786Y-13261071D01*
X7662500Y-13289643D01*
X7648214Y-13303929D01*
X7619643Y-13318214D01*
X7533928Y-13318214D01*
X7505357Y-13303929D01*
X7491071Y-13289643D01*
X7948214Y-13018214D02*
X7805357Y-13018214D01*
X7791071Y-13161071D01*
X7805357Y-13146786D01*
X7833928Y-13132500D01*
X7905357Y-13132500D01*
X7933928Y-13146786D01*
X7948214Y-13161071D01*
X7962500Y-13189643D01*
X7962500Y-13261071D01*
X7948214Y-13289643D01*
X7933928Y-13303929D01*
X7905357Y-13318214D01*
X7833928Y-13318214D01*
X7805357Y-13303929D01*
X7791071Y-13289643D01*
X8076786Y-13018214D02*
X8076786Y-13075357D01*
X8191071Y-13018214D02*
X8191071Y-13075357D01*
X8633928Y-13432500D02*
X8619643Y-13418214D01*
X8591071Y-13375357D01*
X8576786Y-13346786D01*
X8562500Y-13303929D01*
X8548214Y-13232500D01*
X8548214Y-13175357D01*
X8562500Y-13103929D01*
X8576786Y-13061071D01*
X8591071Y-13032500D01*
X8619643Y-12989643D01*
X8633928Y-12975357D01*
X8905357Y-13318214D02*
X8733928Y-13318214D01*
X8819643Y-13318214D02*
X8819643Y-13018214D01*
X8791071Y-13061071D01*
X8762500Y-13089643D01*
X8733928Y-13103929D01*
X9091071Y-13018214D02*
X9119643Y-13018214D01*
X9148214Y-13032500D01*
X9162500Y-13046786D01*
X9176786Y-13075357D01*
X9191071Y-13132500D01*
X9191071Y-13203929D01*
X9176786Y-13261071D01*
X9162500Y-13289643D01*
X9148214Y-13303929D01*
X9119643Y-13318214D01*
X9091071Y-13318214D01*
X9062500Y-13303929D01*
X9048214Y-13289643D01*
X9033928Y-13261071D01*
X9019643Y-13203929D01*
X9019643Y-13132500D01*
X9033928Y-13075357D01*
X9048214Y-13046786D01*
X9062500Y-13032500D01*
X9091071Y-13018214D01*
X9548214Y-13318214D02*
X9548214Y-13018214D01*
X9676786Y-13318214D02*
X9676786Y-13161071D01*
X9662500Y-13132500D01*
X9633928Y-13118214D01*
X9591071Y-13118214D01*
X9562500Y-13132500D01*
X9548214Y-13146786D01*
X9862500Y-13318214D02*
X9833928Y-13303929D01*
X9819643Y-13289643D01*
X9805357Y-13261071D01*
X9805357Y-13175357D01*
X9819643Y-13146786D01*
X9833928Y-13132500D01*
X9862500Y-13118214D01*
X9905357Y-13118214D01*
X9933928Y-13132500D01*
X9948214Y-13146786D01*
X9962500Y-13175357D01*
X9962500Y-13261071D01*
X9948214Y-13289643D01*
X9933928Y-13303929D01*
X9905357Y-13318214D01*
X9862500Y-13318214D01*
X10133928Y-13318214D02*
X10105357Y-13303929D01*
X10091071Y-13275357D01*
X10091071Y-13018214D01*
X10362500Y-13303929D02*
X10333928Y-13318214D01*
X10276786Y-13318214D01*
X10248214Y-13303929D01*
X10233928Y-13275357D01*
X10233928Y-13161071D01*
X10248214Y-13132500D01*
X10276786Y-13118214D01*
X10333928Y-13118214D01*
X10362500Y-13132500D01*
X10376786Y-13161071D01*
X10376786Y-13189643D01*
X10233928Y-13218214D01*
X10491071Y-13303929D02*
X10519643Y-13318214D01*
X10576786Y-13318214D01*
X10605357Y-13303929D01*
X10619643Y-13275357D01*
X10619643Y-13261071D01*
X10605357Y-13232500D01*
X10576786Y-13218214D01*
X10533928Y-13218214D01*
X10505357Y-13203929D01*
X10491071Y-13175357D01*
X10491071Y-13161071D01*
X10505357Y-13132500D01*
X10533928Y-13118214D01*
X10576786Y-13118214D01*
X10605357Y-13132500D01*
X10719643Y-13432500D02*
X10733928Y-13418214D01*
X10762500Y-13375357D01*
X10776786Y-13346786D01*
X10791071Y-13303929D01*
X10805357Y-13232500D01*
X10805357Y-13175357D01*
X10791071Y-13103929D01*
X10776786Y-13061071D01*
X10762500Y-13032500D01*
X10733928Y-12989643D01*
X10719643Y-12975357D01*
X3932856Y-13613856D02*
X3932856Y-13543144D01*
X3862144Y-13543144D01*
X3862144Y-13613856D01*
X3932856Y-13613856D01*
X4391071Y-13714214D02*
X4219643Y-13714214D01*
X4305357Y-13714214D02*
X4305357Y-13414214D01*
X4276786Y-13457071D01*
X4248214Y-13485643D01*
X4219643Y-13499929D01*
X4519643Y-13685643D02*
X4533928Y-13699929D01*
X4519643Y-13714214D01*
X4505357Y-13699929D01*
X4519643Y-13685643D01*
X4519643Y-13714214D01*
X4719643Y-13414214D02*
X4748214Y-13414214D01*
X4776786Y-13428500D01*
X4791071Y-13442786D01*
X4805357Y-13471357D01*
X4819643Y-13528500D01*
X4819643Y-13599929D01*
X4805357Y-13657071D01*
X4791071Y-13685643D01*
X4776786Y-13699929D01*
X4748214Y-13714214D01*
X4719643Y-13714214D01*
X4691071Y-13699929D01*
X4676786Y-13685643D01*
X4662500Y-13657071D01*
X4648214Y-13599929D01*
X4648214Y-13528500D01*
X4662500Y-13471357D01*
X4676786Y-13442786D01*
X4691071Y-13428500D01*
X4719643Y-13414214D01*
X5005357Y-13414214D02*
X5033928Y-13414214D01*
X5062500Y-13428500D01*
X5076786Y-13442786D01*
X5091071Y-13471357D01*
X5105357Y-13528500D01*
X5105357Y-13599929D01*
X5091071Y-13657071D01*
X5076786Y-13685643D01*
X5062500Y-13699929D01*
X5033928Y-13714214D01*
X5005357Y-13714214D01*
X4976786Y-13699929D01*
X4962500Y-13685643D01*
X4948214Y-13657071D01*
X4933928Y-13599929D01*
X4933928Y-13528500D01*
X4948214Y-13471357D01*
X4962500Y-13442786D01*
X4976786Y-13428500D01*
X5005357Y-13414214D01*
X5233928Y-13714214D02*
X5233928Y-13514214D01*
X5233928Y-13542786D02*
X5248214Y-13528500D01*
X5276786Y-13514214D01*
X5319643Y-13514214D01*
X5348214Y-13528500D01*
X5362500Y-13557071D01*
X5362500Y-13714214D01*
X5362500Y-13557071D02*
X5376786Y-13528500D01*
X5405357Y-13514214D01*
X5448214Y-13514214D01*
X5476786Y-13528500D01*
X5491071Y-13557071D01*
X5491071Y-13714214D01*
X5633928Y-13714214D02*
X5633928Y-13514214D01*
X5633928Y-13542786D02*
X5648214Y-13528500D01*
X5676786Y-13514214D01*
X5719643Y-13514214D01*
X5748214Y-13528500D01*
X5762500Y-13557071D01*
X5762500Y-13714214D01*
X5762500Y-13557071D02*
X5776786Y-13528500D01*
X5805357Y-13514214D01*
X5848214Y-13514214D01*
X5876786Y-13528500D01*
X5891071Y-13557071D01*
X5891071Y-13714214D01*
X6476786Y-13399929D02*
X6219643Y-13785643D01*
X6862500Y-13414214D02*
X6891071Y-13414214D01*
X6919643Y-13428500D01*
X6933928Y-13442786D01*
X6948214Y-13471357D01*
X6962500Y-13528500D01*
X6962500Y-13599929D01*
X6948214Y-13657071D01*
X6933928Y-13685643D01*
X6919643Y-13699929D01*
X6891071Y-13714214D01*
X6862500Y-13714214D01*
X6833928Y-13699929D01*
X6819643Y-13685643D01*
X6805357Y-13657071D01*
X6791071Y-13599929D01*
X6791071Y-13528500D01*
X6805357Y-13471357D01*
X6819643Y-13442786D01*
X6833928Y-13428500D01*
X6862500Y-13414214D01*
X7091071Y-13685643D02*
X7105357Y-13699929D01*
X7091071Y-13714214D01*
X7076786Y-13699929D01*
X7091071Y-13685643D01*
X7091071Y-13714214D01*
X7291071Y-13414214D02*
X7319643Y-13414214D01*
X7348214Y-13428500D01*
X7362500Y-13442786D01*
X7376786Y-13471357D01*
X7391071Y-13528500D01*
X7391071Y-13599929D01*
X7376786Y-13657071D01*
X7362500Y-13685643D01*
X7348214Y-13699929D01*
X7319643Y-13714214D01*
X7291071Y-13714214D01*
X7262500Y-13699929D01*
X7248214Y-13685643D01*
X7233928Y-13657071D01*
X7219643Y-13599929D01*
X7219643Y-13528500D01*
X7233928Y-13471357D01*
X7248214Y-13442786D01*
X7262500Y-13428500D01*
X7291071Y-13414214D01*
X7491071Y-13414214D02*
X7676786Y-13414214D01*
X7576786Y-13528500D01*
X7619643Y-13528500D01*
X7648214Y-13542786D01*
X7662500Y-13557071D01*
X7676786Y-13585643D01*
X7676786Y-13657071D01*
X7662500Y-13685643D01*
X7648214Y-13699929D01*
X7619643Y-13714214D01*
X7533928Y-13714214D01*
X7505357Y-13699929D01*
X7491071Y-13685643D01*
X7819643Y-13714214D02*
X7876786Y-13714214D01*
X7905357Y-13699929D01*
X7919643Y-13685643D01*
X7948214Y-13642786D01*
X7962500Y-13585643D01*
X7962500Y-13471357D01*
X7948214Y-13442786D01*
X7933928Y-13428500D01*
X7905357Y-13414214D01*
X7848214Y-13414214D01*
X7819643Y-13428500D01*
X7805357Y-13442786D01*
X7791071Y-13471357D01*
X7791071Y-13542786D01*
X7805357Y-13571357D01*
X7819643Y-13585643D01*
X7848214Y-13599929D01*
X7905357Y-13599929D01*
X7933928Y-13585643D01*
X7948214Y-13571357D01*
X7962500Y-13542786D01*
X8076786Y-13414214D02*
X8076786Y-13471357D01*
X8191071Y-13414214D02*
X8191071Y-13471357D01*
X8633928Y-13828500D02*
X8619643Y-13814214D01*
X8591071Y-13771357D01*
X8576786Y-13742786D01*
X8562500Y-13699929D01*
X8548214Y-13628500D01*
X8548214Y-13571357D01*
X8562500Y-13499929D01*
X8576786Y-13457071D01*
X8591071Y-13428500D01*
X8619643Y-13385643D01*
X8633928Y-13371357D01*
X8905357Y-13714214D02*
X8733928Y-13714214D01*
X8819643Y-13714214D02*
X8819643Y-13414214D01*
X8791071Y-13457071D01*
X8762500Y-13485643D01*
X8733928Y-13499929D01*
X9076786Y-13542786D02*
X9048214Y-13528500D01*
X9033928Y-13514214D01*
X9019643Y-13485643D01*
X9019643Y-13471357D01*
X9033928Y-13442786D01*
X9048214Y-13428500D01*
X9076786Y-13414214D01*
X9133928Y-13414214D01*
X9162500Y-13428500D01*
X9176786Y-13442786D01*
X9191071Y-13471357D01*
X9191071Y-13485643D01*
X9176786Y-13514214D01*
X9162500Y-13528500D01*
X9133928Y-13542786D01*
X9076786Y-13542786D01*
X9048214Y-13557071D01*
X9033928Y-13571357D01*
X9019643Y-13599929D01*
X9019643Y-13657071D01*
X9033928Y-13685643D01*
X9048214Y-13699929D01*
X9076786Y-13714214D01*
X9133928Y-13714214D01*
X9162500Y-13699929D01*
X9176786Y-13685643D01*
X9191071Y-13657071D01*
X9191071Y-13599929D01*
X9176786Y-13571357D01*
X9162500Y-13557071D01*
X9133928Y-13542786D01*
X9548214Y-13714214D02*
X9548214Y-13414214D01*
X9676786Y-13714214D02*
X9676786Y-13557071D01*
X9662500Y-13528500D01*
X9633928Y-13514214D01*
X9591071Y-13514214D01*
X9562500Y-13528500D01*
X9548214Y-13542786D01*
X9862500Y-13714214D02*
X9833928Y-13699929D01*
X9819643Y-13685643D01*
X9805357Y-13657071D01*
X9805357Y-13571357D01*
X9819643Y-13542786D01*
X9833928Y-13528500D01*
X9862500Y-13514214D01*
X9905357Y-13514214D01*
X9933928Y-13528500D01*
X9948214Y-13542786D01*
X9962500Y-13571357D01*
X9962500Y-13657071D01*
X9948214Y-13685643D01*
X9933928Y-13699929D01*
X9905357Y-13714214D01*
X9862500Y-13714214D01*
X10133928Y-13714214D02*
X10105357Y-13699929D01*
X10091071Y-13671357D01*
X10091071Y-13414214D01*
X10362500Y-13699929D02*
X10333928Y-13714214D01*
X10276786Y-13714214D01*
X10248214Y-13699929D01*
X10233928Y-13671357D01*
X10233928Y-13557071D01*
X10248214Y-13528500D01*
X10276786Y-13514214D01*
X10333928Y-13514214D01*
X10362500Y-13528500D01*
X10376786Y-13557071D01*
X10376786Y-13585643D01*
X10233928Y-13614214D01*
X10491071Y-13699929D02*
X10519643Y-13714214D01*
X10576786Y-13714214D01*
X10605357Y-13699929D01*
X10619643Y-13671357D01*
X10619643Y-13657071D01*
X10605357Y-13628500D01*
X10576786Y-13614214D01*
X10533928Y-13614214D01*
X10505357Y-13599929D01*
X10491071Y-13571357D01*
X10491071Y-13557071D01*
X10505357Y-13528500D01*
X10533928Y-13514214D01*
X10576786Y-13514214D01*
X10605357Y-13528500D01*
X10719643Y-13828500D02*
X10733928Y-13814214D01*
X10762500Y-13771357D01*
X10776786Y-13742786D01*
X10791071Y-13699929D01*
X10805357Y-13628500D01*
X10805357Y-13571357D01*
X10791071Y-13499929D01*
X10776786Y-13457071D01*
X10762500Y-13428500D01*
X10733928Y-13385643D01*
X10719643Y-13371357D01*
X3896700Y-14025300D02*
X3947500Y-13974500D01*
X3896700Y-13923700D01*
X3845900Y-13974500D01*
X3896700Y-14025300D01*
X4391071Y-14110214D02*
X4219643Y-14110214D01*
X4305357Y-14110214D02*
X4305357Y-13810214D01*
X4276786Y-13853071D01*
X4248214Y-13881643D01*
X4219643Y-13895929D01*
X4519643Y-14081643D02*
X4533928Y-14095929D01*
X4519643Y-14110214D01*
X4505357Y-14095929D01*
X4519643Y-14081643D01*
X4519643Y-14110214D01*
X4719643Y-13810214D02*
X4748214Y-13810214D01*
X4776786Y-13824500D01*
X4791071Y-13838786D01*
X4805357Y-13867357D01*
X4819643Y-13924500D01*
X4819643Y-13995929D01*
X4805357Y-14053071D01*
X4791071Y-14081643D01*
X4776786Y-14095929D01*
X4748214Y-14110214D01*
X4719643Y-14110214D01*
X4691071Y-14095929D01*
X4676786Y-14081643D01*
X4662500Y-14053071D01*
X4648214Y-13995929D01*
X4648214Y-13924500D01*
X4662500Y-13867357D01*
X4676786Y-13838786D01*
X4691071Y-13824500D01*
X4719643Y-13810214D01*
X4933928Y-13838786D02*
X4948214Y-13824500D01*
X4976786Y-13810214D01*
X5048214Y-13810214D01*
X5076786Y-13824500D01*
X5091071Y-13838786D01*
X5105357Y-13867357D01*
X5105357Y-13895929D01*
X5091071Y-13938786D01*
X4919643Y-14110214D01*
X5105357Y-14110214D01*
X5233928Y-14110214D02*
X5233928Y-13910214D01*
X5233928Y-13938786D02*
X5248214Y-13924500D01*
X5276786Y-13910214D01*
X5319643Y-13910214D01*
X5348214Y-13924500D01*
X5362500Y-13953071D01*
X5362500Y-14110214D01*
X5362500Y-13953071D02*
X5376786Y-13924500D01*
X5405357Y-13910214D01*
X5448214Y-13910214D01*
X5476786Y-13924500D01*
X5491071Y-13953071D01*
X5491071Y-14110214D01*
X5633928Y-14110214D02*
X5633928Y-13910214D01*
X5633928Y-13938786D02*
X5648214Y-13924500D01*
X5676786Y-13910214D01*
X5719643Y-13910214D01*
X5748214Y-13924500D01*
X5762500Y-13953071D01*
X5762500Y-14110214D01*
X5762500Y-13953071D02*
X5776786Y-13924500D01*
X5805357Y-13910214D01*
X5848214Y-13910214D01*
X5876786Y-13924500D01*
X5891071Y-13953071D01*
X5891071Y-14110214D01*
X6476786Y-13795929D02*
X6219643Y-14181643D01*
X6862500Y-13810214D02*
X6891071Y-13810214D01*
X6919643Y-13824500D01*
X6933928Y-13838786D01*
X6948214Y-13867357D01*
X6962500Y-13924500D01*
X6962500Y-13995929D01*
X6948214Y-14053071D01*
X6933928Y-14081643D01*
X6919643Y-14095929D01*
X6891071Y-14110214D01*
X6862500Y-14110214D01*
X6833928Y-14095929D01*
X6819643Y-14081643D01*
X6805357Y-14053071D01*
X6791071Y-13995929D01*
X6791071Y-13924500D01*
X6805357Y-13867357D01*
X6819643Y-13838786D01*
X6833928Y-13824500D01*
X6862500Y-13810214D01*
X7091071Y-14081643D02*
X7105357Y-14095929D01*
X7091071Y-14110214D01*
X7076786Y-14095929D01*
X7091071Y-14081643D01*
X7091071Y-14110214D01*
X7291071Y-13810214D02*
X7319643Y-13810214D01*
X7348214Y-13824500D01*
X7362500Y-13838786D01*
X7376786Y-13867357D01*
X7391071Y-13924500D01*
X7391071Y-13995929D01*
X7376786Y-14053071D01*
X7362500Y-14081643D01*
X7348214Y-14095929D01*
X7319643Y-14110214D01*
X7291071Y-14110214D01*
X7262500Y-14095929D01*
X7248214Y-14081643D01*
X7233928Y-14053071D01*
X7219643Y-13995929D01*
X7219643Y-13924500D01*
X7233928Y-13867357D01*
X7248214Y-13838786D01*
X7262500Y-13824500D01*
X7291071Y-13810214D01*
X7648214Y-13910214D02*
X7648214Y-14110214D01*
X7576786Y-13795929D02*
X7505357Y-14010214D01*
X7691071Y-14010214D01*
X7862500Y-13810214D02*
X7891071Y-13810214D01*
X7919643Y-13824500D01*
X7933928Y-13838786D01*
X7948214Y-13867357D01*
X7962500Y-13924500D01*
X7962500Y-13995929D01*
X7948214Y-14053071D01*
X7933928Y-14081643D01*
X7919643Y-14095929D01*
X7891071Y-14110214D01*
X7862500Y-14110214D01*
X7833928Y-14095929D01*
X7819643Y-14081643D01*
X7805357Y-14053071D01*
X7791071Y-13995929D01*
X7791071Y-13924500D01*
X7805357Y-13867357D01*
X7819643Y-13838786D01*
X7833928Y-13824500D01*
X7862500Y-13810214D01*
X8076786Y-13810214D02*
X8076786Y-13867357D01*
X8191071Y-13810214D02*
X8191071Y-13867357D01*
X8633928Y-14224500D02*
X8619643Y-14210214D01*
X8591071Y-14167357D01*
X8576786Y-14138786D01*
X8562500Y-14095929D01*
X8548214Y-14024500D01*
X8548214Y-13967357D01*
X8562500Y-13895929D01*
X8576786Y-13853071D01*
X8591071Y-13824500D01*
X8619643Y-13781643D01*
X8633928Y-13767357D01*
X8876786Y-13810214D02*
X8819643Y-13810214D01*
X8791071Y-13824500D01*
X8776786Y-13838786D01*
X8748214Y-13881643D01*
X8733928Y-13938786D01*
X8733928Y-14053071D01*
X8748214Y-14081643D01*
X8762500Y-14095929D01*
X8791071Y-14110214D01*
X8848214Y-14110214D01*
X8876786Y-14095929D01*
X8891071Y-14081643D01*
X8905357Y-14053071D01*
X8905357Y-13981643D01*
X8891071Y-13953071D01*
X8876786Y-13938786D01*
X8848214Y-13924500D01*
X8791071Y-13924500D01*
X8762500Y-13938786D01*
X8748214Y-13953071D01*
X8733928Y-13981643D01*
X9076786Y-13938786D02*
X9048214Y-13924500D01*
X9033928Y-13910214D01*
X9019643Y-13881643D01*
X9019643Y-13867357D01*
X9033928Y-13838786D01*
X9048214Y-13824500D01*
X9076786Y-13810214D01*
X9133928Y-13810214D01*
X9162500Y-13824500D01*
X9176786Y-13838786D01*
X9191071Y-13867357D01*
X9191071Y-13881643D01*
X9176786Y-13910214D01*
X9162500Y-13924500D01*
X9133928Y-13938786D01*
X9076786Y-13938786D01*
X9048214Y-13953071D01*
X9033928Y-13967357D01*
X9019643Y-13995929D01*
X9019643Y-14053071D01*
X9033928Y-14081643D01*
X9048214Y-14095929D01*
X9076786Y-14110214D01*
X9133928Y-14110214D01*
X9162500Y-14095929D01*
X9176786Y-14081643D01*
X9191071Y-14053071D01*
X9191071Y-13995929D01*
X9176786Y-13967357D01*
X9162500Y-13953071D01*
X9133928Y-13938786D01*
X9548214Y-14110214D02*
X9548214Y-13810214D01*
X9676786Y-14110214D02*
X9676786Y-13953071D01*
X9662500Y-13924500D01*
X9633928Y-13910214D01*
X9591071Y-13910214D01*
X9562500Y-13924500D01*
X9548214Y-13938786D01*
X9862500Y-14110214D02*
X9833928Y-14095929D01*
X9819643Y-14081643D01*
X9805357Y-14053071D01*
X9805357Y-13967357D01*
X9819643Y-13938786D01*
X9833928Y-13924500D01*
X9862500Y-13910214D01*
X9905357Y-13910214D01*
X9933928Y-13924500D01*
X9948214Y-13938786D01*
X9962500Y-13967357D01*
X9962500Y-14053071D01*
X9948214Y-14081643D01*
X9933928Y-14095929D01*
X9905357Y-14110214D01*
X9862500Y-14110214D01*
X10133928Y-14110214D02*
X10105357Y-14095929D01*
X10091071Y-14067357D01*
X10091071Y-13810214D01*
X10362500Y-14095929D02*
X10333928Y-14110214D01*
X10276786Y-14110214D01*
X10248214Y-14095929D01*
X10233928Y-14067357D01*
X10233928Y-13953071D01*
X10248214Y-13924500D01*
X10276786Y-13910214D01*
X10333928Y-13910214D01*
X10362500Y-13924500D01*
X10376786Y-13953071D01*
X10376786Y-13981643D01*
X10233928Y-14010214D01*
X10491071Y-14095929D02*
X10519643Y-14110214D01*
X10576786Y-14110214D01*
X10605357Y-14095929D01*
X10619643Y-14067357D01*
X10619643Y-14053071D01*
X10605357Y-14024500D01*
X10576786Y-14010214D01*
X10533928Y-14010214D01*
X10505357Y-13995929D01*
X10491071Y-13967357D01*
X10491071Y-13953071D01*
X10505357Y-13924500D01*
X10533928Y-13910214D01*
X10576786Y-13910214D01*
X10605357Y-13924500D01*
X10719643Y-14224500D02*
X10733928Y-14210214D01*
X10762500Y-14167357D01*
X10776786Y-14138786D01*
X10791071Y-14095929D01*
X10805357Y-14024500D01*
X10805357Y-13967357D01*
X10791071Y-13895929D01*
X10776786Y-13853071D01*
X10762500Y-13824500D01*
X10733928Y-13781643D01*
X10719643Y-13767357D01*
X3827500Y-14310500D02*
X3947500Y-14430500D01*
X3947500Y-14310500D02*
X3827500Y-14430500D01*
X3947500Y-14370500D02*
G75*
G03*
X3947500Y-14370500I-60000J0D01*
G01*
X4391071Y-14506214D02*
X4219643Y-14506214D01*
X4305357Y-14506214D02*
X4305357Y-14206214D01*
X4276786Y-14249071D01*
X4248214Y-14277643D01*
X4219643Y-14291929D01*
X4519643Y-14477643D02*
X4533928Y-14491929D01*
X4519643Y-14506214D01*
X4505357Y-14491929D01*
X4519643Y-14477643D01*
X4519643Y-14506214D01*
X4648214Y-14234786D02*
X4662500Y-14220500D01*
X4691071Y-14206214D01*
X4762500Y-14206214D01*
X4791071Y-14220500D01*
X4805357Y-14234786D01*
X4819643Y-14263357D01*
X4819643Y-14291929D01*
X4805357Y-14334786D01*
X4633928Y-14506214D01*
X4819643Y-14506214D01*
X5005357Y-14206214D02*
X5033928Y-14206214D01*
X5062500Y-14220500D01*
X5076786Y-14234786D01*
X5091071Y-14263357D01*
X5105357Y-14320500D01*
X5105357Y-14391929D01*
X5091071Y-14449071D01*
X5076786Y-14477643D01*
X5062500Y-14491929D01*
X5033928Y-14506214D01*
X5005357Y-14506214D01*
X4976786Y-14491929D01*
X4962500Y-14477643D01*
X4948214Y-14449071D01*
X4933928Y-14391929D01*
X4933928Y-14320500D01*
X4948214Y-14263357D01*
X4962500Y-14234786D01*
X4976786Y-14220500D01*
X5005357Y-14206214D01*
X5233928Y-14506214D02*
X5233928Y-14306214D01*
X5233928Y-14334786D02*
X5248214Y-14320500D01*
X5276786Y-14306214D01*
X5319643Y-14306214D01*
X5348214Y-14320500D01*
X5362500Y-14349071D01*
X5362500Y-14506214D01*
X5362500Y-14349071D02*
X5376786Y-14320500D01*
X5405357Y-14306214D01*
X5448214Y-14306214D01*
X5476786Y-14320500D01*
X5491071Y-14349071D01*
X5491071Y-14506214D01*
X5633928Y-14506214D02*
X5633928Y-14306214D01*
X5633928Y-14334786D02*
X5648214Y-14320500D01*
X5676786Y-14306214D01*
X5719643Y-14306214D01*
X5748214Y-14320500D01*
X5762500Y-14349071D01*
X5762500Y-14506214D01*
X5762500Y-14349071D02*
X5776786Y-14320500D01*
X5805357Y-14306214D01*
X5848214Y-14306214D01*
X5876786Y-14320500D01*
X5891071Y-14349071D01*
X5891071Y-14506214D01*
X6476786Y-14191929D02*
X6219643Y-14577643D01*
X6862500Y-14206214D02*
X6891071Y-14206214D01*
X6919643Y-14220500D01*
X6933928Y-14234786D01*
X6948214Y-14263357D01*
X6962500Y-14320500D01*
X6962500Y-14391929D01*
X6948214Y-14449071D01*
X6933928Y-14477643D01*
X6919643Y-14491929D01*
X6891071Y-14506214D01*
X6862500Y-14506214D01*
X6833928Y-14491929D01*
X6819643Y-14477643D01*
X6805357Y-14449071D01*
X6791071Y-14391929D01*
X6791071Y-14320500D01*
X6805357Y-14263357D01*
X6819643Y-14234786D01*
X6833928Y-14220500D01*
X6862500Y-14206214D01*
X7091071Y-14477643D02*
X7105357Y-14491929D01*
X7091071Y-14506214D01*
X7076786Y-14491929D01*
X7091071Y-14477643D01*
X7091071Y-14506214D01*
X7291071Y-14206214D02*
X7319643Y-14206214D01*
X7348214Y-14220500D01*
X7362500Y-14234786D01*
X7376786Y-14263357D01*
X7391071Y-14320500D01*
X7391071Y-14391929D01*
X7376786Y-14449071D01*
X7362500Y-14477643D01*
X7348214Y-14491929D01*
X7319643Y-14506214D01*
X7291071Y-14506214D01*
X7262500Y-14491929D01*
X7248214Y-14477643D01*
X7233928Y-14449071D01*
X7219643Y-14391929D01*
X7219643Y-14320500D01*
X7233928Y-14263357D01*
X7248214Y-14234786D01*
X7262500Y-14220500D01*
X7291071Y-14206214D01*
X7648214Y-14306214D02*
X7648214Y-14506214D01*
X7576786Y-14191929D02*
X7505357Y-14406214D01*
X7691071Y-14406214D01*
X7776786Y-14206214D02*
X7976786Y-14206214D01*
X7848214Y-14506214D01*
X8076786Y-14206214D02*
X8076786Y-14263357D01*
X8191071Y-14206214D02*
X8191071Y-14263357D01*
X8633928Y-14620500D02*
X8619643Y-14606214D01*
X8591071Y-14563357D01*
X8576786Y-14534786D01*
X8562500Y-14491929D01*
X8548214Y-14420500D01*
X8548214Y-14363357D01*
X8562500Y-14291929D01*
X8576786Y-14249071D01*
X8591071Y-14220500D01*
X8619643Y-14177643D01*
X8633928Y-14163357D01*
X8876786Y-14206214D02*
X8819643Y-14206214D01*
X8791071Y-14220500D01*
X8776786Y-14234786D01*
X8748214Y-14277643D01*
X8733928Y-14334786D01*
X8733928Y-14449071D01*
X8748214Y-14477643D01*
X8762500Y-14491929D01*
X8791071Y-14506214D01*
X8848214Y-14506214D01*
X8876786Y-14491929D01*
X8891071Y-14477643D01*
X8905357Y-14449071D01*
X8905357Y-14377643D01*
X8891071Y-14349071D01*
X8876786Y-14334786D01*
X8848214Y-14320500D01*
X8791071Y-14320500D01*
X8762500Y-14334786D01*
X8748214Y-14349071D01*
X8733928Y-14377643D01*
X9262500Y-14506214D02*
X9262500Y-14206214D01*
X9391071Y-14506214D02*
X9391071Y-14349071D01*
X9376786Y-14320500D01*
X9348214Y-14306214D01*
X9305357Y-14306214D01*
X9276786Y-14320500D01*
X9262500Y-14334786D01*
X9576786Y-14506214D02*
X9548214Y-14491929D01*
X9533928Y-14477643D01*
X9519643Y-14449071D01*
X9519643Y-14363357D01*
X9533928Y-14334786D01*
X9548214Y-14320500D01*
X9576786Y-14306214D01*
X9619643Y-14306214D01*
X9648214Y-14320500D01*
X9662500Y-14334786D01*
X9676786Y-14363357D01*
X9676786Y-14449071D01*
X9662500Y-14477643D01*
X9648214Y-14491929D01*
X9619643Y-14506214D01*
X9576786Y-14506214D01*
X9848214Y-14506214D02*
X9819643Y-14491929D01*
X9805357Y-14463357D01*
X9805357Y-14206214D01*
X10076786Y-14491929D02*
X10048214Y-14506214D01*
X9991071Y-14506214D01*
X9962500Y-14491929D01*
X9948214Y-14463357D01*
X9948214Y-14349071D01*
X9962500Y-14320500D01*
X9991071Y-14306214D01*
X10048214Y-14306214D01*
X10076786Y-14320500D01*
X10091071Y-14349071D01*
X10091071Y-14377643D01*
X9948214Y-14406214D01*
X10205357Y-14491929D02*
X10233928Y-14506214D01*
X10291071Y-14506214D01*
X10319643Y-14491929D01*
X10333928Y-14463357D01*
X10333928Y-14449071D01*
X10319643Y-14420500D01*
X10291071Y-14406214D01*
X10248214Y-14406214D01*
X10219643Y-14391929D01*
X10205357Y-14363357D01*
X10205357Y-14349071D01*
X10219643Y-14320500D01*
X10248214Y-14306214D01*
X10291071Y-14306214D01*
X10319643Y-14320500D01*
X10433928Y-14620500D02*
X10448214Y-14606214D01*
X10476786Y-14563357D01*
X10491071Y-14534786D01*
X10505357Y-14491929D01*
X10519643Y-14420500D01*
X10519643Y-14363357D01*
X10505357Y-14291929D01*
X10491071Y-14249071D01*
X10476786Y-14220500D01*
X10448214Y-14177643D01*
X10433928Y-14163357D01*
X3817500Y-14701500D02*
X3947500Y-14831500D01*
X3947500Y-14701500D02*
X3817500Y-14831500D01*
X3882500Y-14701500D02*
X3882500Y-14831500D01*
X3817500Y-14766500D02*
X3947500Y-14766500D01*
X4391071Y-14902214D02*
X4219643Y-14902214D01*
X4305357Y-14902214D02*
X4305357Y-14602214D01*
X4276786Y-14645071D01*
X4248214Y-14673643D01*
X4219643Y-14687929D01*
X4519643Y-14873643D02*
X4533928Y-14887929D01*
X4519643Y-14902214D01*
X4505357Y-14887929D01*
X4519643Y-14873643D01*
X4519643Y-14902214D01*
X4633928Y-14602214D02*
X4819643Y-14602214D01*
X4719643Y-14716500D01*
X4762500Y-14716500D01*
X4791071Y-14730786D01*
X4805357Y-14745071D01*
X4819643Y-14773643D01*
X4819643Y-14845071D01*
X4805357Y-14873643D01*
X4791071Y-14887929D01*
X4762500Y-14902214D01*
X4676786Y-14902214D01*
X4648214Y-14887929D01*
X4633928Y-14873643D01*
X5005357Y-14602214D02*
X5033928Y-14602214D01*
X5062500Y-14616500D01*
X5076786Y-14630786D01*
X5091071Y-14659357D01*
X5105357Y-14716500D01*
X5105357Y-14787929D01*
X5091071Y-14845071D01*
X5076786Y-14873643D01*
X5062500Y-14887929D01*
X5033928Y-14902214D01*
X5005357Y-14902214D01*
X4976786Y-14887929D01*
X4962500Y-14873643D01*
X4948214Y-14845071D01*
X4933928Y-14787929D01*
X4933928Y-14716500D01*
X4948214Y-14659357D01*
X4962500Y-14630786D01*
X4976786Y-14616500D01*
X5005357Y-14602214D01*
X5233928Y-14902214D02*
X5233928Y-14702214D01*
X5233928Y-14730786D02*
X5248214Y-14716500D01*
X5276786Y-14702214D01*
X5319643Y-14702214D01*
X5348214Y-14716500D01*
X5362500Y-14745071D01*
X5362500Y-14902214D01*
X5362500Y-14745071D02*
X5376786Y-14716500D01*
X5405357Y-14702214D01*
X5448214Y-14702214D01*
X5476786Y-14716500D01*
X5491071Y-14745071D01*
X5491071Y-14902214D01*
X5633928Y-14902214D02*
X5633928Y-14702214D01*
X5633928Y-14730786D02*
X5648214Y-14716500D01*
X5676786Y-14702214D01*
X5719643Y-14702214D01*
X5748214Y-14716500D01*
X5762500Y-14745071D01*
X5762500Y-14902214D01*
X5762500Y-14745071D02*
X5776786Y-14716500D01*
X5805357Y-14702214D01*
X5848214Y-14702214D01*
X5876786Y-14716500D01*
X5891071Y-14745071D01*
X5891071Y-14902214D01*
X6476786Y-14587929D02*
X6219643Y-14973643D01*
X6862500Y-14602214D02*
X6891071Y-14602214D01*
X6919643Y-14616500D01*
X6933928Y-14630786D01*
X6948214Y-14659357D01*
X6962500Y-14716500D01*
X6962500Y-14787929D01*
X6948214Y-14845071D01*
X6933928Y-14873643D01*
X6919643Y-14887929D01*
X6891071Y-14902214D01*
X6862500Y-14902214D01*
X6833928Y-14887929D01*
X6819643Y-14873643D01*
X6805357Y-14845071D01*
X6791071Y-14787929D01*
X6791071Y-14716500D01*
X6805357Y-14659357D01*
X6819643Y-14630786D01*
X6833928Y-14616500D01*
X6862500Y-14602214D01*
X7091071Y-14873643D02*
X7105357Y-14887929D01*
X7091071Y-14902214D01*
X7076786Y-14887929D01*
X7091071Y-14873643D01*
X7091071Y-14902214D01*
X7291071Y-14602214D02*
X7319643Y-14602214D01*
X7348214Y-14616500D01*
X7362500Y-14630786D01*
X7376786Y-14659357D01*
X7391071Y-14716500D01*
X7391071Y-14787929D01*
X7376786Y-14845071D01*
X7362500Y-14873643D01*
X7348214Y-14887929D01*
X7319643Y-14902214D01*
X7291071Y-14902214D01*
X7262500Y-14887929D01*
X7248214Y-14873643D01*
X7233928Y-14845071D01*
X7219643Y-14787929D01*
X7219643Y-14716500D01*
X7233928Y-14659357D01*
X7248214Y-14630786D01*
X7262500Y-14616500D01*
X7291071Y-14602214D01*
X7662500Y-14602214D02*
X7519643Y-14602214D01*
X7505357Y-14745071D01*
X7519643Y-14730786D01*
X7548214Y-14716500D01*
X7619643Y-14716500D01*
X7648214Y-14730786D01*
X7662500Y-14745071D01*
X7676786Y-14773643D01*
X7676786Y-14845071D01*
X7662500Y-14873643D01*
X7648214Y-14887929D01*
X7619643Y-14902214D01*
X7548214Y-14902214D01*
X7519643Y-14887929D01*
X7505357Y-14873643D01*
X7962500Y-14902214D02*
X7791071Y-14902214D01*
X7876786Y-14902214D02*
X7876786Y-14602214D01*
X7848214Y-14645071D01*
X7819643Y-14673643D01*
X7791071Y-14687929D01*
X8076786Y-14602214D02*
X8076786Y-14659357D01*
X8191071Y-14602214D02*
X8191071Y-14659357D01*
X8633928Y-15016500D02*
X8619643Y-15002214D01*
X8591071Y-14959357D01*
X8576786Y-14930786D01*
X8562500Y-14887929D01*
X8548214Y-14816500D01*
X8548214Y-14759357D01*
X8562500Y-14687929D01*
X8576786Y-14645071D01*
X8591071Y-14616500D01*
X8619643Y-14573643D01*
X8633928Y-14559357D01*
X8876786Y-14602214D02*
X8819643Y-14602214D01*
X8791071Y-14616500D01*
X8776786Y-14630786D01*
X8748214Y-14673643D01*
X8733928Y-14730786D01*
X8733928Y-14845071D01*
X8748214Y-14873643D01*
X8762500Y-14887929D01*
X8791071Y-14902214D01*
X8848214Y-14902214D01*
X8876786Y-14887929D01*
X8891071Y-14873643D01*
X8905357Y-14845071D01*
X8905357Y-14773643D01*
X8891071Y-14745071D01*
X8876786Y-14730786D01*
X8848214Y-14716500D01*
X8791071Y-14716500D01*
X8762500Y-14730786D01*
X8748214Y-14745071D01*
X8733928Y-14773643D01*
X9091071Y-14602214D02*
X9119643Y-14602214D01*
X9148214Y-14616500D01*
X9162500Y-14630786D01*
X9176786Y-14659357D01*
X9191071Y-14716500D01*
X9191071Y-14787929D01*
X9176786Y-14845071D01*
X9162500Y-14873643D01*
X9148214Y-14887929D01*
X9119643Y-14902214D01*
X9091071Y-14902214D01*
X9062500Y-14887929D01*
X9048214Y-14873643D01*
X9033928Y-14845071D01*
X9019643Y-14787929D01*
X9019643Y-14716500D01*
X9033928Y-14659357D01*
X9048214Y-14630786D01*
X9062500Y-14616500D01*
X9091071Y-14602214D01*
X9548214Y-14902214D02*
X9548214Y-14602214D01*
X9676786Y-14902214D02*
X9676786Y-14745071D01*
X9662500Y-14716500D01*
X9633928Y-14702214D01*
X9591071Y-14702214D01*
X9562500Y-14716500D01*
X9548214Y-14730786D01*
X9862500Y-14902214D02*
X9833928Y-14887929D01*
X9819643Y-14873643D01*
X9805357Y-14845071D01*
X9805357Y-14759357D01*
X9819643Y-14730786D01*
X9833928Y-14716500D01*
X9862500Y-14702214D01*
X9905357Y-14702214D01*
X9933928Y-14716500D01*
X9948214Y-14730786D01*
X9962500Y-14759357D01*
X9962500Y-14845071D01*
X9948214Y-14873643D01*
X9933928Y-14887929D01*
X9905357Y-14902214D01*
X9862500Y-14902214D01*
X10133928Y-14902214D02*
X10105357Y-14887929D01*
X10091071Y-14859357D01*
X10091071Y-14602214D01*
X10362500Y-14887929D02*
X10333928Y-14902214D01*
X10276786Y-14902214D01*
X10248214Y-14887929D01*
X10233928Y-14859357D01*
X10233928Y-14745071D01*
X10248214Y-14716500D01*
X10276786Y-14702214D01*
X10333928Y-14702214D01*
X10362500Y-14716500D01*
X10376786Y-14745071D01*
X10376786Y-14773643D01*
X10233928Y-14802214D01*
X10491071Y-14887929D02*
X10519643Y-14902214D01*
X10576786Y-14902214D01*
X10605357Y-14887929D01*
X10619643Y-14859357D01*
X10619643Y-14845071D01*
X10605357Y-14816500D01*
X10576786Y-14802214D01*
X10533928Y-14802214D01*
X10505357Y-14787929D01*
X10491071Y-14759357D01*
X10491071Y-14745071D01*
X10505357Y-14716500D01*
X10533928Y-14702214D01*
X10576786Y-14702214D01*
X10605357Y-14716500D01*
X10719643Y-15016500D02*
X10733928Y-15002214D01*
X10762500Y-14959357D01*
X10776786Y-14930786D01*
X10791071Y-14887929D01*
X10805357Y-14816500D01*
X10805357Y-14759357D01*
X10791071Y-14687929D01*
X10776786Y-14645071D01*
X10762500Y-14616500D01*
X10733928Y-14573643D01*
X10719643Y-14559357D01*
X3787500Y-15082500D02*
X3947500Y-15242500D01*
X3947500Y-15082500D02*
X3787500Y-15242500D01*
X3924069Y-15219069D02*
X3924069Y-15105931D01*
X3810931Y-15105931D01*
X3810931Y-15219069D01*
X3924069Y-15219069D01*
X4391071Y-15298214D02*
X4219643Y-15298214D01*
X4305357Y-15298214D02*
X4305357Y-14998214D01*
X4276786Y-15041071D01*
X4248214Y-15069643D01*
X4219643Y-15083929D01*
X4519643Y-15269643D02*
X4533928Y-15283929D01*
X4519643Y-15298214D01*
X4505357Y-15283929D01*
X4519643Y-15269643D01*
X4519643Y-15298214D01*
X4791071Y-14998214D02*
X4733928Y-14998214D01*
X4705357Y-15012500D01*
X4691071Y-15026786D01*
X4662500Y-15069643D01*
X4648214Y-15126786D01*
X4648214Y-15241071D01*
X4662500Y-15269643D01*
X4676786Y-15283929D01*
X4705357Y-15298214D01*
X4762500Y-15298214D01*
X4791071Y-15283929D01*
X4805357Y-15269643D01*
X4819643Y-15241071D01*
X4819643Y-15169643D01*
X4805357Y-15141071D01*
X4791071Y-15126786D01*
X4762500Y-15112500D01*
X4705357Y-15112500D01*
X4676786Y-15126786D01*
X4662500Y-15141071D01*
X4648214Y-15169643D01*
X5005357Y-14998214D02*
X5033928Y-14998214D01*
X5062500Y-15012500D01*
X5076786Y-15026786D01*
X5091071Y-15055357D01*
X5105357Y-15112500D01*
X5105357Y-15183929D01*
X5091071Y-15241071D01*
X5076786Y-15269643D01*
X5062500Y-15283929D01*
X5033928Y-15298214D01*
X5005357Y-15298214D01*
X4976786Y-15283929D01*
X4962500Y-15269643D01*
X4948214Y-15241071D01*
X4933928Y-15183929D01*
X4933928Y-15112500D01*
X4948214Y-15055357D01*
X4962500Y-15026786D01*
X4976786Y-15012500D01*
X5005357Y-14998214D01*
X5233928Y-15298214D02*
X5233928Y-15098214D01*
X5233928Y-15126786D02*
X5248214Y-15112500D01*
X5276786Y-15098214D01*
X5319643Y-15098214D01*
X5348214Y-15112500D01*
X5362500Y-15141071D01*
X5362500Y-15298214D01*
X5362500Y-15141071D02*
X5376786Y-15112500D01*
X5405357Y-15098214D01*
X5448214Y-15098214D01*
X5476786Y-15112500D01*
X5491071Y-15141071D01*
X5491071Y-15298214D01*
X5633928Y-15298214D02*
X5633928Y-15098214D01*
X5633928Y-15126786D02*
X5648214Y-15112500D01*
X5676786Y-15098214D01*
X5719643Y-15098214D01*
X5748214Y-15112500D01*
X5762500Y-15141071D01*
X5762500Y-15298214D01*
X5762500Y-15141071D02*
X5776786Y-15112500D01*
X5805357Y-15098214D01*
X5848214Y-15098214D01*
X5876786Y-15112500D01*
X5891071Y-15141071D01*
X5891071Y-15298214D01*
X6476786Y-14983929D02*
X6219643Y-15369643D01*
X6862500Y-14998214D02*
X6891071Y-14998214D01*
X6919643Y-15012500D01*
X6933928Y-15026786D01*
X6948214Y-15055357D01*
X6962500Y-15112500D01*
X6962500Y-15183929D01*
X6948214Y-15241071D01*
X6933928Y-15269643D01*
X6919643Y-15283929D01*
X6891071Y-15298214D01*
X6862500Y-15298214D01*
X6833928Y-15283929D01*
X6819643Y-15269643D01*
X6805357Y-15241071D01*
X6791071Y-15183929D01*
X6791071Y-15112500D01*
X6805357Y-15055357D01*
X6819643Y-15026786D01*
X6833928Y-15012500D01*
X6862500Y-14998214D01*
X7091071Y-15269643D02*
X7105357Y-15283929D01*
X7091071Y-15298214D01*
X7076786Y-15283929D01*
X7091071Y-15269643D01*
X7091071Y-15298214D01*
X7291071Y-14998214D02*
X7319643Y-14998214D01*
X7348214Y-15012500D01*
X7362500Y-15026786D01*
X7376786Y-15055357D01*
X7391071Y-15112500D01*
X7391071Y-15183929D01*
X7376786Y-15241071D01*
X7362500Y-15269643D01*
X7348214Y-15283929D01*
X7319643Y-15298214D01*
X7291071Y-15298214D01*
X7262500Y-15283929D01*
X7248214Y-15269643D01*
X7233928Y-15241071D01*
X7219643Y-15183929D01*
X7219643Y-15112500D01*
X7233928Y-15055357D01*
X7248214Y-15026786D01*
X7262500Y-15012500D01*
X7291071Y-14998214D01*
X7648214Y-14998214D02*
X7591071Y-14998214D01*
X7562500Y-15012500D01*
X7548214Y-15026786D01*
X7519643Y-15069643D01*
X7505357Y-15126786D01*
X7505357Y-15241071D01*
X7519643Y-15269643D01*
X7533928Y-15283929D01*
X7562500Y-15298214D01*
X7619643Y-15298214D01*
X7648214Y-15283929D01*
X7662500Y-15269643D01*
X7676786Y-15241071D01*
X7676786Y-15169643D01*
X7662500Y-15141071D01*
X7648214Y-15126786D01*
X7619643Y-15112500D01*
X7562500Y-15112500D01*
X7533928Y-15126786D01*
X7519643Y-15141071D01*
X7505357Y-15169643D01*
X7776786Y-14998214D02*
X7962500Y-14998214D01*
X7862500Y-15112500D01*
X7905357Y-15112500D01*
X7933928Y-15126786D01*
X7948214Y-15141071D01*
X7962500Y-15169643D01*
X7962500Y-15241071D01*
X7948214Y-15269643D01*
X7933928Y-15283929D01*
X7905357Y-15298214D01*
X7819643Y-15298214D01*
X7791071Y-15283929D01*
X7776786Y-15269643D01*
X8076786Y-14998214D02*
X8076786Y-15055357D01*
X8191071Y-14998214D02*
X8191071Y-15055357D01*
X8633928Y-15412500D02*
X8619643Y-15398214D01*
X8591071Y-15355357D01*
X8576786Y-15326786D01*
X8562500Y-15283929D01*
X8548214Y-15212500D01*
X8548214Y-15155357D01*
X8562500Y-15083929D01*
X8576786Y-15041071D01*
X8591071Y-15012500D01*
X8619643Y-14969643D01*
X8633928Y-14955357D01*
X8733928Y-15026786D02*
X8748214Y-15012500D01*
X8776786Y-14998214D01*
X8848214Y-14998214D01*
X8876786Y-15012500D01*
X8891071Y-15026786D01*
X8905357Y-15055357D01*
X8905357Y-15083929D01*
X8891071Y-15126786D01*
X8719643Y-15298214D01*
X8905357Y-15298214D01*
X9162500Y-15098214D02*
X9162500Y-15298214D01*
X9091071Y-14983929D02*
X9019643Y-15198214D01*
X9205357Y-15198214D01*
X9548214Y-15298214D02*
X9548214Y-14998214D01*
X9676786Y-15298214D02*
X9676786Y-15141071D01*
X9662500Y-15112500D01*
X9633928Y-15098214D01*
X9591071Y-15098214D01*
X9562500Y-15112500D01*
X9548214Y-15126786D01*
X9862500Y-15298214D02*
X9833928Y-15283929D01*
X9819643Y-15269643D01*
X9805357Y-15241071D01*
X9805357Y-15155357D01*
X9819643Y-15126786D01*
X9833928Y-15112500D01*
X9862500Y-15098214D01*
X9905357Y-15098214D01*
X9933928Y-15112500D01*
X9948214Y-15126786D01*
X9962500Y-15155357D01*
X9962500Y-15241071D01*
X9948214Y-15269643D01*
X9933928Y-15283929D01*
X9905357Y-15298214D01*
X9862500Y-15298214D01*
X10133928Y-15298214D02*
X10105357Y-15283929D01*
X10091071Y-15255357D01*
X10091071Y-14998214D01*
X10362500Y-15283929D02*
X10333928Y-15298214D01*
X10276786Y-15298214D01*
X10248214Y-15283929D01*
X10233928Y-15255357D01*
X10233928Y-15141071D01*
X10248214Y-15112500D01*
X10276786Y-15098214D01*
X10333928Y-15098214D01*
X10362500Y-15112500D01*
X10376786Y-15141071D01*
X10376786Y-15169643D01*
X10233928Y-15198214D01*
X10491071Y-15283929D02*
X10519643Y-15298214D01*
X10576786Y-15298214D01*
X10605357Y-15283929D01*
X10619643Y-15255357D01*
X10619643Y-15241071D01*
X10605357Y-15212500D01*
X10576786Y-15198214D01*
X10533928Y-15198214D01*
X10505357Y-15183929D01*
X10491071Y-15155357D01*
X10491071Y-15141071D01*
X10505357Y-15112500D01*
X10533928Y-15098214D01*
X10576786Y-15098214D01*
X10605357Y-15112500D01*
X10719643Y-15412500D02*
X10733928Y-15398214D01*
X10762500Y-15355357D01*
X10776786Y-15326786D01*
X10791071Y-15283929D01*
X10805357Y-15212500D01*
X10805357Y-15155357D01*
X10791071Y-15083929D01*
X10776786Y-15041071D01*
X10762500Y-15012500D01*
X10733928Y-14969643D01*
X10719643Y-14955357D01*
X3717500Y-15443500D02*
X3947500Y-15673500D01*
X3947500Y-15443500D02*
X3717500Y-15673500D01*
X3832500Y-15673500D02*
X3947500Y-15558500D01*
X3832500Y-15443500D01*
X3717500Y-15558500D01*
X3832500Y-15673500D01*
X4219643Y-15422786D02*
X4233928Y-15408500D01*
X4262500Y-15394214D01*
X4333928Y-15394214D01*
X4362500Y-15408500D01*
X4376786Y-15422786D01*
X4391071Y-15451357D01*
X4391071Y-15479929D01*
X4376786Y-15522786D01*
X4205357Y-15694214D01*
X4391071Y-15694214D01*
X4519643Y-15665643D02*
X4533928Y-15679929D01*
X4519643Y-15694214D01*
X4505357Y-15679929D01*
X4519643Y-15665643D01*
X4519643Y-15694214D01*
X4633928Y-15394214D02*
X4819643Y-15394214D01*
X4719643Y-15508500D01*
X4762500Y-15508500D01*
X4791071Y-15522786D01*
X4805357Y-15537071D01*
X4819643Y-15565643D01*
X4819643Y-15637071D01*
X4805357Y-15665643D01*
X4791071Y-15679929D01*
X4762500Y-15694214D01*
X4676786Y-15694214D01*
X4648214Y-15679929D01*
X4633928Y-15665643D01*
X5005357Y-15394214D02*
X5033928Y-15394214D01*
X5062500Y-15408500D01*
X5076786Y-15422786D01*
X5091071Y-15451357D01*
X5105357Y-15508500D01*
X5105357Y-15579929D01*
X5091071Y-15637071D01*
X5076786Y-15665643D01*
X5062500Y-15679929D01*
X5033928Y-15694214D01*
X5005357Y-15694214D01*
X4976786Y-15679929D01*
X4962500Y-15665643D01*
X4948214Y-15637071D01*
X4933928Y-15579929D01*
X4933928Y-15508500D01*
X4948214Y-15451357D01*
X4962500Y-15422786D01*
X4976786Y-15408500D01*
X5005357Y-15394214D01*
X5233928Y-15694214D02*
X5233928Y-15494214D01*
X5233928Y-15522786D02*
X5248214Y-15508500D01*
X5276786Y-15494214D01*
X5319643Y-15494214D01*
X5348214Y-15508500D01*
X5362500Y-15537071D01*
X5362500Y-15694214D01*
X5362500Y-15537071D02*
X5376786Y-15508500D01*
X5405357Y-15494214D01*
X5448214Y-15494214D01*
X5476786Y-15508500D01*
X5491071Y-15537071D01*
X5491071Y-15694214D01*
X5633928Y-15694214D02*
X5633928Y-15494214D01*
X5633928Y-15522786D02*
X5648214Y-15508500D01*
X5676786Y-15494214D01*
X5719643Y-15494214D01*
X5748214Y-15508500D01*
X5762500Y-15537071D01*
X5762500Y-15694214D01*
X5762500Y-15537071D02*
X5776786Y-15508500D01*
X5805357Y-15494214D01*
X5848214Y-15494214D01*
X5876786Y-15508500D01*
X5891071Y-15537071D01*
X5891071Y-15694214D01*
X6476786Y-15379929D02*
X6219643Y-15765643D01*
X6862500Y-15394214D02*
X6891071Y-15394214D01*
X6919643Y-15408500D01*
X6933928Y-15422786D01*
X6948214Y-15451357D01*
X6962500Y-15508500D01*
X6962500Y-15579929D01*
X6948214Y-15637071D01*
X6933928Y-15665643D01*
X6919643Y-15679929D01*
X6891071Y-15694214D01*
X6862500Y-15694214D01*
X6833928Y-15679929D01*
X6819643Y-15665643D01*
X6805357Y-15637071D01*
X6791071Y-15579929D01*
X6791071Y-15508500D01*
X6805357Y-15451357D01*
X6819643Y-15422786D01*
X6833928Y-15408500D01*
X6862500Y-15394214D01*
X7091071Y-15665643D02*
X7105357Y-15679929D01*
X7091071Y-15694214D01*
X7076786Y-15679929D01*
X7091071Y-15665643D01*
X7091071Y-15694214D01*
X7291071Y-15394214D02*
X7319643Y-15394214D01*
X7348214Y-15408500D01*
X7362500Y-15422786D01*
X7376786Y-15451357D01*
X7391071Y-15508500D01*
X7391071Y-15579929D01*
X7376786Y-15637071D01*
X7362500Y-15665643D01*
X7348214Y-15679929D01*
X7319643Y-15694214D01*
X7291071Y-15694214D01*
X7262500Y-15679929D01*
X7248214Y-15665643D01*
X7233928Y-15637071D01*
X7219643Y-15579929D01*
X7219643Y-15508500D01*
X7233928Y-15451357D01*
X7248214Y-15422786D01*
X7262500Y-15408500D01*
X7291071Y-15394214D01*
X7533928Y-15694214D02*
X7591071Y-15694214D01*
X7619643Y-15679929D01*
X7633928Y-15665643D01*
X7662500Y-15622786D01*
X7676786Y-15565643D01*
X7676786Y-15451357D01*
X7662500Y-15422786D01*
X7648214Y-15408500D01*
X7619643Y-15394214D01*
X7562500Y-15394214D01*
X7533928Y-15408500D01*
X7519643Y-15422786D01*
X7505357Y-15451357D01*
X7505357Y-15522786D01*
X7519643Y-15551357D01*
X7533928Y-15565643D01*
X7562500Y-15579929D01*
X7619643Y-15579929D01*
X7648214Y-15565643D01*
X7662500Y-15551357D01*
X7676786Y-15522786D01*
X7962500Y-15694214D02*
X7791071Y-15694214D01*
X7876786Y-15694214D02*
X7876786Y-15394214D01*
X7848214Y-15437071D01*
X7819643Y-15465643D01*
X7791071Y-15479929D01*
X8076786Y-15394214D02*
X8076786Y-15451357D01*
X8191071Y-15394214D02*
X8191071Y-15451357D01*
X8633928Y-15808500D02*
X8619643Y-15794214D01*
X8591071Y-15751357D01*
X8576786Y-15722786D01*
X8562500Y-15679929D01*
X8548214Y-15608500D01*
X8548214Y-15551357D01*
X8562500Y-15479929D01*
X8576786Y-15437071D01*
X8591071Y-15408500D01*
X8619643Y-15365643D01*
X8633928Y-15351357D01*
X8733928Y-15422786D02*
X8748214Y-15408500D01*
X8776786Y-15394214D01*
X8848214Y-15394214D01*
X8876786Y-15408500D01*
X8891071Y-15422786D01*
X8905357Y-15451357D01*
X8905357Y-15479929D01*
X8891071Y-15522786D01*
X8719643Y-15694214D01*
X8905357Y-15694214D01*
X9091071Y-15394214D02*
X9119643Y-15394214D01*
X9148214Y-15408500D01*
X9162500Y-15422786D01*
X9176786Y-15451357D01*
X9191071Y-15508500D01*
X9191071Y-15579929D01*
X9176786Y-15637071D01*
X9162500Y-15665643D01*
X9148214Y-15679929D01*
X9119643Y-15694214D01*
X9091071Y-15694214D01*
X9062500Y-15679929D01*
X9048214Y-15665643D01*
X9033928Y-15637071D01*
X9019643Y-15579929D01*
X9019643Y-15508500D01*
X9033928Y-15451357D01*
X9048214Y-15422786D01*
X9062500Y-15408500D01*
X9091071Y-15394214D01*
X9548214Y-15694214D02*
X9548214Y-15394214D01*
X9676786Y-15694214D02*
X9676786Y-15537071D01*
X9662500Y-15508500D01*
X9633928Y-15494214D01*
X9591071Y-15494214D01*
X9562500Y-15508500D01*
X9548214Y-15522786D01*
X9862500Y-15694214D02*
X9833928Y-15679929D01*
X9819643Y-15665643D01*
X9805357Y-15637071D01*
X9805357Y-15551357D01*
X9819643Y-15522786D01*
X9833928Y-15508500D01*
X9862500Y-15494214D01*
X9905357Y-15494214D01*
X9933928Y-15508500D01*
X9948214Y-15522786D01*
X9962500Y-15551357D01*
X9962500Y-15637071D01*
X9948214Y-15665643D01*
X9933928Y-15679929D01*
X9905357Y-15694214D01*
X9862500Y-15694214D01*
X10133928Y-15694214D02*
X10105357Y-15679929D01*
X10091071Y-15651357D01*
X10091071Y-15394214D01*
X10362500Y-15679929D02*
X10333928Y-15694214D01*
X10276786Y-15694214D01*
X10248214Y-15679929D01*
X10233928Y-15651357D01*
X10233928Y-15537071D01*
X10248214Y-15508500D01*
X10276786Y-15494214D01*
X10333928Y-15494214D01*
X10362500Y-15508500D01*
X10376786Y-15537071D01*
X10376786Y-15565643D01*
X10233928Y-15594214D01*
X10491071Y-15679929D02*
X10519643Y-15694214D01*
X10576786Y-15694214D01*
X10605357Y-15679929D01*
X10619643Y-15651357D01*
X10619643Y-15637071D01*
X10605357Y-15608500D01*
X10576786Y-15594214D01*
X10533928Y-15594214D01*
X10505357Y-15579929D01*
X10491071Y-15551357D01*
X10491071Y-15537071D01*
X10505357Y-15508500D01*
X10533928Y-15494214D01*
X10576786Y-15494214D01*
X10605357Y-15508500D01*
X10719643Y-15808500D02*
X10733928Y-15794214D01*
X10762500Y-15751357D01*
X10776786Y-15722786D01*
X10791071Y-15679929D01*
X10805357Y-15608500D01*
X10805357Y-15551357D01*
X10791071Y-15479929D01*
X10776786Y-15437071D01*
X10762500Y-15408500D01*
X10733928Y-15365643D01*
X10719643Y-15351357D01*
M02*
